<svg width="800" height="459.9999999999999" xmlns="http://www.w3.org/2000/svg" xmlns:svg="http://www.w3.org/2000/svg" xmlns:xlink="http://www.w3.org/1999/xlink">
 <!-- Created with SVG-edit - http://svg-edit.googlecode.com/ -->
 <defs>
  <radialGradient spreadMethod="pad" id="svg_1">
   <stop offset="0.1403" stop-color="#722b2b"/>
   <stop offset="0.18717" stop-color="#8dd4d4"/>
   <stop offset="0.18717" stop-color="#8dd4d4"/>
   <stop offset="0.80436" stop-color="#722b2b"/>
   <stop offset="1" stop-color="#8dd4d4"/>
  </radialGradient>
 </defs>
 <g stroke="null">
  <title>Layer 1</title>
  <rect fill="#ffffff" stroke-width="0" stroke-dasharray="null" stroke-linejoin="null" stroke-linecap="null" x="603.51593" y="359.83788" width="192.00001" height="176" id="svg_36" stroke="#000000"/>
  <rect stroke="#000000" fill="#ff7f00" stroke-width="0" stroke-dasharray="null" stroke-linejoin="null" stroke-linecap="null" x="605.74438" y="-6.4108" width="193.77537" height="367.36547" id="svg_23"/>
  <path fill="#f77171" stroke-width="0.3" d="m574.57157,135.50138l84.29301,-162.04611l84.29302,162.04611l-168.58603,0z" transform="rotate(-151.9648895263672 658.8646240234374,54.478332519531286) " stroke="#fcc7c7" id="svg_6"/>
  <path fill="#f77171" stroke-width="0.3" d="m644.47937,194.98475l84.29301,-162.0461l84.29301,162.0461l-168.58603,0l0.00001,0z" id="svg_2" transform="rotate(25.777170181274414 728.7723999023438,113.9616851806642) " stroke="#fcc7c7"/>
  <ellipse stroke="#000000" opacity="0.6" fill="url(#svg_1)" stroke-width="0" stroke-dasharray="null" stroke-linejoin="null" stroke-linecap="null" cx="290.26013" cy="363.01106" id="svg_34" rx="73.30617" ry="3.54257"/>
  <image id="svg_14" x="-710.68862" y="-2.59109" width="758.47436" height="1196.3741" xlink:href="https://pbs.twimg.com/media/Djy_fm-UcAALUC6.jpg:large" transform="rotate(-149.9510955810547 372.4449157714844,146.6788482666016) matrix(-1.3414639249594948,0,0,0.9848477451389002,-72.18301703755672,-439.9006936605306) " opacity="0.45"/>
  <path fill="#f77171" stroke-width="0.3" d="m638.11604,444.31588l84.29301,-162.04611l84.29302,162.04611l-168.58603,0z" transform="rotate(27.031597137451172 722.4089965820309,363.29281616210943) " id="svg_5" stroke="#fcc7c7"/>
  <path fill="#f77171" stroke-width="0.3" d="m579.7216,357.19479l84.29301,-162.04611l84.29302,162.04611l-168.58603,0z" transform="rotate(-155.75503540039062 664.0145874023438,276.1717529296875) " stroke="#fcc7c7" id="svg_4"/>
  <image x="-250.18638" y="-426.01817" width="758.47436" height="1196.3741" id="svg_40" xlink:href="https://pbs.twimg.com/media/Djy_fm-UcAALUC6.jpg:large" transform="rotate(147.55633544921875 129.05079650878906,172.16888427734375) " opacity="0.45"/>
  <rect fill="#ffffff" stroke="#000000" stroke-width="0" stroke-dasharray="null" stroke-linejoin="null" stroke-linecap="null" x="-26.0864" y="358.58642" width="26.66667" height="177.77778" id="svg_37"/>
  <image x="-36.6613" y="-3.71784" width="640" height="360" id="svg_3" xlink:href="https://pbs.twimg.com/media/DjjSktRU8AAVNUZ.jpg"/>
  <rect stroke="#000000" fill="#fc67af" stroke-width="0" x="-20.73238" y="397.83668" width="821.93373" height="126.91977" id="svg_20" opacity="0.45"/>
  <rect stroke="#000000" fill="#cc4343" stroke-width="0" x="-12.25718" y="352.98469" width="854.82242" height="171.06652" id="svg_16" opacity="0.8"/>
  <rect stroke="#000000" fill="#ff77b9" stroke-width="0" x="-13.05" y="360.01046" width="825.33327" height="44.11696" opacity="0.55" id="svg_21"/>
  <rect stroke="#000000" id="svg_39" fill="#ff77b9" stroke-width="0" x="-10.94474" y="358.95783" width="825.33327" height="5.1696" opacity="0.55"/>
  <rect fill="#ff7f00" stroke-width="0" stroke-dasharray="null" stroke-linejoin="null" stroke-linecap="null" x="-17.88103" y="-2.65882" width="11.19445" height="542.05555" id="svg_22" stroke="#000000"/>
  <rect fill="#00ffff" stroke-width="0" x="-28.69125" y="478.51337" width="834.22206" height="48.88887" opacity="0.3" id="svg_24" stroke="#000000"/>
  <path fill="#ffffff" stroke-width="0.3" d="m635.69715,291.3364l34.9338,-58.24967l34.9338,58.24967l-69.8676,0z" transform="rotate(-152.88461303710938 670.6309814453125,262.2115783691407) " opacity="0.3" stroke="#fcc7c7" id="svg_9"/>
  <path fill="#0000ff" stroke-width="0" stroke-dasharray="null" stroke-linejoin="null" stroke-linecap="null" d="m370.70654,291.47122l128.06602,-42.28626l128.06602,42.28626l-256.13204,0z" id="svg_31" transform="rotate(20.19529914855957 498.77258300781256,270.32809448242193) " stroke="#000000"/>
  <rect stroke="#000000" opacity="0.2" id="svg_11" height="8.96862" width="793.16146" y="368.16977" x="-7.14409" stroke-linecap="null" stroke-linejoin="null" stroke-dasharray="null" stroke-width="0" fill="#ff0000"/>
  <rect id="svg_12" stroke="#000000" opacity="0.2" height="8.96862" width="793.16146" y="379.94107" x="-6.02301" stroke-linecap="null" stroke-linejoin="null" stroke-dasharray="null" stroke-width="0" fill="#fc67fc"/>
  <rect fill="#0000ff" stroke-width="0" stroke-dasharray="null" stroke-linejoin="null" stroke-linecap="null" x="459.41974" y="286.22011" width="4.87067" height="145.90681" id="svg_33" transform="rotate(21.116586685180664 461.8550415039061,359.1735229492187) " stroke="#000000"/>
  <rect fill="#3f3f3f" stroke-width="0" stroke-dasharray="null" stroke-linejoin="null" stroke-linecap="null" x="462.58131" y="295.95744" width="2.14168" height="123.16947" id="svg_42" transform="rotate(21.344223022460938 463.6521301269531,357.5421752929688) " opacity="0.2" stroke="#000000"/>
  <rect fill="#3f3f3f" stroke-width="0" stroke-dasharray="null" stroke-linejoin="null" stroke-linecap="null" x="435.71925" y="441.95285" width="145.10928" height="2.69829" id="svg_43" transform="rotate(13.398824691772461 508.2738952636718,443.30200195312506) " stroke="#000000"/>
  <path stroke="#000000" fill="#3f3f3f" stroke-width="0" stroke-dasharray="null" stroke-linejoin="null" stroke-linecap="null" d="m544.88005,466.71291l57.5831,-6.74031l57.5831,6.74031l-115.16619,0l-0.00001,0z" transform="rotate(107.0465087890625 602.463134765625,463.3427734375) " id="svg_45" opacity="0.75"/>
  <path fill="#3f3f3f" stroke-width="0" stroke-dasharray="null" stroke-linejoin="null" stroke-linecap="null" d="m529.42497,448.667l57.5831,27.02853l57.5831,-27.02853l-115.1662,0z" transform="rotate(107.0465087890625 587.008056640625,462.18127441406256) " opacity="0.75" id="svg_46" stroke="#000000"/>
  <path fill="#3f3f3f" stroke-width="0" stroke-dasharray="null" stroke-linejoin="null" stroke-linecap="null" d="m469.25025,287.17106l28.94411,-35.26051l28.94411,35.26051l-57.88821,0l-0.00001,0z" transform="rotate(22.506139755249023 498.19433593749983,269.5408020019531) " id="svg_49" opacity="0.25" stroke="#000000"/>
  <path fill="#3f3f3f" stroke-width="0" stroke-dasharray="null" stroke-linejoin="null" stroke-linecap="null" opacity="0.25" d="m551.33833,352.76701l0.26363,-127.54397l0.87877,0l0.26363,127.54397l-1.40604,0l0.00001,0z" id="svg_52" transform="rotate(-51.92229080200195 552.0413208007812,288.99499511718744) " stroke="#000000"/>
  <path fill="#ffffff" stroke-width="0.3" d="m623.14983,88.57236l34.9338,-58.24967l34.9338,58.24967l-69.8676,0z" transform="rotate(-152.88461303710938 658.0836181640625,59.447525024414055) " id="svg_7" opacity="0.3" stroke="#fcc7c7"/>
  <path fill="#ffffff" stroke-width="0.3" d="m667.88524,174.2243l34.9338,-58.24967l34.9338,58.24967l-69.8676,0z" transform="rotate(23.82833480834961 702.8190307617188,145.09945678710926) " opacity="0.3" stroke="#fcc7c7" id="svg_8"/>
  <path fill="#ffffff" stroke-width="0.3" d="m709.30022,361.49769l15.52284,-35.63326l15.52284,35.63326l-31.04568,0z" transform="rotate(-110.44658660888672 724.8230590820314,343.6810607910157) " opacity="0.3" id="svg_10" stroke="#fcc7c7"/>
  <rect id="svg_13" stroke="#000000" opacity="0.2" height="8.96862" width="793.16146" y="389.47022" x="1.82452" stroke-linecap="null" stroke-linejoin="null" stroke-dasharray="null" stroke-width="0" fill="#e24d4d"/>
  <path id="svg_18" d="m224.10886,437.79163l0.1051,-0.56053l0.35033,0l0.1051,0.56053l-0.56053,0z" opacity="0.1" stroke-linecap="null" stroke-linejoin="null" stroke-dasharray="null" stroke-width="0.3" stroke="#fcc7c7" fill="#ffffff"/>
 </g>
</svg>
