<svg width="640" height="480" xmlns="http://www.w3.org/2000/svg" xmlns:svg="http://www.w3.org/2000/svg">
 <!-- Created with SVG-edit - http://svg-edit.googlecode.com/ -->
 <g>
  <title>Layer 1</title>
  <ellipse stroke="#000000" ry="75.5" rx="107.5" id="svg_1" cy="175.75" cx="427.00001" stroke-linecap="null" stroke-linejoin="null" stroke-dasharray="null" stroke-width="0" fill="#bfbfbf"/>
  <ellipse id="svg_2" stroke="#000000" ry="75.5" rx="107.5" cy="110.25" cx="333.75001" stroke-linecap="null" stroke-linejoin="null" stroke-dasharray="null" stroke-width="0" fill="#bfbfbf"/>
  <ellipse stroke="#000000" id="svg_3" ry="75.5" rx="253.99999" cy="197" cx="323" stroke-linecap="null" stroke-linejoin="null" stroke-dasharray="null" stroke-width="0" fill="#bfbfbf"/>
  <polygon stroke="#000000" transform="rotate(-9.55737590789795 244.4012603759763,188.6773071289063) " stroke-width="0" points="277.6058044433594,188.6773223876953 252.23980712890625,256.0595703125 211.1967315673828,230.3218536376953 211.1967315673828,147.0327606201172 252.23980712890625,121.2950439453125 277.6058044433594,188.6773223876953 " strokeWidth="0" strokecolor="#000000" fill="#bfbfbf" edge="43.15522" orient="x" sides="5" shape="regularPoly" id="svg_14" cy="166.73434" cx="230.32815"/>
  <ellipse id="svg_4" stroke="#000000" ry="75.5" rx="107.5" cy="161.25" cx="222.50001" stroke-linecap="null" stroke-linejoin="null" stroke-dasharray="null" stroke-width="0" fill="#bfbfbf"/>
  <ellipse id="svg_18" stroke="#000000" ry="61.5" rx="55.39178" cy="186.42014" cx="296.87494" stroke-linecap="null" stroke-linejoin="null" stroke-dasharray="null" stroke-width="0" fill="#bfbfbf"/>
  <ellipse stroke="#000000" transform="rotate(72.45661926269531 300.78698730468744,189.6783142089844) " ry="71.63958" rx="51.17303" id="svg_5" cy="189.67831" cx="300.78698" stroke-linecap="null" stroke-linejoin="null" stroke-dasharray="null" stroke-width="0" fill="#ffff00"/>
  <path stroke="#000000" transform="rotate(-104.19422912597656 82.71899414062501,314.485595703125) " id="svg_6" d="m18.23917,325.51271l64.47986,-22.05424l64.47986,22.05424l-128.95971,0z" stroke-linecap="null" stroke-linejoin="null" stroke-dasharray="null" stroke-width="0" fill="#bfbfbf"/>
  <path stroke="#000000" transform="rotate(-123.6020278930664 184.1119384765625,350.6844482421875) " id="svg_8" d="m176.59813,379.86702l7.51383,-58.36516l7.51383,58.36516l-15.02765,0z" stroke-linecap="null" stroke-linejoin="null" stroke-dasharray="null" stroke-width="0" fill="#bfbfbf"/>
  <path stroke="#000000" id="svg_9" transform="rotate(-92.91526794433594 216.3107604980469,365.6728820800781) " d="m206.85874,403.84632l9.45202,-76.34687l9.45202,76.34687l-18.90403,0z" stroke-linecap="null" stroke-linejoin="null" stroke-dasharray="null" stroke-width="0" fill="#bfbfbf"/>
  <path stroke="#000000" transform="rotate(18.28342628479004 220.79284667968767,315.3994750976562) " id="svg_13" d="m216.36816,290.33549c0,0 -4.36842,21.74074 -12.23156,30.57291c-7.86315,8.83217 -8.73683,8.83217 -9.57822,8.68126c-0.84139,-0.15092 17.44137,-8.68126 32.29398,-1.20788c14.85261,7.47338 20.96839,12.22916 20.127,12.07825c-0.84139,-0.15092 -30.6112,-50.12453 -30.6112,-50.12453z" stroke-linecap="null" stroke-linejoin="null" stroke-dasharray="null" stroke-width="0" fill="#bfbfbf"/>
  <polygon strokeWidth="0" strokecolor="#000000" fill="#bfbfbf" edge="0" orient="x" sides="5" shape="regularPoly" id="svg_15" cy="157.03121" cx="224.4219"/>
  <path id="svg_19" stroke="#000000" transform="rotate(-158.58554077148438 134.1678466796875,325.5245056152344) " d="m129.74316,300.46049c0,0 -4.36842,21.74073 -12.23156,30.57291c-7.86315,8.83217 -8.73684,8.83217 -9.57823,8.68125c-0.84139,-0.15091 17.44137,-8.68125 32.29398,-1.20787c14.85262,7.47337 20.9684,12.22916 20.12701,12.07824c-0.8414,-0.15092 -30.6112,-50.12453 -30.6112,-50.12453z" stroke-linecap="null" stroke-linejoin="null" stroke-dasharray="null" stroke-width="0" fill="#bfbfbf"/>
  <path id="svg_20" stroke="#000000" transform="rotate(-65.3220443725586 140.23696899414062,387.2469482421875) " d="m132.72313,416.42952l7.51382,-58.36516l7.51383,58.36516l-15.02765,0z" stroke-linecap="null" stroke-linejoin="null" stroke-dasharray="null" stroke-width="0" fill="#bfbfbf"/>
  <polygon transform="rotate(-60.35942459106445 283.51123046875006,194.4375152587891) " stroke-width="0" stroke="#000000" points="319.7306823730469,194.43751525878906 292.0614929199219,232.52088928222656 247.29180908203125,217.97433471679688 247.29180908203125,170.90069580078125 292.0614929199219,156.35414123535156 319.7306823730469,194.43751525878906 " strokeWidth="0" strokecolor="#000000" fill="#bfbfbf" edge="47.07363" orient="x" sides="5" shape="regularPoly" id="svg_21" cy="170.25002" cx="257.74995"/>
  <polygon id="svg_23" transform="rotate(-63.21535873413086 298.26123046875,187.41668701171872) " stroke-width="0" stroke="#000000" points="334.4806823730469,187.41668176651 306.8114929199219,225.5000557899475 262.04180908203125,210.95350122451782 262.04180908203125,163.8798623085022 306.8114929199219,149.3333077430725 334.4806823730469,187.41668176651 " strokeWidth="0" strokecolor="#000000" fill="#ffff00" edge="47.07363" orient="x" sides="5" shape="regularPoly" cy="170.25002" cx="257.74995"/>
  <polygon id="svg_24" transform="rotate(-29.314687728881836 321.19873046875,182.06251525878912) " stroke-width="0" stroke="#000000" points="357.4181823730469,182.06251525878906 329.7489929199219,220.14588928222656 284.97930908203125,205.59933471679688 284.97930908203125,158.52569580078125 329.7489929199219,143.97914123535156 357.4181823730469,182.06251525878906 " strokeWidth="0" strokecolor="#000000" fill="#bfbfbf" edge="47.07363" orient="x" sides="5" shape="regularPoly" cy="170.25002" cx="257.74995"/>
  <polygon stroke="#000000" id="svg_25" transform="rotate(-29.48406219482422 311.73916625976557,186.71994018554693) " stroke-width="0" points="342.47943115234375,186.71994018554688 318.9959411621094,224.80331420898438 280.9989013671875,210.2567596435547 280.9989013671875,163.18312072753906 318.9959411621094,148.63656616210938 342.47943115234375,186.71994018554688 " strokeWidth="0" strokecolor="#000000" fill="#ffff00" edge="47.07363" orient="x" sides="5" shape="regularPoly" cy="170.25002" cx="257.74995"/>
  <path stroke="#000000" id="svg_27" d="m295.29357,198.26953c0,0 -8.07738,-11.54067 1.34623,-9.58462c9.42361,1.95605 17.50098,3.52088 12.78918,-3.71649c-4.7118,-7.23737 -4.03869,-8.41099 -4.04628,-8.46653c-0.00759,-0.05554 13.46989,7.48851 6.06562,11.4006c-7.40426,3.91209 -11.94779,-0.58681 -14.64025,-0.58681c-2.69246,0 -4.03869,2.73846 -3.70213,5.86814c0.33656,3.12967 2.18762,5.08572 2.18762,5.08572z" stroke-linecap="null" stroke-linejoin="null" stroke-dasharray="null" stroke-width="0" fill="#bfbfbf"/>
  <path id="svg_28" stroke="#000000" d="m295.29357,199.53516c0,0 -8.07738,-11.54067 1.34623,-9.58462c9.42361,1.95604 17.50098,3.52088 12.78918,-3.71649c-4.7118,-7.23737 -4.03869,-8.41099 -4.04628,-8.46653c-0.00759,-0.05554 13.46988,7.48851 6.06562,11.4006c-7.40426,3.91209 -11.94778,-0.58682 -14.64024,-0.58682c-2.69246,0 -4.03869,2.73847 -3.70213,5.86814c0.33655,3.12967 2.18762,5.08572 2.18762,5.08572z" stroke-linecap="null" stroke-linejoin="null" stroke-dasharray="null" stroke-width="0" fill="#bfbfbf"/>
  <path id="svg_29" stroke="#000000" d="m294.76623,199.32422c0,0 -8.07738,-11.54068 1.34623,-9.58462c9.42361,1.95604 17.50098,3.52088 12.78918,-3.71649c-4.7118,-7.23737 -4.03869,-8.41099 -4.04628,-8.46653c-0.00759,-0.05555 13.46988,7.4885 6.06562,11.4006c-7.40426,3.91209 -11.94778,-0.58682 -14.64024,-0.58682c-2.69246,0 -4.03869,2.73846 -3.70213,5.86813c0.33655,3.12967 2.18762,5.08573 2.18762,5.08573z" stroke-linecap="null" stroke-linejoin="null" stroke-dasharray="null" stroke-width="0" fill="#bfbfbf"/>
  <path transform="rotate(-163.66775512695312 301.3941650390625,190.65509033203128) " id="svg_30" stroke="#000000" d="m293.81701,201.53906c0,0 -8.07738,-11.54068 1.34623,-9.58462c9.42361,1.95604 17.50098,3.52088 12.78918,-3.71649c-4.7118,-7.23737 -4.03869,-8.41099 -4.04628,-8.46653c-0.00759,-0.05555 13.46988,7.4885 6.06562,11.4006c-7.40426,3.91209 -11.94778,-0.58682 -14.64024,-0.58682c-2.69246,0 -4.03869,2.73846 -3.70213,5.86813c0.33655,3.12967 2.18762,5.08573 2.18762,5.08573z" stroke-linecap="null" stroke-linejoin="null" stroke-dasharray="null" stroke-width="0" fill="#bfbfbf"/>
  <path stroke="#000000" opacity="0.2" transform="rotate(151.42947387695312 374.1289978027343,323.87240600585943) " id="svg_31" d="m307.12901,475.7377l25.125,-303.73062l83.75001,0l25.12499,303.73062l-134,0z" stroke-linecap="null" stroke-linejoin="null" stroke-dasharray="null" stroke-width="0" fill="#ffff00"/>
 </g>
</svg>
