<svg width="639.9999999999999" height="479.9999999999997" xmlns="http://www.w3.org/2000/svg" xmlns:svg="http://www.w3.org/2000/svg">
 <!-- Created with SVG-edit - http://svg-edit.googlecode.com/ -->
 <g stroke="null">
  <title>Layer 1</title>
  <ellipse opacity="0.2" stroke="#aaadff" ry="189.50001" rx="284.5" id="svg_44" cy="268.06596" cx="315.84375" stroke-linecap="null" stroke-linejoin="null" stroke-dasharray="null" stroke-width="11" fill="#ffff00"/>
  <ellipse stroke="#ffaaaa" ry="170.5" rx="263.50003" id="svg_43" cy="265.06596" cx="315.84376" stroke-linecap="null" stroke-linejoin="null" stroke-dasharray="null" stroke-width="11" fill="#fc80fc"/>
  <rect stroke="#0f0e0e" transform="rotate(-9.940591812133789 342.68939208984466,318.77346801757807) " id="svg_49" height="65" width="398.91046" y="286.27348" x="143.23418" stroke-linecap="null" stroke-linejoin="null" stroke-dasharray="null" stroke-width="0" fill="#ffd4aa"/>
  <rect stroke="#0f0e0e" id="svg_31" height="5" width="4" y="224.4" x="275.6" stroke-linecap="null" stroke-linejoin="null" stroke-dasharray="null" stroke-width="null" fill="#7f0000"/>
  <path stroke="#0f0e0e" id="svg_24" d="m375.23201,262.74987l12.50001,-61.00002l12.50002,61.00002l-25.00003,0z" stroke-linecap="null" stroke-linejoin="null" stroke-dasharray="null" stroke-width="null" fill="#007f00"/>
  <path stroke="#0f0e0e" id="svg_20" d="m335.23201,222.74987l12.50001,-42.00002l12.50002,42.00002l-25.00003,0z" stroke-linecap="null" stroke-linejoin="null" stroke-dasharray="null" stroke-width="null" fill="#007f00"/>
  <path stroke="#0f0e0e" id="svg_16" d="m293.23201,229.74987l12.50001,-42.00002l12.50002,42.00002l-25.00003,0z" stroke-linecap="null" stroke-linejoin="null" stroke-dasharray="null" stroke-width="null" fill="#007f00"/>
  <path stroke="#0f0e0e" d="m340.26859,226.40761l1.37498,-39.56299l1.37498,39.56299l-2.74996,0l-0.00001,0l0.00001,0z" stroke-linecap="null" stroke-linejoin="null" stroke-dasharray="null" stroke-width="0" fill="#7fff00" transform="rotate(12.636434555053711 341.64358520507807,206.62611389160162) " id="svg_12"/>
  <path stroke="#0f0e0e" d="m384.9844,223.20265l1.3865,-19.25438l1.3865,19.25438l-2.77299,0l-0.00001,0z" stroke-linecap="null" stroke-linejoin="null" stroke-dasharray="null" stroke-width="0" fill="#7fff00" transform="rotate(7.052005290985107 386.37091064453136,213.57545471191412) " id="svg_39"/>
  <path stroke="#000000" id="svg_5" d="m548.6,260.54453c-251.67472,-35.87935 -108.29032,-62.53258 -251.67472,-35.87935c-143.3844,26.65323 13.03495,-60.48233 -121.32526,80.98482" fill="#ffff00"/>
  <ellipse stroke="#0f0e0e" transform="rotate(25.98764419555664 174.09120178222622,385.82727050781256) " ry="20.43471" rx="84.08898" id="svg_55" cy="385.82728" cx="174.09119" stroke-linecap="null" stroke-linejoin="null" stroke-dasharray="null" stroke-width="0" fill="#ffd4aa"/>
  <ellipse stroke="#0f0e0e" id="svg_60" transform="rotate(-73.8546142578125 546.5213623046874,286.1108398437499) " ry="29.74326" rx="26.87245" cy="286.11086" cx="546.52137" stroke-linecap="null" stroke-linejoin="null" stroke-dasharray="null" stroke-width="0" fill="#ffd4aa"/>
  <path stroke="#0f0e0e" id="svg_8" d="m427.32694,291.39613l72.00006,-59.5l72.00006,59.5l-144.00012,0z" stroke-linecap="null" stroke-linejoin="null" stroke-dasharray="null" stroke-width="null" fill="#7fff00"/>
  <path stroke="#0f0e0e" transform="rotate(-0.001314205233938992 499.2775268517079,261.2416076666676) " id="svg_11" d="m479.80055,287.42604l19.47698,-52.36884l19.47698,52.36884l-38.95396,0z" stroke-linecap="null" stroke-linejoin="null" stroke-dasharray="null" stroke-width="null" fill="#3f3f3f"/>
  <path stroke="#0f0e0e" id="svg_13" d="m270.23202,224.74987l7.50001,-42.00003l7.50001,42.00003l-15.00001,0l-0.00001,0z" stroke-linecap="null" stroke-linejoin="null" stroke-dasharray="null" stroke-width="null" fill="#007f00"/>
  <rect stroke="#0f0e0e" id="svg_32" height="5" width="4" y="242.44224" x="293.24404" stroke-linecap="null" stroke-linejoin="null" stroke-dasharray="null" stroke-width="null" fill="#7f0000"/>
  <path stroke="#0f0e0e" d="m300.22062,226.25496l1.49076,-39.56299l1.49076,39.56299l-2.98152,0l-0.00001,0l0.00001,0z" stroke-linecap="null" stroke-linejoin="null" stroke-dasharray="null" stroke-width="0" fill="#7fff00" transform="rotate(12.636434555053711 301.71139526367205,206.47346496582028) " id="svg_9"/>
  <path stroke="#0f0e0e" id="svg_14" d="m285.23201,244.74987l10.00001,-42.00002l10.00002,42.00002l-20.00002,0l-0.00001,0z" stroke-linecap="null" stroke-linejoin="null" stroke-dasharray="null" stroke-width="null" fill="#007f00"/>
  <rect stroke="#0f0e0e" height="5" width="4" y="227.13608" x="319.76284" stroke-linecap="null" stroke-linejoin="null" stroke-dasharray="null" stroke-width="null" fill="#7f0000" id="svg_4"/>
  <path stroke="#0f0e0e" id="svg_17" d="m309.23201,229.74987l12.50001,-42.00002l12.50002,42.00002l-25.00003,0z" stroke-linecap="null" stroke-linejoin="null" stroke-dasharray="null" stroke-width="null" fill="#007f00"/>
  <rect stroke="#0f0e0e" id="svg_33" height="5" width="3.41797" y="263.13437" x="312.6" stroke-linecap="null" stroke-linejoin="null" stroke-dasharray="null" stroke-width="null" fill="#7f0000"/>
  <path stroke="#0f0e0e" d="m315.34879,229.45857l1.49077,-39.56299l1.49077,39.56299l-2.98152,0l-0.00001,0l-0.00001,0z" stroke-linecap="null" stroke-linejoin="null" stroke-dasharray="null" stroke-width="0" fill="#7fff00" transform="rotate(12.636434555053711 316.83953857421903,209.67706298828142) " id="svg_3"/>
  <path stroke="#0f0e0e" id="svg_15" d="m305.23201,264.74987l10.00001,-42.00002l10.00002,42.00002l-20.00002,0l-0.00001,0z" stroke-linecap="null" stroke-linejoin="null" stroke-dasharray="null" stroke-width="null" fill="#007f00"/>
  <rect stroke="#0f0e0e" id="svg_34" height="5" width="3.33887" y="238.21348" x="334.02383" stroke-linecap="null" stroke-linejoin="null" stroke-dasharray="null" stroke-width="null" fill="#7f0000"/>
  <path stroke="#0f0e0e" id="svg_22" d="m328.23202,240.74987l7.5,-42.00002l7.50001,42.00002l-15.00001,0z" stroke-linecap="null" stroke-linejoin="null" stroke-dasharray="null" stroke-width="null" fill="#007f00"/>
  <rect stroke="#0f0e0e" height="5" width="5" y="231.09434" x="359.89004" stroke-linecap="null" stroke-linejoin="null" stroke-dasharray="null" stroke-width="null" fill="#7f0000" id="svg_29"/>
  <path stroke="#0f0e0e" id="svg_21" d="m354.23202,232.74987l8.00001,-42.00002l8.00001,42.00002l-16.00002,0z" stroke-linecap="null" stroke-linejoin="null" stroke-dasharray="null" stroke-width="null" fill="#007f00"/>
  <path stroke="#0f0e0e" d="m358.08101,231.47375l1.60259,-34.83523l1.60259,34.83523l-3.20517,0l-0.00001,0z" stroke-linecap="null" stroke-linejoin="null" stroke-dasharray="null" stroke-width="0" fill="#7fff00" transform="rotate(7.052005290985107 359.68359375000006,214.05613708496088) " id="svg_28"/>
  <rect stroke="#0f0e0e" height="5" width="7.53125" y="266.93125" x="356.26406" stroke-linecap="null" stroke-linejoin="null" stroke-dasharray="null" stroke-width="null" fill="#7f0000" id="svg_37"/>
  <path stroke="#0f0e0e" id="svg_19" d="m347.23201,269.74987l13.50001,-41.0508l13.50002,41.0508l-27.00003,0z" stroke-linecap="null" stroke-linejoin="null" stroke-dasharray="null" stroke-width="null" fill="#007f00"/>
  <path stroke="#0f0e0e" id="svg_25" d="m400.23202,232.74987l6.5,-42.00002l6.50001,42.00002l-13.00002,0l0.00001,0z" stroke-linecap="null" stroke-linejoin="null" stroke-dasharray="null" stroke-width="null" fill="#007f00"/>
  <rect stroke="#0f0e0e" id="svg_35" height="6" width="5" y="233.4" x="404.6" stroke-linecap="null" stroke-linejoin="null" stroke-dasharray="null" stroke-width="null" fill="#7f0000"/>
  <rect stroke="#0f0e0e" id="svg_36" height="7" width="6" y="249.4" x="411.6" stroke-linecap="null" stroke-linejoin="null" stroke-dasharray="null" stroke-width="null" fill="#7f0000"/>
  <path stroke="#0f0e0e" id="svg_23" d="m402.23201,253.74987l12.50001,-42.00002l12.50002,42.00002l-25.00003,0z" stroke-linecap="null" stroke-linejoin="null" stroke-dasharray="null" stroke-width="null" fill="#007f00"/>
  <polygon stroke="null" id="svg_10" fill="#ffffff"/>
  <polygon stroke="null" id="svg_18" fill="#ffffff"/>
  <path stroke="#0f0e0e" d="m273.69372,223.7533l1.60237,-40.2126l1.60237,40.2126l-3.20473,0l0,0l-0.00001,0z" stroke-linecap="null" stroke-linejoin="null" stroke-dasharray="null" stroke-width="0" fill="#7fff00" id="svg_1" transform="rotate(6.597156524658203 275.2961120605473,203.64700317382812) "/>
  <path stroke="#0f0e0e" d="m289.71578,244.08418l1.60519,-39.56299l1.60519,39.56299l-3.21037,0l-0.00001,0z" stroke-linecap="null" stroke-linejoin="null" stroke-dasharray="null" stroke-width="0" fill="#7fff00" transform="rotate(11.041007995605469 291.32095336914057,224.3026885986329) " id="svg_2"/>
  <path stroke="#0f0e0e" d="m331.99403,239.56557l1.48483,-38.44638l1.48483,38.44638l-2.96966,0l-0.00001,0l0.00001,0z" stroke-linecap="null" stroke-linejoin="null" stroke-dasharray="null" stroke-width="0" fill="#7fff00" transform="rotate(7.052005290985107 333.4788513183597,220.34239196777304) " id="svg_26"/>
  <path stroke="#0f0e0e" d="m309.81909,264.02182l1.48898,-39.70082l1.48898,39.70082l-2.97795,0l-0.00001,0z" stroke-linecap="null" stroke-linejoin="null" stroke-dasharray="null" stroke-width="0" fill="#7fff00" transform="rotate(11.248434066772461 311.3080749511717,244.17141723632812) " id="svg_27"/>
  <path stroke="#0f0e0e" d="m353.35985,268.8831l1.79967,-36.89441l1.79967,36.89441l-3.59933,0l-0.00001,0z" stroke-linecap="null" stroke-linejoin="null" stroke-dasharray="null" stroke-width="0" fill="#7fff00" transform="rotate(13.680795669555664 355.1595153808593,250.43588256835938) " id="svg_38"/>
  <path stroke="#0f0e0e" d="m402.69471,231.24446l1.24779,-35.26745l1.24779,35.26745l-2.49558,0l-0.00001,0l0.00001,0z" stroke-linecap="null" stroke-linejoin="null" stroke-dasharray="null" stroke-width="0" fill="#7fff00" transform="rotate(5.722283840179443 403.94250488281244,213.6107330322269) " id="svg_40"/>
  <path stroke="#0f0e0e" d="m408.53946,253.20317l1.03268,-38.10616l1.03268,38.10616l-2.06535,0l-0.00001,0z" stroke-linecap="null" stroke-linejoin="null" stroke-dasharray="null" stroke-width="0" fill="#7fff00" transform="rotate(14.148499488830566 409.5721435546877,234.1500854492188) " id="svg_41"/>
  <rect stroke="#0f0e0e" id="svg_50" transform="rotate(-9.940591812133789 374.7949829101559,375.0229797363282) " height="65" width="196.26709" y="342.52298" x="276.66145" stroke-linecap="null" stroke-linejoin="null" stroke-dasharray="null" stroke-width="0" fill="#ffd4aa"/>
  <rect stroke="#0f0e0e" id="svg_51" transform="rotate(81.59188842773438 235.8665771484376,383.27847290039045) " height="104.57007" width="31.71632" y="330.99343" x="220.00844" stroke-linecap="null" stroke-linejoin="null" stroke-dasharray="null" stroke-width="0" fill="#ffd4aa"/>
  <rect id="svg_52" stroke="#0f0e0e" transform="rotate(81.59188842773438 286.05538940429693,398.55572509765614) " height="104.57007" width="29.13402" y="346.27071" x="271.48837" stroke-linecap="null" stroke-linejoin="null" stroke-dasharray="null" stroke-width="0" fill="#ffd4aa"/>
  <rect stroke="#0f0e0e" id="svg_53" transform="rotate(81.59188842773438 473.8509826660156,344.9381713867187) " height="104.57007" width="40.01579" y="292.65316" x="453.84309" stroke-linecap="null" stroke-linejoin="null" stroke-dasharray="null" stroke-width="0" fill="#ffd4aa"/>
  <rect id="svg_54" stroke="#0f0e0e" transform="rotate(81.59188842773438 450.8509521484375,363.93817138671875) " height="104.57007" width="40.01579" y="311.65316" x="430.84309" stroke-linecap="null" stroke-linejoin="null" stroke-dasharray="null" stroke-width="0" fill="#ffd4aa"/>
  <ellipse stroke="#0f0e0e" id="svg_57" transform="rotate(-2.956230878829956 340.28320312500324,411.12487792968744) " ry="20.43471" rx="102.55557" cy="411.1249" cx="340.2832" stroke-linecap="null" stroke-linejoin="null" stroke-dasharray="null" stroke-width="0" fill="#ffd4aa"/>
  <ellipse stroke="#0f0e0e" id="svg_58" transform="rotate(-24.539505004882812 471.72808837890614,377.55316162109364) " ry="20.43471" rx="57.90142" cy="377.55317" cx="471.72807" stroke-linecap="null" stroke-linejoin="null" stroke-dasharray="null" stroke-width="0" fill="#ffd4aa"/>
  <ellipse id="svg_59" stroke="#0f0e0e" transform="rotate(-41.08354568481445 520.4780883789064,341.5531616210938) " ry="20.43471" rx="57.90142" cy="341.55317" cx="520.47807" stroke-linecap="null" stroke-linejoin="null" stroke-dasharray="null" stroke-width="0" fill="#ffd4aa"/>
  <ellipse stroke="#ffaaaa" id="svg_61" ry="168.49998" rx="263.50003" cy="262.91292" cx="316.23513" stroke-linecap="null" stroke-linejoin="null" stroke-dasharray="null" stroke-width="11" fill="none"/>
  <path stroke="#0f0e0e" transform="rotate(-8.33229923248291 234.66145324707014,290.78640747070295) " id="svg_7" d="m51.66267,305.78642l182.99879,-30l182.99879,30l-365.99759,0l0.00001,0z" stroke-linecap="null" stroke-linejoin="null" stroke-dasharray="null" stroke-width="null" fill="#ff7f00"/>
  <path stroke="#000000" transform="rotate(-14.408734321594238 248.10000610351628,322.6226196289065) " id="svg_6" d="m435.22366,321.95195c-252.51633,30.19681 -108.65245,52.62873 -252.51633,30.19681c-143.86389,-22.43192 13.07854,50.9032 -121.73098,-68.15852" fill="#00ffff"/>
  <path stroke="#0f0e0e" id="svg_30" d="m553.02626,291.34695c27.89211,1.00529 28.88825,0 28.29056,-0.40211c-0.59769,-0.40211 -65.14799,-52.87816 -65.74568,-53.28027c-0.59769,-0.40211 -15.34066,-5.62962 -15.93835,-6.03173c-0.59769,-0.40211 53.39346,59.71412 53.39346,59.71412l0.00001,-0.00001z" stroke-linecap="null" stroke-linejoin="null" stroke-dasharray="null" stroke-width="null" fill="#69d300"/>
  <ellipse ry="14.25" rx="15" id="svg_62" cy="157.75782" cx="191.67451" stroke-linecap="null" stroke-linejoin="null" stroke-dasharray="null" stroke-width="11" stroke="#fcb8b8" fill="#ffff00"/>
  <path stroke="#0f0e0e" fill="#8dc4fc" stroke-width="null" stroke-dasharray="null" stroke-linejoin="null" stroke-linecap="null" d="m118.91201,130.59436c-14.77078,0 -27.44916,7.65997 -33.65501,18.71823c-2.47858,-1.38375 -5.21245,-2.22161 -8.13014,-2.22161c-8.82318,0 -16.16532,7.09786 -18.43462,16.73297c-3.87341,-1.531 -8.37711,-2.45795 -13.18785,-2.45795c-14.43222,0 -26.13935,7.89638 -26.13935,17.63107c0,8.78721 9.6014,16.0111 22.07428,17.34745c-0.55902,0.94848 -0.99264,1.88773 -0.99264,2.88337c0,9.32044 25.53528,16.92203 57.00553,16.92203c31.47024,0 57.00556,-7.60159 57.00553,-16.92203c0,-0.62711 -0.38923,-1.18676 -0.61448,-1.7962c1.3784,0.34279 2.74322,0.70903 4.25415,0.70903c8.41877,0.00003 15.26765,-5.72032 15.26765,-12.76243c0,-7.04212 -6.84888,-12.76243 -15.26765,-12.76243c-1.0317,0 -1.90897,0.35636 -2.88337,0.51995c0.85202,-2.81579 1.41804,-5.68893 1.41804,-8.74463c0,-18.64087 -16.87355,-33.7968 -37.72007,-33.7968l-0.00001,-0.00001l0.00001,-0.00001z" id="svg_42"/>
  <path stroke="#0f0e0e" transform="rotate(110.67961120605469 491.35717773437494,262.68170166015625) " id="svg_45" d="m468.54124,263.22208c0,0 0.75068,-0.61765 18.01619,-0.96078c17.26551,-0.34314 27.02427,-1.57843 26.66405,-1.64325c-0.36023,-0.06482 3.36292,1.78051 3.00269,1.71569c-0.36022,-0.06482 0.17099,0.82978 2.57267,1.54621c2.4017,0.71643 -12.72189,0.92057 -13.08211,0.85575c-0.36023,-0.06482 -41.67753,-0.00381 -42.03775,-0.06863c-0.36023,-0.06482 4.86426,-1.44498 4.86426,-1.44498z" stroke-linecap="null" stroke-linejoin="null" stroke-dasharray="null" stroke-width="0" fill="#007f00"/>
 </g>
</svg>
