<svg width="639.9999999999999" height="479.9999999999997" xmlns="http://www.w3.org/2000/svg" xmlns:svg="http://www.w3.org/2000/svg" stroke="null" style="vector-effect: non-scaling-stroke;">
 <!-- Created with SVG-edit - http://svg-edit.googlecode.com/ -->
 <g stroke="null">
  <title stroke="null">Layer 1</title>
  <rect stroke="#0f0e0e" style="vector-effect: non-scaling-stroke;" id="svg_31" height="5" width="4" y="224.4" x="275.6" stroke-linecap="null" stroke-linejoin="null" stroke-dasharray="null" stroke-width="null" fill="#7f0000"/>
  <path stroke="#0f0e0e" style="vector-effect: non-scaling-stroke;" id="svg_24" d="m375.23201,262.74987l12.50001,-61.00002l12.50002,61.00002l-25.00003,0z" stroke-linecap="null" stroke-linejoin="null" stroke-dasharray="null" stroke-width="null" fill="#007f00"/>
  <path stroke="#0f0e0e" style="vector-effect: non-scaling-stroke;" id="svg_20" d="m335.23201,222.74987l12.50001,-42.00002l12.50002,42.00002l-25.00003,0z" stroke-linecap="null" stroke-linejoin="null" stroke-dasharray="null" stroke-width="null" fill="#007f00"/>
  <path stroke="#0f0e0e" style="vector-effect: non-scaling-stroke;" id="svg_16" d="m293.23201,229.74987l12.50001,-42.00002l12.50002,42.00002l-25.00003,0z" stroke-linecap="null" stroke-linejoin="null" stroke-dasharray="null" stroke-width="null" fill="#007f00"/>
  <path stroke="#000000" id="svg_5" d="m548.6,259.4c-251.67472,-35 -108.29032,-61 -251.67472,-35c-143.3844,26 13.03495,-59 -121.32526,79" fill="#ffff00"/>
  <path stroke="#000000" style="vector-effect: non-scaling-stroke;" transform="rotate(-14.408734321594238 248.10000610351628,322.6226196289065) " id="svg_6" d="m435.22366,321.95195c-252.51633,30.19681 -108.65245,52.62873 -252.51633,30.19681c-143.86389,-22.43192 13.07854,50.9032 -121.73098,-68.15852" fill="#00ffff"/>
  <path stroke="#0f0e0e" style="vector-effect: non-scaling-stroke;" transform="rotate(-8.33229923248291 234.66145324707014,290.78640747070295) " id="svg_7" d="m51.66267,305.78642l182.99879,-30l182.99879,30l-365.99759,0z" stroke-linecap="null" stroke-linejoin="null" stroke-dasharray="null" stroke-width="null" fill="#ff7f00"/>
  <path stroke="#0f0e0e" style="vector-effect: non-scaling-stroke;" id="svg_8" d="m427.32694,291.39613l72.00006,-59.5l72.00006,59.5l-144.00012,0z" stroke-linecap="null" stroke-linejoin="null" stroke-dasharray="null" stroke-width="null" fill="#7fff00"/>
  <path stroke="#0f0e0e" style="vector-effect: non-scaling-stroke;" transform="rotate(1.1938062906265259 498.69808959960926,261.68020629882835) " id="svg_11" d="m476.19812,286.3649l22.49998,-49.36937l22.49998,49.36937l-44.99996,0z" stroke-linecap="null" stroke-linejoin="null" stroke-dasharray="null" stroke-width="null" fill="#3f3f3f"/>
  <path stroke="#0f0e0e" style="vector-effect: non-scaling-stroke;" id="svg_13" d="m270.23202,224.74987l7.50001,-42.00003l7.50001,42.00003l-15.00001,0z" stroke-linecap="null" stroke-linejoin="null" stroke-dasharray="null" stroke-width="null" fill="#007f00"/>
  <rect stroke="#0f0e0e" style="vector-effect: non-scaling-stroke;" id="svg_32" height="5" width="4" y="244.4" x="293.6" stroke-linecap="null" stroke-linejoin="null" stroke-dasharray="null" stroke-width="null" fill="#7f0000"/>
  <path stroke="#0f0e0e" style="vector-effect: non-scaling-stroke;" id="svg_14" d="m285.23201,244.74987l10.00001,-42.00002l10.00002,42.00002l-20.00002,0z" stroke-linecap="null" stroke-linejoin="null" stroke-dasharray="null" stroke-width="null" fill="#007f00"/>
  <path stroke="#0f0e0e" style="vector-effect: non-scaling-stroke;" id="svg_17" d="m309.23201,229.74987l12.50001,-42.00002l12.50002,42.00002l-25.00003,0z" stroke-linecap="null" stroke-linejoin="null" stroke-dasharray="null" stroke-width="null" fill="#007f00"/>
  <rect stroke="#0f0e0e" style="vector-effect: non-scaling-stroke;" id="svg_33" height="5" width="5" y="264.4" x="312.6" stroke-linecap="null" stroke-linejoin="null" stroke-dasharray="null" stroke-width="null" fill="#7f0000"/>
  <path stroke="#0f0e0e" style="vector-effect: non-scaling-stroke;" id="svg_15" d="m305.23201,264.74987l10.00001,-42.00002l10.00002,42.00002l-20.00002,0z" stroke-linecap="null" stroke-linejoin="null" stroke-dasharray="null" stroke-width="null" fill="#007f00"/>
  <rect stroke="#0f0e0e" id="svg_34" height="5" width="5" y="239.4" x="332.6" stroke-linecap="null" stroke-linejoin="null" stroke-dasharray="null" stroke-width="null" fill="#7f0000"/>
  <path stroke="#0f0e0e" style="vector-effect: non-scaling-stroke;" id="svg_22" d="m328.23202,240.74987l7.5,-42.00002l7.50001,42.00002l-15.00001,0z" stroke-linecap="null" stroke-linejoin="null" stroke-dasharray="null" stroke-width="null" fill="#007f00"/>
  <path stroke="#0f0e0e" style="vector-effect: non-scaling-stroke;" id="svg_21" d="m354.23202,232.74987l8.00001,-42.00002l8.00001,42.00002l-16.00002,0z" stroke-linecap="null" stroke-linejoin="null" stroke-dasharray="null" stroke-width="null" fill="#007f00"/>
  <path stroke="#0f0e0e" style="vector-effect: non-scaling-stroke;" id="svg_19" d="m347.23201,269.74987l13.50001,-42.00002l13.50002,42.00002l-27.00003,0z" stroke-linecap="null" stroke-linejoin="null" stroke-dasharray="null" stroke-width="null" fill="#007f00"/>
  <path stroke="#0f0e0e" style="vector-effect: non-scaling-stroke;" id="svg_25" d="m400.23202,232.74987l6.5,-42.00002l6.50001,42.00002l-13.00002,0z" stroke-linecap="null" stroke-linejoin="null" stroke-dasharray="null" stroke-width="null" fill="#007f00"/>
  <rect stroke="#0f0e0e" style="vector-effect: non-scaling-stroke;" id="svg_35" height="6" width="5" y="233.4" x="404.6" stroke-linecap="null" stroke-linejoin="null" stroke-dasharray="null" stroke-width="null" fill="#7f0000"/>
  <path stroke="#0f0e0e" style="vector-effect: non-scaling-stroke;" id="svg_30" d="m552.6,290.4c28,1 29,0 28.4,-0.4c-0.6,-0.4 -65.4,-52.6 -66,-53c-0.6,-0.4 -15.4,-5.6 -16,-6c-0.6,-0.4 53.6,59.4 53.6,59.4z" stroke-linecap="null" stroke-linejoin="null" stroke-dasharray="null" stroke-width="null" fill="#7fff00"/>
  <rect stroke="#0f0e0e" id="svg_36" height="7" width="6" y="249.4" x="411.6" stroke-linecap="null" stroke-linejoin="null" stroke-dasharray="null" stroke-width="null" fill="#7f0000"/>
  <path stroke="#0f0e0e" id="svg_23" d="m402.23201,253.74987l12.50001,-42.00002l12.50002,42.00002l-25.00003,0z" stroke-linecap="null" stroke-linejoin="null" stroke-dasharray="null" stroke-width="null" fill="#007f00"/>
 </g>
</svg>
