<svg width="1870" height="1550" xmlns="http://www.w3.org/2000/svg" xmlns:svg="http://www.w3.org/2000/svg">
 <!-- Created with SVG-edit - http://svg-edit.googlecode.com/ -->
 <defs>
  <filter id="svg_40_blur" x="-50%" y="-50%" width="200%" height="200%">
   <feGaussianBlur stdDeviation="8.3"/>
  </filter>
 </defs>
 <g stroke="null">
  <title>Layer 1</title>
  <rect fill="#897e4d" stroke-width="0" stroke-dasharray="null" stroke-linejoin="null" stroke-linecap="null" x="-7.06116" y="2.02523" width="1893.48687" height="1550.7489" id="svg_22" stroke="#000000"/>
  <ellipse stroke="#000000" fill="#7c3970" stroke-width="0" stroke-dasharray="null" stroke-linejoin="null" stroke-linecap="null" cx="-259.13997" cy="-698.08282" id="svg_21" rx="903.37451" ry="217.25469"/>
  <rect stroke="#000000" id="svg_19" fill="#7c3970" stroke-width="0" stroke-dasharray="null" stroke-linejoin="null" stroke-linecap="null" x="696.90953" y="270.46088" width="493.037" height="139.06171"/>
  <rect stroke="#000000" id="svg_36" fill="#7c3970" stroke-width="0" stroke-dasharray="null" stroke-linejoin="null" stroke-linecap="null" x="722.19345" y="215.679" width="396.1152" height="109.56378"/>
  <ellipse stroke="#893f7c" ry="255" rx="265" id="svg_1" cy="269.0039" cx="459.5039" stroke-linecap="null" stroke-linejoin="null" stroke-dasharray="null" stroke-width="17" fill="#7c3970"/>
  <rect stroke="#000000" fill="#7c3970" stroke-width="0" stroke-dasharray="null" stroke-linejoin="null" stroke-linecap="null" x="556.79431" y="392.66665" width="729.02051" height="214.91355" id="svg_13"/>
  <ellipse stroke="#000000" id="svg_2" ry="210.5" rx="203.50001" cy="253.50389" cx="419.00391" stroke-linecap="null" stroke-linejoin="null" stroke-dasharray="null" stroke-width="0" fill="#933c58"/>
  <ellipse stroke="#000000" id="svg_4" ry="184" rx="175" cy="245.0039" cx="398.5039" stroke-linecap="null" stroke-linejoin="null" stroke-dasharray="null" stroke-width="0" fill="#893c38"/>
  <ellipse id="svg_10" ry="41.44444" rx="37.57408" cy="202.49464" cx="292.84661" stroke-linecap="null" stroke-linejoin="null" stroke-dasharray="null" stroke-width="0" fill="#a6af3f" stroke="#000000"/>
  <ellipse stroke="#893f7c" ry="255" rx="265" cy="261.89279" cx="1376.83721" stroke-linecap="null" stroke-linejoin="null" stroke-dasharray="null" stroke-width="17" fill="#7c3970" id="svg_3"/>
  <ellipse stroke="#000000" ry="210.5" rx="203.50001" cy="246.39278" cx="1336.33722" stroke-linecap="null" stroke-linejoin="null" stroke-dasharray="null" stroke-width="0" fill="#933c58" id="svg_5"/>
  <ellipse stroke="#000000" ry="184" rx="175" cy="237.89279" cx="1315.83721" stroke-linecap="null" stroke-linejoin="null" stroke-dasharray="null" stroke-width="0" fill="#893c38" id="svg_6"/>
  <ellipse stroke="#000000" ry="41.44444" rx="37.57408" cy="195.38353" cx="1210.17992" stroke-linecap="null" stroke-linejoin="null" stroke-dasharray="null" stroke-width="0" fill="#a6af3f" id="svg_7"/>
  <rect fill="#7c3970" stroke-width="0" stroke-dasharray="null" stroke-linejoin="null" stroke-linecap="null" x="254.44033" y="498.01644" width="1428.54321" height="181.20163" id="svg_8" stroke="#000000"/>
  <rect stroke="#000000" fill="#7c3970" stroke-width="0" stroke-dasharray="null" stroke-linejoin="null" stroke-linecap="null" x="158.92324" y="700.28804" width="1608.34013" height="181.20163" id="svg_9"/>
  <rect stroke="#000000" fill="#7c3970" stroke-width="0" stroke-dasharray="null" stroke-linejoin="null" stroke-linecap="null" x="395.6091" y="923.62961" width="1422.22219" height="193.84361" id="svg_11"/>
  <rect stroke="#000000" fill="#7c3970" stroke-width="0" stroke-dasharray="null" stroke-linejoin="null" stroke-linecap="null" x="-322.87662" y="889.91764" width="37.926" height="386.63371" id="svg_12"/>
  <rect fill="#7c3970" stroke-width="0" stroke-dasharray="null" stroke-linejoin="null" stroke-linecap="null" x="368.21811" y="628.65019" width="1285.26749" height="79.1294" id="svg_14" stroke="#000000"/>
  <rect fill="#7c3970" stroke-width="0" stroke-dasharray="null" stroke-linejoin="null" stroke-linecap="null" x="450.62507" y="868.37951" width="1285.26749" height="71.63786" id="svg_15" stroke="#000000"/>
  <rect stroke="#000000" fill="#7c3970" stroke-width="0" stroke-dasharray="null" stroke-linejoin="null" stroke-linecap="null" x="428.15046" y="1093.12575" width="1285.26749" height="71.63786" id="svg_17"/>
  <rect stroke="#000000" fill="#7c3970" stroke-width="0" stroke-dasharray="null" stroke-linejoin="null" stroke-linecap="null" x="276.32964" y="875.40267" width="300.2469" height="226.50192" id="svg_18"/>
  <ellipse fill="#7c3970" stroke-width="0" stroke-dasharray="null" stroke-linejoin="null" stroke-linecap="null" cx="997.56247" cy="878.45138" rx="499.55555" ry="11.55556" stroke="#000000" id="svg_79"/>
  <rect fill="#c848b2" stroke-width="0" stroke-dasharray="null" stroke-linejoin="null" stroke-linecap="null" x="1674.29218" y="501.64608" width="6.32099" height="175.20163" id="svg_16" stroke="#000000"/>
  <rect fill="#c848b2" stroke-width="0" stroke-dasharray="null" stroke-linejoin="null" stroke-linecap="null" x="1642.29276" y="669.64606" width="32.32043" height="7.2016" id="svg_20" stroke="#000000"/>
  <rect fill="#c848b2" stroke-width="0" stroke-dasharray="null" stroke-linejoin="null" stroke-linecap="null" x="1637.29274" y="669.64606" width="13.32043" height="31.2016" id="svg_23" stroke="#000000"/>
  <rect fill="#c848b2" stroke-width="0" stroke-dasharray="null" stroke-linejoin="null" stroke-linecap="null" x="1734.29276" y="872.64606" width="32.32043" height="7.2016" stroke="#000000" id="svg_24"/>
  <rect fill="#c848b2" stroke-width="0" stroke-dasharray="null" stroke-linejoin="null" stroke-linecap="null" x="1760.29218" y="700.64608" width="6.32099" height="175.20163" stroke="#000000" id="svg_25"/>
  <rect fill="#c848b2" stroke-width="0" stroke-dasharray="null" stroke-linejoin="null" stroke-linecap="null" x="340.41992" y="872.45935" width="1408.9269" height="8.48559" stroke="#000000" opacity="0.65" id="svg_78"/>
  <rect fill="#c848b2" stroke-width="0" stroke-dasharray="null" stroke-linejoin="null" stroke-linecap="null" x="1721.29274" y="872.64602" width="13.32043" height="51.20161" id="svg_26" stroke="#000000"/>
  <rect fill="#c848b2" stroke-width="0" stroke-dasharray="null" stroke-linejoin="null" stroke-linecap="null" x="1822.29218" y="923.64608" width="6.32099" height="192.20164" id="svg_27" stroke="#000000"/>
  <rect fill="#c848b2" stroke-width="0" stroke-dasharray="null" stroke-linejoin="null" stroke-linecap="null" x="1702.29284" y="1108.64606" width="121.32042" height="7.2016" id="svg_28" stroke="#000000"/>
  <rect fill="#c848b2" stroke-width="0" stroke-dasharray="null" stroke-linejoin="null" stroke-linecap="null" x="1699.29274" y="1108.52102" width="13.32043" height="47.26411" id="svg_29" stroke="#000000"/>
  <rect fill="#c848b2" stroke-width="0" stroke-dasharray="null" stroke-linejoin="null" stroke-linecap="null" x="1742.97968" y="1155.95858" width="6.32099" height="192.20164" stroke="#000000" id="svg_30"/>
  <rect fill="#c848b2" stroke-width="0" stroke-dasharray="null" stroke-linejoin="null" stroke-linecap="null" x="1628.60534" y="1342.64606" width="121.32042" height="7.2016" stroke="#000000" id="svg_31"/>
  <rect fill="#c848b2" stroke-width="0" stroke-dasharray="null" stroke-linejoin="null" stroke-linecap="null" x="1625.60524" y="1342.52102" width="13.32043" height="45.26411" id="svg_32" stroke="#000000"/>
  <rect fill="#c848b2" stroke-width="0" stroke-dasharray="null" stroke-linejoin="null" stroke-linecap="null" x="1661.97968" y="1386.95858" width="6.32099" height="158.20164" id="svg_33" stroke="#000000"/>
  <ellipse transform="rotate(82.90863800048828 2424.0244140625,303.25973510742176) " fill="#3c1c36" stroke-width="0" stroke-dasharray="null" stroke-linejoin="null" stroke-linecap="null" cx="2535.3914" cy="278.18788" rx="243.27391" ry="146.08508" id="svg_34" stroke="#000000"/>
  <path fill="#3c1c36" stroke-width="0" stroke-dasharray="null" stroke-linejoin="null" stroke-linecap="null" d="m2501.11325,182.87577c0,0 -115.14617,23.9245 -136.53045,31.89933c-21.3843,7.97482 -49.34836,31.89932 -27.97046,14.74724c21.37791,-17.15208 -93.75549,-14.74725 -49.34836,-39.87416c44.40714,-25.12692 256.61786,-53.02645 301.03138,-49.83651c44.41352,3.18994 -87.1821,43.0641 -87.1821,43.0641l-0.00001,0z" id="svg_39" stroke="#000000"/>
  <rect fill="#893f7c" stroke-width="0" stroke-dasharray="null" stroke-linejoin="null" stroke-linecap="null" x="259.57074" y="502.5336" width="14.81479" height="157.95884" id="svg_40" filter="url(#svg_40_blur)" stroke="#893f7c"/>
  <rect fill="#893f7c" stroke-width="0" stroke-dasharray="null" stroke-linejoin="null" stroke-linecap="null" x="-1083.57328" y="460.06448" width="768.32919" height="11.25926" filter="url(#svg_40_blur)" id="svg_42" stroke="#000000"/>
  <rect fill="#893f7c" stroke-width="0" stroke-dasharray="null" stroke-linejoin="null" stroke-linecap="null" x="283.27444" y="500.16326" width="50.37034" height="8.62551" filter="url(#svg_40_blur)" id="svg_43" stroke="#000000"/>
  <rect fill="#893f7c" stroke-width="0" stroke-dasharray="null" stroke-linejoin="null" stroke-linecap="null" x="1437.44727" y="497.20032" width="244.4773" height="15.99999" filter="url(#svg_40_blur)" id="svg_44" stroke="#000000"/>
  <ellipse stroke="#000000" fill="#7c3970" stroke-width="0" stroke-dasharray="null" stroke-linejoin="null" stroke-linecap="null" cx="783.53048" cy="875.02378" rx="303.40741" ry="183.54276" id="svg_52"/>
  <path fill="#ffffff" stroke-width="0" stroke-dasharray="null" stroke-linejoin="null" stroke-linecap="null" opacity="0.75" d="m2341.55406,166.97573l31.69254,0l0,0c17.50331,0 31.69255,11.32001 31.69255,25.28394c0,13.96394 -14.18923,25.28395 -31.69255,25.28395l-31.69254,0l0,-50.56789z" transform="rotate(82.90863800048828 2424.0244140625,303.25973510742176) " id="svg_56" stroke="#000000"/>
  <path fill="#ffffff" stroke-width="0" stroke-dasharray="null" stroke-linejoin="null" stroke-linecap="null" opacity="0.75" d="m2393.10962,158.08684l31.69254,0l0,0c17.50332,0 31.69255,11.32001 31.69255,25.28394c0,13.96394 -14.18923,25.28395 -31.69255,25.28395l-31.69254,0l0,-50.56789z" transform="rotate(-94.4066162109375 2424.80224609375,183.37075805664045) " stroke="#000000" id="svg_57"/>
  <path fill="#ffffff" stroke-width="0" stroke-dasharray="null" stroke-linejoin="null" stroke-linecap="null" opacity="0.75" d="m2439.33184,142.08685l31.69254,0l0,0c17.50332,0 31.69255,11.32001 31.69255,25.28394c0,13.96394 -14.18923,25.28395 -31.69255,25.28395l-31.69254,0l0,-50.56789z" transform="rotate(-94.4066162109375 2471.0244140625,167.37075805664074) " stroke="#000000" id="svg_58"/>
  <path fill="#ffffff" stroke-width="0" stroke-dasharray="null" stroke-linejoin="null" stroke-linecap="null" opacity="0.75" d="m2490.88741,140.30908l31.69254,0l0,0c17.50332,0 31.69255,11.32001 31.69255,25.28394c0,13.96394 -14.18923,25.28395 -31.69255,25.28395l-31.69254,0l0,-50.56789z" transform="rotate(-94.4066162109375 2522.5798339843745,165.5929870605467) " stroke="#000000" id="svg_59"/>
  <path fill="#ffffff" stroke-width="0" stroke-dasharray="null" stroke-linejoin="null" stroke-linecap="null" opacity="0.75" d="m2538.88741,138.53131l31.69254,0l0,0c17.50332,0 31.69255,11.32001 31.69255,25.28394c0,13.96394 -14.18923,25.28395 -31.69255,25.28395l-31.69254,0l0,-50.56789z" transform="rotate(-94.4066162109375 2570.579833984375,163.8152160644531) " stroke="#000000" id="svg_60"/>
  <path fill="#ffffff" stroke-width="0" stroke-dasharray="null" stroke-linejoin="null" stroke-linecap="null" opacity="0.75" d="m2586.88742,134.97575l31.69254,0l0,0c17.50332,0 31.69255,11.32001 31.69255,25.28394c0,13.96394 -14.18923,25.28395 -31.69255,25.28395l-31.69254,0l0,-50.56789z" transform="rotate(-94.4066162109375 2618.579833984375,160.25961303710926) " stroke="#000000" id="svg_61"/>
  <path fill="#ffffff" stroke-width="0" stroke-dasharray="null" stroke-linejoin="null" stroke-linecap="null" opacity="0.75" d="m2638.44298,138.53131l31.69254,0l0,0c17.50332,0 31.69255,11.32001 31.69255,25.28394c0,13.96394 -14.18923,25.28395 -31.69255,25.28395l-31.69254,0l0,-50.56789z" transform="rotate(-94.4066162109375 2670.135498046875,163.8151550292969) " stroke="#000000" id="svg_62"/>
  <path fill="#ffffff" stroke-width="0" stroke-dasharray="null" stroke-linejoin="null" stroke-linecap="null" opacity="0.75" d="m2684.6652,145.64242l31.69254,0l0,0c17.50332,0 31.69255,11.32001 31.69255,25.28394c0,13.96394 -14.18923,25.28395 -31.69255,25.28395l-31.69254,0l0,-50.56789z" transform="rotate(-94.4066162109375 2716.35791015625,170.92636108398435) " id="svg_63" stroke="#000000"/>
  <path fill="#ffffff" stroke-width="0" stroke-dasharray="null" stroke-linejoin="null" stroke-linecap="null" opacity="0.75" d="m2726.10965,150.75354l31.69254,0l0,0c17.50332,0 31.69255,11.32001 31.69255,25.28394c0,13.96394 -14.18923,25.28395 -31.69255,25.28395l-31.69254,0l0,-50.56789z" transform="rotate(-94.4066162109375 2757.8022460937505,176.03744506835952) " stroke="#000000" id="svg_64"/>
  <path fill="#ffffff" stroke-width="0" stroke-dasharray="null" stroke-linejoin="null" stroke-linecap="null" opacity="0.75" d="m2392.33187,277.97576l31.69254,0l0,0c17.50332,0 31.69255,11.32001 31.69255,25.28394c0,13.96394 -14.18923,25.28395 -31.69255,25.28395l-31.69254,0l0,-50.56789z" transform="rotate(82.90863800048828 2424.0244140625,303.25973510742176) " stroke="#000000" id="svg_65"/>
  <path fill="#ffffff" stroke-width="0" stroke-dasharray="null" stroke-linejoin="null" stroke-linecap="null" opacity="0.75" d="m2436.33187,267.86465l31.69254,0l0,0c17.50332,0 31.69255,11.32001 31.69255,25.28394c0,13.96394 -14.18923,25.28395 -31.69255,25.28395l-31.69254,0l0,-50.56789z" transform="rotate(82.90863800048828 2468.0244140625,293.14859008789057) " stroke="#000000" id="svg_66"/>
  <path fill="#ffffff" stroke-width="0" stroke-dasharray="null" stroke-linejoin="null" stroke-linecap="null" opacity="0.75" d="m2483.77632,255.86465l31.69254,0l0,0c17.50332,0 31.69255,11.32001 31.69255,25.28394c0,13.96394 -14.18923,25.28395 -31.69255,25.28395l-31.69254,0l0,-50.56789z" transform="rotate(82.90863800048828 2515.4687500000005,281.14859008789045) " stroke="#000000" id="svg_67"/>
  <path fill="#ffffff" stroke-width="0" stroke-dasharray="null" stroke-linejoin="null" stroke-linecap="null" opacity="0.75" d="m2540.66521,250.53132l31.69254,0l0,0c17.50332,0 31.69255,11.32001 31.69255,25.28394c0,13.96394 -14.18923,25.28395 -31.69255,25.28395l-31.69254,0l0,-50.56789z" transform="rotate(82.90863800048828 2572.357666015625,275.81521606445307) " stroke="#000000" id="svg_68"/>
  <path fill="#ffffff" stroke-width="0" stroke-dasharray="null" stroke-linejoin="null" stroke-linecap="null" opacity="0.75" d="m2592.22077,246.97577l31.69254,0l0,0c17.50332,0 31.69255,11.32001 31.69255,25.28394c0,13.96394 -14.18923,25.28395 -31.69255,25.28395l-31.69254,0l0,-50.56789z" transform="rotate(82.90863800048828 2623.9130859375,272.2596740722657) " stroke="#000000" id="svg_69"/>
  <path fill="#ffffff" stroke-width="0" stroke-dasharray="null" stroke-linejoin="null" stroke-linecap="null" opacity="0.75" d="m2677.55412,235.71649l31.69254,0l0,0c17.50332,0 31.69255,11.32001 31.69255,25.28394c0,13.96394 -14.18923,25.28395 -31.69255,25.28395l-31.69254,0l0,-50.56789z" transform="rotate(82.90863800048828 2709.24658203125,261.0004577636714) " stroke="#000000" id="svg_70"/>
  <path fill="#ffffff" stroke-width="0" stroke-dasharray="null" stroke-linejoin="null" stroke-linecap="null" opacity="0.75" d="m2640.31951,242.07457l31.69254,0l0,0c17.50332,0 31.69255,11.32001 31.69255,25.28394c0,13.96394 -14.18923,25.28395 -31.69255,25.28395l-31.69254,0l0,-50.56789z" transform="rotate(82.90863800048828 2672.0122070312495,267.3585205078123) " stroke="#000000" id="svg_71"/>
  <rect fill="#c848b2" stroke-width="0" stroke-dasharray="null" stroke-linejoin="null" stroke-linecap="null" x="258.62131" y="669.61213" width="1408.9269" height="8.48559" id="svg_73" stroke="#000000" opacity="0.65"/>
  <rect fill="#c848b2" stroke-width="0" stroke-dasharray="null" stroke-linejoin="null" stroke-linecap="null" x="269.30881" y="666.23713" width="1408.9269" height="8.48559" stroke="#000000" opacity="0.65" id="svg_74"/>
  <ellipse fill="#7c3970" stroke-width="0" stroke-dasharray="null" stroke-linejoin="null" stroke-linecap="null" cx="926.45136" cy="672.22916" id="svg_75" rx="499.55555" ry="11.55556" stroke="#000000"/>
  <rect fill="#c848b2" stroke-width="0" stroke-dasharray="null" stroke-linejoin="null" stroke-linecap="null" x="404.41992" y="1104.75564" width="1408.9269" height="8.48559" stroke="#000000" opacity="0.65" id="svg_80"/>
  <ellipse fill="#7c3970" stroke-width="0" stroke-dasharray="null" stroke-linejoin="null" stroke-linecap="null" cx="1061.56247" cy="1110.74767" rx="499.55555" ry="11.55556" stroke="#000000" id="svg_81"/>
  <rect stroke="#000000" fill="#c848b2" stroke-width="0" stroke-dasharray="null" stroke-linejoin="null" stroke-linecap="null" x="420.22235" y="806.87908" width="1080.23557" height="8.48559" opacity="0.65" id="svg_84"/>
  <ellipse fill="#7c3970" stroke-width="0" stroke-dasharray="null" stroke-linejoin="null" stroke-linecap="null" cx="1007.83407" cy="1429.16742" rx="499.55555" ry="11.55556" stroke="#000000" id="svg_85"/>
  <rect stroke="#000000" transform="rotate(27.41216278076172 1227.1149902343752,511.2098999023439) " id="svg_45" fill="#7c3970" stroke-width="0" stroke-dasharray="null" stroke-linejoin="null" stroke-linecap="null" x="1101.74877" y="450.96832" width="250.73245" height="120.48315"/>
  <rect stroke="#000000" transform="rotate(90.18888854980469 952.2495727539064,801.8413696289061) " id="svg_46" fill="#3f007f" stroke-dasharray="null" stroke-linejoin="null" stroke-linecap="null" x="951.30171" y="252.618" width="1.89569" height="1098.44671"/>
 </g>
</svg>
