<svg width="640" height="480.00000000000006" xmlns="http://www.w3.org/2000/svg" xmlns:svg="http://www.w3.org/2000/svg">
 <!-- Created with SVG-edit - http://svg-edit.googlecode.com/ -->
 <g>
  <title>Layer 1</title>
  <ellipse stroke="#000000" ry="135.11111" rx="53.33333" id="svg_1" cy="280.88889" cx="327.46666" stroke-linecap="null" stroke-linejoin="null" stroke-dasharray="null" stroke-width="null" fill="#3f3f3f"/>
  <ellipse stroke="#000000" id="svg_14" transform="rotate(2.4654619693756104 378.05511474609585,283.7698059082032) " ry="23.95271" rx="7.6237" cy="283.76981" cx="378.05514" stroke-linecap="null" stroke-linejoin="null" stroke-dasharray="null" stroke-width="null" fill="#ffd4aa"/>
  <path id="svg_13" stroke="#000000" transform="rotate(-1.9335253238677979 375.27029418944824,256.97665405273335) " d="m363.71778,269.42111l4.33219,-24.8889l14.44066,0l4.33219,24.8889l-23.10504,0z" stroke-linecap="null" stroke-linejoin="null" stroke-dasharray="null" stroke-width="null" fill="#007fff"/>
  <ellipse stroke="#000000" ry="32.88889" rx="8" id="svg_11" cy="283.91112" cx="289.24444" stroke-linecap="null" stroke-linejoin="null" stroke-dasharray="null" stroke-width="null" fill="#ffd4aa"/>
  <path stroke="#000000" transform="rotate(-178.0980224609375 331.4530334472656,298.0906372070312) " id="svg_5" d="m282.69115,354.97169l48.7619,-113.7621l48.7619,113.7621l-97.5238,0z" stroke-linecap="null" stroke-linejoin="null" stroke-dasharray="null" stroke-width="null" fill="#007fff"/>
  <ellipse stroke="#000000" ry="32" rx="6.22222" id="svg_6" cy="236.8" cx="337.24444" stroke-linecap="null" stroke-linejoin="null" stroke-dasharray="null" stroke-width="null" fill="#ffd4aa"/>
  <ellipse stroke="#000000" transform="rotate(-82.71104431152344 305.8549499511719,317.1985168457031) " id="svg_12" ry="20.43224" rx="7.12548" cy="317.19852" cx="305.85496" stroke-linecap="null" stroke-linejoin="null" stroke-dasharray="null" stroke-width="null" fill="#ffd4aa"/>
  <ellipse stroke="#000000" id="svg_35" transform="rotate(2.4654619693756104 339.6664733886722,316.1836547851564) " ry="9.96567" rx="17.11489" cy="316.18366" cx="339.66649" stroke-linecap="null" stroke-linejoin="null" stroke-dasharray="null" stroke-width="null" fill="#ffd4aa"/>
  <rect stroke="#000000" id="svg_2" height="138.66668" width="417.77778" y="323.91111" x="160.35557" stroke-linecap="null" stroke-linejoin="null" stroke-dasharray="null" stroke-width="null" fill="#ff7f00"/>
  <path stroke="#000000" id="svg_9" d="m340.60767,257.09656l2.33333,-24.8889l7.77778,0l2.33333,24.8889l-12.44444,0z" stroke-linecap="null" stroke-linejoin="null" stroke-dasharray="null" stroke-width="null" fill="#007fff"/>
  <ellipse transform="rotate(-1.3639439344406128 343.46667480468966,185.2444458007824) " ry="44.44444" rx="19.55556" id="svg_4" cy="185.24445" cx="343.46667" stroke-linecap="null" stroke-linejoin="null" stroke-dasharray="null" stroke-width="null" stroke="#000000" fill="#ffd4aa"/>
  <path transform="rotate(-1.9335253238677979 325.49655151367085,244.65209960937557) " stroke="#000000" id="svg_8" d="m319.27434,257.09656l2.33333,-24.88889l7.77778,0l2.33333,24.88889l-12.44445,0z" stroke-linecap="null" stroke-linejoin="null" stroke-dasharray="null" stroke-width="null" fill="#007fff"/>
  <path stroke="#000000" id="svg_10" transform="rotate(-1.9335253238677979 289.9369812011722,253.42109680175773) " d="m278.38444,265.86555l4.33219,-24.8889l14.44066,0l4.33219,24.8889l-23.10504,0z" stroke-linecap="null" stroke-linejoin="null" stroke-dasharray="null" stroke-width="null" fill="#007fff"/>
  <ellipse stroke="#000000" id="svg_33" transform="rotate(2.4654619693756104 376.1840820312503,307.77539062499966) " ry="9.96567" rx="7.6237" cy="307.77537" cx="376.18407" stroke-linecap="null" stroke-linejoin="null" stroke-dasharray="null" stroke-width="null" fill="#ffd4aa"/>
  <rect id="svg_16" height="8.88889" width="87.11111" y="313.24444" x="336.35556" stroke-linecap="null" stroke-linejoin="null" stroke-dasharray="null" stroke-width="null" stroke="#000000" fill="#7f7f7f"/>
  <rect id="svg_17" height="8.88889" width="87.11111" y="313.24444" x="457.24445" stroke-linecap="null" stroke-linejoin="null" stroke-dasharray="null" stroke-width="null" stroke="#000000" fill="#ffffff"/>
  <rect id="svg_24" height="92.44444" width="133.33333" y="188.8" x="423.46667" stroke-linecap="null" stroke-linejoin="null" stroke-dasharray="null" stroke-width="null" stroke="#000000" fill="#ffffff"/>
  <rect id="svg_23" height="92.44444" width="133.33333" y="188.8" x="428.8" stroke-linecap="null" stroke-linejoin="null" stroke-dasharray="null" stroke-width="null" stroke="#000000" fill="#ffffff"/>
  <rect transform="rotate(88.994873046875 511.4666748046875,273.2444763183594) " id="svg_20" height="8.88889" width="87.11111" y="268.8" x="467.91112" stroke-linecap="null" stroke-linejoin="null" stroke-dasharray="null" stroke-width="null" stroke="#000000" fill="#ffffff"/>
  <path stroke="#000000" transform="rotate(-179.57977294921875 510.1571044921875,244.65870666503903) " id="svg_22" d="m492.38454,274.88129l6.6647,-60.44516l22.21567,0l6.6647,60.44516l-35.54506,0z" stroke-linecap="null" stroke-linejoin="null" stroke-dasharray="null" stroke-width="null" fill="#ffffff"/>
  <path stroke="#000000" id="svg_30" d="m257.445,323.21014l13.5,-9.625l13.5,9.625l-26.99999,0z" stroke-linecap="null" stroke-linejoin="null" stroke-dasharray="null" stroke-width="null" fill="#ffffff"/>
  <path id="svg_34" stroke="#000000" transform="rotate(-179.57977294921875 515.1571044921875,244.65869140625) " d="m497.38454,274.88129l6.6647,-60.44516l22.21567,0l6.66469,60.44516l-35.54506,0z" stroke-linecap="null" stroke-linejoin="null" stroke-dasharray="null" stroke-width="null" fill="#ffffff"/>
 </g>
</svg>
