<svg width="480.0000000000001" height="620" xmlns="http://www.w3.org/2000/svg" xmlns:svg="http://www.w3.org/2000/svg">
 <!-- Created with SVG-edit - http://svg-edit.googlecode.com/ -->
 <g stroke="null">
  <title>Layer 1</title>
  <rect id="svg_6" height="242.40509" width="298.68751" y="109.09861" x="117.12759" stroke-linecap="null" stroke-linejoin="null" stroke-dasharray="null" stroke-width="2" fill="#994cff" stroke="#d4aaff"/>
  <rect stroke="#000000" id="svg_123" height="30.79687" width="51.04688" y="117.4375" x="313.54684" stroke-linecap="null" stroke-linejoin="null" stroke-dasharray="null" stroke-width="0" fill="#a466f4"/>
  <rect height="8.39233" width="16.78878" y="122.00604" x="300.74363" stroke-linecap="null" stroke-linejoin="null" stroke-dasharray="null" stroke-width="0.5" fill="#f484f4" id="svg_180" transform="rotate(89.0655517578125 309.1380310058594,126.20221710205078) " stroke="#fbafff"/>
  <rect id="svg_51" transform="rotate(90.13925170898438 264.4691162109375,117.22444152832031) " height="298.9896" width="0.18756" y="-32.27036" x="264.37534" stroke-linecap="null" stroke-linejoin="null" stroke-dasharray="null" stroke-width="0" fill="#af7fe2" stroke="#000000"/>
  <rect id="svg_111" fill="#e0418e" stroke-width="0" stroke-dasharray="null" stroke-linejoin="null" stroke-linecap="null" x="59.67034" y="230.38241" width="232.28592" height="4.5679" opacity="0.3" transform="rotate(-90.31698608398438 175.81329345703125,232.66636657714844) " stroke="#000000"/>
  <rect height="252.0833" width="7.5" y="109.46669" x="166.5" stroke-linecap="null" stroke-linejoin="null" stroke-dasharray="null" stroke-width="0" fill="#ed34ed" id="svg_183" stroke="#000000"/>
  <rect height="1.6501" width="30.30762" y="131.65847" x="350.642" stroke-linecap="null" stroke-linejoin="null" stroke-dasharray="null" stroke-width="0.5" fill="#f484f4" transform="rotate(89.0655517578125 365.7958068847656,132.48353576660156) " id="svg_181" stroke="#fbafff"/>
  <rect stroke="#f9f2f2" id="svg_211" height="238.00002" width="30.17187" y="118.99999" x="392" stroke-linecap="null" stroke-linejoin="null" stroke-dasharray="null" stroke-width="0" fill="#ffffff"/>
  <rect fill="#ff007f" stroke-width="0" stroke-dasharray="null" stroke-linejoin="null" stroke-linecap="null" x="124.4323" y="98.66667" width="280.04166" height="18.66667" id="svg_74" opacity="0.6" stroke="#000000"/>
  <rect stroke="#000000" fill="#f779b6" stroke-width="0" stroke-dasharray="null" stroke-linejoin="null" stroke-linecap="null" x="120.8698" y="351.79167" width="285.5903" height="12.10417" opacity="0.6" id="svg_206"/>
  <rect height="246.60955" width="2.84183" y="117.74906" x="386.4668" stroke-linecap="null" stroke-linejoin="null" stroke-dasharray="null" stroke-width="0" fill="#f7a8ce" id="svg_144" opacity="0.9" stroke="#000000"/>
  <ellipse fill="#ff00ff" stroke-width="0" cx="254.34643" cy="240.5854" rx="42.34299" ry="78.15338" opacity="0.9" id="svg_13" stroke="#000000"/>
  <rect id="svg_48" height="215.49999" width="62.41668" y="148.13334" x="304.99998" stroke-linecap="null" stroke-linejoin="null" stroke-dasharray="null" stroke-width="0.5" fill="#f484f4" stroke="#fbafff"/>
  <rect height="214.5833" width="1" y="148.71669" x="332.33335" stroke-linecap="null" stroke-linejoin="null" stroke-dasharray="null" stroke-width="0" fill="#ed34ed" id="svg_57" stroke="#000000"/>
  <rect height="217.24998" width="2.5" y="145.30001" x="371.25" stroke-linecap="null" stroke-linejoin="null" stroke-dasharray="null" stroke-width="0" fill="#7f007f" id="svg_16" opacity="0.1" stroke="#000000"/>
  <rect id="svg_44" height="246.89581" width="18" y="117.82084" x="369.33333" stroke-linecap="null" stroke-linejoin="null" stroke-dasharray="null" stroke-width="0" fill="#a466f4" stroke="#000000"/>
  <rect stroke="#f9f2f2" id="svg_210" height="239.00001" width="23" y="118.99999" x="107" stroke-linecap="null" stroke-linejoin="null" stroke-dasharray="null" stroke-width="0" fill="#ffffff"/>
  <ellipse fill="#dcc8f7" stroke-width="0" stroke-dasharray="null" stroke-linejoin="null" stroke-linecap="null" opacity="0.8" cx="147.69427" cy="125.54112" id="svg_60" rx="27.03386" ry="26.42969" stroke="#000000"/>
  <rect id="svg_49" height="217.24999" width="16.83336" y="145.80001" x="129.41667" stroke-linecap="null" stroke-linejoin="null" stroke-dasharray="null" stroke-width="0" fill="#f76cf7" stroke="#000000"/>
  <ellipse fill="#a466f4" stroke-width="0" stroke-dasharray="null" stroke-linejoin="null" stroke-linecap="null" cx="147.68511" cy="125.20218" rx="26.1875" ry="24.89323" id="svg_61" stroke="#000000"/>
  <rect id="svg_73" height="204.8333" width="16.5" y="155.96669" x="311.25" stroke-linecap="null" stroke-linejoin="null" stroke-dasharray="null" stroke-width="0" fill="#cc47cc" stroke="#000000"/>
  <rect fill="#e0418e" stroke-width="0" stroke-dasharray="null" stroke-linejoin="null" stroke-linecap="null" x="114.6823" y="337.54167" width="300.29166" height="16.60417" opacity="0.6" stroke="#000000" id="svg_107"/>
  <rect id="svg_43" height="207.0833" width="15" y="156.71669" x="312" stroke-linecap="null" stroke-linejoin="null" stroke-dasharray="null" stroke-width="0" fill="#ed34ed" stroke="#000000"/>
  <rect id="svg_42" height="209.00001" width="25.75" y="155.79998" x="338.25" stroke-linecap="null" stroke-linejoin="null" stroke-dasharray="null" stroke-width="0" fill="#ff00ff" stroke="#000000"/>
  <ellipse fill="#ffaaaa" stroke-width="0" cx="246.10491" cy="240.2343" rx="47.00348" ry="89.77838" id="svg_126" opacity="0.9" stroke="#000000"/>
  <rect id="svg_46" height="218.48454" width="32.65433" y="145.31545" x="132.34568" stroke-linecap="null" stroke-linejoin="null" stroke-dasharray="null" stroke-width="0" fill="#f7a8ce" stroke="#000000"/>
  <ellipse fill="#ffd4aa" stroke-width="0" cx="241.47271" cy="239.05602" id="svg_1" rx="45.22571" ry="89.77838" stroke="#000000"/>
  <rect fill="#ffffff" stroke-width="0" stroke-dasharray="null" stroke-linejoin="null" stroke-linecap="null" x="203.68226" y="283.65258" width="21.42661" height="17" id="svg_14" stroke="#000000"/>
  <path fill="#ffd4aa" stroke-width="0" stroke-dasharray="null" stroke-linejoin="null" stroke-linecap="null" opacity="0.5" d="m225.01643,275.49294c0,0 3.79687,5.0625 6.32812,4.42969c2.53125,-0.63281 7.27735,0 7.22576,-0.2195c-0.05158,-0.21951 5.43049,-4.21019 5.37891,-4.42969" id="svg_8" stroke="#000000"/>
  <path id="svg_4" d="m198.41938,259.30004c0,0 3.55981,13.54389 1.7799,16.73069c-1.7799,3.1868 -1.7799,7.967 -2.19524,7.18794c-0.41533,-0.77906 11.09475,1.57576 10.67942,0.7967" stroke-linecap="null" stroke-linejoin="null" stroke-dasharray="null" stroke-width="0" fill="#ffd4aa" stroke="#000000"/>
  <path transform="rotate(174.20925903320312 207.39276123046875,305.4136657714843) " id="svg_5" d="m200.44963,292.97584c0,0 5.01916,13.5439 2.50958,16.73069c-2.50958,3.1868 -2.50958,7.967 -3.09519,7.18794c-0.5856,-0.77906 15.6431,1.57576 15.0575,0.7967" stroke-linecap="null" stroke-linejoin="null" stroke-dasharray="null" stroke-width="0" fill="#ffd4aa" stroke="#000000"/>
  <ellipse ry="19.59375" rx="26.46875" cy="312.96875" cx="226.98125" stroke-linecap="null" stroke-linejoin="null" stroke-dasharray="null" stroke-width="0" fill="#7f00ff" id="svg_22" stroke="#000000"/>
  <ellipse ry="21" rx="29" id="svg_10" cy="311" cx="231.2" stroke-linecap="null" stroke-linejoin="null" stroke-dasharray="null" stroke-width="0" fill="#ffd4aa" stroke="#000000"/>
  <ellipse fill="#ffd4aa" stroke-width="0" cx="241.10704" cy="210.13594" rx="44.53126" ry="22.12499" id="svg_7" stroke="#000000"/>
  <ellipse opacity="0.1" ry="9.5" rx="12.50001" id="svg_11" cy="226.5" cx="224.7" stroke-linecap="null" stroke-linejoin="null" stroke-dasharray="null" stroke-width="0" fill="#7f007f" stroke="#000000"/>
  <path d="m223.71496,221.16315l13.23748,7.88746l-14.0625,5.625c0,0 -10.98748,-7.88746 -6.48748,-10.69996c4.5,-2.8125 7.3125,-2.8125 7.3125,-2.8125z" stroke-linecap="null" stroke-linejoin="null" stroke-dasharray="null" stroke-width="0" fill="#964040" id="svg_134" stroke="#000000"/>
  <path id="svg_3" d="m222.76252,220.92504l13.23748,7.88746l-14.0625,5.625c0,0 -10.98748,-7.88746 -6.48748,-10.69996c4.5,-2.8125 7.3125,-2.8125 7.3125,-2.8125z" stroke-linecap="null" stroke-linejoin="null" stroke-dasharray="null" stroke-width="0" fill="#ffffff" stroke="#000000"/>
  <path d="m205.03308,212.15826l24.8,-2.57143l14,9l11,9l-49.8,-15.42857z" stroke-linecap="null" stroke-linejoin="null" stroke-dasharray="null" stroke-width="0" fill="#0000ff" id="svg_79" stroke="#000000"/>
  <path id="svg_12" d="m201.95254,210.81889l24.8,-2.57143l14,9l11,9l-49.8,-15.42857z" stroke-linecap="null" stroke-linejoin="null" stroke-dasharray="null" stroke-width="0" fill="#7f00ff" stroke="#000000"/>
  <ellipse fill="#000000" stroke-width="0" stroke-dasharray="null" stroke-linejoin="null" stroke-linecap="null" cx="222.2" cy="225.8" id="svg_23" ry="2" stroke="#000000"/>
  <ellipse fill="#ffd4aa" stroke-width="0" stroke-dasharray="null" stroke-linejoin="null" stroke-linecap="null" cx="215.5163" cy="282.46976" id="svg_24" rx="10.08545" ry="2.37305" stroke="#000000"/>
  <ellipse fill="#ffd4aa" stroke-width="0" stroke-dasharray="null" stroke-linejoin="null" stroke-linecap="null" cx="215.7536" cy="295.04691" rx="10.08545" ry="2.37305" id="svg_25" transform="rotate(-12.225204467773438 215.7536010742187,295.0469055175781) " stroke="#000000"/>
  <ellipse fill="#ffd4aa" stroke-width="0" stroke-dasharray="null" stroke-linejoin="null" stroke-linecap="null" cx="206.82388" cy="281.18138" rx="9.03526" ry="2.9244" transform="rotate(-8.13706111907959 206.82388305664028,281.1813659667969) " id="svg_26" stroke="#000000"/>
  <ellipse fill="#ffd4aa" stroke-width="0" stroke-dasharray="null" stroke-linejoin="null" stroke-linecap="null" cx="207.29849" cy="295.65697" rx="9.03526" ry="2.9244" transform="rotate(4.891592025756836 207.2984924316407,295.65698242187494) " id="svg_27" stroke="#000000"/>
  <path id="svg_2" d="m177.12182,259.64451c0,0 -0.7864,4.11328 10.61635,5.0625c11.40274,0.94922 23.98508,3.79688 20.44629,-1.58203c-3.53878,-5.37891 -6.29117,-9.80859 -7.47076,-20.88281c-1.17959,-11.07422 -3.93198,-17.08594 -4.15337,-17.24216c-0.22139,-0.15622 -19.43851,34.6445 -19.43851,34.6445z" stroke-linecap="null" stroke-linejoin="null" stroke-dasharray="null" stroke-width="0" fill="#ffd4aa" stroke="#000000"/>
  <ellipse fill="#ffaaaa" stroke-width="0" stroke-dasharray="null" stroke-linejoin="null" stroke-linecap="null" cx="259.82777" cy="322.28811" rx="30.91712" ry="10.00603" id="svg_127" opacity="0.9" stroke="#000000"/>
  <ellipse fill="#994cff" stroke-width="0" stroke-dasharray="null" stroke-linejoin="null" stroke-linecap="null" cx="261.34571" cy="325.03819" rx="30.64924" ry="8.8632" id="svg_59" stroke="#000000"/>
  <ellipse fill="#ffd4aa" stroke-width="0" stroke-dasharray="null" stroke-linejoin="null" stroke-linecap="null" cx="216.04157" cy="281.30246" rx="8.67776" ry="3.80975" id="svg_64" stroke="#000000"/>
  <polygon id="svg_70" fill="#7f007f" stroke="null"/>
  <polygon id="svg_71" fill="#7f007f" stroke="null"/>
  <rect fill="#7f00ff" stroke-width="0.1" stroke-dasharray="null" stroke-linejoin="null" stroke-linecap="null" x="196.38607" y="268.49041" width="32.17123" height="11.28815" id="svg_91" stroke="#ff007f"/>
  <path fill="#ffd4aa" stroke-width="0" stroke-dasharray="null" stroke-linejoin="null" stroke-linecap="null" d="m199.05763,281.08793l15.30167,-30.81679l15.30167,30.81679l-30.60334,0z" id="svg_92" transform="rotate(-98.0065689086914 214.3592987060547,265.6795349121094) " stroke="#000000"/>
  <ellipse fill="#ff007f" stroke-width="0" stroke-dasharray="null" stroke-linejoin="null" stroke-linecap="null" cx="228.50438" cy="228.56739" id="svg_94" rx="4.51526" ry="3.95085" opacity="0.1" stroke="#000000"/>
  <ellipse fill="#7f00ff" stroke-width="0.1" stroke-dasharray="null" stroke-linejoin="null" stroke-linecap="null" cx="229.86249" cy="271.07433" id="svg_95" rx="9.03052" ry="8.46611" stroke="#000000"/>
  <ellipse fill="#ffd4aa" stroke-width="0" stroke-dasharray="null" stroke-linejoin="null" stroke-linecap="null" cx="228.19572" cy="270.71717" rx="8.5543" ry="7.15651" id="svg_96" stroke="#000000"/>
  <ellipse fill="#7f00ff" stroke-width="0" stroke-dasharray="null" stroke-linejoin="null" stroke-linecap="null" cx="227.83856" cy="270.00284" rx="5.57793" ry="7.15651" id="svg_97" stroke="#000000"/>
  <ellipse fill="#ffd4aa" stroke-width="0" stroke-dasharray="null" stroke-linejoin="null" stroke-linecap="null" cx="229.74343" cy="270.59811" rx="6.29226" ry="7.03746" id="svg_98" stroke="#000000"/>
  <ellipse fill="#ffd4aa" stroke-width="0" stroke-dasharray="null" stroke-linejoin="null" stroke-linecap="null" cx="230.1006" cy="270.47906" rx="7.36376" ry="7.15651" id="svg_99" stroke="#000000"/>
  <ellipse fill="#7f00ff" stroke-width="0.1" stroke-dasharray="null" stroke-linejoin="null" stroke-linecap="null" cx="229.98155" cy="271.07434" rx="7.2447" ry="6.56124" id="svg_100" stroke="#000000"/>
  <ellipse fill="#ffd4aa" stroke-width="0" stroke-dasharray="null" stroke-linejoin="null" stroke-linecap="null" cx="229.50533" cy="270.59812" rx="5.81605" ry="4.89447" id="svg_101" stroke="#000000"/>
  <ellipse fill="#7f00ff" stroke-width="0.1" stroke-dasharray="null" stroke-linejoin="null" stroke-linecap="null" cx="229.98154" cy="271.31244" rx="4.38739" ry="4.18014" id="svg_102" stroke="#000000"/>
  <ellipse fill="#ffd4aa" stroke-width="0" stroke-dasharray="null" stroke-linejoin="null" stroke-linecap="null" cx="229.26721" cy="271.19339" rx="4.14928" ry="4.2992" id="svg_103" stroke="#000000"/>
  <ellipse fill="#ff007f" stroke-width="0" stroke-dasharray="null" stroke-linejoin="null" stroke-linecap="null" cx="229.21871" cy="228.09116" rx="2.84849" ry="2.5222" opacity="0.1" id="svg_105" stroke="#000000"/>
  <ellipse fill="#ff007f" stroke-dasharray="null" stroke-linejoin="null" stroke-linecap="null" cx="229.81398" cy="228.21022" rx="2.25322" ry="1.92692" opacity="0.5" id="svg_106" stroke="#000000"/>
  <ellipse fill="#7f00ff" stroke-width="0" stroke-dasharray="null" stroke-linejoin="null" stroke-linecap="null" cx="228.22976" cy="278.94203" id="svg_118" rx="4.15203" ry="0.73665" stroke="#000000"/>
  <ellipse fill="#f7c18f" stroke-width="0" stroke-dasharray="null" stroke-linejoin="null" stroke-linecap="null" cx="252.2382" cy="167.88233" id="svg_136" rx="4.03218" ry="3.29289" stroke="#000000"/>
  <ellipse ry="22.78381" rx="32.56761" cy="149.62603" cx="227.90414" stroke-linecap="null" stroke-linejoin="null" stroke-dasharray="null" stroke-width="0" fill="#ff00ff" id="svg_129" stroke="#000000"/>
  <ellipse ry="22.78381" rx="32.56761" cy="148.67359" cx="232.98381" stroke-linecap="null" stroke-linejoin="null" stroke-dasharray="null" stroke-width="0" fill="#7f00ff" id="svg_119" stroke="#000000"/>
  <ellipse ry="12.97287" rx="35.24332" cy="138.86266" cx="248.14617" stroke-linecap="null" stroke-linejoin="null" stroke-dasharray="null" stroke-width="0.2" fill="#994cff" id="svg_120" stroke="#ff6dff"/>
  <ellipse ry="16.85752" rx="12.24894" cy="169.83886" cx="272.49235" stroke-linecap="null" stroke-linejoin="null" stroke-dasharray="null" stroke-width="0" fill="#ff00ff" id="svg_130" stroke="#000000"/>
  <ellipse ry="16.85752" rx="12.24894" cy="168.71005" cx="271.92794" stroke-linecap="null" stroke-linejoin="null" stroke-dasharray="null" stroke-width="0" fill="#7f00ff" id="svg_122" stroke="#000000"/>
  <ellipse ry="13.47287" rx="35.24332" cy="137.36266" cx="260.14617" stroke-linecap="null" stroke-linejoin="null" stroke-dasharray="null" stroke-width="0" fill="#994cff" id="svg_216" stroke="#7f007f"/>
  <path fill="#ff0000" stroke-width="0" stroke-dasharray="null" stroke-linejoin="null" stroke-linecap="null" d="m259.82338,177.40117l5.69505,-42.15143l5.69505,42.15143l-11.39009,0l-0.00001,0z" transform="rotate(21.296310424804688 265.5184326171875,156.32545471191406) " id="svg_131" opacity="0.5" stroke="#000000"/>
  <path fill="#ffd4aa" stroke-width="0" stroke-dasharray="null" stroke-linejoin="null" stroke-linecap="null" d="m254.44515,188.30033l8.05026,-51.87543l8.05026,51.87543l-16.10052,0z" id="svg_117" transform="rotate(22.458948135375977 262.49542236328125,162.3626098632813) " stroke="#000000"/>
  <path fill="#e09de0" stroke-width="0" stroke-dasharray="null" stroke-linejoin="null" stroke-linecap="null" d="m265.23588,177.51463l1.52353,-39.52268l1.52353,39.52268l-3.04707,0l0.00001,0z" id="svg_132" transform="rotate(15.478888511657715 266.75939941406267,157.75329589843741) " stroke="#000000"/>
  <ellipse fill="#e09de0" stroke-width="0" stroke-dasharray="null" stroke-linejoin="null" stroke-linecap="null" cx="263.26884" cy="169.77358" id="svg_133" rx="1.37206" ry="0.63496" transform="rotate(15.623745918273926 263.26879882812494,169.77357482910153) " stroke="#000000"/>
  <path fill="#f7c18f" stroke-width="0" stroke-dasharray="null" stroke-linejoin="null" stroke-linecap="null" d="m259.67912,174.25452l1.0245,-33.78519l1.0245,33.78519l-2.04899,0l0,0l-0.00001,0z" transform="rotate(30.75926971435547 260.70361328125006,157.36193847656247) " id="svg_135" stroke="#000000"/>
  <ellipse ry="8.4375" id="svg_15" cy="262.64687" cx="281.31559" opacity="0.5" stroke-linecap="null" stroke-linejoin="null" stroke-dasharray="null" stroke-width="0" fill="#ffaaaa" stroke="#000000"/>
  <path transform="rotate(9.013467788696289 271.44281005859403,232.96142578125014) " id="svg_17" d="m265.4185,252.34285l6.02431,-38.76285l6.02431,38.76285l-12.04861,0l-0.00001,0z" stroke-linecap="null" stroke-linejoin="null" stroke-dasharray="null" stroke-width="0" fill="#ffd4aa" stroke="#ef7373"/>
  <rect transform="rotate(47.324459075927734 280.1779785156249,319.9587707519531) " id="svg_20" height="14.19153" width="20.39906" y="312.86302" x="269.97846" stroke-linecap="null" stroke-linejoin="null" stroke-dasharray="null" stroke-width="0" fill="#994cff" stroke="#000000"/>
  <path transform="rotate(109.00371551513672 199.3604736328125,206.87498474121097) " id="svg_21" d="m197.76648,206.20949l8.7144,0.77693l-9.25753,0.55408c0,0 -7.2332,-0.77693 -4.27079,-1.05396c2.96241,-0.27704 4.81391,-0.27704 4.81391,-0.27704l0.00001,-0.00001z" stroke-linecap="null" stroke-linejoin="null" stroke-dasharray="null" stroke-width="0" fill="#f9b1b1" stroke="#000000"/>
  <rect stroke="#000000" transform="rotate(-5.079995155334473 218.0620727539056,288.22979736328153) " id="svg_31" height="0.28884" width="13.95959" y="288.08538" x="211.08227" stroke-linecap="null" stroke-linejoin="null" stroke-dasharray="null" stroke-width="0.05" fill="#3f2c2c"/>
  <path transform="rotate(175.6641387939453 212.2930603027344,289.3949890136719) " id="svg_30" d="m210.79136,290.70895l1.5017,-2.62797l1.5017,2.62797l-3.00339,0l-0.00001,0z" stroke-linecap="null" stroke-linejoin="null" stroke-dasharray="null" stroke-width="0.3" fill="#ffffff" stroke="#000000"/>
  <rect id="svg_38" height="217.18827" width="23" y="146.61172" x="141" stroke-linecap="null" stroke-linejoin="null" stroke-dasharray="null" stroke-width="0" fill="#d820d8" stroke="#000000"/>
  <ellipse fill="#ffffff" stroke-width="0" stroke-dasharray="null" stroke-linejoin="null" stroke-linecap="null" opacity="0.9" cx="349.99998" cy="343.1998" rx="6" ry="6.66661" id="svg_55" stroke="#000000"/>
  <ellipse fill="#ffffff" stroke-width="0" stroke-dasharray="null" stroke-linejoin="null" stroke-linecap="null" opacity="0.8" cx="157.37396" cy="336.91873" rx="13.03125" ry="13.59375" id="svg_90" stroke="#000000"/>
  <ellipse fill="#ff00ff" stroke-width="0" stroke-dasharray="null" stroke-linejoin="null" stroke-linecap="null" cx="155.36614" cy="337.39791" rx="12.49219" ry="11.90625" id="svg_89" stroke="#000000"/>
  <rect height="246.60955" width="1.15433" y="119.01469" x="368.32617" stroke-linecap="null" stroke-linejoin="null" stroke-dasharray="null" stroke-width="0" fill="#f74f9d" opacity="0.9" id="svg_176" stroke="#000000"/>
  <rect stroke="#000000" transform="rotate(90.13925170898438 264.4247741699219,352.38305664062494) " id="svg_39" height="300.88862" width="3.00007" y="201.93875" x="262.92473" stroke-linecap="null" stroke-linejoin="null" stroke-dasharray="null" stroke-width="0" fill="#e1ccf9"/>
  <rect stroke="#000000" id="svg_40" transform="rotate(90.13925170898438 263.72528076171875,358.37161254882807) " height="285.48964" width="3.01465" y="215.62679" x="262.21797" stroke-linecap="null" stroke-linejoin="null" stroke-dasharray="null" stroke-width="0" fill="#8116fc"/>
  <rect fill="#e006e0" stroke-width="0" stroke-dasharray="null" stroke-linejoin="null" stroke-linecap="null" opacity="0.9" x="336.92134" y="143.70578" width="61.50147" height="1.77979" id="svg_147" stroke="#f9f2f2"/>
  <ellipse id="svg_66" fill="#dcc8f7" stroke-width="0" stroke-dasharray="null" stroke-linejoin="null" stroke-linecap="null" cx="318.31927" cy="144.33279" rx="19.99219" ry="20.55469" stroke="#000000"/>
  <ellipse id="svg_67" fill="#a466f4" stroke-width="0" stroke-dasharray="null" stroke-linejoin="null" stroke-linecap="null" cx="320.95208" cy="141.01509" rx="18.1875" ry="17.60156" stroke="#000000"/>
  <ellipse id="svg_63" fill="#dcc8f7" stroke-width="0" stroke-dasharray="null" stroke-linejoin="null" stroke-linecap="null" opacity="0.8" cx="353.06927" cy="195.08279" rx="20.15886" ry="20.13802" stroke="#000000"/>
  <ellipse id="svg_65" fill="#ff007f" stroke-width="0" stroke-dasharray="null" stroke-linejoin="null" stroke-linecap="null" opacity="0.8" cx="353.03541" cy="194.18175" rx="18.4375" ry="17.26823" stroke="#000000"/>
  <rect stroke="#000000" id="svg_50" height="244.24995" width="1.56252" y="118.60667" x="391.77017" stroke-linecap="null" stroke-linejoin="null" stroke-dasharray="null" stroke-width="0" fill="#f76cf7"/>
  <ellipse id="svg_37" fill="#dcc8f7" stroke-width="0" stroke-dasharray="null" stroke-linejoin="null" stroke-linecap="null" opacity="0.8" cx="363.23594" cy="258.5828" rx="13.15886" ry="12.63802" stroke="#000000"/>
  <rect height="217.24998" width="2.5" y="146.05001" x="133.5" stroke-linecap="null" stroke-linejoin="null" stroke-dasharray="null" stroke-width="0" fill="#7f007f" opacity="0.1" id="svg_18" stroke="#000000"/>
  <ellipse id="svg_68" fill="#ffffff" stroke-width="0" stroke-dasharray="null" stroke-linejoin="null" stroke-linecap="null" opacity="0.4" cx="154.00001" cy="164.61667" rx="8.66667" ry="8.66667" stroke="#000000"/>
  <ellipse fill="#ff007f" stroke-width="0" stroke-dasharray="null" stroke-linejoin="null" stroke-linecap="null" opacity="0.4" cx="153.25001" cy="163.86667" id="svg_28" rx="8.66667" ry="8.66667" stroke="#000000"/>
  <ellipse id="svg_69" fill="#ffffff" stroke-width="0" stroke-dasharray="null" stroke-linejoin="null" stroke-linecap="null" opacity="0.4" cx="152.73439" cy="225.60104" rx="8.66667" ry="8.66667" stroke="#000000"/>
  <ellipse fill="#ff007f" stroke-width="0" stroke-dasharray="null" stroke-linejoin="null" stroke-linecap="null" opacity="0.4" cx="153.85939" cy="225.88229" rx="8.66667" ry="8.66667" id="svg_35" stroke="#000000"/>
  <ellipse fill="#ffffff" stroke-width="0" stroke-dasharray="null" stroke-linejoin="null" stroke-linecap="null" opacity="0.4" cx="319.08332" cy="205.6373" rx="6" ry="6.66661" id="svg_45" stroke="#000000"/>
  <ellipse fill="#ffffff" stroke-width="0" stroke-dasharray="null" stroke-linejoin="null" stroke-linecap="null" opacity="0.9" cx="352.66665" cy="231.53313" rx="6" ry="6.66661" id="svg_47" stroke="#000000"/>
  <ellipse fill="#ffffff" stroke-width="0" stroke-dasharray="null" stroke-linejoin="null" stroke-linecap="null" opacity="0.4" cx="318.77082" cy="265.17897" rx="6" ry="6.66661" id="svg_52" stroke="#000000"/>
  <ellipse fill="#ffffff" stroke-width="0" stroke-dasharray="null" stroke-linejoin="null" stroke-linecap="null" opacity="0.4" cx="350.99998" cy="297.53313" rx="6" ry="6.66661" id="svg_53" stroke="#000000"/>
  <ellipse fill="#ffffff" stroke-width="0" stroke-dasharray="null" stroke-linejoin="null" stroke-linecap="null" opacity="0.6" cx="320.10415" cy="314.55396" rx="6" ry="6.66661" id="svg_54" stroke="#000000"/>
  <rect transform="rotate(90.13925170898438 265.59765625,97.53697204589844) " height="299.41146" width="2.99904" y="-52.16877" x="264.09814" stroke-linecap="null" stroke-linejoin="null" stroke-dasharray="null" stroke-width="0" fill="#8116fc" id="svg_58" stroke="#000000"/>
  <ellipse id="svg_72" fill="#ffffff" stroke-width="0" stroke-dasharray="null" stroke-linejoin="null" stroke-linecap="null" opacity="0.4" cx="152.50001" cy="296.52292" rx="8.66667" ry="8.66667" stroke="#000000"/>
  <ellipse fill="#ff007f" stroke-width="0" stroke-dasharray="null" stroke-linejoin="null" stroke-linecap="null" opacity="0.4" cx="153.67188" cy="297.17916" rx="9.25" ry="8.66667" id="svg_34" stroke="#000000"/>
  <ellipse id="svg_62" fill="#8116fc" stroke-width="0" stroke-dasharray="null" stroke-linejoin="null" stroke-linecap="null" opacity="0.8" cx="362.86875" cy="257.84842" rx="10.10417" ry="8.60156" stroke="#000000"/>
  <ellipse id="svg_33" fill="#dcc8f7" stroke-width="0" stroke-dasharray="null" stroke-linejoin="null" stroke-linecap="null" opacity="0.8" cx="343.31927" cy="302.99946" rx="14.99219" ry="17.63802" stroke="#000000"/>
  <ellipse id="svg_36" fill="#ff007f" stroke-width="0" stroke-dasharray="null" stroke-linejoin="null" stroke-linecap="null" opacity="0.8" cx="343.20208" cy="302.84842" rx="13.27083" ry="13.60156" stroke="#000000"/>
  <polygon id="svg_75" fill="#bfbfbf" points="129.08917248249054,128.44455003738403 129.9560090303421,132.50807237625122 132.59561169147491,132.59571886062622 130.49174511432648,135.1947636604309 131.25627148151398,139.31245470046997 129.08917248249054,136.85522508621216 126.9220734834671,139.31245470046997 127.68660748004913,135.1947636604309 125.58273327350616,132.59571886062622 128.22233593463898,132.50807237625122 129.08917248249054,128.44455003738403 129.9560090303421,132.50807237625122 " stroke-width="0" opacity="0.1" transform="rotate(-10.907504081726074 129.08917236328142,133.87850952148435) " stroke="#000000"/>
  <ellipse fill="#3f007f" stroke-width="0" stroke-dasharray="null" stroke-linejoin="null" stroke-linecap="null" opacity="0.4" cx="320.54165" cy="315.49148" rx="6.375" ry="7.10411" id="svg_80" stroke="#000000"/>
  <ellipse fill="#dcc8f7" stroke-width="0" stroke-dasharray="null" stroke-linejoin="null" stroke-linecap="null" opacity="0.8" cx="304.92344" cy="334.2703" rx="11.65886" ry="11.63802" id="svg_41" stroke="#000000"/>
  <ellipse fill="#8116fc" stroke-width="0" stroke-dasharray="null" stroke-linejoin="null" stroke-linecap="null" opacity="0.8" cx="303.99376" cy="333.91092" rx="7.60417" ry="7.10156" id="svg_76" stroke="#000000"/>
  <ellipse fill="#ff007f" stroke-width="0" stroke-dasharray="null" stroke-linejoin="null" stroke-linecap="null" opacity="0.4" cx="353.4479" cy="231.39772" rx="7.21875" ry="7.38536" id="svg_77" stroke="#000000"/>
  <ellipse fill="#ff007f" stroke-width="0" stroke-dasharray="null" stroke-linejoin="null" stroke-linecap="null" opacity="0.4" cx="350.6354" cy="343.05398" rx="7.21875" ry="7.10411" id="svg_78" stroke="#000000"/>
  <ellipse fill="#3f007f" stroke-width="0" stroke-dasharray="null" stroke-linejoin="null" stroke-linecap="null" opacity="0.4" cx="319.41664" cy="265.99148" rx="6.375" ry="7.10411" id="svg_81" stroke="#000000"/>
  <ellipse fill="#3f007f" stroke-width="0" stroke-dasharray="null" stroke-linejoin="null" stroke-linecap="null" opacity="0.4" cx="320.54164" cy="206.36647" rx="6.375" ry="7.10411" id="svg_82" stroke="#000000"/>
  <ellipse fill="#ffaad4" stroke-width="0.2" stroke-dasharray="null" stroke-linejoin="null" stroke-linecap="null" opacity="0.4" cx="381.10415" cy="209.55397" rx="4.125" ry="4.29161" id="svg_83" stroke="#f9f2f2"/>
  <path fill="#ffffff" stroke-width="0" stroke-dasharray="null" stroke-linejoin="null" stroke-linecap="null" d="m202.09602,290.45604l1.33483,-6.22925l1.33483,6.22925l-2.66967,0l0.00001,0z" id="svg_85" transform="rotate(176.7574920654297 203.43084716796875,287.3414306640625) " stroke="#000000"/>
  <rect id="svg_29" height="0.24335" width="7.78378" y="288.72154" x="203.173" stroke-linecap="null" stroke-linejoin="null" stroke-dasharray="null" stroke-width="0.05" fill="#3f2c2c" stroke="#000000"/>
  <ellipse fill="#ffaaaa" stroke-width="0" stroke-dasharray="null" stroke-linejoin="null" stroke-linecap="null" cx="199.78325" cy="206.5529" id="svg_86" rx="0.7831" ry="5.87678" transform="rotate(21.176231384277344 199.78324890136724,206.55290222167966) " stroke="#000000"/>
  <ellipse fill="#ffd4aa" stroke-width="0" stroke-dasharray="null" stroke-linejoin="null" stroke-linecap="null" cx="200.02056" cy="207.26481" rx="0.7831" ry="5.87678" transform="rotate(21.176231384277344 200.02055358886696,207.26481628417977) " id="svg_87" stroke="#000000"/>
  <path fill="#ffffff" stroke-width="0" stroke-dasharray="null" stroke-linejoin="null" stroke-linecap="null" d="m262.60438,175.31716l0.12463,-35.24651l0.12463,35.24651l-0.24926,0l0,0z" transform="rotate(27.517370223999023 262.72900390625,157.69390869140628) " id="svg_88" stroke="#000000"/>
  <ellipse fill="#00ffff" stroke-width="0" stroke-dasharray="null" stroke-linejoin="null" stroke-linecap="null" opacity="0.2" cx="195.05861" cy="342.46098" id="svg_93" rx="3.375" ry="3.1875" stroke="#000000"/>
  <ellipse fill="#00ffff" stroke-width="0" stroke-dasharray="null" stroke-linejoin="null" stroke-linecap="null" opacity="0.2" cx="277.93361" cy="344.3477" rx="4.5" ry="3.9375" id="svg_115" stroke="#000000"/>
  <ellipse fill="#f780f7" stroke-width="0" stroke-dasharray="null" stroke-linejoin="null" stroke-linecap="null" opacity="0.3" cx="277.7461" cy="344.33599" rx="3.375" ry="3.375" id="svg_109" stroke="#000000"/>
  <ellipse fill="#f47ff4" stroke-width="0" stroke-dasharray="null" stroke-linejoin="null" stroke-linecap="null" opacity="0.3" cx="195.21681" cy="342.4024" rx="2.0332" ry="2.30859" id="svg_110" stroke="#000000"/>
  <ellipse fill="#ffffff" stroke-width="0" stroke-dasharray="null" stroke-linejoin="null" stroke-linecap="null" opacity="0.4" cx="121.92706" cy="192.6998" rx="5.15625" ry="4.97911" id="svg_124" stroke="#000000"/>
  <ellipse fill="#ff00ff" stroke-width="0" stroke-dasharray="null" stroke-linejoin="null" stroke-linecap="null" opacity="0.2" cx="171.37501" cy="273.25004" rx="3.375" ry="3.375" id="svg_125" stroke="#000000"/>
  <ellipse fill="#ff00ff" stroke-width="0" stroke-dasharray="null" stroke-linejoin="null" stroke-linecap="null" opacity="0.2" cx="171.37501" cy="206.31253" rx="3.375" ry="3.375" id="svg_128" stroke="#000000"/>
  <ellipse stroke="#000000" fill="#00ffff" stroke-width="0" stroke-dasharray="null" stroke-linejoin="null" stroke-linecap="null" opacity="0.2" cx="314.62502" cy="134.87502" rx="3.375" ry="3.1875" id="svg_138"/>
  <ellipse fill="#ff00ff" stroke-width="0" stroke-dasharray="null" stroke-linejoin="null" stroke-linecap="null" opacity="0.2" cx="171.93751" cy="170.87504" rx="3.375" ry="3.375" id="svg_139" stroke="#000000"/>
  <ellipse fill="#ffffff" stroke-width="0" stroke-dasharray="null" stroke-linejoin="null" stroke-linecap="null" opacity="0.4" cx="123.30206" cy="259.55397" rx="4.59375" ry="4.97911" id="svg_140" stroke="#000000"/>
  <ellipse fill="#ffffff" stroke-width="0" stroke-dasharray="null" stroke-linejoin="null" stroke-linecap="null" opacity="0.4" cx="122.73955" cy="328.74147" rx="4.59375" ry="4.97911" id="svg_143" stroke="#000000"/>
  <rect fill="#f7a8ce" stroke-width="0" stroke-dasharray="null" stroke-linejoin="null" stroke-linecap="null" x="117.4076" y="145.13921" width="15.29111" height="0.52792" id="svg_145" transform="rotate(1.1024646759033203 125.05316162109273,145.4031677246091) " stroke="#000000"/>
  <ellipse fill="#c45488" stroke-width="0.2" stroke-dasharray="null" stroke-linejoin="null" stroke-linecap="null" opacity="0.8" cx="337.3663" cy="127.8657" id="svg_146" rx="3.11462" ry="3.02563" stroke="#8585f7"/>
  <rect fill="#e006e0" stroke-width="0" stroke-dasharray="null" stroke-linejoin="null" stroke-linecap="null" opacity="0.9" x="353.13716" y="131.99875" width="45.28565" height="0.8627" id="svg_148" stroke="#f9f2f2"/>
  <rect fill="#e006e0" stroke-width="0" stroke-dasharray="null" stroke-linejoin="null" stroke-linecap="null" opacity="0.9" x="362.86668" y="121.06049" width="35.54628" height="0.56113" id="svg_149" stroke="#f9f2f2"/>
  <ellipse fill="#7f00ff" stroke-width="0.2" stroke-dasharray="null" stroke-linejoin="null" stroke-linecap="null" opacity="0.1" cx="353.98487" cy="141.8749" rx="1.42522" ry="1.4207" id="svg_162" stroke="#c7a5ff"/>
  <ellipse fill="#7f00ff" stroke-width="0.2" stroke-dasharray="null" stroke-linejoin="null" stroke-linecap="null" opacity="0.1" cx="357.56613" cy="130.0834" rx="1.42522" ry="1.4207" id="svg_164" stroke="#c7a5ff"/>
  <ellipse fill="#ff007f" stroke-width="0.2" stroke-dasharray="null" stroke-linejoin="null" stroke-linecap="null" opacity="0.1" cx="366.46631" cy="119.4609" rx="1.42522" ry="1.4207" id="svg_165" stroke="#c7a5ff"/>
  <ellipse fill="#ff007f" stroke-width="0.2" stroke-dasharray="null" stroke-linejoin="null" stroke-linecap="null" opacity="0.1" cx="361.92786" cy="141.8862" rx="1.42522" ry="1.4207" id="svg_166" stroke="#c7a5ff"/>
  <ellipse fill="#ff007f" stroke-width="0.2" stroke-dasharray="null" stroke-linejoin="null" stroke-linecap="null" opacity="0.1" cx="345.77631" cy="141.8862" rx="1.42522" ry="1.4207" id="svg_167" stroke="#c7a5ff"/>
  <rect fill="#f9c5f9" stroke-width="0" stroke-dasharray="null" stroke-linejoin="null" stroke-linecap="null" opacity="0.8" x="362.99737" y="122.06162" width="6.22152" height="0.16068" id="svg_168" stroke="#f9f2f2"/>
  <rect fill="#f9c5f9" stroke-width="0" stroke-dasharray="null" stroke-linejoin="null" stroke-linecap="null" opacity="0.8" x="353.46161" y="133.62466" width="15.75727" height="0.16068" id="svg_169" stroke="#f9f2f2"/>
  <rect fill="#f9c5f9" stroke-width="0" stroke-dasharray="null" stroke-linejoin="null" stroke-linecap="null" opacity="0.8" x="338.60109" y="145.73832" width="30.87433" height="0.16068" id="svg_170" stroke="#f9f2f2"/>
  <polygon fill="#bfbfbf" points="153.6485595703125,135.89053337555833 154.65444946289062,138.48181985904012 157.71749877929688,138.53771155381764 155.276123046875,140.19510853556403 156.16329956054688,142.82093811035156 153.6485595703125,141.25397591468845 151.13381958007812,142.82093811035156 152.02099609375,140.19510853556403 149.57962036132812,138.53771155381764 152.64266967773438,138.48181985904012 153.6485595703125,135.89053337555833 154.65444946289062,138.48181985904012 " stroke-width="0" opacity="0.1" id="svg_171" stroke="#000000"/>
  <polygon fill="#bfbfbf" points="134.26208497268817,104.26528930664062 135.05938951317148,108.32881164550781 137.48727419342322,108.41645812988281 135.55215347036574,111.0155029296875 136.2553598063023,115.13319396972656 134.26208497268817,112.67596435546875 132.26881013907405,115.13319396972656 132.9720164750106,111.0155029296875 131.03689575195312,108.41645812988281 133.46478043220486,108.32881164550781 134.26208497268817,104.26528930664062 135.05938951317148,108.32881164550781 " stroke-width="0" opacity="0.1" id="svg_172" transform="rotate(26.314777374267578 134.26208496093747,109.6992416381836) " stroke="#000000"/>
  <polygon fill="#bfbfbf" points="166.56298826949933,121.54074096679688 167.36029280998264,125.60426330566406 169.78817749023438,125.69190979003906 167.8530567671769,128.29095458984375 168.55626310311345,132.4086456298828 166.56298826949933,129.951416015625 164.5697134358852,132.4086456298828 165.27291977182176,128.29095458984375 163.33779904876428,125.69190979003906 165.76568372901602,125.60426330566406 166.56298826949933,121.54074096679688 167.36029280998264,125.60426330566406 " stroke-width="0" opacity="0.1" id="svg_173" stroke="#000000"/>
  <polygon fill="#bfbfbf" points="160.42437743259325,104.47512817382812 161.360738558903,108.53865051269531 164.21206665039062,108.62629699707031 161.93944467499205,111.225341796875 162.7652960822179,115.34303283691406 160.42437743259325,112.88580322265625 158.0834587829686,115.34303283691406 158.90931019019445,111.225341796875 156.63668821479587,108.62629699707031 159.4880163062835,108.53865051269531 160.42437743259325,104.47512817382812 161.360738558903,108.53865051269531 " stroke-width="0" opacity="0.1" id="svg_174" transform="rotate(-30.906599044799805 160.42437744140625,109.9090805053711) " stroke="#000000"/>
  <polygon fill="#bfbfbf" points="124.3743896484375,113.98654174804688 124.72844696044922,118.05006408691406 125.80661010742188,118.13771057128906 124.94728088378906,120.73675537109375 125.25955200195312,124.85444641113281 124.3743896484375,122.397216796875 123.4892349243164,124.85444641113281 123.80149841308594,120.73675537109375 122.94216918945312,118.13771057128906 124.02033233642578,118.05006408691406 124.3743896484375,113.98654174804688 124.72844696044922,118.05006408691406 " stroke-width="0" opacity="0.1" id="svg_175" transform="rotate(14.924762725830078 124.37438964843751,119.42049407958984) " stroke="#000000"/>
  <polygon id="svg_177" fill="#bfbfbf" opacity="0.1" stroke="null"/>
  <ellipse fill="#ffffff" stroke-width="0" stroke-dasharray="null" stroke-linejoin="null" stroke-linecap="null" cx="140.21002" cy="121.64261" rx="15.86475" ry="16.58756" id="svg_182" stroke="#000000"/>
  <ellipse fill="#a466f4" stroke-width="0" stroke-dasharray="null" stroke-linejoin="null" stroke-linecap="null" cx="140.5958" cy="123.72382" rx="16.14014" ry="19.19352" id="svg_184" stroke="#000000"/>
  <rect fill="#a466f4" stroke-width="0" stroke-dasharray="null" stroke-linejoin="null" stroke-linecap="null" x="124.17772" y="115.40726" width="6.40723" height="15.89941" id="svg_185" transform="rotate(-4.474902629852295 127.38134002685534,123.35696411132827) " stroke="#000000"/>
  <path fill="#ffffff" stroke-width="0.2" stroke-dasharray="null" stroke-linejoin="null" stroke-linecap="null" opacity="0.8" d="m130.75876,126.96599l0.09731,-0.33365l0,0.16682l0.03902,0l0,-0.26677l0.07781,0l0,-0.13377l-0.04866,0l0.09731,-0.33365l0.09732,0.33365l-0.04866,0l0,0.13377l0.07781,0l0,0.26677l0.03902,0l0,-0.16682l0.09732,0.33365l-0.09732,0.33365l0,-0.16683l-0.03902,0l0,0.26677l-0.07781,0l0,0.13377l0.04866,0l-0.09732,0.33365l-0.09731,-0.33365l0.04866,0l0,-0.13377l-0.07781,0l0,-0.26677l-0.03902,0l0,0.16683l-0.09731,-0.33365z" id="svg_186" stroke="#f9f2f2"/>
  <path fill="#ffffff" stroke-width="0.2" stroke-dasharray="null" stroke-linejoin="null" stroke-linecap="null" opacity="0.8" d="m169.50246,124.63836l0.09732,-0.33364l0,0.16682l0.03901,0l0,-0.26678l0.07781,0l0,-0.13377l-0.04865,0l0.09731,-0.33365l0.09732,0.33365l-0.04866,0l0,0.13377l0.07781,0l0,0.26678l0.03902,0l0,-0.16682l0.09731,0.33364l-0.09731,0.33365l0,-0.16682l-0.03902,0l0,0.26677l-0.07781,0l0,0.13377l0.04866,0l-0.09732,0.33365l-0.09731,-0.33365l0.04865,0l0,-0.13377l-0.07781,0l0,-0.26677l-0.03901,0l0,0.16682l-0.09732,-0.33365z" id="svg_187" stroke="#f9f2f2"/>
  <path fill="#ffffff" stroke-width="0.2" stroke-dasharray="null" stroke-linejoin="null" stroke-linecap="null" opacity="0.8" d="m144.87468,136.27649l0.09732,-0.33364l0,0.16682l0.03901,0l0,-0.26678l0.07781,0l0,-0.13377l-0.04865,0l0.09731,-0.33365l0.09732,0.33365l-0.04866,0l0,0.13377l0.07781,0l0,0.26678l0.03902,0l0,-0.16682l0.09731,0.33364l-0.09731,0.33365l0,-0.16682l-0.03902,0l0,0.26677l-0.07781,0l0,0.13377l0.04866,0l-0.09732,0.33365l-0.09731,-0.33365l0.04865,0l0,-0.13377l-0.07781,0l0,-0.26677l-0.03901,0l0,0.16682l-0.09732,-0.33365z" id="svg_188" stroke="#f9f2f2"/>
  <path fill="#ffffff" stroke-width="0.2" stroke-dasharray="null" stroke-linejoin="null" stroke-linecap="null" opacity="0.8" d="m123.02503,127.64174l0.09732,-0.33364l0,0.16682l0.03901,0l0,-0.26678l0.07781,0l0,-0.13377l-0.04865,0l0.09731,-0.33365l0.09732,0.33365l-0.04866,0l0,0.13377l0.07781,0l0,0.26678l0.03902,0l0,-0.16682l0.09731,0.33364l-0.09731,0.33365l0,-0.16682l-0.03902,0l0,0.26677l-0.07781,0l0,0.13377l0.04866,0l-0.09732,0.33365l-0.09731,-0.33365l0.04865,0l0,-0.13377l-0.07781,0l0,-0.26677l-0.03901,0l0,0.16682l-0.09732,-0.33365z" id="svg_189" stroke="#f9f2f2"/>
  <path fill="#ffffff" stroke-width="0.2" stroke-dasharray="null" stroke-linejoin="null" stroke-linecap="null" opacity="0.8" d="m157.11347,128.76801l0.09732,-0.33364l0,0.16682l0.03901,0l0,-0.26678l0.07781,0l0,-0.13377l-0.04865,0l0.09731,-0.33365l0.09732,0.33365l-0.04866,0l0,0.13377l0.07781,0l0,0.26678l0.03902,0l0,-0.16682l0.09731,0.33364l-0.09731,0.33365l0,-0.16682l-0.03902,0l0,0.26677l-0.07781,0l0,0.13377l0.04866,0l-0.09732,0.33365l-0.09731,-0.33365l0.04865,0l0,-0.13377l-0.07781,0l0,-0.26677l-0.03901,0l0,0.16682l-0.09732,-0.33365z" id="svg_190" stroke="#f9f2f2"/>
  <path fill="#ffffff" stroke-width="0.2" stroke-dasharray="null" stroke-linejoin="null" stroke-linecap="null" opacity="0.8" d="m151.78246,115.5531l0.09732,-0.33364l0,0.16682l0.03901,0l0,-0.26678l0.07781,0l0,-0.13377l-0.04865,0l0.09731,-0.33365l0.09732,0.33365l-0.04866,0l0,0.13377l0.07781,0l0,0.26678l0.03902,0l0,-0.16682l0.09731,0.33364l-0.09731,0.33365l0,-0.16682l-0.03902,0l0,0.26677l-0.07781,0l0,0.13377l0.04866,0l-0.09732,0.33365l-0.09731,-0.33365l0.04865,0l0,-0.13377l-0.07781,0l0,-0.26677l-0.03901,0l0,0.16682l-0.09732,-0.33365z" id="svg_191" stroke="#f9f2f2"/>
  <path fill="#ffffff" stroke-width="0.2" stroke-dasharray="null" stroke-linejoin="null" stroke-linecap="null" opacity="0.8" d="m129.40722,139.80545l0.09732,-0.33364l0,0.16682l0.03901,0l0,-0.26678l0.07781,0l0,-0.13377l-0.04865,0l0.09731,-0.33365l0.09732,0.33365l-0.04866,0l0,0.13377l0.07781,0l0,0.26678l0.03902,0l0,-0.16682l0.09731,0.33364l-0.09731,0.33365l0,-0.16682l-0.03902,0l0,0.26677l-0.07781,0l0,0.13377l0.04866,0l-0.09732,0.33365l-0.09731,-0.33365l0.04865,0l0,-0.13377l-0.07781,0l0,-0.26677l-0.03901,0l0,0.16682l-0.09732,-0.33365z" id="svg_192" stroke="#f9f2f2"/>
  <path fill="#ffffff" stroke-width="0.2" stroke-dasharray="null" stroke-linejoin="null" stroke-linecap="null" opacity="0.8" d="m158.9155,143.03409l0.09732,-0.33364l0,0.16682l0.03901,0l0,-0.26678l0.07781,0l0,-0.13377l-0.04865,0l0.09731,-0.33365l0.09732,0.33365l-0.04866,0l0,0.13377l0.07781,0l0,0.26678l0.03902,0l0,-0.16682l0.09731,0.33364l-0.09731,0.33365l0,-0.16682l-0.03902,0l0,0.26677l-0.07781,0l0,0.13377l0.04866,0l-0.09732,0.33365l-0.09731,-0.33365l0.04865,0l0,-0.13377l-0.07781,0l0,-0.26677l-0.03901,0l0,0.16682l-0.09732,-0.33365z" id="svg_193" transform="rotate(36.12563705444336 159.17829895019534,143.03408813476562) " stroke="#f9f2f2"/>
  <path fill="#ffffff" stroke-width="0.2" stroke-dasharray="null" stroke-linejoin="null" stroke-linecap="null" opacity="0.8" d="m140.59483,119.08207l0.09732,-0.33364l0,0.16682l0.03901,0l0,-0.26678l0.07781,0l0,-0.13377l-0.04865,0l0.09731,-0.33365l0.09732,0.33365l-0.04866,0l0,0.13377l0.07781,0l0,0.26678l0.03902,0l0,-0.16682l0.09731,0.33364l-0.09731,0.33365l0,-0.16682l-0.03902,0l0,0.26677l-0.07781,0l0,0.13377l0.04866,0l-0.09732,0.33365l-0.09731,-0.33365l0.04865,0l0,-0.13377l-0.07781,0l0,-0.26677l-0.03901,0l0,0.16682l-0.09732,-0.33365z" id="svg_194" stroke="#f9f2f2"/>
  <path fill="#ffffff" stroke-width="0.2" stroke-dasharray="null" stroke-linejoin="null" stroke-linecap="null" opacity="0.8" d="m145.09991,105.04123l0.09732,-0.33364l0,0.16682l0.03901,0l0,-0.26678l0.07781,0l0,-0.13377l-0.04865,0l0.09731,-0.33365l0.09732,0.33365l-0.04866,0l0,0.13377l0.07781,0l0,0.26678l0.03902,0l0,-0.16682l0.09731,0.33364l-0.09731,0.33365l0,-0.16682l-0.03902,0l0,0.26677l-0.07781,0l0,0.13377l0.04866,0l-0.09732,0.33365l-0.09731,-0.33365l0.04865,0l0,-0.13377l-0.07781,0l0,-0.26677l-0.03901,0l0,0.16682l-0.09732,-0.33365z" id="svg_195" stroke="#f9f2f2"/>
  <path fill="#ffffff" stroke-width="0.2" stroke-dasharray="null" stroke-linejoin="null" stroke-linecap="null" opacity="0.8" d="m164.47175,111.12309l0.05561,-0.33364l0,0.16682l0.02229,0l0,-0.26678l0.04446,0l0,-0.13377l-0.0278,0l0.05561,-0.33365l0.05561,0.33365l-0.02781,0l0,0.13377l0.04446,0l0,0.26678l0.0223,0l0,-0.16682l0.05561,0.33364l-0.05561,0.33365l0,-0.16682l-0.0223,0l0,0.26677l-0.04446,0l0,0.13377l0.02781,0l-0.05561,0.33365l-0.05561,-0.33365l0.0278,0l0,-0.13377l-0.04446,0l0,-0.26677l-0.02229,0l0,0.16682l-0.05561,-0.33365z" id="svg_196" stroke="#f9f2f2"/>
  <path fill="#aad4ff" stroke-width="0.2" stroke-dasharray="null" stroke-linejoin="null" stroke-linecap="null" opacity="0.8" d="m156.38767,105.04126l0.09732,-0.33364l0,0.16682l0.03901,0l0,-0.26678l0.07781,0l0,-0.13377l-0.04865,0l0.09731,-0.33365l0.09732,0.33365l-0.04866,0l0,0.13377l0.07781,0l0,0.26678l0.03902,0l0,-0.16682l0.09731,0.33364l-0.09731,0.33365l0,-0.16682l-0.03902,0l0,0.26677l-0.07781,0l0,0.13377l0.04866,0l-0.09732,0.33365l-0.09731,-0.33365l0.04865,0l0,-0.13377l-0.07781,0l0,-0.26677l-0.03901,0l0,0.16682l-0.09732,-0.33365z" id="svg_197" stroke="#d4aaff"/>
  <path fill="#aad4ff" stroke-width="0.2" stroke-dasharray="null" stroke-linejoin="null" stroke-linecap="null" opacity="0.8" d="m166.7994,135.17525l0.09732,-0.33364l0,0.16682l0.03901,0l0,-0.26678l0.07781,0l0,-0.13377l-0.04865,0l0.09731,-0.33365l0.09732,0.33365l-0.04866,0l0,0.13377l0.07781,0l0,0.26678l0.03902,0l0,-0.16682l0.09731,0.33364l-0.09731,0.33365l0,-0.16682l-0.03902,0l0,0.26677l-0.07781,0l0,0.13377l0.04866,0l-0.09732,0.33365l-0.09731,-0.33365l0.04865,0l0,-0.13377l-0.07781,0l0,-0.26677l-0.03901,0l0,0.16682l-0.09732,-0.33365z" id="svg_198" stroke="#d4aaff"/>
  <path fill="#aad4ff" stroke-width="0.2" stroke-dasharray="null" stroke-linejoin="null" stroke-linecap="null" opacity="0.8" d="m139.96915,142.18315l0.09732,-0.33364l0,0.16682l0.03901,0l0,-0.26678l0.07781,0l0,-0.13377l-0.04865,0l0.09731,-0.33365l0.09732,0.33365l-0.04866,0l0,0.13377l0.07781,0l0,0.26678l0.03902,0l0,-0.16682l0.09731,0.33364l-0.09731,0.33365l0,-0.16682l-0.03902,0l0,0.26677l-0.07781,0l0,0.13377l0.04866,0l-0.09732,0.33365l-0.09731,-0.33365l0.04865,0l0,-0.13377l-0.07781,0l0,-0.26677l-0.03901,0l0,0.16682l-0.09732,-0.33365z" id="svg_199" stroke="#d4aaff"/>
  <path fill="#aad4ff" stroke-width="0.2" stroke-dasharray="null" stroke-linejoin="null" stroke-linecap="null" opacity="0.8" d="m146.87694,126.66565l0.09732,-0.33364l0,0.16682l0.03901,0l0,-0.26678l0.07781,0l0,-0.13377l-0.04865,0l0.09731,-0.33365l0.09732,0.33365l-0.04866,0l0,0.13377l0.07781,0l0,0.26678l0.03902,0l0,-0.16682l0.09731,0.33364l-0.09731,0.33365l0,-0.16682l-0.03902,0l0,0.26677l-0.07781,0l0,0.13377l0.04866,0l-0.09732,0.33365l-0.09731,-0.33365l0.04865,0l0,-0.13377l-0.07781,0l0,-0.26677l-0.03901,0l0,0.16682l-0.09732,-0.33365z" id="svg_200" stroke="#d4aaff"/>
  <path fill="#aad4ff" stroke-width="0.2" stroke-dasharray="null" stroke-linejoin="null" stroke-linecap="null" opacity="0.8" d="m131.45955,117.55538l0.09732,-0.33364l0,0.16682l0.03901,0l0,-0.26678l0.07781,0l0,-0.13377l-0.04865,0l0.09731,-0.33365l0.09732,0.33365l-0.04866,0l0,0.13377l0.07781,0l0,0.26678l0.03902,0l0,-0.16682l0.09731,0.33364l-0.09731,0.33365l0,-0.16682l-0.03902,0l0,0.26677l-0.07781,0l0,0.13377l0.04866,0l-0.09732,0.33365l-0.09731,-0.33365l0.04865,0l0,-0.13377l-0.07781,0l0,-0.26677l-0.03901,0l0,0.16682l-0.09732,-0.33365z" id="svg_201" stroke="#d4aaff"/>
  <path fill="#aad4ff" stroke-width="0.2" stroke-dasharray="null" stroke-linejoin="null" stroke-linecap="null" opacity="0.8" d="m135.76441,107.04352l0.04171,-0.33364l0,0.16682l0.01672,0l0,-0.26678l0.03335,0l0,-0.13377l-0.02085,0l0.04171,-0.33365l0.04171,0.33365l-0.02085,0l0,0.13377l0.03335,0l0,0.26678l0.01672,0l0,-0.16682l0.04171,0.33364l-0.04171,0.33365l0,-0.16682l-0.01672,0l0,0.26677l-0.03335,0l0,0.13377l0.02085,0l-0.04171,0.33365l-0.04171,-0.33365l0.02085,0l0,-0.13377l-0.03335,0l0,-0.26677l-0.01672,0l0,0.16682l-0.04171,-0.33365z" id="svg_202" stroke="#d4aaff"/>
  <path fill="#ffffff" stroke-width="0.2" stroke-dasharray="null" stroke-linejoin="null" stroke-linecap="null" opacity="0.8" d="m373.31671,126.47503l0.09732,-0.33364l0,0.16682l0.03901,0l0,-0.26678l0.07781,0l0,-0.13377l-0.04865,0l0.09731,-0.33365l0.09732,0.33365l-0.04866,0l0,0.13377l0.07781,0l0,0.26678l0.03902,0l0,-0.16682l0.09731,0.33364l-0.09731,0.33365l0,-0.16682l-0.03902,0l0,0.26677l-0.07781,0l0,0.13377l0.04866,0l-0.09732,0.33365l-0.09731,-0.33365l0.04865,0l0,-0.13377l-0.07781,0l0,-0.26677l-0.03901,0l0,0.16682l-0.09732,-0.33365z" stroke="#f9f2f2" id="svg_104"/>
  <path fill="#ffffff" stroke-width="0.2" stroke-dasharray="null" stroke-linejoin="null" stroke-linecap="null" opacity="0.8" d="m375.11874,140.74111l0.09732,-0.33364l0,0.16682l0.03901,0l0,-0.26678l0.07781,0l0,-0.13377l-0.04865,0l0.09731,-0.33365l0.09732,0.33365l-0.04866,0l0,0.13377l0.07781,0l0,0.26678l0.03902,0l0,-0.16682l0.09731,0.33364l-0.09731,0.33365l0,-0.16682l-0.03902,0l0,0.26677l-0.07781,0l0,0.13377l0.04866,0l-0.09732,0.33365l-0.09731,-0.33365l0.04865,0l0,-0.13377l-0.07781,0l0,-0.26677l-0.03901,0l0,0.16682l-0.09732,-0.33365z" transform="rotate(-1.9383249282836914 375.38153076172034,140.74111938476645) " stroke="#f9f2f2" id="svg_113"/>
  <path fill="#ffffff" stroke-width="0.2" stroke-dasharray="null" stroke-linejoin="null" stroke-linecap="null" opacity="0.8" d="m372.24884,150.14617l0.09732,-0.33364l0,0.16682l0.03901,0l0,-0.26678l0.07781,0l0,-0.13377l-0.04865,0l0.09731,-0.33365l0.09732,0.33365l-0.04866,0l0,0.13377l0.07781,0l0,0.26678l0.03902,0l0,-0.16682l0.09731,0.33364l-0.09731,0.33365l0,-0.16682l-0.03902,0l0,0.26677l-0.07781,0l0,0.13377l0.04866,0l-0.09732,0.33365l-0.09731,-0.33365l0.04865,0l0,-0.13377l-0.07781,0l0,-0.26677l-0.03901,0l0,0.16682l-0.09732,-0.33365z" stroke="#f9f2f2" id="svg_114"/>
  <path fill="#ffffff" stroke-width="0.2" stroke-dasharray="null" stroke-linejoin="null" stroke-linecap="null" opacity="0.8" d="m379.32318,155.34712l0.48772,0.68177l0,-0.34088l0.1955,0l0,0.54515l0.38994,0l0,0.27335l-0.24381,0l0.48767,0.68179l0.48772,-0.68179l-0.24386,0l0,-0.27335l0.38994,0l0,-0.54515l0.19555,0l0,0.34088l0.48767,-0.68177l-0.48767,-0.68179l0,0.34088l-0.19555,0l0,-0.54513l-0.38994,0l0,-0.27335l0.24386,0l-0.48772,-0.68179l-0.48767,0.68179l0.24381,0l0,0.27335l-0.38994,0l0,0.54513l-0.1955,0l0,-0.34088l-0.48772,0.68179z" id="svg_116" stroke="#f9f2f2"/>
  <path fill="#ffffff" stroke-width="0.2" stroke-dasharray="null" stroke-linejoin="null" stroke-linecap="null" opacity="0.8" d="m383.99542,137.15374l0.09732,-0.33364l0,0.16682l0.03901,0l0,-0.26678l0.07781,0l0,-0.13377l-0.04865,0l0.09731,-0.33365l0.09732,0.33365l-0.04866,0l0,0.13377l0.07781,0l0,0.26678l0.03902,0l0,-0.16682l0.09731,0.33364l-0.09731,0.33365l0,-0.16682l-0.03902,0l0,0.26677l-0.07781,0l0,0.13377l0.04866,0l-0.09732,0.33365l-0.09731,-0.33365l0.04865,0l0,-0.13377l-0.07781,0l0,-0.26677l-0.03901,0l0,0.16682l-0.09732,-0.33365z" stroke="#f9f2f2" id="svg_137"/>
  <path fill="#ffffff" stroke-width="0.2" stroke-dasharray="null" stroke-linejoin="null" stroke-linecap="null" opacity="0.8" d="m387.55499,140.71331l0.09732,-0.33364l0,0.16682l0.03901,0l0,-0.26678l0.07781,0l0,-0.13377l-0.04865,0l0.09731,-0.33365l0.09732,0.33365l-0.04866,0l0,0.13377l0.07781,0l0,0.26678l0.03902,0l0,-0.16682l0.09731,0.33364l-0.09731,0.33365l0,-0.16682l-0.03902,0l0,0.26677l-0.07781,0l0,0.13377l0.04866,0l-0.09732,0.33365l-0.09731,-0.33365l0.04865,0l0,-0.13377l-0.07781,0l0,-0.26677l-0.03901,0l0,0.16682l-0.09732,-0.33365z" stroke="#f9f2f2" id="svg_150"/>
  <path fill="#ffffff" stroke-width="0.2" stroke-dasharray="null" stroke-linejoin="null" stroke-linecap="null" opacity="0.8" d="m382.15631,190.60662l0.09732,-0.33364l0,0.16682l0.03901,0l0,-0.26678l0.07781,0l0,-0.13377l-0.04865,0l0.09731,-0.33365l0.09732,0.33365l-0.04866,0l0,0.13377l0.07781,0l0,0.26678l0.03902,0l0,-0.16682l0.09731,0.33364l-0.09731,0.33365l0,-0.16682l-0.03902,0l0,0.26677l-0.07781,0l0,0.13377l0.04866,0l-0.09732,0.33365l-0.09731,-0.33365l0.04865,0l0,-0.13377l-0.07781,0l0,-0.26677l-0.03901,0l0,0.16682l-0.09732,-0.33365z" stroke="#f9f2f2" id="svg_151"/>
  <path fill="#ffffff" stroke-width="0.2" stroke-dasharray="null" stroke-linejoin="null" stroke-linecap="null" opacity="0.8" d="m384.1734,164.0285l0.09732,-0.33364l0,0.16682l0.03901,0l0,-0.26678l0.07781,0l0,-0.13377l-0.04865,0l0.09731,-0.33365l0.09732,0.33365l-0.04866,0l0,0.13377l0.07781,0l0,0.26678l0.03902,0l0,-0.16682l0.09731,0.33364l-0.09731,0.33365l0,-0.16682l-0.03902,0l0,0.26677l-0.07781,0l0,0.13377l0.04866,0l-0.09732,0.33365l-0.09731,-0.33365l0.04865,0l0,-0.13377l-0.07781,0l0,-0.26677l-0.03901,0l0,0.16682l-0.09732,-0.33365z" stroke="#f9f2f2" id="svg_152"/>
  <path fill="#ffffff" stroke-width="0.2" stroke-dasharray="null" stroke-linejoin="null" stroke-linecap="null" opacity="0.8" d="m376.10504,221.10027l0.09732,-0.33364l0,0.16682l0.03901,0l0,-0.26678l0.07781,0l0,-0.13377l-0.04865,0l0.09731,-0.33365l0.09732,0.33365l-0.04866,0l0,0.13377l0.07781,0l0,0.26678l0.03902,0l0,-0.16682l0.09731,0.33364l-0.09731,0.33365l0,-0.16682l-0.03902,0l0,0.26677l-0.07781,0l0,0.13377l0.04866,0l-0.09732,0.33365l-0.09731,-0.33365l0.04865,0l0,-0.13377l-0.07781,0l0,-0.26677l-0.03901,0l0,0.16682l-0.09732,-0.33365z" stroke="#f9f2f2" id="svg_153"/>
  <path fill="#ffffff" stroke-width="0.2" stroke-dasharray="null" stroke-linejoin="null" stroke-linecap="null" opacity="0.8" d="m370.29107,177.37688l0.09732,-0.33364l0,0.16682l0.03901,0l0,-0.26678l0.07781,0l0,-0.13377l-0.04865,0l0.09731,-0.33365l0.09732,0.33365l-0.04866,0l0,0.13377l0.07781,0l0,0.26678l0.03902,0l0,-0.16682l0.09731,0.33364l-0.09731,0.33365l0,-0.16682l-0.03902,0l0,0.26677l-0.07781,0l0,0.13377l0.04866,0l-0.09732,0.33365l-0.09731,-0.33365l0.04865,0l0,-0.13377l-0.07781,0l0,-0.26677l-0.03901,0l0,0.16682l-0.09732,-0.33365z" stroke="#f9f2f2" id="svg_154"/>
  <path fill="#ffffff" stroke-width="0.2" stroke-dasharray="null" stroke-linejoin="null" stroke-linecap="null" opacity="0.8" d="m383.2835,119.35589l0.09732,-0.33364l0,0.16682l0.03901,0l0,-0.26678l0.07781,0l0,-0.13377l-0.04865,0l0.09731,-0.33365l0.09732,0.33365l-0.04866,0l0,0.13377l0.07781,0l0,0.26678l0.03902,0l0,-0.16682l0.09731,0.33364l-0.09731,0.33365l0,-0.16682l-0.03902,0l0,0.26677l-0.07781,0l0,0.13377l0.04866,0l-0.09732,0.33365l-0.09731,-0.33365l0.04865,0l0,-0.13377l-0.07781,0l0,-0.26677l-0.03901,0l0,0.16682l-0.09732,-0.33365z" stroke="#f9f2f2" id="svg_155"/>
  <path fill="#ffffff" stroke-width="0.2" stroke-dasharray="null" stroke-linejoin="null" stroke-linecap="null" opacity="0.8" d="m382.86822,228.16009l0.09732,-0.33364l0,0.16682l0.03901,0l0,-0.26678l0.07781,0l0,-0.13377l-0.04865,0l0.09731,-0.33365l0.09732,0.33365l-0.04866,0l0,0.13377l0.07781,0l0,0.26678l0.03902,0l0,-0.16682l0.09731,0.33364l-0.09731,0.33365l0,-0.16682l-0.03902,0l0,0.26677l-0.07781,0l0,0.13377l0.04866,0l-0.09732,0.33365l-0.09731,-0.33365l0.04865,0l0,-0.13377l-0.07781,0l0,-0.26677l-0.03901,0l0,0.16682l-0.09732,-0.33365z" stroke="#f9f2f2" id="svg_156"/>
  <path fill="#ffffff" stroke-width="0.2" stroke-dasharray="null" stroke-linejoin="null" stroke-linecap="null" opacity="0.8" d="m374.81439,234.60688l0.48772,0.68177l0,-0.34088l0.19549,0l0,0.54515l0.38995,0l0,0.27334l-0.24381,0l0.48766,0.6818l0.48772,-0.6818l-0.24386,0l0,-0.27334l0.38995,0l0,-0.54515l0.19554,0l0,0.34088l0.48767,-0.68177l-0.48767,-0.68179l0,0.34089l-0.19554,0l0,-0.54513l-0.38995,0l0,-0.27335l0.24386,0l-0.48772,-0.68179l-0.48766,0.68179l0.24381,0l0,0.27335l-0.38995,0l0,0.54513l-0.19549,0l0,-0.34089l-0.48772,0.68179z" stroke="#f9f2f2" id="svg_157"/>
  <path fill="#ffffff" stroke-width="0.2" stroke-dasharray="null" stroke-linejoin="null" stroke-linecap="null" opacity="0.8" d="m383.55624,149.17861l0.09732,-0.33364l0,0.16682l0.03901,0l0,-0.26678l0.07781,0l0,-0.13377l-0.04865,0l0.09731,-0.33365l0.09732,0.33365l-0.04866,0l0,0.13377l0.07781,0l0,0.26678l0.03902,0l0,-0.16682l0.09731,0.33364l-0.09731,0.33365l0,-0.16682l-0.03902,0l0,0.26677l-0.07781,0l0,0.13377l0.04866,0l-0.09732,0.33365l-0.09731,-0.33365l0.04865,0l0,-0.13377l-0.07781,0l0,-0.26677l-0.03901,0l0,0.16682l-0.09732,-0.33365z" transform="rotate(-1.9383249282836914 383.819030761719,149.1786193847656) " stroke="#f9f2f2" id="svg_158"/>
  <path fill="#ffffff" stroke-width="0.2" stroke-dasharray="null" stroke-linejoin="null" stroke-linecap="null" opacity="0.8" d="m372.23153,279.76211l0.09732,-0.33364l0,0.16682l0.03901,0l0,-0.26678l0.07781,0l0,-0.13377l-0.04865,0l0.09731,-0.33365l0.09732,0.33365l-0.04866,0l0,0.13377l0.07781,0l0,0.26678l0.03902,0l0,-0.16682l0.09731,0.33364l-0.09731,0.33365l0,-0.16682l-0.03902,0l0,0.26677l-0.07781,0l0,0.13377l0.04866,0l-0.09732,0.33365l-0.09731,-0.33365l0.04865,0l0,-0.13377l-0.07781,0l0,-0.26677l-0.03901,0l0,0.16682l-0.09732,-0.33365z" transform="rotate(-1.9383249282836914 372.4943237304664,279.76208496093767) " stroke="#deea38" id="svg_159"/>
  <path fill="#ffffff" stroke-width="0.2" stroke-dasharray="null" stroke-linejoin="null" stroke-linecap="null" opacity="0.8" d="m381.86874,313.28798l0.09732,-0.33364l0,0.16682l0.03901,0l0,-0.26678l0.07781,0l0,-0.13377l-0.04865,0l0.09731,-0.33365l0.09732,0.33365l-0.04866,0l0,0.13377l0.07781,0l0,0.26678l0.03902,0l0,-0.16682l0.09731,0.33364l-0.09731,0.33365l0,-0.16682l-0.03902,0l0,0.26677l-0.07781,0l0,0.13377l0.04866,0l-0.09732,0.33365l-0.09731,-0.33365l0.04865,0l0,-0.13377l-0.07781,0l0,-0.26677l-0.03901,0l0,0.16682l-0.09732,-0.33365z" transform="rotate(-1.9383249282836914 382.13153076171983,313.2879943847641) " stroke="#f9f2f2" id="svg_160"/>
  <path fill="#ff007f" stroke-width="0.2" stroke-dasharray="null" stroke-linejoin="null" stroke-linecap="null" opacity="0.5" d="m371.08398,325.39424l1.68812,-0.158l0,0.079l0.67667,0l0,-0.12634l1.3497,0l0,-0.06334l-0.84389,0l1.68795,-0.158l1.68812,0.158l-0.84406,0l0,0.06334l1.3497,0l0,0.12634l0.67684,0l0,-0.079l1.68795,0.158l-1.68795,0.158l0,-0.079l-0.67684,0l0,0.12633l-1.3497,0l0,0.06335l0.84406,0l-1.68812,0.158l-1.68795,-0.158l0.84389,0l0,-0.06335l-1.3497,0l0,-0.12633l-0.67667,0l0,0.079l-1.68812,-0.158z" transform="rotate(-1.9383249282836914 375.64251708984085,325.39425659179676) " id="svg_161" stroke="#f9f2f2"/>
  <path fill="#ffffff" stroke-width="0.2" stroke-dasharray="null" stroke-linejoin="null" stroke-linecap="null" opacity="0.8" d="m371.42734,340.81533l0.09732,-0.33364l0,0.16683l0.039,0l0,-0.2668l0.07781,0l0,-0.13376l-0.04865,0l0.09731,-0.33364l0.09732,0.33364l-0.04865,0l0,0.13376l0.07781,0l0,0.2668l0.03902,0l0,-0.16683l0.0973,0.33364l-0.0973,0.33364l0,-0.16681l-0.03902,0l0,0.26677l-0.07781,0l0,0.13378l0.04865,0l-0.09732,0.33364l-0.09731,-0.33364l0.04865,0l0,-0.13378l-0.07781,0l0,-0.26677l-0.039,0l0,0.16681l-0.09732,-0.33364z" transform="rotate(-1.9383249282836914 371.69012451171506,340.8153381347656) " stroke="#f9f2f2" id="svg_163"/>
  <path fill="#ffffff" stroke-width="0.2" stroke-dasharray="null" stroke-linejoin="null" stroke-linecap="null" opacity="0.8" d="m382.71249,250.65935l0.09732,-0.33364l0,0.16683l0.039,0l0,-0.2668l0.07781,0l0,-0.13376l-0.04865,0l0.09731,-0.33364l0.09732,0.33364l-0.04865,0l0,0.13376l0.07781,0l0,0.2668l0.03902,0l0,-0.16683l0.0973,0.33364l-0.0973,0.33364l0,-0.16681l-0.03902,0l0,0.26677l-0.07781,0l0,0.13378l0.04865,0l-0.09732,0.33364l-0.09731,-0.33364l0.04865,0l0,-0.13378l-0.07781,0l0,-0.26677l-0.039,0l0,0.16681l-0.09732,-0.33364z" transform="rotate(-1.9383249282836914 382.975280761714,250.6593627929696) " stroke="#f9f2f2" id="svg_178"/>
  <path fill="#ffffff" stroke-width="0.2" stroke-dasharray="null" stroke-linejoin="null" stroke-linecap="null" opacity="0.8" d="m382.63999,290.62539l0.09732,-0.33364l0,0.16683l0.039,0l0,-0.2668l0.07781,0l0,-0.13376l-0.04865,0l0.09731,-0.33364l0.09732,0.33364l-0.04865,0l0,0.13376l0.07781,0l0,0.2668l0.03902,0l0,-0.16683l0.0973,0.33364l-0.0973,0.33364l0,-0.16681l-0.03902,0l0,0.26677l-0.07781,0l0,0.13378l0.04865,0l-0.09732,0.33364l-0.09731,-0.33364l0.04865,0l0,-0.13378l-0.07781,0l0,-0.26677l-0.039,0l0,0.16681l-0.09732,-0.33364z" transform="rotate(-1.9383249282836914 382.9027709960914,290.62539672851614) " stroke="#f9f2f2" id="svg_179"/>
  <path transform="rotate(-171.87158203125 271.20123291015625,259.86700439453125) " d="m265.19457,276.65533l6.00667,-33.57665l6.00667,33.57665l-12.01334,0l0.00001,0l-0.00001,0z" stroke-linecap="null" stroke-linejoin="null" stroke-dasharray="null" stroke-width="0" fill="#ffd4aa" id="svg_204" stroke="#ef7373"/>
  <rect fill="#e0418e" stroke-width="0" stroke-dasharray="null" stroke-linejoin="null" stroke-linecap="null" x="214.81144" y="247.83385" width="179.44897" height="2.40675" opacity="0.3" transform="rotate(-90.77033233642578 304.53594970703125,249.03721618652344) " id="svg_112" stroke="#000000"/>
  <rect fill="#e0418e" stroke-width="0" stroke-dasharray="null" stroke-linejoin="null" stroke-linecap="null" x="299.17404" y="121.6898" width="10.8956" height="2.40675" opacity="0.3" transform="rotate(-90.77033233642578 304.6218566894532,122.8931655883789) " id="svg_121" stroke="#000000"/>
  <path fill="#ffffff" stroke-width="0.2" stroke-dasharray="null" stroke-linejoin="null" stroke-linecap="null" opacity="0.8" d="m326.72064,120.38422l0.48772,0.68177l0,-0.34088l0.19549,0l0,0.54515l0.38995,0l0,0.27334l-0.24381,0l0.48766,0.6818l0.48772,-0.6818l-0.24386,0l0,-0.27334l0.38995,0l0,-0.54515l0.19554,0l0,0.34088l0.48767,-0.68177l-0.48767,-0.68179l0,0.34089l-0.19554,0l0,-0.54513l-0.38995,0l0,-0.27335l0.24386,0l-0.48772,-0.68179l-0.48766,0.68179l0.24381,0l0,0.27335l-0.38995,0l0,0.54513l-0.19549,0l0,-0.34089l-0.48772,0.68179z" stroke="#f9f2f2" id="svg_207"/>
  <path stroke="#f9f2f2" fill="#ffffff" stroke-width="0.2" stroke-dasharray="null" stroke-linejoin="null" stroke-linecap="null" opacity="0.8" d="m348.02533,138.94672l0.17526,0.36934l0,-0.18467l0.07025,0l0,0.29533l0.14013,0l0,0.14808l-0.08761,0l0.17524,0.36935l0.17526,-0.36935l-0.08763,0l0,-0.14808l0.14013,0l0,-0.29533l0.07027,0l0,0.18467l0.17524,-0.36934l-0.17524,-0.36935l0,0.18467l-0.07027,0l0,-0.29532l-0.14013,0l0,-0.14808l0.08763,0l-0.17526,-0.36935l-0.17524,0.36935l0.08761,0l0,0.14808l-0.14013,0l0,0.29532l-0.07025,0l0,-0.18467l-0.17526,0.36935z" id="svg_208"/>
  <path stroke="#f9f2f2" fill="#ffffff" stroke-width="0.2" stroke-dasharray="null" stroke-linejoin="null" stroke-linecap="null" opacity="0.8" d="m346.02142,120.91156l0.48772,0.36934l0,-0.18467l0.19549,0l0,0.29533l0.38995,0l0,0.14808l-0.24381,0l0.48766,0.36935l0.48772,-0.36935l-0.24386,0l0,-0.14808l0.38995,0l0,-0.29533l0.19554,0l0,0.18467l0.48767,-0.36934l-0.48767,-0.36935l0,0.18467l-0.19554,0l0,-0.29531l-0.38995,0l0,-0.14808l0.24386,0l-0.48772,-0.36935l-0.48766,0.36935l0.24381,0l0,0.14808l-0.38995,0l0,0.29531l-0.19549,0l0,-0.18467l-0.48772,0.36935z" id="svg_209"/>
  <path id="svg_141" fill="#ffffff" stroke-width="0.2" stroke-dasharray="null" stroke-linejoin="null" stroke-linecap="null" opacity="0.8" d="m355.1629,123.56805l0.09732,-0.33364l0,0.16682l0.03901,0l0,-0.26678l0.07781,0l0,-0.13377l-0.04865,0l0.09731,-0.33365l0.09732,0.33365l-0.04866,0l0,0.13377l0.07781,0l0,0.26678l0.03902,0l0,-0.16682l0.09731,0.33364l-0.09731,0.33365l0,-0.16682l-0.03902,0l0,0.26677l-0.07781,0l0,0.13377l0.04866,0l-0.09732,0.33365l-0.09731,-0.33365l0.04865,0l0,-0.13377l-0.07781,0l0,-0.26677l-0.03901,0l0,0.16682l-0.09732,-0.33365z" stroke="#f9f2f2"/>
  <path id="svg_142" fill="#ffffff" stroke-width="0.2" stroke-dasharray="null" stroke-linejoin="null" stroke-linecap="null" opacity="0.8" d="m330.12231,149.05359l0.09732,-0.33364l0,0.16682l0.03901,0l0,-0.26679l0.07781,0l0,-0.13376l-0.04865,0l0.09731,-0.33366l0.09732,0.33366l-0.04866,0l0,0.13376l0.07781,0l0,0.26679l0.03902,0l0,-0.16682l0.09731,0.33364l-0.09731,0.33364l0,-0.16682l-0.03902,0l0,0.26677l-0.07781,0l0,0.13377l0.04866,0l-0.09732,0.33366l-0.09731,-0.33366l0.04865,0l0,-0.13377l-0.07781,0l0,-0.26677l-0.03901,0l0,0.16682l-0.09732,-0.33364z" stroke="#f9f2f2"/>
  <path id="svg_212" fill="#ffffff" stroke-width="0.2" stroke-dasharray="null" stroke-linejoin="null" stroke-linecap="null" opacity="0.8" d="m332.97985,137.36139l0.09732,-0.33364l0,0.16682l0.03901,0l0,-0.26679l0.07781,0l0,-0.13376l-0.04865,0l0.09731,-0.33366l0.09732,0.33366l-0.04866,0l0,0.13376l0.07781,0l0,0.26679l0.03902,0l0,-0.16682l0.09731,0.33364l-0.09731,0.33364l0,-0.16682l-0.03902,0l0,0.26677l-0.07781,0l0,0.13377l0.04866,0l-0.09732,0.33366l-0.09731,-0.33366l0.04865,0l0,-0.13377l-0.07781,0l0,-0.26677l-0.03901,0l0,0.16682l-0.09732,-0.33364z" stroke="#f9f2f2"/>
  <path id="svg_213" fill="#ffffff" stroke-width="0.2" stroke-dasharray="null" stroke-linejoin="null" stroke-linecap="null" opacity="0.8" d="m341.24102,123.88445l0.09733,-0.33364l0,0.16682l0.039,0l0,-0.26678l0.07781,0l0,-0.13376l-0.04864,0l0.09731,-0.33366l0.09731,0.33366l-0.04866,0l0,0.13376l0.07781,0l0,0.26678l0.03902,0l0,-0.16682l0.09731,0.33364l-0.09731,0.33364l0,-0.16682l-0.03902,0l0,0.26678l-0.07781,0l0,0.13377l0.04866,0l-0.09731,0.33366l-0.09731,-0.33366l0.04864,0l0,-0.13377l-0.07781,0l0,-0.26678l-0.039,0l0,0.16682l-0.09733,-0.33364z" stroke="#f9f2f2"/>
  <path id="svg_214" fill="#ffffff" stroke-width="0.2" stroke-dasharray="null" stroke-linejoin="null" stroke-linecap="null" opacity="0.8" d="m320.04179,129.57977l0.09733,-0.33364l0,0.16682l0.039,0l0,-0.26679l0.07781,0l0,-0.13375l-0.04863,0l0.0973,-0.33367l0.09731,0.33367l-0.04865,0l0,0.13375l0.07781,0l0,0.26679l0.03902,0l0,-0.16682l0.0973,0.33364l-0.0973,0.33364l0,-0.16682l-0.03902,0l0,0.26677l-0.07781,0l0,0.13377l0.04865,0l-0.09731,0.33367l-0.0973,-0.33367l0.04863,0l0,-0.13377l-0.07781,0l0,-0.26677l-0.039,0l0,0.16682l-0.09733,-0.33364z" stroke="#f9f2f2"/>
  <path id="svg_215" fill="#ffffff" stroke-width="0.2" stroke-dasharray="null" stroke-linejoin="null" stroke-linecap="null" opacity="0.8" d="m317.71325,150.03742l0.09732,-0.33364l0,0.16682l0.03901,0l0,-0.26679l0.07781,0l0,-0.13376l-0.04865,0l0.09731,-0.33366l0.09732,0.33366l-0.04866,0l0,0.13376l0.07781,0l0,0.26679l0.03902,0l0,-0.16682l0.09731,0.33364l-0.09731,0.33364l0,-0.16682l-0.03902,0l0,0.26677l-0.07781,0l0,0.13377l0.04866,0l-0.09732,0.33366l-0.09731,-0.33366l0.04865,0l0,-0.13377l-0.07781,0l0,-0.26677l-0.03901,0l0,0.16682l-0.09732,-0.33364z" stroke="#f9f2f2"/>
  <path stroke="#ef7373" id="svg_108" d="m273.53813,236.08955c7.5982,-30.17065 37.36818,0 0,38.79084c-37.36818,-38.79084 -7.5982,-68.96149 0,-38.79084z" stroke-linecap="null" stroke-linejoin="null" stroke-dasharray="null" stroke-width="0" fill="#fcc694"/>
  <rect stroke="#ef7373" id="svg_203" height="58.21875" width="17.29688" y="222.90624" x="256.17184" stroke-linecap="null" stroke-linejoin="null" stroke-dasharray="null" stroke-width="0" fill="#ffd4aa"/>
  <path stroke="#ef7373" id="svg_205" d="m271.92808,238.0753c6.87053,-24.68868 33.78943,0 0,31.74259c-33.78942,-31.74259 -6.87052,-56.43126 0,-31.74259z" stroke-linecap="null" stroke-linejoin="null" stroke-dasharray="null" stroke-width="0" fill="#ffd4aa"/>
  <path stroke="#ef7373" fill="#000000" stroke-width="0" stroke-dasharray="null" stroke-linejoin="null" stroke-linecap="null" opacity="0.03" d="m265.91717,213.60644c0,0 -7.54262,-1.19675 -1.00568,-3.88944c6.53694,-2.69269 6.53694,-4.787 6.48108,-4.8424c-0.05585,-0.0554 8.35273,-2.3381 3.82716,6.18875c-4.52557,8.52684 -6.78835,15.85694 -8.04546,11.36912c-1.2571,-4.48781 -1.2571,-8.82603 -1.2571,-8.82603l0,0z" id="svg_9"/>
  <path stroke="#ef7373" id="svg_219" d="m272.79573,239.30679c5.57721,-22.79646 27.42886,0 0,29.30974c-27.42885,-29.30974 -5.57719,-52.1062 0,-29.30974z" stroke-linecap="null" stroke-linejoin="null" stroke-dasharray="null" stroke-width="0" fill="#f9c18b"/>
  <ellipse id="svg_223" stroke="#d4aaff" ry="5.68326" rx="5.65313" cy="264.85452" cx="276.13384" stroke-linecap="null" stroke-linejoin="null" stroke-dasharray="null" stroke-width="0" fill="#fcc694"/>
  <path id="svg_220" stroke="#ef7373" d="m269.35852,240.34453c6.87053,-24.68867 33.78943,0 0,31.74259c-33.78942,-31.74259 -6.87051,-56.43126 0,-31.74259z" stroke-linecap="null" stroke-linejoin="null" stroke-dasharray="null" stroke-width="0" fill="#ffd4aa"/>
  <rect transform="rotate(5.131202697753906 264.0193786621099,254.8855285644528) " stroke="#ef7373" id="svg_221" height="55.41559" width="17.29688" y="227.17772" x="255.37094" stroke-linecap="null" stroke-linejoin="null" stroke-dasharray="null" stroke-width="0" fill="#ffd4aa"/>
  <ellipse stroke="#d4aaff" ry="6.08371" rx="5.51965" id="svg_222" cy="263.04414" cx="275.29956" stroke-linecap="null" stroke-linejoin="null" stroke-dasharray="null" stroke-width="0" fill="#ffd4aa"/>
  <path stroke="#281616" transform="rotate(-3.1652960777282715 278.47924804687636,247.3932189941405) " id="svg_224" fill="#000000" stroke-width="0" stroke-dasharray="null" stroke-linejoin="null" stroke-linecap="null" opacity="0.09" d="m276.31082,246.9462c0,0 -4.69356,-0.93974 -0.62581,-3.05414c4.06775,-2.11441 4.06775,-3.75894 4.03299,-3.80245c-0.03475,-0.0435 5.19767,-1.83597 2.38153,4.85965c-2.81613,6.69562 -4.2242,12.4515 -5.00646,8.92749c-0.78226,-3.52401 -0.78226,-6.93055 -0.78226,-6.93055l0,0z"/>
  <path stroke="#f9f2f2" id="svg_226" fill="#ffffff" stroke-width="0.2" stroke-dasharray="null" stroke-linejoin="null" stroke-linecap="null" opacity="0.7" d="m291.28314,128.29438l0.31196,0.56461l0,-0.2823l0.12504,0l0,0.45147l0.24942,0l0,0.22637l-0.15595,0l0.31192,0.56463l0.31196,-0.56463l-0.15598,0l0,-0.22637l0.24942,0l0,-0.45147l0.12507,0l0,0.2823l0.31193,-0.56461l-0.31193,-0.56462l0,0.28231l-0.12507,0l0,-0.45145l-0.24942,0l0,-0.22637l0.15598,0l-0.31196,-0.56462l-0.31192,0.56462l0.15595,0l0,0.22637l-0.24942,0l0,0.45145l-0.12504,0l0,-0.28231l-0.31196,0.56462z"/>
  <path stroke="#f9f2f2" id="svg_227" fill="#ffffff" stroke-width="0.2" stroke-dasharray="null" stroke-linejoin="null" stroke-linecap="null" opacity="0.4" d="m180.33006,167.10688l0.17543,0.36934l0,-0.18467l0.07032,0l0,0.29533l0.14026,0l0,0.14808l-0.08769,0l0.17541,0.36935l0.17543,-0.36935l-0.08771,0l0,-0.14808l0.14026,0l0,-0.29533l0.07034,0l0,0.18467l0.17541,-0.36934l-0.17541,-0.36935l0,0.18467l-0.07034,0l0,-0.29532l-0.14026,0l0,-0.14808l0.08771,0l-0.17543,-0.36935l-0.17541,0.36935l0.08769,0l0,0.14808l-0.14026,0l0,0.29532l-0.07032,0l0,-0.18467l-0.17543,0.36935z"/>
  <path id="svg_228" fill="#ffffff" stroke-width="0.2" stroke-dasharray="null" stroke-linejoin="null" stroke-linecap="null" opacity="0.8" d="m297.1419,185.38591l0.09732,-0.33364l0,0.16682l0.03901,0l0,-0.26678l0.07781,0l0,-0.13377l-0.04865,0l0.09731,-0.33365l0.09732,0.33365l-0.04866,0l0,0.13377l0.07781,0l0,0.26678l0.03902,0l0,-0.16682l0.09731,0.33364l-0.09731,0.33365l0,-0.16682l-0.03902,0l0,0.26677l-0.07781,0l0,0.13377l0.04866,0l-0.09732,0.33365l-0.09731,-0.33365l0.04865,0l0,-0.13377l-0.07781,0l0,-0.26677l-0.03901,0l0,0.16682l-0.09732,-0.33365z" stroke="#f9f2f2"/>
  <path stroke="#f9f2f2" id="svg_229" fill="#ffffff" stroke-width="0.2" stroke-dasharray="null" stroke-linejoin="null" stroke-linecap="null" opacity="0.8" d="m243.8098,138.43473l0.14288,-0.34015l0,0.17008l0.05727,0l0,-0.27199l0.11423,0l0,-0.13638l-0.07142,0l0.14286,-0.34016l0.14288,0.34016l-0.07144,0l0,0.13638l0.11423,0l0,0.27199l0.05729,0l0,-0.17008l0.14286,0.34015l-0.14286,0.34016l0,-0.17008l-0.05729,0l0,0.27198l-0.11423,0l0,0.13638l0.07144,0l-0.14288,0.34016l-0.14286,-0.34016l0.07142,0l0,-0.13638l-0.11423,0l0,-0.27198l-0.05727,0l0,0.17008l-0.14288,-0.34016z"/>
  <path stroke="#f9f2f2" id="svg_230" fill="#00ffff" stroke-width="0.2" stroke-dasharray="null" stroke-linejoin="null" stroke-linecap="null" opacity="0.8" d="m188.40356,122.87809l0.26168,-0.53867l0,0.26934l0.10489,0l0,-0.43073l0.20922,0l0,-0.21597l-0.13081,0l0.26165,-0.53869l0.26168,0.53869l-0.13084,0l0,0.21597l0.20922,0l0,0.43073l0.10492,0l0,-0.26934l0.26165,0.53867l-0.26165,0.53869l0,-0.26934l-0.10492,0l0,0.43071l-0.20922,0l0,0.21598l0.13084,0l-0.26168,0.53869l-0.26165,-0.53869l0.13081,0l0,-0.21598l-0.20922,0l0,-0.43071l-0.10489,0l0,0.26934l-0.26168,-0.53869z"/>
  <path stroke="#f9f2f2" id="svg_231" fill="#ffffff" stroke-width="0.2" stroke-dasharray="null" stroke-linejoin="null" stroke-linecap="null" opacity="0.5" d="m266.45044,327.7819l0.27306,-0.34178l0,0.17089l0.10945,0l0,-0.27329l0.21832,0l0,-0.13703l-0.1365,0l0.27304,-0.34179l0.27306,0.34179l-0.13653,0l0,0.13703l0.21832,0l0,0.27329l0.10948,0l0,-0.17089l0.27304,0.34178l-0.27304,0.34179l0,-0.17089l-0.10948,0l0,0.27328l-0.21832,0l0,0.13704l0.13653,0l-0.27306,0.34179l-0.27304,-0.34179l0.1365,0l0,-0.13704l-0.21832,0l0,-0.27328l-0.10945,0l0,0.17089l-0.27306,-0.34179z"/>
  <path stroke="#f9f2f2" id="svg_232" fill="#d38383" stroke-width="0.2" stroke-dasharray="null" stroke-linejoin="null" stroke-linecap="null" opacity="0.8" d="m186.15355,327.32927l0.57414,-0.56147l0,0.28074l0.23013,0l0,-0.44896l0.45904,0l0,-0.22511l-0.287,0l0.57407,-0.56148l0.57413,0.56148l-0.28706,0l0,0.22511l0.45903,0l0,0.44896l0.2302,0l0,-0.28074l0.57407,0.56147l-0.57407,0.56148l0,-0.28074l-0.2302,0l0,0.44893l-0.45903,0l0,0.22511l0.28706,0l-0.57413,0.56148l-0.57407,-0.56148l0.287,0l0,-0.22511l-0.45904,0l0,-0.44893l-0.23013,0l0,0.28074l-0.57414,-0.56148z"/>
  <path stroke="#f9f2f2" id="svg_233" fill="#ffffff" stroke-width="0.2" stroke-dasharray="null" stroke-linejoin="null" stroke-linecap="null" opacity="0.8" d="m190.77145,192.02387l0.30726,0.36934l0,-0.18467l0.12314,0l0,0.29533l0.24568,0l0,0.14808l-0.1536,0l0.30722,0.36935l0.30724,-0.36935l-0.15362,0l0,-0.14808l0.24566,0l0,-0.29533l0.1232,0l0,0.18467l0.30722,-0.36934l-0.30722,-0.36935l0,0.18467l-0.1232,0l0,-0.29532l-0.24566,0l0,-0.14808l0.15362,0l-0.30724,-0.36935l-0.30722,0.36935l0.1536,0l0,0.14808l-0.24568,0l0,0.29532l-0.12314,0l0,-0.18467l-0.30726,0.36935z"/>
  <path transform="rotate(32.78056716918945 199.2954559326173,259.78881835937494) " id="svg_234" d="m203.97142,262.99591c0,0 2.93665,-4.53845 -1.73529,-4.40497c-4.67194,0.13348 -8.54297,2.00226 -8.55101,1.9696c-0.00805,-0.03265 4.67998,-3.17096 4.67194,-3.20361c-0.00805,-0.03265 6.54876,-2.37006 6.54876,1.23401c0,3.60406 -0.93439,4.40497 -0.93439,4.40497z" opacity="0.08" stroke-linecap="null" stroke-linejoin="null" stroke-dasharray="null" stroke-width="0" stroke="#ef7373" fill="#000000"/>
  <path stroke="#f9f2f2" id="svg_235" fill="#ff00ff" stroke-width="0.2" stroke-dasharray="null" stroke-linejoin="null" stroke-linecap="null" opacity="0.8" d="m299.88401,287.2951l0.33654,-0.80235l0,0.40118l0.1349,0l0,-0.64157l0.26907,0l0,-0.3217l-0.16823,0l0.3365,-0.80238l0.33654,0.80238l-0.16827,0l0,0.3217l0.26907,0l0,0.64157l0.13493,0l0,-0.40118l0.3365,0.80235l-0.3365,0.80238l0,-0.40118l-0.13493,0l0,0.64154l-0.26907,0l0,0.3217l0.16827,0l-0.33654,0.80238l-0.3365,-0.80238l0.16823,0l0,-0.3217l-0.26907,0l0,-0.64154l-0.1349,0l0,0.40118l-0.33654,-0.80238z"/>
  <ellipse stroke="#0000bf" transform="rotate(11.544503211975098 265.8190917968747,124.26430511474618) " ry="1.3202" rx="1.25635" id="svg_236" cy="124.2643" cx="265.81909" opacity="0.4" stroke-linecap="null" stroke-linejoin="null" stroke-dasharray="null" stroke-width="0.2" fill="#007fff"/>
  <rect stroke="#d4aaff" transform="rotate(-5.440204620361328 212.16404724120846,287.9440917968746) " id="svg_241" height="0.9761" width="4.0731" y="287.45604" x="210.12749" stroke-linecap="null" stroke-linejoin="null" stroke-dasharray="null" stroke-width="0" fill="#ffffff"/>
  <rect stroke="#000000" id="svg_243" height="2.37305" width="15.12817" y="354.72897" x="393.51852" stroke-linecap="null" stroke-linejoin="null" stroke-dasharray="null" stroke-width="0" fill="#ffffff"/>
 </g>
</svg>
