<svg width="480.00000000000017" height="620" xmlns="http://www.w3.org/2000/svg" xmlns:svg="http://www.w3.org/2000/svg">
 <!-- Created with SVG-edit - http://svg-edit.googlecode.com/ -->
 <g stroke="null">
  <title>Layer 1</title>
  <rect stroke="#d4aaff" fill="#bf37bf" stroke-width="2" stroke-dasharray="null" stroke-linejoin="null" stroke-linecap="null" x="114.19929" y="109.17369" width="298.68751" height="242.40509" id="svg_6"/>
  <rect stroke="#fbafff" transform="rotate(89.0655517578125 309.1380310058594,126.20221710205078) " id="svg_180" fill="#f484f4" stroke-width="0.5" stroke-dasharray="null" stroke-linejoin="null" stroke-linecap="null" x="300.74363" y="122.00604" width="16.78878" height="8.39233"/>
  <rect stroke="#000000" fill="#af7fe2" stroke-width="0" stroke-dasharray="null" stroke-linejoin="null" stroke-linecap="null" x="264.37534" y="-32.27036" width="0.18756" height="298.9896" transform="rotate(90.13925170898438 264.4691162109375,117.22444152832031) " id="svg_51"/>
  <rect stroke="#000000" id="svg_183" fill="#ed34ed" stroke-width="0" stroke-dasharray="null" stroke-linejoin="null" stroke-linecap="null" x="166.5" y="109.46669" width="7.5" height="252.0833"/>
  <rect stroke="#fbafff" id="svg_181" transform="rotate(89.0655517578125 365.7958068847656,132.48353576660156) " fill="#f484f4" stroke-width="0.5" stroke-dasharray="null" stroke-linejoin="null" stroke-linecap="null" x="350.642" y="131.65847" width="30.30762" height="1.6501"/>
  <rect stroke="#000000" opacity="0.6" id="svg_74" height="18.66667" width="280.04166" y="98.66667" x="124.4323" stroke-linecap="null" stroke-linejoin="null" stroke-dasharray="null" stroke-width="0" fill="#ff007f"/>
  <rect stroke="#000000" opacity="0.9" id="svg_144" fill="#f7a8ce" stroke-width="0" stroke-dasharray="null" stroke-linejoin="null" stroke-linecap="null" x="386.4668" y="117.74906" width="2.84183" height="246.60955"/>
  <ellipse stroke="#000000" id="svg_13" opacity="0.9" ry="78.15338" rx="42.34299" cy="240.5854" cx="254.34643" stroke-width="0" fill="#ff00ff"/>
  <rect stroke="#fbafff" fill="#f484f4" stroke-width="0.5" stroke-dasharray="null" stroke-linejoin="null" stroke-linecap="null" x="304.99998" y="148.13334" width="62.41668" height="215.49999" id="svg_48"/>
  <rect stroke="#000000" id="svg_206" opacity="0.6" height="12.10417" width="293.54167" y="351.79167" x="114.11979" stroke-linecap="null" stroke-linejoin="null" stroke-dasharray="null" stroke-width="0" fill="#f779b6"/>
  <rect stroke="#000000" id="svg_57" fill="#ed34ed" stroke-width="0" stroke-dasharray="null" stroke-linejoin="null" stroke-linecap="null" x="332.33335" y="148.71669" width="1" height="214.5833"/>
  <rect stroke="#000000" opacity="0.1" id="svg_16" fill="#7f007f" stroke-width="0" stroke-dasharray="null" stroke-linejoin="null" stroke-linecap="null" x="371.25" y="145.30001" width="2.5" height="217.24998"/>
  <rect stroke="#000000" fill="#a466f4" stroke-width="0" stroke-dasharray="null" stroke-linejoin="null" stroke-linecap="null" x="369.33333" y="117.82084" width="18" height="246.89581" id="svg_44"/>
  <ellipse stroke="#000000" ry="26.42969" rx="27.03386" id="svg_60" cy="125.54112" cx="147.69427" opacity="0.8" stroke-linecap="null" stroke-linejoin="null" stroke-dasharray="null" stroke-width="0" fill="#dcc8f7"/>
  <rect stroke="#000000" fill="#f76cf7" stroke-width="0" stroke-dasharray="null" stroke-linejoin="null" stroke-linecap="null" x="129.41667" y="145.80001" width="16.83336" height="217.24999" id="svg_49"/>
  <ellipse stroke="#000000" id="svg_61" ry="24.89323" rx="26.1875" cy="125.20218" cx="147.68511" stroke-linecap="null" stroke-linejoin="null" stroke-dasharray="null" stroke-width="0" fill="#a466f4"/>
  <rect stroke="#000000" fill="#cc47cc" stroke-width="0" stroke-dasharray="null" stroke-linejoin="null" stroke-linecap="null" x="311.25" y="155.96669" width="16.5" height="204.8333" id="svg_73"/>
  <rect id="svg_107" stroke="#000000" opacity="0.6" height="16.60417" width="300.29166" y="337.54167" x="114.6823" stroke-linecap="null" stroke-linejoin="null" stroke-dasharray="null" stroke-width="0" fill="#e0418e"/>
  <rect stroke="#000000" fill="#ed34ed" stroke-width="0" stroke-dasharray="null" stroke-linejoin="null" stroke-linecap="null" x="312" y="156.71669" width="15" height="207.0833" id="svg_43"/>
  <rect stroke="#000000" fill="#ff00ff" stroke-width="0" stroke-dasharray="null" stroke-linejoin="null" stroke-linecap="null" x="338.25" y="155.79998" width="25.75" height="209.00001" id="svg_42"/>
  <ellipse stroke="#000000" opacity="0.9" id="svg_126" ry="89.77838" rx="47.00348" cy="239.4334" cx="245.97143" stroke-width="0" fill="#ffaaaa"/>
  <rect stroke="#000000" fill="#f7a8ce" stroke-width="0" stroke-dasharray="null" stroke-linejoin="null" stroke-linecap="null" x="132.34568" y="145.31545" width="32.65433" height="218.48454" id="svg_46"/>
  <ellipse stroke="#000000" ry="89.77838" rx="45.22571" id="svg_1" cy="239.05602" cx="241.47271" stroke-width="0" fill="#ffd4aa"/>
  <rect stroke="#000000" id="svg_14" height="17" width="21.42661" y="283.65258" x="203.68226" stroke-linecap="null" stroke-linejoin="null" stroke-dasharray="null" stroke-width="0" fill="#ffffff"/>
  <path stroke="#000000" id="svg_8" d="m225.01643,275.49294c0,0 3.79687,5.0625 6.32812,4.42969c2.53125,-0.63281 7.27735,0 7.22576,-0.2195c-0.05158,-0.21951 5.43049,-4.21019 5.37891,-4.42969" opacity="0.5" stroke-linecap="null" stroke-linejoin="null" stroke-dasharray="null" stroke-width="0" fill="#ffd4aa"/>
  <path stroke="#000000" fill="#ffd4aa" stroke-width="0" stroke-dasharray="null" stroke-linejoin="null" stroke-linecap="null" d="m198.41938,259.30004c0,0 3.55981,13.54389 1.7799,16.73069c-1.7799,3.1868 -1.7799,7.967 -2.19524,7.18794c-0.41533,-0.77906 11.09475,1.57576 10.67942,0.7967" id="svg_4"/>
  <path stroke="#000000" fill="#ffd4aa" stroke-width="0" stroke-dasharray="null" stroke-linejoin="null" stroke-linecap="null" d="m200.44963,292.97584c0,0 5.01916,13.5439 2.50958,16.73069c-2.50958,3.1868 -2.50958,7.967 -3.09519,7.18794c-0.5856,-0.77906 15.6431,1.57576 15.0575,0.7967" id="svg_5" transform="rotate(174.20925903320312 207.39276123046875,305.4136657714843) "/>
  <ellipse stroke="#000000" id="svg_22" fill="#7f00ff" stroke-width="0" stroke-dasharray="null" stroke-linejoin="null" stroke-linecap="null" cx="226.98125" cy="312.96875" rx="26.46875" ry="19.59375"/>
  <ellipse stroke="#000000" fill="#ffd4aa" stroke-width="0" stroke-dasharray="null" stroke-linejoin="null" stroke-linecap="null" cx="231.2" cy="311" id="svg_10" rx="29" ry="21"/>
  <ellipse stroke="#000000" id="svg_7" ry="22.12499" rx="44.53126" cy="210.13594" cx="241.10704" stroke-width="0" fill="#ffd4aa"/>
  <ellipse stroke="#000000" fill="#7f007f" stroke-width="0" stroke-dasharray="null" stroke-linejoin="null" stroke-linecap="null" cx="224.7" cy="226.5" id="svg_11" rx="12.50001" ry="9.5" opacity="0.1"/>
  <path stroke="#000000" id="svg_134" fill="#964040" stroke-width="0" stroke-dasharray="null" stroke-linejoin="null" stroke-linecap="null" d="m223.71496,221.16315l13.23748,7.88746l-14.0625,5.625c0,0 -10.98748,-7.88746 -6.48748,-10.69996c4.5,-2.8125 7.3125,-2.8125 7.3125,-2.8125z"/>
  <path stroke="#000000" fill="#ffffff" stroke-width="0" stroke-dasharray="null" stroke-linejoin="null" stroke-linecap="null" d="m222.76252,220.92504l13.23748,7.88746l-14.0625,5.625c0,0 -10.98748,-7.88746 -6.48748,-10.69996c4.5,-2.8125 7.3125,-2.8125 7.3125,-2.8125z" id="svg_3"/>
  <path stroke="#000000" id="svg_79" fill="#0000ff" stroke-width="0" stroke-dasharray="null" stroke-linejoin="null" stroke-linecap="null" d="m205.03308,212.15826l24.8,-2.57143l14,9l11,9l-49.8,-15.42857z"/>
  <path stroke="#000000" fill="#7f00ff" stroke-width="0" stroke-dasharray="null" stroke-linejoin="null" stroke-linecap="null" d="m201.95254,210.81889l24.8,-2.57143l14,9l11,9l-49.8,-15.42857z" id="svg_12"/>
  <ellipse stroke="#000000" ry="2" id="svg_23" cy="225.8" cx="222.2" stroke-linecap="null" stroke-linejoin="null" stroke-dasharray="null" stroke-width="0" fill="#000000"/>
  <ellipse stroke="#000000" ry="2.37305" rx="10.08545" id="svg_24" cy="282.46976" cx="215.5163" stroke-linecap="null" stroke-linejoin="null" stroke-dasharray="null" stroke-width="0" fill="#ffd4aa"/>
  <ellipse stroke="#000000" transform="rotate(-12.225204467773438 215.7536010742187,295.0469055175781) " id="svg_25" ry="2.37305" rx="10.08545" cy="295.04691" cx="215.7536" stroke-linecap="null" stroke-linejoin="null" stroke-dasharray="null" stroke-width="0" fill="#ffd4aa"/>
  <ellipse stroke="#000000" id="svg_26" transform="rotate(-8.13706111907959 206.82388305664028,281.1813659667969) " ry="2.9244" rx="9.03526" cy="281.18138" cx="206.82388" stroke-linecap="null" stroke-linejoin="null" stroke-dasharray="null" stroke-width="0" fill="#ffd4aa"/>
  <ellipse stroke="#000000" id="svg_27" transform="rotate(4.891592025756836 207.2984924316407,295.65698242187494) " ry="2.9244" rx="9.03526" cy="295.65697" cx="207.29849" stroke-linecap="null" stroke-linejoin="null" stroke-dasharray="null" stroke-width="0" fill="#ffd4aa"/>
  <path stroke="#000000" fill="#ffd4aa" stroke-width="0" stroke-dasharray="null" stroke-linejoin="null" stroke-linecap="null" d="m177.12182,259.64451c0,0 -0.7864,4.11328 10.61635,5.0625c11.40274,0.94922 23.98508,3.79688 20.44629,-1.58203c-3.53878,-5.37891 -6.29117,-9.80859 -7.47076,-20.88281c-1.17959,-11.07422 -3.93198,-17.08594 -4.15337,-17.24216c-0.22139,-0.15622 -19.43851,34.6445 -19.43851,34.6445z" id="svg_2"/>
  <ellipse stroke="#000000" opacity="0.9" id="svg_127" ry="10.00603" rx="30.91712" cy="322.28811" cx="259.82777" stroke-linecap="null" stroke-linejoin="null" stroke-dasharray="null" stroke-width="0" fill="#ffaaaa"/>
  <ellipse stroke="#000000" id="svg_59" ry="8.8632" rx="30.64924" cy="325.03819" cx="261.34571" stroke-linecap="null" stroke-linejoin="null" stroke-dasharray="null" stroke-width="0" fill="#bf37bf"/>
  <ellipse stroke="#000000" id="svg_64" ry="3.80975" rx="8.67776" cy="281.30246" cx="216.04157" stroke-linecap="null" stroke-linejoin="null" stroke-dasharray="null" stroke-width="0" fill="#ffd4aa"/>
  <polygon stroke="null" fill="#7f007f" id="svg_70"/>
  <polygon stroke="null" fill="#7f007f" id="svg_71"/>
  <rect stroke="#ff007f" id="svg_91" height="11.28815" width="32.17123" y="268.49041" x="196.38607" stroke-linecap="null" stroke-linejoin="null" stroke-dasharray="null" stroke-width="0.1" fill="#7f00ff"/>
  <path stroke="#000000" transform="rotate(-98.0065689086914 214.3592987060547,265.6795349121094) " id="svg_92" d="m199.05763,281.08793l15.30167,-30.81679l15.30167,30.81679l-30.60334,0z" stroke-linecap="null" stroke-linejoin="null" stroke-dasharray="null" stroke-width="0" fill="#ffd4aa"/>
  <ellipse stroke="#000000" opacity="0.1" ry="3.95085" rx="4.51526" id="svg_94" cy="228.56739" cx="228.50438" stroke-linecap="null" stroke-linejoin="null" stroke-dasharray="null" stroke-width="0" fill="#ff007f"/>
  <ellipse stroke="#000000" ry="8.46611" rx="9.03052" id="svg_95" cy="271.07433" cx="229.86249" stroke-linecap="null" stroke-linejoin="null" stroke-dasharray="null" stroke-width="0.1" fill="#7f00ff"/>
  <ellipse stroke="#000000" id="svg_96" ry="7.15651" rx="8.5543" cy="270.71717" cx="228.19572" stroke-linecap="null" stroke-linejoin="null" stroke-dasharray="null" stroke-width="0" fill="#ffd4aa"/>
  <ellipse stroke="#000000" id="svg_97" ry="7.15651" rx="5.57793" cy="270.00284" cx="227.83856" stroke-linecap="null" stroke-linejoin="null" stroke-dasharray="null" stroke-width="0" fill="#7f00ff"/>
  <ellipse stroke="#000000" id="svg_98" ry="7.03746" rx="6.29226" cy="270.59811" cx="229.74343" stroke-linecap="null" stroke-linejoin="null" stroke-dasharray="null" stroke-width="0" fill="#ffd4aa"/>
  <ellipse stroke="#000000" id="svg_99" ry="7.15651" rx="7.36376" cy="270.47906" cx="230.1006" stroke-linecap="null" stroke-linejoin="null" stroke-dasharray="null" stroke-width="0" fill="#ffd4aa"/>
  <ellipse stroke="#000000" id="svg_100" ry="6.56124" rx="7.2447" cy="271.07434" cx="229.98155" stroke-linecap="null" stroke-linejoin="null" stroke-dasharray="null" stroke-width="0.1" fill="#7f00ff"/>
  <ellipse stroke="#000000" id="svg_101" ry="4.89447" rx="5.81605" cy="270.59812" cx="229.50533" stroke-linecap="null" stroke-linejoin="null" stroke-dasharray="null" stroke-width="0" fill="#ffd4aa"/>
  <ellipse stroke="#000000" id="svg_102" ry="4.18014" rx="4.38739" cy="271.31244" cx="229.98154" stroke-linecap="null" stroke-linejoin="null" stroke-dasharray="null" stroke-width="0.1" fill="#7f00ff"/>
  <ellipse stroke="#000000" id="svg_103" ry="4.2992" rx="4.14928" cy="271.19339" cx="229.26721" stroke-linecap="null" stroke-linejoin="null" stroke-dasharray="null" stroke-width="0" fill="#ffd4aa"/>
  <ellipse stroke="#000000" id="svg_105" opacity="0.1" ry="2.5222" rx="2.84849" cy="228.09116" cx="229.21871" stroke-linecap="null" stroke-linejoin="null" stroke-dasharray="null" stroke-width="0" fill="#ff007f"/>
  <ellipse stroke="#000000" id="svg_106" opacity="0.5" ry="1.92692" rx="2.25322" cy="228.21022" cx="229.81398" stroke-linecap="null" stroke-linejoin="null" stroke-dasharray="null" fill="#ff007f"/>
  <ellipse stroke="#000000" ry="0.73665" rx="4.15203" id="svg_118" cy="278.94203" cx="228.22976" stroke-linecap="null" stroke-linejoin="null" stroke-dasharray="null" stroke-width="0" fill="#7f00ff"/>
  <ellipse stroke="#000000" ry="3.29289" rx="4.03218" id="svg_136" cy="167.88233" cx="252.2382" stroke-linecap="null" stroke-linejoin="null" stroke-dasharray="null" stroke-width="0" fill="#f7c18f"/>
  <ellipse stroke="#000000" id="svg_129" fill="#ff00ff" stroke-width="0" stroke-dasharray="null" stroke-linejoin="null" stroke-linecap="null" cx="227.90414" cy="149.62603" rx="32.56761" ry="22.78381"/>
  <ellipse stroke="#000000" id="svg_119" fill="#7f00ff" stroke-width="0" stroke-dasharray="null" stroke-linejoin="null" stroke-linecap="null" cx="232.98381" cy="148.67359" rx="32.56761" ry="22.78381"/>
  <ellipse stroke="#000000" id="svg_120" fill="#bf37bf" stroke-width="0" stroke-dasharray="null" stroke-linejoin="null" stroke-linecap="null" cx="248.14617" cy="138.86266" rx="35.24332" ry="12.97287"/>
  <ellipse stroke="#000000" id="svg_130" fill="#ff00ff" stroke-width="0" stroke-dasharray="null" stroke-linejoin="null" stroke-linecap="null" cx="272.49235" cy="169.83886" rx="12.24894" ry="16.85752"/>
  <ellipse stroke="#000000" id="svg_122" fill="#7f00ff" stroke-width="0" stroke-dasharray="null" stroke-linejoin="null" stroke-linecap="null" cx="271.92794" cy="168.71005" rx="12.24894" ry="16.85752"/>
  <path stroke="#000000" opacity="0.5" id="svg_131" transform="rotate(21.296310424804688 265.5184326171875,156.32545471191406) " d="m259.82338,177.40117l5.69505,-42.15143l5.69505,42.15143l-11.39009,0l-0.00001,0z" stroke-linecap="null" stroke-linejoin="null" stroke-dasharray="null" stroke-width="0" fill="#ff0000"/>
  <path stroke="#000000" transform="rotate(22.458948135375977 262.49542236328125,162.3626098632813) " id="svg_117" d="m254.44515,188.30033l8.05026,-51.87543l8.05026,51.87543l-16.10052,0z" stroke-linecap="null" stroke-linejoin="null" stroke-dasharray="null" stroke-width="0" fill="#ffd4aa"/>
  <path stroke="#000000" transform="rotate(15.478888511657715 266.75939941406267,157.75329589843741) " id="svg_132" d="m265.23588,177.51463l1.52353,-39.52268l1.52353,39.52268l-3.04707,0l0.00001,0z" stroke-linecap="null" stroke-linejoin="null" stroke-dasharray="null" stroke-width="0" fill="#e09de0"/>
  <ellipse stroke="#000000" transform="rotate(15.623745918273926 263.26879882812494,169.77357482910153) " ry="0.63496" rx="1.37206" id="svg_133" cy="169.77358" cx="263.26884" stroke-linecap="null" stroke-linejoin="null" stroke-dasharray="null" stroke-width="0" fill="#e09de0"/>
  <path stroke="#000000" id="svg_135" transform="rotate(30.75926971435547 260.70361328125006,157.36193847656247) " d="m259.67912,174.25452l1.0245,-33.78519l1.0245,33.78519l-2.04899,0l0,0l-0.00001,0z" stroke-linecap="null" stroke-linejoin="null" stroke-dasharray="null" stroke-width="0" fill="#f7c18f"/>
  <path stroke="#000000" fill="#ffaaaa" stroke-width="0" stroke-dasharray="null" stroke-linejoin="null" stroke-linecap="null" d="m270.67501,244.79067l8.39104,-36.35155l8.39104,36.35155l-16.78208,0z" id="svg_9" transform="rotate(13.26142406463623 279.0660400390628,226.61489868164045) "/>
  <ellipse stroke="#000000" fill="#ffaaaa" stroke-width="0" stroke-dasharray="null" stroke-linejoin="null" stroke-linecap="null" opacity="0.5" cx="281.31559" cy="262.64687" id="svg_15" ry="8.4375"/>
  <path stroke="#ef7373" fill="#ffd4aa" stroke-width="0" stroke-dasharray="null" stroke-linejoin="null" stroke-linecap="null" d="m265.4185,252.34285l6.02431,-38.76285l6.02431,38.76285l-12.04861,0l-0.00001,0z" id="svg_17" transform="rotate(9.013467788696289 271.44281005859403,232.96142578125014) "/>
  <path stroke="#ef7373" fill="#ffd4aa" stroke-width="0" stroke-dasharray="null" stroke-linejoin="null" stroke-linecap="null" d="m268.05521,258.62252l8.01885,-42.79376l8.01885,42.79376l-16.03771,0l0.00001,0z" transform="rotate(13.948941230773926 276.07406616210926,237.22564697265622) " id="svg_19"/>
  <rect stroke="#000000" fill="#bf37bf" stroke-width="0" stroke-dasharray="null" stroke-linejoin="null" stroke-linecap="null" x="270.97846" y="312.86302" width="20.39906" height="14.19153" id="svg_20" transform="rotate(47.324459075927734 281.17797851562494,319.9587707519531) "/>
  <path stroke="#000000" fill="#f9b1b1" stroke-width="0" stroke-dasharray="null" stroke-linejoin="null" stroke-linecap="null" d="m197.76648,206.20949l8.7144,0.77693l-9.25753,0.55408c0,0 -7.2332,-0.77693 -4.27079,-1.05396c2.96241,-0.27704 4.81391,-0.27704 4.81391,-0.27704l0.00001,-0.00001z" id="svg_21" transform="rotate(109.00371551513672 199.3604736328125,206.87498474121097) "/>
  <rect stroke="#000000" fill="#3f2c2c" stroke-width="0.05" stroke-dasharray="null" stroke-linejoin="null" stroke-linecap="null" x="211.09683" y="288.83048" width="5.61139" height="0.24725" id="svg_31" transform="rotate(-5.079995155334473 213.9025268554688,288.95410156249983) "/>
  <path stroke="#000000" fill="#ffffff" stroke-width="0.3" stroke-dasharray="null" stroke-linejoin="null" stroke-linecap="null" d="m216.34763,290.55878l1.5017,-2.62797l1.5017,2.62797l-3.00339,0l-0.00001,0z" id="svg_30" transform="rotate(179.16310119628906 217.84933471679688,289.2448120117188) "/>
  <path stroke="#000000" fill="#ffffff" stroke-width="0" stroke-dasharray="null" stroke-linejoin="null" stroke-linecap="null" d="m214.61237,288.36283l3.25357,-2.62797l3.25359,2.62797l-6.50716,0z" transform="rotate(-6.533205986022949 217.86595153808514,287.0488281249999) " id="svg_32"/>
  <rect stroke="#000000" fill="#d820d8" stroke-width="0" stroke-dasharray="null" stroke-linejoin="null" stroke-linecap="null" x="141" y="146.61172" width="23" height="217.18827" id="svg_38"/>
  <ellipse stroke="#000000" id="svg_55" ry="6.66661" rx="6" cy="343.1998" cx="349.99998" opacity="0.9" stroke-linecap="null" stroke-linejoin="null" stroke-dasharray="null" stroke-width="0" fill="#ffffff"/>
  <ellipse stroke="#000000" id="svg_90" ry="13.59375" rx="13.03125" cy="336.91873" cx="157.37396" opacity="0.8" stroke-linecap="null" stroke-linejoin="null" stroke-dasharray="null" stroke-width="0" fill="#ffffff"/>
  <ellipse stroke="#000000" id="svg_89" ry="11.90625" rx="12.49219" cy="337.39791" cx="155.36614" stroke-linecap="null" stroke-linejoin="null" stroke-dasharray="null" stroke-width="0" fill="#ff00ff"/>
  <rect stroke="#000000" id="svg_176" opacity="0.9" fill="#f74f9d" stroke-width="0" stroke-dasharray="null" stroke-linejoin="null" stroke-linecap="null" x="368.32617" y="119.01469" width="1.15433" height="246.60955"/>
  <rect stroke="#000000" fill="#e1ccf9" stroke-width="0" stroke-dasharray="null" stroke-linejoin="null" stroke-linecap="null" x="261.97522" y="202.88592" width="3.00007" height="298.9896" id="svg_39" transform="rotate(90.13925170898438 263.4752502441406,352.3807373046875) "/>
  <rect stroke="#000000" fill="#8116fc" stroke-width="0" stroke-dasharray="null" stroke-linejoin="null" stroke-linecap="null" x="262.97522" y="208.88592" width="3.00007" height="298.9896" transform="rotate(90.13925170898438 264.47525024414057,358.3807373046875) " id="svg_40"/>
  <rect stroke="#f9f2f2" id="svg_147" height="1.77979" width="61.50147" y="143.70578" x="336.92134" opacity="0.9" stroke-linecap="null" stroke-linejoin="null" stroke-dasharray="null" stroke-width="0" fill="#e006e0"/>
  <ellipse stroke="#000000" ry="20.55469" rx="19.99219" cy="144.33279" cx="318.31927" opacity="0.8" stroke-linecap="null" stroke-linejoin="null" stroke-dasharray="null" stroke-width="0" fill="#dcc8f7" id="svg_66"/>
  <ellipse stroke="#000000" ry="17.60156" rx="18.1875" cy="141.01509" cx="320.95208" stroke-linecap="null" stroke-linejoin="null" stroke-dasharray="null" stroke-width="0" fill="#bf37bf" id="svg_67"/>
  <ellipse stroke="#000000" ry="20.13802" rx="20.15886" cy="195.08279" cx="353.06927" opacity="0.8" stroke-linecap="null" stroke-linejoin="null" stroke-dasharray="null" stroke-width="0" fill="#dcc8f7" id="svg_63"/>
  <ellipse stroke="#000000" ry="17.26823" rx="18.4375" cy="194.18175" cx="353.03541" opacity="0.8" stroke-linecap="null" stroke-linejoin="null" stroke-dasharray="null" stroke-width="0" fill="#ff007f" id="svg_65"/>
  <rect stroke="#000000" fill="#f76cf7" stroke-width="0" stroke-dasharray="null" stroke-linejoin="null" stroke-linecap="null" x="398.33267" y="119.35667" width="1.00001" height="251.56246" id="svg_50"/>
  <ellipse stroke="#000000" ry="12.63802" rx="13.15886" cy="258.5828" cx="363.23594" opacity="0.8" stroke-linecap="null" stroke-linejoin="null" stroke-dasharray="null" stroke-width="0" fill="#dcc8f7" id="svg_37"/>
  <rect stroke="#000000" id="svg_18" opacity="0.1" fill="#7f007f" stroke-width="0" stroke-dasharray="null" stroke-linejoin="null" stroke-linecap="null" x="133.5" y="146.05001" width="2.5" height="217.24998"/>
  <ellipse stroke="#000000" ry="8.66667" rx="8.66667" cy="164.61667" cx="154.00001" opacity="0.4" stroke-linecap="null" stroke-linejoin="null" stroke-dasharray="null" stroke-width="0" fill="#ffffff" id="svg_68"/>
  <ellipse stroke="#000000" ry="8.66667" rx="8.66667" id="svg_28" cy="163.86667" cx="153.25001" opacity="0.4" stroke-linecap="null" stroke-linejoin="null" stroke-dasharray="null" stroke-width="0" fill="#ff007f"/>
  <ellipse stroke="#000000" ry="8.66667" rx="8.66667" cy="225.60104" cx="152.73439" opacity="0.4" stroke-linecap="null" stroke-linejoin="null" stroke-dasharray="null" stroke-width="0" fill="#ffffff" id="svg_69"/>
  <ellipse stroke="#000000" id="svg_35" ry="8.66667" rx="8.66667" cy="225.88229" cx="153.85939" opacity="0.4" stroke-linecap="null" stroke-linejoin="null" stroke-dasharray="null" stroke-width="0" fill="#ff007f"/>
  <ellipse stroke="#000000" id="svg_45" ry="6.66661" rx="6" cy="205.6373" cx="319.08332" opacity="0.4" stroke-linecap="null" stroke-linejoin="null" stroke-dasharray="null" stroke-width="0" fill="#ffffff"/>
  <ellipse stroke="#000000" id="svg_47" ry="6.66661" rx="6" cy="231.53313" cx="352.66665" opacity="0.9" stroke-linecap="null" stroke-linejoin="null" stroke-dasharray="null" stroke-width="0" fill="#ffffff"/>
  <ellipse stroke="#000000" id="svg_52" ry="6.66661" rx="6" cy="265.17897" cx="318.77082" opacity="0.4" stroke-linecap="null" stroke-linejoin="null" stroke-dasharray="null" stroke-width="0" fill="#ffffff"/>
  <ellipse stroke="#000000" id="svg_53" ry="6.66661" rx="6" cy="297.53313" cx="350.99998" opacity="0.4" stroke-linecap="null" stroke-linejoin="null" stroke-dasharray="null" stroke-width="0" fill="#ffffff"/>
  <ellipse stroke="#000000" id="svg_54" ry="6.66661" rx="6" cy="314.55396" cx="320.10415" opacity="0.6" stroke-linecap="null" stroke-linejoin="null" stroke-dasharray="null" stroke-width="0" fill="#ffffff"/>
  <rect stroke="#000000" id="svg_58" fill="#8116fc" stroke-width="0" stroke-dasharray="null" stroke-linejoin="null" stroke-linecap="null" x="264.09814" y="-52.16877" width="2.99904" height="299.41146" transform="rotate(90.13925170898438 265.59765625,97.53697204589844) "/>
  <ellipse stroke="#000000" ry="8.66667" rx="8.66667" cy="296.52292" cx="152.50001" opacity="0.4" stroke-linecap="null" stroke-linejoin="null" stroke-dasharray="null" stroke-width="0" fill="#ffffff" id="svg_72"/>
  <ellipse stroke="#000000" id="svg_34" ry="8.66667" rx="9.25" cy="297.17916" cx="153.67188" opacity="0.4" stroke-linecap="null" stroke-linejoin="null" stroke-dasharray="null" stroke-width="0" fill="#ff007f"/>
  <path stroke="#000000" transform="rotate(12.467166900634766 277.01242065429636,232.29241943359366) " id="svg_56" d="m275.5341,239.01107l1.47831,-13.43728l1.47831,13.43728l-2.95661,0l0,0l-0.00001,0z" stroke-linecap="null" stroke-linejoin="null" stroke-dasharray="null" stroke-width="0" fill="#ffaaaa"/>
  <ellipse stroke="#000000" ry="8.60156" rx="10.10417" cy="257.84842" cx="362.86875" opacity="0.8" stroke-linecap="null" stroke-linejoin="null" stroke-dasharray="null" stroke-width="0" fill="#8116fc" id="svg_62"/>
  <ellipse stroke="#000000" ry="17.63802" rx="14.99219" cy="302.99946" cx="343.31927" opacity="0.8" stroke-linecap="null" stroke-linejoin="null" stroke-dasharray="null" stroke-width="0" fill="#dcc8f7" id="svg_33"/>
  <ellipse stroke="#000000" ry="13.60156" rx="13.27083" cy="302.84842" cx="343.20208" opacity="0.8" stroke-linecap="null" stroke-linejoin="null" stroke-dasharray="null" stroke-width="0" fill="#ff007f" id="svg_36"/>
  <polygon stroke="#000000" transform="rotate(-10.907504081726074 129.08917236328142,133.87850952148435) " opacity="0.1" stroke-width="0" points="129.08917248249054,128.44455003738403 129.9560090303421,132.50807237625122 132.59561169147491,132.59571886062622 130.49174511432648,135.1947636604309 131.25627148151398,139.31245470046997 129.08917248249054,136.85522508621216 126.9220734834671,139.31245470046997 127.68660748004913,135.1947636604309 125.58273327350616,132.59571886062622 128.22233593463898,132.50807237625122 129.08917248249054,128.44455003738403 129.9560090303421,132.50807237625122 " fill="#bfbfbf" id="svg_75"/>
  <ellipse stroke="#000000" id="svg_80" ry="7.10411" rx="6.375" cy="315.49148" cx="320.54165" opacity="0.4" stroke-linecap="null" stroke-linejoin="null" stroke-dasharray="null" stroke-width="0" fill="#3f007f"/>
  <ellipse stroke="#000000" id="svg_41" ry="11.63802" rx="11.65886" cy="334.2703" cx="304.92344" opacity="0.8" stroke-linecap="null" stroke-linejoin="null" stroke-dasharray="null" stroke-width="0" fill="#dcc8f7"/>
  <ellipse stroke="#000000" id="svg_76" ry="7.10156" rx="7.60417" cy="333.91092" cx="303.99376" opacity="0.8" stroke-linecap="null" stroke-linejoin="null" stroke-dasharray="null" stroke-width="0" fill="#8116fc"/>
  <ellipse stroke="#000000" id="svg_77" ry="7.38536" rx="7.21875" cy="231.39772" cx="353.4479" opacity="0.4" stroke-linecap="null" stroke-linejoin="null" stroke-dasharray="null" stroke-width="0" fill="#ff007f"/>
  <ellipse stroke="#000000" id="svg_78" ry="7.10411" rx="7.21875" cy="343.05398" cx="350.6354" opacity="0.4" stroke-linecap="null" stroke-linejoin="null" stroke-dasharray="null" stroke-width="0" fill="#ff007f"/>
  <ellipse stroke="#000000" id="svg_81" ry="7.10411" rx="6.375" cy="265.99148" cx="319.41664" opacity="0.4" stroke-linecap="null" stroke-linejoin="null" stroke-dasharray="null" stroke-width="0" fill="#3f007f"/>
  <ellipse stroke="#000000" id="svg_82" ry="7.10411" rx="6.375" cy="206.36647" cx="320.54164" opacity="0.4" stroke-linecap="null" stroke-linejoin="null" stroke-dasharray="null" stroke-width="0" fill="#3f007f"/>
  <ellipse stroke="#f9f2f2" id="svg_83" ry="4.29161" rx="4.125" cy="209.55397" cx="381.10415" opacity="0.4" stroke-linecap="null" stroke-linejoin="null" stroke-dasharray="null" stroke-width="0.2" fill="#ffaad4"/>
  <rect stroke="#000000" id="svg_84" fill="#3f2c2c" stroke-width="0.05" stroke-dasharray="null" stroke-linejoin="null" stroke-linecap="null" x="219.03505" y="287.72722" width="6.11622" height="0.35944" transform="rotate(-5.079995155334473 222.0931549072255,287.9069213867186) "/>
  <path stroke="#000000" transform="rotate(176.7574920654297 203.43084716796875,287.3414306640625) " id="svg_85" d="m202.09602,290.45604l1.33483,-6.22925l1.33483,6.22925l-2.66967,0l0.00001,0z" stroke-linecap="null" stroke-linejoin="null" stroke-dasharray="null" stroke-width="0" fill="#ffffff"/>
  <rect stroke="#000000" fill="#3f2c2c" stroke-width="0.05" stroke-dasharray="null" stroke-linejoin="null" stroke-linecap="null" x="203.47334" y="289.09696" width="7.78378" height="0.24335" id="svg_29"/>
  <ellipse stroke="#000000" transform="rotate(21.176231384277344 199.78324890136724,206.55290222167966) " ry="5.87678" rx="0.7831" id="svg_86" cy="206.5529" cx="199.78325" stroke-linecap="null" stroke-linejoin="null" stroke-dasharray="null" stroke-width="0" fill="#ffaaaa"/>
  <ellipse stroke="#000000" id="svg_87" transform="rotate(21.176231384277344 200.02055358886696,207.26481628417977) " ry="5.87678" rx="0.7831" cy="207.26481" cx="200.02056" stroke-linecap="null" stroke-linejoin="null" stroke-dasharray="null" stroke-width="0" fill="#ffd4aa"/>
  <rect stroke="#000000" transform="rotate(-90.77033233642578 176.31321716308594,232.65965270996094) " opacity="0.3" height="5.56781" width="232.28592" y="229.87574" x="60.17026" stroke-linecap="null" stroke-linejoin="null" stroke-dasharray="null" stroke-width="0" fill="#e0418e" id="svg_111"/>
  <path stroke="#000000" id="svg_88" transform="rotate(27.517370223999023 262.72900390625,157.69390869140628) " d="m262.60438,175.31716l0.12463,-35.24651l0.12463,35.24651l-0.24926,0l0,0z" stroke-linecap="null" stroke-linejoin="null" stroke-dasharray="null" stroke-width="0" fill="#ffffff"/>
  <ellipse stroke="#000000" ry="3.1875" rx="3.375" id="svg_93" cy="342.46098" cx="195.05861" opacity="0.2" stroke-linecap="null" stroke-linejoin="null" stroke-dasharray="null" stroke-width="0" fill="#00ffff"/>
  <ellipse stroke="#000000" id="svg_108" ry="3.375" rx="3.375" cy="274.37504" cx="84.75" opacity="0.8" stroke-linecap="null" stroke-linejoin="null" stroke-dasharray="null" stroke-width="0" fill="#ffffff"/>
  <ellipse stroke="#000000" id="svg_115" ry="3.9375" rx="4.5" cy="344.3477" cx="277.93361" opacity="0.2" stroke-linecap="null" stroke-linejoin="null" stroke-dasharray="null" stroke-width="0" fill="#00ffff"/>
  <ellipse stroke="#000000" id="svg_109" ry="3.375" rx="3.375" cy="344.33599" cx="277.7461" opacity="0.3" stroke-linecap="null" stroke-linejoin="null" stroke-dasharray="null" stroke-width="0" fill="#f780f7"/>
  <ellipse stroke="#000000" id="svg_110" ry="2.30859" rx="2.0332" cy="342.4024" cx="195.21681" opacity="0.3" stroke-linecap="null" stroke-linejoin="null" stroke-dasharray="null" stroke-width="0" fill="#f47ff4"/>
  <ellipse stroke="#000000" id="svg_124" ry="4.97911" rx="5.15625" cy="192.6998" cx="121.92706" opacity="0.4" stroke-linecap="null" stroke-linejoin="null" stroke-dasharray="null" stroke-width="0" fill="#ffffff"/>
  <ellipse stroke="#000000" id="svg_125" ry="3.375" rx="3.375" cy="273.25004" cx="171.37501" opacity="0.2" stroke-linecap="null" stroke-linejoin="null" stroke-dasharray="null" stroke-width="0" fill="#ff00ff"/>
  <ellipse stroke="#000000" id="svg_128" ry="3.375" rx="3.375" cy="206.31253" cx="171.37501" opacity="0.2" stroke-linecap="null" stroke-linejoin="null" stroke-dasharray="null" stroke-width="0" fill="#ff00ff"/>
  <ellipse stroke="#000000" id="svg_138" ry="3.9375" rx="4.5" cy="170.87502" cx="172.50002" opacity="0.2" stroke-linecap="null" stroke-linejoin="null" stroke-dasharray="null" stroke-width="0" fill="#00ffff"/>
  <ellipse stroke="#000000" id="svg_139" ry="3.375" rx="3.375" cy="170.87504" cx="171.93751" opacity="0.2" stroke-linecap="null" stroke-linejoin="null" stroke-dasharray="null" stroke-width="0" fill="#ff00ff"/>
  <ellipse stroke="#000000" id="svg_123" ry="5.13536" rx="4.40625" cy="193.14772" cx="121.69788" opacity="0.4" stroke-linecap="null" stroke-linejoin="null" stroke-dasharray="null" stroke-width="0" fill="#3f007f"/>
  <ellipse stroke="#000000" id="svg_140" ry="4.97911" rx="4.59375" cy="259.55397" cx="123.30206" opacity="0.4" stroke-linecap="null" stroke-linejoin="null" stroke-dasharray="null" stroke-width="0" fill="#ffffff"/>
  <ellipse stroke="#000000" id="svg_141" ry="5.13536" rx="4.96875" cy="260.08523" cx="122.82287" opacity="0.4" stroke-linecap="null" stroke-linejoin="null" stroke-dasharray="null" stroke-width="0" fill="#3f007f"/>
  <ellipse stroke="#000000" id="svg_143" ry="4.97911" rx="4.59375" cy="328.74147" cx="122.73955" opacity="0.4" stroke-linecap="null" stroke-linejoin="null" stroke-dasharray="null" stroke-width="0" fill="#ffffff"/>
  <ellipse stroke="#000000" id="svg_142" ry="5.13536" rx="4.96875" cy="329.27273" cx="122.26037" opacity="0.4" stroke-linecap="null" stroke-linejoin="null" stroke-dasharray="null" stroke-width="0" fill="#3f007f"/>
  <rect stroke="#000000" transform="rotate(1.1024646759033203 125.05316162109273,145.4031677246091) " id="svg_145" height="0.52792" width="15.29111" y="145.13921" x="117.4076" stroke-linecap="null" stroke-linejoin="null" stroke-dasharray="null" stroke-width="0" fill="#f7a8ce"/>
  <ellipse stroke="#8585f7" ry="3.02563" rx="3.11462" id="svg_146" cy="127.8657" cx="337.3663" opacity="0.8" stroke-linecap="null" stroke-linejoin="null" stroke-dasharray="null" stroke-width="0.2" fill="#c45488"/>
  <rect stroke="#f9f2f2" id="svg_148" height="0.8627" width="45.28565" y="131.99875" x="353.13716" opacity="0.9" stroke-linecap="null" stroke-linejoin="null" stroke-dasharray="null" stroke-width="0" fill="#e006e0"/>
  <rect stroke="#f9f2f2" id="svg_149" height="0.56113" width="35.54628" y="121.06049" x="362.86668" opacity="0.9" stroke-linecap="null" stroke-linejoin="null" stroke-dasharray="null" stroke-width="0" fill="#e006e0"/>
  <ellipse stroke="#c7a5ff" id="svg_162" ry="1.4207" rx="1.42522" cy="141.8749" cx="353.98487" opacity="0.1" stroke-linecap="null" stroke-linejoin="null" stroke-dasharray="null" stroke-width="0.2" fill="#7f00ff"/>
  <ellipse stroke="#c7a5ff" id="svg_164" ry="1.4207" rx="1.42522" cy="130.0834" cx="357.56613" opacity="0.1" stroke-linecap="null" stroke-linejoin="null" stroke-dasharray="null" stroke-width="0.2" fill="#7f00ff"/>
  <ellipse stroke="#c7a5ff" id="svg_165" ry="1.4207" rx="1.42522" cy="119.4609" cx="366.46631" opacity="0.1" stroke-linecap="null" stroke-linejoin="null" stroke-dasharray="null" stroke-width="0.2" fill="#ff007f"/>
  <ellipse stroke="#c7a5ff" id="svg_166" ry="1.4207" rx="1.42522" cy="141.8862" cx="361.92786" opacity="0.1" stroke-linecap="null" stroke-linejoin="null" stroke-dasharray="null" stroke-width="0.2" fill="#ff007f"/>
  <ellipse stroke="#c7a5ff" id="svg_167" ry="1.4207" rx="1.42522" cy="141.8862" cx="345.77631" opacity="0.1" stroke-linecap="null" stroke-linejoin="null" stroke-dasharray="null" stroke-width="0.2" fill="#ff007f"/>
  <rect stroke="#f9f2f2" id="svg_168" height="0.16068" width="6.22152" y="122.06162" x="362.99737" opacity="0.8" stroke-linecap="null" stroke-linejoin="null" stroke-dasharray="null" stroke-width="0" fill="#f9c5f9"/>
  <rect stroke="#f9f2f2" id="svg_169" height="0.16068" width="15.75727" y="133.62466" x="353.46161" opacity="0.8" stroke-linecap="null" stroke-linejoin="null" stroke-dasharray="null" stroke-width="0" fill="#f9c5f9"/>
  <rect stroke="#f9f2f2" id="svg_170" height="0.16068" width="30.87433" y="145.73832" x="338.60109" opacity="0.8" stroke-linecap="null" stroke-linejoin="null" stroke-dasharray="null" stroke-width="0" fill="#f9c5f9"/>
  <polygon stroke="#000000" id="svg_171" opacity="0.1" stroke-width="0" points="153.6485595703125,135.89053337555833 154.65444946289062,138.48181985904012 157.71749877929688,138.53771155381764 155.276123046875,140.19510853556403 156.16329956054688,142.82093811035156 153.6485595703125,141.25397591468845 151.13381958007812,142.82093811035156 152.02099609375,140.19510853556403 149.57962036132812,138.53771155381764 152.64266967773438,138.48181985904012 153.6485595703125,135.89053337555833 154.65444946289062,138.48181985904012 " fill="#bfbfbf"/>
  <polygon stroke="#000000" transform="rotate(26.314777374267578 134.26208496093747,109.6992416381836) " id="svg_172" opacity="0.1" stroke-width="0" points="134.26208497268817,104.26528930664062 135.05938951317148,108.32881164550781 137.48727419342322,108.41645812988281 135.55215347036574,111.0155029296875 136.2553598063023,115.13319396972656 134.26208497268817,112.67596435546875 132.26881013907405,115.13319396972656 132.9720164750106,111.0155029296875 131.03689575195312,108.41645812988281 133.46478043220486,108.32881164550781 134.26208497268817,104.26528930664062 135.05938951317148,108.32881164550781 " fill="#bfbfbf"/>
  <polygon stroke="#000000" id="svg_173" opacity="0.1" stroke-width="0" points="166.56298826949933,121.54074096679688 167.36029280998264,125.60426330566406 169.78817749023438,125.69190979003906 167.8530567671769,128.29095458984375 168.55626310311345,132.4086456298828 166.56298826949933,129.951416015625 164.5697134358852,132.4086456298828 165.27291977182176,128.29095458984375 163.33779904876428,125.69190979003906 165.76568372901602,125.60426330566406 166.56298826949933,121.54074096679688 167.36029280998264,125.60426330566406 " fill="#bfbfbf"/>
  <polygon stroke="#000000" transform="rotate(-30.906599044799805 160.42437744140625,109.9090805053711) " id="svg_174" opacity="0.1" stroke-width="0" points="160.42437743259325,104.47512817382812 161.360738558903,108.53865051269531 164.21206665039062,108.62629699707031 161.93944467499205,111.225341796875 162.7652960822179,115.34303283691406 160.42437743259325,112.88580322265625 158.0834587829686,115.34303283691406 158.90931019019445,111.225341796875 156.63668821479587,108.62629699707031 159.4880163062835,108.53865051269531 160.42437743259325,104.47512817382812 161.360738558903,108.53865051269531 " fill="#bfbfbf"/>
  <polygon stroke="#000000" transform="rotate(14.924762725830078 124.37438964843751,119.42049407958984) " id="svg_175" opacity="0.1" stroke-width="0" points="124.3743896484375,113.98654174804688 124.72844696044922,118.05006408691406 125.80661010742188,118.13771057128906 124.94728088378906,120.73675537109375 125.25955200195312,124.85444641113281 124.3743896484375,122.397216796875 123.4892349243164,124.85444641113281 123.80149841308594,120.73675537109375 122.94216918945312,118.13771057128906 124.02033233642578,118.05006408691406 124.3743896484375,113.98654174804688 124.72844696044922,118.05006408691406 " fill="#bfbfbf"/>
  <polygon stroke="null" opacity="0.1" fill="#bfbfbf" id="svg_177"/>
  <ellipse stroke="#000000" id="svg_182" ry="16.58756" rx="15.86475" cy="121.64261" cx="140.21002" stroke-linecap="null" stroke-linejoin="null" stroke-dasharray="null" stroke-width="0" fill="#ffffff"/>
  <ellipse stroke="#000000" id="svg_184" ry="19.19352" rx="16.14014" cy="123.72382" cx="140.5958" stroke-linecap="null" stroke-linejoin="null" stroke-dasharray="null" stroke-width="0" fill="#a466f4"/>
  <rect stroke="#000000" transform="rotate(-4.474902629852295 127.38134002685534,123.35696411132827) " id="svg_185" height="15.89941" width="6.40723" y="115.40726" x="124.17772" stroke-linecap="null" stroke-linejoin="null" stroke-dasharray="null" stroke-width="0" fill="#a466f4"/>
  <path stroke="#f9f2f2" id="svg_186" d="m130.75876,126.96599l0.09731,-0.33365l0,0.16682l0.03902,0l0,-0.26677l0.07781,0l0,-0.13377l-0.04866,0l0.09731,-0.33365l0.09732,0.33365l-0.04866,0l0,0.13377l0.07781,0l0,0.26677l0.03902,0l0,-0.16682l0.09732,0.33365l-0.09732,0.33365l0,-0.16683l-0.03902,0l0,0.26677l-0.07781,0l0,0.13377l0.04866,0l-0.09732,0.33365l-0.09731,-0.33365l0.04866,0l0,-0.13377l-0.07781,0l0,-0.26677l-0.03902,0l0,0.16683l-0.09731,-0.33365z" opacity="0.8" stroke-linecap="null" stroke-linejoin="null" stroke-dasharray="null" stroke-width="0.2" fill="#ffffff"/>
  <path stroke="#f9f2f2" id="svg_187" d="m169.50246,124.63836l0.09732,-0.33364l0,0.16682l0.03901,0l0,-0.26678l0.07781,0l0,-0.13377l-0.04865,0l0.09731,-0.33365l0.09732,0.33365l-0.04866,0l0,0.13377l0.07781,0l0,0.26678l0.03902,0l0,-0.16682l0.09731,0.33364l-0.09731,0.33365l0,-0.16682l-0.03902,0l0,0.26677l-0.07781,0l0,0.13377l0.04866,0l-0.09732,0.33365l-0.09731,-0.33365l0.04865,0l0,-0.13377l-0.07781,0l0,-0.26677l-0.03901,0l0,0.16682l-0.09732,-0.33365z" opacity="0.8" stroke-linecap="null" stroke-linejoin="null" stroke-dasharray="null" stroke-width="0.2" fill="#ffffff"/>
  <path stroke="#f9f2f2" id="svg_188" d="m144.87468,136.27649l0.09732,-0.33364l0,0.16682l0.03901,0l0,-0.26678l0.07781,0l0,-0.13377l-0.04865,0l0.09731,-0.33365l0.09732,0.33365l-0.04866,0l0,0.13377l0.07781,0l0,0.26678l0.03902,0l0,-0.16682l0.09731,0.33364l-0.09731,0.33365l0,-0.16682l-0.03902,0l0,0.26677l-0.07781,0l0,0.13377l0.04866,0l-0.09732,0.33365l-0.09731,-0.33365l0.04865,0l0,-0.13377l-0.07781,0l0,-0.26677l-0.03901,0l0,0.16682l-0.09732,-0.33365z" opacity="0.8" stroke-linecap="null" stroke-linejoin="null" stroke-dasharray="null" stroke-width="0.2" fill="#ffffff"/>
  <path stroke="#f9f2f2" id="svg_189" d="m123.02503,127.64174l0.09732,-0.33364l0,0.16682l0.03901,0l0,-0.26678l0.07781,0l0,-0.13377l-0.04865,0l0.09731,-0.33365l0.09732,0.33365l-0.04866,0l0,0.13377l0.07781,0l0,0.26678l0.03902,0l0,-0.16682l0.09731,0.33364l-0.09731,0.33365l0,-0.16682l-0.03902,0l0,0.26677l-0.07781,0l0,0.13377l0.04866,0l-0.09732,0.33365l-0.09731,-0.33365l0.04865,0l0,-0.13377l-0.07781,0l0,-0.26677l-0.03901,0l0,0.16682l-0.09732,-0.33365z" opacity="0.8" stroke-linecap="null" stroke-linejoin="null" stroke-dasharray="null" stroke-width="0.2" fill="#ffffff"/>
  <path stroke="#f9f2f2" id="svg_190" d="m157.11347,128.76801l0.09732,-0.33364l0,0.16682l0.03901,0l0,-0.26678l0.07781,0l0,-0.13377l-0.04865,0l0.09731,-0.33365l0.09732,0.33365l-0.04866,0l0,0.13377l0.07781,0l0,0.26678l0.03902,0l0,-0.16682l0.09731,0.33364l-0.09731,0.33365l0,-0.16682l-0.03902,0l0,0.26677l-0.07781,0l0,0.13377l0.04866,0l-0.09732,0.33365l-0.09731,-0.33365l0.04865,0l0,-0.13377l-0.07781,0l0,-0.26677l-0.03901,0l0,0.16682l-0.09732,-0.33365z" opacity="0.8" stroke-linecap="null" stroke-linejoin="null" stroke-dasharray="null" stroke-width="0.2" fill="#ffffff"/>
  <path stroke="#f9f2f2" id="svg_191" d="m151.78246,115.5531l0.09732,-0.33364l0,0.16682l0.03901,0l0,-0.26678l0.07781,0l0,-0.13377l-0.04865,0l0.09731,-0.33365l0.09732,0.33365l-0.04866,0l0,0.13377l0.07781,0l0,0.26678l0.03902,0l0,-0.16682l0.09731,0.33364l-0.09731,0.33365l0,-0.16682l-0.03902,0l0,0.26677l-0.07781,0l0,0.13377l0.04866,0l-0.09732,0.33365l-0.09731,-0.33365l0.04865,0l0,-0.13377l-0.07781,0l0,-0.26677l-0.03901,0l0,0.16682l-0.09732,-0.33365z" opacity="0.8" stroke-linecap="null" stroke-linejoin="null" stroke-dasharray="null" stroke-width="0.2" fill="#ffffff"/>
  <path stroke="#f9f2f2" id="svg_192" d="m129.40722,139.80545l0.09732,-0.33364l0,0.16682l0.03901,0l0,-0.26678l0.07781,0l0,-0.13377l-0.04865,0l0.09731,-0.33365l0.09732,0.33365l-0.04866,0l0,0.13377l0.07781,0l0,0.26678l0.03902,0l0,-0.16682l0.09731,0.33364l-0.09731,0.33365l0,-0.16682l-0.03902,0l0,0.26677l-0.07781,0l0,0.13377l0.04866,0l-0.09732,0.33365l-0.09731,-0.33365l0.04865,0l0,-0.13377l-0.07781,0l0,-0.26677l-0.03901,0l0,0.16682l-0.09732,-0.33365z" opacity="0.8" stroke-linecap="null" stroke-linejoin="null" stroke-dasharray="null" stroke-width="0.2" fill="#ffffff"/>
  <path stroke="#f9f2f2" transform="rotate(36.12563705444336 159.17829895019534,143.03408813476562) " id="svg_193" d="m158.9155,143.03409l0.09732,-0.33364l0,0.16682l0.03901,0l0,-0.26678l0.07781,0l0,-0.13377l-0.04865,0l0.09731,-0.33365l0.09732,0.33365l-0.04866,0l0,0.13377l0.07781,0l0,0.26678l0.03902,0l0,-0.16682l0.09731,0.33364l-0.09731,0.33365l0,-0.16682l-0.03902,0l0,0.26677l-0.07781,0l0,0.13377l0.04866,0l-0.09732,0.33365l-0.09731,-0.33365l0.04865,0l0,-0.13377l-0.07781,0l0,-0.26677l-0.03901,0l0,0.16682l-0.09732,-0.33365z" opacity="0.8" stroke-linecap="null" stroke-linejoin="null" stroke-dasharray="null" stroke-width="0.2" fill="#ffffff"/>
  <path stroke="#f9f2f2" id="svg_194" d="m140.59483,119.08207l0.09732,-0.33364l0,0.16682l0.03901,0l0,-0.26678l0.07781,0l0,-0.13377l-0.04865,0l0.09731,-0.33365l0.09732,0.33365l-0.04866,0l0,0.13377l0.07781,0l0,0.26678l0.03902,0l0,-0.16682l0.09731,0.33364l-0.09731,0.33365l0,-0.16682l-0.03902,0l0,0.26677l-0.07781,0l0,0.13377l0.04866,0l-0.09732,0.33365l-0.09731,-0.33365l0.04865,0l0,-0.13377l-0.07781,0l0,-0.26677l-0.03901,0l0,0.16682l-0.09732,-0.33365z" opacity="0.8" stroke-linecap="null" stroke-linejoin="null" stroke-dasharray="null" stroke-width="0.2" fill="#ffffff"/>
  <path stroke="#f9f2f2" id="svg_195" d="m145.09991,105.04123l0.09732,-0.33364l0,0.16682l0.03901,0l0,-0.26678l0.07781,0l0,-0.13377l-0.04865,0l0.09731,-0.33365l0.09732,0.33365l-0.04866,0l0,0.13377l0.07781,0l0,0.26678l0.03902,0l0,-0.16682l0.09731,0.33364l-0.09731,0.33365l0,-0.16682l-0.03902,0l0,0.26677l-0.07781,0l0,0.13377l0.04866,0l-0.09732,0.33365l-0.09731,-0.33365l0.04865,0l0,-0.13377l-0.07781,0l0,-0.26677l-0.03901,0l0,0.16682l-0.09732,-0.33365z" opacity="0.8" stroke-linecap="null" stroke-linejoin="null" stroke-dasharray="null" stroke-width="0.2" fill="#ffffff"/>
  <path stroke="#f9f2f2" id="svg_196" d="m164.47175,111.12309l0.05561,-0.33364l0,0.16682l0.02229,0l0,-0.26678l0.04446,0l0,-0.13377l-0.0278,0l0.05561,-0.33365l0.05561,0.33365l-0.02781,0l0,0.13377l0.04446,0l0,0.26678l0.0223,0l0,-0.16682l0.05561,0.33364l-0.05561,0.33365l0,-0.16682l-0.0223,0l0,0.26677l-0.04446,0l0,0.13377l0.02781,0l-0.05561,0.33365l-0.05561,-0.33365l0.0278,0l0,-0.13377l-0.04446,0l0,-0.26677l-0.02229,0l0,0.16682l-0.05561,-0.33365z" opacity="0.8" stroke-linecap="null" stroke-linejoin="null" stroke-dasharray="null" stroke-width="0.2" fill="#ffffff"/>
  <path stroke="#d4aaff" id="svg_197" d="m156.38767,105.04126l0.09732,-0.33364l0,0.16682l0.03901,0l0,-0.26678l0.07781,0l0,-0.13377l-0.04865,0l0.09731,-0.33365l0.09732,0.33365l-0.04866,0l0,0.13377l0.07781,0l0,0.26678l0.03902,0l0,-0.16682l0.09731,0.33364l-0.09731,0.33365l0,-0.16682l-0.03902,0l0,0.26677l-0.07781,0l0,0.13377l0.04866,0l-0.09732,0.33365l-0.09731,-0.33365l0.04865,0l0,-0.13377l-0.07781,0l0,-0.26677l-0.03901,0l0,0.16682l-0.09732,-0.33365z" opacity="0.8" stroke-linecap="null" stroke-linejoin="null" stroke-dasharray="null" stroke-width="0.2" fill="#aad4ff"/>
  <path stroke="#d4aaff" id="svg_198" d="m166.7994,135.17525l0.09732,-0.33364l0,0.16682l0.03901,0l0,-0.26678l0.07781,0l0,-0.13377l-0.04865,0l0.09731,-0.33365l0.09732,0.33365l-0.04866,0l0,0.13377l0.07781,0l0,0.26678l0.03902,0l0,-0.16682l0.09731,0.33364l-0.09731,0.33365l0,-0.16682l-0.03902,0l0,0.26677l-0.07781,0l0,0.13377l0.04866,0l-0.09732,0.33365l-0.09731,-0.33365l0.04865,0l0,-0.13377l-0.07781,0l0,-0.26677l-0.03901,0l0,0.16682l-0.09732,-0.33365z" opacity="0.8" stroke-linecap="null" stroke-linejoin="null" stroke-dasharray="null" stroke-width="0.2" fill="#aad4ff"/>
  <path stroke="#d4aaff" id="svg_199" d="m139.96915,142.18315l0.09732,-0.33364l0,0.16682l0.03901,0l0,-0.26678l0.07781,0l0,-0.13377l-0.04865,0l0.09731,-0.33365l0.09732,0.33365l-0.04866,0l0,0.13377l0.07781,0l0,0.26678l0.03902,0l0,-0.16682l0.09731,0.33364l-0.09731,0.33365l0,-0.16682l-0.03902,0l0,0.26677l-0.07781,0l0,0.13377l0.04866,0l-0.09732,0.33365l-0.09731,-0.33365l0.04865,0l0,-0.13377l-0.07781,0l0,-0.26677l-0.03901,0l0,0.16682l-0.09732,-0.33365z" opacity="0.8" stroke-linecap="null" stroke-linejoin="null" stroke-dasharray="null" stroke-width="0.2" fill="#aad4ff"/>
  <path stroke="#d4aaff" id="svg_200" d="m146.87694,126.66565l0.09732,-0.33364l0,0.16682l0.03901,0l0,-0.26678l0.07781,0l0,-0.13377l-0.04865,0l0.09731,-0.33365l0.09732,0.33365l-0.04866,0l0,0.13377l0.07781,0l0,0.26678l0.03902,0l0,-0.16682l0.09731,0.33364l-0.09731,0.33365l0,-0.16682l-0.03902,0l0,0.26677l-0.07781,0l0,0.13377l0.04866,0l-0.09732,0.33365l-0.09731,-0.33365l0.04865,0l0,-0.13377l-0.07781,0l0,-0.26677l-0.03901,0l0,0.16682l-0.09732,-0.33365z" opacity="0.8" stroke-linecap="null" stroke-linejoin="null" stroke-dasharray="null" stroke-width="0.2" fill="#aad4ff"/>
  <path stroke="#d4aaff" id="svg_201" d="m131.45955,117.55538l0.09732,-0.33364l0,0.16682l0.03901,0l0,-0.26678l0.07781,0l0,-0.13377l-0.04865,0l0.09731,-0.33365l0.09732,0.33365l-0.04866,0l0,0.13377l0.07781,0l0,0.26678l0.03902,0l0,-0.16682l0.09731,0.33364l-0.09731,0.33365l0,-0.16682l-0.03902,0l0,0.26677l-0.07781,0l0,0.13377l0.04866,0l-0.09732,0.33365l-0.09731,-0.33365l0.04865,0l0,-0.13377l-0.07781,0l0,-0.26677l-0.03901,0l0,0.16682l-0.09732,-0.33365z" opacity="0.8" stroke-linecap="null" stroke-linejoin="null" stroke-dasharray="null" stroke-width="0.2" fill="#aad4ff"/>
  <path stroke="#d4aaff" id="svg_202" d="m135.76441,107.04352l0.04171,-0.33364l0,0.16682l0.01672,0l0,-0.26678l0.03335,0l0,-0.13377l-0.02085,0l0.04171,-0.33365l0.04171,0.33365l-0.02085,0l0,0.13377l0.03335,0l0,0.26678l0.01672,0l0,-0.16682l0.04171,0.33364l-0.04171,0.33365l0,-0.16682l-0.01672,0l0,0.26677l-0.03335,0l0,0.13377l0.02085,0l-0.04171,0.33365l-0.04171,-0.33365l0.02085,0l0,-0.13377l-0.03335,0l0,-0.26677l-0.01672,0l0,0.16682l-0.04171,-0.33365z" opacity="0.8" stroke-linecap="null" stroke-linejoin="null" stroke-dasharray="null" stroke-width="0.2" fill="#aad4ff"/>
  <path id="svg_104" stroke="#f9f2f2" d="m373.31671,126.47503l0.09732,-0.33364l0,0.16682l0.03901,0l0,-0.26678l0.07781,0l0,-0.13377l-0.04865,0l0.09731,-0.33365l0.09732,0.33365l-0.04866,0l0,0.13377l0.07781,0l0,0.26678l0.03902,0l0,-0.16682l0.09731,0.33364l-0.09731,0.33365l0,-0.16682l-0.03902,0l0,0.26677l-0.07781,0l0,0.13377l0.04866,0l-0.09732,0.33365l-0.09731,-0.33365l0.04865,0l0,-0.13377l-0.07781,0l0,-0.26677l-0.03901,0l0,0.16682l-0.09732,-0.33365z" opacity="0.8" stroke-linecap="null" stroke-linejoin="null" stroke-dasharray="null" stroke-width="0.2" fill="#ffffff"/>
  <path id="svg_113" stroke="#f9f2f2" transform="rotate(-1.9383249282836914 375.38153076172034,140.74111938476645) " d="m375.11874,140.74111l0.09732,-0.33364l0,0.16682l0.03901,0l0,-0.26678l0.07781,0l0,-0.13377l-0.04865,0l0.09731,-0.33365l0.09732,0.33365l-0.04866,0l0,0.13377l0.07781,0l0,0.26678l0.03902,0l0,-0.16682l0.09731,0.33364l-0.09731,0.33365l0,-0.16682l-0.03902,0l0,0.26677l-0.07781,0l0,0.13377l0.04866,0l-0.09732,0.33365l-0.09731,-0.33365l0.04865,0l0,-0.13377l-0.07781,0l0,-0.26677l-0.03901,0l0,0.16682l-0.09732,-0.33365z" opacity="0.8" stroke-linecap="null" stroke-linejoin="null" stroke-dasharray="null" stroke-width="0.2" fill="#ffffff"/>
  <path id="svg_114" stroke="#f9f2f2" d="m372.24884,150.14617l0.09732,-0.33364l0,0.16682l0.03901,0l0,-0.26678l0.07781,0l0,-0.13377l-0.04865,0l0.09731,-0.33365l0.09732,0.33365l-0.04866,0l0,0.13377l0.07781,0l0,0.26678l0.03902,0l0,-0.16682l0.09731,0.33364l-0.09731,0.33365l0,-0.16682l-0.03902,0l0,0.26677l-0.07781,0l0,0.13377l0.04866,0l-0.09732,0.33365l-0.09731,-0.33365l0.04865,0l0,-0.13377l-0.07781,0l0,-0.26677l-0.03901,0l0,0.16682l-0.09732,-0.33365z" opacity="0.8" stroke-linecap="null" stroke-linejoin="null" stroke-dasharray="null" stroke-width="0.2" fill="#ffffff"/>
  <path stroke="#f9f2f2" id="svg_116" d="m379.32318,155.34712l0.48772,0.68177l0,-0.34088l0.1955,0l0,0.54515l0.38994,0l0,0.27335l-0.24381,0l0.48767,0.68179l0.48772,-0.68179l-0.24386,0l0,-0.27335l0.38994,0l0,-0.54515l0.19555,0l0,0.34088l0.48767,-0.68177l-0.48767,-0.68179l0,0.34088l-0.19555,0l0,-0.54513l-0.38994,0l0,-0.27335l0.24386,0l-0.48772,-0.68179l-0.48767,0.68179l0.24381,0l0,0.27335l-0.38994,0l0,0.54513l-0.1955,0l0,-0.34088l-0.48772,0.68179z" opacity="0.8" stroke-linecap="null" stroke-linejoin="null" stroke-dasharray="null" stroke-width="0.2" fill="#ffffff"/>
  <path id="svg_137" stroke="#f9f2f2" d="m383.99542,137.15374l0.09732,-0.33364l0,0.16682l0.03901,0l0,-0.26678l0.07781,0l0,-0.13377l-0.04865,0l0.09731,-0.33365l0.09732,0.33365l-0.04866,0l0,0.13377l0.07781,0l0,0.26678l0.03902,0l0,-0.16682l0.09731,0.33364l-0.09731,0.33365l0,-0.16682l-0.03902,0l0,0.26677l-0.07781,0l0,0.13377l0.04866,0l-0.09732,0.33365l-0.09731,-0.33365l0.04865,0l0,-0.13377l-0.07781,0l0,-0.26677l-0.03901,0l0,0.16682l-0.09732,-0.33365z" opacity="0.8" stroke-linecap="null" stroke-linejoin="null" stroke-dasharray="null" stroke-width="0.2" fill="#ffffff"/>
  <path id="svg_150" stroke="#f9f2f2" d="m387.55499,140.71331l0.09732,-0.33364l0,0.16682l0.03901,0l0,-0.26678l0.07781,0l0,-0.13377l-0.04865,0l0.09731,-0.33365l0.09732,0.33365l-0.04866,0l0,0.13377l0.07781,0l0,0.26678l0.03902,0l0,-0.16682l0.09731,0.33364l-0.09731,0.33365l0,-0.16682l-0.03902,0l0,0.26677l-0.07781,0l0,0.13377l0.04866,0l-0.09732,0.33365l-0.09731,-0.33365l0.04865,0l0,-0.13377l-0.07781,0l0,-0.26677l-0.03901,0l0,0.16682l-0.09732,-0.33365z" opacity="0.8" stroke-linecap="null" stroke-linejoin="null" stroke-dasharray="null" stroke-width="0.2" fill="#ffffff"/>
  <path id="svg_151" stroke="#f9f2f2" d="m382.15631,190.60662l0.09732,-0.33364l0,0.16682l0.03901,0l0,-0.26678l0.07781,0l0,-0.13377l-0.04865,0l0.09731,-0.33365l0.09732,0.33365l-0.04866,0l0,0.13377l0.07781,0l0,0.26678l0.03902,0l0,-0.16682l0.09731,0.33364l-0.09731,0.33365l0,-0.16682l-0.03902,0l0,0.26677l-0.07781,0l0,0.13377l0.04866,0l-0.09732,0.33365l-0.09731,-0.33365l0.04865,0l0,-0.13377l-0.07781,0l0,-0.26677l-0.03901,0l0,0.16682l-0.09732,-0.33365z" opacity="0.8" stroke-linecap="null" stroke-linejoin="null" stroke-dasharray="null" stroke-width="0.2" fill="#ffffff"/>
  <path id="svg_152" stroke="#f9f2f2" d="m384.1734,164.0285l0.09732,-0.33364l0,0.16682l0.03901,0l0,-0.26678l0.07781,0l0,-0.13377l-0.04865,0l0.09731,-0.33365l0.09732,0.33365l-0.04866,0l0,0.13377l0.07781,0l0,0.26678l0.03902,0l0,-0.16682l0.09731,0.33364l-0.09731,0.33365l0,-0.16682l-0.03902,0l0,0.26677l-0.07781,0l0,0.13377l0.04866,0l-0.09732,0.33365l-0.09731,-0.33365l0.04865,0l0,-0.13377l-0.07781,0l0,-0.26677l-0.03901,0l0,0.16682l-0.09732,-0.33365z" opacity="0.8" stroke-linecap="null" stroke-linejoin="null" stroke-dasharray="null" stroke-width="0.2" fill="#ffffff"/>
  <path id="svg_153" stroke="#f9f2f2" d="m376.10504,221.10027l0.09732,-0.33364l0,0.16682l0.03901,0l0,-0.26678l0.07781,0l0,-0.13377l-0.04865,0l0.09731,-0.33365l0.09732,0.33365l-0.04866,0l0,0.13377l0.07781,0l0,0.26678l0.03902,0l0,-0.16682l0.09731,0.33364l-0.09731,0.33365l0,-0.16682l-0.03902,0l0,0.26677l-0.07781,0l0,0.13377l0.04866,0l-0.09732,0.33365l-0.09731,-0.33365l0.04865,0l0,-0.13377l-0.07781,0l0,-0.26677l-0.03901,0l0,0.16682l-0.09732,-0.33365z" opacity="0.8" stroke-linecap="null" stroke-linejoin="null" stroke-dasharray="null" stroke-width="0.2" fill="#ffffff"/>
  <path id="svg_154" stroke="#f9f2f2" d="m370.29107,177.37688l0.09732,-0.33364l0,0.16682l0.03901,0l0,-0.26678l0.07781,0l0,-0.13377l-0.04865,0l0.09731,-0.33365l0.09732,0.33365l-0.04866,0l0,0.13377l0.07781,0l0,0.26678l0.03902,0l0,-0.16682l0.09731,0.33364l-0.09731,0.33365l0,-0.16682l-0.03902,0l0,0.26677l-0.07781,0l0,0.13377l0.04866,0l-0.09732,0.33365l-0.09731,-0.33365l0.04865,0l0,-0.13377l-0.07781,0l0,-0.26677l-0.03901,0l0,0.16682l-0.09732,-0.33365z" opacity="0.8" stroke-linecap="null" stroke-linejoin="null" stroke-dasharray="null" stroke-width="0.2" fill="#ffffff"/>
  <path id="svg_155" stroke="#f9f2f2" d="m383.2835,119.35589l0.09732,-0.33364l0,0.16682l0.03901,0l0,-0.26678l0.07781,0l0,-0.13377l-0.04865,0l0.09731,-0.33365l0.09732,0.33365l-0.04866,0l0,0.13377l0.07781,0l0,0.26678l0.03902,0l0,-0.16682l0.09731,0.33364l-0.09731,0.33365l0,-0.16682l-0.03902,0l0,0.26677l-0.07781,0l0,0.13377l0.04866,0l-0.09732,0.33365l-0.09731,-0.33365l0.04865,0l0,-0.13377l-0.07781,0l0,-0.26677l-0.03901,0l0,0.16682l-0.09732,-0.33365z" opacity="0.8" stroke-linecap="null" stroke-linejoin="null" stroke-dasharray="null" stroke-width="0.2" fill="#ffffff"/>
  <path id="svg_156" stroke="#f9f2f2" d="m382.86822,228.16009l0.09732,-0.33364l0,0.16682l0.03901,0l0,-0.26678l0.07781,0l0,-0.13377l-0.04865,0l0.09731,-0.33365l0.09732,0.33365l-0.04866,0l0,0.13377l0.07781,0l0,0.26678l0.03902,0l0,-0.16682l0.09731,0.33364l-0.09731,0.33365l0,-0.16682l-0.03902,0l0,0.26677l-0.07781,0l0,0.13377l0.04866,0l-0.09732,0.33365l-0.09731,-0.33365l0.04865,0l0,-0.13377l-0.07781,0l0,-0.26677l-0.03901,0l0,0.16682l-0.09732,-0.33365z" opacity="0.8" stroke-linecap="null" stroke-linejoin="null" stroke-dasharray="null" stroke-width="0.2" fill="#ffffff"/>
  <path id="svg_157" stroke="#f9f2f2" d="m374.81439,234.60688l0.48772,0.68177l0,-0.34088l0.19549,0l0,0.54515l0.38995,0l0,0.27334l-0.24381,0l0.48766,0.6818l0.48772,-0.6818l-0.24386,0l0,-0.27334l0.38995,0l0,-0.54515l0.19554,0l0,0.34088l0.48767,-0.68177l-0.48767,-0.68179l0,0.34089l-0.19554,0l0,-0.54513l-0.38995,0l0,-0.27335l0.24386,0l-0.48772,-0.68179l-0.48766,0.68179l0.24381,0l0,0.27335l-0.38995,0l0,0.54513l-0.19549,0l0,-0.34089l-0.48772,0.68179z" opacity="0.8" stroke-linecap="null" stroke-linejoin="null" stroke-dasharray="null" stroke-width="0.2" fill="#ffffff"/>
  <path id="svg_158" stroke="#f9f2f2" transform="rotate(-1.9383249282836914 383.819030761719,149.1786193847656) " d="m383.55624,149.17861l0.09732,-0.33364l0,0.16682l0.03901,0l0,-0.26678l0.07781,0l0,-0.13377l-0.04865,0l0.09731,-0.33365l0.09732,0.33365l-0.04866,0l0,0.13377l0.07781,0l0,0.26678l0.03902,0l0,-0.16682l0.09731,0.33364l-0.09731,0.33365l0,-0.16682l-0.03902,0l0,0.26677l-0.07781,0l0,0.13377l0.04866,0l-0.09732,0.33365l-0.09731,-0.33365l0.04865,0l0,-0.13377l-0.07781,0l0,-0.26677l-0.03901,0l0,0.16682l-0.09732,-0.33365z" opacity="0.8" stroke-linecap="null" stroke-linejoin="null" stroke-dasharray="null" stroke-width="0.2" fill="#ffffff"/>
  <path id="svg_159" stroke="#deea38" transform="rotate(-1.9383249282836914 372.4943237304664,279.76208496093767) " d="m372.23153,279.76211l0.09732,-0.33364l0,0.16682l0.03901,0l0,-0.26678l0.07781,0l0,-0.13377l-0.04865,0l0.09731,-0.33365l0.09732,0.33365l-0.04866,0l0,0.13377l0.07781,0l0,0.26678l0.03902,0l0,-0.16682l0.09731,0.33364l-0.09731,0.33365l0,-0.16682l-0.03902,0l0,0.26677l-0.07781,0l0,0.13377l0.04866,0l-0.09732,0.33365l-0.09731,-0.33365l0.04865,0l0,-0.13377l-0.07781,0l0,-0.26677l-0.03901,0l0,0.16682l-0.09732,-0.33365z" opacity="0.8" stroke-linecap="null" stroke-linejoin="null" stroke-dasharray="null" stroke-width="0.2" fill="#ffffff"/>
  <path id="svg_160" stroke="#f9f2f2" transform="rotate(-1.9383249282836914 382.13153076171983,313.2879943847641) " d="m381.86874,313.28798l0.09732,-0.33364l0,0.16682l0.03901,0l0,-0.26678l0.07781,0l0,-0.13377l-0.04865,0l0.09731,-0.33365l0.09732,0.33365l-0.04866,0l0,0.13377l0.07781,0l0,0.26678l0.03902,0l0,-0.16682l0.09731,0.33364l-0.09731,0.33365l0,-0.16682l-0.03902,0l0,0.26677l-0.07781,0l0,0.13377l0.04866,0l-0.09732,0.33365l-0.09731,-0.33365l0.04865,0l0,-0.13377l-0.07781,0l0,-0.26677l-0.03901,0l0,0.16682l-0.09732,-0.33365z" opacity="0.8" stroke-linecap="null" stroke-linejoin="null" stroke-dasharray="null" stroke-width="0.2" fill="#ffffff"/>
  <path stroke="#f9f2f2" id="svg_161" transform="rotate(-1.9383249282836914 375.64251708984085,325.39425659179676) " d="m371.08398,325.39424l1.68812,-0.158l0,0.079l0.67667,0l0,-0.12634l1.3497,0l0,-0.06334l-0.84389,0l1.68795,-0.158l1.68812,0.158l-0.84406,0l0,0.06334l1.3497,0l0,0.12634l0.67684,0l0,-0.079l1.68795,0.158l-1.68795,0.158l0,-0.079l-0.67684,0l0,0.12633l-1.3497,0l0,0.06335l0.84406,0l-1.68812,0.158l-1.68795,-0.158l0.84389,0l0,-0.06335l-1.3497,0l0,-0.12633l-0.67667,0l0,0.079l-1.68812,-0.158z" opacity="0.5" stroke-linecap="null" stroke-linejoin="null" stroke-dasharray="null" stroke-width="0.2" fill="#ff007f"/>
  <path id="svg_163" stroke="#f9f2f2" transform="rotate(-1.9383249282836914 371.69012451171506,340.8153381347656) " d="m371.42734,340.81533l0.09732,-0.33364l0,0.16683l0.039,0l0,-0.2668l0.07781,0l0,-0.13376l-0.04865,0l0.09731,-0.33364l0.09732,0.33364l-0.04865,0l0,0.13376l0.07781,0l0,0.2668l0.03902,0l0,-0.16683l0.0973,0.33364l-0.0973,0.33364l0,-0.16681l-0.03902,0l0,0.26677l-0.07781,0l0,0.13378l0.04865,0l-0.09732,0.33364l-0.09731,-0.33364l0.04865,0l0,-0.13378l-0.07781,0l0,-0.26677l-0.039,0l0,0.16681l-0.09732,-0.33364z" opacity="0.8" stroke-linecap="null" stroke-linejoin="null" stroke-dasharray="null" stroke-width="0.2" fill="#ffffff"/>
  <path id="svg_178" stroke="#f9f2f2" transform="rotate(-1.9383249282836914 382.975280761714,250.6593627929696) " d="m382.71249,250.65935l0.09732,-0.33364l0,0.16683l0.039,0l0,-0.2668l0.07781,0l0,-0.13376l-0.04865,0l0.09731,-0.33364l0.09732,0.33364l-0.04865,0l0,0.13376l0.07781,0l0,0.2668l0.03902,0l0,-0.16683l0.0973,0.33364l-0.0973,0.33364l0,-0.16681l-0.03902,0l0,0.26677l-0.07781,0l0,0.13378l0.04865,0l-0.09732,0.33364l-0.09731,-0.33364l0.04865,0l0,-0.13378l-0.07781,0l0,-0.26677l-0.039,0l0,0.16681l-0.09732,-0.33364z" opacity="0.8" stroke-linecap="null" stroke-linejoin="null" stroke-dasharray="null" stroke-width="0.2" fill="#ffffff"/>
  <path id="svg_179" stroke="#f9f2f2" transform="rotate(-1.9383249282836914 382.9027709960914,290.62539672851614) " d="m382.63999,290.62539l0.09732,-0.33364l0,0.16683l0.039,0l0,-0.2668l0.07781,0l0,-0.13376l-0.04865,0l0.09731,-0.33364l0.09732,0.33364l-0.04865,0l0,0.13376l0.07781,0l0,0.2668l0.03902,0l0,-0.16683l0.0973,0.33364l-0.0973,0.33364l0,-0.16681l-0.03902,0l0,0.26677l-0.07781,0l0,0.13378l0.04865,0l-0.09732,0.33364l-0.09731,-0.33364l0.04865,0l0,-0.13378l-0.07781,0l0,-0.26677l-0.039,0l0,0.16681l-0.09732,-0.33364z" opacity="0.8" stroke-linecap="null" stroke-linejoin="null" stroke-dasharray="null" stroke-width="0.2" fill="#ffffff"/>
  <path stroke="#000000" id="svg_203" fill="#ffaaaa" stroke-width="0" stroke-dasharray="null" stroke-linejoin="null" stroke-linecap="null" d="m265.28405,280.20004l7.76359,-36.35155l7.76359,36.35155l-15.52719,0l0.00001,0z" transform="rotate(-172.53396606445312 273.0476379394531,262.0242614746094) "/>
  <path stroke="#ef7373" id="svg_204" fill="#ffd4aa" stroke-width="0" stroke-dasharray="null" stroke-linejoin="null" stroke-linecap="null" d="m265.19457,276.65533l6.00667,-33.57665l6.00667,33.57665l-12.01334,0l0.00001,0l-0.00001,0z" transform="rotate(-171.87158203125 271.20123291015625,259.86700439453125) "/>
  <path stroke="#ef7373" id="svg_205" fill="#ffd4aa" stroke-width="0" stroke-dasharray="null" stroke-linejoin="null" stroke-linecap="null" d="m266.69137,277.40021l6.49513,-33.57664l6.49511,33.57664l-12.99025,0l0.00001,0z" transform="rotate(-171.87158203125 273.1864929199219,260.61187744140625) "/>
  <rect stroke="#000000" id="svg_112" transform="rotate(-90.77033233642578 304.5359191894532,249.03721618652347) " opacity="0.3" height="2.40675" width="179.44897" y="247.83385" x="214.81144" stroke-linecap="null" stroke-linejoin="null" stroke-dasharray="null" stroke-width="0" fill="#e0418e"/>
  <rect stroke="#000000" id="svg_121" transform="rotate(-90.77033233642578 304.6218566894532,122.8931655883789) " opacity="0.3" height="2.40675" width="10.8956" y="121.6898" x="299.17404" stroke-linecap="null" stroke-linejoin="null" stroke-dasharray="null" stroke-width="0" fill="#e0418e"/>
  <path id="svg_207" stroke="#f9f2f2" d="m326.72064,120.38422l0.48772,0.68177l0,-0.34088l0.19549,0l0,0.54515l0.38995,0l0,0.27334l-0.24381,0l0.48766,0.6818l0.48772,-0.6818l-0.24386,0l0,-0.27334l0.38995,0l0,-0.54515l0.19554,0l0,0.34088l0.48767,-0.68177l-0.48767,-0.68179l0,0.34089l-0.19554,0l0,-0.54513l-0.38995,0l0,-0.27335l0.24386,0l-0.48772,-0.68179l-0.48766,0.68179l0.24381,0l0,0.27335l-0.38995,0l0,0.54513l-0.19549,0l0,-0.34089l-0.48772,0.68179z" opacity="0.8" stroke-linecap="null" stroke-linejoin="null" stroke-dasharray="null" stroke-width="0.2" fill="#ffffff"/>
  <path id="svg_208" stroke="#f9f2f2" d="m346.33783,138.10297l0.48772,0.68177l0,-0.34088l0.19549,0l0,0.54515l0.38995,0l0,0.27334l-0.24381,0l0.48766,0.6818l0.48772,-0.6818l-0.24386,0l0,-0.27334l0.38995,0l0,-0.54515l0.19554,0l0,0.34088l0.48767,-0.68177l-0.48767,-0.68179l0,0.34089l-0.19554,0l0,-0.54513l-0.38995,0l0,-0.27335l0.24386,0l-0.48772,-0.68179l-0.48766,0.68179l0.24381,0l0,0.27335l-0.38995,0l0,0.54513l-0.19549,0l0,-0.34089l-0.48772,0.68179z" opacity="0.8" stroke-linecap="null" stroke-linejoin="null" stroke-dasharray="null" stroke-width="0.2" fill="#ffffff"/>
  <path id="svg_209" stroke="#f9f2f2" d="m346.02142,120.06781l0.48772,0.68177l0,-0.34088l0.19549,0l0,0.54515l0.38995,0l0,0.27334l-0.24381,0l0.48766,0.6818l0.48772,-0.6818l-0.24386,0l0,-0.27334l0.38995,0l0,-0.54515l0.19554,0l0,0.34088l0.48767,-0.68177l-0.48767,-0.68179l0,0.34089l-0.19554,0l0,-0.54513l-0.38995,0l0,-0.27335l0.24386,0l-0.48772,-0.68179l-0.48766,0.68179l0.24381,0l0,0.27335l-0.38995,0l0,0.54513l-0.19549,0l0,-0.34089l-0.48772,0.68179z" opacity="0.8" stroke-linecap="null" stroke-linejoin="null" stroke-dasharray="null" stroke-width="0.2" fill="#ffffff"/>
 </g>
</svg>
