<svg width="480.0000000000001" height="620" xmlns="http://www.w3.org/2000/svg" xmlns:svg="http://www.w3.org/2000/svg">
 <!-- Created with SVG-edit - http://svg-edit.googlecode.com/ -->
 <g>
  <title>Layer 1</title>
  <rect stroke="#000000" id="svg_6" height="267.90509" width="298.68751" y="96.08245" x="115.30939" stroke-linecap="null" stroke-linejoin="null" stroke-dasharray="null" stroke-width="0" fill="#bf37bf"/>
  <ellipse fill="#ff00ff" stroke-width="0" cx="254.90893" cy="240.5854" rx="42.34299" ry="78.15338" opacity="0.9" id="svg_13" stroke="#000000"/>
  <rect stroke="#000000" id="svg_48" height="215.49999" width="62.41668" y="148.13334" x="304.99998" stroke-linecap="null" stroke-linejoin="null" stroke-dasharray="null" stroke-width="0" fill="#f484f4"/>
  <rect stroke="#000000" height="214.5833" width="1" y="148.71669" x="332.33335" stroke-linecap="null" stroke-linejoin="null" stroke-dasharray="null" stroke-width="0" fill="#ed34ed" id="svg_57"/>
  <rect height="217.24998" width="2.5" y="145.30001" x="371.25" stroke-linecap="null" stroke-linejoin="null" stroke-dasharray="null" stroke-width="0" fill="#7f007f" id="svg_16" opacity="0.1" stroke="#000000"/>
  <rect stroke="#000000" id="svg_44" height="250.99998" width="18" y="112.80001" x="392" stroke-linecap="null" stroke-linejoin="null" stroke-dasharray="null" stroke-width="0" fill="#e006e0"/>
  <ellipse stroke="#000000" fill="#dcc8f7" stroke-width="0" stroke-dasharray="null" stroke-linejoin="null" stroke-linecap="null" opacity="0.8" cx="150.36094" cy="132.20779" id="svg_60" rx="32.36719" ry="34.42969"/>
  <rect id="svg_49" height="217.24999" width="16.83336" y="145.80001" x="129.41667" stroke-linecap="null" stroke-linejoin="null" stroke-dasharray="null" stroke-width="0" fill="#f76cf7" stroke="#000000"/>
  <ellipse stroke="#000000" fill="#8116fc" stroke-width="0" stroke-dasharray="null" stroke-linejoin="null" stroke-linecap="null" opacity="0.8" cx="150.61875" cy="131.97342" rx="30.1875" ry="32.22656" id="svg_61"/>
  <rect stroke="#000000" id="svg_73" height="204.8333" width="16.5" y="155.96669" x="311.25" stroke-linecap="null" stroke-linejoin="null" stroke-dasharray="null" stroke-width="0" fill="#cc47cc"/>
  <rect id="svg_43" height="207.0833" width="15" y="156.71669" x="312" stroke-linecap="null" stroke-linejoin="null" stroke-dasharray="null" stroke-width="0" fill="#ed34ed" stroke="#000000"/>
  <ellipse id="svg_33" stroke="#000000" fill="#dcc8f7" stroke-width="0" stroke-dasharray="null" stroke-linejoin="null" stroke-linecap="null" opacity="0.8" cx="385.48594" cy="335.83279" rx="27.49219" ry="28.80469"/>
  <ellipse id="svg_37" stroke="#000000" fill="#dcc8f7" stroke-width="0" stroke-dasharray="null" stroke-linejoin="null" stroke-linecap="null" opacity="0.8" cx="386.23594" cy="242.08279" rx="27.49219" ry="28.80469"/>
  <ellipse id="svg_36" stroke="#000000" fill="#ff007f" stroke-width="0" stroke-dasharray="null" stroke-linejoin="null" stroke-linecap="null" opacity="0.8" cx="385.36875" cy="334.84842" rx="26.4375" ry="26.60156"/>
  <ellipse id="svg_62" stroke="#000000" fill="#8116fc" stroke-width="0" stroke-dasharray="null" stroke-linejoin="null" stroke-linecap="null" opacity="0.8" cx="386.86875" cy="241.84842" rx="26.4375" ry="26.60156"/>
  <rect stroke="#000000" id="svg_42" height="209.00001" width="25.75" y="155.79998" x="338.25" stroke-linecap="null" stroke-linejoin="null" stroke-dasharray="null" stroke-width="0" fill="#ff00ff"/>
  <ellipse stroke="#000000" fill="#ffaaaa" stroke-width="0" cx="247.97143" cy="239.4334" rx="47.00348" ry="89.77838" id="svg_126" opacity="0.9"/>
  <rect id="svg_46" height="218.48454" width="32.65433" y="145.31545" x="132.34568" stroke-linecap="null" stroke-linejoin="null" stroke-dasharray="null" stroke-width="0" fill="#f7a8ce" stroke="#000000"/>
  <ellipse stroke="#000000" fill="#ffd4aa" stroke-width="0" cx="241.11398" cy="239.27942" id="svg_1" rx="45.22571" ry="89.77838"/>
  <rect fill="#ffffff" stroke-width="0" stroke-dasharray="null" stroke-linejoin="null" stroke-linecap="null" x="203.09618" y="283.05399" width="20" height="17" id="svg_14" stroke="#000000"/>
  <path fill="#ffd4aa" stroke="#000000" stroke-width="0" stroke-dasharray="null" stroke-linejoin="null" stroke-linecap="null" opacity="0.5" d="m225.01643,275.49294c0,0 3.79687,5.0625 6.32812,4.42969c2.53125,-0.63281 7.27735,0 7.22576,-0.2195c-0.05158,-0.21951 5.43049,-4.21019 5.37891,-4.42969" id="svg_8"/>
  <path stroke="#000000" id="svg_4" d="m198.41938,259.30004c0,0 3.55981,13.54389 1.7799,16.73069c-1.7799,3.1868 -1.7799,7.967 -2.19524,7.18794c-0.41533,-0.77906 11.09475,1.57576 10.67942,0.7967" stroke-linecap="null" stroke-linejoin="null" stroke-dasharray="null" stroke-width="0" fill="#ffd4aa"/>
  <path stroke="#000000" transform="rotate(174.20925903320312 207.39276123046875,305.4136657714843) " id="svg_5" d="m200.44963,292.97584c0,0 5.01916,13.5439 2.50958,16.73069c-2.50958,3.1868 -2.50958,7.967 -3.09519,7.18794c-0.5856,-0.77906 15.6431,1.57576 15.0575,0.7967" stroke-linecap="null" stroke-linejoin="null" stroke-dasharray="null" stroke-width="0" fill="#ffd4aa"/>
  <ellipse ry="19.59375" rx="26.46875" cy="312.96875" cx="226.98125" stroke-linecap="null" stroke-linejoin="null" stroke-dasharray="null" stroke-width="0" fill="#7f00ff" id="svg_22" stroke="#000000"/>
  <ellipse stroke="#000000" ry="21" rx="29" id="svg_10" cy="311" cx="231.2" stroke-linecap="null" stroke-linejoin="null" stroke-dasharray="null" stroke-width="0" fill="#ffd4aa"/>
  <ellipse stroke="#000000" fill="#ffd4aa" stroke-width="0" cx="238.85704" cy="210.13594" rx="44.53126" ry="22.12499" id="svg_7"/>
  <ellipse stroke="#000000" opacity="0.1" ry="9.5" rx="12.50001" id="svg_11" cy="226.5" cx="224.7" stroke-linecap="null" stroke-linejoin="null" stroke-dasharray="null" stroke-width="0" fill="#7f007f"/>
  <path d="m223.71496,221.16315l13.23748,7.88746l-14.0625,5.625c0,0 -10.98748,-7.88746 -6.48748,-10.69996c4.5,-2.8125 7.3125,-2.8125 7.3125,-2.8125z" stroke-linecap="null" stroke-linejoin="null" stroke-dasharray="null" stroke-width="0" stroke="#000000" fill="#964040" id="svg_134"/>
  <path id="svg_3" d="m222.76252,220.92504l13.23748,7.88746l-14.0625,5.625c0,0 -10.98748,-7.88746 -6.48748,-10.69996c4.5,-2.8125 7.3125,-2.8125 7.3125,-2.8125z" stroke-linecap="null" stroke-linejoin="null" stroke-dasharray="null" stroke-width="0" stroke="#000000" fill="#ffffff"/>
  <path stroke="#000000" d="m205.03308,212.15826l24.8,-2.57143l14,9l11,9l-49.8,-15.42857z" stroke-linecap="null" stroke-linejoin="null" stroke-dasharray="null" stroke-width="0" fill="#0000ff" id="svg_79"/>
  <path stroke="#000000" id="svg_12" d="m201.95254,210.81889l24.8,-2.57143l14,9l11,9l-49.8,-15.42857z" stroke-linecap="null" stroke-linejoin="null" stroke-dasharray="null" stroke-width="0" fill="#7f00ff"/>
  <ellipse fill="#000000" stroke-width="0" stroke-dasharray="null" stroke-linejoin="null" stroke-linecap="null" cx="222.2" cy="225.8" id="svg_23" ry="2" stroke="#000000"/>
  <ellipse fill="#ffd4aa" stroke-width="0" stroke-dasharray="null" stroke-linejoin="null" stroke-linecap="null" cx="215.5163" cy="282.46976" id="svg_24" rx="10.08545" ry="2.37305" stroke="#000000"/>
  <ellipse fill="#ffd4aa" stroke-width="0" stroke-dasharray="null" stroke-linejoin="null" stroke-linecap="null" cx="215.7536" cy="295.04691" rx="10.08545" ry="2.37305" stroke="#000000" id="svg_25" transform="rotate(-12.225204467773438 215.75358581542903,295.04690551757795) "/>
  <ellipse fill="#ffd4aa" stroke-width="0" stroke-dasharray="null" stroke-linejoin="null" stroke-linecap="null" cx="206.82388" cy="281.18138" rx="9.03526" ry="2.9244" transform="rotate(-8.13706111907959 206.82388305664028,281.1813659667969) " id="svg_26" stroke="#000000"/>
  <ellipse fill="#ffd4aa" stroke-width="0" stroke-dasharray="null" stroke-linejoin="null" stroke-linecap="null" cx="207.29849" cy="295.65697" rx="9.03526" ry="2.9244" transform="rotate(4.891592025756836 207.29849243163875,295.65695190429705) " stroke="#000000" id="svg_27"/>
  <path stroke="#000000" id="svg_2" d="m177.12182,259.64451c0,0 -0.7864,4.11328 10.61635,5.0625c11.40274,0.94922 23.98508,3.79688 20.44629,-1.58203c-3.53878,-5.37891 -6.29117,-9.80859 -7.47076,-20.88281c-1.17959,-11.07422 -3.93198,-17.08594 -4.15337,-17.24216c-0.22139,-0.15622 -19.43851,34.6445 -19.43851,34.6445z" stroke-linecap="null" stroke-linejoin="null" stroke-dasharray="null" stroke-width="0" fill="#ffd4aa"/>
  <ellipse fill="#ffaaaa" stroke-width="0" stroke-dasharray="null" stroke-linejoin="null" stroke-linecap="null" cx="259.82777" cy="322.28811" rx="30.91712" ry="10.00603" id="svg_127" opacity="0.9" stroke="#000000"/>
  <ellipse stroke="#000000" fill="#bf37bf" stroke-width="0" stroke-dasharray="null" stroke-linejoin="null" stroke-linecap="null" cx="261.34571" cy="325.03819" rx="30.64924" ry="8.8632" id="svg_59"/>
  <ellipse fill="#ffd4aa" stroke-width="0" stroke-dasharray="null" stroke-linejoin="null" stroke-linecap="null" cx="216.04157" cy="281.30246" rx="8.67776" ry="3.80975" stroke="#000000" id="svg_64"/>
  <polygon id="svg_70" fill="#7f007f"/>
  <polygon id="svg_71" fill="#7f007f"/>
  <rect fill="#7f00ff" stroke-width="0.1" stroke-dasharray="null" stroke-linejoin="null" stroke-linecap="null" x="196.38607" y="268.49041" width="32.17123" height="11.28815" id="svg_91" stroke="#000000"/>
  <path fill="#ffd4aa" stroke-width="0" stroke-dasharray="null" stroke-linejoin="null" stroke-linecap="null" d="m199.05763,281.08793l15.30167,-30.81679l15.30167,30.81679l-30.60334,0z" id="svg_92" transform="rotate(-98.0065689086914 214.3592987060547,265.6795349121094) " stroke="#000000"/>
  <ellipse fill="#ff007f" stroke="#000000" stroke-width="0" stroke-dasharray="null" stroke-linejoin="null" stroke-linecap="null" cx="228.50438" cy="228.56739" id="svg_94" rx="4.51526" ry="3.95085" opacity="0.1"/>
  <ellipse fill="#7f00ff" stroke="#000000" stroke-width="0.1" stroke-dasharray="null" stroke-linejoin="null" stroke-linecap="null" cx="229.86249" cy="271.07433" id="svg_95" rx="9.03052" ry="8.46611"/>
  <ellipse fill="#ffd4aa" stroke-width="0" stroke-dasharray="null" stroke-linejoin="null" stroke-linecap="null" cx="228.19572" cy="270.71717" rx="8.5543" ry="7.15651" id="svg_96" stroke="#000000"/>
  <ellipse fill="#7f00ff" stroke-width="0" stroke-dasharray="null" stroke-linejoin="null" stroke-linecap="null" cx="227.83856" cy="270.00284" rx="5.57793" ry="7.15651" id="svg_97" stroke="#000000"/>
  <ellipse fill="#ffd4aa" stroke-width="0" stroke-dasharray="null" stroke-linejoin="null" stroke-linecap="null" cx="229.74343" cy="270.59811" rx="6.29226" ry="7.03746" id="svg_98" stroke="#000000"/>
  <ellipse fill="#ffd4aa" stroke-width="0" stroke-dasharray="null" stroke-linejoin="null" stroke-linecap="null" cx="230.1006" cy="270.47906" rx="7.36376" ry="7.15651" stroke="#000000" id="svg_99"/>
  <ellipse fill="#7f00ff" stroke-width="0.1" stroke-dasharray="null" stroke-linejoin="null" stroke-linecap="null" cx="229.98155" cy="271.07434" rx="7.2447" ry="6.56124" id="svg_100" stroke="#000000"/>
  <ellipse fill="#ffd4aa" stroke-width="0" stroke-dasharray="null" stroke-linejoin="null" stroke-linecap="null" cx="229.50533" cy="270.59812" rx="5.81605" ry="4.89447" id="svg_101" stroke="#000000"/>
  <ellipse fill="#7f00ff" stroke-width="0.1" stroke-dasharray="null" stroke-linejoin="null" stroke-linecap="null" cx="229.98154" cy="271.31244" rx="4.38739" ry="4.18014" id="svg_102" stroke="#000000"/>
  <ellipse fill="#ffd4aa" stroke-width="0" stroke-dasharray="null" stroke-linejoin="null" stroke-linecap="null" cx="229.26721" cy="271.19339" rx="4.14928" ry="4.2992" id="svg_103" stroke="#000000"/>
  <ellipse fill="#ff007f" stroke-width="0" stroke-dasharray="null" stroke-linejoin="null" stroke-linecap="null" cx="229.21871" cy="228.09116" rx="2.84849" ry="2.5222" opacity="0.1" id="svg_105" stroke="#000000"/>
  <ellipse fill="#ff007f" stroke-dasharray="null" stroke-linejoin="null" stroke-linecap="null" cx="229.81398" cy="228.21022" rx="2.25322" ry="1.92692" opacity="0.5" id="svg_106" stroke="#000000"/>
  <ellipse fill="#7f00ff" stroke-width="0" stroke-dasharray="null" stroke-linejoin="null" stroke-linecap="null" cx="228.22976" cy="278.94203" id="svg_118" rx="4.15203" ry="0.73665" stroke="#000000"/>
  <ellipse stroke="#000000" fill="#f7c18f" stroke-width="0" stroke-dasharray="null" stroke-linejoin="null" stroke-linecap="null" cx="251.78769" cy="168.43295" id="svg_136" rx="3.58167" ry="2.74227"/>
  <ellipse ry="22.78381" rx="32.56761" cy="149.62603" cx="227.90414" stroke-linecap="null" stroke-linejoin="null" stroke-dasharray="null" stroke-width="0" fill="#ff00ff" stroke="#000000" id="svg_129"/>
  <ellipse ry="22.78381" rx="32.56761" cy="148.67359" cx="232.98381" stroke-linecap="null" stroke-linejoin="null" stroke-dasharray="null" stroke-width="0" fill="#7f00ff" id="svg_119" stroke="#000000"/>
  <ellipse ry="12.97287" rx="35.24332" cy="138.86266" cx="248.14617" stroke-linecap="null" stroke-linejoin="null" stroke-dasharray="null" stroke-width="0" fill="#bf37bf" id="svg_120" stroke="#000000"/>
  <ellipse ry="16.85752" rx="12.24894" cy="169.83886" cx="272.49235" stroke-linecap="null" stroke-linejoin="null" stroke-dasharray="null" stroke-width="0" fill="#ff00ff" stroke="#000000" id="svg_130"/>
  <ellipse ry="16.85752" rx="12.24894" cy="168.71005" cx="271.92794" stroke-linecap="null" stroke-linejoin="null" stroke-dasharray="null" stroke-width="0" fill="#7f00ff" id="svg_122" stroke="#000000"/>
  <path fill="#ff0000" stroke-width="0" stroke-dasharray="null" stroke-linejoin="null" stroke-linecap="null" d="m261.15926,170.07198l5.70306,-35.15452l5.70306,35.15452l-11.40612,0z" transform="rotate(22.458948135375977 266.86230468750006,152.49472045898435) " id="svg_131" opacity="0.5" stroke="#000000"/>
  <path fill="#ffd4aa" stroke-width="0" stroke-dasharray="null" stroke-linejoin="null" stroke-linecap="null" d="m254.44515,188.30033l8.05026,-51.87543l8.05026,51.87543l-16.10052,0z" id="svg_117" transform="rotate(22.458948135375977 262.49542236328125,162.3626098632813) " stroke="#000000"/>
  <path stroke="#000000" fill="#e09de0" stroke-width="0" stroke-dasharray="null" stroke-linejoin="null" stroke-linecap="null" d="m265.03565,177.51463l1.52353,-39.52268l1.52353,39.52268l-3.04707,0l0.00001,0z" id="svg_132" transform="rotate(15.478888511657715 266.55917358398426,157.75328063964832) "/>
  <ellipse fill="#e09de0" stroke-width="0" stroke-dasharray="null" stroke-linejoin="null" stroke-linecap="null" cx="263.26884" cy="169.77358" id="svg_133" rx="1.37206" ry="0.63496" transform="rotate(15.623745918273926 263.26879882812494,169.77357482910153) " stroke="#000000"/>
  <path stroke="#000000" fill="#f7c18f" stroke-width="0" stroke-dasharray="null" stroke-linejoin="null" stroke-linecap="null" d="m259.67912,174.25452l1.0245,-33.78519l1.0245,33.78519l-2.04899,0l0,0l-0.00001,0z" transform="rotate(30.75926971435547 260.70361328125006,157.36193847656247) " id="svg_135"/>
  <path transform="rotate(8.954041481018066 276.93029785156267,226.61489868164057) " stroke="#000000" id="svg_9" d="m268.53927,244.79067l8.39104,-36.35155l8.39104,36.35155l-16.78208,0z" stroke-linecap="null" stroke-linejoin="null" stroke-dasharray="null" stroke-width="0" fill="#ffaaaa"/>
  <ellipse ry="8.4375" id="svg_15" cy="262.64687" cx="281.31559" opacity="0.5" stroke-linecap="null" stroke-linejoin="null" stroke-dasharray="null" stroke-width="0" stroke="#000000" fill="#ffaaaa"/>
  <path stroke="#ef7373" transform="rotate(9.013467788696289 271.44281005859403,232.96142578125014) " id="svg_17" d="m265.4185,252.34285l6.02431,-38.76285l6.02431,38.76285l-12.04861,0l-0.00001,0z" stroke-linecap="null" stroke-linejoin="null" stroke-dasharray="null" stroke-width="0" fill="#ffd4aa"/>
  <path stroke="#ef7373" id="svg_19" transform="rotate(10.263007164001465 274.88754272460915,237.22564697265634) " d="m266.86869,258.62252l8.01885,-42.79376l8.01885,42.79376l-16.03771,0l0.00001,0z" stroke-linecap="null" stroke-linejoin="null" stroke-dasharray="null" stroke-width="0" fill="#ffd4aa"/>
  <rect transform="rotate(47.324459075927734 281.17797851562494,319.9587707519531) " id="svg_20" height="14.19153" width="20.39906" y="312.86302" x="270.97846" stroke-linecap="null" stroke-linejoin="null" stroke-dasharray="null" stroke-width="0" fill="#bf37bf" stroke="#000000"/>
  <path stroke="#000000" transform="rotate(109.00371551513672 199.87782287597656,206.7357635498047) " id="svg_21" d="m197.92532,205.84796l10.67434,1.03646l-11.33962,0.73916c0,0 -8.86,-1.03646 -5.23133,-1.40603c3.62868,-0.36958 5.8966,-0.36958 5.8966,-0.36958l0.00001,-0.00001z" stroke-linecap="null" stroke-linejoin="null" stroke-dasharray="null" stroke-width="0" fill="#f9b1b1"/>
  <rect stroke="#000000" id="svg_29" height="0.3002" width="9.81107" y="289.0051" x="202.9102" stroke-linecap="null" stroke-linejoin="null" stroke-dasharray="null" stroke-width="0.05" fill="#000000"/>
  <rect stroke="#000000" transform="rotate(-5.079995155334473 217.6097259521477,288.65020751953125) " id="svg_31" height="0.26179" width="10.78684" y="288.51932" x="212.2163" stroke-linecap="null" stroke-linejoin="null" stroke-dasharray="null" stroke-width="0.05" fill="#000000"/>
  <path transform="rotate(179.16310119628906 217.84933471679688,289.2448120117188) " id="svg_30" d="m216.34763,290.55878l1.5017,-2.62797l1.5017,2.62797l-3.00339,0l-0.00001,0z" stroke-linecap="null" stroke-linejoin="null" stroke-dasharray="null" stroke-width="0.3" stroke="#000000" fill="#ffffff"/>
  <path stroke="#000000" id="svg_32" transform="rotate(-6.533205986022949 217.86593627929705,287.048828125) " d="m214.61237,288.36283l3.25357,-2.62797l3.25359,2.62797l-6.50716,0z" stroke-linecap="null" stroke-linejoin="null" stroke-dasharray="null" stroke-width="0" fill="#ffffff"/>
  <rect id="svg_38" height="217.18827" width="23" y="146.61172" x="141" stroke-linecap="null" stroke-linejoin="null" stroke-dasharray="null" stroke-width="0" fill="#d820d8" stroke="#000000"/>
  <ellipse fill="#ffffff" stroke-width="0" stroke-dasharray="null" stroke-linejoin="null" stroke-linecap="null" opacity="0.4" cx="349.99998" cy="343.1998" rx="6" ry="6.66661" stroke="#000000" id="svg_55"/>
  <rect stroke="#000000" transform="rotate(90.13925170898438 263.4752502441406,352.3807373046875) " id="svg_39" height="298.9896" width="3.00007" y="202.88592" x="261.97522" stroke-linecap="null" stroke-linejoin="null" stroke-dasharray="null" stroke-width="0" fill="#e1ccf9"/>
  <rect id="svg_40" stroke="#000000" transform="rotate(90.13925170898438 264.4752502441406,358.3807067871094) " height="298.9896" width="3.00007" y="208.88592" x="262.97522" stroke-linecap="null" stroke-linejoin="null" stroke-dasharray="null" stroke-width="0" fill="#8116fc"/>
  <ellipse stroke="#000000" id="svg_66" fill="#dcc8f7" stroke-width="0" stroke-dasharray="null" stroke-linejoin="null" stroke-linecap="null" opacity="0.8" cx="293.98594" cy="118.33279" rx="19.99219" ry="20.55469"/>
  <ellipse stroke="#000000" id="svg_67" fill="#bf37bf" stroke-width="0" stroke-dasharray="null" stroke-linejoin="null" stroke-linecap="null" cx="297.61875" cy="117.34842" rx="18.1875" ry="17.60156"/>
  <rect id="svg_41" stroke="#000000" transform="rotate(90.13925170898438 264.4752502441406,113.71405029296876) " height="298.9896" width="3.00007" y="-35.78075" x="262.97522" stroke-linecap="null" stroke-linejoin="null" stroke-dasharray="null" stroke-width="0" fill="#d8bdf9"/>
  <ellipse id="svg_63" stroke="#000000" fill="#dcc8f7" stroke-width="0" stroke-dasharray="null" stroke-linejoin="null" stroke-linecap="null" opacity="0.8" cx="387.73594" cy="152.08279" rx="27.49219" ry="28.80469"/>
  <ellipse id="svg_65" stroke="#000000" fill="#ff007f" stroke-width="0" stroke-dasharray="null" stroke-linejoin="null" stroke-linecap="null" opacity="0.8" cx="388.36875" cy="151.84842" rx="26.4375" ry="26.60156"/>
  <rect stroke="#000000" id="svg_50" height="258.31247" width="1.00001" y="112.60666" x="398.33267" stroke-linecap="null" stroke-linejoin="null" stroke-dasharray="null" stroke-width="0" fill="#f76cf7"/>
  <rect stroke="#000000" id="svg_51" transform="rotate(90.13925170898438 264.4691162109375,117.22444152832031) " height="298.9896" width="0.18756" y="-32.27036" x="264.37534" stroke-linecap="null" stroke-linejoin="null" stroke-dasharray="null" stroke-width="0" fill="#af7fe2"/>
  <rect height="217.24998" width="2.5" y="146.05001" x="133.5" stroke-linecap="null" stroke-linejoin="null" stroke-dasharray="null" stroke-width="0" fill="#7f007f" opacity="0.1" stroke="#000000" id="svg_18"/>
  <ellipse id="svg_68" fill="#ffffff" stroke-width="0" stroke-dasharray="null" stroke-linejoin="null" stroke-linecap="null" opacity="0.4" cx="154.00001" cy="164.61667" rx="8.66667" ry="8.66667" stroke="#000000"/>
  <ellipse fill="#ff007f" stroke-width="0" stroke-dasharray="null" stroke-linejoin="null" stroke-linecap="null" opacity="0.4" cx="153.25001" cy="163.86667" id="svg_28" rx="8.66667" ry="8.66667" stroke="#000000"/>
  <ellipse id="svg_69" fill="#ffffff" stroke-width="0" stroke-dasharray="null" stroke-linejoin="null" stroke-linecap="null" opacity="0.4" cx="154.00001" cy="247.11667" rx="8.66667" ry="8.66667" stroke="#000000"/>
  <ellipse fill="#ff007f" stroke-width="0" stroke-dasharray="null" stroke-linejoin="null" stroke-linecap="null" opacity="0.4" cx="153.43751" cy="246.55417" rx="8.66667" ry="8.66667" stroke="#000000" id="svg_35"/>
  <ellipse fill="#ffffff" stroke-width="0" stroke-dasharray="null" stroke-linejoin="null" stroke-linecap="null" opacity="0.4" cx="319.33332" cy="171.1998" rx="6" ry="6.66661" id="svg_45" stroke="#000000"/>
  <ellipse fill="#ffffff" stroke-width="0" stroke-dasharray="null" stroke-linejoin="null" stroke-linecap="null" opacity="0.4" cx="348.66665" cy="199.1998" rx="6" ry="6.66661" stroke="#000000" id="svg_47"/>
  <ellipse fill="#ffffff" stroke-width="0" stroke-dasharray="null" stroke-linejoin="null" stroke-linecap="null" opacity="0.4" cx="319.33332" cy="257.86647" rx="6" ry="6.66661" stroke="#000000" id="svg_52"/>
  <ellipse fill="#ffffff" stroke-width="0" stroke-dasharray="null" stroke-linejoin="null" stroke-linecap="null" opacity="0.4" cx="349.99998" cy="284.53313" rx="6" ry="6.66661" stroke="#000000" id="svg_53"/>
  <ellipse fill="#ffffff" stroke-width="0" stroke-dasharray="null" stroke-linejoin="null" stroke-linecap="null" opacity="0.4" cx="320.66665" cy="321.86646" rx="6" ry="6.66661" stroke="#000000" id="svg_54"/>
  <rect stroke="#000000" transform="rotate(90.13925170898438 263.14190673828125,105.04736328125001) " height="298.9896" width="3.00007" y="-44.44741" x="261.64189" stroke-linecap="null" stroke-linejoin="null" stroke-dasharray="null" stroke-width="0" fill="#8116fc" id="svg_58"/>
  <ellipse id="svg_72" fill="#ffffff" stroke-width="0" stroke-dasharray="null" stroke-linejoin="null" stroke-linecap="null" opacity="0.4" cx="154.18751" cy="332.80417" rx="8.66667" ry="8.66667" stroke="#000000"/>
  <ellipse stroke="#000000" fill="#ff007f" stroke-width="0" stroke-dasharray="null" stroke-linejoin="null" stroke-linecap="null" opacity="0.4" cx="153.25" cy="332.61666" rx="9.25" ry="8.66667" id="svg_34"/>
 </g>
</svg>
