<svg width="480.00000000000017" height="620" xmlns="http://www.w3.org/2000/svg" xmlns:svg="http://www.w3.org/2000/svg">
 <!-- Created with SVG-edit - http://svg-edit.googlecode.com/ -->
 <g stroke="null">
  <title>Layer 1</title>
  <rect id="svg_6" height="242.40509" width="298.68751" y="109.17369" x="114.19929" stroke-linecap="null" stroke-linejoin="null" stroke-dasharray="null" stroke-width="2" fill="#bf37bf" stroke="#d4aaff"/>
  <rect height="8.39233" width="16.78878" y="122.00604" x="300.74363" stroke-linecap="null" stroke-linejoin="null" stroke-dasharray="null" stroke-width="0.5" fill="#f484f4" id="svg_180" transform="rotate(89.0655517578125 309.1380310058594,126.20221710205078) " stroke="#fbafff"/>
  <rect id="svg_51" transform="rotate(90.13925170898438 264.4691162109375,117.22444152832031) " height="298.9896" width="0.18756" y="-32.27036" x="264.37534" stroke-linecap="null" stroke-linejoin="null" stroke-dasharray="null" stroke-width="0" fill="#af7fe2" stroke="#000000"/>
  <rect height="252.0833" width="7.5" y="109.46669" x="166.5" stroke-linecap="null" stroke-linejoin="null" stroke-dasharray="null" stroke-width="0" fill="#ed34ed" id="svg_183" stroke="#000000"/>
  <rect height="1.6501" width="30.30762" y="131.65847" x="350.642" stroke-linecap="null" stroke-linejoin="null" stroke-dasharray="null" stroke-width="0.5" fill="#f484f4" transform="rotate(89.0655517578125 365.7958068847656,132.48353576660156) " id="svg_181" stroke="#fbafff"/>
  <rect stroke="#f9f2f2" id="svg_211" height="230.00001" width="23" y="118.99999" x="392" stroke-linecap="null" stroke-linejoin="null" stroke-dasharray="null" stroke-width="0" fill="#ffffff"/>
  <rect fill="#ff007f" stroke-width="0" stroke-dasharray="null" stroke-linejoin="null" stroke-linecap="null" x="124.4323" y="98.66667" width="280.04166" height="18.66667" id="svg_74" opacity="0.6" stroke="#000000"/>
  <rect height="246.60955" width="2.84183" y="117.74906" x="386.4668" stroke-linecap="null" stroke-linejoin="null" stroke-dasharray="null" stroke-width="0" fill="#f7a8ce" id="svg_144" opacity="0.9" stroke="#000000"/>
  <ellipse fill="#ff00ff" stroke-width="0" cx="254.34643" cy="240.5854" rx="42.34299" ry="78.15338" opacity="0.9" id="svg_13" stroke="#000000"/>
  <rect id="svg_48" height="215.49999" width="62.41668" y="148.13334" x="304.99998" stroke-linecap="null" stroke-linejoin="null" stroke-dasharray="null" stroke-width="0.5" fill="#f484f4" stroke="#fbafff"/>
  <rect fill="#f779b6" stroke-width="0" stroke-dasharray="null" stroke-linejoin="null" stroke-linecap="null" x="114.11979" y="351.79167" width="293.54167" height="12.10417" opacity="0.6" id="svg_206" stroke="#000000"/>
  <rect height="214.5833" width="1" y="148.71669" x="332.33335" stroke-linecap="null" stroke-linejoin="null" stroke-dasharray="null" stroke-width="0" fill="#ed34ed" id="svg_57" stroke="#000000"/>
  <rect height="217.24998" width="2.5" y="145.30001" x="371.25" stroke-linecap="null" stroke-linejoin="null" stroke-dasharray="null" stroke-width="0" fill="#7f007f" id="svg_16" opacity="0.1" stroke="#000000"/>
  <rect id="svg_44" height="246.89581" width="18" y="117.82084" x="369.33333" stroke-linecap="null" stroke-linejoin="null" stroke-dasharray="null" stroke-width="0" fill="#a466f4" stroke="#000000"/>
  <rect stroke="#f9f2f2" id="svg_210" height="239.00001" width="23" y="118.99999" x="107" stroke-linecap="null" stroke-linejoin="null" stroke-dasharray="null" stroke-width="0" fill="#ffffff"/>
  <ellipse fill="#dcc8f7" stroke-width="0" stroke-dasharray="null" stroke-linejoin="null" stroke-linecap="null" opacity="0.8" cx="147.69427" cy="125.54112" id="svg_60" rx="27.03386" ry="26.42969" stroke="#000000"/>
  <rect id="svg_49" height="217.24999" width="16.83336" y="145.80001" x="129.41667" stroke-linecap="null" stroke-linejoin="null" stroke-dasharray="null" stroke-width="0" fill="#f76cf7" stroke="#000000"/>
  <ellipse fill="#a466f4" stroke-width="0" stroke-dasharray="null" stroke-linejoin="null" stroke-linecap="null" cx="147.68511" cy="125.20218" rx="26.1875" ry="24.89323" id="svg_61" stroke="#000000"/>
  <rect id="svg_73" height="204.8333" width="16.5" y="155.96669" x="311.25" stroke-linecap="null" stroke-linejoin="null" stroke-dasharray="null" stroke-width="0" fill="#cc47cc" stroke="#000000"/>
  <rect fill="#e0418e" stroke-width="0" stroke-dasharray="null" stroke-linejoin="null" stroke-linecap="null" x="114.6823" y="337.54167" width="300.29166" height="16.60417" opacity="0.6" stroke="#000000" id="svg_107"/>
  <rect id="svg_43" height="207.0833" width="15" y="156.71669" x="312" stroke-linecap="null" stroke-linejoin="null" stroke-dasharray="null" stroke-width="0" fill="#ed34ed" stroke="#000000"/>
  <rect id="svg_42" height="209.00001" width="25.75" y="155.79998" x="338.25" stroke-linecap="null" stroke-linejoin="null" stroke-dasharray="null" stroke-width="0" fill="#ff00ff" stroke="#000000"/>
  <ellipse fill="#ffaaaa" stroke-width="0" cx="245.97143" cy="239.4334" rx="47.00348" ry="89.77838" id="svg_126" opacity="0.9" stroke="#000000"/>
  <rect id="svg_46" height="218.48454" width="32.65433" y="145.31545" x="132.34568" stroke-linecap="null" stroke-linejoin="null" stroke-dasharray="null" stroke-width="0" fill="#f7a8ce" stroke="#000000"/>
  <ellipse fill="#ffd4aa" stroke-width="0" cx="241.47271" cy="239.05602" id="svg_1" rx="45.22571" ry="89.77838" stroke="#000000"/>
  <rect fill="#ffffff" stroke-width="0" stroke-dasharray="null" stroke-linejoin="null" stroke-linecap="null" x="203.68226" y="283.65258" width="21.42661" height="17" id="svg_14" stroke="#000000"/>
  <path fill="#ffd4aa" stroke-width="0" stroke-dasharray="null" stroke-linejoin="null" stroke-linecap="null" opacity="0.5" d="m225.01643,275.49294c0,0 3.79687,5.0625 6.32812,4.42969c2.53125,-0.63281 7.27735,0 7.22576,-0.2195c-0.05158,-0.21951 5.43049,-4.21019 5.37891,-4.42969" id="svg_8" stroke="#000000"/>
  <path id="svg_4" d="m198.41938,259.30004c0,0 3.55981,13.54389 1.7799,16.73069c-1.7799,3.1868 -1.7799,7.967 -2.19524,7.18794c-0.41533,-0.77906 11.09475,1.57576 10.67942,0.7967" stroke-linecap="null" stroke-linejoin="null" stroke-dasharray="null" stroke-width="0" fill="#ffd4aa" stroke="#000000"/>
  <path transform="rotate(174.20925903320312 207.39276123046875,305.4136657714843) " id="svg_5" d="m200.44963,292.97584c0,0 5.01916,13.5439 2.50958,16.73069c-2.50958,3.1868 -2.50958,7.967 -3.09519,7.18794c-0.5856,-0.77906 15.6431,1.57576 15.0575,0.7967" stroke-linecap="null" stroke-linejoin="null" stroke-dasharray="null" stroke-width="0" fill="#ffd4aa" stroke="#000000"/>
  <ellipse ry="19.59375" rx="26.46875" cy="312.96875" cx="226.98125" stroke-linecap="null" stroke-linejoin="null" stroke-dasharray="null" stroke-width="0" fill="#7f00ff" id="svg_22" stroke="#000000"/>
  <ellipse ry="21" rx="29" id="svg_10" cy="311" cx="231.2" stroke-linecap="null" stroke-linejoin="null" stroke-dasharray="null" stroke-width="0" fill="#ffd4aa" stroke="#000000"/>
  <ellipse fill="#ffd4aa" stroke-width="0" cx="241.10704" cy="210.13594" rx="44.53126" ry="22.12499" id="svg_7" stroke="#000000"/>
  <ellipse opacity="0.1" ry="9.5" rx="12.50001" id="svg_11" cy="226.5" cx="224.7" stroke-linecap="null" stroke-linejoin="null" stroke-dasharray="null" stroke-width="0" fill="#7f007f" stroke="#000000"/>
  <path d="m223.71496,221.16315l13.23748,7.88746l-14.0625,5.625c0,0 -10.98748,-7.88746 -6.48748,-10.69996c4.5,-2.8125 7.3125,-2.8125 7.3125,-2.8125z" stroke-linecap="null" stroke-linejoin="null" stroke-dasharray="null" stroke-width="0" fill="#964040" id="svg_134" stroke="#000000"/>
  <path id="svg_3" d="m222.76252,220.92504l13.23748,7.88746l-14.0625,5.625c0,0 -10.98748,-7.88746 -6.48748,-10.69996c4.5,-2.8125 7.3125,-2.8125 7.3125,-2.8125z" stroke-linecap="null" stroke-linejoin="null" stroke-dasharray="null" stroke-width="0" fill="#ffffff" stroke="#000000"/>
  <path d="m205.03308,212.15826l24.8,-2.57143l14,9l11,9l-49.8,-15.42857z" stroke-linecap="null" stroke-linejoin="null" stroke-dasharray="null" stroke-width="0" fill="#0000ff" id="svg_79" stroke="#000000"/>
  <path id="svg_12" d="m201.95254,210.81889l24.8,-2.57143l14,9l11,9l-49.8,-15.42857z" stroke-linecap="null" stroke-linejoin="null" stroke-dasharray="null" stroke-width="0" fill="#7f00ff" stroke="#000000"/>
  <ellipse fill="#000000" stroke-width="0" stroke-dasharray="null" stroke-linejoin="null" stroke-linecap="null" cx="222.2" cy="225.8" id="svg_23" ry="2" stroke="#000000"/>
  <ellipse fill="#ffd4aa" stroke-width="0" stroke-dasharray="null" stroke-linejoin="null" stroke-linecap="null" cx="215.5163" cy="282.46976" id="svg_24" rx="10.08545" ry="2.37305" stroke="#000000"/>
  <ellipse fill="#ffd4aa" stroke-width="0" stroke-dasharray="null" stroke-linejoin="null" stroke-linecap="null" cx="215.7536" cy="295.04691" rx="10.08545" ry="2.37305" id="svg_25" transform="rotate(-12.225204467773438 215.7536010742187,295.0469055175781) " stroke="#000000"/>
  <ellipse fill="#ffd4aa" stroke-width="0" stroke-dasharray="null" stroke-linejoin="null" stroke-linecap="null" cx="206.82388" cy="281.18138" rx="9.03526" ry="2.9244" transform="rotate(-8.13706111907959 206.82388305664028,281.1813659667969) " id="svg_26" stroke="#000000"/>
  <ellipse fill="#ffd4aa" stroke-width="0" stroke-dasharray="null" stroke-linejoin="null" stroke-linecap="null" cx="207.29849" cy="295.65697" rx="9.03526" ry="2.9244" transform="rotate(4.891592025756836 207.2984924316407,295.65698242187494) " id="svg_27" stroke="#000000"/>
  <path id="svg_2" d="m177.12182,259.64451c0,0 -0.7864,4.11328 10.61635,5.0625c11.40274,0.94922 23.98508,3.79688 20.44629,-1.58203c-3.53878,-5.37891 -6.29117,-9.80859 -7.47076,-20.88281c-1.17959,-11.07422 -3.93198,-17.08594 -4.15337,-17.24216c-0.22139,-0.15622 -19.43851,34.6445 -19.43851,34.6445z" stroke-linecap="null" stroke-linejoin="null" stroke-dasharray="null" stroke-width="0" fill="#ffd4aa" stroke="#000000"/>
  <ellipse fill="#ffaaaa" stroke-width="0" stroke-dasharray="null" stroke-linejoin="null" stroke-linecap="null" cx="259.82777" cy="322.28811" rx="30.91712" ry="10.00603" id="svg_127" opacity="0.9" stroke="#000000"/>
  <ellipse fill="#bf37bf" stroke-width="0" stroke-dasharray="null" stroke-linejoin="null" stroke-linecap="null" cx="261.34571" cy="325.03819" rx="30.64924" ry="8.8632" id="svg_59" stroke="#000000"/>
  <ellipse fill="#ffd4aa" stroke-width="0" stroke-dasharray="null" stroke-linejoin="null" stroke-linecap="null" cx="216.04157" cy="281.30246" rx="8.67776" ry="3.80975" id="svg_64" stroke="#000000"/>
  <polygon id="svg_70" fill="#7f007f" stroke="null"/>
  <polygon id="svg_71" fill="#7f007f" stroke="null"/>
  <rect fill="#7f00ff" stroke-width="0.1" stroke-dasharray="null" stroke-linejoin="null" stroke-linecap="null" x="196.38607" y="268.49041" width="32.17123" height="11.28815" id="svg_91" stroke="#ff007f"/>
  <path fill="#ffd4aa" stroke-width="0" stroke-dasharray="null" stroke-linejoin="null" stroke-linecap="null" d="m199.05763,281.08793l15.30167,-30.81679l15.30167,30.81679l-30.60334,0z" id="svg_92" transform="rotate(-98.0065689086914 214.3592987060547,265.6795349121094) " stroke="#000000"/>
  <ellipse fill="#ff007f" stroke-width="0" stroke-dasharray="null" stroke-linejoin="null" stroke-linecap="null" cx="228.50438" cy="228.56739" id="svg_94" rx="4.51526" ry="3.95085" opacity="0.1" stroke="#000000"/>
  <ellipse fill="#7f00ff" stroke-width="0.1" stroke-dasharray="null" stroke-linejoin="null" stroke-linecap="null" cx="229.86249" cy="271.07433" id="svg_95" rx="9.03052" ry="8.46611" stroke="#000000"/>
  <ellipse fill="#ffd4aa" stroke-width="0" stroke-dasharray="null" stroke-linejoin="null" stroke-linecap="null" cx="228.19572" cy="270.71717" rx="8.5543" ry="7.15651" id="svg_96" stroke="#000000"/>
  <ellipse fill="#7f00ff" stroke-width="0" stroke-dasharray="null" stroke-linejoin="null" stroke-linecap="null" cx="227.83856" cy="270.00284" rx="5.57793" ry="7.15651" id="svg_97" stroke="#000000"/>
  <ellipse fill="#ffd4aa" stroke-width="0" stroke-dasharray="null" stroke-linejoin="null" stroke-linecap="null" cx="229.74343" cy="270.59811" rx="6.29226" ry="7.03746" id="svg_98" stroke="#000000"/>
  <ellipse fill="#ffd4aa" stroke-width="0" stroke-dasharray="null" stroke-linejoin="null" stroke-linecap="null" cx="230.1006" cy="270.47906" rx="7.36376" ry="7.15651" id="svg_99" stroke="#000000"/>
  <ellipse fill="#7f00ff" stroke-width="0.1" stroke-dasharray="null" stroke-linejoin="null" stroke-linecap="null" cx="229.98155" cy="271.07434" rx="7.2447" ry="6.56124" id="svg_100" stroke="#000000"/>
  <ellipse fill="#ffd4aa" stroke-width="0" stroke-dasharray="null" stroke-linejoin="null" stroke-linecap="null" cx="229.50533" cy="270.59812" rx="5.81605" ry="4.89447" id="svg_101" stroke="#000000"/>
  <ellipse fill="#7f00ff" stroke-width="0.1" stroke-dasharray="null" stroke-linejoin="null" stroke-linecap="null" cx="229.98154" cy="271.31244" rx="4.38739" ry="4.18014" id="svg_102" stroke="#000000"/>
  <ellipse fill="#ffd4aa" stroke-width="0" stroke-dasharray="null" stroke-linejoin="null" stroke-linecap="null" cx="229.26721" cy="271.19339" rx="4.14928" ry="4.2992" id="svg_103" stroke="#000000"/>
  <ellipse fill="#ff007f" stroke-width="0" stroke-dasharray="null" stroke-linejoin="null" stroke-linecap="null" cx="229.21871" cy="228.09116" rx="2.84849" ry="2.5222" opacity="0.1" id="svg_105" stroke="#000000"/>
  <ellipse fill="#ff007f" stroke-dasharray="null" stroke-linejoin="null" stroke-linecap="null" cx="229.81398" cy="228.21022" rx="2.25322" ry="1.92692" opacity="0.5" id="svg_106" stroke="#000000"/>
  <ellipse fill="#7f00ff" stroke-width="0" stroke-dasharray="null" stroke-linejoin="null" stroke-linecap="null" cx="228.22976" cy="278.94203" id="svg_118" rx="4.15203" ry="0.73665" stroke="#000000"/>
  <ellipse fill="#f7c18f" stroke-width="0" stroke-dasharray="null" stroke-linejoin="null" stroke-linecap="null" cx="252.2382" cy="167.88233" id="svg_136" rx="4.03218" ry="3.29289" stroke="#000000"/>
  <ellipse ry="22.78381" rx="32.56761" cy="149.62603" cx="227.90414" stroke-linecap="null" stroke-linejoin="null" stroke-dasharray="null" stroke-width="0" fill="#ff00ff" id="svg_129" stroke="#000000"/>
  <ellipse ry="22.78381" rx="32.56761" cy="148.67359" cx="232.98381" stroke-linecap="null" stroke-linejoin="null" stroke-dasharray="null" stroke-width="0" fill="#7f00ff" id="svg_119" stroke="#000000"/>
  <ellipse ry="12.97287" rx="35.24332" cy="138.86266" cx="248.14617" stroke-linecap="null" stroke-linejoin="null" stroke-dasharray="null" stroke-width="0" fill="#bf37bf" id="svg_120" stroke="#000000"/>
  <ellipse ry="16.85752" rx="12.24894" cy="169.83886" cx="272.49235" stroke-linecap="null" stroke-linejoin="null" stroke-dasharray="null" stroke-width="0" fill="#ff00ff" id="svg_130" stroke="#000000"/>
  <ellipse ry="16.85752" rx="12.24894" cy="168.71005" cx="271.92794" stroke-linecap="null" stroke-linejoin="null" stroke-dasharray="null" stroke-width="0" fill="#7f00ff" id="svg_122" stroke="#000000"/>
  <path fill="#ff0000" stroke-width="0" stroke-dasharray="null" stroke-linejoin="null" stroke-linecap="null" d="m259.82338,177.40117l5.69505,-42.15143l5.69505,42.15143l-11.39009,0l-0.00001,0z" transform="rotate(21.296310424804688 265.5184326171875,156.32545471191406) " id="svg_131" opacity="0.5" stroke="#000000"/>
  <path fill="#ffd4aa" stroke-width="0" stroke-dasharray="null" stroke-linejoin="null" stroke-linecap="null" d="m254.44515,188.30033l8.05026,-51.87543l8.05026,51.87543l-16.10052,0z" id="svg_117" transform="rotate(22.458948135375977 262.49542236328125,162.3626098632813) " stroke="#000000"/>
  <path fill="#e09de0" stroke-width="0" stroke-dasharray="null" stroke-linejoin="null" stroke-linecap="null" d="m265.23588,177.51463l1.52353,-39.52268l1.52353,39.52268l-3.04707,0l0.00001,0z" id="svg_132" transform="rotate(15.478888511657715 266.75939941406267,157.75329589843741) " stroke="#000000"/>
  <ellipse fill="#e09de0" stroke-width="0" stroke-dasharray="null" stroke-linejoin="null" stroke-linecap="null" cx="263.26884" cy="169.77358" id="svg_133" rx="1.37206" ry="0.63496" transform="rotate(15.623745918273926 263.26879882812494,169.77357482910153) " stroke="#000000"/>
  <path fill="#f7c18f" stroke-width="0" stroke-dasharray="null" stroke-linejoin="null" stroke-linecap="null" d="m259.67912,174.25452l1.0245,-33.78519l1.0245,33.78519l-2.04899,0l0,0l-0.00001,0z" transform="rotate(30.75926971435547 260.70361328125006,157.36193847656247) " id="svg_135" stroke="#000000"/>
  <path transform="rotate(13.26142406463623 279.0660400390628,226.61489868164045) " id="svg_9" d="m270.67501,244.79067l8.39104,-36.35155l8.39104,36.35155l-16.78208,0z" stroke-linecap="null" stroke-linejoin="null" stroke-dasharray="null" stroke-width="0" fill="#ffaaaa" stroke="#000000"/>
  <ellipse ry="8.4375" id="svg_15" cy="262.64687" cx="281.31559" opacity="0.5" stroke-linecap="null" stroke-linejoin="null" stroke-dasharray="null" stroke-width="0" fill="#ffaaaa" stroke="#000000"/>
  <path transform="rotate(9.013467788696289 271.44281005859403,232.96142578125014) " id="svg_17" d="m265.4185,252.34285l6.02431,-38.76285l6.02431,38.76285l-12.04861,0l-0.00001,0z" stroke-linecap="null" stroke-linejoin="null" stroke-dasharray="null" stroke-width="0" fill="#ffd4aa" stroke="#ef7373"/>
  <path id="svg_19" transform="rotate(13.948941230773926 276.07406616210926,237.22564697265622) " d="m268.05521,258.62252l8.01885,-42.79376l8.01885,42.79376l-16.03771,0l0.00001,0z" stroke-linecap="null" stroke-linejoin="null" stroke-dasharray="null" stroke-width="0" fill="#ffd4aa" stroke="#ef7373"/>
  <rect transform="rotate(47.324459075927734 281.17797851562494,319.9587707519531) " id="svg_20" height="14.19153" width="20.39906" y="312.86302" x="270.97846" stroke-linecap="null" stroke-linejoin="null" stroke-dasharray="null" stroke-width="0" fill="#bf37bf" stroke="#000000"/>
  <path transform="rotate(109.00371551513672 199.3604736328125,206.87498474121097) " id="svg_21" d="m197.76648,206.20949l8.7144,0.77693l-9.25753,0.55408c0,0 -7.2332,-0.77693 -4.27079,-1.05396c2.96241,-0.27704 4.81391,-0.27704 4.81391,-0.27704l0.00001,-0.00001z" stroke-linecap="null" stroke-linejoin="null" stroke-dasharray="null" stroke-width="0" fill="#f9b1b1" stroke="#000000"/>
  <rect transform="rotate(-5.079995155334473 213.9025268554688,288.95410156249983) " id="svg_31" height="0.24725" width="5.61139" y="288.83048" x="211.09683" stroke-linecap="null" stroke-linejoin="null" stroke-dasharray="null" stroke-width="0.05" fill="#3f2c2c" stroke="#000000"/>
  <path transform="rotate(179.16310119628906 217.84933471679688,289.2448120117188) " id="svg_30" d="m216.34763,290.55878l1.5017,-2.62797l1.5017,2.62797l-3.00339,0l-0.00001,0z" stroke-linecap="null" stroke-linejoin="null" stroke-dasharray="null" stroke-width="0.3" fill="#ffffff" stroke="#000000"/>
  <path id="svg_32" transform="rotate(-6.533205986022949 217.86595153808514,287.0488281249999) " d="m214.61237,288.36283l3.25357,-2.62797l3.25359,2.62797l-6.50716,0z" stroke-linecap="null" stroke-linejoin="null" stroke-dasharray="null" stroke-width="0" fill="#ffffff" stroke="#000000"/>
  <rect id="svg_38" height="217.18827" width="23" y="146.61172" x="141" stroke-linecap="null" stroke-linejoin="null" stroke-dasharray="null" stroke-width="0" fill="#d820d8" stroke="#000000"/>
  <ellipse fill="#ffffff" stroke-width="0" stroke-dasharray="null" stroke-linejoin="null" stroke-linecap="null" opacity="0.9" cx="349.99998" cy="343.1998" rx="6" ry="6.66661" id="svg_55" stroke="#000000"/>
  <ellipse fill="#ffffff" stroke-width="0" stroke-dasharray="null" stroke-linejoin="null" stroke-linecap="null" opacity="0.8" cx="157.37396" cy="336.91873" rx="13.03125" ry="13.59375" id="svg_90" stroke="#000000"/>
  <ellipse fill="#ff00ff" stroke-width="0" stroke-dasharray="null" stroke-linejoin="null" stroke-linecap="null" cx="155.36614" cy="337.39791" rx="12.49219" ry="11.90625" id="svg_89" stroke="#000000"/>
  <rect height="246.60955" width="1.15433" y="119.01469" x="368.32617" stroke-linecap="null" stroke-linejoin="null" stroke-dasharray="null" stroke-width="0" fill="#f74f9d" opacity="0.9" id="svg_176" stroke="#000000"/>
  <rect transform="rotate(90.13925170898438 263.4752502441406,352.3807373046875) " id="svg_39" height="298.9896" width="3.00007" y="202.88592" x="261.97522" stroke-linecap="null" stroke-linejoin="null" stroke-dasharray="null" stroke-width="0" fill="#e1ccf9" stroke="#000000"/>
  <rect id="svg_40" transform="rotate(90.13925170898438 264.47525024414057,358.3807373046875) " height="298.9896" width="3.00007" y="208.88592" x="262.97522" stroke-linecap="null" stroke-linejoin="null" stroke-dasharray="null" stroke-width="0" fill="#8116fc" stroke="#000000"/>
  <rect fill="#e006e0" stroke-width="0" stroke-dasharray="null" stroke-linejoin="null" stroke-linecap="null" opacity="0.9" x="336.92134" y="143.70578" width="61.50147" height="1.77979" id="svg_147" stroke="#f9f2f2"/>
  <ellipse id="svg_66" fill="#dcc8f7" stroke-width="0" stroke-dasharray="null" stroke-linejoin="null" stroke-linecap="null" opacity="0.8" cx="318.31927" cy="144.33279" rx="19.99219" ry="20.55469" stroke="#000000"/>
  <ellipse id="svg_67" fill="#bf37bf" stroke-width="0" stroke-dasharray="null" stroke-linejoin="null" stroke-linecap="null" cx="320.95208" cy="141.01509" rx="18.1875" ry="17.60156" stroke="#000000"/>
  <ellipse id="svg_63" fill="#dcc8f7" stroke-width="0" stroke-dasharray="null" stroke-linejoin="null" stroke-linecap="null" opacity="0.8" cx="353.06927" cy="195.08279" rx="20.15886" ry="20.13802" stroke="#000000"/>
  <ellipse id="svg_65" fill="#ff007f" stroke-width="0" stroke-dasharray="null" stroke-linejoin="null" stroke-linecap="null" opacity="0.8" cx="353.03541" cy="194.18175" rx="18.4375" ry="17.26823" stroke="#000000"/>
  <rect stroke="#000000" id="svg_50" height="244.24995" width="1.56252" y="118.60667" x="391.77017" stroke-linecap="null" stroke-linejoin="null" stroke-dasharray="null" stroke-width="0" fill="#f76cf7"/>
  <ellipse id="svg_37" fill="#dcc8f7" stroke-width="0" stroke-dasharray="null" stroke-linejoin="null" stroke-linecap="null" opacity="0.8" cx="363.23594" cy="258.5828" rx="13.15886" ry="12.63802" stroke="#000000"/>
  <rect height="217.24998" width="2.5" y="146.05001" x="133.5" stroke-linecap="null" stroke-linejoin="null" stroke-dasharray="null" stroke-width="0" fill="#7f007f" opacity="0.1" id="svg_18" stroke="#000000"/>
  <ellipse id="svg_68" fill="#ffffff" stroke-width="0" stroke-dasharray="null" stroke-linejoin="null" stroke-linecap="null" opacity="0.4" cx="154.00001" cy="164.61667" rx="8.66667" ry="8.66667" stroke="#000000"/>
  <ellipse fill="#ff007f" stroke-width="0" stroke-dasharray="null" stroke-linejoin="null" stroke-linecap="null" opacity="0.4" cx="153.25001" cy="163.86667" id="svg_28" rx="8.66667" ry="8.66667" stroke="#000000"/>
  <ellipse id="svg_69" fill="#ffffff" stroke-width="0" stroke-dasharray="null" stroke-linejoin="null" stroke-linecap="null" opacity="0.4" cx="152.73439" cy="225.60104" rx="8.66667" ry="8.66667" stroke="#000000"/>
  <ellipse fill="#ff007f" stroke-width="0" stroke-dasharray="null" stroke-linejoin="null" stroke-linecap="null" opacity="0.4" cx="153.85939" cy="225.88229" rx="8.66667" ry="8.66667" id="svg_35" stroke="#000000"/>
  <ellipse fill="#ffffff" stroke-width="0" stroke-dasharray="null" stroke-linejoin="null" stroke-linecap="null" opacity="0.4" cx="319.08332" cy="205.6373" rx="6" ry="6.66661" id="svg_45" stroke="#000000"/>
  <ellipse fill="#ffffff" stroke-width="0" stroke-dasharray="null" stroke-linejoin="null" stroke-linecap="null" opacity="0.9" cx="352.66665" cy="231.53313" rx="6" ry="6.66661" id="svg_47" stroke="#000000"/>
  <ellipse fill="#ffffff" stroke-width="0" stroke-dasharray="null" stroke-linejoin="null" stroke-linecap="null" opacity="0.4" cx="318.77082" cy="265.17897" rx="6" ry="6.66661" id="svg_52" stroke="#000000"/>
  <ellipse fill="#ffffff" stroke-width="0" stroke-dasharray="null" stroke-linejoin="null" stroke-linecap="null" opacity="0.4" cx="350.99998" cy="297.53313" rx="6" ry="6.66661" id="svg_53" stroke="#000000"/>
  <ellipse fill="#ffffff" stroke-width="0" stroke-dasharray="null" stroke-linejoin="null" stroke-linecap="null" opacity="0.6" cx="320.10415" cy="314.55396" rx="6" ry="6.66661" id="svg_54" stroke="#000000"/>
  <rect transform="rotate(90.13925170898438 265.59765625,97.53697204589844) " height="299.41146" width="2.99904" y="-52.16877" x="264.09814" stroke-linecap="null" stroke-linejoin="null" stroke-dasharray="null" stroke-width="0" fill="#8116fc" id="svg_58" stroke="#000000"/>
  <ellipse id="svg_72" fill="#ffffff" stroke-width="0" stroke-dasharray="null" stroke-linejoin="null" stroke-linecap="null" opacity="0.4" cx="152.50001" cy="296.52292" rx="8.66667" ry="8.66667" stroke="#000000"/>
  <ellipse fill="#ff007f" stroke-width="0" stroke-dasharray="null" stroke-linejoin="null" stroke-linecap="null" opacity="0.4" cx="153.67188" cy="297.17916" rx="9.25" ry="8.66667" id="svg_34" stroke="#000000"/>
  <path fill="#ffaaaa" stroke-width="0" stroke-dasharray="null" stroke-linejoin="null" stroke-linecap="null" d="m275.5341,239.01107l1.47831,-13.43728l1.47831,13.43728l-2.95661,0l0,0l-0.00001,0z" id="svg_56" transform="rotate(12.467166900634766 277.01242065429636,232.29241943359366) " stroke="#000000"/>
  <ellipse id="svg_62" fill="#8116fc" stroke-width="0" stroke-dasharray="null" stroke-linejoin="null" stroke-linecap="null" opacity="0.8" cx="362.86875" cy="257.84842" rx="10.10417" ry="8.60156" stroke="#000000"/>
  <ellipse id="svg_33" fill="#dcc8f7" stroke-width="0" stroke-dasharray="null" stroke-linejoin="null" stroke-linecap="null" opacity="0.8" cx="343.31927" cy="302.99946" rx="14.99219" ry="17.63802" stroke="#000000"/>
  <ellipse id="svg_36" fill="#ff007f" stroke-width="0" stroke-dasharray="null" stroke-linejoin="null" stroke-linecap="null" opacity="0.8" cx="343.20208" cy="302.84842" rx="13.27083" ry="13.60156" stroke="#000000"/>
  <polygon id="svg_75" fill="#bfbfbf" points="129.08917248249054,128.44455003738403 129.9560090303421,132.50807237625122 132.59561169147491,132.59571886062622 130.49174511432648,135.1947636604309 131.25627148151398,139.31245470046997 129.08917248249054,136.85522508621216 126.9220734834671,139.31245470046997 127.68660748004913,135.1947636604309 125.58273327350616,132.59571886062622 128.22233593463898,132.50807237625122 129.08917248249054,128.44455003738403 129.9560090303421,132.50807237625122 " stroke-width="0" opacity="0.1" transform="rotate(-10.907504081726074 129.08917236328142,133.87850952148435) " stroke="#000000"/>
  <ellipse fill="#3f007f" stroke-width="0" stroke-dasharray="null" stroke-linejoin="null" stroke-linecap="null" opacity="0.4" cx="320.54165" cy="315.49148" rx="6.375" ry="7.10411" id="svg_80" stroke="#000000"/>
  <ellipse fill="#dcc8f7" stroke-width="0" stroke-dasharray="null" stroke-linejoin="null" stroke-linecap="null" opacity="0.8" cx="304.92344" cy="334.2703" rx="11.65886" ry="11.63802" id="svg_41" stroke="#000000"/>
  <ellipse fill="#8116fc" stroke-width="0" stroke-dasharray="null" stroke-linejoin="null" stroke-linecap="null" opacity="0.8" cx="303.99376" cy="333.91092" rx="7.60417" ry="7.10156" id="svg_76" stroke="#000000"/>
  <ellipse fill="#ff007f" stroke-width="0" stroke-dasharray="null" stroke-linejoin="null" stroke-linecap="null" opacity="0.4" cx="353.4479" cy="231.39772" rx="7.21875" ry="7.38536" id="svg_77" stroke="#000000"/>
  <ellipse fill="#ff007f" stroke-width="0" stroke-dasharray="null" stroke-linejoin="null" stroke-linecap="null" opacity="0.4" cx="350.6354" cy="343.05398" rx="7.21875" ry="7.10411" id="svg_78" stroke="#000000"/>
  <ellipse fill="#3f007f" stroke-width="0" stroke-dasharray="null" stroke-linejoin="null" stroke-linecap="null" opacity="0.4" cx="319.41664" cy="265.99148" rx="6.375" ry="7.10411" id="svg_81" stroke="#000000"/>
  <ellipse fill="#3f007f" stroke-width="0" stroke-dasharray="null" stroke-linejoin="null" stroke-linecap="null" opacity="0.4" cx="320.54164" cy="206.36647" rx="6.375" ry="7.10411" id="svg_82" stroke="#000000"/>
  <ellipse fill="#ffaad4" stroke-width="0.2" stroke-dasharray="null" stroke-linejoin="null" stroke-linecap="null" opacity="0.4" cx="381.10415" cy="209.55397" rx="4.125" ry="4.29161" id="svg_83" stroke="#f9f2f2"/>
  <rect transform="rotate(-5.079995155334473 222.0931549072255,287.9069213867186) " height="0.35944" width="6.11622" y="287.72722" x="219.03505" stroke-linecap="null" stroke-linejoin="null" stroke-dasharray="null" stroke-width="0.05" fill="#3f2c2c" id="svg_84" stroke="#000000"/>
  <path fill="#ffffff" stroke-width="0" stroke-dasharray="null" stroke-linejoin="null" stroke-linecap="null" d="m202.09602,290.45604l1.33483,-6.22925l1.33483,6.22925l-2.66967,0l0.00001,0z" id="svg_85" transform="rotate(176.7574920654297 203.43084716796875,287.3414306640625) " stroke="#000000"/>
  <rect id="svg_29" height="0.24335" width="7.78378" y="289.09696" x="203.47334" stroke-linecap="null" stroke-linejoin="null" stroke-dasharray="null" stroke-width="0.05" fill="#3f2c2c" stroke="#000000"/>
  <ellipse fill="#ffaaaa" stroke-width="0" stroke-dasharray="null" stroke-linejoin="null" stroke-linecap="null" cx="199.78325" cy="206.5529" id="svg_86" rx="0.7831" ry="5.87678" transform="rotate(21.176231384277344 199.78324890136724,206.55290222167966) " stroke="#000000"/>
  <ellipse fill="#ffd4aa" stroke-width="0" stroke-dasharray="null" stroke-linejoin="null" stroke-linecap="null" cx="200.02056" cy="207.26481" rx="0.7831" ry="5.87678" transform="rotate(21.176231384277344 200.02055358886696,207.26481628417977) " id="svg_87" stroke="#000000"/>
  <rect id="svg_111" fill="#e0418e" stroke-width="0" stroke-dasharray="null" stroke-linejoin="null" stroke-linecap="null" x="60.17026" y="229.87574" width="232.28592" height="5.56781" opacity="0.3" transform="rotate(-90.77033233642578 176.31321716308594,232.65965270996094) " stroke="#000000"/>
  <path fill="#ffffff" stroke-width="0" stroke-dasharray="null" stroke-linejoin="null" stroke-linecap="null" d="m262.60438,175.31716l0.12463,-35.24651l0.12463,35.24651l-0.24926,0l0,0z" transform="rotate(27.517370223999023 262.72900390625,157.69390869140628) " id="svg_88" stroke="#000000"/>
  <ellipse fill="#00ffff" stroke-width="0" stroke-dasharray="null" stroke-linejoin="null" stroke-linecap="null" opacity="0.2" cx="195.05861" cy="342.46098" id="svg_93" rx="3.375" ry="3.1875" stroke="#000000"/>
  <ellipse fill="#ffffff" stroke-width="0" stroke-dasharray="null" stroke-linejoin="null" stroke-linecap="null" opacity="0.8" cx="84.75" cy="274.37504" rx="3.375" ry="3.375" id="svg_108" stroke="#000000"/>
  <ellipse fill="#00ffff" stroke-width="0" stroke-dasharray="null" stroke-linejoin="null" stroke-linecap="null" opacity="0.2" cx="277.93361" cy="344.3477" rx="4.5" ry="3.9375" id="svg_115" stroke="#000000"/>
  <ellipse fill="#f780f7" stroke-width="0" stroke-dasharray="null" stroke-linejoin="null" stroke-linecap="null" opacity="0.3" cx="277.7461" cy="344.33599" rx="3.375" ry="3.375" id="svg_109" stroke="#000000"/>
  <ellipse fill="#f47ff4" stroke-width="0" stroke-dasharray="null" stroke-linejoin="null" stroke-linecap="null" opacity="0.3" cx="195.21681" cy="342.4024" rx="2.0332" ry="2.30859" id="svg_110" stroke="#000000"/>
  <ellipse fill="#ffffff" stroke-width="0" stroke-dasharray="null" stroke-linejoin="null" stroke-linecap="null" opacity="0.4" cx="121.92706" cy="192.6998" rx="5.15625" ry="4.97911" id="svg_124" stroke="#000000"/>
  <ellipse fill="#ff00ff" stroke-width="0" stroke-dasharray="null" stroke-linejoin="null" stroke-linecap="null" opacity="0.2" cx="171.37501" cy="273.25004" rx="3.375" ry="3.375" id="svg_125" stroke="#000000"/>
  <ellipse fill="#ff00ff" stroke-width="0" stroke-dasharray="null" stroke-linejoin="null" stroke-linecap="null" opacity="0.2" cx="171.37501" cy="206.31253" rx="3.375" ry="3.375" id="svg_128" stroke="#000000"/>
  <ellipse fill="#00ffff" stroke-width="0" stroke-dasharray="null" stroke-linejoin="null" stroke-linecap="null" opacity="0.2" cx="172.50002" cy="170.87502" rx="4.5" ry="3.9375" id="svg_138" stroke="#000000"/>
  <ellipse fill="#ff00ff" stroke-width="0" stroke-dasharray="null" stroke-linejoin="null" stroke-linecap="null" opacity="0.2" cx="171.93751" cy="170.87504" rx="3.375" ry="3.375" id="svg_139" stroke="#000000"/>
  <ellipse fill="#ffffff" stroke-width="0" stroke-dasharray="null" stroke-linejoin="null" stroke-linecap="null" opacity="0.4" cx="123.30206" cy="259.55397" rx="4.59375" ry="4.97911" id="svg_140" stroke="#000000"/>
  <ellipse fill="#ffffff" stroke-width="0" stroke-dasharray="null" stroke-linejoin="null" stroke-linecap="null" opacity="0.4" cx="122.73955" cy="328.74147" rx="4.59375" ry="4.97911" id="svg_143" stroke="#000000"/>
  <rect fill="#f7a8ce" stroke-width="0" stroke-dasharray="null" stroke-linejoin="null" stroke-linecap="null" x="117.4076" y="145.13921" width="15.29111" height="0.52792" id="svg_145" transform="rotate(1.1024646759033203 125.05316162109273,145.4031677246091) " stroke="#000000"/>
  <ellipse fill="#c45488" stroke-width="0.2" stroke-dasharray="null" stroke-linejoin="null" stroke-linecap="null" opacity="0.8" cx="337.3663" cy="127.8657" id="svg_146" rx="3.11462" ry="3.02563" stroke="#8585f7"/>
  <rect fill="#e006e0" stroke-width="0" stroke-dasharray="null" stroke-linejoin="null" stroke-linecap="null" opacity="0.9" x="353.13716" y="131.99875" width="45.28565" height="0.8627" id="svg_148" stroke="#f9f2f2"/>
  <rect fill="#e006e0" stroke-width="0" stroke-dasharray="null" stroke-linejoin="null" stroke-linecap="null" opacity="0.9" x="362.86668" y="121.06049" width="35.54628" height="0.56113" id="svg_149" stroke="#f9f2f2"/>
  <ellipse fill="#7f00ff" stroke-width="0.2" stroke-dasharray="null" stroke-linejoin="null" stroke-linecap="null" opacity="0.1" cx="353.98487" cy="141.8749" rx="1.42522" ry="1.4207" id="svg_162" stroke="#c7a5ff"/>
  <ellipse fill="#7f00ff" stroke-width="0.2" stroke-dasharray="null" stroke-linejoin="null" stroke-linecap="null" opacity="0.1" cx="357.56613" cy="130.0834" rx="1.42522" ry="1.4207" id="svg_164" stroke="#c7a5ff"/>
  <ellipse fill="#ff007f" stroke-width="0.2" stroke-dasharray="null" stroke-linejoin="null" stroke-linecap="null" opacity="0.1" cx="366.46631" cy="119.4609" rx="1.42522" ry="1.4207" id="svg_165" stroke="#c7a5ff"/>
  <ellipse fill="#ff007f" stroke-width="0.2" stroke-dasharray="null" stroke-linejoin="null" stroke-linecap="null" opacity="0.1" cx="361.92786" cy="141.8862" rx="1.42522" ry="1.4207" id="svg_166" stroke="#c7a5ff"/>
  <ellipse fill="#ff007f" stroke-width="0.2" stroke-dasharray="null" stroke-linejoin="null" stroke-linecap="null" opacity="0.1" cx="345.77631" cy="141.8862" rx="1.42522" ry="1.4207" id="svg_167" stroke="#c7a5ff"/>
  <rect fill="#f9c5f9" stroke-width="0" stroke-dasharray="null" stroke-linejoin="null" stroke-linecap="null" opacity="0.8" x="362.99737" y="122.06162" width="6.22152" height="0.16068" id="svg_168" stroke="#f9f2f2"/>
  <rect fill="#f9c5f9" stroke-width="0" stroke-dasharray="null" stroke-linejoin="null" stroke-linecap="null" opacity="0.8" x="353.46161" y="133.62466" width="15.75727" height="0.16068" id="svg_169" stroke="#f9f2f2"/>
  <rect fill="#f9c5f9" stroke-width="0" stroke-dasharray="null" stroke-linejoin="null" stroke-linecap="null" opacity="0.8" x="338.60109" y="145.73832" width="30.87433" height="0.16068" id="svg_170" stroke="#f9f2f2"/>
  <polygon fill="#bfbfbf" points="153.6485595703125,135.89053337555833 154.65444946289062,138.48181985904012 157.71749877929688,138.53771155381764 155.276123046875,140.19510853556403 156.16329956054688,142.82093811035156 153.6485595703125,141.25397591468845 151.13381958007812,142.82093811035156 152.02099609375,140.19510853556403 149.57962036132812,138.53771155381764 152.64266967773438,138.48181985904012 153.6485595703125,135.89053337555833 154.65444946289062,138.48181985904012 " stroke-width="0" opacity="0.1" id="svg_171" stroke="#000000"/>
  <polygon fill="#bfbfbf" points="134.26208497268817,104.26528930664062 135.05938951317148,108.32881164550781 137.48727419342322,108.41645812988281 135.55215347036574,111.0155029296875 136.2553598063023,115.13319396972656 134.26208497268817,112.67596435546875 132.26881013907405,115.13319396972656 132.9720164750106,111.0155029296875 131.03689575195312,108.41645812988281 133.46478043220486,108.32881164550781 134.26208497268817,104.26528930664062 135.05938951317148,108.32881164550781 " stroke-width="0" opacity="0.1" id="svg_172" transform="rotate(26.314777374267578 134.26208496093747,109.6992416381836) " stroke="#000000"/>
  <polygon fill="#bfbfbf" points="166.56298826949933,121.54074096679688 167.36029280998264,125.60426330566406 169.78817749023438,125.69190979003906 167.8530567671769,128.29095458984375 168.55626310311345,132.4086456298828 166.56298826949933,129.951416015625 164.5697134358852,132.4086456298828 165.27291977182176,128.29095458984375 163.33779904876428,125.69190979003906 165.76568372901602,125.60426330566406 166.56298826949933,121.54074096679688 167.36029280998264,125.60426330566406 " stroke-width="0" opacity="0.1" id="svg_173" stroke="#000000"/>
  <polygon fill="#bfbfbf" points="160.42437743259325,104.47512817382812 161.360738558903,108.53865051269531 164.21206665039062,108.62629699707031 161.93944467499205,111.225341796875 162.7652960822179,115.34303283691406 160.42437743259325,112.88580322265625 158.0834587829686,115.34303283691406 158.90931019019445,111.225341796875 156.63668821479587,108.62629699707031 159.4880163062835,108.53865051269531 160.42437743259325,104.47512817382812 161.360738558903,108.53865051269531 " stroke-width="0" opacity="0.1" id="svg_174" transform="rotate(-30.906599044799805 160.42437744140625,109.9090805053711) " stroke="#000000"/>
  <polygon fill="#bfbfbf" points="124.3743896484375,113.98654174804688 124.72844696044922,118.05006408691406 125.80661010742188,118.13771057128906 124.94728088378906,120.73675537109375 125.25955200195312,124.85444641113281 124.3743896484375,122.397216796875 123.4892349243164,124.85444641113281 123.80149841308594,120.73675537109375 122.94216918945312,118.13771057128906 124.02033233642578,118.05006408691406 124.3743896484375,113.98654174804688 124.72844696044922,118.05006408691406 " stroke-width="0" opacity="0.1" id="svg_175" transform="rotate(14.924762725830078 124.37438964843751,119.42049407958984) " stroke="#000000"/>
  <polygon id="svg_177" fill="#bfbfbf" opacity="0.1" stroke="null"/>
  <ellipse fill="#ffffff" stroke-width="0" stroke-dasharray="null" stroke-linejoin="null" stroke-linecap="null" cx="140.21002" cy="121.64261" rx="15.86475" ry="16.58756" id="svg_182" stroke="#000000"/>
  <ellipse fill="#a466f4" stroke-width="0" stroke-dasharray="null" stroke-linejoin="null" stroke-linecap="null" cx="140.5958" cy="123.72382" rx="16.14014" ry="19.19352" id="svg_184" stroke="#000000"/>
  <rect fill="#a466f4" stroke-width="0" stroke-dasharray="null" stroke-linejoin="null" stroke-linecap="null" x="124.17772" y="115.40726" width="6.40723" height="15.89941" id="svg_185" transform="rotate(-4.474902629852295 127.38134002685534,123.35696411132827) " stroke="#000000"/>
  <path fill="#ffffff" stroke-width="0.2" stroke-dasharray="null" stroke-linejoin="null" stroke-linecap="null" opacity="0.8" d="m130.75876,126.96599l0.09731,-0.33365l0,0.16682l0.03902,0l0,-0.26677l0.07781,0l0,-0.13377l-0.04866,0l0.09731,-0.33365l0.09732,0.33365l-0.04866,0l0,0.13377l0.07781,0l0,0.26677l0.03902,0l0,-0.16682l0.09732,0.33365l-0.09732,0.33365l0,-0.16683l-0.03902,0l0,0.26677l-0.07781,0l0,0.13377l0.04866,0l-0.09732,0.33365l-0.09731,-0.33365l0.04866,0l0,-0.13377l-0.07781,0l0,-0.26677l-0.03902,0l0,0.16683l-0.09731,-0.33365z" id="svg_186" stroke="#f9f2f2"/>
  <path fill="#ffffff" stroke-width="0.2" stroke-dasharray="null" stroke-linejoin="null" stroke-linecap="null" opacity="0.8" d="m169.50246,124.63836l0.09732,-0.33364l0,0.16682l0.03901,0l0,-0.26678l0.07781,0l0,-0.13377l-0.04865,0l0.09731,-0.33365l0.09732,0.33365l-0.04866,0l0,0.13377l0.07781,0l0,0.26678l0.03902,0l0,-0.16682l0.09731,0.33364l-0.09731,0.33365l0,-0.16682l-0.03902,0l0,0.26677l-0.07781,0l0,0.13377l0.04866,0l-0.09732,0.33365l-0.09731,-0.33365l0.04865,0l0,-0.13377l-0.07781,0l0,-0.26677l-0.03901,0l0,0.16682l-0.09732,-0.33365z" id="svg_187" stroke="#f9f2f2"/>
  <path fill="#ffffff" stroke-width="0.2" stroke-dasharray="null" stroke-linejoin="null" stroke-linecap="null" opacity="0.8" d="m144.87468,136.27649l0.09732,-0.33364l0,0.16682l0.03901,0l0,-0.26678l0.07781,0l0,-0.13377l-0.04865,0l0.09731,-0.33365l0.09732,0.33365l-0.04866,0l0,0.13377l0.07781,0l0,0.26678l0.03902,0l0,-0.16682l0.09731,0.33364l-0.09731,0.33365l0,-0.16682l-0.03902,0l0,0.26677l-0.07781,0l0,0.13377l0.04866,0l-0.09732,0.33365l-0.09731,-0.33365l0.04865,0l0,-0.13377l-0.07781,0l0,-0.26677l-0.03901,0l0,0.16682l-0.09732,-0.33365z" id="svg_188" stroke="#f9f2f2"/>
  <path fill="#ffffff" stroke-width="0.2" stroke-dasharray="null" stroke-linejoin="null" stroke-linecap="null" opacity="0.8" d="m123.02503,127.64174l0.09732,-0.33364l0,0.16682l0.03901,0l0,-0.26678l0.07781,0l0,-0.13377l-0.04865,0l0.09731,-0.33365l0.09732,0.33365l-0.04866,0l0,0.13377l0.07781,0l0,0.26678l0.03902,0l0,-0.16682l0.09731,0.33364l-0.09731,0.33365l0,-0.16682l-0.03902,0l0,0.26677l-0.07781,0l0,0.13377l0.04866,0l-0.09732,0.33365l-0.09731,-0.33365l0.04865,0l0,-0.13377l-0.07781,0l0,-0.26677l-0.03901,0l0,0.16682l-0.09732,-0.33365z" id="svg_189" stroke="#f9f2f2"/>
  <path fill="#ffffff" stroke-width="0.2" stroke-dasharray="null" stroke-linejoin="null" stroke-linecap="null" opacity="0.8" d="m157.11347,128.76801l0.09732,-0.33364l0,0.16682l0.03901,0l0,-0.26678l0.07781,0l0,-0.13377l-0.04865,0l0.09731,-0.33365l0.09732,0.33365l-0.04866,0l0,0.13377l0.07781,0l0,0.26678l0.03902,0l0,-0.16682l0.09731,0.33364l-0.09731,0.33365l0,-0.16682l-0.03902,0l0,0.26677l-0.07781,0l0,0.13377l0.04866,0l-0.09732,0.33365l-0.09731,-0.33365l0.04865,0l0,-0.13377l-0.07781,0l0,-0.26677l-0.03901,0l0,0.16682l-0.09732,-0.33365z" id="svg_190" stroke="#f9f2f2"/>
  <path fill="#ffffff" stroke-width="0.2" stroke-dasharray="null" stroke-linejoin="null" stroke-linecap="null" opacity="0.8" d="m151.78246,115.5531l0.09732,-0.33364l0,0.16682l0.03901,0l0,-0.26678l0.07781,0l0,-0.13377l-0.04865,0l0.09731,-0.33365l0.09732,0.33365l-0.04866,0l0,0.13377l0.07781,0l0,0.26678l0.03902,0l0,-0.16682l0.09731,0.33364l-0.09731,0.33365l0,-0.16682l-0.03902,0l0,0.26677l-0.07781,0l0,0.13377l0.04866,0l-0.09732,0.33365l-0.09731,-0.33365l0.04865,0l0,-0.13377l-0.07781,0l0,-0.26677l-0.03901,0l0,0.16682l-0.09732,-0.33365z" id="svg_191" stroke="#f9f2f2"/>
  <path fill="#ffffff" stroke-width="0.2" stroke-dasharray="null" stroke-linejoin="null" stroke-linecap="null" opacity="0.8" d="m129.40722,139.80545l0.09732,-0.33364l0,0.16682l0.03901,0l0,-0.26678l0.07781,0l0,-0.13377l-0.04865,0l0.09731,-0.33365l0.09732,0.33365l-0.04866,0l0,0.13377l0.07781,0l0,0.26678l0.03902,0l0,-0.16682l0.09731,0.33364l-0.09731,0.33365l0,-0.16682l-0.03902,0l0,0.26677l-0.07781,0l0,0.13377l0.04866,0l-0.09732,0.33365l-0.09731,-0.33365l0.04865,0l0,-0.13377l-0.07781,0l0,-0.26677l-0.03901,0l0,0.16682l-0.09732,-0.33365z" id="svg_192" stroke="#f9f2f2"/>
  <path fill="#ffffff" stroke-width="0.2" stroke-dasharray="null" stroke-linejoin="null" stroke-linecap="null" opacity="0.8" d="m158.9155,143.03409l0.09732,-0.33364l0,0.16682l0.03901,0l0,-0.26678l0.07781,0l0,-0.13377l-0.04865,0l0.09731,-0.33365l0.09732,0.33365l-0.04866,0l0,0.13377l0.07781,0l0,0.26678l0.03902,0l0,-0.16682l0.09731,0.33364l-0.09731,0.33365l0,-0.16682l-0.03902,0l0,0.26677l-0.07781,0l0,0.13377l0.04866,0l-0.09732,0.33365l-0.09731,-0.33365l0.04865,0l0,-0.13377l-0.07781,0l0,-0.26677l-0.03901,0l0,0.16682l-0.09732,-0.33365z" id="svg_193" transform="rotate(36.12563705444336 159.17829895019534,143.03408813476562) " stroke="#f9f2f2"/>
  <path fill="#ffffff" stroke-width="0.2" stroke-dasharray="null" stroke-linejoin="null" stroke-linecap="null" opacity="0.8" d="m140.59483,119.08207l0.09732,-0.33364l0,0.16682l0.03901,0l0,-0.26678l0.07781,0l0,-0.13377l-0.04865,0l0.09731,-0.33365l0.09732,0.33365l-0.04866,0l0,0.13377l0.07781,0l0,0.26678l0.03902,0l0,-0.16682l0.09731,0.33364l-0.09731,0.33365l0,-0.16682l-0.03902,0l0,0.26677l-0.07781,0l0,0.13377l0.04866,0l-0.09732,0.33365l-0.09731,-0.33365l0.04865,0l0,-0.13377l-0.07781,0l0,-0.26677l-0.03901,0l0,0.16682l-0.09732,-0.33365z" id="svg_194" stroke="#f9f2f2"/>
  <path fill="#ffffff" stroke-width="0.2" stroke-dasharray="null" stroke-linejoin="null" stroke-linecap="null" opacity="0.8" d="m145.09991,105.04123l0.09732,-0.33364l0,0.16682l0.03901,0l0,-0.26678l0.07781,0l0,-0.13377l-0.04865,0l0.09731,-0.33365l0.09732,0.33365l-0.04866,0l0,0.13377l0.07781,0l0,0.26678l0.03902,0l0,-0.16682l0.09731,0.33364l-0.09731,0.33365l0,-0.16682l-0.03902,0l0,0.26677l-0.07781,0l0,0.13377l0.04866,0l-0.09732,0.33365l-0.09731,-0.33365l0.04865,0l0,-0.13377l-0.07781,0l0,-0.26677l-0.03901,0l0,0.16682l-0.09732,-0.33365z" id="svg_195" stroke="#f9f2f2"/>
  <path fill="#ffffff" stroke-width="0.2" stroke-dasharray="null" stroke-linejoin="null" stroke-linecap="null" opacity="0.8" d="m164.47175,111.12309l0.05561,-0.33364l0,0.16682l0.02229,0l0,-0.26678l0.04446,0l0,-0.13377l-0.0278,0l0.05561,-0.33365l0.05561,0.33365l-0.02781,0l0,0.13377l0.04446,0l0,0.26678l0.0223,0l0,-0.16682l0.05561,0.33364l-0.05561,0.33365l0,-0.16682l-0.0223,0l0,0.26677l-0.04446,0l0,0.13377l0.02781,0l-0.05561,0.33365l-0.05561,-0.33365l0.0278,0l0,-0.13377l-0.04446,0l0,-0.26677l-0.02229,0l0,0.16682l-0.05561,-0.33365z" id="svg_196" stroke="#f9f2f2"/>
  <path fill="#aad4ff" stroke-width="0.2" stroke-dasharray="null" stroke-linejoin="null" stroke-linecap="null" opacity="0.8" d="m156.38767,105.04126l0.09732,-0.33364l0,0.16682l0.03901,0l0,-0.26678l0.07781,0l0,-0.13377l-0.04865,0l0.09731,-0.33365l0.09732,0.33365l-0.04866,0l0,0.13377l0.07781,0l0,0.26678l0.03902,0l0,-0.16682l0.09731,0.33364l-0.09731,0.33365l0,-0.16682l-0.03902,0l0,0.26677l-0.07781,0l0,0.13377l0.04866,0l-0.09732,0.33365l-0.09731,-0.33365l0.04865,0l0,-0.13377l-0.07781,0l0,-0.26677l-0.03901,0l0,0.16682l-0.09732,-0.33365z" id="svg_197" stroke="#d4aaff"/>
  <path fill="#aad4ff" stroke-width="0.2" stroke-dasharray="null" stroke-linejoin="null" stroke-linecap="null" opacity="0.8" d="m166.7994,135.17525l0.09732,-0.33364l0,0.16682l0.03901,0l0,-0.26678l0.07781,0l0,-0.13377l-0.04865,0l0.09731,-0.33365l0.09732,0.33365l-0.04866,0l0,0.13377l0.07781,0l0,0.26678l0.03902,0l0,-0.16682l0.09731,0.33364l-0.09731,0.33365l0,-0.16682l-0.03902,0l0,0.26677l-0.07781,0l0,0.13377l0.04866,0l-0.09732,0.33365l-0.09731,-0.33365l0.04865,0l0,-0.13377l-0.07781,0l0,-0.26677l-0.03901,0l0,0.16682l-0.09732,-0.33365z" id="svg_198" stroke="#d4aaff"/>
  <path fill="#aad4ff" stroke-width="0.2" stroke-dasharray="null" stroke-linejoin="null" stroke-linecap="null" opacity="0.8" d="m139.96915,142.18315l0.09732,-0.33364l0,0.16682l0.03901,0l0,-0.26678l0.07781,0l0,-0.13377l-0.04865,0l0.09731,-0.33365l0.09732,0.33365l-0.04866,0l0,0.13377l0.07781,0l0,0.26678l0.03902,0l0,-0.16682l0.09731,0.33364l-0.09731,0.33365l0,-0.16682l-0.03902,0l0,0.26677l-0.07781,0l0,0.13377l0.04866,0l-0.09732,0.33365l-0.09731,-0.33365l0.04865,0l0,-0.13377l-0.07781,0l0,-0.26677l-0.03901,0l0,0.16682l-0.09732,-0.33365z" id="svg_199" stroke="#d4aaff"/>
  <path fill="#aad4ff" stroke-width="0.2" stroke-dasharray="null" stroke-linejoin="null" stroke-linecap="null" opacity="0.8" d="m146.87694,126.66565l0.09732,-0.33364l0,0.16682l0.03901,0l0,-0.26678l0.07781,0l0,-0.13377l-0.04865,0l0.09731,-0.33365l0.09732,0.33365l-0.04866,0l0,0.13377l0.07781,0l0,0.26678l0.03902,0l0,-0.16682l0.09731,0.33364l-0.09731,0.33365l0,-0.16682l-0.03902,0l0,0.26677l-0.07781,0l0,0.13377l0.04866,0l-0.09732,0.33365l-0.09731,-0.33365l0.04865,0l0,-0.13377l-0.07781,0l0,-0.26677l-0.03901,0l0,0.16682l-0.09732,-0.33365z" id="svg_200" stroke="#d4aaff"/>
  <path fill="#aad4ff" stroke-width="0.2" stroke-dasharray="null" stroke-linejoin="null" stroke-linecap="null" opacity="0.8" d="m131.45955,117.55538l0.09732,-0.33364l0,0.16682l0.03901,0l0,-0.26678l0.07781,0l0,-0.13377l-0.04865,0l0.09731,-0.33365l0.09732,0.33365l-0.04866,0l0,0.13377l0.07781,0l0,0.26678l0.03902,0l0,-0.16682l0.09731,0.33364l-0.09731,0.33365l0,-0.16682l-0.03902,0l0,0.26677l-0.07781,0l0,0.13377l0.04866,0l-0.09732,0.33365l-0.09731,-0.33365l0.04865,0l0,-0.13377l-0.07781,0l0,-0.26677l-0.03901,0l0,0.16682l-0.09732,-0.33365z" id="svg_201" stroke="#d4aaff"/>
  <path fill="#aad4ff" stroke-width="0.2" stroke-dasharray="null" stroke-linejoin="null" stroke-linecap="null" opacity="0.8" d="m135.76441,107.04352l0.04171,-0.33364l0,0.16682l0.01672,0l0,-0.26678l0.03335,0l0,-0.13377l-0.02085,0l0.04171,-0.33365l0.04171,0.33365l-0.02085,0l0,0.13377l0.03335,0l0,0.26678l0.01672,0l0,-0.16682l0.04171,0.33364l-0.04171,0.33365l0,-0.16682l-0.01672,0l0,0.26677l-0.03335,0l0,0.13377l0.02085,0l-0.04171,0.33365l-0.04171,-0.33365l0.02085,0l0,-0.13377l-0.03335,0l0,-0.26677l-0.01672,0l0,0.16682l-0.04171,-0.33365z" id="svg_202" stroke="#d4aaff"/>
  <path fill="#ffffff" stroke-width="0.2" stroke-dasharray="null" stroke-linejoin="null" stroke-linecap="null" opacity="0.8" d="m373.31671,126.47503l0.09732,-0.33364l0,0.16682l0.03901,0l0,-0.26678l0.07781,0l0,-0.13377l-0.04865,0l0.09731,-0.33365l0.09732,0.33365l-0.04866,0l0,0.13377l0.07781,0l0,0.26678l0.03902,0l0,-0.16682l0.09731,0.33364l-0.09731,0.33365l0,-0.16682l-0.03902,0l0,0.26677l-0.07781,0l0,0.13377l0.04866,0l-0.09732,0.33365l-0.09731,-0.33365l0.04865,0l0,-0.13377l-0.07781,0l0,-0.26677l-0.03901,0l0,0.16682l-0.09732,-0.33365z" stroke="#f9f2f2" id="svg_104"/>
  <path fill="#ffffff" stroke-width="0.2" stroke-dasharray="null" stroke-linejoin="null" stroke-linecap="null" opacity="0.8" d="m375.11874,140.74111l0.09732,-0.33364l0,0.16682l0.03901,0l0,-0.26678l0.07781,0l0,-0.13377l-0.04865,0l0.09731,-0.33365l0.09732,0.33365l-0.04866,0l0,0.13377l0.07781,0l0,0.26678l0.03902,0l0,-0.16682l0.09731,0.33364l-0.09731,0.33365l0,-0.16682l-0.03902,0l0,0.26677l-0.07781,0l0,0.13377l0.04866,0l-0.09732,0.33365l-0.09731,-0.33365l0.04865,0l0,-0.13377l-0.07781,0l0,-0.26677l-0.03901,0l0,0.16682l-0.09732,-0.33365z" transform="rotate(-1.9383249282836914 375.38153076172034,140.74111938476645) " stroke="#f9f2f2" id="svg_113"/>
  <path fill="#ffffff" stroke-width="0.2" stroke-dasharray="null" stroke-linejoin="null" stroke-linecap="null" opacity="0.8" d="m372.24884,150.14617l0.09732,-0.33364l0,0.16682l0.03901,0l0,-0.26678l0.07781,0l0,-0.13377l-0.04865,0l0.09731,-0.33365l0.09732,0.33365l-0.04866,0l0,0.13377l0.07781,0l0,0.26678l0.03902,0l0,-0.16682l0.09731,0.33364l-0.09731,0.33365l0,-0.16682l-0.03902,0l0,0.26677l-0.07781,0l0,0.13377l0.04866,0l-0.09732,0.33365l-0.09731,-0.33365l0.04865,0l0,-0.13377l-0.07781,0l0,-0.26677l-0.03901,0l0,0.16682l-0.09732,-0.33365z" stroke="#f9f2f2" id="svg_114"/>
  <path fill="#ffffff" stroke-width="0.2" stroke-dasharray="null" stroke-linejoin="null" stroke-linecap="null" opacity="0.8" d="m379.32318,155.34712l0.48772,0.68177l0,-0.34088l0.1955,0l0,0.54515l0.38994,0l0,0.27335l-0.24381,0l0.48767,0.68179l0.48772,-0.68179l-0.24386,0l0,-0.27335l0.38994,0l0,-0.54515l0.19555,0l0,0.34088l0.48767,-0.68177l-0.48767,-0.68179l0,0.34088l-0.19555,0l0,-0.54513l-0.38994,0l0,-0.27335l0.24386,0l-0.48772,-0.68179l-0.48767,0.68179l0.24381,0l0,0.27335l-0.38994,0l0,0.54513l-0.1955,0l0,-0.34088l-0.48772,0.68179z" id="svg_116" stroke="#f9f2f2"/>
  <path fill="#ffffff" stroke-width="0.2" stroke-dasharray="null" stroke-linejoin="null" stroke-linecap="null" opacity="0.8" d="m383.99542,137.15374l0.09732,-0.33364l0,0.16682l0.03901,0l0,-0.26678l0.07781,0l0,-0.13377l-0.04865,0l0.09731,-0.33365l0.09732,0.33365l-0.04866,0l0,0.13377l0.07781,0l0,0.26678l0.03902,0l0,-0.16682l0.09731,0.33364l-0.09731,0.33365l0,-0.16682l-0.03902,0l0,0.26677l-0.07781,0l0,0.13377l0.04866,0l-0.09732,0.33365l-0.09731,-0.33365l0.04865,0l0,-0.13377l-0.07781,0l0,-0.26677l-0.03901,0l0,0.16682l-0.09732,-0.33365z" stroke="#f9f2f2" id="svg_137"/>
  <path fill="#ffffff" stroke-width="0.2" stroke-dasharray="null" stroke-linejoin="null" stroke-linecap="null" opacity="0.8" d="m387.55499,140.71331l0.09732,-0.33364l0,0.16682l0.03901,0l0,-0.26678l0.07781,0l0,-0.13377l-0.04865,0l0.09731,-0.33365l0.09732,0.33365l-0.04866,0l0,0.13377l0.07781,0l0,0.26678l0.03902,0l0,-0.16682l0.09731,0.33364l-0.09731,0.33365l0,-0.16682l-0.03902,0l0,0.26677l-0.07781,0l0,0.13377l0.04866,0l-0.09732,0.33365l-0.09731,-0.33365l0.04865,0l0,-0.13377l-0.07781,0l0,-0.26677l-0.03901,0l0,0.16682l-0.09732,-0.33365z" stroke="#f9f2f2" id="svg_150"/>
  <path fill="#ffffff" stroke-width="0.2" stroke-dasharray="null" stroke-linejoin="null" stroke-linecap="null" opacity="0.8" d="m382.15631,190.60662l0.09732,-0.33364l0,0.16682l0.03901,0l0,-0.26678l0.07781,0l0,-0.13377l-0.04865,0l0.09731,-0.33365l0.09732,0.33365l-0.04866,0l0,0.13377l0.07781,0l0,0.26678l0.03902,0l0,-0.16682l0.09731,0.33364l-0.09731,0.33365l0,-0.16682l-0.03902,0l0,0.26677l-0.07781,0l0,0.13377l0.04866,0l-0.09732,0.33365l-0.09731,-0.33365l0.04865,0l0,-0.13377l-0.07781,0l0,-0.26677l-0.03901,0l0,0.16682l-0.09732,-0.33365z" stroke="#f9f2f2" id="svg_151"/>
  <path fill="#ffffff" stroke-width="0.2" stroke-dasharray="null" stroke-linejoin="null" stroke-linecap="null" opacity="0.8" d="m384.1734,164.0285l0.09732,-0.33364l0,0.16682l0.03901,0l0,-0.26678l0.07781,0l0,-0.13377l-0.04865,0l0.09731,-0.33365l0.09732,0.33365l-0.04866,0l0,0.13377l0.07781,0l0,0.26678l0.03902,0l0,-0.16682l0.09731,0.33364l-0.09731,0.33365l0,-0.16682l-0.03902,0l0,0.26677l-0.07781,0l0,0.13377l0.04866,0l-0.09732,0.33365l-0.09731,-0.33365l0.04865,0l0,-0.13377l-0.07781,0l0,-0.26677l-0.03901,0l0,0.16682l-0.09732,-0.33365z" stroke="#f9f2f2" id="svg_152"/>
  <path fill="#ffffff" stroke-width="0.2" stroke-dasharray="null" stroke-linejoin="null" stroke-linecap="null" opacity="0.8" d="m376.10504,221.10027l0.09732,-0.33364l0,0.16682l0.03901,0l0,-0.26678l0.07781,0l0,-0.13377l-0.04865,0l0.09731,-0.33365l0.09732,0.33365l-0.04866,0l0,0.13377l0.07781,0l0,0.26678l0.03902,0l0,-0.16682l0.09731,0.33364l-0.09731,0.33365l0,-0.16682l-0.03902,0l0,0.26677l-0.07781,0l0,0.13377l0.04866,0l-0.09732,0.33365l-0.09731,-0.33365l0.04865,0l0,-0.13377l-0.07781,0l0,-0.26677l-0.03901,0l0,0.16682l-0.09732,-0.33365z" stroke="#f9f2f2" id="svg_153"/>
  <path fill="#ffffff" stroke-width="0.2" stroke-dasharray="null" stroke-linejoin="null" stroke-linecap="null" opacity="0.8" d="m370.29107,177.37688l0.09732,-0.33364l0,0.16682l0.03901,0l0,-0.26678l0.07781,0l0,-0.13377l-0.04865,0l0.09731,-0.33365l0.09732,0.33365l-0.04866,0l0,0.13377l0.07781,0l0,0.26678l0.03902,0l0,-0.16682l0.09731,0.33364l-0.09731,0.33365l0,-0.16682l-0.03902,0l0,0.26677l-0.07781,0l0,0.13377l0.04866,0l-0.09732,0.33365l-0.09731,-0.33365l0.04865,0l0,-0.13377l-0.07781,0l0,-0.26677l-0.03901,0l0,0.16682l-0.09732,-0.33365z" stroke="#f9f2f2" id="svg_154"/>
  <path fill="#ffffff" stroke-width="0.2" stroke-dasharray="null" stroke-linejoin="null" stroke-linecap="null" opacity="0.8" d="m383.2835,119.35589l0.09732,-0.33364l0,0.16682l0.03901,0l0,-0.26678l0.07781,0l0,-0.13377l-0.04865,0l0.09731,-0.33365l0.09732,0.33365l-0.04866,0l0,0.13377l0.07781,0l0,0.26678l0.03902,0l0,-0.16682l0.09731,0.33364l-0.09731,0.33365l0,-0.16682l-0.03902,0l0,0.26677l-0.07781,0l0,0.13377l0.04866,0l-0.09732,0.33365l-0.09731,-0.33365l0.04865,0l0,-0.13377l-0.07781,0l0,-0.26677l-0.03901,0l0,0.16682l-0.09732,-0.33365z" stroke="#f9f2f2" id="svg_155"/>
  <path fill="#ffffff" stroke-width="0.2" stroke-dasharray="null" stroke-linejoin="null" stroke-linecap="null" opacity="0.8" d="m382.86822,228.16009l0.09732,-0.33364l0,0.16682l0.03901,0l0,-0.26678l0.07781,0l0,-0.13377l-0.04865,0l0.09731,-0.33365l0.09732,0.33365l-0.04866,0l0,0.13377l0.07781,0l0,0.26678l0.03902,0l0,-0.16682l0.09731,0.33364l-0.09731,0.33365l0,-0.16682l-0.03902,0l0,0.26677l-0.07781,0l0,0.13377l0.04866,0l-0.09732,0.33365l-0.09731,-0.33365l0.04865,0l0,-0.13377l-0.07781,0l0,-0.26677l-0.03901,0l0,0.16682l-0.09732,-0.33365z" stroke="#f9f2f2" id="svg_156"/>
  <path fill="#ffffff" stroke-width="0.2" stroke-dasharray="null" stroke-linejoin="null" stroke-linecap="null" opacity="0.8" d="m374.81439,234.60688l0.48772,0.68177l0,-0.34088l0.19549,0l0,0.54515l0.38995,0l0,0.27334l-0.24381,0l0.48766,0.6818l0.48772,-0.6818l-0.24386,0l0,-0.27334l0.38995,0l0,-0.54515l0.19554,0l0,0.34088l0.48767,-0.68177l-0.48767,-0.68179l0,0.34089l-0.19554,0l0,-0.54513l-0.38995,0l0,-0.27335l0.24386,0l-0.48772,-0.68179l-0.48766,0.68179l0.24381,0l0,0.27335l-0.38995,0l0,0.54513l-0.19549,0l0,-0.34089l-0.48772,0.68179z" stroke="#f9f2f2" id="svg_157"/>
  <path fill="#ffffff" stroke-width="0.2" stroke-dasharray="null" stroke-linejoin="null" stroke-linecap="null" opacity="0.8" d="m383.55624,149.17861l0.09732,-0.33364l0,0.16682l0.03901,0l0,-0.26678l0.07781,0l0,-0.13377l-0.04865,0l0.09731,-0.33365l0.09732,0.33365l-0.04866,0l0,0.13377l0.07781,0l0,0.26678l0.03902,0l0,-0.16682l0.09731,0.33364l-0.09731,0.33365l0,-0.16682l-0.03902,0l0,0.26677l-0.07781,0l0,0.13377l0.04866,0l-0.09732,0.33365l-0.09731,-0.33365l0.04865,0l0,-0.13377l-0.07781,0l0,-0.26677l-0.03901,0l0,0.16682l-0.09732,-0.33365z" transform="rotate(-1.9383249282836914 383.819030761719,149.1786193847656) " stroke="#f9f2f2" id="svg_158"/>
  <path fill="#ffffff" stroke-width="0.2" stroke-dasharray="null" stroke-linejoin="null" stroke-linecap="null" opacity="0.8" d="m372.23153,279.76211l0.09732,-0.33364l0,0.16682l0.03901,0l0,-0.26678l0.07781,0l0,-0.13377l-0.04865,0l0.09731,-0.33365l0.09732,0.33365l-0.04866,0l0,0.13377l0.07781,0l0,0.26678l0.03902,0l0,-0.16682l0.09731,0.33364l-0.09731,0.33365l0,-0.16682l-0.03902,0l0,0.26677l-0.07781,0l0,0.13377l0.04866,0l-0.09732,0.33365l-0.09731,-0.33365l0.04865,0l0,-0.13377l-0.07781,0l0,-0.26677l-0.03901,0l0,0.16682l-0.09732,-0.33365z" transform="rotate(-1.9383249282836914 372.4943237304664,279.76208496093767) " stroke="#deea38" id="svg_159"/>
  <path fill="#ffffff" stroke-width="0.2" stroke-dasharray="null" stroke-linejoin="null" stroke-linecap="null" opacity="0.8" d="m381.86874,313.28798l0.09732,-0.33364l0,0.16682l0.03901,0l0,-0.26678l0.07781,0l0,-0.13377l-0.04865,0l0.09731,-0.33365l0.09732,0.33365l-0.04866,0l0,0.13377l0.07781,0l0,0.26678l0.03902,0l0,-0.16682l0.09731,0.33364l-0.09731,0.33365l0,-0.16682l-0.03902,0l0,0.26677l-0.07781,0l0,0.13377l0.04866,0l-0.09732,0.33365l-0.09731,-0.33365l0.04865,0l0,-0.13377l-0.07781,0l0,-0.26677l-0.03901,0l0,0.16682l-0.09732,-0.33365z" transform="rotate(-1.9383249282836914 382.13153076171983,313.2879943847641) " stroke="#f9f2f2" id="svg_160"/>
  <path fill="#ff007f" stroke-width="0.2" stroke-dasharray="null" stroke-linejoin="null" stroke-linecap="null" opacity="0.5" d="m371.08398,325.39424l1.68812,-0.158l0,0.079l0.67667,0l0,-0.12634l1.3497,0l0,-0.06334l-0.84389,0l1.68795,-0.158l1.68812,0.158l-0.84406,0l0,0.06334l1.3497,0l0,0.12634l0.67684,0l0,-0.079l1.68795,0.158l-1.68795,0.158l0,-0.079l-0.67684,0l0,0.12633l-1.3497,0l0,0.06335l0.84406,0l-1.68812,0.158l-1.68795,-0.158l0.84389,0l0,-0.06335l-1.3497,0l0,-0.12633l-0.67667,0l0,0.079l-1.68812,-0.158z" transform="rotate(-1.9383249282836914 375.64251708984085,325.39425659179676) " id="svg_161" stroke="#f9f2f2"/>
  <path fill="#ffffff" stroke-width="0.2" stroke-dasharray="null" stroke-linejoin="null" stroke-linecap="null" opacity="0.8" d="m371.42734,340.81533l0.09732,-0.33364l0,0.16683l0.039,0l0,-0.2668l0.07781,0l0,-0.13376l-0.04865,0l0.09731,-0.33364l0.09732,0.33364l-0.04865,0l0,0.13376l0.07781,0l0,0.2668l0.03902,0l0,-0.16683l0.0973,0.33364l-0.0973,0.33364l0,-0.16681l-0.03902,0l0,0.26677l-0.07781,0l0,0.13378l0.04865,0l-0.09732,0.33364l-0.09731,-0.33364l0.04865,0l0,-0.13378l-0.07781,0l0,-0.26677l-0.039,0l0,0.16681l-0.09732,-0.33364z" transform="rotate(-1.9383249282836914 371.69012451171506,340.8153381347656) " stroke="#f9f2f2" id="svg_163"/>
  <path fill="#ffffff" stroke-width="0.2" stroke-dasharray="null" stroke-linejoin="null" stroke-linecap="null" opacity="0.8" d="m382.71249,250.65935l0.09732,-0.33364l0,0.16683l0.039,0l0,-0.2668l0.07781,0l0,-0.13376l-0.04865,0l0.09731,-0.33364l0.09732,0.33364l-0.04865,0l0,0.13376l0.07781,0l0,0.2668l0.03902,0l0,-0.16683l0.0973,0.33364l-0.0973,0.33364l0,-0.16681l-0.03902,0l0,0.26677l-0.07781,0l0,0.13378l0.04865,0l-0.09732,0.33364l-0.09731,-0.33364l0.04865,0l0,-0.13378l-0.07781,0l0,-0.26677l-0.039,0l0,0.16681l-0.09732,-0.33364z" transform="rotate(-1.9383249282836914 382.975280761714,250.6593627929696) " stroke="#f9f2f2" id="svg_178"/>
  <path fill="#ffffff" stroke-width="0.2" stroke-dasharray="null" stroke-linejoin="null" stroke-linecap="null" opacity="0.8" d="m382.63999,290.62539l0.09732,-0.33364l0,0.16683l0.039,0l0,-0.2668l0.07781,0l0,-0.13376l-0.04865,0l0.09731,-0.33364l0.09732,0.33364l-0.04865,0l0,0.13376l0.07781,0l0,0.2668l0.03902,0l0,-0.16683l0.0973,0.33364l-0.0973,0.33364l0,-0.16681l-0.03902,0l0,0.26677l-0.07781,0l0,0.13378l0.04865,0l-0.09732,0.33364l-0.09731,-0.33364l0.04865,0l0,-0.13378l-0.07781,0l0,-0.26677l-0.039,0l0,0.16681l-0.09732,-0.33364z" transform="rotate(-1.9383249282836914 382.9027709960914,290.62539672851614) " stroke="#f9f2f2" id="svg_179"/>
  <path transform="rotate(-172.53396606445312 273.0476379394531,262.0242614746094) " d="m265.28405,280.20004l7.76359,-36.35155l7.76359,36.35155l-15.52719,0l0.00001,0z" stroke-linecap="null" stroke-linejoin="null" stroke-dasharray="null" stroke-width="0" fill="#ffaaaa" id="svg_203" stroke="#000000"/>
  <path transform="rotate(-171.87158203125 271.20123291015625,259.86700439453125) " d="m265.19457,276.65533l6.00667,-33.57665l6.00667,33.57665l-12.01334,0l0.00001,0l-0.00001,0z" stroke-linecap="null" stroke-linejoin="null" stroke-dasharray="null" stroke-width="0" fill="#ffd4aa" id="svg_204" stroke="#ef7373"/>
  <path transform="rotate(-171.87158203125 273.1864929199219,260.61187744140625) " d="m266.69137,277.40021l6.49513,-33.57664l6.49511,33.57664l-12.99025,0l0.00001,0z" stroke-linecap="null" stroke-linejoin="null" stroke-dasharray="null" stroke-width="0" fill="#ffd4aa" id="svg_205" stroke="#ef7373"/>
  <rect fill="#e0418e" stroke-width="0" stroke-dasharray="null" stroke-linejoin="null" stroke-linecap="null" x="214.81144" y="247.83385" width="179.44897" height="2.40675" opacity="0.3" transform="rotate(-90.77033233642578 304.5359191894532,249.03721618652347) " id="svg_112" stroke="#000000"/>
  <rect fill="#e0418e" stroke-width="0" stroke-dasharray="null" stroke-linejoin="null" stroke-linecap="null" x="299.17404" y="121.6898" width="10.8956" height="2.40675" opacity="0.3" transform="rotate(-90.77033233642578 304.6218566894532,122.8931655883789) " id="svg_121" stroke="#000000"/>
  <path fill="#ffffff" stroke-width="0.2" stroke-dasharray="null" stroke-linejoin="null" stroke-linecap="null" opacity="0.8" d="m326.72064,120.38422l0.48772,0.68177l0,-0.34088l0.19549,0l0,0.54515l0.38995,0l0,0.27334l-0.24381,0l0.48766,0.6818l0.48772,-0.6818l-0.24386,0l0,-0.27334l0.38995,0l0,-0.54515l0.19554,0l0,0.34088l0.48767,-0.68177l-0.48767,-0.68179l0,0.34089l-0.19554,0l0,-0.54513l-0.38995,0l0,-0.27335l0.24386,0l-0.48772,-0.68179l-0.48766,0.68179l0.24381,0l0,0.27335l-0.38995,0l0,0.54513l-0.19549,0l0,-0.34089l-0.48772,0.68179z" stroke="#f9f2f2" id="svg_207"/>
  <path fill="#ffffff" stroke-width="0.2" stroke-dasharray="null" stroke-linejoin="null" stroke-linecap="null" opacity="0.8" d="m346.33783,138.10297l0.48772,0.68177l0,-0.34088l0.19549,0l0,0.54515l0.38995,0l0,0.27334l-0.24381,0l0.48766,0.6818l0.48772,-0.6818l-0.24386,0l0,-0.27334l0.38995,0l0,-0.54515l0.19554,0l0,0.34088l0.48767,-0.68177l-0.48767,-0.68179l0,0.34089l-0.19554,0l0,-0.54513l-0.38995,0l0,-0.27335l0.24386,0l-0.48772,-0.68179l-0.48766,0.68179l0.24381,0l0,0.27335l-0.38995,0l0,0.54513l-0.19549,0l0,-0.34089l-0.48772,0.68179z" stroke="#f9f2f2" id="svg_208"/>
  <path fill="#ffffff" stroke-width="0.2" stroke-dasharray="null" stroke-linejoin="null" stroke-linecap="null" opacity="0.8" d="m346.02142,120.06781l0.48772,0.68177l0,-0.34088l0.19549,0l0,0.54515l0.38995,0l0,0.27334l-0.24381,0l0.48766,0.6818l0.48772,-0.6818l-0.24386,0l0,-0.27334l0.38995,0l0,-0.54515l0.19554,0l0,0.34088l0.48767,-0.68177l-0.48767,-0.68179l0,0.34089l-0.19554,0l0,-0.54513l-0.38995,0l0,-0.27335l0.24386,0l-0.48772,-0.68179l-0.48766,0.68179l0.24381,0l0,0.27335l-0.38995,0l0,0.54513l-0.19549,0l0,-0.34089l-0.48772,0.68179z" stroke="#f9f2f2" id="svg_209"/>
 </g>
</svg>
