<svg width="480.0000000000001" height="620" xmlns="http://www.w3.org/2000/svg" xmlns:svg="http://www.w3.org/2000/svg">
 <!-- Created with SVG-edit - http://svg-edit.googlecode.com/ -->
 <g>
  <title>Layer 1</title>
  <rect fill="#bf37bf" stroke-width="0" stroke-dasharray="null" stroke-linejoin="null" stroke-linecap="null" x="115.30939" y="96.08245" width="298.68751" height="267.90509" id="svg_6" stroke="#000000"/>
  <rect stroke="#000000" opacity="0.6" id="svg_74" height="18.66667" width="294.66667" y="98.66667" x="118.66667" stroke-linecap="null" stroke-linejoin="null" stroke-dasharray="null" stroke-width="0" fill="#ff007f"/>
  <ellipse stroke="#000000" id="svg_13" opacity="0.9" ry="78.15338" rx="42.34299" cy="240.5854" cx="254.90893" stroke-width="0" fill="#ff00ff"/>
  <rect fill="#f484f4" stroke-width="0" stroke-dasharray="null" stroke-linejoin="null" stroke-linecap="null" x="304.99998" y="148.13334" width="62.41668" height="215.49999" id="svg_48" stroke="#000000"/>
  <rect id="svg_57" fill="#ed34ed" stroke-width="0" stroke-dasharray="null" stroke-linejoin="null" stroke-linecap="null" x="332.33335" y="148.71669" width="1" height="214.5833" stroke="#000000"/>
  <rect stroke="#000000" opacity="0.1" id="svg_16" fill="#7f007f" stroke-width="0" stroke-dasharray="null" stroke-linejoin="null" stroke-linecap="null" x="371.25" y="145.30001" width="2.5" height="217.24998"/>
  <rect stroke="#000000" fill="#e006e0" stroke-width="0" stroke-dasharray="null" stroke-linejoin="null" stroke-linecap="null" x="369.33333" y="98.13334" width="18" height="264.33331" id="svg_44"/>
  <ellipse stroke="#000000" ry="26.42969" rx="27.03386" id="svg_60" cy="125.54112" cx="147.69427" opacity="0.8" stroke-linecap="null" stroke-linejoin="null" stroke-dasharray="null" stroke-width="0" fill="#dcc8f7"/>
  <rect stroke="#000000" fill="#f76cf7" stroke-width="0" stroke-dasharray="null" stroke-linejoin="null" stroke-linecap="null" x="129.41667" y="145.80001" width="16.83336" height="217.24999" id="svg_49"/>
  <ellipse stroke="#000000" id="svg_61" ry="24.89323" rx="26.1875" cy="125.97342" cx="147.95208" opacity="0.8" stroke-linecap="null" stroke-linejoin="null" stroke-dasharray="null" stroke-width="0" fill="#8116fc"/>
  <rect fill="#cc47cc" stroke-width="0" stroke-dasharray="null" stroke-linejoin="null" stroke-linecap="null" x="311.25" y="155.96669" width="16.5" height="204.8333" id="svg_73" stroke="#000000"/>
  <rect stroke="#000000" fill="#ed34ed" stroke-width="0" stroke-dasharray="null" stroke-linejoin="null" stroke-linecap="null" x="312" y="156.71669" width="15" height="207.0833" id="svg_43"/>
  <rect fill="#ff00ff" stroke-width="0" stroke-dasharray="null" stroke-linejoin="null" stroke-linecap="null" x="338.25" y="155.79998" width="25.75" height="209.00001" id="svg_42" stroke="#000000"/>
  <ellipse opacity="0.9" id="svg_126" ry="89.77838" rx="47.00348" cy="239.4334" cx="247.97143" stroke-width="0" fill="#ffaaaa" stroke="#000000"/>
  <rect stroke="#000000" fill="#f7a8ce" stroke-width="0" stroke-dasharray="null" stroke-linejoin="null" stroke-linecap="null" x="132.34568" y="145.31545" width="32.65433" height="218.48454" id="svg_46"/>
  <ellipse ry="89.77838" rx="45.22571" id="svg_1" cy="239.27942" cx="241.11398" stroke-width="0" fill="#ffd4aa" stroke="#000000"/>
  <rect stroke="#000000" id="svg_14" height="17" width="20" y="283.05399" x="203.09618" stroke-linecap="null" stroke-linejoin="null" stroke-dasharray="null" stroke-width="0" fill="#ffffff"/>
  <path id="svg_8" d="m225.01643,275.49294c0,0 3.79687,5.0625 6.32812,4.42969c2.53125,-0.63281 7.27735,0 7.22576,-0.2195c-0.05158,-0.21951 5.43049,-4.21019 5.37891,-4.42969" opacity="0.5" stroke-linecap="null" stroke-linejoin="null" stroke-dasharray="null" stroke-width="0" stroke="#000000" fill="#ffd4aa"/>
  <path fill="#ffd4aa" stroke-width="0" stroke-dasharray="null" stroke-linejoin="null" stroke-linecap="null" d="m198.41938,259.30004c0,0 3.55981,13.54389 1.7799,16.73069c-1.7799,3.1868 -1.7799,7.967 -2.19524,7.18794c-0.41533,-0.77906 11.09475,1.57576 10.67942,0.7967" id="svg_4" stroke="#000000"/>
  <path fill="#ffd4aa" stroke-width="0" stroke-dasharray="null" stroke-linejoin="null" stroke-linecap="null" d="m200.44963,292.97584c0,0 5.01916,13.5439 2.50958,16.73069c-2.50958,3.1868 -2.50958,7.967 -3.09519,7.18794c-0.5856,-0.77906 15.6431,1.57576 15.0575,0.7967" id="svg_5" transform="rotate(174.20925903320312 207.39276123046875,305.4136657714843) " stroke="#000000"/>
  <ellipse stroke="#000000" id="svg_22" fill="#7f00ff" stroke-width="0" stroke-dasharray="null" stroke-linejoin="null" stroke-linecap="null" cx="226.98125" cy="312.96875" rx="26.46875" ry="19.59375"/>
  <ellipse fill="#ffd4aa" stroke-width="0" stroke-dasharray="null" stroke-linejoin="null" stroke-linecap="null" cx="231.2" cy="311" id="svg_10" rx="29" ry="21" stroke="#000000"/>
  <ellipse id="svg_7" ry="22.12499" rx="44.53126" cy="210.13594" cx="238.85704" stroke-width="0" fill="#ffd4aa" stroke="#000000"/>
  <ellipse fill="#7f007f" stroke-width="0" stroke-dasharray="null" stroke-linejoin="null" stroke-linecap="null" cx="224.7" cy="226.5" id="svg_11" rx="12.50001" ry="9.5" opacity="0.1" stroke="#000000"/>
  <path id="svg_134" fill="#964040" stroke="#000000" stroke-width="0" stroke-dasharray="null" stroke-linejoin="null" stroke-linecap="null" d="m223.71496,221.16315l13.23748,7.88746l-14.0625,5.625c0,0 -10.98748,-7.88746 -6.48748,-10.69996c4.5,-2.8125 7.3125,-2.8125 7.3125,-2.8125z"/>
  <path fill="#ffffff" stroke="#000000" stroke-width="0" stroke-dasharray="null" stroke-linejoin="null" stroke-linecap="null" d="m222.76252,220.92504l13.23748,7.88746l-14.0625,5.625c0,0 -10.98748,-7.88746 -6.48748,-10.69996c4.5,-2.8125 7.3125,-2.8125 7.3125,-2.8125z" id="svg_3"/>
  <path id="svg_79" fill="#0000ff" stroke-width="0" stroke-dasharray="null" stroke-linejoin="null" stroke-linecap="null" d="m205.03308,212.15826l24.8,-2.57143l14,9l11,9l-49.8,-15.42857z" stroke="#000000"/>
  <path fill="#7f00ff" stroke-width="0" stroke-dasharray="null" stroke-linejoin="null" stroke-linecap="null" d="m201.95254,210.81889l24.8,-2.57143l14,9l11,9l-49.8,-15.42857z" id="svg_12" stroke="#000000"/>
  <ellipse stroke="#000000" ry="2" id="svg_23" cy="225.8" cx="222.2" stroke-linecap="null" stroke-linejoin="null" stroke-dasharray="null" stroke-width="0" fill="#000000"/>
  <ellipse stroke="#000000" ry="2.37305" rx="10.08545" id="svg_24" cy="282.46976" cx="215.5163" stroke-linecap="null" stroke-linejoin="null" stroke-dasharray="null" stroke-width="0" fill="#ffd4aa"/>
  <ellipse transform="rotate(-12.225204467773438 215.75358581542903,295.04690551757795) " id="svg_25" stroke="#000000" ry="2.37305" rx="10.08545" cy="295.04691" cx="215.7536" stroke-linecap="null" stroke-linejoin="null" stroke-dasharray="null" stroke-width="0" fill="#ffd4aa"/>
  <ellipse stroke="#000000" id="svg_26" transform="rotate(-8.13706111907959 206.82388305664028,281.1813659667969) " ry="2.9244" rx="9.03526" cy="281.18138" cx="206.82388" stroke-linecap="null" stroke-linejoin="null" stroke-dasharray="null" stroke-width="0" fill="#ffd4aa"/>
  <ellipse id="svg_27" stroke="#000000" transform="rotate(4.891592025756836 207.29849243163875,295.65695190429705) " ry="2.9244" rx="9.03526" cy="295.65697" cx="207.29849" stroke-linecap="null" stroke-linejoin="null" stroke-dasharray="null" stroke-width="0" fill="#ffd4aa"/>
  <path fill="#ffd4aa" stroke-width="0" stroke-dasharray="null" stroke-linejoin="null" stroke-linecap="null" d="m177.12182,259.64451c0,0 -0.7864,4.11328 10.61635,5.0625c11.40274,0.94922 23.98508,3.79688 20.44629,-1.58203c-3.53878,-5.37891 -6.29117,-9.80859 -7.47076,-20.88281c-1.17959,-11.07422 -3.93198,-17.08594 -4.15337,-17.24216c-0.22139,-0.15622 -19.43851,34.6445 -19.43851,34.6445z" id="svg_2" stroke="#000000"/>
  <ellipse stroke="#000000" opacity="0.9" id="svg_127" ry="10.00603" rx="30.91712" cy="322.28811" cx="259.82777" stroke-linecap="null" stroke-linejoin="null" stroke-dasharray="null" stroke-width="0" fill="#ffaaaa"/>
  <ellipse id="svg_59" ry="8.8632" rx="30.64924" cy="325.03819" cx="261.34571" stroke-linecap="null" stroke-linejoin="null" stroke-dasharray="null" stroke-width="0" fill="#bf37bf" stroke="#000000"/>
  <ellipse id="svg_64" stroke="#000000" ry="3.80975" rx="8.67776" cy="281.30246" cx="216.04157" stroke-linecap="null" stroke-linejoin="null" stroke-dasharray="null" stroke-width="0" fill="#ffd4aa"/>
  <polygon fill="#7f007f" id="svg_70"/>
  <polygon fill="#7f007f" id="svg_71"/>
  <rect stroke="#000000" id="svg_91" height="11.28815" width="32.17123" y="268.49041" x="196.38607" stroke-linecap="null" stroke-linejoin="null" stroke-dasharray="null" stroke-width="0.1" fill="#7f00ff"/>
  <path stroke="#000000" transform="rotate(-98.0065689086914 214.3592987060547,265.6795349121094) " id="svg_92" d="m199.05763,281.08793l15.30167,-30.81679l15.30167,30.81679l-30.60334,0z" stroke-linecap="null" stroke-linejoin="null" stroke-dasharray="null" stroke-width="0" fill="#ffd4aa"/>
  <ellipse opacity="0.1" ry="3.95085" rx="4.51526" id="svg_94" cy="228.56739" cx="228.50438" stroke-linecap="null" stroke-linejoin="null" stroke-dasharray="null" stroke-width="0" stroke="#000000" fill="#ff007f"/>
  <ellipse ry="8.46611" rx="9.03052" id="svg_95" cy="271.07433" cx="229.86249" stroke-linecap="null" stroke-linejoin="null" stroke-dasharray="null" stroke-width="0.1" stroke="#000000" fill="#7f00ff"/>
  <ellipse stroke="#000000" id="svg_96" ry="7.15651" rx="8.5543" cy="270.71717" cx="228.19572" stroke-linecap="null" stroke-linejoin="null" stroke-dasharray="null" stroke-width="0" fill="#ffd4aa"/>
  <ellipse stroke="#000000" id="svg_97" ry="7.15651" rx="5.57793" cy="270.00284" cx="227.83856" stroke-linecap="null" stroke-linejoin="null" stroke-dasharray="null" stroke-width="0" fill="#7f00ff"/>
  <ellipse stroke="#000000" id="svg_98" ry="7.03746" rx="6.29226" cy="270.59811" cx="229.74343" stroke-linecap="null" stroke-linejoin="null" stroke-dasharray="null" stroke-width="0" fill="#ffd4aa"/>
  <ellipse id="svg_99" stroke="#000000" ry="7.15651" rx="7.36376" cy="270.47906" cx="230.1006" stroke-linecap="null" stroke-linejoin="null" stroke-dasharray="null" stroke-width="0" fill="#ffd4aa"/>
  <ellipse stroke="#000000" id="svg_100" ry="6.56124" rx="7.2447" cy="271.07434" cx="229.98155" stroke-linecap="null" stroke-linejoin="null" stroke-dasharray="null" stroke-width="0.1" fill="#7f00ff"/>
  <ellipse stroke="#000000" id="svg_101" ry="4.89447" rx="5.81605" cy="270.59812" cx="229.50533" stroke-linecap="null" stroke-linejoin="null" stroke-dasharray="null" stroke-width="0" fill="#ffd4aa"/>
  <ellipse stroke="#000000" id="svg_102" ry="4.18014" rx="4.38739" cy="271.31244" cx="229.98154" stroke-linecap="null" stroke-linejoin="null" stroke-dasharray="null" stroke-width="0.1" fill="#7f00ff"/>
  <ellipse stroke="#000000" id="svg_103" ry="4.2992" rx="4.14928" cy="271.19339" cx="229.26721" stroke-linecap="null" stroke-linejoin="null" stroke-dasharray="null" stroke-width="0" fill="#ffd4aa"/>
  <ellipse stroke="#000000" id="svg_105" opacity="0.1" ry="2.5222" rx="2.84849" cy="228.09116" cx="229.21871" stroke-linecap="null" stroke-linejoin="null" stroke-dasharray="null" stroke-width="0" fill="#ff007f"/>
  <ellipse stroke="#000000" id="svg_106" opacity="0.5" ry="1.92692" rx="2.25322" cy="228.21022" cx="229.81398" stroke-linecap="null" stroke-linejoin="null" stroke-dasharray="null" fill="#ff007f"/>
  <ellipse stroke="#000000" ry="0.73665" rx="4.15203" id="svg_118" cy="278.94203" cx="228.22976" stroke-linecap="null" stroke-linejoin="null" stroke-dasharray="null" stroke-width="0" fill="#7f00ff"/>
  <ellipse ry="2.74227" rx="3.58167" id="svg_136" cy="168.43295" cx="251.78769" stroke-linecap="null" stroke-linejoin="null" stroke-dasharray="null" stroke-width="0" fill="#f7c18f" stroke="#000000"/>
  <ellipse id="svg_129" stroke="#000000" fill="#ff00ff" stroke-width="0" stroke-dasharray="null" stroke-linejoin="null" stroke-linecap="null" cx="227.90414" cy="149.62603" rx="32.56761" ry="22.78381"/>
  <ellipse stroke="#000000" id="svg_119" fill="#7f00ff" stroke-width="0" stroke-dasharray="null" stroke-linejoin="null" stroke-linecap="null" cx="232.98381" cy="148.67359" rx="32.56761" ry="22.78381"/>
  <ellipse stroke="#000000" id="svg_120" fill="#bf37bf" stroke-width="0" stroke-dasharray="null" stroke-linejoin="null" stroke-linecap="null" cx="248.14617" cy="138.86266" rx="35.24332" ry="12.97287"/>
  <ellipse id="svg_130" stroke="#000000" fill="#ff00ff" stroke-width="0" stroke-dasharray="null" stroke-linejoin="null" stroke-linecap="null" cx="272.49235" cy="169.83886" rx="12.24894" ry="16.85752"/>
  <ellipse stroke="#000000" id="svg_122" fill="#7f00ff" stroke-width="0" stroke-dasharray="null" stroke-linejoin="null" stroke-linecap="null" cx="271.92794" cy="168.71005" rx="12.24894" ry="16.85752"/>
  <path stroke="#000000" opacity="0.5" id="svg_131" transform="rotate(22.458948135375977 266.86230468750006,152.49472045898435) " d="m261.15926,170.07198l5.70306,-35.15452l5.70306,35.15452l-11.40612,0z" stroke-linecap="null" stroke-linejoin="null" stroke-dasharray="null" stroke-width="0" fill="#ff0000"/>
  <path stroke="#000000" transform="rotate(22.458948135375977 262.49542236328125,162.3626098632813) " id="svg_117" d="m254.44515,188.30033l8.05026,-51.87543l8.05026,51.87543l-16.10052,0z" stroke-linecap="null" stroke-linejoin="null" stroke-dasharray="null" stroke-width="0" fill="#ffd4aa"/>
  <path transform="rotate(15.478888511657715 266.55917358398426,157.75328063964832) " id="svg_132" d="m265.03565,177.51463l1.52353,-39.52268l1.52353,39.52268l-3.04707,0l0.00001,0z" stroke-linecap="null" stroke-linejoin="null" stroke-dasharray="null" stroke-width="0" fill="#e09de0" stroke="#000000"/>
  <ellipse stroke="#000000" transform="rotate(15.623745918273926 263.26879882812494,169.77357482910153) " ry="0.63496" rx="1.37206" id="svg_133" cy="169.77358" cx="263.26884" stroke-linecap="null" stroke-linejoin="null" stroke-dasharray="null" stroke-width="0" fill="#e09de0"/>
  <path id="svg_135" transform="rotate(30.75926971435547 260.70361328125006,157.36193847656247) " d="m259.67912,174.25452l1.0245,-33.78519l1.0245,33.78519l-2.04899,0l0,0l-0.00001,0z" stroke-linecap="null" stroke-linejoin="null" stroke-dasharray="null" stroke-width="0" fill="#f7c18f" stroke="#000000"/>
  <path fill="#ffaaaa" stroke-width="0" stroke-dasharray="null" stroke-linejoin="null" stroke-linecap="null" d="m268.53927,244.79067l8.39104,-36.35155l8.39104,36.35155l-16.78208,0z" id="svg_9" stroke="#000000" transform="rotate(8.954041481018066 276.93029785156267,226.61489868164057) "/>
  <ellipse fill="#ffaaaa" stroke="#000000" stroke-width="0" stroke-dasharray="null" stroke-linejoin="null" stroke-linecap="null" opacity="0.5" cx="281.31559" cy="262.64687" id="svg_15" ry="8.4375"/>
  <path fill="#ffd4aa" stroke-width="0" stroke-dasharray="null" stroke-linejoin="null" stroke-linecap="null" d="m265.4185,252.34285l6.02431,-38.76285l6.02431,38.76285l-12.04861,0l-0.00001,0z" id="svg_17" transform="rotate(9.013467788696289 271.44281005859403,232.96142578125014) " stroke="#ef7373"/>
  <path fill="#ffd4aa" stroke-width="0" stroke-dasharray="null" stroke-linejoin="null" stroke-linecap="null" d="m266.86869,258.62252l8.01885,-42.79376l8.01885,42.79376l-16.03771,0l0.00001,0z" transform="rotate(10.263007164001465 274.88754272460915,237.22564697265634) " id="svg_19" stroke="#ef7373"/>
  <rect stroke="#000000" fill="#bf37bf" stroke-width="0" stroke-dasharray="null" stroke-linejoin="null" stroke-linecap="null" x="270.97846" y="312.86302" width="20.39906" height="14.19153" id="svg_20" transform="rotate(47.324459075927734 281.17797851562494,319.9587707519531) "/>
  <path fill="#f9b1b1" stroke-width="0" stroke-dasharray="null" stroke-linejoin="null" stroke-linecap="null" d="m197.92532,205.84796l10.67434,1.03646l-11.33962,0.73916c0,0 -8.86,-1.03646 -5.23133,-1.40603c3.62868,-0.36958 5.8966,-0.36958 5.8966,-0.36958l0.00001,-0.00001z" id="svg_21" transform="rotate(109.00371551513672 199.87782287597656,206.7357635498047) " stroke="#000000"/>
  <rect fill="#000000" stroke-width="0.05" stroke-dasharray="null" stroke-linejoin="null" stroke-linecap="null" x="202.9102" y="289.0051" width="9.81107" height="0.3002" id="svg_29" stroke="#000000"/>
  <rect fill="#000000" stroke-width="0.05" stroke-dasharray="null" stroke-linejoin="null" stroke-linecap="null" x="212.2163" y="288.51932" width="10.78684" height="0.26179" id="svg_31" transform="rotate(-5.079995155334473 217.6097259521477,288.65020751953125) " stroke="#000000"/>
  <path fill="#ffffff" stroke="#000000" stroke-width="0.3" stroke-dasharray="null" stroke-linejoin="null" stroke-linecap="null" d="m216.34763,290.55878l1.5017,-2.62797l1.5017,2.62797l-3.00339,0l-0.00001,0z" id="svg_30" transform="rotate(179.16310119628906 217.84933471679688,289.2448120117188) "/>
  <path fill="#ffffff" stroke-width="0" stroke-dasharray="null" stroke-linejoin="null" stroke-linecap="null" d="m214.61237,288.36283l3.25357,-2.62797l3.25359,2.62797l-6.50716,0z" transform="rotate(-6.533205986022949 217.86593627929705,287.048828125) " id="svg_32" stroke="#000000"/>
  <rect stroke="#000000" fill="#d820d8" stroke-width="0" stroke-dasharray="null" stroke-linejoin="null" stroke-linecap="null" x="141" y="146.61172" width="23" height="217.18827" id="svg_38"/>
  <ellipse id="svg_55" stroke="#000000" ry="6.66661" rx="6" cy="343.1998" cx="349.99998" opacity="0.4" stroke-linecap="null" stroke-linejoin="null" stroke-dasharray="null" stroke-width="0" fill="#ffffff"/>
  <rect fill="#e1ccf9" stroke-width="0" stroke-dasharray="null" stroke-linejoin="null" stroke-linecap="null" x="261.97522" y="202.88592" width="3.00007" height="298.9896" id="svg_39" transform="rotate(90.13925170898438 263.4752502441406,352.3807373046875) " stroke="#000000"/>
  <rect fill="#8116fc" stroke-width="0" stroke-dasharray="null" stroke-linejoin="null" stroke-linecap="null" x="262.97522" y="208.88592" width="3.00007" height="298.9896" transform="rotate(90.13925170898438 264.4752502441406,358.3807067871094) " stroke="#000000" id="svg_40"/>
  <ellipse ry="20.55469" rx="19.99219" cy="126.33279" cx="299.31927" opacity="0.8" stroke-linecap="null" stroke-linejoin="null" stroke-dasharray="null" stroke-width="0" fill="#dcc8f7" id="svg_66" stroke="#000000"/>
  <ellipse ry="17.60156" rx="18.1875" cy="124.01509" cx="302.95208" stroke-linecap="null" stroke-linejoin="null" stroke-dasharray="null" stroke-width="0" fill="#bf37bf" id="svg_67" stroke="#000000"/>
  <ellipse stroke="#000000" ry="20.13802" rx="20.15886" cy="162.08279" cx="379.06927" opacity="0.8" stroke-linecap="null" stroke-linejoin="null" stroke-dasharray="null" stroke-width="0" fill="#dcc8f7" id="svg_63"/>
  <ellipse stroke="#000000" ry="17.26823" rx="18.4375" cy="161.18175" cx="383.03541" opacity="0.8" stroke-linecap="null" stroke-linejoin="null" stroke-dasharray="null" stroke-width="0" fill="#ff007f" id="svg_65"/>
  <rect fill="#f76cf7" stroke-width="0" stroke-dasharray="null" stroke-linejoin="null" stroke-linecap="null" x="398.33267" y="112.60666" width="1.00001" height="258.31247" id="svg_50" stroke="#000000"/>
  <ellipse stroke="#000000" ry="22.13802" rx="20.15886" cy="258.08279" cx="380.23594" opacity="0.8" stroke-linecap="null" stroke-linejoin="null" stroke-dasharray="null" stroke-width="0" fill="#dcc8f7" id="svg_37"/>
  <rect fill="#af7fe2" stroke-width="0" stroke-dasharray="null" stroke-linejoin="null" stroke-linecap="null" x="264.37534" y="-32.27036" width="0.18756" height="298.9896" transform="rotate(90.13925170898438 264.4691162109375,117.22444152832031) " id="svg_51" stroke="#000000"/>
  <rect id="svg_18" stroke="#000000" opacity="0.1" fill="#7f007f" stroke-width="0" stroke-dasharray="null" stroke-linejoin="null" stroke-linecap="null" x="133.5" y="146.05001" width="2.5" height="217.24998"/>
  <ellipse stroke="#000000" ry="8.66667" rx="8.66667" cy="164.61667" cx="154.00001" opacity="0.4" stroke-linecap="null" stroke-linejoin="null" stroke-dasharray="null" stroke-width="0" fill="#ffffff" id="svg_68"/>
  <ellipse stroke="#000000" ry="8.66667" rx="8.66667" id="svg_28" cy="163.86667" cx="153.25001" opacity="0.4" stroke-linecap="null" stroke-linejoin="null" stroke-dasharray="null" stroke-width="0" fill="#ff007f"/>
  <ellipse stroke="#000000" ry="8.66667" rx="8.66667" cy="247.11667" cx="154.00001" opacity="0.4" stroke-linecap="null" stroke-linejoin="null" stroke-dasharray="null" stroke-width="0" fill="#ffffff" id="svg_69"/>
  <ellipse id="svg_35" stroke="#000000" ry="8.66667" rx="8.66667" cy="246.55417" cx="153.43751" opacity="0.4" stroke-linecap="null" stroke-linejoin="null" stroke-dasharray="null" stroke-width="0" fill="#ff007f"/>
  <ellipse stroke="#000000" id="svg_45" ry="6.66661" rx="6" cy="171.1998" cx="319.33332" opacity="0.4" stroke-linecap="null" stroke-linejoin="null" stroke-dasharray="null" stroke-width="0" fill="#ffffff"/>
  <ellipse id="svg_47" stroke="#000000" ry="6.66661" rx="6" cy="199.1998" cx="348.66665" opacity="0.4" stroke-linecap="null" stroke-linejoin="null" stroke-dasharray="null" stroke-width="0" fill="#ffffff"/>
  <ellipse id="svg_52" stroke="#000000" ry="6.66661" rx="6" cy="257.86647" cx="319.33332" opacity="0.4" stroke-linecap="null" stroke-linejoin="null" stroke-dasharray="null" stroke-width="0" fill="#ffffff"/>
  <ellipse id="svg_53" stroke="#000000" ry="6.66661" rx="6" cy="284.53313" cx="349.99998" opacity="0.4" stroke-linecap="null" stroke-linejoin="null" stroke-dasharray="null" stroke-width="0" fill="#ffffff"/>
  <ellipse id="svg_54" stroke="#000000" ry="6.66661" rx="6" cy="321.86646" cx="320.66665" opacity="0.4" stroke-linecap="null" stroke-linejoin="null" stroke-dasharray="null" stroke-width="0" fill="#ffffff"/>
  <rect id="svg_58" fill="#8116fc" stroke-width="0" stroke-dasharray="null" stroke-linejoin="null" stroke-linecap="null" x="264.30856" y="-51.11408" width="3.00007" height="298.9896" transform="rotate(90.13925170898438 265.80859375000006,98.38072204589838) " stroke="#000000"/>
  <ellipse stroke="#000000" ry="8.66667" rx="8.66667" cy="332.80417" cx="154.18751" opacity="0.4" stroke-linecap="null" stroke-linejoin="null" stroke-dasharray="null" stroke-width="0" fill="#ffffff" id="svg_72"/>
  <ellipse id="svg_34" ry="8.66667" rx="9.25" cy="332.61666" cx="153.25" opacity="0.4" stroke-linecap="null" stroke-linejoin="null" stroke-dasharray="null" stroke-width="0" fill="#ff007f" stroke="#000000"/>
  <path stroke="#000000" id="svg_56" d="m270.85503,271.55146l9.33332,-36.83332l9.33332,36.83332l-18.66663,0z" stroke-linecap="null" stroke-linejoin="null" stroke-dasharray="null" stroke-width="0" fill="#ffaaaa"/>
  <ellipse stroke="#000000" ry="18.60156" rx="17.10417" cy="257.84842" cx="382.86875" opacity="0.8" stroke-linecap="null" stroke-linejoin="null" stroke-dasharray="null" stroke-width="0" fill="#8116fc" id="svg_62"/>
  <ellipse stroke="#000000" ry="22.13802" rx="21.49219" cy="342.49946" cx="380.81927" opacity="0.8" stroke-linecap="null" stroke-linejoin="null" stroke-dasharray="null" stroke-width="0" fill="#dcc8f7" id="svg_33"/>
  <ellipse stroke="#000000" ry="18.60156" rx="19.77083" cy="342.84842" cx="382.70208" opacity="0.8" stroke-linecap="null" stroke-linejoin="null" stroke-dasharray="null" stroke-width="0" fill="#ff007f" id="svg_36"/>
  <polygon stroke="#000000" opacity="0.6" stroke-width="0" points="153.5370484077248,154.69637975080695 155.3772810454393,160.8105156248639 160.98098754882812,160.9423879521346 156.51462406416613,164.85302775379387 158.13766213851522,171.0486602783203 153.5370484077248,167.3514214389579 148.93643467693437,171.0486602783203 150.55947275128347,164.85302775379387 146.09310926662147,160.9423879521346 151.6968157700103,160.8105156248639 153.5370484077248,154.69637975080695 155.3772810454393,160.8105156248639 " strokeWidth="0" strokecolor="#000000" fill="#ff00ff" orient="point" r2="8.38812" r="20.97029" point="5" shape="star" id="svg_75" cy="113.33333" cx="140"/>
 </g>
</svg>
