<svg width="480.00000000000006" height="620" xmlns="http://www.w3.org/2000/svg" xmlns:svg="http://www.w3.org/2000/svg">
 <!-- Created with SVG-edit - http://svg-edit.googlecode.com/ -->
 <g>
  <title>Layer 1</title>
  <rect fill="#7f007f" stroke-width="0" stroke-dasharray="null" stroke-linejoin="null" stroke-linecap="null" x="105.88751" y="112.11254" width="298.68751" height="251.31251" id="svg_6" stroke="#000000"/>
  <ellipse opacity="0.9" stroke="#000000" id="svg_126" ry="89.77838" rx="48.78126" cy="239.4334" cx="249.74921" stroke-width="0" fill="#ffaaaa"/>
  <ellipse stroke="#000000" ry="89.77838" rx="48.78126" id="svg_1" cy="235.48254" cx="244.66954" stroke-width="0" fill="#ffd4aa"/>
  <rect stroke="#000000" id="svg_14" height="17" width="20" y="282.8" x="203.2" stroke-linecap="null" stroke-linejoin="null" stroke-dasharray="null" stroke-width="0" fill="#ffffff"/>
  <path id="svg_8" d="m225.01643,275.49294c0,0 3.79687,5.0625 6.32812,4.42969c2.53125,-0.63281 7.27735,0 7.22576,-0.2195c-0.05158,-0.21951 5.43049,-4.21019 5.37891,-4.42969" opacity="0.5" stroke-linecap="null" stroke-linejoin="null" stroke-dasharray="null" stroke-width="0" stroke="#000000" fill="#ffd4aa"/>
  <path fill="#ffd4aa" stroke-width="0" stroke-dasharray="null" stroke-linejoin="null" stroke-linecap="null" d="m198.41938,259.30004c0,0 3.55981,13.54389 1.7799,16.73069c-1.7799,3.1868 -1.7799,7.967 -2.19524,7.18794c-0.41533,-0.77906 11.09475,1.57576 10.67942,0.7967" id="svg_4" stroke="#000000"/>
  <path fill="#ffd4aa" stroke-width="0" stroke-dasharray="null" stroke-linejoin="null" stroke-linecap="null" d="m200.44963,292.97584c0,0 5.01916,13.5439 2.50958,16.73069c-2.50958,3.1868 -2.50958,7.967 -3.09519,7.18794c-0.5856,-0.77906 15.6431,1.57576 15.0575,0.7967" id="svg_5" transform="rotate(174.20925903320312 207.39276123046875,305.4136657714843) " stroke="#000000"/>
  <ellipse fill="#ffd4aa" stroke-width="0" stroke-dasharray="null" stroke-linejoin="null" stroke-linecap="null" cx="231.2" cy="311" id="svg_10" rx="29" ry="21" stroke="#000000"/>
  <ellipse stroke="#000000" id="svg_7" ry="22.12499" rx="46.78126" cy="210.13594" cx="241.66954" stroke-width="0" fill="#ffd4aa"/>
  <ellipse fill="#7f007f" stroke-width="0" stroke-dasharray="null" stroke-linejoin="null" stroke-linecap="null" cx="224.7" cy="226.5" id="svg_11" rx="12.50001" ry="9.5" opacity="0.1" stroke="#000000"/>
  <path id="svg_134" fill="#964040" stroke="#000000" stroke-width="0" stroke-dasharray="null" stroke-linejoin="null" stroke-linecap="null" d="m223.71496,221.16315l13.23748,7.88746l-14.0625,5.625c0,0 -10.98748,-7.88746 -6.48748,-10.69996c4.5,-2.8125 7.3125,-2.8125 7.3125,-2.8125z"/>
  <path fill="#ffffff" stroke="#000000" stroke-width="0" stroke-dasharray="null" stroke-linejoin="null" stroke-linecap="null" d="m222.76252,220.92504l13.23748,7.88746l-14.0625,5.625c0,0 -10.98748,-7.88746 -6.48748,-10.69996c4.5,-2.8125 7.3125,-2.8125 7.3125,-2.8125z" id="svg_3"/>
  <path id="svg_79" fill="#0000ff" stroke-width="0" stroke-dasharray="null" stroke-linejoin="null" stroke-linecap="null" d="m205.03308,212.15826l24.8,-2.57143l14,9l11,9l-49.8,-15.42857z" stroke="#000000"/>
  <path fill="#7f00ff" stroke-width="0" stroke-dasharray="null" stroke-linejoin="null" stroke-linecap="null" d="m201.95254,210.81889l24.8,-2.57143l14,9l11,9l-49.8,-15.42857z" id="svg_12" stroke="#000000"/>
  <ellipse stroke="#000000" ry="2" id="svg_23" cy="225.8" cx="222.2" stroke-linecap="null" stroke-linejoin="null" stroke-dasharray="null" stroke-width="0" fill="#000000"/>
  <ellipse stroke="#000000" ry="2.37305" rx="10.08545" id="svg_24" cy="282.46976" cx="215.5163" stroke-linecap="null" stroke-linejoin="null" stroke-dasharray="null" stroke-width="0" fill="#ffd4aa"/>
  <ellipse transform="rotate(-12.225204467773438 215.7536163330077,295.04690551757795) " id="svg_25" stroke="#000000" ry="2.37305" rx="10.08545" cy="295.04691" cx="215.7536" stroke-linecap="null" stroke-linejoin="null" stroke-dasharray="null" stroke-width="0" fill="#ffd4aa"/>
  <ellipse stroke="#000000" id="svg_26" transform="rotate(-8.13706111907959 206.82388305664028,281.1813659667969) " ry="2.9244" rx="9.03526" cy="281.18138" cx="206.82388" stroke-linecap="null" stroke-linejoin="null" stroke-dasharray="null" stroke-width="0" fill="#ffd4aa"/>
  <ellipse id="svg_27" stroke="#000000" transform="rotate(4.891592025756836 207.29849243163875,295.65695190429705) " ry="2.9244" rx="9.03526" cy="295.65697" cx="207.29849" stroke-linecap="null" stroke-linejoin="null" stroke-dasharray="null" stroke-width="0" fill="#ffd4aa"/>
  <path fill="#ffd4aa" stroke-width="0" stroke-dasharray="null" stroke-linejoin="null" stroke-linecap="null" d="m177.12182,259.64451c0,0 -0.7864,4.11328 10.61635,5.0625c11.40274,0.94922 23.98508,3.79688 20.44629,-1.58203c-3.53878,-5.37891 -6.29117,-9.80859 -7.47076,-20.88281c-1.17959,-11.07422 -3.93198,-17.08594 -4.15337,-17.24216c-0.22139,-0.15622 -19.43851,34.6445 -19.43851,34.6445z" id="svg_2" stroke="#000000"/>
  <ellipse stroke="#000000" opacity="0.9" id="svg_127" ry="10.00603" rx="30.91712" cy="322.28811" cx="259.82777" stroke-linecap="null" stroke-linejoin="null" stroke-dasharray="null" stroke-width="0" fill="#ffaaaa"/>
  <ellipse stroke="#000000" id="svg_59" ry="10.3632" rx="30.64924" cy="323.53819" cx="261.34571" stroke-linecap="null" stroke-linejoin="null" stroke-dasharray="null" stroke-width="0" fill="#7f007f"/>
  <ellipse id="svg_64" stroke="#000000" ry="3.80975" rx="8.67776" cy="281.30246" cx="216.04157" stroke-linecap="null" stroke-linejoin="null" stroke-dasharray="null" stroke-width="0" fill="#ffd4aa"/>
  <polygon strokeWidth="0" strokecolor="#000000" fill="#7f007f" edge="0" orient="x" sides="5" shape="regularPoly" id="svg_70" cy="285.91122" cx="213.82712"/>
  <polygon strokeWidth="0" strokecolor="none" fill="#7f007f" edge="0" orient="x" sides="5" shape="regularPoly" id="svg_71" cy="376.14917" cx="370.29375"/>
  <path stroke="#000000" transform="rotate(-7.6314311027526855 157.9763641357421,283.23834228515636) " id="svg_74" fill="#7f007f" stroke-width="0" stroke-dasharray="null" stroke-linejoin="null" stroke-linecap="null" d="m137.09776,280.42206l20.79475,-1.12652l11.73897,3.94282l9.22348,3.94282l-41.75719,-6.75912z"/>
  <rect stroke="#000000" id="svg_91" height="11.28815" width="32.17123" y="268.49041" x="196.38607" stroke-linecap="null" stroke-linejoin="null" stroke-dasharray="null" stroke-width="0.1" fill="#7f00ff"/>
  <path stroke="#000000" transform="rotate(-98.0065689086914 214.3592987060547,265.6795349121094) " id="svg_92" d="m199.05763,281.08793l15.30167,-30.81679l15.30167,30.81679l-30.60334,0z" stroke-linecap="null" stroke-linejoin="null" stroke-dasharray="null" stroke-width="0" fill="#ffd4aa"/>
  <ellipse opacity="0.1" ry="3.95085" rx="4.51526" id="svg_94" cy="228.56739" cx="228.50438" stroke-linecap="null" stroke-linejoin="null" stroke-dasharray="null" stroke-width="0" stroke="#000000" fill="#ff007f"/>
  <ellipse ry="8.46611" rx="9.03052" id="svg_95" cy="271.07433" cx="229.86249" stroke-linecap="null" stroke-linejoin="null" stroke-dasharray="null" stroke-width="0.1" stroke="#000000" fill="#7f00ff"/>
  <ellipse stroke="#000000" id="svg_96" ry="7.15651" rx="8.5543" cy="270.71717" cx="228.19572" stroke-linecap="null" stroke-linejoin="null" stroke-dasharray="null" stroke-width="0" fill="#ffd4aa"/>
  <ellipse stroke="#000000" id="svg_97" ry="7.15651" rx="5.57793" cy="270.00284" cx="227.83856" stroke-linecap="null" stroke-linejoin="null" stroke-dasharray="null" stroke-width="0" fill="#7f00ff"/>
  <ellipse stroke="#000000" id="svg_98" ry="7.03746" rx="6.29226" cy="270.59811" cx="229.74343" stroke-linecap="null" stroke-linejoin="null" stroke-dasharray="null" stroke-width="0" fill="#ffd4aa"/>
  <ellipse id="svg_99" stroke="#000000" ry="7.15651" rx="7.36376" cy="270.47906" cx="230.1006" stroke-linecap="null" stroke-linejoin="null" stroke-dasharray="null" stroke-width="0" fill="#ffd4aa"/>
  <ellipse stroke="#000000" id="svg_100" ry="6.56124" rx="7.2447" cy="271.07434" cx="229.98155" stroke-linecap="null" stroke-linejoin="null" stroke-dasharray="null" stroke-width="0.1" fill="#7f00ff"/>
  <ellipse stroke="#000000" id="svg_101" ry="4.89447" rx="5.81605" cy="270.59812" cx="229.50533" stroke-linecap="null" stroke-linejoin="null" stroke-dasharray="null" stroke-width="0" fill="#ffd4aa"/>
  <ellipse stroke="#000000" id="svg_102" ry="4.18014" rx="4.38739" cy="271.31244" cx="229.98154" stroke-linecap="null" stroke-linejoin="null" stroke-dasharray="null" stroke-width="0.1" fill="#7f00ff"/>
  <ellipse stroke="#000000" id="svg_103" ry="4.2992" rx="4.14928" cy="271.19339" cx="229.26721" stroke-linecap="null" stroke-linejoin="null" stroke-dasharray="null" stroke-width="0" fill="#ffd4aa"/>
  <ellipse stroke="#000000" id="svg_105" opacity="0.1" ry="2.5222" rx="2.84849" cy="228.09116" cx="229.21871" stroke-linecap="null" stroke-linejoin="null" stroke-dasharray="null" stroke-width="0" fill="#ff007f"/>
  <ellipse stroke="#000000" id="svg_106" opacity="0.1" ry="1.92692" rx="2.25322" cy="228.21022" cx="229.81398" stroke-linecap="null" stroke-linejoin="null" stroke-dasharray="null" stroke-width="0" fill="#ff007f"/>
  <path stroke="#000000" transform="rotate(24.505647659301758 252.51596069335932,165.13208007812503) " id="svg_116" d="m243.88351,174.97059l8.63245,-19.67703l8.63245,19.67703l-17.2649,0z" stroke-linecap="null" stroke-linejoin="null" stroke-dasharray="null" stroke-width="0" fill="#f7c18f"/>
  <ellipse stroke="#000000" ry="0.73665" rx="4.15203" id="svg_118" cy="278.94203" cx="228.22976" stroke-linecap="null" stroke-linejoin="null" stroke-dasharray="null" stroke-width="0" fill="#7f00ff"/>
  <ellipse id="svg_129" stroke="#000000" fill="#ff00ff" stroke-width="0" stroke-dasharray="null" stroke-linejoin="null" stroke-linecap="null" cx="227.90414" cy="149.62603" rx="32.56761" ry="22.78381"/>
  <ellipse stroke="#000000" id="svg_119" fill="#7f00ff" stroke-width="0" stroke-dasharray="null" stroke-linejoin="null" stroke-linecap="null" cx="232.98381" cy="148.67359" rx="32.56761" ry="22.78381"/>
  <ellipse stroke="#000000" id="svg_120" fill="#7f007f" stroke-width="0" stroke-dasharray="null" stroke-linejoin="null" stroke-linecap="null" cx="248.14617" cy="138.86266" rx="35.24332" ry="12.97287"/>
  <ellipse id="svg_130" stroke="#000000" fill="#ff00ff" stroke-width="0" stroke-dasharray="null" stroke-linejoin="null" stroke-linecap="null" cx="272.49235" cy="169.83886" rx="12.24894" ry="16.85752"/>
  <ellipse stroke="#000000" id="svg_122" fill="#7f00ff" stroke-width="0" stroke-dasharray="null" stroke-linejoin="null" stroke-linecap="null" cx="271.92794" cy="168.71005" rx="12.24894" ry="16.85752"/>
  <path stroke="#000000" opacity="0.5" id="svg_131" transform="rotate(22.458948135375977 266.86230468750006,152.49472045898435) " d="m261.15926,170.07198l5.70306,-35.15452l5.70306,35.15452l-11.40612,0z" stroke-linecap="null" stroke-linejoin="null" stroke-dasharray="null" stroke-width="0" fill="#ff0000"/>
  <path stroke="#000000" transform="rotate(22.458948135375977 262.495391845703,162.36262512207037) " id="svg_117" d="m254.44515,188.30033l8.05026,-51.87543l8.05026,51.87543l-16.10052,0z" stroke-linecap="null" stroke-linejoin="null" stroke-dasharray="null" stroke-width="0" fill="#ffd4aa"/>
  <path stroke="#000000" transform="rotate(15.478888511657715 266.2256164550782,157.66090393066403) " id="svg_132" d="m264.35598,177.42225l1.86964,-39.52268l1.86964,39.52268l-3.73929,0z" stroke-linecap="null" stroke-linejoin="null" stroke-dasharray="null" stroke-width="0" fill="#e09de0"/>
  <ellipse stroke="#000000" transform="rotate(15.623745918273926 263.26879882812494,169.77357482910153) " ry="0.63496" rx="1.37206" id="svg_133" cy="169.77358" cx="263.26884" stroke-linecap="null" stroke-linejoin="null" stroke-dasharray="null" stroke-width="0" fill="#e09de0"/>
  <path stroke="#000000" id="svg_135" transform="rotate(30.75926971435547 261.94973754882824,158.10356140136716) " d="m259.47514,174.99616l2.4746,-33.78519l2.4746,33.78519l-4.94919,0z" stroke-linecap="null" stroke-linejoin="null" stroke-dasharray="null" stroke-width="0" fill="#f7c18f"/>
  <ellipse stroke="#000000" ry="3.49227" rx="5.23841" id="svg_136" cy="171.7933" cx="251.63095" stroke-linecap="null" stroke-linejoin="null" stroke-dasharray="null" stroke-width="0" fill="#f7c18f"/>
 </g>
</svg>
