<svg width="480.0000000000001" height="620" xmlns="http://www.w3.org/2000/svg" xmlns:svg="http://www.w3.org/2000/svg">
 <!-- Created with SVG-edit - http://svg-edit.googlecode.com/ -->
 <g stroke="null">
  <title>Layer 1</title>
  <rect stroke="#d4aaff" fill="#994cff" stroke-width="2" stroke-dasharray="null" stroke-linejoin="null" stroke-linecap="null" x="117.12759" y="109.09861" width="298.68751" height="242.40509" id="svg_6"/>
  <rect fill="#a466f4" stroke-width="0" stroke-dasharray="null" stroke-linejoin="null" stroke-linecap="null" x="313.54684" y="117.4375" width="51.04688" height="30.79687" id="svg_123" stroke="#000000"/>
  <rect stroke="#fbafff" transform="rotate(89.0655517578125 309.1380310058594,126.20221710205078) " id="svg_180" fill="#f484f4" stroke-width="0.5" stroke-dasharray="null" stroke-linejoin="null" stroke-linecap="null" x="300.74363" y="122.00604" width="16.78878" height="8.39233"/>
  <rect stroke="#000000" fill="#af7fe2" stroke-width="0" stroke-dasharray="null" stroke-linejoin="null" stroke-linecap="null" x="264.37534" y="-32.27036" width="0.18756" height="298.9896" transform="rotate(90.13925170898438 264.4691162109375,117.22444152832031) " id="svg_51"/>
  <rect stroke="#000000" transform="rotate(-90.31698608398438 175.81329345703125,232.66636657714844) " opacity="0.3" height="4.5679" width="232.28592" y="230.38241" x="59.67034" stroke-linecap="null" stroke-linejoin="null" stroke-dasharray="null" stroke-width="0" fill="#e0418e" id="svg_111"/>
  <rect stroke="#000000" id="svg_183" fill="#ed34ed" stroke-width="0" stroke-dasharray="null" stroke-linejoin="null" stroke-linecap="null" x="166.5" y="109.46669" width="7.5" height="252.0833"/>
  <rect stroke="#fbafff" id="svg_181" transform="rotate(89.0655517578125 365.7958068847656,132.48353576660156) " fill="#f484f4" stroke-width="0.5" stroke-dasharray="null" stroke-linejoin="null" stroke-linecap="null" x="350.642" y="131.65847" width="30.30762" height="1.6501"/>
  <rect fill="#ffffff" stroke-width="0" stroke-dasharray="null" stroke-linejoin="null" stroke-linecap="null" x="392" y="118.99999" width="30.17187" height="238.00002" id="svg_211" stroke="#f9f2f2"/>
  <rect stroke="#000000" opacity="0.6" id="svg_74" height="18.66667" width="280.04166" y="98.66667" x="124.4323" stroke-linecap="null" stroke-linejoin="null" stroke-dasharray="null" stroke-width="0" fill="#ff007f"/>
  <rect id="svg_206" opacity="0.6" height="12.10417" width="285.5903" y="351.79167" x="120.8698" stroke-linecap="null" stroke-linejoin="null" stroke-dasharray="null" stroke-width="0" fill="#f779b6" stroke="#000000"/>
  <rect stroke="#000000" opacity="0.9" id="svg_144" fill="#f7a8ce" stroke-width="0" stroke-dasharray="null" stroke-linejoin="null" stroke-linecap="null" x="386.4668" y="117.74906" width="2.84183" height="246.60955"/>
  <ellipse stroke="#000000" id="svg_13" opacity="0.9" ry="78.15338" rx="42.34299" cy="240.5854" cx="254.34643" stroke-width="0" fill="#ff00ff"/>
  <rect stroke="#fbafff" fill="#f484f4" stroke-width="0.5" stroke-dasharray="null" stroke-linejoin="null" stroke-linecap="null" x="304.99998" y="148.13334" width="62.41668" height="215.49999" id="svg_48"/>
  <rect stroke="#000000" id="svg_57" fill="#ed34ed" stroke-width="0" stroke-dasharray="null" stroke-linejoin="null" stroke-linecap="null" x="332.33335" y="148.71669" width="1" height="214.5833"/>
  <rect stroke="#000000" opacity="0.1" id="svg_16" fill="#7f007f" stroke-width="0" stroke-dasharray="null" stroke-linejoin="null" stroke-linecap="null" x="371.25" y="145.30001" width="2.5" height="217.24998"/>
  <rect stroke="#000000" fill="#a466f4" stroke-width="0" stroke-dasharray="null" stroke-linejoin="null" stroke-linecap="null" x="369.33333" y="117.82084" width="18" height="246.89581" id="svg_44"/>
  <rect fill="#ffffff" stroke-width="0" stroke-dasharray="null" stroke-linejoin="null" stroke-linecap="null" x="107.90308" y="119.84512" width="23" height="239.00001" id="svg_210" stroke="#f9f2f2"/>
  <ellipse stroke="#000000" ry="26.42969" rx="27.03386" id="svg_60" cy="125.54112" cx="147.69427" opacity="0.8" stroke-linecap="null" stroke-linejoin="null" stroke-dasharray="null" stroke-width="0" fill="#dcc8f7"/>
  <rect stroke="#000000" fill="#f76cf7" stroke-width="0" stroke-dasharray="null" stroke-linejoin="null" stroke-linecap="null" x="129.41667" y="145.80001" width="16.83336" height="217.24999" id="svg_49"/>
  <ellipse stroke="#000000" id="svg_61" ry="24.89323" rx="26.1875" cy="125.20218" cx="147.68511" stroke-linecap="null" stroke-linejoin="null" stroke-dasharray="null" stroke-width="0" fill="#a466f4"/>
  <rect stroke="#000000" fill="#cc47cc" stroke-width="0" stroke-dasharray="null" stroke-linejoin="null" stroke-linecap="null" x="311.25" y="155.96669" width="16.5" height="204.8333" id="svg_73"/>
  <rect id="svg_107" stroke="#000000" opacity="0.6" height="16.60417" width="300.29166" y="337.45671" x="114.445" stroke-linecap="null" stroke-linejoin="null" stroke-dasharray="null" stroke-width="0" fill="#e0418e"/>
  <rect stroke="#000000" fill="#ed34ed" stroke-width="0" stroke-dasharray="null" stroke-linejoin="null" stroke-linecap="null" x="312" y="156.71669" width="15" height="207.0833" id="svg_43"/>
  <rect stroke="#000000" fill="#ff00ff" stroke-width="0" stroke-dasharray="null" stroke-linejoin="null" stroke-linecap="null" x="338.25" y="155.79998" width="25.75" height="209.00001" id="svg_42"/>
  <ellipse stroke="#000000" opacity="0.9" id="svg_126" ry="89.77838" rx="47.00348" cy="240.2343" cx="246.10491" stroke-width="0" fill="#ffaaaa"/>
  <rect stroke="#000000" fill="#f7a8ce" stroke-width="0" stroke-dasharray="null" stroke-linejoin="null" stroke-linecap="null" x="132.34568" y="145.31545" width="32.65433" height="218.48454" id="svg_46"/>
  <ellipse stroke="#000000" ry="89.77838" rx="45.22571" id="svg_1" cy="239.05602" cx="241.47271" stroke-width="0" fill="#ffd4aa"/>
  <rect stroke="#000000" id="svg_14" height="17" width="21.42661" y="283.65258" x="203.68226" stroke-linecap="null" stroke-linejoin="null" stroke-dasharray="null" stroke-width="0" fill="#ffffff"/>
  <path stroke="#000000" id="svg_8" d="m225.01643,275.49294c0,0 3.79687,5.0625 6.32812,4.42969c2.53125,-0.63281 7.27735,0 7.22576,-0.2195c-0.05158,-0.21951 5.43049,-4.21019 5.37891,-4.42969" opacity="0.5" stroke-linecap="null" stroke-linejoin="null" stroke-dasharray="null" stroke-width="0" fill="#ffd4aa"/>
  <path stroke="#000000" fill="#ffd4aa" stroke-width="0" stroke-dasharray="null" stroke-linejoin="null" stroke-linecap="null" d="m198.41938,259.30004c0,0 3.55981,13.54389 1.7799,16.73069c-1.7799,3.1868 -1.7799,7.967 -2.19524,7.18794c-0.41533,-0.77906 11.09475,1.57576 10.67942,0.7967" id="svg_4"/>
  <path stroke="#000000" fill="#ffd4aa" stroke-width="0" stroke-dasharray="null" stroke-linejoin="null" stroke-linecap="null" d="m200.44963,292.97584c0,0 5.01916,13.5439 2.50958,16.73069c-2.50958,3.1868 -2.50958,7.967 -3.09519,7.18794c-0.5856,-0.77906 15.6431,1.57576 15.0575,0.7967" id="svg_5" transform="rotate(174.20925903320312 207.39276123046875,305.4136657714843) "/>
  <ellipse stroke="#000000" id="svg_22" fill="#7f00ff" stroke-width="0" stroke-dasharray="null" stroke-linejoin="null" stroke-linecap="null" cx="226.98125" cy="312.96875" rx="26.46875" ry="19.59375"/>
  <ellipse stroke="#000000" fill="#ffd4aa" stroke-width="0" stroke-dasharray="null" stroke-linejoin="null" stroke-linecap="null" cx="231.2" cy="311" id="svg_10" rx="29" ry="21"/>
  <ellipse stroke="#000000" id="svg_7" ry="22.12499" rx="44.53126" cy="210.13594" cx="241.10704" stroke-width="0" fill="#ffd4aa"/>
  <ellipse stroke="#000000" fill="#7f007f" stroke-width="0" stroke-dasharray="null" stroke-linejoin="null" stroke-linecap="null" cx="224.7" cy="226.5" id="svg_11" rx="12.50001" ry="9.5" opacity="0.1"/>
  <path stroke="#000000" id="svg_134" fill="#964040" stroke-width="0" stroke-dasharray="null" stroke-linejoin="null" stroke-linecap="null" d="m223.71496,221.16315l13.23748,7.88746l-14.0625,5.625c0,0 -10.98748,-7.88746 -6.48748,-10.69996c4.5,-2.8125 7.3125,-2.8125 7.3125,-2.8125z"/>
  <path stroke="#000000" fill="#ffffff" stroke-width="0" stroke-dasharray="null" stroke-linejoin="null" stroke-linecap="null" d="m222.76252,220.92504l13.23748,7.88746l-14.0625,5.625c0,0 -10.98748,-7.88746 -6.48748,-10.69996c4.5,-2.8125 7.3125,-2.8125 7.3125,-2.8125z" id="svg_3"/>
  <path stroke="#000000" id="svg_79" fill="#0000ff" stroke-width="0" stroke-dasharray="null" stroke-linejoin="null" stroke-linecap="null" d="m205.03308,212.15826l24.8,-2.57143l14,9l11,9l-49.8,-15.42857z"/>
  <path stroke="#000000" fill="#7f00ff" stroke-width="0" stroke-dasharray="null" stroke-linejoin="null" stroke-linecap="null" d="m201.95254,210.81889l24.8,-2.57143l14,9l11,9l-49.8,-15.42857z" id="svg_12"/>
  <ellipse stroke="#000000" ry="2" id="svg_23" cy="225.8" cx="222.2" stroke-linecap="null" stroke-linejoin="null" stroke-dasharray="null" stroke-width="0" fill="#000000"/>
  <ellipse stroke="#000000" ry="2.37305" rx="10.08545" id="svg_24" cy="282.46976" cx="215.5163" stroke-linecap="null" stroke-linejoin="null" stroke-dasharray="null" stroke-width="0" fill="#ffd4aa"/>
  <ellipse stroke="#000000" transform="rotate(-12.225204467773438 215.7536010742187,295.0469055175781) " id="svg_25" ry="2.37305" rx="10.08545" cy="295.04691" cx="215.7536" stroke-linecap="null" stroke-linejoin="null" stroke-dasharray="null" stroke-width="0" fill="#ffd4aa"/>
  <ellipse stroke="#000000" id="svg_26" transform="rotate(-8.13706111907959 206.82388305664028,281.1813659667969) " ry="2.9244" rx="9.03526" cy="281.18138" cx="206.82388" stroke-linecap="null" stroke-linejoin="null" stroke-dasharray="null" stroke-width="0" fill="#ffd4aa"/>
  <ellipse stroke="#000000" id="svg_27" transform="rotate(4.891592025756836 207.2984924316407,295.65698242187494) " ry="2.9244" rx="9.03526" cy="295.65697" cx="207.29849" stroke-linecap="null" stroke-linejoin="null" stroke-dasharray="null" stroke-width="0" fill="#ffd4aa"/>
  <path stroke="#000000" fill="#ffd4aa" stroke-width="0" stroke-dasharray="null" stroke-linejoin="null" stroke-linecap="null" d="m177.12182,259.64451c0,0 -0.7864,4.11328 10.61635,5.0625c11.40274,0.94922 23.98508,3.79688 20.44629,-1.58203c-3.53878,-5.37891 -6.29117,-9.80859 -7.47076,-20.88281c-1.17959,-11.07422 -3.93198,-17.08594 -4.15337,-17.24216c-0.22139,-0.15622 -19.43851,34.6445 -19.43851,34.6445z" id="svg_2"/>
  <ellipse stroke="#000000" opacity="0.9" id="svg_127" ry="10.00603" rx="30.91712" cy="322.28811" cx="259.82777" stroke-linecap="null" stroke-linejoin="null" stroke-dasharray="null" stroke-width="0" fill="#ffaaaa"/>
  <ellipse stroke="#000000" id="svg_59" ry="8.8632" rx="30.64924" cy="325.03819" cx="261.34571" stroke-linecap="null" stroke-linejoin="null" stroke-dasharray="null" stroke-width="0" fill="#994cff"/>
  <ellipse stroke="#000000" id="svg_64" ry="3.80975" rx="8.67776" cy="281.30246" cx="216.04157" stroke-linecap="null" stroke-linejoin="null" stroke-dasharray="null" stroke-width="0" fill="#ffd4aa"/>
  <polygon stroke="null" fill="#7f007f" id="svg_70"/>
  <polygon stroke="null" fill="#7f007f" id="svg_71"/>
  <rect stroke="#ff007f" id="svg_91" height="11.28815" width="32.17123" y="268.49041" x="196.38607" stroke-linecap="null" stroke-linejoin="null" stroke-dasharray="null" stroke-width="0.1" fill="#7f00ff"/>
  <path stroke="#000000" transform="rotate(-98.0065689086914 214.3592987060547,265.6795349121094) " id="svg_92" d="m199.05763,281.08793l15.30167,-30.81679l15.30167,30.81679l-30.60334,0z" stroke-linecap="null" stroke-linejoin="null" stroke-dasharray="null" stroke-width="0" fill="#ffd4aa"/>
  <ellipse stroke="#000000" opacity="0.1" ry="3.95085" rx="4.51526" id="svg_94" cy="228.56739" cx="228.50438" stroke-linecap="null" stroke-linejoin="null" stroke-dasharray="null" stroke-width="0" fill="#ff007f"/>
  <ellipse stroke="#000000" ry="8.46611" rx="9.03052" id="svg_95" cy="271.07433" cx="229.86249" stroke-linecap="null" stroke-linejoin="null" stroke-dasharray="null" stroke-width="0.1" fill="#7f00ff"/>
  <ellipse stroke="#000000" id="svg_96" ry="7.15651" rx="8.5543" cy="270.71717" cx="228.19572" stroke-linecap="null" stroke-linejoin="null" stroke-dasharray="null" stroke-width="0" fill="#ffd4aa"/>
  <ellipse stroke="#000000" id="svg_97" ry="7.15651" rx="5.57793" cy="270.00284" cx="227.83856" stroke-linecap="null" stroke-linejoin="null" stroke-dasharray="null" stroke-width="0" fill="#7f00ff"/>
  <ellipse stroke="#000000" id="svg_98" ry="7.03746" rx="6.29226" cy="270.59811" cx="229.74343" stroke-linecap="null" stroke-linejoin="null" stroke-dasharray="null" stroke-width="0" fill="#ffd4aa"/>
  <ellipse stroke="#000000" id="svg_99" ry="7.15651" rx="7.36376" cy="270.47906" cx="230.1006" stroke-linecap="null" stroke-linejoin="null" stroke-dasharray="null" stroke-width="0" fill="#ffd4aa"/>
  <ellipse stroke="#000000" id="svg_100" ry="6.56124" rx="7.2447" cy="271.07434" cx="229.98155" stroke-linecap="null" stroke-linejoin="null" stroke-dasharray="null" stroke-width="0.1" fill="#7f00ff"/>
  <ellipse stroke="#000000" id="svg_101" ry="4.89447" rx="5.81605" cy="270.59812" cx="229.50533" stroke-linecap="null" stroke-linejoin="null" stroke-dasharray="null" stroke-width="0" fill="#ffd4aa"/>
  <ellipse stroke="#000000" id="svg_102" ry="4.18014" rx="4.38739" cy="271.31244" cx="229.98154" stroke-linecap="null" stroke-linejoin="null" stroke-dasharray="null" stroke-width="0.1" fill="#7f00ff"/>
  <ellipse stroke="#000000" id="svg_103" ry="4.2992" rx="4.14928" cy="271.19339" cx="229.26721" stroke-linecap="null" stroke-linejoin="null" stroke-dasharray="null" stroke-width="0" fill="#ffd4aa"/>
  <ellipse stroke="#000000" id="svg_105" opacity="0.1" ry="2.5222" rx="2.84849" cy="228.09116" cx="229.21871" stroke-linecap="null" stroke-linejoin="null" stroke-dasharray="null" stroke-width="0" fill="#ff007f"/>
  <ellipse stroke="#000000" id="svg_106" opacity="0.5" ry="1.92692" rx="2.25322" cy="228.21022" cx="229.81398" stroke-linecap="null" stroke-linejoin="null" stroke-dasharray="null" fill="#ff007f"/>
  <ellipse stroke="#000000" ry="0.73665" rx="4.15203" id="svg_118" cy="278.94203" cx="228.22976" stroke-linecap="null" stroke-linejoin="null" stroke-dasharray="null" stroke-width="0" fill="#7f00ff"/>
  <ellipse stroke="#000000" ry="3.29289" rx="4.03218" id="svg_136" cy="167.88233" cx="252.2382" stroke-linecap="null" stroke-linejoin="null" stroke-dasharray="null" stroke-width="0" fill="#f7c18f"/>
  <ellipse stroke="#000000" id="svg_129" fill="#ff00ff" stroke-width="0" stroke-dasharray="null" stroke-linejoin="null" stroke-linecap="null" cx="227.90414" cy="149.62603" rx="32.56761" ry="22.78381"/>
  <ellipse stroke="#000000" id="svg_119" fill="#7f00ff" stroke-width="0" stroke-dasharray="null" stroke-linejoin="null" stroke-linecap="null" cx="232.98381" cy="148.67359" rx="32.56761" ry="22.78381"/>
  <ellipse stroke="#ff6dff" id="svg_120" fill="#994cff" stroke-width="0.2" stroke-dasharray="null" stroke-linejoin="null" stroke-linecap="null" cx="248.14617" cy="138.86266" rx="35.24332" ry="12.97287"/>
  <ellipse stroke="#000000" id="svg_130" fill="#ff00ff" stroke-width="0" stroke-dasharray="null" stroke-linejoin="null" stroke-linecap="null" cx="272.49235" cy="169.83886" rx="12.24894" ry="16.85752"/>
  <ellipse stroke="#000000" id="svg_122" fill="#7f00ff" stroke-width="0" stroke-dasharray="null" stroke-linejoin="null" stroke-linecap="null" cx="271.92794" cy="168.71005" rx="12.24894" ry="16.85752"/>
  <ellipse stroke="#7f007f" id="svg_216" fill="#994cff" stroke-width="0" stroke-dasharray="null" stroke-linejoin="null" stroke-linecap="null" cx="260.14617" cy="137.36266" rx="35.24332" ry="13.47287"/>
  <path stroke="#000000" opacity="0.5" id="svg_131" transform="rotate(21.296310424804688 265.5184326171875,156.32545471191406) " d="m259.82338,177.40117l5.69505,-42.15143l5.69505,42.15143l-11.39009,0l-0.00001,0z" stroke-linecap="null" stroke-linejoin="null" stroke-dasharray="null" stroke-width="0" fill="#ff0000"/>
  <path stroke="#000000" transform="rotate(22.458948135375977 262.49542236328125,162.3626098632813) " id="svg_117" d="m254.44515,188.30033l8.05026,-51.87543l8.05026,51.87543l-16.10052,0z" stroke-linecap="null" stroke-linejoin="null" stroke-dasharray="null" stroke-width="0" fill="#ffd4aa"/>
  <ellipse stroke="#000000" id="svg_145" ry="1.51311" rx="1.57802" cy="177.13721" cx="261.3922" stroke-linecap="null" stroke-linejoin="null" stroke-dasharray="null" stroke-width="0" fill="#e09de0"/>
  <path stroke="#000000" transform="rotate(15.478888511657715 266.7593994140625,157.57531738281253) " id="svg_132" d="m265.23588,177.33665l1.52353,-39.52268l1.52353,39.52268l-3.04707,0l0.00001,0z" stroke-linecap="null" stroke-linejoin="null" stroke-dasharray="null" stroke-width="0" fill="#e09de0"/>
  <path stroke="#000000" id="svg_135" transform="rotate(30.75926971435547 260.70361328125006,157.36193847656247) " d="m259.67912,174.25452l1.0245,-33.78519l1.0245,33.78519l-2.04899,0l0,0l-0.00001,0z" stroke-linecap="null" stroke-linejoin="null" stroke-dasharray="null" stroke-width="0" fill="#f7c18f"/>
  <ellipse stroke="#000000" fill="#ffaaaa" stroke-width="0" stroke-dasharray="null" stroke-linejoin="null" stroke-linecap="null" opacity="0.5" cx="281.31559" cy="262.64687" id="svg_15" ry="8.4375"/>
  <path stroke="#ef7373" fill="#ffd4aa" stroke-width="0" stroke-dasharray="null" stroke-linejoin="null" stroke-linecap="null" d="m265.4185,252.34285l6.02431,-38.76285l6.02431,38.76285l-12.04861,0l-0.00001,0z" id="svg_17" transform="rotate(9.013467788696289 271.44281005859403,232.96142578125014) "/>
  <rect stroke="#000000" fill="#994cff" stroke-width="0" stroke-dasharray="null" stroke-linejoin="null" stroke-linecap="null" x="269.97846" y="312.86302" width="20.39906" height="14.19153" id="svg_20" transform="rotate(47.324459075927734 280.1779785156249,319.9587707519531) "/>
  <path stroke="#000000" fill="#f9b1b1" stroke-width="0" stroke-dasharray="null" stroke-linejoin="null" stroke-linecap="null" d="m197.76648,206.20949l8.7144,0.77693l-9.25753,0.55408c0,0 -7.2332,-0.77693 -4.27079,-1.05396c2.96241,-0.27704 4.81391,-0.27704 4.81391,-0.27704l0.00001,-0.00001z" id="svg_21" transform="rotate(109.00371551513672 199.3604736328125,206.87498474121097) "/>
  <rect fill="#3f2c2c" stroke-width="0.05" stroke-dasharray="null" stroke-linejoin="null" stroke-linecap="null" x="211.08227" y="288.08538" width="13.95959" height="0.28884" id="svg_31" transform="rotate(-5.079995155334473 218.0620727539056,288.22979736328153) " stroke="#000000"/>
  <path stroke="#000000" fill="#ffffff" stroke-width="0.3" stroke-dasharray="null" stroke-linejoin="null" stroke-linecap="null" d="m210.79136,290.70895l1.5017,-2.62797l1.5017,2.62797l-3.00339,0l-0.00001,0z" id="svg_30" transform="rotate(175.6641387939453 212.2930603027344,289.3949890136719) "/>
  <rect stroke="#000000" fill="#d820d8" stroke-width="0" stroke-dasharray="null" stroke-linejoin="null" stroke-linecap="null" x="141" y="146.61172" width="23" height="217.18827" id="svg_38"/>
  <ellipse stroke="#000000" id="svg_55" ry="6.66661" rx="6" cy="343.1998" cx="349.99998" opacity="0.9" stroke-linecap="null" stroke-linejoin="null" stroke-dasharray="null" stroke-width="0" fill="#ffffff"/>
  <ellipse stroke="#000000" id="svg_90" ry="13.59375" rx="13.03125" cy="336.91873" cx="157.37396" opacity="0.8" stroke-linecap="null" stroke-linejoin="null" stroke-dasharray="null" stroke-width="0" fill="#ffffff"/>
  <ellipse stroke="#000000" id="svg_89" ry="11.90625" rx="12.49219" cy="337.39791" cx="155.36614" stroke-linecap="null" stroke-linejoin="null" stroke-dasharray="null" stroke-width="0" fill="#ff00ff"/>
  <rect transform="rotate(-0.4144178330898285 368.9033508300894,242.319458007807) " stroke="#000000" id="svg_176" opacity="0.9" fill="#f74f9d" stroke-width="0" stroke-dasharray="null" stroke-linejoin="null" stroke-linecap="null" x="368.32617" y="119.01469" width="1.15433" height="246.60955"/>
  <rect fill="#e1ccf9" stroke-width="0" stroke-dasharray="null" stroke-linejoin="null" stroke-linecap="null" x="262.92473" y="201.93875" width="3.00007" height="300.88862" id="svg_39" transform="rotate(90.13925170898438 264.4247741699219,352.38305664062494) " stroke="#000000"/>
  <rect fill="#8116fc" stroke-width="0" stroke-dasharray="null" stroke-linejoin="null" stroke-linecap="null" x="262.21797" y="215.62679" width="3.01465" height="285.48964" transform="rotate(90.13925170898438 263.72528076171875,358.37161254882807) " id="svg_40" stroke="#000000"/>
  <rect stroke="#f9f2f2" id="svg_147" height="1.77979" width="61.50147" y="143.70578" x="336.92134" opacity="0.9" stroke-linecap="null" stroke-linejoin="null" stroke-dasharray="null" stroke-width="0" fill="#e006e0"/>
  <ellipse stroke="#000000" ry="20.55469" rx="19.99219" cy="144.33279" cx="318.31927" stroke-linecap="null" stroke-linejoin="null" stroke-dasharray="null" stroke-width="0" fill="#dcc8f7" id="svg_66"/>
  <ellipse stroke="#000000" ry="17.60156" rx="18.1875" cy="141.01509" cx="320.95208" stroke-linecap="null" stroke-linejoin="null" stroke-dasharray="null" stroke-width="0" fill="#a466f4" id="svg_67"/>
  <ellipse stroke="#000000" ry="20.13802" rx="20.15886" cy="195.08279" cx="353.06927" opacity="0.8" stroke-linecap="null" stroke-linejoin="null" stroke-dasharray="null" stroke-width="0" fill="#dcc8f7" id="svg_63"/>
  <ellipse stroke="#000000" ry="17.26823" rx="18.4375" cy="194.18175" cx="353.03541" opacity="0.8" stroke-linecap="null" stroke-linejoin="null" stroke-dasharray="null" stroke-width="0" fill="#ff007f" id="svg_65"/>
  <rect fill="#f76cf7" stroke-width="0" stroke-dasharray="null" stroke-linejoin="null" stroke-linecap="null" x="391.77017" y="118.60667" width="1.56252" height="244.24995" id="svg_50" stroke="#000000"/>
  <ellipse stroke="#000000" ry="12.63802" rx="13.15886" cy="258.5828" cx="363.23594" opacity="0.8" stroke-linecap="null" stroke-linejoin="null" stroke-dasharray="null" stroke-width="0" fill="#dcc8f7" id="svg_37"/>
  <rect stroke="#000000" id="svg_18" opacity="0.1" fill="#7f007f" stroke-width="0" stroke-dasharray="null" stroke-linejoin="null" stroke-linecap="null" x="133.5" y="146.05001" width="2.5" height="217.24998"/>
  <ellipse stroke="#000000" ry="8.66667" rx="8.66667" cy="164.61667" cx="154.00001" opacity="0.4" stroke-linecap="null" stroke-linejoin="null" stroke-dasharray="null" stroke-width="0" fill="#ffffff" id="svg_68"/>
  <ellipse stroke="#000000" ry="8.66667" rx="8.66667" id="svg_28" cy="163.72604" cx="153.10939" opacity="0.4" stroke-linecap="null" stroke-linejoin="null" stroke-dasharray="null" stroke-width="0" fill="#ff007f"/>
  <ellipse stroke="#000000" ry="8.66667" rx="8.66667" cy="225.60104" cx="152.73439" opacity="0.4" stroke-linecap="null" stroke-linejoin="null" stroke-dasharray="null" stroke-width="0" fill="#ffffff" id="svg_69"/>
  <ellipse stroke="#000000" id="svg_35" ry="8.66667" rx="8.66667" cy="224.75729" cx="152.17189" opacity="0.4" stroke-linecap="null" stroke-linejoin="null" stroke-dasharray="null" stroke-width="0" fill="#ff007f"/>
  <ellipse stroke="#000000" id="svg_45" ry="6.66661" rx="6" cy="205.6373" cx="319.08332" opacity="0.4" stroke-linecap="null" stroke-linejoin="null" stroke-dasharray="null" stroke-width="0" fill="#ffffff"/>
  <ellipse stroke="#000000" id="svg_47" ry="6.66661" rx="6" cy="231.53313" cx="352.66665" opacity="0.9" stroke-linecap="null" stroke-linejoin="null" stroke-dasharray="null" stroke-width="0" fill="#ffffff"/>
  <ellipse stroke="#000000" id="svg_52" ry="6.66661" rx="6" cy="265.17897" cx="318.77082" opacity="0.4" stroke-linecap="null" stroke-linejoin="null" stroke-dasharray="null" stroke-width="0" fill="#ffffff"/>
  <ellipse stroke="#000000" id="svg_53" ry="6.66661" rx="6" cy="297.53313" cx="350.99998" opacity="0.4" stroke-linecap="null" stroke-linejoin="null" stroke-dasharray="null" stroke-width="0" fill="#ffffff"/>
  <ellipse stroke="#000000" id="svg_54" ry="6.66661" rx="6" cy="314.55396" cx="320.10415" opacity="0.6" stroke-linecap="null" stroke-linejoin="null" stroke-dasharray="null" stroke-width="0" fill="#ffffff"/>
  <rect stroke="#000000" id="svg_58" fill="#8116fc" stroke-width="0" stroke-dasharray="null" stroke-linejoin="null" stroke-linecap="null" x="264.09814" y="-52.16877" width="2.99904" height="299.41146" transform="rotate(90.13925170898438 265.59765625,97.53697204589844) "/>
  <ellipse stroke="#000000" ry="8.66667" rx="8.66667" cy="296.52292" cx="152.50001" opacity="0.4" stroke-linecap="null" stroke-linejoin="null" stroke-dasharray="null" stroke-width="0" fill="#ffffff" id="svg_72"/>
  <ellipse stroke="#000000" id="svg_34" ry="8.66667" rx="9.25" cy="295.49166" cx="151.42188" opacity="0.4" stroke-linecap="null" stroke-linejoin="null" stroke-dasharray="null" stroke-width="0" fill="#ff007f"/>
  <ellipse stroke="#000000" ry="8.60156" rx="10.10417" cy="257.84842" cx="362.86875" opacity="0.8" stroke-linecap="null" stroke-linejoin="null" stroke-dasharray="null" stroke-width="0" fill="#8116fc" id="svg_62"/>
  <ellipse stroke="#000000" ry="17.63802" rx="14.99219" cy="302.99946" cx="343.31927" opacity="0.8" stroke-linecap="null" stroke-linejoin="null" stroke-dasharray="null" stroke-width="0" fill="#dcc8f7" id="svg_33"/>
  <ellipse stroke="#000000" ry="13.60156" rx="13.27083" cy="302.84842" cx="343.20208" opacity="0.8" stroke-linecap="null" stroke-linejoin="null" stroke-dasharray="null" stroke-width="0" fill="#ff007f" id="svg_36"/>
  <polygon stroke="#000000" transform="rotate(-10.907504081726074 129.08917236328142,133.87850952148435) " opacity="0.1" stroke-width="0" points="129.08917248249054,128.44455003738403 129.9560090303421,132.50807237625122 132.59561169147491,132.59571886062622 130.49174511432648,135.1947636604309 131.25627148151398,139.31245470046997 129.08917248249054,136.85522508621216 126.9220734834671,139.31245470046997 127.68660748004913,135.1947636604309 125.58273327350616,132.59571886062622 128.22233593463898,132.50807237625122 129.08917248249054,128.44455003738403 129.9560090303421,132.50807237625122 " fill="#bfbfbf" id="svg_75"/>
  <ellipse stroke="#000000" id="svg_80" ry="7.10411" rx="6.375" cy="315.49148" cx="320.54165" opacity="0.4" stroke-linecap="null" stroke-linejoin="null" stroke-dasharray="null" stroke-width="0" fill="#3f007f"/>
  <ellipse stroke="#000000" id="svg_41" ry="11.63802" rx="11.65886" cy="334.2703" cx="304.92344" opacity="0.8" stroke-linecap="null" stroke-linejoin="null" stroke-dasharray="null" stroke-width="0" fill="#dcc8f7"/>
  <ellipse stroke="#000000" id="svg_76" ry="7.10156" rx="7.60417" cy="333.91092" cx="303.99376" opacity="0.8" stroke-linecap="null" stroke-linejoin="null" stroke-dasharray="null" stroke-width="0" fill="#8116fc"/>
  <ellipse stroke="#000000" id="svg_77" ry="7.38536" rx="7.21875" cy="231.39772" cx="353.4479" opacity="0.4" stroke-linecap="null" stroke-linejoin="null" stroke-dasharray="null" stroke-width="0" fill="#ff007f"/>
  <ellipse stroke="#000000" id="svg_78" ry="7.10411" rx="7.21875" cy="343.05398" cx="350.6354" opacity="0.4" stroke-linecap="null" stroke-linejoin="null" stroke-dasharray="null" stroke-width="0" fill="#ff007f"/>
  <ellipse stroke="#000000" id="svg_81" ry="7.10411" rx="6.375" cy="265.99148" cx="319.41664" opacity="0.4" stroke-linecap="null" stroke-linejoin="null" stroke-dasharray="null" stroke-width="0" fill="#3f007f"/>
  <ellipse stroke="#000000" id="svg_82" ry="7.10411" rx="6.375" cy="206.36647" cx="320.54164" opacity="0.4" stroke-linecap="null" stroke-linejoin="null" stroke-dasharray="null" stroke-width="0" fill="#3f007f"/>
  <ellipse stroke="#f9f2f2" id="svg_83" ry="4.29161" rx="4.125" cy="209.55397" cx="381.10415" opacity="0.4" stroke-linecap="null" stroke-linejoin="null" stroke-dasharray="null" stroke-width="0.2" fill="#ffaad4"/>
  <path stroke="#000000" transform="rotate(176.7574920654297 203.43084716796875,287.3414306640625) " id="svg_85" d="m202.09602,290.45604l1.33483,-6.22925l1.33483,6.22925l-2.66967,0l0.00001,0z" stroke-linecap="null" stroke-linejoin="null" stroke-dasharray="null" stroke-width="0" fill="#ffffff"/>
  <rect stroke="#000000" fill="#3f2c2c" stroke-width="0.05" stroke-dasharray="null" stroke-linejoin="null" stroke-linecap="null" x="203.173" y="288.72154" width="7.78378" height="0.24335" id="svg_29"/>
  <ellipse stroke="#000000" transform="rotate(21.176231384277344 199.78324890136724,206.55290222167966) " ry="5.87678" rx="0.7831" id="svg_86" cy="206.5529" cx="199.78325" stroke-linecap="null" stroke-linejoin="null" stroke-dasharray="null" stroke-width="0" fill="#ffaaaa"/>
  <ellipse stroke="#000000" id="svg_87" transform="rotate(21.176231384277344 200.02055358886696,207.26481628417977) " ry="5.87678" rx="0.7831" cy="207.26481" cx="200.02056" stroke-linecap="null" stroke-linejoin="null" stroke-dasharray="null" stroke-width="0" fill="#ffd4aa"/>
  <path stroke="#000000" id="svg_88" transform="rotate(27.517370223999023 262.72900390625,157.69390869140628) " d="m262.60438,175.31716l0.12463,-35.24651l0.12463,35.24651l-0.24926,0l0,0z" stroke-linecap="null" stroke-linejoin="null" stroke-dasharray="null" stroke-width="0" fill="#ffffff"/>
  <ellipse stroke="#000000" ry="3.1875" rx="3.375" id="svg_93" cy="342.46098" cx="195.05861" opacity="0.2" stroke-linecap="null" stroke-linejoin="null" stroke-dasharray="null" stroke-width="0" fill="#00ffff"/>
  <ellipse stroke="#000000" id="svg_115" ry="3.9375" rx="4.5" cy="344.3477" cx="277.93361" opacity="0.2" stroke-linecap="null" stroke-linejoin="null" stroke-dasharray="null" stroke-width="0" fill="#00ffff"/>
  <ellipse stroke="#000000" id="svg_109" ry="3.375" rx="3.375" cy="344.33599" cx="277.7461" opacity="0.3" stroke-linecap="null" stroke-linejoin="null" stroke-dasharray="null" stroke-width="0" fill="#f780f7"/>
  <ellipse stroke="#000000" id="svg_110" ry="2.30859" rx="2.0332" cy="342.4024" cx="195.21681" opacity="0.3" stroke-linecap="null" stroke-linejoin="null" stroke-dasharray="null" stroke-width="0" fill="#f47ff4"/>
  <ellipse stroke="#000000" id="svg_124" ry="4.97911" rx="5.15625" cy="192.6998" cx="121.92706" opacity="0.4" stroke-linecap="null" stroke-linejoin="null" stroke-dasharray="null" stroke-width="0" fill="#ffffff"/>
  <ellipse stroke="#000000" id="svg_125" ry="3.375" rx="3.375" cy="273.25004" cx="171.37501" opacity="0.2" stroke-linecap="null" stroke-linejoin="null" stroke-dasharray="null" stroke-width="0" fill="#ff00ff"/>
  <ellipse stroke="#000000" id="svg_128" ry="3.375" rx="3.375" cy="206.31253" cx="171.37501" opacity="0.2" stroke-linecap="null" stroke-linejoin="null" stroke-dasharray="null" stroke-width="0" fill="#ff00ff"/>
  <ellipse id="svg_138" ry="3.1875" rx="3.375" cy="134.87502" cx="314.62502" opacity="0.2" stroke-linecap="null" stroke-linejoin="null" stroke-dasharray="null" stroke-width="0" fill="#00ffff" stroke="#000000"/>
  <ellipse stroke="#000000" id="svg_140" ry="4.97911" rx="4.59375" cy="259.55397" cx="123.30206" opacity="0.4" stroke-linecap="null" stroke-linejoin="null" stroke-dasharray="null" stroke-width="0" fill="#ffffff"/>
  <ellipse stroke="#000000" id="svg_143" ry="4.97911" rx="4.59375" cy="328.74147" cx="122.73955" opacity="0.4" stroke-linecap="null" stroke-linejoin="null" stroke-dasharray="null" stroke-width="0" fill="#ffffff"/>
  <ellipse stroke="#8585f7" ry="3.02563" rx="3.11462" id="svg_146" cy="127.8657" cx="337.3663" opacity="0.8" stroke-linecap="null" stroke-linejoin="null" stroke-dasharray="null" stroke-width="0.2" fill="#c45488"/>
  <rect stroke="#f9f2f2" id="svg_148" height="0.8627" width="45.28565" y="131.99875" x="353.13716" opacity="0.9" stroke-linecap="null" stroke-linejoin="null" stroke-dasharray="null" stroke-width="0" fill="#e006e0"/>
  <rect stroke="#f9f2f2" id="svg_149" height="0.56113" width="35.54628" y="121.06049" x="362.86668" opacity="0.9" stroke-linecap="null" stroke-linejoin="null" stroke-dasharray="null" stroke-width="0" fill="#e006e0"/>
  <ellipse stroke="#c7a5ff" id="svg_162" ry="1.4207" rx="1.42522" cy="141.8749" cx="353.98487" opacity="0.1" stroke-linecap="null" stroke-linejoin="null" stroke-dasharray="null" stroke-width="0.2" fill="#7f00ff"/>
  <ellipse stroke="#c7a5ff" id="svg_164" ry="1.4207" rx="1.42522" cy="130.0834" cx="357.56613" opacity="0.1" stroke-linecap="null" stroke-linejoin="null" stroke-dasharray="null" stroke-width="0.2" fill="#7f00ff"/>
  <ellipse stroke="#c7a5ff" id="svg_165" ry="1.4207" rx="1.42522" cy="119.4609" cx="366.46631" opacity="0.1" stroke-linecap="null" stroke-linejoin="null" stroke-dasharray="null" stroke-width="0.2" fill="#ff007f"/>
  <ellipse stroke="#c7a5ff" id="svg_166" ry="1.4207" rx="1.42522" cy="141.8862" cx="361.92786" opacity="0.1" stroke-linecap="null" stroke-linejoin="null" stroke-dasharray="null" stroke-width="0.2" fill="#ff007f"/>
  <ellipse stroke="#c7a5ff" id="svg_167" ry="1.4207" rx="1.42522" cy="141.8862" cx="345.77631" opacity="0.1" stroke-linecap="null" stroke-linejoin="null" stroke-dasharray="null" stroke-width="0.2" fill="#ff007f"/>
  <rect stroke="#f9f2f2" id="svg_168" height="0.16068" width="6.22152" y="122.06162" x="362.99737" opacity="0.8" stroke-linecap="null" stroke-linejoin="null" stroke-dasharray="null" stroke-width="0" fill="#f9c5f9"/>
  <rect stroke="#f9f2f2" id="svg_169" height="0.16068" width="15.75727" y="133.62466" x="353.46161" opacity="0.8" stroke-linecap="null" stroke-linejoin="null" stroke-dasharray="null" stroke-width="0" fill="#f9c5f9"/>
  <rect stroke="#f9f2f2" id="svg_170" height="0.16068" width="30.87433" y="145.73832" x="338.60109" opacity="0.8" stroke-linecap="null" stroke-linejoin="null" stroke-dasharray="null" stroke-width="0" fill="#f9c5f9"/>
  <polygon stroke="#000000" id="svg_171" opacity="0.1" stroke-width="0" points="153.6485595703125,135.89053337555833 154.65444946289062,138.48181985904012 157.71749877929688,138.53771155381764 155.276123046875,140.19510853556403 156.16329956054688,142.82093811035156 153.6485595703125,141.25397591468845 151.13381958007812,142.82093811035156 152.02099609375,140.19510853556403 149.57962036132812,138.53771155381764 152.64266967773438,138.48181985904012 153.6485595703125,135.89053337555833 154.65444946289062,138.48181985904012 " fill="#bfbfbf"/>
  <polygon stroke="#000000" transform="rotate(26.314777374267578 134.26208496093747,109.6992416381836) " id="svg_172" opacity="0.1" stroke-width="0" points="134.26208497268817,104.26528930664062 135.05938951317148,108.32881164550781 137.48727419342322,108.41645812988281 135.55215347036574,111.0155029296875 136.2553598063023,115.13319396972656 134.26208497268817,112.67596435546875 132.26881013907405,115.13319396972656 132.9720164750106,111.0155029296875 131.03689575195312,108.41645812988281 133.46478043220486,108.32881164550781 134.26208497268817,104.26528930664062 135.05938951317148,108.32881164550781 " fill="#bfbfbf"/>
  <polygon stroke="#000000" id="svg_173" opacity="0.1" stroke-width="0" points="166.56298826949933,121.54074096679688 167.36029280998264,125.60426330566406 169.78817749023438,125.69190979003906 167.8530567671769,128.29095458984375 168.55626310311345,132.4086456298828 166.56298826949933,129.951416015625 164.5697134358852,132.4086456298828 165.27291977182176,128.29095458984375 163.33779904876428,125.69190979003906 165.76568372901602,125.60426330566406 166.56298826949933,121.54074096679688 167.36029280998264,125.60426330566406 " fill="#bfbfbf"/>
  <polygon stroke="#000000" transform="rotate(-30.906599044799805 160.42437744140625,109.9090805053711) " id="svg_174" opacity="0.1" stroke-width="0" points="160.42437743259325,104.47512817382812 161.360738558903,108.53865051269531 164.21206665039062,108.62629699707031 161.93944467499205,111.225341796875 162.7652960822179,115.34303283691406 160.42437743259325,112.88580322265625 158.0834587829686,115.34303283691406 158.90931019019445,111.225341796875 156.63668821479587,108.62629699707031 159.4880163062835,108.53865051269531 160.42437743259325,104.47512817382812 161.360738558903,108.53865051269531 " fill="#bfbfbf"/>
  <polygon stroke="#000000" transform="rotate(14.924762725830078 124.37438964843751,119.42049407958984) " id="svg_175" opacity="0.1" stroke-width="0" points="124.3743896484375,113.98654174804688 124.72844696044922,118.05006408691406 125.80661010742188,118.13771057128906 124.94728088378906,120.73675537109375 125.25955200195312,124.85444641113281 124.3743896484375,122.397216796875 123.4892349243164,124.85444641113281 123.80149841308594,120.73675537109375 122.94216918945312,118.13771057128906 124.02033233642578,118.05006408691406 124.3743896484375,113.98654174804688 124.72844696044922,118.05006408691406 " fill="#bfbfbf"/>
  <polygon stroke="null" opacity="0.1" fill="#bfbfbf" id="svg_177"/>
  <ellipse stroke="#000000" id="svg_182" ry="16.58756" rx="15.86475" cy="121.64261" cx="140.21002" stroke-linecap="null" stroke-linejoin="null" stroke-dasharray="null" stroke-width="0" fill="#ffffff"/>
  <ellipse stroke="#000000" id="svg_184" ry="19.19352" rx="16.14014" cy="123.72382" cx="140.5958" stroke-linecap="null" stroke-linejoin="null" stroke-dasharray="null" stroke-width="0" fill="#a466f4"/>
  <rect stroke="#000000" transform="rotate(-4.474902629852295 127.38134002685534,123.35696411132827) " id="svg_185" height="15.89941" width="6.40723" y="115.40726" x="124.17772" stroke-linecap="null" stroke-linejoin="null" stroke-dasharray="null" stroke-width="0" fill="#a466f4"/>
  <path stroke="#f9f2f2" id="svg_186" d="m130.75876,126.96599l0.09731,-0.33365l0,0.16682l0.03902,0l0,-0.26677l0.07781,0l0,-0.13377l-0.04866,0l0.09731,-0.33365l0.09732,0.33365l-0.04866,0l0,0.13377l0.07781,0l0,0.26677l0.03902,0l0,-0.16682l0.09732,0.33365l-0.09732,0.33365l0,-0.16683l-0.03902,0l0,0.26677l-0.07781,0l0,0.13377l0.04866,0l-0.09732,0.33365l-0.09731,-0.33365l0.04866,0l0,-0.13377l-0.07781,0l0,-0.26677l-0.03902,0l0,0.16683l-0.09731,-0.33365z" opacity="0.8" stroke-linecap="null" stroke-linejoin="null" stroke-dasharray="null" stroke-width="0.2" fill="#ffffff"/>
  <path stroke="#f9f2f2" id="svg_187" d="m169.50246,124.63836l0.09732,-0.33364l0,0.16682l0.03901,0l0,-0.26678l0.07781,0l0,-0.13377l-0.04865,0l0.09731,-0.33365l0.09732,0.33365l-0.04866,0l0,0.13377l0.07781,0l0,0.26678l0.03902,0l0,-0.16682l0.09731,0.33364l-0.09731,0.33365l0,-0.16682l-0.03902,0l0,0.26677l-0.07781,0l0,0.13377l0.04866,0l-0.09732,0.33365l-0.09731,-0.33365l0.04865,0l0,-0.13377l-0.07781,0l0,-0.26677l-0.03901,0l0,0.16682l-0.09732,-0.33365z" opacity="0.8" stroke-linecap="null" stroke-linejoin="null" stroke-dasharray="null" stroke-width="0.2" fill="#ffffff"/>
  <path stroke="#f9f2f2" id="svg_188" d="m144.87468,136.27649l0.09732,-0.33364l0,0.16682l0.03901,0l0,-0.26678l0.07781,0l0,-0.13377l-0.04865,0l0.09731,-0.33365l0.09732,0.33365l-0.04866,0l0,0.13377l0.07781,0l0,0.26678l0.03902,0l0,-0.16682l0.09731,0.33364l-0.09731,0.33365l0,-0.16682l-0.03902,0l0,0.26677l-0.07781,0l0,0.13377l0.04866,0l-0.09732,0.33365l-0.09731,-0.33365l0.04865,0l0,-0.13377l-0.07781,0l0,-0.26677l-0.03901,0l0,0.16682l-0.09732,-0.33365z" opacity="0.8" stroke-linecap="null" stroke-linejoin="null" stroke-dasharray="null" stroke-width="0.2" fill="#ffffff"/>
  <path stroke="#f9f2f2" id="svg_189" d="m123.02503,127.64174l0.09732,-0.33364l0,0.16682l0.03901,0l0,-0.26678l0.07781,0l0,-0.13377l-0.04865,0l0.09731,-0.33365l0.09732,0.33365l-0.04866,0l0,0.13377l0.07781,0l0,0.26678l0.03902,0l0,-0.16682l0.09731,0.33364l-0.09731,0.33365l0,-0.16682l-0.03902,0l0,0.26677l-0.07781,0l0,0.13377l0.04866,0l-0.09732,0.33365l-0.09731,-0.33365l0.04865,0l0,-0.13377l-0.07781,0l0,-0.26677l-0.03901,0l0,0.16682l-0.09732,-0.33365z" opacity="0.8" stroke-linecap="null" stroke-linejoin="null" stroke-dasharray="null" stroke-width="0.2" fill="#ffffff"/>
  <path stroke="#f9f2f2" id="svg_190" d="m157.11347,128.76801l0.09732,-0.33364l0,0.16682l0.03901,0l0,-0.26678l0.07781,0l0,-0.13377l-0.04865,0l0.09731,-0.33365l0.09732,0.33365l-0.04866,0l0,0.13377l0.07781,0l0,0.26678l0.03902,0l0,-0.16682l0.09731,0.33364l-0.09731,0.33365l0,-0.16682l-0.03902,0l0,0.26677l-0.07781,0l0,0.13377l0.04866,0l-0.09732,0.33365l-0.09731,-0.33365l0.04865,0l0,-0.13377l-0.07781,0l0,-0.26677l-0.03901,0l0,0.16682l-0.09732,-0.33365z" opacity="0.8" stroke-linecap="null" stroke-linejoin="null" stroke-dasharray="null" stroke-width="0.2" fill="#ffffff"/>
  <path stroke="#f9f2f2" id="svg_191" d="m151.78246,115.5531l0.09732,-0.33364l0,0.16682l0.03901,0l0,-0.26678l0.07781,0l0,-0.13377l-0.04865,0l0.09731,-0.33365l0.09732,0.33365l-0.04866,0l0,0.13377l0.07781,0l0,0.26678l0.03902,0l0,-0.16682l0.09731,0.33364l-0.09731,0.33365l0,-0.16682l-0.03902,0l0,0.26677l-0.07781,0l0,0.13377l0.04866,0l-0.09732,0.33365l-0.09731,-0.33365l0.04865,0l0,-0.13377l-0.07781,0l0,-0.26677l-0.03901,0l0,0.16682l-0.09732,-0.33365z" opacity="0.8" stroke-linecap="null" stroke-linejoin="null" stroke-dasharray="null" stroke-width="0.2" fill="#ffffff"/>
  <path stroke="#f9f2f2" id="svg_192" d="m129.40722,139.80545l0.09732,-0.33364l0,0.16682l0.03901,0l0,-0.26678l0.07781,0l0,-0.13377l-0.04865,0l0.09731,-0.33365l0.09732,0.33365l-0.04866,0l0,0.13377l0.07781,0l0,0.26678l0.03902,0l0,-0.16682l0.09731,0.33364l-0.09731,0.33365l0,-0.16682l-0.03902,0l0,0.26677l-0.07781,0l0,0.13377l0.04866,0l-0.09732,0.33365l-0.09731,-0.33365l0.04865,0l0,-0.13377l-0.07781,0l0,-0.26677l-0.03901,0l0,0.16682l-0.09732,-0.33365z" opacity="0.8" stroke-linecap="null" stroke-linejoin="null" stroke-dasharray="null" stroke-width="0.2" fill="#ffffff"/>
  <path stroke="#f9f2f2" transform="rotate(36.12563705444336 159.17829895019534,143.03408813476562) " id="svg_193" d="m158.9155,143.03409l0.09732,-0.33364l0,0.16682l0.03901,0l0,-0.26678l0.07781,0l0,-0.13377l-0.04865,0l0.09731,-0.33365l0.09732,0.33365l-0.04866,0l0,0.13377l0.07781,0l0,0.26678l0.03902,0l0,-0.16682l0.09731,0.33364l-0.09731,0.33365l0,-0.16682l-0.03902,0l0,0.26677l-0.07781,0l0,0.13377l0.04866,0l-0.09732,0.33365l-0.09731,-0.33365l0.04865,0l0,-0.13377l-0.07781,0l0,-0.26677l-0.03901,0l0,0.16682l-0.09732,-0.33365z" opacity="0.8" stroke-linecap="null" stroke-linejoin="null" stroke-dasharray="null" stroke-width="0.2" fill="#ffffff"/>
  <path stroke="#f9f2f2" id="svg_194" d="m140.59483,119.08207l0.09732,-0.33364l0,0.16682l0.03901,0l0,-0.26678l0.07781,0l0,-0.13377l-0.04865,0l0.09731,-0.33365l0.09732,0.33365l-0.04866,0l0,0.13377l0.07781,0l0,0.26678l0.03902,0l0,-0.16682l0.09731,0.33364l-0.09731,0.33365l0,-0.16682l-0.03902,0l0,0.26677l-0.07781,0l0,0.13377l0.04866,0l-0.09732,0.33365l-0.09731,-0.33365l0.04865,0l0,-0.13377l-0.07781,0l0,-0.26677l-0.03901,0l0,0.16682l-0.09732,-0.33365z" opacity="0.8" stroke-linecap="null" stroke-linejoin="null" stroke-dasharray="null" stroke-width="0.2" fill="#ffffff"/>
  <path stroke="#f9f2f2" id="svg_195" d="m145.09991,105.04123l0.09732,-0.33364l0,0.16682l0.03901,0l0,-0.26678l0.07781,0l0,-0.13377l-0.04865,0l0.09731,-0.33365l0.09732,0.33365l-0.04866,0l0,0.13377l0.07781,0l0,0.26678l0.03902,0l0,-0.16682l0.09731,0.33364l-0.09731,0.33365l0,-0.16682l-0.03902,0l0,0.26677l-0.07781,0l0,0.13377l0.04866,0l-0.09732,0.33365l-0.09731,-0.33365l0.04865,0l0,-0.13377l-0.07781,0l0,-0.26677l-0.03901,0l0,0.16682l-0.09732,-0.33365z" opacity="0.8" stroke-linecap="null" stroke-linejoin="null" stroke-dasharray="null" stroke-width="0.2" fill="#ffffff"/>
  <path stroke="#f9f2f2" id="svg_196" d="m164.47175,111.12309l0.05561,-0.33364l0,0.16682l0.02229,0l0,-0.26678l0.04446,0l0,-0.13377l-0.0278,0l0.05561,-0.33365l0.05561,0.33365l-0.02781,0l0,0.13377l0.04446,0l0,0.26678l0.0223,0l0,-0.16682l0.05561,0.33364l-0.05561,0.33365l0,-0.16682l-0.0223,0l0,0.26677l-0.04446,0l0,0.13377l0.02781,0l-0.05561,0.33365l-0.05561,-0.33365l0.0278,0l0,-0.13377l-0.04446,0l0,-0.26677l-0.02229,0l0,0.16682l-0.05561,-0.33365z" opacity="0.8" stroke-linecap="null" stroke-linejoin="null" stroke-dasharray="null" stroke-width="0.2" fill="#ffffff"/>
  <path stroke="#d4aaff" id="svg_197" d="m156.38767,105.04126l0.09732,-0.33364l0,0.16682l0.03901,0l0,-0.26678l0.07781,0l0,-0.13377l-0.04865,0l0.09731,-0.33365l0.09732,0.33365l-0.04866,0l0,0.13377l0.07781,0l0,0.26678l0.03902,0l0,-0.16682l0.09731,0.33364l-0.09731,0.33365l0,-0.16682l-0.03902,0l0,0.26677l-0.07781,0l0,0.13377l0.04866,0l-0.09732,0.33365l-0.09731,-0.33365l0.04865,0l0,-0.13377l-0.07781,0l0,-0.26677l-0.03901,0l0,0.16682l-0.09732,-0.33365z" opacity="0.8" stroke-linecap="null" stroke-linejoin="null" stroke-dasharray="null" stroke-width="0.2" fill="#aad4ff"/>
  <path stroke="#d4aaff" id="svg_198" d="m166.7994,135.17525l0.09732,-0.33364l0,0.16682l0.03901,0l0,-0.26678l0.07781,0l0,-0.13377l-0.04865,0l0.09731,-0.33365l0.09732,0.33365l-0.04866,0l0,0.13377l0.07781,0l0,0.26678l0.03902,0l0,-0.16682l0.09731,0.33364l-0.09731,0.33365l0,-0.16682l-0.03902,0l0,0.26677l-0.07781,0l0,0.13377l0.04866,0l-0.09732,0.33365l-0.09731,-0.33365l0.04865,0l0,-0.13377l-0.07781,0l0,-0.26677l-0.03901,0l0,0.16682l-0.09732,-0.33365z" opacity="0.8" stroke-linecap="null" stroke-linejoin="null" stroke-dasharray="null" stroke-width="0.2" fill="#aad4ff"/>
  <path stroke="#d4aaff" id="svg_199" d="m139.96915,142.18315l0.09732,-0.33364l0,0.16682l0.03901,0l0,-0.26678l0.07781,0l0,-0.13377l-0.04865,0l0.09731,-0.33365l0.09732,0.33365l-0.04866,0l0,0.13377l0.07781,0l0,0.26678l0.03902,0l0,-0.16682l0.09731,0.33364l-0.09731,0.33365l0,-0.16682l-0.03902,0l0,0.26677l-0.07781,0l0,0.13377l0.04866,0l-0.09732,0.33365l-0.09731,-0.33365l0.04865,0l0,-0.13377l-0.07781,0l0,-0.26677l-0.03901,0l0,0.16682l-0.09732,-0.33365z" opacity="0.8" stroke-linecap="null" stroke-linejoin="null" stroke-dasharray="null" stroke-width="0.2" fill="#aad4ff"/>
  <path stroke="#d4aaff" id="svg_200" d="m146.87694,126.66565l0.09732,-0.33364l0,0.16682l0.03901,0l0,-0.26678l0.07781,0l0,-0.13377l-0.04865,0l0.09731,-0.33365l0.09732,0.33365l-0.04866,0l0,0.13377l0.07781,0l0,0.26678l0.03902,0l0,-0.16682l0.09731,0.33364l-0.09731,0.33365l0,-0.16682l-0.03902,0l0,0.26677l-0.07781,0l0,0.13377l0.04866,0l-0.09732,0.33365l-0.09731,-0.33365l0.04865,0l0,-0.13377l-0.07781,0l0,-0.26677l-0.03901,0l0,0.16682l-0.09732,-0.33365z" opacity="0.8" stroke-linecap="null" stroke-linejoin="null" stroke-dasharray="null" stroke-width="0.2" fill="#aad4ff"/>
  <path stroke="#d4aaff" id="svg_201" d="m131.45955,117.55538l0.09732,-0.33364l0,0.16682l0.03901,0l0,-0.26678l0.07781,0l0,-0.13377l-0.04865,0l0.09731,-0.33365l0.09732,0.33365l-0.04866,0l0,0.13377l0.07781,0l0,0.26678l0.03902,0l0,-0.16682l0.09731,0.33364l-0.09731,0.33365l0,-0.16682l-0.03902,0l0,0.26677l-0.07781,0l0,0.13377l0.04866,0l-0.09732,0.33365l-0.09731,-0.33365l0.04865,0l0,-0.13377l-0.07781,0l0,-0.26677l-0.03901,0l0,0.16682l-0.09732,-0.33365z" opacity="0.8" stroke-linecap="null" stroke-linejoin="null" stroke-dasharray="null" stroke-width="0.2" fill="#aad4ff"/>
  <path stroke="#d4aaff" id="svg_202" d="m135.76441,107.04352l0.04171,-0.33364l0,0.16682l0.01672,0l0,-0.26678l0.03335,0l0,-0.13377l-0.02085,0l0.04171,-0.33365l0.04171,0.33365l-0.02085,0l0,0.13377l0.03335,0l0,0.26678l0.01672,0l0,-0.16682l0.04171,0.33364l-0.04171,0.33365l0,-0.16682l-0.01672,0l0,0.26677l-0.03335,0l0,0.13377l0.02085,0l-0.04171,0.33365l-0.04171,-0.33365l0.02085,0l0,-0.13377l-0.03335,0l0,-0.26677l-0.01672,0l0,0.16682l-0.04171,-0.33365z" opacity="0.8" stroke-linecap="null" stroke-linejoin="null" stroke-dasharray="null" stroke-width="0.2" fill="#aad4ff"/>
  <path id="svg_104" stroke="#f9f2f2" d="m373.31671,126.47503l0.09732,-0.33364l0,0.16682l0.03901,0l0,-0.26678l0.07781,0l0,-0.13377l-0.04865,0l0.09731,-0.33365l0.09732,0.33365l-0.04866,0l0,0.13377l0.07781,0l0,0.26678l0.03902,0l0,-0.16682l0.09731,0.33364l-0.09731,0.33365l0,-0.16682l-0.03902,0l0,0.26677l-0.07781,0l0,0.13377l0.04866,0l-0.09732,0.33365l-0.09731,-0.33365l0.04865,0l0,-0.13377l-0.07781,0l0,-0.26677l-0.03901,0l0,0.16682l-0.09732,-0.33365z" opacity="0.8" stroke-linecap="null" stroke-linejoin="null" stroke-dasharray="null" stroke-width="0.2" fill="#ffffff"/>
  <path id="svg_113" stroke="#f9f2f2" transform="rotate(-1.9383249282836914 375.38153076172034,140.74111938476645) " d="m375.11874,140.74111l0.09732,-0.33364l0,0.16682l0.03901,0l0,-0.26678l0.07781,0l0,-0.13377l-0.04865,0l0.09731,-0.33365l0.09732,0.33365l-0.04866,0l0,0.13377l0.07781,0l0,0.26678l0.03902,0l0,-0.16682l0.09731,0.33364l-0.09731,0.33365l0,-0.16682l-0.03902,0l0,0.26677l-0.07781,0l0,0.13377l0.04866,0l-0.09732,0.33365l-0.09731,-0.33365l0.04865,0l0,-0.13377l-0.07781,0l0,-0.26677l-0.03901,0l0,0.16682l-0.09732,-0.33365z" opacity="0.8" stroke-linecap="null" stroke-linejoin="null" stroke-dasharray="null" stroke-width="0.2" fill="#ffffff"/>
  <path id="svg_114" stroke="#f9f2f2" d="m372.24884,150.14617l0.09732,-0.33364l0,0.16682l0.03901,0l0,-0.26678l0.07781,0l0,-0.13377l-0.04865,0l0.09731,-0.33365l0.09732,0.33365l-0.04866,0l0,0.13377l0.07781,0l0,0.26678l0.03902,0l0,-0.16682l0.09731,0.33364l-0.09731,0.33365l0,-0.16682l-0.03902,0l0,0.26677l-0.07781,0l0,0.13377l0.04866,0l-0.09732,0.33365l-0.09731,-0.33365l0.04865,0l0,-0.13377l-0.07781,0l0,-0.26677l-0.03901,0l0,0.16682l-0.09732,-0.33365z" opacity="0.8" stroke-linecap="null" stroke-linejoin="null" stroke-dasharray="null" stroke-width="0.2" fill="#ffffff"/>
  <path stroke="#f9f2f2" id="svg_116" d="m379.32318,155.34712l0.48772,0.68177l0,-0.34088l0.1955,0l0,0.54515l0.38994,0l0,0.27335l-0.24381,0l0.48767,0.68179l0.48772,-0.68179l-0.24386,0l0,-0.27335l0.38994,0l0,-0.54515l0.19555,0l0,0.34088l0.48767,-0.68177l-0.48767,-0.68179l0,0.34088l-0.19555,0l0,-0.54513l-0.38994,0l0,-0.27335l0.24386,0l-0.48772,-0.68179l-0.48767,0.68179l0.24381,0l0,0.27335l-0.38994,0l0,0.54513l-0.1955,0l0,-0.34088l-0.48772,0.68179z" opacity="0.8" stroke-linecap="null" stroke-linejoin="null" stroke-dasharray="null" stroke-width="0.2" fill="#ffffff"/>
  <path id="svg_137" stroke="#f9f2f2" d="m383.99542,137.15374l0.09732,-0.33364l0,0.16682l0.03901,0l0,-0.26678l0.07781,0l0,-0.13377l-0.04865,0l0.09731,-0.33365l0.09732,0.33365l-0.04866,0l0,0.13377l0.07781,0l0,0.26678l0.03902,0l0,-0.16682l0.09731,0.33364l-0.09731,0.33365l0,-0.16682l-0.03902,0l0,0.26677l-0.07781,0l0,0.13377l0.04866,0l-0.09732,0.33365l-0.09731,-0.33365l0.04865,0l0,-0.13377l-0.07781,0l0,-0.26677l-0.03901,0l0,0.16682l-0.09732,-0.33365z" opacity="0.8" stroke-linecap="null" stroke-linejoin="null" stroke-dasharray="null" stroke-width="0.2" fill="#ffffff"/>
  <path id="svg_150" stroke="#f9f2f2" d="m387.55499,140.71331l0.09732,-0.33364l0,0.16682l0.03901,0l0,-0.26678l0.07781,0l0,-0.13377l-0.04865,0l0.09731,-0.33365l0.09732,0.33365l-0.04866,0l0,0.13377l0.07781,0l0,0.26678l0.03902,0l0,-0.16682l0.09731,0.33364l-0.09731,0.33365l0,-0.16682l-0.03902,0l0,0.26677l-0.07781,0l0,0.13377l0.04866,0l-0.09732,0.33365l-0.09731,-0.33365l0.04865,0l0,-0.13377l-0.07781,0l0,-0.26677l-0.03901,0l0,0.16682l-0.09732,-0.33365z" opacity="0.8" stroke-linecap="null" stroke-linejoin="null" stroke-dasharray="null" stroke-width="0.2" fill="#ffffff"/>
  <path id="svg_151" stroke="#f9f2f2" d="m382.15631,190.60662l0.09732,-0.33364l0,0.16682l0.03901,0l0,-0.26678l0.07781,0l0,-0.13377l-0.04865,0l0.09731,-0.33365l0.09732,0.33365l-0.04866,0l0,0.13377l0.07781,0l0,0.26678l0.03902,0l0,-0.16682l0.09731,0.33364l-0.09731,0.33365l0,-0.16682l-0.03902,0l0,0.26677l-0.07781,0l0,0.13377l0.04866,0l-0.09732,0.33365l-0.09731,-0.33365l0.04865,0l0,-0.13377l-0.07781,0l0,-0.26677l-0.03901,0l0,0.16682l-0.09732,-0.33365z" opacity="0.8" stroke-linecap="null" stroke-linejoin="null" stroke-dasharray="null" stroke-width="0.2" fill="#ffffff"/>
  <path id="svg_152" stroke="#f9f2f2" d="m384.1734,164.0285l0.09732,-0.33364l0,0.16682l0.03901,0l0,-0.26678l0.07781,0l0,-0.13377l-0.04865,0l0.09731,-0.33365l0.09732,0.33365l-0.04866,0l0,0.13377l0.07781,0l0,0.26678l0.03902,0l0,-0.16682l0.09731,0.33364l-0.09731,0.33365l0,-0.16682l-0.03902,0l0,0.26677l-0.07781,0l0,0.13377l0.04866,0l-0.09732,0.33365l-0.09731,-0.33365l0.04865,0l0,-0.13377l-0.07781,0l0,-0.26677l-0.03901,0l0,0.16682l-0.09732,-0.33365z" opacity="0.8" stroke-linecap="null" stroke-linejoin="null" stroke-dasharray="null" stroke-width="0.2" fill="#ffffff"/>
  <path id="svg_153" stroke="#f9f2f2" d="m376.10504,221.10027l0.09732,-0.33364l0,0.16682l0.03901,0l0,-0.26678l0.07781,0l0,-0.13377l-0.04865,0l0.09731,-0.33365l0.09732,0.33365l-0.04866,0l0,0.13377l0.07781,0l0,0.26678l0.03902,0l0,-0.16682l0.09731,0.33364l-0.09731,0.33365l0,-0.16682l-0.03902,0l0,0.26677l-0.07781,0l0,0.13377l0.04866,0l-0.09732,0.33365l-0.09731,-0.33365l0.04865,0l0,-0.13377l-0.07781,0l0,-0.26677l-0.03901,0l0,0.16682l-0.09732,-0.33365z" opacity="0.8" stroke-linecap="null" stroke-linejoin="null" stroke-dasharray="null" stroke-width="0.2" fill="#ffffff"/>
  <path id="svg_154" stroke="#f9f2f2" d="m370.29107,177.37688l0.09732,-0.33364l0,0.16682l0.03901,0l0,-0.26678l0.07781,0l0,-0.13377l-0.04865,0l0.09731,-0.33365l0.09732,0.33365l-0.04866,0l0,0.13377l0.07781,0l0,0.26678l0.03902,0l0,-0.16682l0.09731,0.33364l-0.09731,0.33365l0,-0.16682l-0.03902,0l0,0.26677l-0.07781,0l0,0.13377l0.04866,0l-0.09732,0.33365l-0.09731,-0.33365l0.04865,0l0,-0.13377l-0.07781,0l0,-0.26677l-0.03901,0l0,0.16682l-0.09732,-0.33365z" opacity="0.8" stroke-linecap="null" stroke-linejoin="null" stroke-dasharray="null" stroke-width="0.2" fill="#ffffff"/>
  <path id="svg_155" stroke="#f9f2f2" d="m383.2835,119.35589l0.09732,-0.33364l0,0.16682l0.03901,0l0,-0.26678l0.07781,0l0,-0.13377l-0.04865,0l0.09731,-0.33365l0.09732,0.33365l-0.04866,0l0,0.13377l0.07781,0l0,0.26678l0.03902,0l0,-0.16682l0.09731,0.33364l-0.09731,0.33365l0,-0.16682l-0.03902,0l0,0.26677l-0.07781,0l0,0.13377l0.04866,0l-0.09732,0.33365l-0.09731,-0.33365l0.04865,0l0,-0.13377l-0.07781,0l0,-0.26677l-0.03901,0l0,0.16682l-0.09732,-0.33365z" opacity="0.8" stroke-linecap="null" stroke-linejoin="null" stroke-dasharray="null" stroke-width="0.2" fill="#ffffff"/>
  <path id="svg_156" stroke="#f9f2f2" d="m382.86822,228.16009l0.09732,-0.33364l0,0.16682l0.03901,0l0,-0.26678l0.07781,0l0,-0.13377l-0.04865,0l0.09731,-0.33365l0.09732,0.33365l-0.04866,0l0,0.13377l0.07781,0l0,0.26678l0.03902,0l0,-0.16682l0.09731,0.33364l-0.09731,0.33365l0,-0.16682l-0.03902,0l0,0.26677l-0.07781,0l0,0.13377l0.04866,0l-0.09732,0.33365l-0.09731,-0.33365l0.04865,0l0,-0.13377l-0.07781,0l0,-0.26677l-0.03901,0l0,0.16682l-0.09732,-0.33365z" opacity="0.8" stroke-linecap="null" stroke-linejoin="null" stroke-dasharray="null" stroke-width="0.2" fill="#ffffff"/>
  <path id="svg_157" stroke="#f9f2f2" d="m374.81439,234.60688l0.48772,0.68177l0,-0.34088l0.19549,0l0,0.54515l0.38995,0l0,0.27334l-0.24381,0l0.48766,0.6818l0.48772,-0.6818l-0.24386,0l0,-0.27334l0.38995,0l0,-0.54515l0.19554,0l0,0.34088l0.48767,-0.68177l-0.48767,-0.68179l0,0.34089l-0.19554,0l0,-0.54513l-0.38995,0l0,-0.27335l0.24386,0l-0.48772,-0.68179l-0.48766,0.68179l0.24381,0l0,0.27335l-0.38995,0l0,0.54513l-0.19549,0l0,-0.34089l-0.48772,0.68179z" opacity="0.8" stroke-linecap="null" stroke-linejoin="null" stroke-dasharray="null" stroke-width="0.2" fill="#ffffff"/>
  <path id="svg_158" stroke="#f9f2f2" transform="rotate(-1.9383249282836914 383.819030761719,149.1786193847656) " d="m383.55624,149.17861l0.09732,-0.33364l0,0.16682l0.03901,0l0,-0.26678l0.07781,0l0,-0.13377l-0.04865,0l0.09731,-0.33365l0.09732,0.33365l-0.04866,0l0,0.13377l0.07781,0l0,0.26678l0.03902,0l0,-0.16682l0.09731,0.33364l-0.09731,0.33365l0,-0.16682l-0.03902,0l0,0.26677l-0.07781,0l0,0.13377l0.04866,0l-0.09732,0.33365l-0.09731,-0.33365l0.04865,0l0,-0.13377l-0.07781,0l0,-0.26677l-0.03901,0l0,0.16682l-0.09732,-0.33365z" opacity="0.8" stroke-linecap="null" stroke-linejoin="null" stroke-dasharray="null" stroke-width="0.2" fill="#ffffff"/>
  <path id="svg_159" stroke="#deea38" transform="rotate(-1.9383249282836914 372.4943237304664,279.76208496093767) " d="m372.23153,279.76211l0.09732,-0.33364l0,0.16682l0.03901,0l0,-0.26678l0.07781,0l0,-0.13377l-0.04865,0l0.09731,-0.33365l0.09732,0.33365l-0.04866,0l0,0.13377l0.07781,0l0,0.26678l0.03902,0l0,-0.16682l0.09731,0.33364l-0.09731,0.33365l0,-0.16682l-0.03902,0l0,0.26677l-0.07781,0l0,0.13377l0.04866,0l-0.09732,0.33365l-0.09731,-0.33365l0.04865,0l0,-0.13377l-0.07781,0l0,-0.26677l-0.03901,0l0,0.16682l-0.09732,-0.33365z" opacity="0.8" stroke-linecap="null" stroke-linejoin="null" stroke-dasharray="null" stroke-width="0.2" fill="#ffffff"/>
  <path id="svg_160" stroke="#f9f2f2" transform="rotate(-1.9383249282836914 382.13153076171983,313.2879943847641) " d="m381.86874,313.28798l0.09732,-0.33364l0,0.16682l0.03901,0l0,-0.26678l0.07781,0l0,-0.13377l-0.04865,0l0.09731,-0.33365l0.09732,0.33365l-0.04866,0l0,0.13377l0.07781,0l0,0.26678l0.03902,0l0,-0.16682l0.09731,0.33364l-0.09731,0.33365l0,-0.16682l-0.03902,0l0,0.26677l-0.07781,0l0,0.13377l0.04866,0l-0.09732,0.33365l-0.09731,-0.33365l0.04865,0l0,-0.13377l-0.07781,0l0,-0.26677l-0.03901,0l0,0.16682l-0.09732,-0.33365z" opacity="0.8" stroke-linecap="null" stroke-linejoin="null" stroke-dasharray="null" stroke-width="0.2" fill="#ffffff"/>
  <path stroke="#f9f2f2" id="svg_161" transform="rotate(-1.9383249282836914 375.64251708984085,325.39425659179676) " d="m371.08398,325.39424l1.68812,-0.158l0,0.079l0.67667,0l0,-0.12634l1.3497,0l0,-0.06334l-0.84389,0l1.68795,-0.158l1.68812,0.158l-0.84406,0l0,0.06334l1.3497,0l0,0.12634l0.67684,0l0,-0.079l1.68795,0.158l-1.68795,0.158l0,-0.079l-0.67684,0l0,0.12633l-1.3497,0l0,0.06335l0.84406,0l-1.68812,0.158l-1.68795,-0.158l0.84389,0l0,-0.06335l-1.3497,0l0,-0.12633l-0.67667,0l0,0.079l-1.68812,-0.158z" opacity="0.5" stroke-linecap="null" stroke-linejoin="null" stroke-dasharray="null" stroke-width="0.2" fill="#ff007f"/>
  <path id="svg_163" stroke="#f9f2f2" transform="rotate(-1.9383249282836914 372.40203857421784,302.371948242186) " d="m372.13925,302.37197l0.09732,-0.33364l0,0.16683l0.039,0l0,-0.2668l0.07781,0l0,-0.13376l-0.04865,0l0.09731,-0.33364l0.09732,0.33364l-0.04865,0l0,0.13376l0.07781,0l0,0.2668l0.03902,0l0,-0.16683l0.0973,0.33364l-0.0973,0.33364l0,-0.16681l-0.03902,0l0,0.26677l-0.07781,0l0,0.13378l0.04865,0l-0.09732,0.33364l-0.09731,-0.33364l0.04865,0l0,-0.13378l-0.07781,0l0,-0.26677l-0.039,0l0,0.16681l-0.09732,-0.33364z" opacity="0.8" stroke-linecap="null" stroke-linejoin="null" stroke-dasharray="null" stroke-width="0.2" fill="#ffffff"/>
  <path id="svg_178" stroke="#f9f2f2" transform="rotate(-1.9383249282836914 382.975280761714,250.6593627929696) " d="m382.71249,250.65935l0.09732,-0.33364l0,0.16683l0.039,0l0,-0.2668l0.07781,0l0,-0.13376l-0.04865,0l0.09731,-0.33364l0.09732,0.33364l-0.04865,0l0,0.13376l0.07781,0l0,0.2668l0.03902,0l0,-0.16683l0.0973,0.33364l-0.0973,0.33364l0,-0.16681l-0.03902,0l0,0.26677l-0.07781,0l0,0.13378l0.04865,0l-0.09732,0.33364l-0.09731,-0.33364l0.04865,0l0,-0.13378l-0.07781,0l0,-0.26677l-0.039,0l0,0.16681l-0.09732,-0.33364z" opacity="0.8" stroke-linecap="null" stroke-linejoin="null" stroke-dasharray="null" stroke-width="0.2" fill="#ffffff"/>
  <path id="svg_179" stroke="#f9f2f2" transform="rotate(-1.9383249282836914 382.9027709960914,290.62539672851614) " d="m382.63999,290.62539l0.09732,-0.33364l0,0.16683l0.039,0l0,-0.2668l0.07781,0l0,-0.13376l-0.04865,0l0.09731,-0.33364l0.09732,0.33364l-0.04865,0l0,0.13376l0.07781,0l0,0.2668l0.03902,0l0,-0.16683l0.0973,0.33364l-0.0973,0.33364l0,-0.16681l-0.03902,0l0,0.26677l-0.07781,0l0,0.13378l0.04865,0l-0.09732,0.33364l-0.09731,-0.33364l0.04865,0l0,-0.13378l-0.07781,0l0,-0.26677l-0.039,0l0,0.16681l-0.09732,-0.33364z" opacity="0.8" stroke-linecap="null" stroke-linejoin="null" stroke-dasharray="null" stroke-width="0.2" fill="#ffffff"/>
  <path stroke="#ef7373" id="svg_204" fill="#ffd4aa" stroke-width="0" stroke-dasharray="null" stroke-linejoin="null" stroke-linecap="null" d="m265.19457,276.65533l6.00667,-33.57665l6.00667,33.57665l-12.01334,0l0.00001,0l-0.00001,0z" transform="rotate(-171.87158203125 271.20123291015625,259.86700439453125) "/>
  <rect stroke="#000000" id="svg_112" transform="rotate(-90.77033233642578 304.53594970703125,249.03721618652344) " opacity="0.3" height="2.40675" width="179.44897" y="247.83385" x="214.81144" stroke-linecap="null" stroke-linejoin="null" stroke-dasharray="null" stroke-width="0" fill="#e0418e"/>
  <rect stroke="#000000" id="svg_121" transform="rotate(-90.77033233642578 304.6218566894532,122.8931655883789) " opacity="0.3" height="2.40675" width="10.8956" y="121.6898" x="299.17404" stroke-linecap="null" stroke-linejoin="null" stroke-dasharray="null" stroke-width="0" fill="#e0418e"/>
  <path id="svg_207" stroke="#f9f2f2" d="m326.72064,120.38422l0.48772,0.68177l0,-0.34088l0.19549,0l0,0.54515l0.38995,0l0,0.27334l-0.24381,0l0.48766,0.6818l0.48772,-0.6818l-0.24386,0l0,-0.27334l0.38995,0l0,-0.54515l0.19554,0l0,0.34088l0.48767,-0.68177l-0.48767,-0.68179l0,0.34089l-0.19554,0l0,-0.54513l-0.38995,0l0,-0.27335l0.24386,0l-0.48772,-0.68179l-0.48766,0.68179l0.24381,0l0,0.27335l-0.38995,0l0,0.54513l-0.19549,0l0,-0.34089l-0.48772,0.68179z" opacity="0.8" stroke-linecap="null" stroke-linejoin="null" stroke-dasharray="null" stroke-width="0.2" fill="#ffffff"/>
  <path id="svg_208" d="m348.02533,138.94672l0.17526,0.36934l0,-0.18467l0.07025,0l0,0.29533l0.14013,0l0,0.14808l-0.08761,0l0.17524,0.36935l0.17526,-0.36935l-0.08763,0l0,-0.14808l0.14013,0l0,-0.29533l0.07027,0l0,0.18467l0.17524,-0.36934l-0.17524,-0.36935l0,0.18467l-0.07027,0l0,-0.29532l-0.14013,0l0,-0.14808l0.08763,0l-0.17526,-0.36935l-0.17524,0.36935l0.08761,0l0,0.14808l-0.14013,0l0,0.29532l-0.07025,0l0,-0.18467l-0.17526,0.36935z" opacity="0.8" stroke-linecap="null" stroke-linejoin="null" stroke-dasharray="null" stroke-width="0.2" fill="#ffffff" stroke="#f9f2f2"/>
  <path id="svg_209" d="m346.02142,120.91156l0.48772,0.36934l0,-0.18467l0.19549,0l0,0.29533l0.38995,0l0,0.14808l-0.24381,0l0.48766,0.36935l0.48772,-0.36935l-0.24386,0l0,-0.14808l0.38995,0l0,-0.29533l0.19554,0l0,0.18467l0.48767,-0.36934l-0.48767,-0.36935l0,0.18467l-0.19554,0l0,-0.29531l-0.38995,0l0,-0.14808l0.24386,0l-0.48772,-0.36935l-0.48766,0.36935l0.24381,0l0,0.14808l-0.38995,0l0,0.29531l-0.19549,0l0,-0.18467l-0.48772,0.36935z" opacity="0.8" stroke-linecap="null" stroke-linejoin="null" stroke-dasharray="null" stroke-width="0.2" fill="#ffffff" stroke="#f9f2f2"/>
  <path stroke="#f9f2f2" d="m355.1629,123.56805l0.09732,-0.33364l0,0.16682l0.03901,0l0,-0.26678l0.07781,0l0,-0.13377l-0.04865,0l0.09731,-0.33365l0.09732,0.33365l-0.04866,0l0,0.13377l0.07781,0l0,0.26678l0.03902,0l0,-0.16682l0.09731,0.33364l-0.09731,0.33365l0,-0.16682l-0.03902,0l0,0.26677l-0.07781,0l0,0.13377l0.04866,0l-0.09732,0.33365l-0.09731,-0.33365l0.04865,0l0,-0.13377l-0.07781,0l0,-0.26677l-0.03901,0l0,0.16682l-0.09732,-0.33365z" opacity="0.8" stroke-linecap="null" stroke-linejoin="null" stroke-dasharray="null" stroke-width="0.2" fill="#ffffff" id="svg_141"/>
  <path stroke="#f9f2f2" d="m330.12231,149.05359l0.09732,-0.33364l0,0.16682l0.03901,0l0,-0.26679l0.07781,0l0,-0.13376l-0.04865,0l0.09731,-0.33366l0.09732,0.33366l-0.04866,0l0,0.13376l0.07781,0l0,0.26679l0.03902,0l0,-0.16682l0.09731,0.33364l-0.09731,0.33364l0,-0.16682l-0.03902,0l0,0.26677l-0.07781,0l0,0.13377l0.04866,0l-0.09732,0.33366l-0.09731,-0.33366l0.04865,0l0,-0.13377l-0.07781,0l0,-0.26677l-0.03901,0l0,0.16682l-0.09732,-0.33364z" opacity="0.8" stroke-linecap="null" stroke-linejoin="null" stroke-dasharray="null" stroke-width="0.2" fill="#ffffff" id="svg_142"/>
  <path stroke="#f9f2f2" d="m332.97985,137.36139l0.09732,-0.33364l0,0.16682l0.03901,0l0,-0.26679l0.07781,0l0,-0.13376l-0.04865,0l0.09731,-0.33366l0.09732,0.33366l-0.04866,0l0,0.13376l0.07781,0l0,0.26679l0.03902,0l0,-0.16682l0.09731,0.33364l-0.09731,0.33364l0,-0.16682l-0.03902,0l0,0.26677l-0.07781,0l0,0.13377l0.04866,0l-0.09732,0.33366l-0.09731,-0.33366l0.04865,0l0,-0.13377l-0.07781,0l0,-0.26677l-0.03901,0l0,0.16682l-0.09732,-0.33364z" opacity="0.8" stroke-linecap="null" stroke-linejoin="null" stroke-dasharray="null" stroke-width="0.2" fill="#ffffff" id="svg_212"/>
  <path stroke="#f9f2f2" d="m341.24102,123.88445l0.09733,-0.33364l0,0.16682l0.039,0l0,-0.26678l0.07781,0l0,-0.13376l-0.04864,0l0.09731,-0.33366l0.09731,0.33366l-0.04866,0l0,0.13376l0.07781,0l0,0.26678l0.03902,0l0,-0.16682l0.09731,0.33364l-0.09731,0.33364l0,-0.16682l-0.03902,0l0,0.26678l-0.07781,0l0,0.13377l0.04866,0l-0.09731,0.33366l-0.09731,-0.33366l0.04864,0l0,-0.13377l-0.07781,0l0,-0.26678l-0.039,0l0,0.16682l-0.09733,-0.33364z" opacity="0.8" stroke-linecap="null" stroke-linejoin="null" stroke-dasharray="null" stroke-width="0.2" fill="#ffffff" id="svg_213"/>
  <path stroke="#f9f2f2" d="m320.04179,129.57977l0.09733,-0.33364l0,0.16682l0.039,0l0,-0.26679l0.07781,0l0,-0.13375l-0.04863,0l0.0973,-0.33367l0.09731,0.33367l-0.04865,0l0,0.13375l0.07781,0l0,0.26679l0.03902,0l0,-0.16682l0.0973,0.33364l-0.0973,0.33364l0,-0.16682l-0.03902,0l0,0.26677l-0.07781,0l0,0.13377l0.04865,0l-0.09731,0.33367l-0.0973,-0.33367l0.04863,0l0,-0.13377l-0.07781,0l0,-0.26677l-0.039,0l0,0.16682l-0.09733,-0.33364z" opacity="0.8" stroke-linecap="null" stroke-linejoin="null" stroke-dasharray="null" stroke-width="0.2" fill="#ffffff" id="svg_214"/>
  <path stroke="#f9f2f2" d="m317.71325,150.03742l0.09732,-0.33364l0,0.16682l0.03901,0l0,-0.26679l0.07781,0l0,-0.13376l-0.04865,0l0.09731,-0.33366l0.09732,0.33366l-0.04866,0l0,0.13376l0.07781,0l0,0.26679l0.03902,0l0,-0.16682l0.09731,0.33364l-0.09731,0.33364l0,-0.16682l-0.03902,0l0,0.26677l-0.07781,0l0,0.13377l0.04866,0l-0.09732,0.33366l-0.09731,-0.33366l0.04865,0l0,-0.13377l-0.07781,0l0,-0.26677l-0.03901,0l0,0.16682l-0.09732,-0.33364z" opacity="0.8" stroke-linecap="null" stroke-linejoin="null" stroke-dasharray="null" stroke-width="0.2" fill="#ffffff" id="svg_215"/>
  <path fill="#fcc694" stroke-dasharray="null" stroke-linejoin="null" stroke-linecap="null" d="m273.53813,236.08955c7.5982,-30.17065 37.36818,0 0,38.79084c-37.36818,-38.79084 -7.5982,-68.96149 0,-38.79084z" id="svg_108" stroke="#fcbdbd"/>
  <rect fill="#ffd4aa" stroke-width="0" stroke-dasharray="null" stroke-linejoin="null" stroke-linecap="null" x="256.17184" y="222.90624" width="17.29688" height="58.21875" id="svg_203" stroke="#ef7373"/>
  <rect stroke="#000000" transform="rotate(-48.07158660888672 277.53692626953136,273.8808898925782) " id="svg_139" height="5.97926" width="8.08415" y="270.89127" x="273.49485" stroke-linecap="null" stroke-linejoin="null" stroke-dasharray="null" stroke-width="0" fill="#ffd4aa"/>
  <path fill="#ffd4aa" stroke-width="0" stroke-dasharray="null" stroke-linejoin="null" stroke-linecap="null" d="m271.92808,238.0753c6.87053,-24.68868 33.78943,0 0,31.74259c-33.78942,-31.74259 -6.87052,-56.43126 0,-31.74259z" id="svg_205" stroke="#ef7373"/>
  <path id="svg_9" d="m265.91717,213.60644c0,0 -7.54262,-1.19675 -1.00568,-3.88944c6.53694,-2.69269 6.53694,-4.787 6.48108,-4.8424c-0.05585,-0.0554 8.35273,-2.3381 3.82716,6.18875c-4.52557,8.52684 -6.78835,15.85694 -8.04546,11.36912c-1.2571,-4.48781 -1.2571,-8.82603 -1.2571,-8.82603l0,0z" opacity="0.03" stroke-linecap="null" stroke-linejoin="null" stroke-dasharray="null" stroke-width="0" fill="#000000" stroke="#ef7373"/>
  <path fill="#f9c18b" stroke-width="0" stroke-dasharray="null" stroke-linejoin="null" stroke-linecap="null" d="m272.79573,239.30679c5.57721,-22.79646 27.42886,0 0,29.30974c-27.42885,-29.30974 -5.57719,-52.1062 0,-29.30974z" id="svg_219" stroke="#ef7373"/>
  <ellipse fill="#fcc694" stroke-width="0.2" stroke-dasharray="null" stroke-linejoin="null" stroke-linecap="null" cx="276.13384" cy="264.85452" rx="5.65313" ry="5.68326" stroke="#fcbdbd" id="svg_223"/>
  <path fill="#ffd4aa" stroke-width="0" stroke-dasharray="null" stroke-linejoin="null" stroke-linecap="null" d="m269.35852,240.34453c6.87053,-24.68867 33.78943,0 0,31.74259c-33.78942,-31.74259 -6.87051,-56.43126 0,-31.74259z" stroke="#ef7373" id="svg_220"/>
  <rect fill="#ffd4aa" stroke-width="0" stroke-dasharray="null" stroke-linejoin="null" stroke-linecap="null" x="255.37094" y="227.17772" width="17.29688" height="55.41559" id="svg_221" stroke="#ef7373" transform="rotate(5.131202697753906 264.0193786621108,254.88551330566375) "/>
  <ellipse fill="#ffd4aa" stroke-width="0" stroke-dasharray="null" stroke-linejoin="null" stroke-linecap="null" cx="275.29956" cy="263.04414" id="svg_222" rx="5.51965" ry="6.08371" stroke="#d4aaff"/>
  <path d="m276.31082,246.9462c0,0 -4.69356,-0.93974 -0.62581,-3.05414c4.06775,-2.11441 4.06775,-3.75894 4.03299,-3.80245c-0.03475,-0.0435 5.19767,-1.83597 2.38153,4.85965c-2.81613,6.69562 -4.2242,12.4515 -5.00646,8.92749c-0.78226,-3.52401 -0.78226,-6.93055 -0.78226,-6.93055l0,0l0.00001,0z" opacity="0.09" stroke-linecap="null" stroke-linejoin="null" stroke-dasharray="null" stroke-width="0" fill="#000000" id="svg_224" transform="rotate(-3.1652960777282715 278.47924804687636,247.3932189941405) " stroke="#281616"/>
  <path d="m291.28314,128.29438l0.31196,0.56461l0,-0.2823l0.12504,0l0,0.45147l0.24942,0l0,0.22637l-0.15595,0l0.31192,0.56463l0.31196,-0.56463l-0.15598,0l0,-0.22637l0.24942,0l0,-0.45147l0.12507,0l0,0.2823l0.31193,-0.56461l-0.31193,-0.56462l0,0.28231l-0.12507,0l0,-0.45145l-0.24942,0l0,-0.22637l0.15598,0l-0.31196,-0.56462l-0.31192,0.56462l0.15595,0l0,0.22637l-0.24942,0l0,0.45145l-0.12504,0l0,-0.28231l-0.31196,0.56462z" opacity="0.7" stroke-linecap="null" stroke-linejoin="null" stroke-dasharray="null" stroke-width="0.2" fill="#ffffff" id="svg_226" stroke="#f9f2f2"/>
  <path d="m180.33006,167.10688l0.17543,0.36934l0,-0.18467l0.07032,0l0,0.29533l0.14026,0l0,0.14808l-0.08769,0l0.17541,0.36935l0.17543,-0.36935l-0.08771,0l0,-0.14808l0.14026,0l0,-0.29533l0.07034,0l0,0.18467l0.17541,-0.36934l-0.17541,-0.36935l0,0.18467l-0.07034,0l0,-0.29532l-0.14026,0l0,-0.14808l0.08771,0l-0.17543,-0.36935l-0.17541,0.36935l0.08769,0l0,0.14808l-0.14026,0l0,0.29532l-0.07032,0l0,-0.18467l-0.17543,0.36935z" opacity="0.4" stroke-linecap="null" stroke-linejoin="null" stroke-dasharray="null" stroke-width="0.2" fill="#ffffff" id="svg_227" stroke="#f9f2f2"/>
  <path stroke="#f9f2f2" d="m297.1419,185.38591l0.09732,-0.33364l0,0.16682l0.03901,0l0,-0.26678l0.07781,0l0,-0.13377l-0.04865,0l0.09731,-0.33365l0.09732,0.33365l-0.04866,0l0,0.13377l0.07781,0l0,0.26678l0.03902,0l0,-0.16682l0.09731,0.33364l-0.09731,0.33365l0,-0.16682l-0.03902,0l0,0.26677l-0.07781,0l0,0.13377l0.04866,0l-0.09732,0.33365l-0.09731,-0.33365l0.04865,0l0,-0.13377l-0.07781,0l0,-0.26677l-0.03901,0l0,0.16682l-0.09732,-0.33365z" opacity="0.8" stroke-linecap="null" stroke-linejoin="null" stroke-dasharray="null" stroke-width="0.2" fill="#ffffff" id="svg_228"/>
  <path d="m243.8098,138.43473l0.14288,-0.34015l0,0.17008l0.05727,0l0,-0.27199l0.11423,0l0,-0.13638l-0.07142,0l0.14286,-0.34016l0.14288,0.34016l-0.07144,0l0,0.13638l0.11423,0l0,0.27199l0.05729,0l0,-0.17008l0.14286,0.34015l-0.14286,0.34016l0,-0.17008l-0.05729,0l0,0.27198l-0.11423,0l0,0.13638l0.07144,0l-0.14288,0.34016l-0.14286,-0.34016l0.07142,0l0,-0.13638l-0.11423,0l0,-0.27198l-0.05727,0l0,0.17008l-0.14288,-0.34016z" opacity="0.75" stroke-linecap="null" stroke-linejoin="null" stroke-dasharray="null" stroke-width="0.2" fill="#ffffff" id="svg_229" stroke="#f9f2f2"/>
  <path d="m188.40356,122.87809l0.26168,-0.53867l0,0.26934l0.10489,0l0,-0.43073l0.20922,0l0,-0.21597l-0.13081,0l0.26165,-0.53869l0.26168,0.53869l-0.13084,0l0,0.21597l0.20922,0l0,0.43073l0.10492,0l0,-0.26934l0.26165,0.53867l-0.26165,0.53869l0,-0.26934l-0.10492,0l0,0.43071l-0.20922,0l0,0.21598l0.13084,0l-0.26168,0.53869l-0.26165,-0.53869l0.13081,0l0,-0.21598l-0.20922,0l0,-0.43071l-0.10489,0l0,0.26934l-0.26168,-0.53869z" opacity="0.8" stroke-linecap="null" stroke-linejoin="null" stroke-dasharray="null" stroke-width="0.2" fill="#00ffff" id="svg_230" stroke="#f9f2f2"/>
  <path d="m266.45044,327.7819l0.27306,-0.34178l0,0.17089l0.10945,0l0,-0.27329l0.21832,0l0,-0.13703l-0.1365,0l0.27304,-0.34179l0.27306,0.34179l-0.13653,0l0,0.13703l0.21832,0l0,0.27329l0.10948,0l0,-0.17089l0.27304,0.34178l-0.27304,0.34179l0,-0.17089l-0.10948,0l0,0.27328l-0.21832,0l0,0.13704l0.13653,0l-0.27306,0.34179l-0.27304,-0.34179l0.1365,0l0,-0.13704l-0.21832,0l0,-0.27328l-0.10945,0l0,0.17089l-0.27306,-0.34179z" opacity="0.5" stroke-linecap="null" stroke-linejoin="null" stroke-dasharray="null" stroke-width="0.2" fill="#ffffff" id="svg_231" stroke="#f9f2f2"/>
  <path d="m182.98949,325.11443l0.57414,-0.56147l0,0.28074l0.23013,0l0,-0.44896l0.45904,0l0,-0.22511l-0.287,0l0.57407,-0.56148l0.57413,0.56148l-0.28706,0l0,0.22511l0.45903,0l0,0.44896l0.2302,0l0,-0.28074l0.57407,0.56147l-0.57407,0.56148l0,-0.28074l-0.2302,0l0,0.44893l-0.45903,0l0,0.22511l0.28706,0l-0.57413,0.56148l-0.57407,-0.56148l0.287,0l0,-0.22511l-0.45904,0l0,-0.44893l-0.23013,0l0,0.28074l-0.57414,-0.56148z" opacity="0.8" stroke-linecap="null" stroke-linejoin="null" stroke-dasharray="null" stroke-width="0.2" fill="#d38383" id="svg_232" stroke="#f9f2f2"/>
  <path d="m190.77145,192.02387l0.30726,0.36934l0,-0.18467l0.12314,0l0,0.29533l0.24568,0l0,0.14808l-0.1536,0l0.30722,0.36935l0.30724,-0.36935l-0.15362,0l0,-0.14808l0.24566,0l0,-0.29533l0.1232,0l0,0.18467l0.30722,-0.36934l-0.30722,-0.36935l0,0.18467l-0.1232,0l0,-0.29532l-0.24566,0l0,-0.14808l0.15362,0l-0.30724,-0.36935l-0.30722,0.36935l0.1536,0l0,0.14808l-0.24568,0l0,0.29532l-0.12314,0l0,-0.18467l-0.30726,0.36935z" opacity="0.8" stroke-linecap="null" stroke-linejoin="null" stroke-dasharray="null" stroke-width="0.2" fill="#ffffff" id="svg_233" stroke="#f9f2f2"/>
  <path fill="#000000" stroke="#ef7373" stroke-width="0" stroke-dasharray="null" stroke-linejoin="null" stroke-linecap="null" opacity="0.08" d="m203.97142,262.99591c0,0 2.93665,-4.53845 -1.73529,-4.40497c-4.67194,0.13348 -8.54297,2.00226 -8.55101,1.9696c-0.00805,-0.03265 4.67998,-3.17096 4.67194,-3.20361c-0.00805,-0.03265 6.54876,-2.37006 6.54876,1.23401c0,3.60406 -0.93439,4.40497 -0.93439,4.40497l-0.00001,0z" id="svg_234" transform="rotate(32.78056716918945 199.2954559326173,259.78881835937494) "/>
  <path d="m299.88401,287.2951l0.33654,-0.80235l0,0.40118l0.1349,0l0,-0.64157l0.26907,0l0,-0.3217l-0.16823,0l0.3365,-0.80238l0.33654,0.80238l-0.16827,0l0,0.3217l0.26907,0l0,0.64157l0.13493,0l0,-0.40118l0.3365,0.80235l-0.3365,0.80238l0,-0.40118l-0.13493,0l0,0.64154l-0.26907,0l0,0.3217l0.16827,0l-0.33654,0.80238l-0.3365,-0.80238l0.16823,0l0,-0.3217l-0.26907,0l0,-0.64154l-0.1349,0l0,0.40118l-0.33654,-0.80238z" opacity="0.8" stroke-linecap="null" stroke-linejoin="null" stroke-dasharray="null" stroke-width="0.2" fill="#ff00ff" id="svg_235" stroke="#f9f2f2"/>
  <ellipse fill="#007fff" stroke-width="0.2" stroke-dasharray="null" stroke-linejoin="null" stroke-linecap="null" opacity="0.4" cx="265.81909" cy="124.2643" id="svg_236" rx="1.25635" ry="1.3202" transform="rotate(11.544503211975098 265.8190917968747,124.26430511474618) " stroke="#0000bf"/>
  <rect fill="#ffffff" stroke-width="0" stroke-dasharray="null" stroke-linejoin="null" stroke-linecap="null" x="210.12749" y="287.45604" width="4.0731" height="0.9761" id="svg_241" transform="rotate(-5.440204620361328 212.16404724120846,287.9440917968746) " stroke="#d4aaff"/>
  <rect fill="#ffffff" stroke-width="0" stroke-dasharray="null" stroke-linejoin="null" stroke-linecap="null" x="393.51852" y="354.72897" width="15.12817" height="2.37305" id="svg_243" stroke="#000000"/>
  <path id="svg_19" d="m199.72972,175.29389l0.17543,0.36934l0,-0.18467l0.07032,0l0,0.29533l0.14026,0l0,0.14808l-0.08769,0l0.17541,0.36935l0.17543,-0.36935l-0.08771,0l0,-0.14808l0.14026,0l0,-0.29533l0.07034,0l0,0.18467l0.17541,-0.36934l-0.17541,-0.36935l0,0.18467l-0.07034,0l0,-0.29532l-0.14026,0l0,-0.14808l0.08771,0l-0.17543,-0.36935l-0.17541,0.36935l0.08769,0l0,0.14808l-0.14026,0l0,0.29532l-0.07032,0l0,-0.18467l-0.17543,0.36935z" opacity="0.4" stroke-linecap="null" stroke-linejoin="null" stroke-dasharray="null" stroke-width="0.2" fill="#ffffff" stroke="#f9f2f2"/>
  <path id="svg_32" d="m180.33006,226.90766l0.17543,0.36934l0,-0.18467l0.07032,0l0,0.29533l0.14026,0l0,0.14808l-0.08769,0l0.17541,0.36935l0.17543,-0.36935l-0.08771,0l0,-0.14808l0.14026,0l0,-0.29533l0.07034,0l0,0.18467l0.17541,-0.36934l-0.17541,-0.36935l0,0.18467l-0.07034,0l0,-0.29532l-0.14026,0l0,-0.14808l0.08771,0l-0.17543,-0.36935l-0.17541,0.36935l0.08769,0l0,0.14808l-0.14026,0l0,0.29532l-0.07032,0l0,-0.18467l-0.17543,0.36935z" opacity="0.4" stroke-linecap="null" stroke-linejoin="null" stroke-dasharray="null" stroke-width="0.2" fill="#ffffff" stroke="#f9f2f2"/>
  <path id="svg_56" stroke="#f9f2f2" d="m291.13018,157.22575l0.09732,-0.33364l0,0.16682l0.03901,0l0,-0.26678l0.07781,0l0,-0.13377l-0.04865,0l0.09731,-0.33365l0.09732,0.33365l-0.04866,0l0,0.13377l0.07781,0l0,0.26678l0.03902,0l0,-0.16682l0.09731,0.33364l-0.09731,0.33365l0,-0.16682l-0.03902,0l0,0.26677l-0.07781,0l0,0.13377l0.04866,0l-0.09732,0.33365l-0.09731,-0.33365l0.04865,0l0,-0.13377l-0.07781,0l0,-0.26677l-0.03901,0l0,0.16682l-0.09732,-0.33365z" opacity="0.8" stroke-linecap="null" stroke-linejoin="null" stroke-dasharray="null" stroke-width="0.2" fill="#ffffff"/>
  <path id="svg_84" stroke="#f9f2f2" d="m300.93878,250.56559l0.09731,-0.33364l0,0.16682l0.03902,0l0,-0.26677l0.07781,0l0,-0.13377l-0.04866,0l0.09731,-0.33365l0.09733,0.33365l-0.04867,0l0,0.13377l0.07781,0l0,0.26677l0.03903,0l0,-0.16682l0.09731,0.33364l-0.09731,0.33366l0,-0.16682l-0.03903,0l0,0.26677l-0.07781,0l0,0.13377l0.04867,0l-0.09733,0.33365l-0.09731,-0.33365l0.04866,0l0,-0.13377l-0.07781,0l0,-0.26677l-0.03902,0l0,0.16682l-0.09731,-0.33366z" opacity="0.8" stroke-linecap="null" stroke-linejoin="null" stroke-dasharray="null" stroke-width="0.2" fill="#ffffff"/>
  <path stroke="#000000" transform="rotate(-3.184762954711914 203.8555145263688,226.0548248291016) " id="svg_217" d="m198.66608,233.29323l4.26344,-10.59418l1.06787,-3.88263c0,0 5.88134,2.5811 4.94695,6.54633c-0.93439,3.96524 -10.27826,7.93048 -10.27826,7.93048z" stroke-linecap="null" stroke-linejoin="null" stroke-dasharray="null" stroke-width="0" fill="#fccea4"/>
  <ellipse stroke="#dd75dd" transform="rotate(94.9696044921875 277.98541259765625,270.1984558105469) " ry="1.89064" rx="4.37968" id="svg_218" cy="270.19847" cx="277.98542" stroke-linecap="null" stroke-linejoin="null" stroke-dasharray="null" stroke-width="2" fill="none"/>
  <path stroke="#ef7373" transform="rotate(5.2367262840271 279.28256225585795,267.1962280273441) " id="svg_244" d="m278.31366,268.59024c0,0 1.48198,-0.99802 1.83068,-2.20616c0.3487,-1.20814 -0.26153,-0.21011 -0.30511,0.10506c-0.04359,0.31517 -1.52557,2.1011 -1.52557,2.1011z" stroke-linecap="null" stroke-linejoin="null" stroke-dasharray="null" stroke-width="0" fill="#fcc694"/>
  <path stroke="#d4aaff" transform="rotate(62.32984161376953 279.0333251953125,265.8628234863281) " id="svg_225" d="m277.38136,267.63513l0,-3.54463l3.30389,3.54463l-3.30389,0z" stroke-linecap="null" stroke-linejoin="null" stroke-dasharray="null" stroke-width="0" fill="#ffd4aa"/>
  <ellipse stroke="#d4aaff" transform="rotate(37.93192672729492 279.1311950683595,266.67947387695307) " id="svg_237" fill="#ffd4aa" stroke-width="0" stroke-dasharray="null" stroke-linejoin="null" stroke-linecap="null" cx="279.13117" cy="266.67946" rx="0.61378" ry="1.42656"/>
  <rect stroke="#d4aaff" id="svg_239" height="0.97406" width="1.06908" y="265.00561" x="278.75947" stroke-linecap="null" stroke-linejoin="null" stroke-dasharray="null" stroke-width="0" fill="#ffd4aa"/>
  <ellipse stroke="#8e088e" transform="rotate(28.6865291595459 277.3015747070313,266.2664184570312) " ry="0.84588" rx="1.04417" id="svg_249" cy="266.26642" cx="277.3016" stroke-linecap="null" stroke-linejoin="null" stroke-dasharray="null" stroke-width="0" fill="#fc3ffc"/>
  <path id="svg_242" d="m278.33185,268.16267c0,0 1.43599,-0.80246 1.77387,-1.77387c0.33788,-0.97141 -0.25341,-0.16894 -0.29564,0.08447c-0.04224,0.25341 -1.47823,1.6894 -1.47823,1.6894z" stroke-linecap="null" stroke-linejoin="null" stroke-dasharray="null" stroke-width="0" stroke="#ef7373" fill="#ffd4aa"/>
  <path id="svg_245" stroke="#ef7373" transform="rotate(6.234584808349609 279.8765258789055,268.5028686523438) " d="m278.90759,269.89689c0,0 1.48198,-0.99802 1.83068,-2.20616c0.3487,-1.20814 -0.26153,-0.21011 -0.30511,0.10506c-0.04359,0.31516 -1.52557,2.1011 -1.52557,2.1011z" stroke-linecap="null" stroke-linejoin="null" stroke-dasharray="null" stroke-width="0" fill="#fcc694"/>
  <rect stroke="#000000" transform="rotate(-41.93450927734375 279.7086486816408,267.86328125000006) " id="svg_246" height="0.9219" width="2.907" y="267.40234" x="278.25514" stroke-linecap="null" stroke-linejoin="null" stroke-dasharray="null" stroke-width="0" fill="#fcc694"/>
  <rect stroke="#000000" id="svg_247" transform="rotate(-148.1436309814453 280.2478942871094,266.80560302734375) " height="0.92976" width="0.40237" y="266.34074" x="280.04673" stroke-linecap="null" stroke-linejoin="null" stroke-dasharray="null" stroke-width="0" fill="#fcc694"/>
  <rect stroke="#000000" id="svg_248" transform="rotate(-136.1361083984375 279.68798828125,268.5113525390625) " height="2.56067" width="0.51087" y="267.23103" x="279.43256" stroke-linecap="null" stroke-linejoin="null" stroke-dasharray="null" stroke-width="0" fill="#fcc694"/>
  <path stroke="#f9f2f2" id="svg_250" d="m266.92502,134.62248l0.16322,-0.20183l0,0.10092l0.06543,0l0,-0.16139l0.1305,0l0,-0.08092l-0.0816,0l0.16321,-0.20184l0.16322,0.20184l-0.08161,0l0,0.08092l0.1305,0l0,0.16139l0.06544,0l0,-0.10092l0.16321,0.20183l-0.16321,0.20184l0,-0.10092l-0.06544,0l0,0.16138l-0.1305,0l0,0.08092l0.08161,0l-0.16322,0.20184l-0.16321,-0.20184l0.0816,0l0,-0.08092l-0.1305,0l0,-0.16138l-0.06543,0l0,0.10092l-0.16322,-0.20184z" opacity="0.5" stroke-linecap="null" stroke-linejoin="null" stroke-dasharray="null" stroke-width="0.2" fill="#ffffff"/>
  <path stroke="#f9f2f2" id="svg_251" d="m185.07614,146.1944l0.20839,0.20458l0,-0.10229l0.08352,0l0,0.16359l0.16663,0l0,0.08202l-0.10418,0l0.20837,0.20459l0.20838,-0.20459l-0.10419,0l0,-0.08202l0.16662,0l0,-0.16359l0.08356,0l0,0.10229l0.20837,-0.20458l-0.20837,-0.20459l0,0.10229l-0.08356,0l0,-0.16358l-0.16662,0l0,-0.08202l0.10419,0l-0.20838,-0.20459l-0.20837,0.20459l0.10418,0l0,0.08202l-0.16663,0l0,0.16358l-0.08352,0l0,-0.10229l-0.20839,0.20459z" opacity="0.8" stroke-linecap="null" stroke-linejoin="null" stroke-dasharray="null" stroke-width="0.2" fill="#ffffff"/>
  <path stroke="#f9f2f2" id="svg_252" d="m190.26683,305.73454l0.22262,-0.38572l0,0.19287l0.08923,0l0,-0.30843l0.17799,0l0,-0.15465l-0.11128,0l0.2226,-0.38573l0.22262,0.38573l-0.11131,0l0,0.15465l0.17799,0l0,0.30843l0.08926,0l0,-0.19287l0.2226,0.38572l-0.2226,0.38573l0,-0.19287l-0.08926,0l0,0.30841l-0.17799,0l0,0.15465l0.11131,0l-0.22262,0.38573l-0.2226,-0.38573l0.11128,0l0,-0.15465l-0.17799,0l0,-0.30841l-0.08923,0l0,0.19287l-0.22262,-0.38573z" opacity="0.5" stroke-linecap="null" stroke-linejoin="null" stroke-dasharray="null" stroke-width="0.2" fill="#ffffff"/>
  <path stroke="#f9f2f2" id="svg_253" d="m200.39183,332.07535l0.3105,-0.29785l0,0.14893l0.12446,0l0,-0.23817l0.24825,0l0,-0.11942l-0.15521,0l0.31046,-0.29786l0.3105,0.29786l-0.15525,0l0,0.11942l0.24825,0l0,0.23817l0.12449,0l0,-0.14893l0.31046,0.29785l-0.31046,0.29786l0,-0.14893l-0.12449,0l0,0.23815l-0.24825,0l0,0.11942l0.15525,0l-0.3105,0.29786l-0.31046,-0.29786l0.15521,0l0,-0.11942l-0.24825,0l0,-0.23815l-0.12446,0l0,0.14893l-0.3105,-0.29786z" opacity="0.45" stroke-linecap="null" stroke-linejoin="null" stroke-dasharray="null" stroke-width="0.2" fill="#ffffaa"/>
  <path stroke="#f9f2f2" id="svg_254" d="m184.57153,278.20719l-0.26072,-0.38572l0,0.19287l-0.1045,0l0,-0.30843l-0.20845,0l0,-0.15465l0.13032,0l-0.26068,-0.38573l-0.26071,0.38573l0.13036,0l0,0.15465l-0.20845,0l0,0.30843l-0.10453,0l0,-0.19287l-0.26069,0.38572l0.26069,0.38573l0,-0.19286l0.10453,0l0,0.30841l0.20845,0l0,0.15465l-0.13036,0l0.26071,0.38573l0.26068,-0.38573l-0.13032,0l0,-0.15465l0.20845,0l0,-0.30841l0.1045,0l0,0.19286l0.26072,-0.38573z" opacity="0.3" stroke-linecap="null" stroke-linejoin="null" stroke-dasharray="null" stroke-width="0.2" fill="#ffffff"/>
  <path id="svg_255" stroke="#f9f2f2" d="m297.94383,299.50529l0.22262,-0.38572l0,0.19286l0.08924,0l0,-0.30843l0.17799,0l0,-0.15465l-0.11129,0l0.2226,-0.38573l0.22262,0.38573l-0.11131,0l0,0.15465l0.17799,0l0,0.30843l0.08926,0l0,-0.19286l0.2226,0.38572l-0.2226,0.38573l0,-0.19287l-0.08926,0l0,0.30841l-0.17799,0l0,0.15465l0.11131,0l-0.22262,0.38573l-0.2226,-0.38573l0.11129,0l0,-0.15465l-0.17799,0l0,-0.30841l-0.08924,0l0,0.19287l-0.22262,-0.38573z" opacity="0.5" stroke-linecap="null" stroke-linejoin="null" stroke-dasharray="null" stroke-width="0.2" fill="#ffffff"/>
  <path id="svg_256" stroke="#f9f2f2" d="m284.57567,321.7526l0.3105,-0.29785l0,0.14893l0.12446,0l0,-0.23816l0.24825,0l0,-0.11942l-0.15521,0l0.31046,-0.29785l0.3105,0.29785l-0.15525,0l0,0.11942l0.24825,0l0,0.23816l0.1245,0l0,-0.14893l0.31046,0.29785l-0.31046,0.29786l0,-0.14893l-0.1245,0l0,0.23815l-0.24825,0l0,0.11942l0.15525,0l-0.3105,0.29785l-0.31046,-0.29785l0.15521,0l0,-0.11942l-0.24825,0l0,-0.23815l-0.12446,0l0,0.14893l-0.3105,-0.29786z" opacity="0.45" stroke-linecap="null" stroke-linejoin="null" stroke-dasharray="null" stroke-width="0.2" fill="#ffffaa"/>
  <path id="svg_257" stroke="#f9f2f2" d="m285.30737,303.12418l-0.26072,-0.38572l0,0.19287l-0.1045,0l0,-0.30843l-0.20845,0l0,-0.15465l0.13032,0l-0.26067,-0.38573l-0.26072,0.38573l0.13036,0l0,0.15465l-0.20845,0l0,0.30843l-0.10453,0l0,-0.19287l-0.26069,0.38572l0.26069,0.38573l0,-0.19286l0.10453,0l0,0.30841l0.20845,0l0,0.15465l-0.13036,0l0.26072,0.38573l0.26067,-0.38573l-0.13032,0l0,-0.15465l0.20845,0l0,-0.30841l0.1045,0l0,0.19286l0.26072,-0.38573z" opacity="0.3" stroke-linecap="null" stroke-linejoin="null" stroke-dasharray="null" stroke-width="0.2" fill="#ffffff"/>
  <path id="svg_258" stroke="#f9f2f2" d="m246.84422,323.88834l0.3105,-0.29785l0,0.14893l0.12446,0l0,-0.23816l0.24825,0l0,-0.11942l-0.15521,0l0.31046,-0.29785l0.3105,0.29785l-0.15525,0l0,0.11942l0.24825,0l0,0.23816l0.1245,0l0,-0.14893l0.31046,0.29785l-0.31046,0.29786l0,-0.14893l-0.1245,0l0,0.23815l-0.24825,0l0,0.11942l0.15525,0l-0.3105,0.29785l-0.31046,-0.29785l0.15521,0l0,-0.11942l-0.24825,0l0,-0.23815l-0.12446,0l0,0.14893l-0.3105,-0.29786z" opacity="0.45" stroke-linecap="null" stroke-linejoin="null" stroke-dasharray="null" stroke-width="0.2" fill="#ffffaa"/>
  <ellipse stroke="#000000" transform="rotate(14.21713638305664 278.5130615234372,271.9192504882812) " ry="2.03248" rx="0.43517" id="svg_259" cy="271.91927" cx="278.51305" opacity="0.3" stroke-linecap="null" stroke-linejoin="null" stroke-dasharray="null" stroke-width="0" fill="#8116fc"/>
  <ellipse stroke="#d4aaff" transform="rotate(12.069290161132812 278.1855773925784,271.8527832031251) " id="svg_260" fill="#ffd4aa" stroke-width="0" stroke-dasharray="null" stroke-linejoin="null" stroke-linecap="null" cx="278.18557" cy="271.85279" rx="0.55461" ry="1.73772"/>
  <path stroke="#d4aaff" transform="rotate(-176.56565856933594 278.7441711425782,270.6067504882813) " id="svg_261" d="m278.61474,271.19264l0,-1.17175l0.25888,1.17175l-0.25888,0z" stroke-linecap="null" stroke-linejoin="null" stroke-dasharray="null" stroke-width="0" fill="#ffd4aa"/>
  <ellipse id="svg_262" stroke="#8e088e" transform="rotate(28.6865291595459 277.12652587890614,266.6572570800782) " ry="1.04815" rx="1.06888" cy="266.65727" cx="277.12653" stroke-linecap="null" stroke-linejoin="null" stroke-dasharray="null" stroke-width="0" fill="#dd75dd"/>
 </g>
</svg>
