<svg width="640" height="479.9999999999999" xmlns="http://www.w3.org/2000/svg" xmlns:svg="http://www.w3.org/2000/svg">
 <!-- Created with SVG-edit - http://svg-edit.googlecode.com/ -->
 <defs>
  <filter height="200%" width="200%" y="-50%" x="-50%" id="svg_50_blur">
   <feGaussianBlur stdDeviation="10"/>
  </filter>
  <filter height="200%" width="200%" y="-50%" x="-50%" id="svg_100_blur">
   <feGaussianBlur stdDeviation="3.1"/>
  </filter>
  <linearGradient id="svg_59">
   <stop offset="0.03906" stop-opacity="0" stop-color="0"/>
   <stop offset="0.03906" stop-opacity="0" stop-color="0"/>
   <stop offset="0.92505" stop-color="#ff0000"/>
  </linearGradient>
 </defs>
 <g stroke="null">
  <title>Layer 1</title>
  <rect stroke="#000000" id="svg_30" height="275.66667" width="645.00008" y="66.25" x="-2.75007" stroke-linecap="null" stroke-linejoin="null" stroke-dasharray="null" stroke-width="0" fill="#00ffff"/>
  <rect stroke="#000000" id="svg_1" height="89.29167" width="635.06251" y="260.39584" x="5.68745" stroke-width="0" fill="#f29d9d"/>
  <rect stroke="#000000" id="svg_2" height="98.10417" width="4.49999" y="260.58334" x="110.93745" stroke-linecap="null" stroke-linejoin="null" stroke-dasharray="null" stroke-width="0" fill="#00ffff"/>
  <rect stroke="#000000" id="svg_3" height="92.77083" width="5.83333" y="270.97917" x="123.87495" stroke-linecap="null" stroke-linejoin="null" stroke-dasharray="null" stroke-width="0" fill="#00ffff"/>
  <rect stroke="#000000" id="svg_4" height="91.4375" width="4.49999" y="270.0625" x="137.37495" stroke-linecap="null" stroke-linejoin="null" stroke-dasharray="null" stroke-width="0" fill="#00ffff"/>
  <rect stroke="#000000" id="svg_5" height="90.10417" width="4.49999" y="271.95834" x="451.24995" stroke-linecap="null" stroke-linejoin="null" stroke-dasharray="null" stroke-width="0" fill="#00ffff"/>
  <rect stroke="#000000" id="svg_6" height="104.10417" width="2.49999" y="263.58334" x="438.87495" stroke-linecap="null" stroke-linejoin="null" stroke-dasharray="null" stroke-width="0" fill="#00ffff"/>
  <rect stroke="#000000" id="svg_7" height="94.10417" width="6.16666" y="271.33334" x="407.39577" stroke-linecap="null" stroke-linejoin="null" stroke-dasharray="null" stroke-width="0" fill="#00ffff"/>
  <rect stroke="#000000" id="svg_9" height="104.77084" width="4.49999" y="258.97917" x="149.74995" stroke-linecap="null" stroke-linejoin="null" stroke-dasharray="null" stroke-width="0" fill="#00ffff"/>
  <rect stroke="#000000" id="svg_10" height="104.77084" width="4.49999" y="261.22917" x="163.81245" stroke-linecap="null" stroke-linejoin="null" stroke-dasharray="null" stroke-width="0" fill="#00ffff"/>
  <rect stroke="#000000" id="svg_11" height="115.4375" width="4.49999" y="252.81251" x="176.74995" stroke-linecap="null" stroke-linejoin="null" stroke-dasharray="null" stroke-width="0" fill="#00ffff"/>
  <circle stroke="#000000" id="svg_12" r="65.4794" cy="214.60418" cx="314.98954" stroke-linecap="null" stroke-linejoin="null" stroke-dasharray="null" stroke-width="0" fill="#00ffff"/>
  <rect stroke="#000000" id="svg_13" height="100.77084" width="4.49999" y="260.16667" x="191.93745" stroke-linecap="null" stroke-linejoin="null" stroke-dasharray="null" stroke-width="0" fill="#00ffff"/>
  <rect stroke="#000000" id="svg_14" height="106.10417" width="0.5" y="252.58334" x="176.81245" stroke-linecap="null" stroke-linejoin="null" stroke-dasharray="null" stroke-width="0" fill="#00ffff"/>
  <rect stroke="#000000" id="svg_15" height="90.10417" width="4.49999" y="273.08334" x="226.24995" stroke-linecap="null" stroke-linejoin="null" stroke-dasharray="null" stroke-width="0" fill="#00ffff"/>
  <rect stroke="#000000" id="svg_16" height="96.77083" width="6.16666" y="271.47917" x="239.77081" stroke-linecap="null" stroke-linejoin="null" stroke-dasharray="null" stroke-width="0" fill="#00ffff"/>
  <rect stroke="#000000" id="svg_17" height="102.10417" width="2.16666" y="262.77084" x="266.83327" stroke-linecap="null" stroke-linejoin="null" stroke-dasharray="null" stroke-width="0" fill="#00ffff"/>
  <rect stroke="#000000" id="svg_18" height="106.10417" width="1.83333" y="262.20834" x="289.95828" stroke-linecap="null" stroke-linejoin="null" stroke-dasharray="null" stroke-width="0" fill="#00ffff"/>
  <rect stroke="#000000" id="svg_19" height="103.4375" width="4.49999" y="265.37501" x="323.56245" stroke-linecap="null" stroke-linejoin="null" stroke-dasharray="null" stroke-width="0" fill="#00ffff"/>
  <rect stroke="#000000" id="svg_20" height="97.77084" width="5.49999" y="264.85417" x="360.68745" stroke-linecap="null" stroke-linejoin="null" stroke-dasharray="null" stroke-width="0" fill="#00ffff"/>
  <rect stroke="#000000" id="svg_21" height="90.10417" width="4.49999" y="273.08334" x="385.99995" stroke-linecap="null" stroke-linejoin="null" stroke-dasharray="null" stroke-width="0" fill="#00ffff"/>
  <circle stroke="#000000" id="svg_24" r="65.4794" cy="221.93752" cx="223.32287" stroke-linecap="null" stroke-linejoin="null" stroke-dasharray="null" stroke-width="0" fill="#00ffff"/>
  <circle stroke="#000000" id="svg_26" r="65.47942" cy="215.77084" cx="133.48954" stroke-linecap="null" stroke-linejoin="null" stroke-dasharray="null" stroke-width="0" fill="#00ffff"/>
  <circle stroke="#000000" id="svg_27" r="65.4794" cy="219.27085" cx="403.48954" stroke-linecap="null" stroke-linejoin="null" stroke-dasharray="null" stroke-width="0" fill="#00ffff"/>
  <rect stroke="#000000" id="svg_33" height="120.77084" width="5.83332" y="261.29167" x="457.91662" stroke-linecap="null" stroke-linejoin="null" stroke-dasharray="null" stroke-width="0" fill="#00ffff"/>
  <rect stroke="#000000" id="svg_34" height="135.4375" width="4.49999" y="266.62501" x="491.24995" stroke-linecap="null" stroke-linejoin="null" stroke-dasharray="null" stroke-width="0" fill="#00ffff"/>
  <rect stroke="#000000" id="svg_35" height="139.4375" width="3.16666" y="282.62501" x="511.24994" stroke-linecap="null" stroke-linejoin="null" stroke-dasharray="null" stroke-width="0" fill="#00ffff"/>
  <rect stroke="#000000" id="svg_36" height="89.43751" width="2.83333" y="270.62501" x="531.24994" stroke-linecap="null" stroke-linejoin="null" stroke-dasharray="null" stroke-width="0" fill="#00ffff"/>
  <rect stroke="#000000" id="svg_37" height="97.43751" width="2.83333" y="268.62501" x="554.24994" stroke-linecap="null" stroke-linejoin="null" stroke-dasharray="null" stroke-width="0" fill="#00ffff"/>
  <rect stroke="#000000" id="svg_38" height="101.43751" width="4.16666" y="274.62502" x="581.24995" stroke-linecap="null" stroke-linejoin="null" stroke-dasharray="null" stroke-width="0" fill="#00ffff"/>
  <rect stroke="#000000" id="svg_39" height="104.10418" width="4.16666" y="275.95835" x="601.24995" stroke-linecap="null" stroke-linejoin="null" stroke-dasharray="null" stroke-width="0" fill="#00ffff"/>
  <rect stroke="#000000" id="svg_40" height="81.77085" width="4.49999" y="274.29168" x="623.24995" stroke-linecap="null" stroke-linejoin="null" stroke-dasharray="null" stroke-width="0" fill="#00ffff"/>
  <rect stroke="#000000" id="svg_41" height="129.10417" width="4.49999" y="257.91668" x="17.93745" stroke-linecap="null" stroke-linejoin="null" stroke-dasharray="null" stroke-width="0" fill="#00ffff"/>
  <rect stroke="#000000" id="svg_42" height="222.4375" width="4.49999" y="141.72463" x="36.93745" stroke-linecap="null" stroke-linejoin="null" stroke-dasharray="null" stroke-width="0" fill="#00ffff"/>
  <rect stroke="#000000" id="svg_43" height="222.4375" width="4.49999" y="135.25002" x="55.93745" stroke-linecap="null" stroke-linejoin="null" stroke-dasharray="null" stroke-width="0" fill="#00ffff"/>
  <rect stroke="#000000" id="svg_44" height="222.4375" width="4.49999" y="131.25002" x="75.93745" stroke-linecap="null" stroke-linejoin="null" stroke-dasharray="null" stroke-width="0" fill="#00ffff"/>
  <rect stroke="#000000" id="svg_45" height="122.43749" width="4.49999" y="242.25002" x="95.93745" stroke-linecap="null" stroke-linejoin="null" stroke-dasharray="null" stroke-width="0" fill="#00ffff"/>
  <circle stroke="#000000" id="svg_46" r="65.47942" cy="220.43751" cx="38.6562" stroke-linecap="null" stroke-linejoin="null" stroke-dasharray="null" stroke-width="0" fill="#00ffff"/>
  <circle stroke="#000000" id="svg_47" r="65.4794" cy="225.60419" cx="496.98954" stroke-linecap="null" stroke-linejoin="null" stroke-dasharray="null" stroke-width="0" fill="#00ffff"/>
  <circle stroke="#000000" id="svg_48" r="65.4794" cy="233.27085" cx="599.98954" stroke-linecap="null" stroke-linejoin="null" stroke-dasharray="null" stroke-width="0" fill="#00ffff"/>
  <rect stroke="#000000" id="svg_51" height="102.90659" width="4.49999" y="245.25" x="210.60411" stroke-linecap="null" stroke-linejoin="null" stroke-dasharray="null" stroke-width="0" fill="#00ffff"/>
  <rect stroke="#000000" id="svg_52" height="96.77083" width="6.16666" y="264.81251" x="251.77081" stroke-linecap="null" stroke-linejoin="null" stroke-dasharray="null" stroke-width="0" fill="#00ffff"/>
  <rect stroke="#000000" id="svg_53" height="96.77083" width="6.16666" y="266.14584" x="303.77081" stroke-linecap="null" stroke-linejoin="null" stroke-dasharray="null" stroke-width="0" fill="#00ffff"/>
  <rect stroke="#000000" id="svg_49" height="146" width="642" y="348.15625" x="10.71387" stroke-linecap="null" stroke-linejoin="null" stroke-dasharray="null" stroke-width="0" fill="#49f449"/>
  <rect stroke="#000000" height="97.77084" width="5.49999" y="268.85417" x="340.68745" stroke-linecap="null" stroke-linejoin="null" stroke-dasharray="null" stroke-width="0" fill="#00ffff" id="svg_8"/>
  <rect stroke="#000000" height="104.10417" width="2.49999" y="264.58334" x="423.87495" stroke-linecap="null" stroke-linejoin="null" stroke-dasharray="null" stroke-width="0" fill="#00ffff" id="svg_22"/>
  <rect stroke="#000000" height="90.10417" width="3.49999" y="265.95834" x="545.24995" stroke-linecap="null" stroke-linejoin="null" stroke-dasharray="null" stroke-width="0" fill="#00ffff" id="svg_25"/>
  <rect stroke="#000000" height="59.10416" width="3.49999" y="284.95834" x="568.24995" stroke-linecap="null" stroke-linejoin="null" stroke-dasharray="null" stroke-width="0" fill="#00ffff" id="svg_28"/>
  <rect stroke="#000000" height="59.10416" width="3.49999" y="292.95834" x="612.24995" stroke-linecap="null" stroke-linejoin="null" stroke-dasharray="null" stroke-width="0" fill="#00ffff" id="svg_29"/>
  <rect stroke="#000000" fill="#ffaaaa" stroke-width="0" stroke-dasharray="null" stroke-linejoin="null" stroke-linecap="null" x="13.25004" y="303" width="615.74999" height="4.5" id="svg_54"/>
  <rect stroke="#000000" fill="#ffaaaa" stroke-width="0" stroke-dasharray="null" stroke-linejoin="null" stroke-linecap="null" x="17.75004" y="329.25" width="613.49999" height="3.75" id="svg_55"/>
  <rect stroke="#000000" id="svg_222" transform="rotate(-13.614175796508789 602.5315551757811,407.893798828125) " height="51.82026" width="6.22223" y="381.98367" x="599.42045" stroke-linecap="null" stroke-linejoin="null" stroke-dasharray="null" stroke-width="0" fill="#000000"/>
  <path stroke="#000000" fill="#007f00" stroke-width="0" stroke-dasharray="null" stroke-linejoin="null" stroke-linecap="null" d="m62.80539,383.08909c116.71847,48.62419 238.74232,63.43937 477.48464,71.0369c238.74232,7.59753 53.05385,-11.39629 -37.13769,-22.03283c-90.19155,-10.63655 -249.35309,-20.13346 -244.04771,-33.80901c5.30539,-13.67556 74.27539,-20.89321 -26.52692,-23.55235c-100.80232,-2.65913 -238.74232,-15.95481 -244.04771,-2.65913c-5.30538,13.29568 74.27539,11.01642 74.27539,11.01642z" id="svg_79"/>
  <path stroke="#000000" fill="#ffff00" stroke-width="0" stroke-dasharray="null" stroke-linejoin="null" stroke-linecap="null" d="m57.55539,383.83909c116.71847,48.62419 238.74232,63.43938 477.48464,71.03691c238.74232,7.59753 53.05385,-11.3963 -37.13769,-22.03284c-90.19154,-10.63654 -249.35309,-20.13345 -244.04771,-33.80901c5.30538,-13.67555 74.27539,-20.89321 -26.52692,-23.55234c-100.80231,-2.65914 -238.74232,-15.95481 -244.04771,-2.65914c-5.30538,13.29568 74.27539,11.01642 74.27539,11.01642z" id="svg_77"/>
  <rect stroke="#000000" filter="url(#svg_50_blur)" fill="#ffffff" stroke-width="0" stroke-dasharray="null" stroke-linejoin="null" stroke-linecap="null" x="630.25" y="-1.00003" width="48" height="499.00002" id="svg_50"/>
  <path stroke="#000000" fill="#05aa05" stroke-width="0" stroke-dasharray="null" stroke-linejoin="null" stroke-linecap="null" d="m35.4784,392.33824c97.41354,47.1773 199.25497,61.55164 398.50995,68.92309c199.25498,7.37146 44.27889,-11.05718 -30.99521,-21.37721c-75.2741,-10.32004 -208.11075,-19.53436 -203.68287,-32.80298c4.42789,-13.26861 61.99044,-20.27149 -22.13945,-22.8515c-84.12987,-2.58001 -199.25497,-15.48006 -203.68286,-2.58001c-4.42789,12.90004 61.99044,10.68861 61.99044,10.68861z" id="svg_80"/>
  <path stroke="#000000" fill="#00ff00" stroke-width="0" stroke-dasharray="null" stroke-linejoin="null" stroke-linecap="null" d="m33.2284,395.33824c97.41355,47.1773 199.25498,61.55164 398.50996,68.92309c199.25498,7.37146 44.27889,-11.05718 -30.99521,-21.37721c-75.2741,-10.32004 -208.11075,-19.53436 -203.68287,-32.80298c4.42789,-13.26861 61.99044,-20.27149 -22.13945,-22.8515c-84.12988,-2.58001 -199.25498,-15.48006 -203.68286,-2.58001c-4.42789,12.90004 61.99043,10.68861 61.99043,10.68861z" id="svg_78"/>
  <path stroke="#000000" transform="rotate(3.869993209838867 35.56042098999345,351.937530517578) " id="svg_23" d="m35.84373,365.22659c0,0 -4.11328,-26.57813 -4.11328,-26.57813c0,0 6.96094,12.02344 7.59375,15.50391c0.63281,3.48047 -3.48047,11.07422 -3.48047,11.07422z" stroke-linecap="null" stroke-linejoin="null" stroke-dasharray="null" stroke-width="0" fill="#00ff00"/>
  <path stroke="#000000" id="svg_31" d="m33.73436,357.21097c0,0 -4.11328,-14.76563 -4.11328,-14.76563c0,0 6.96094,6.67969 7.59375,8.61328c0.63281,1.93359 -3.48047,6.15234 -3.48047,6.15234l0,0.00001z" stroke-linecap="null" stroke-linejoin="null" stroke-dasharray="null" stroke-width="0" fill="#00ff00"/>
  <path stroke="#000000" transform="rotate(35.48173522949219 36.03502655029315,354.04690551757807) " id="svg_56" d="m36.31834,367.33596c0,0 -4.11328,-26.57813 -4.11328,-26.57813c0,0 6.96094,12.02344 7.59375,15.50391c0.63281,3.48047 -3.48047,11.07422 -3.48047,11.07422z" stroke-linecap="null" stroke-linejoin="null" stroke-dasharray="null" stroke-width="0" fill="#00ff00"/>
  <path stroke="#000000" transform="rotate(40.65438461303711 33.688346862792955,352.5439758300781) " id="svg_57" d="m33.97166,365.83304c0,0 -4.11328,-26.57813 -4.11328,-26.57813c0,0 6.96094,12.02344 7.59375,15.50391c0.63281,3.48047 -3.48047,11.07422 -3.48047,11.07422z" stroke-linecap="null" stroke-linejoin="null" stroke-dasharray="null" stroke-width="0" fill="#00ff00"/>
  <path stroke="#000000" id="svg_81" transform="rotate(3.869993209838867 423.36901855468983,356.36721801757835) " d="m423.65232,369.65628c0,0 -4.11328,-26.57813 -4.11328,-26.57813c0,0 6.96094,12.02344 7.59375,15.50391c0.63281,3.48047 -3.48047,11.07422 -3.48047,11.07422z" stroke-linecap="null" stroke-linejoin="null" stroke-dasharray="null" stroke-width="0" fill="#00ff00"/>
  <path stroke="#000000" id="svg_82" d="m337.06249,393.28128c0,0 -4.11328,-14.76563 -4.11328,-14.76563c0,0 6.96093,6.67969 7.59374,8.61328c0.63281,1.9336 -3.48046,6.15235 -3.48046,6.15235z" stroke-linecap="null" stroke-linejoin="null" stroke-dasharray="null" stroke-width="0" fill="#00ff00"/>
  <path stroke="#000000" id="svg_83" transform="rotate(40.65438461303711 426.2430419921875,353.8096008300781) " d="m426.52635,367.09866c0,0 -4.11328,-26.57813 -4.11328,-26.57813c0,0 6.96094,12.02344 7.59375,15.50391c0.63281,3.48047 -3.48047,11.07422 -3.48047,11.07422z" stroke-linecap="null" stroke-linejoin="null" stroke-dasharray="null" stroke-width="0" fill="#00ff00"/>
  <path stroke="#000000" id="svg_84" transform="rotate(3.869993209838867 428.32604980468835,350.9883117675779) " d="m428.60936,364.27737c0,0 -4.11328,-26.57813 -4.11328,-26.57813c0,0 6.96094,12.02344 7.59375,15.50391c0.63281,3.48047 -3.48047,11.07422 -3.48047,11.07422z" stroke-linecap="null" stroke-linejoin="null" stroke-dasharray="null" stroke-width="0" fill="#00ff00"/>
  <path stroke="#000000" id="svg_85" d="m424.91796,354.67972c0,0 -4.11328,-14.76563 -4.11328,-14.76563c0,0 6.96093,6.67969 7.59374,8.61328c0.63281,1.9336 -3.48046,6.15235 -3.48046,6.15235z" stroke-linecap="null" stroke-linejoin="null" stroke-dasharray="null" stroke-width="0" fill="#00ff00"/>
  <path stroke="#000000" id="svg_86" transform="rotate(40.65438461303711 424.8719482421875,350.0127258300781) " d="m425.15526,363.30179c0,0 -4.11328,-26.57813 -4.11328,-26.57813c0,0 6.96094,12.02344 7.59375,15.50391c0.63281,3.48047 -3.48047,11.07422 -3.48047,11.07422z" stroke-linecap="null" stroke-linejoin="null" stroke-dasharray="null" stroke-width="0" fill="#00ff00"/>
  <path stroke="#000000" id="svg_87" transform="rotate(3.869993209838867 213.0379638671905,424.15725708007824) " d="m213.32127,437.44632c0,0 -4.11328,-26.57813 -4.11328,-26.57813c0,0 6.96094,12.02344 7.59375,15.50391c0.63281,3.48047 -3.48047,11.07422 -3.48047,11.07422z" stroke-linecap="null" stroke-linejoin="null" stroke-dasharray="null" stroke-width="0" fill="#00ff00"/>
  <path stroke="#000000" id="svg_88" d="m210.49999,426.34574c0,0 -4.11328,-14.76563 -4.11328,-14.76563c0,0 6.96093,6.67969 7.59374,8.61328c0.63281,1.9336 -3.48046,6.15235 -3.48046,6.15235z" stroke-linecap="null" stroke-linejoin="null" stroke-dasharray="null" stroke-width="0" fill="#00ff00"/>
  <path stroke="#000000" id="svg_89" transform="rotate(40.65438461303711 209.74206542968767,422.8652648925782) " d="m210.02537,436.15433c0,0 -4.11328,-26.57813 -4.11328,-26.57813c0,0 6.96094,12.02344 7.59375,15.50391c0.63281,3.48047 -3.48047,11.07422 -3.48047,11.07422z" stroke-linecap="null" stroke-linejoin="null" stroke-dasharray="null" stroke-width="0" fill="#00ff00"/>
  <path stroke="#000000" id="svg_90" transform="rotate(41.98979949951172 211.61413574218747,424.39456176757807) " d="m211.89744,437.68362c0,0 -4.11328,-26.57813 -4.11328,-26.57813c0,0 6.96094,12.02344 7.59375,15.50391c0.63281,3.48047 -3.48047,11.07422 -3.48047,11.07422z" stroke-linecap="null" stroke-linejoin="null" stroke-dasharray="null" stroke-width="0" fill="#00ff00"/>
  <ellipse stroke="#000000" ry="57" rx="58" id="svg_91" cy="144.22222" cx="102.44444" stroke-linecap="null" stroke-linejoin="null" stroke-dasharray="null" stroke-width="0" fill="#ffffaa" opacity="0.5"/>
  <rect stroke="#000000" fill="#bfbfbf" stroke-dasharray="null" stroke-linejoin="null" stroke-linecap="null" x="92.81877" y="394.72304" width="2.67287" height="43.27462" id="svg_61" transform="rotate(21.399810791015625 94.15521240234357,416.3603515625) "/>
  <ellipse stroke="#000000" fill="#000000" stroke-width="0" cx="82.52789" cy="442.37937" rx="11.3672" ry="10.51563" id="svg_62"/>
  <ellipse stroke="#000000" fill="#ffffff" stroke-width="0" cx="82.31695" cy="442.5903" rx="8.57813" ry="7.57031" id="svg_63"/>
  <ellipse stroke="#000000" fill="#000000" stroke-width="0" cx="82.1607" cy="442.87937" rx="6.57814" ry="6.17187" id="svg_64"/>
  <ellipse stroke="#000000" fill="#000000" stroke-width="0" cx="120.2857" cy="428.66843" rx="9.04688" ry="8.19531" id="svg_66"/>
  <rect stroke="#000000" fill="#bfbfbf" stroke-dasharray="null" stroke-linejoin="null" stroke-linecap="null" x="118.5346" y="400.31853" width="2.67287" height="29.16684" transform="rotate(179.10491943359375 119.87103271484375,414.9019470214844) " id="svg_65"/>
  <rect stroke="#000000" fill="#bfbfbf" stroke-dasharray="null" stroke-linejoin="null" stroke-linecap="null" x="145.8147" y="386.65118" width="2.70383" height="68.27748" transform="rotate(154.0298614501953 147.1666107177734,420.7899169921875) " id="svg_67"/>
  <rect stroke="#000000" filter="url(#svg_100_blur)" opacity="0.15" id="svg_100" height="14.29166" width="619.31254" y="346.64584" x="10.18744" stroke-width="0" fill="#3f3f3f"/>
  <ellipse stroke="#000000" fill="#c40303" stroke-width="0" cx="118.89508" cy="366.37937" rx="37.00001" ry="34.51563" id="svg_60"/>
  <rect stroke="#000000" fill="#bfbfbf" stroke-dasharray="null" stroke-linejoin="null" stroke-linecap="null" x="116.44377" y="386.28554" width="2.67287" height="43.27462" transform="rotate(86.74259948730469 117.78019714355477,407.9228515625) " id="svg_68"/>
  <rect stroke="#000000" fill="#bfbfbf" stroke-dasharray="null" stroke-linejoin="null" stroke-linecap="null" x="105.76327" y="394.80254" width="2.67287" height="22.78707" transform="rotate(75.38660430908203 107.09970855712896,406.19604492187494) " id="svg_69"/>
  <rect stroke="#000000" fill="#bfbfbf" stroke-dasharray="null" stroke-linejoin="null" stroke-linecap="null" x="129.27114" y="395.70636" width="1.92271" height="17.74503" transform="rotate(96.74224090576172 130.23248291015634,404.57885742187494) " id="svg_70"/>
  <ellipse stroke="#000000" fill="#ff0000" stroke-dasharray="null" stroke-linejoin="null" stroke-linecap="null" cx="118.67632" cy="363.33251" id="svg_71" rx="37.54688" ry="12.65625"/>
  <ellipse stroke="#000000" fill="#c40303" stroke-width="0" cx="118.68414" cy="361.73874" rx="36.78908" ry="12.15625" id="svg_73"/>
  <rect stroke="#000000" fill="#3f3f3f" stroke-width="0" stroke-dasharray="null" stroke-linejoin="null" stroke-linecap="null" x="110.5607" y="326.26999" width="14.87109" height="3.75355" id="svg_74" transform="rotate(-7.9144978523254395 117.99624633788994,328.1467590332032) "/>
  <rect stroke="#000000" fill="#3f3f3f" stroke-width="0" stroke-dasharray="null" stroke-linejoin="null" stroke-linecap="null" x="119.33256" y="325.03563" width="0.42188" height="2.10938" id="svg_75"/>
  <rect stroke="#000000" fill="#3f3f3f" stroke-width="0" stroke-dasharray="null" stroke-linejoin="null" stroke-linecap="null" x="108.08982" y="329.50137" width="6.9166" height="3.75355" transform="rotate(82.91946411132812 111.54814147949212,331.37814331054693) " id="svg_76"/>
  <rect stroke="#000000" fill="#3f3f3f" stroke-width="0" stroke-dasharray="null" stroke-linejoin="null" stroke-linecap="null" x="121.24508" y="327.56735" width="7.33526" height="3.75355" transform="rotate(82.91946411132812 124.91271972656246,329.4441223144532) " id="svg_92"/>
  <rect stroke="#000000" fill="#bfbfbf" stroke-dasharray="null" stroke-linejoin="null" stroke-linecap="null" x="121.70408" y="407.94051" width="2.18702" height="59.36676" transform="rotate(87.41355895996094 122.79759216308595,437.62390136718744) " id="svg_96"/>
  <rect stroke="#000000" fill="#bfbfbf" stroke-dasharray="null" stroke-linejoin="null" stroke-linecap="null" x="135.40452" y="414.41019" width="2.67287" height="33.30866" transform="rotate(103.7060317993164 136.74095153808597,431.06451416015625) " id="svg_97"/>
  <rect stroke="#000000" fill="#bfbfbf" stroke-dasharray="null" stroke-linejoin="null" stroke-linecap="null" x="101.05639" y="417.25445" width="2.67287" height="28.4748" transform="rotate(74.02615356445312 102.39282989501962,431.49185180664057) " id="svg_98"/>
  <ellipse stroke="#000000" ry="20.33333" rx="22.66667" cy="142.22222" cx="103.11111" stroke-linecap="null" stroke-linejoin="null" stroke-dasharray="null" stroke-width="0" fill="#ffffaa" opacity="0.5" id="svg_109"/>
  <ellipse stroke="#000000" ry="40.33333" rx="43.33333" cy="143.55555" cx="103.77778" stroke-linecap="null" stroke-linejoin="null" stroke-dasharray="null" stroke-width="0" fill="#ffffaa" opacity="0.5" id="svg_110"/>
  <ellipse stroke="#000000" ry="70.99999" rx="74.66667" cy="144.88888" cx="101.77778" stroke-linecap="null" stroke-linejoin="null" stroke-dasharray="null" stroke-width="0" fill="#ffffaa" opacity="0.5" id="svg_111"/>
  <path stroke="#000000" fill="#59f759" stroke-width="0" stroke-dasharray="null" stroke-linejoin="null" stroke-linecap="null" d="m558.21785,341.37877c0,0 -0.30974,5.34683 1.54871,4.33946c1.85845,-1.00737 1.63319,-0.15498 2.67505,-1.00737c1.04186,-0.85239 2.70321,-10.15123 2.56241,-0.23247c-0.14079,9.91876 -1.63319,15.57556 -1.6895,7.05162c-0.05632,-8.52394 3.74507,7.05162 1.40792,-2.55718c-2.33715,-9.6088 -3.5198,-11.15861 -2.36531,-5.19185c1.15449,5.96676 -1.71766,7.51656 -1.23897,2.86714c0.47869,-4.64942 -2.92847,7.36158 -0.42238,3.71954c2.5061,-3.64205 1.3516,-9.37633 0.16895,-7.59405c-1.18265,1.78228 1.52055,6.66417 -0.56317,5.26934c-2.08372,-1.39483 -4.58982,-4.49444 -1.4924,-4.33946c3.09742,0.15498 3.97033,11.70104 4.05481,4.57193c0.08448,-7.12911 -0.70396,-16.0405 -0.02816,-7.12911c0.6758,8.91139 3.06927,14.49069 -0.39422,8.98888c-3.46348,-5.50181 -8.02514,-5.26934 -3.37901,-1.78228c4.64614,3.48707 5.06851,-9.6088 2.92847,-4.95938c-2.14004,4.64942 5.688,18.05525 3.71691,9.68629c-1.97109,-8.36896 -5.63168,-11.00363 -3.12558,-5.03687c2.5061,5.96676 8.92621,3.1771 4.22376,0.92988c-4.70245,-2.24722 -6.67354,9.22135 -4.5335,1.93726c2.14004,-7.28409 -0.02816,-18.21023 0.19711,-8.91139c0.22527,9.29884 6.30748,-4.72691 2.25267,2.01475c-4.05481,6.74166 0.42238,14.25822 0.4047,14.19139c-0.01768,-0.06683 -6.90929,-16.82606 -6.90929,-16.82606l0.00002,-0.00001z" id="svg_136" transform="rotate(20.756986618041992 562.785888671875,347.80706787109375) "/>
  <path stroke="#ff7f00" fill="none" stroke-width="0" stroke-dasharray="null" stroke-linejoin="null" stroke-linecap="null" d="m1,42.34375l7.75195,-41.34375l25.83985,0l7.75195,41.34375l-41.34375,0z" id="svg_137"/>
  <ellipse stroke="#000000" ry="16" rx="39.11112" id="svg_94" cy="453.5679" cx="126.00309" opacity="0.2" stroke-linecap="null" stroke-linejoin="null" stroke-dasharray="null" stroke-width="0" fill="#3f3f3f"/>
  <rect stroke="#000000" id="svg_95" height="2.37035" width="611.55557" y="306.11728" x="11.77471" opacity="0.2" stroke-linecap="null" stroke-linejoin="null" stroke-dasharray="null" stroke-width="0" fill="#ff00ff"/>
  <rect stroke="#000000" id="svg_99" height="2.37035" width="611.55557" y="332.36728" x="18.52471" opacity="0.2" stroke-linecap="null" stroke-linejoin="null" stroke-dasharray="null" stroke-width="0" fill="#ff00ff"/>
  <rect stroke="#000000" transform="rotate(-9.192890167236328 40.812446594237976,357.34378051757807) " id="svg_101" height="8.35418" width="3.74999" y="353.1667" x="38.93745" stroke-linecap="null" stroke-linejoin="null" stroke-dasharray="null" stroke-width="0" fill="#49f449"/>
  <rect stroke="#000000" id="svg_102" transform="rotate(-9.192890167236328 22.812446594236402,358.84378051757795) " height="8.35418" width="3.74999" y="354.6667" x="20.93745" stroke-linecap="null" stroke-linejoin="null" stroke-dasharray="null" stroke-width="0" fill="#49f449"/>
  <rect stroke="#000000" id="svg_103" transform="rotate(-9.192890167236328 59.56244277954077,353.59378051757807) " height="14.51676" width="3.22781" y="346.33542" x="57.94854" stroke-linecap="null" stroke-linejoin="null" stroke-dasharray="null" stroke-width="0" fill="#49f449"/>
  <rect stroke="#000000" id="svg_104" transform="rotate(-9.192890167236328 80.56244659423838,352.8437805175781) " height="8.35418" width="3.74999" y="348.6667" x="78.68745" stroke-linecap="null" stroke-linejoin="null" stroke-dasharray="null" stroke-width="0" fill="#49f449"/>
  <rect stroke="#000000" id="svg_105" transform="rotate(-9.192890167236328 168.31245422363307,354.7188110351563) " height="15.25712" width="3.34763" y="347.09021" x="166.63864" stroke-linecap="null" stroke-linejoin="null" stroke-dasharray="null" stroke-width="0" fill="#49f449"/>
  <rect stroke="#000000" id="svg_106" transform="rotate(-9.192890167236328 181.10998535156276,356.27178955078114) " height="18.33841" width="3.74999" y="347.10259" x="179.23499" stroke-linecap="null" stroke-linejoin="null" stroke-dasharray="null" stroke-width="0" fill="#49f449"/>
  <rect stroke="#000000" id="svg_107" transform="rotate(-16.57061767578125 196.78201293945307,356.0308227539062) " height="19.31842" width="4.06654" y="346.37159" x="194.74874" stroke-linecap="null" stroke-linejoin="null" stroke-dasharray="null" stroke-width="0" fill="#49f449"/>
  <rect stroke="#000000" id="svg_108" transform="rotate(-16.57061767578125 217.0320129394529,356.78082275390614) " height="19.31842" width="4.06654" y="347.12159" x="214.99874" stroke-linecap="null" stroke-linejoin="null" stroke-dasharray="null" stroke-width="0" fill="#49f449"/>
  <rect stroke="#000000" id="svg_112" transform="rotate(-16.57061767578125 232.78201293945307,357.53082275390625) " height="19.31842" width="4.06654" y="347.87159" x="230.74874" stroke-linecap="null" stroke-linejoin="null" stroke-dasharray="null" stroke-width="0" fill="#49f449"/>
  <rect stroke="#000000" id="svg_113" transform="rotate(-16.57061767578125 245.53201293945318,356.78082275390625) " height="19.31842" width="4.06654" y="347.12159" x="243.49874" stroke-linecap="null" stroke-linejoin="null" stroke-dasharray="null" stroke-width="0" fill="#49f449"/>
  <rect stroke="#000000" id="svg_114" transform="rotate(-16.57061767578125 259.0320129394527,356.0308227539062) " height="19.31842" width="4.06654" y="346.37159" x="256.99874" stroke-linecap="null" stroke-linejoin="null" stroke-dasharray="null" stroke-width="0" fill="#49f449"/>
  <rect stroke="#000000" id="svg_115" transform="rotate(-16.57061767578125 271.84301757812517,357.7358093261718) " height="19.31842" width="2.62883" y="348.0766" x="270.52859" stroke-linecap="null" stroke-linejoin="null" stroke-dasharray="null" stroke-width="0" fill="#49f449"/>
  <rect stroke="#000000" id="svg_116" transform="rotate(-16.57061767578125 293.59301757812483,357.73580932617176) " height="19.31842" width="2.62883" y="348.0766" x="292.27859" stroke-linecap="null" stroke-linejoin="null" stroke-dasharray="null" stroke-width="0" fill="#49f449"/>
  <rect stroke="#000000" id="svg_117" transform="rotate(-16.57061767578125 310.0320129394531,356.7808227539062) " height="19.31842" width="4.06654" y="347.12159" x="307.99874" stroke-linecap="null" stroke-linejoin="null" stroke-dasharray="null" stroke-width="0" fill="#49f449"/>
  <rect stroke="#000000" id="svg_118" transform="rotate(-16.57061767578125 329.53201293945284,356.03082275390625) " height="19.31842" width="4.06654" y="346.37159" x="327.49874" stroke-linecap="null" stroke-linejoin="null" stroke-dasharray="null" stroke-width="0" fill="#49f449"/>
  <rect stroke="#000000" id="svg_119" transform="rotate(-16.57061767578125 346.78201293945324,356.7808227539063) " height="19.31842" width="4.06654" y="347.12159" x="344.74874" stroke-linecap="null" stroke-linejoin="null" stroke-dasharray="null" stroke-width="0" fill="#49f449"/>
  <rect stroke="#000000" id="svg_120" transform="rotate(-16.57061767578125 367.0320129394527,357.5308227539062) " height="19.31842" width="4.06654" y="347.87159" x="364.99874" stroke-linecap="null" stroke-linejoin="null" stroke-dasharray="null" stroke-width="0" fill="#49f449"/>
  <rect stroke="#000000" id="svg_121" transform="rotate(-16.57061767578125 391.7820129394532,356.03082275390636) " height="19.31842" width="4.06654" y="346.37159" x="389.74874" stroke-linecap="null" stroke-linejoin="null" stroke-dasharray="null" stroke-width="0" fill="#49f449"/>
  <rect stroke="#000000" id="svg_122" transform="rotate(-16.57061767578125 413.53201293945284,355.2808227539063) " height="19.31842" width="4.06654" y="345.62159" x="411.49874" stroke-linecap="null" stroke-linejoin="null" stroke-dasharray="null" stroke-width="0" fill="#49f449"/>
  <rect stroke="#000000" id="svg_123" transform="rotate(-16.57061767578125 457.53201293945284,357.2808227539065) " height="19.31842" width="4.06654" y="347.62159" x="455.49874" stroke-linecap="null" stroke-linejoin="null" stroke-dasharray="null" stroke-width="0" fill="#49f449"/>
  <rect stroke="#000000" id="svg_124" transform="rotate(-16.57061767578125 477.53201293945284,357.2808227539063) " height="19.31842" width="4.06654" y="347.62159" x="475.49874" stroke-linecap="null" stroke-linejoin="null" stroke-dasharray="null" stroke-width="0" fill="#49f449"/>
  <rect stroke="#000000" id="svg_125" transform="rotate(-16.57061767578125 442.5930175781248,355.7358093261721) " height="19.31842" width="2.62883" y="346.0766" x="441.27859" stroke-linecap="null" stroke-linejoin="null" stroke-dasharray="null" stroke-width="0" fill="#49f449"/>
  <rect stroke="#000000" id="svg_126" transform="rotate(-16.57061767578125 428.59301757812494,355.73580932617176) " height="19.31842" width="2.62883" y="346.0766" x="427.27859" stroke-linecap="null" stroke-linejoin="null" stroke-dasharray="null" stroke-width="0" fill="#49f449"/>
  <rect stroke="#000000" id="svg_127" transform="rotate(-16.57061767578125 496.59301757812494,356.7358093261718) " height="19.31842" width="2.62883" y="347.0766" x="495.27859" stroke-linecap="null" stroke-linejoin="null" stroke-dasharray="null" stroke-width="0" fill="#49f449"/>
  <rect stroke="#000000" id="svg_128" transform="rotate(-16.57061767578125 515.5930175781247,354.7358093261721) " height="19.31842" width="2.62883" y="345.0766" x="514.27859" stroke-linecap="null" stroke-linejoin="null" stroke-dasharray="null" stroke-width="0" fill="#49f449"/>
  <rect stroke="#000000" id="svg_129" transform="rotate(-16.57061767578125 536.5930175781249,356.73580932617193) " height="19.31842" width="2.62883" y="347.0766" x="535.27859" stroke-linecap="null" stroke-linejoin="null" stroke-dasharray="null" stroke-width="0" fill="#49f449"/>
  <rect stroke="#000000" id="svg_130" transform="rotate(-16.57061767578125 551.5930175781247,356.73580932617176) " height="19.31842" width="2.62883" y="347.0766" x="550.27859" stroke-linecap="null" stroke-linejoin="null" stroke-dasharray="null" stroke-width="0" fill="#49f449"/>
  <rect stroke="#000000" id="svg_131" transform="rotate(-16.57061767578125 560.5930175781249,355.7358093261718) " height="19.31842" width="2.62883" y="346.0766" x="559.27859" stroke-linecap="null" stroke-linejoin="null" stroke-dasharray="null" stroke-width="0" fill="#49f449"/>
  <rect stroke="#000000" id="svg_132" transform="rotate(-16.57061767578125 572.5929565429685,353.7358093261718) " height="19.31842" width="2.62883" y="344.0766" x="571.27859" stroke-linecap="null" stroke-linejoin="null" stroke-dasharray="null" stroke-width="0" fill="#49f449"/>
  <rect stroke="#000000" id="svg_133" transform="rotate(-16.57061767578125 586.5930175781248,356.73580932617193) " height="19.31842" width="2.62883" y="347.0766" x="585.27859" stroke-linecap="null" stroke-linejoin="null" stroke-dasharray="null" stroke-width="0" fill="#49f449"/>
  <rect stroke="#000000" id="svg_134" transform="rotate(-16.57061767578125 606.5930175781248,355.73580932617176) " height="19.31842" width="2.62883" y="346.0766" x="605.27859" stroke-linecap="null" stroke-linejoin="null" stroke-dasharray="null" stroke-width="0" fill="#49f449"/>
  <rect stroke="#000000" id="svg_135" transform="rotate(-16.57061767578125 617.5930175781245,356.735809326172) " height="19.31842" width="2.62883" y="347.0766" x="616.27859" stroke-linecap="null" stroke-linejoin="null" stroke-dasharray="null" stroke-width="0" fill="#49f449"/>
  <ellipse stroke="#000000" ry="7" rx="57" id="svg_140" cy="361.45487" cx="414.12154" stroke-linecap="null" stroke-linejoin="null" stroke-dasharray="null" stroke-width="0" fill="#49f449"/>
  <ellipse stroke="#000000" ry="5" id="svg_141" cy="529.45487" cx="374.12154" stroke-linecap="null" stroke-linejoin="null" stroke-dasharray="null" stroke-width="0" fill="#49f449"/>
  <ellipse stroke="#000000" id="svg_143" ry="7" rx="57" cy="360.45487" cx="513.12154" stroke-linecap="null" stroke-linejoin="null" stroke-dasharray="null" stroke-width="0" fill="#49f449"/>
  <ellipse stroke="#000000" id="svg_144" ry="7" rx="32" cy="361.45487" cx="604.12153" stroke-linecap="null" stroke-linejoin="null" stroke-dasharray="null" stroke-width="0" fill="#49f449"/>
  <ellipse stroke="#000000" id="svg_236" ry="169.79013" rx="77.32136" cy="359.67879" cx="500.15398" stroke-linecap="null" stroke-linejoin="null" stroke-dasharray="null" stroke-width="0" fill="#e2e202"/>
  <ellipse stroke="#000000" id="svg_253" transform="rotate(1.2375237941741943 549.5888671874992,382.8646240234423) " ry="175.0174" rx="50.2333" cy="382.86462" cx="549.58885" stroke-linecap="null" stroke-linejoin="null" stroke-dasharray="null" stroke-width="0" fill="#bf5f00"/>
  <ellipse stroke="#000000" transform="rotate(4.130834579467773 517.9712524414042,394.1841735839839) " id="svg_212" ry="199.5682" rx="77.26748" cy="394.18415" cx="517.97128" stroke-linecap="null" stroke-linejoin="null" stroke-dasharray="null" stroke-width="0" fill="#ffff00"/>
  <ellipse stroke="#000000" id="svg_145" ry="7" rx="57" cy="360.45487" cx="330.12154" stroke-linecap="null" stroke-linejoin="null" stroke-dasharray="null" stroke-width="0" fill="#49f449"/>
  <ellipse stroke="#000000" id="svg_146" ry="7" rx="60" cy="359.45487" cx="219.12154" stroke-linecap="null" stroke-linejoin="null" stroke-dasharray="null" stroke-width="0" fill="#49f449"/>
  <ellipse stroke="#000000" id="svg_147" ry="5.5" rx="38" cy="359.95487" cx="40.12154" stroke-linecap="null" stroke-linejoin="null" stroke-dasharray="null" stroke-width="0" fill="#49f449"/>
  <rect stroke="#000000" fill="#ffffff" stroke-width="0" stroke-dasharray="null" stroke-linejoin="null" stroke-linecap="null" x="-28" y="1.00001" width="38.66666" height="493.99994" id="svg_32"/>
  <ellipse stroke="#000000" ry="72.77777" rx="43.3333" id="svg_163" cy="254.83535" cx="521.65427" stroke-linecap="null" stroke-linejoin="null" stroke-dasharray="null" stroke-width="0" fill="#7f0000"/>
  <rect stroke="#000000" id="svg_204" height="205.9051" width="80.09875" y="287.4516" x="481.05261" stroke-linecap="null" stroke-linejoin="null" stroke-dasharray="null" stroke-width="0" fill="#7f0000"/>
  <ellipse stroke="#000000" transform="rotate(-172.88682556152344 515.743408203125,240.96881103515622) " opacity="0.45" id="svg_257" ry="57.2122" rx="29.53795" cy="240.9688" cx="515.74341" stroke-linecap="null" stroke-linejoin="null" stroke-dasharray="null" stroke-width="0" fill="url(#svg_59)"/>
  <ellipse stroke="#000000" id="svg_207" ry="13.33333" rx="12.44443" cy="279.11105" cx="557.33334" stroke-linecap="null" stroke-linejoin="null" stroke-dasharray="null" fill="#ffffff"/>
  <ellipse stroke="#000000" id="svg_209" ry="4.70797" rx="4.16703" cy="276.93093" cx="563.1809" stroke-linecap="null" stroke-linejoin="null" stroke-dasharray="null" stroke-width="0" fill="#000000"/>
  <ellipse stroke="#000000" transform="rotate(0.9809605479240417 467.25186157226995,376.49868774414153) " id="svg_237" ry="175.0174" rx="42.74902" cy="376.49868" cx="467.25186" stroke-linecap="null" stroke-linejoin="null" stroke-dasharray="null" stroke-width="0" fill="#bf5f00"/>
  <ellipse stroke="#000000" ry="169.79013" rx="44.00103" id="svg_211" cy="365.52674" cx="462.62312" stroke-linecap="null" stroke-linejoin="null" stroke-dasharray="null" stroke-width="0" fill="#ffff00"/>
  <ellipse stroke="#000000" id="svg_203" ry="16.88889" rx="19.88019" cy="300.21978" cx="556.83255" stroke-linecap="null" stroke-linejoin="null" stroke-dasharray="null" fill="#db0808"/>
  <rect stroke="#000000" id="svg_213" height="105.77778" width="843.6214" y="491.55556" x="-137.84363" stroke-linecap="null" stroke-linejoin="null" stroke-dasharray="null" stroke-width="0" fill="#ffffff"/>
  <rect transform="rotate(21.250516891479492 436.8888854980473,396.4444274902343) " stroke="#000000" id="svg_216" height="65.77778" width="6.22223" y="363.55556" x="433.77777" stroke-linecap="null" stroke-linejoin="null" stroke-dasharray="null" stroke-width="0" fill="#000000"/>
  <rect stroke="#000000" id="svg_217" transform="rotate(-29.302186965942383 413.0530395507814,406.43395996093756) " height="46.94465" width="6.22223" y="382.96162" x="409.94195" stroke-linecap="null" stroke-linejoin="null" stroke-dasharray="null" stroke-width="0" fill="#000000"/>
  <ellipse ry="20.44444" rx="76.44444" id="svg_218" cy="382.22222" cx="375.11111" stroke-linecap="null" stroke-linejoin="null" stroke-dasharray="null" stroke-width="0" stroke="#000000" fill="#000000"/>
  <ellipse ry="16.88889" rx="37.33333" id="svg_219" cy="364.44444" cx="387.55556" stroke-linecap="null" stroke-linejoin="null" stroke-dasharray="null" stroke-width="0" stroke="#000000" fill="#bfbfbf"/>
  <ellipse id="svg_220" ry="16.88889" rx="37.33333" cy="381.33333" cx="330.66667" stroke-linecap="null" stroke-linejoin="null" stroke-dasharray="null" stroke-width="0" stroke="#000000" fill="#ffffff"/>
  <ellipse id="svg_221" ry="16.88889" rx="37.33333" cy="391.11111" cx="397.33333" stroke-linecap="null" stroke-linejoin="null" stroke-dasharray="null" stroke-width="0" stroke="#000000" fill="#7f7f7f"/>
  <rect stroke="#000000" id="svg_223" transform="rotate(-74.0546646118164 624.187072753906,434.3391723632811) " height="35.69941" width="5.79703" y="416.48947" x="621.28861" stroke-linecap="null" stroke-linejoin="null" stroke-dasharray="null" stroke-width="0" fill="#000000"/>
  <ellipse stroke="#000000" ry="15.1111" rx="14.22221" id="svg_201" cy="279.99993" cx="524.44446" stroke-linecap="null" stroke-linejoin="null" stroke-dasharray="null" fill="#ffffff"/>
  <ellipse id="svg_225" stroke="#000000" ry="4.70797" rx="4.16703" cy="276.93093" cx="529.49669" stroke-linecap="null" stroke-linejoin="null" stroke-dasharray="null" stroke-width="0" fill="#000000"/>
  <ellipse stroke="#000000" ry="7.48538" rx="20.5848" id="svg_227" cy="376.60819" cx="336.84211" stroke-linecap="null" stroke-linejoin="null" stroke-dasharray="null" stroke-width="0" fill="#ff0000"/>
  <ellipse id="svg_228" stroke="#000000" ry="7.48538" rx="20.5848" cy="359.06432" cx="396.49123" stroke-linecap="null" stroke-linejoin="null" stroke-dasharray="null" stroke-width="0" fill="#ff0000"/>
  <ellipse id="svg_229" stroke="#000000" ry="7.48538" rx="20.5848" cy="383.62573" cx="409.82456" stroke-linecap="null" stroke-linejoin="null" stroke-dasharray="null" stroke-width="0" fill="#ff0000"/>
  <ellipse id="svg_230" stroke="#000000" ry="7.48538" rx="20.5848" cy="392.74853" cx="391.81286" stroke-linecap="null" stroke-linejoin="null" stroke-dasharray="null" stroke-width="0" fill="#7f0000"/>
  <ellipse id="svg_231" stroke="#000000" ry="7.48538" rx="20.5848" cy="385.73099" cx="320.46783" stroke-linecap="null" stroke-linejoin="null" stroke-dasharray="null" stroke-width="0" fill="#7f0000"/>
  <ellipse id="svg_232" stroke="#000000" ry="7.48538" rx="20.5848" cy="364.67836" cx="379.4152" stroke-linecap="null" stroke-linejoin="null" stroke-dasharray="null" stroke-width="0" fill="#7f0000"/>
  <ellipse id="svg_233" stroke="#000000" ry="7.48538" rx="20.5848" cy="381.75438" cx="391.11111" stroke-linecap="null" stroke-linejoin="null" stroke-dasharray="null" stroke-width="0" fill="#590101"/>
  <ellipse id="svg_234" stroke="#000000" ry="7.48538" rx="20.5848" cy="372.39765" cx="323.74268" stroke-linecap="null" stroke-linejoin="null" stroke-dasharray="null" stroke-width="0" fill="#590101"/>
  <ellipse id="svg_235" stroke="#000000" ry="7.48538" rx="20.5848" cy="355.55555" cx="385.49707" stroke-linecap="null" stroke-linejoin="null" stroke-dasharray="null" stroke-width="0" fill="#590101"/>
  <path stroke="#6d0e0e" transform="rotate(-9.589421272277832 548.839782714843,398.6286010742185) " id="svg_238" d="m571.10582,384.63057c0,0 -31.64756,3.98641 -41.46922,-3.98641c-9.82166,-7.97282 6.54777,34.8811 13.09554,36.8743c6.54777,1.99321 28.37368,-32.88789 28.37368,-32.88789z" stroke-linecap="null" stroke-linejoin="null" stroke-dasharray="null" fill="#000000"/>
  <rect id="svg_239" height="5.61404" width="5.61404" y="388.07018" x="533.33333" stroke-linecap="null" stroke-linejoin="null" stroke-dasharray="null" stroke-width="null" stroke="#6d0e0e" fill="#ffffff"/>
  <rect id="svg_240" height="5.61404" width="5.61404" y="386.66667" x="541.05263" stroke-linecap="null" stroke-linejoin="null" stroke-dasharray="null" stroke-width="null" stroke="#6d0e0e" fill="#ffffff"/>
  <rect id="svg_241" height="5.61404" width="5.61404" y="383.85965" x="556.49123" stroke-linecap="null" stroke-linejoin="null" stroke-dasharray="null" stroke-width="null" stroke="#6d0e0e" fill="#ffffff"/>
  <rect stroke="#6d0e0e" id="svg_242" height="4.21052" width="4.21053" y="409.1228" x="538.94738" stroke-linecap="null" stroke-linejoin="null" stroke-dasharray="null" stroke-width="null" fill="#ffffff"/>
  <rect stroke="#6d0e0e" id="svg_243" height="4.38596" width="4.91222" y="410.30698" x="545.2193" stroke-linecap="null" stroke-linejoin="null" stroke-dasharray="null" stroke-width="null" fill="#ffffff"/>
  <rect stroke="#6d0e0e" id="svg_244" height="4.47367" width="4.9123" y="385.70177" x="548.77194" stroke-linecap="null" stroke-linejoin="null" stroke-dasharray="null" stroke-width="null" fill="#ffffff"/>
  <ellipse ry="4.21053" rx="4.91228" id="svg_254" cy="425.96491" cx="424.5614" stroke-linecap="null" stroke-linejoin="null" stroke-dasharray="null" stroke-width="0" stroke="#000000" fill="#000000"/>
  <ellipse id="svg_255" ry="4.21053" rx="4.91228" cy="366.31579" cx="447.7193" stroke-linecap="null" stroke-linejoin="null" stroke-dasharray="null" stroke-width="0" stroke="#000000" fill="#000000"/>
 </g>
</svg>
