<svg width="640" height="479.99999999999994" xmlns="http://www.w3.org/2000/svg" xmlns:svg="http://www.w3.org/2000/svg">
 <!-- Created with SVG-edit - http://svg-edit.googlecode.com/ -->
 <g>
  <title>Layer 1</title>
  <rect fill="#00ffff" stroke-width="0" stroke-dasharray="null" stroke-linejoin="null" stroke-linecap="null" x="-2.75007" y="66.25" width="645.00008" height="275.66667" id="svg_30" stroke="#000000"/>
  <rect fill="#f29d9d" stroke-width="0" x="5.68745" y="260.39584" width="635.06251" height="89.29167" id="svg_1" stroke="#000000"/>
  <rect fill="#00ffff" stroke-width="0" stroke-dasharray="null" stroke-linejoin="null" stroke-linecap="null" x="110.93745" y="260.58334" width="4.49999" height="98.10417" id="svg_2" stroke="#000000"/>
  <rect fill="#00ffff" stroke-width="0" stroke-dasharray="null" stroke-linejoin="null" stroke-linecap="null" x="123.87495" y="270.97917" width="5.83333" height="92.77083" id="svg_3" stroke="#000000"/>
  <rect fill="#00ffff" stroke-width="0" stroke-dasharray="null" stroke-linejoin="null" stroke-linecap="null" x="137.37495" y="270.0625" width="4.49999" height="91.4375" id="svg_4" stroke="#000000"/>
  <rect fill="#00ffff" stroke-width="0" stroke-dasharray="null" stroke-linejoin="null" stroke-linecap="null" x="451.24995" y="271.95834" width="4.49999" height="90.10417" id="svg_5" stroke="#000000"/>
  <rect stroke="#000000" fill="#00ffff" stroke-width="0" stroke-dasharray="null" stroke-linejoin="null" stroke-linecap="null" x="438.87495" y="263.58334" width="2.49999" height="104.10417" id="svg_6"/>
  <rect fill="#00ffff" stroke-width="0" stroke-dasharray="null" stroke-linejoin="null" stroke-linecap="null" x="407.39577" y="271.33334" width="6.16666" height="94.10417" id="svg_7" stroke="#000000"/>
  <rect fill="#00ffff" stroke-width="0" stroke-dasharray="null" stroke-linejoin="null" stroke-linecap="null" x="149.74995" y="258.97917" width="4.49999" height="104.77084" id="svg_9" stroke="#000000"/>
  <rect fill="#00ffff" stroke-width="0" stroke-dasharray="null" stroke-linejoin="null" stroke-linecap="null" x="163.81245" y="261.22917" width="4.49999" height="104.77084" id="svg_10" stroke="#000000"/>
  <rect fill="#00ffff" stroke-width="0" stroke-dasharray="null" stroke-linejoin="null" stroke-linecap="null" x="176.74995" y="252.81251" width="4.49999" height="115.4375" id="svg_11" stroke="#000000"/>
  <circle fill="#00ffff" stroke-width="0" stroke-dasharray="null" stroke-linejoin="null" stroke-linecap="null" cx="314.98954" cy="214.60418" r="65.4794" id="svg_12" stroke="#000000"/>
  <rect fill="#00ffff" stroke-width="0" stroke-dasharray="null" stroke-linejoin="null" stroke-linecap="null" x="191.93745" y="260.16667" width="4.49999" height="100.77084" id="svg_13" stroke="#000000"/>
  <rect fill="#00ffff" stroke-width="0" stroke-dasharray="null" stroke-linejoin="null" stroke-linecap="null" x="176.81245" y="252.58334" width="0.5" height="106.10417" id="svg_14" stroke="#000000"/>
  <rect fill="#00ffff" stroke-width="0" stroke-dasharray="null" stroke-linejoin="null" stroke-linecap="null" x="226.24995" y="273.08334" width="4.49999" height="90.10417" id="svg_15" stroke="#000000"/>
  <rect fill="#00ffff" stroke-width="0" stroke-dasharray="null" stroke-linejoin="null" stroke-linecap="null" x="239.77081" y="271.47917" width="6.16666" height="96.77083" id="svg_16" stroke="#000000"/>
  <rect fill="#00ffff" stroke-width="0" stroke-dasharray="null" stroke-linejoin="null" stroke-linecap="null" x="266.83327" y="262.77084" width="2.16666" height="102.10417" id="svg_17" stroke="#000000"/>
  <rect fill="#00ffff" stroke-width="0" stroke-dasharray="null" stroke-linejoin="null" stroke-linecap="null" x="289.95828" y="262.20834" width="1.83333" height="106.10417" id="svg_18" stroke="#000000"/>
  <rect fill="#00ffff" stroke-width="0" stroke-dasharray="null" stroke-linejoin="null" stroke-linecap="null" x="323.56245" y="265.37501" width="4.49999" height="103.4375" id="svg_19" stroke="#000000"/>
  <rect stroke="#000000" fill="#00ffff" stroke-width="0" stroke-dasharray="null" stroke-linejoin="null" stroke-linecap="null" x="360.68745" y="264.85417" width="5.49999" height="97.77084" id="svg_20"/>
  <rect fill="#00ffff" stroke-width="0" stroke-dasharray="null" stroke-linejoin="null" stroke-linecap="null" x="385.99995" y="273.08334" width="4.49999" height="90.10417" id="svg_21" stroke="#000000"/>
  <circle fill="#00ffff" stroke-width="0" stroke-dasharray="null" stroke-linejoin="null" stroke-linecap="null" cx="223.32287" cy="221.93752" r="65.4794" id="svg_24" stroke="#000000"/>
  <circle fill="#00ffff" stroke-width="0" stroke-dasharray="null" stroke-linejoin="null" stroke-linecap="null" cx="133.48954" cy="215.77084" r="65.47942" id="svg_26" stroke="#000000"/>
  <circle fill="#00ffff" stroke-width="0" stroke-dasharray="null" stroke-linejoin="null" stroke-linecap="null" cx="403.48954" cy="219.27085" r="65.4794" stroke="#000000" id="svg_27"/>
  <rect fill="#00ffff" stroke-width="0" stroke-dasharray="null" stroke-linejoin="null" stroke-linecap="null" x="471.24995" y="261.29167" width="5.83332" height="120.77084" id="svg_33" stroke="#000000"/>
  <rect fill="#00ffff" stroke-width="0" stroke-dasharray="null" stroke-linejoin="null" stroke-linecap="null" x="491.24995" y="266.62501" width="4.49999" height="135.4375" id="svg_34" stroke="#000000"/>
  <rect fill="#00ffff" stroke-width="0" stroke-dasharray="null" stroke-linejoin="null" stroke-linecap="null" x="511.24994" y="282.62501" width="3.16666" height="139.4375" id="svg_35" stroke="#000000"/>
  <rect fill="#00ffff" stroke-width="0" stroke-dasharray="null" stroke-linejoin="null" stroke-linecap="null" x="531.24994" y="270.62501" width="2.83333" height="89.43751" id="svg_36" stroke="#000000"/>
  <rect fill="#00ffff" stroke-width="0" stroke-dasharray="null" stroke-linejoin="null" stroke-linecap="null" x="554.24994" y="268.62501" width="2.83333" height="97.43751" id="svg_37" stroke="#000000"/>
  <rect fill="#00ffff" stroke-width="0" stroke-dasharray="null" stroke-linejoin="null" stroke-linecap="null" x="581.24995" y="274.62502" width="4.16666" height="101.43751" id="svg_38" stroke="#000000"/>
  <rect fill="#00ffff" stroke-width="0" stroke-dasharray="null" stroke-linejoin="null" stroke-linecap="null" x="601.24995" y="275.95835" width="4.16666" height="104.10418" id="svg_39" stroke="#000000"/>
  <rect fill="#00ffff" stroke-width="0" stroke-dasharray="null" stroke-linejoin="null" stroke-linecap="null" x="623.24995" y="274.29168" width="4.49999" height="81.77085" id="svg_40" stroke="#000000"/>
  <rect fill="#00ffff" stroke-width="0" stroke-dasharray="null" stroke-linejoin="null" stroke-linecap="null" x="17.93745" y="257.91668" width="4.49999" height="129.10417" id="svg_41" stroke="#000000"/>
  <rect fill="#00ffff" stroke-width="0" stroke-dasharray="null" stroke-linejoin="null" stroke-linecap="null" x="36.93745" y="141.72463" width="4.49999" height="222.4375" stroke="#000000" id="svg_42"/>
  <rect fill="#00ffff" stroke-width="0" stroke-dasharray="null" stroke-linejoin="null" stroke-linecap="null" x="55.93745" y="135.25002" width="4.49999" height="222.4375" stroke="#000000" id="svg_43"/>
  <rect fill="#00ffff" stroke-width="0" stroke-dasharray="null" stroke-linejoin="null" stroke-linecap="null" x="75.93745" y="131.25002" width="4.49999" height="222.4375" stroke="#000000" id="svg_44"/>
  <rect fill="#00ffff" stroke-width="0" stroke-dasharray="null" stroke-linejoin="null" stroke-linecap="null" x="95.93745" y="242.25002" width="4.49999" height="122.43749" id="svg_45" stroke="#000000"/>
  <circle fill="#00ffff" stroke-width="0" stroke-dasharray="null" stroke-linejoin="null" stroke-linecap="null" cx="38.6562" cy="220.43751" r="65.47942" id="svg_46" stroke="#000000"/>
  <circle fill="#00ffff" stroke-width="0" stroke-dasharray="null" stroke-linejoin="null" stroke-linecap="null" cx="496.98954" cy="225.60419" r="65.4794" stroke="#000000" id="svg_47"/>
  <circle fill="#00ffff" stroke-width="0" stroke-dasharray="null" stroke-linejoin="null" stroke-linecap="null" cx="599.98954" cy="233.27085" r="65.4794" stroke="#000000" id="svg_48"/>
  <rect stroke="#000000" fill="#00ffff" stroke-width="0" stroke-dasharray="null" stroke-linejoin="null" stroke-linecap="null" x="210.60411" y="245.25" width="4.49999" height="102.90659" id="svg_51"/>
  <rect fill="#00ffff" stroke-width="0" stroke-dasharray="null" stroke-linejoin="null" stroke-linecap="null" x="251.77081" y="264.81251" width="6.16666" height="96.77083" stroke="#000000" id="svg_52"/>
  <rect fill="#00ffff" stroke-width="0" stroke-dasharray="null" stroke-linejoin="null" stroke-linecap="null" x="303.77081" y="266.14584" width="6.16666" height="96.77083" stroke="#000000" id="svg_53"/>
  <rect id="svg_8" stroke="#000000" fill="#00ffff" stroke-width="0" stroke-dasharray="null" stroke-linejoin="null" stroke-linecap="null" x="340.68745" y="268.85417" width="5.49999" height="97.77084"/>
  <rect id="svg_22" stroke="#000000" fill="#00ffff" stroke-width="0" stroke-dasharray="null" stroke-linejoin="null" stroke-linecap="null" x="423.87495" y="264.58334" width="2.49999" height="104.10417"/>
  <rect stroke="#000000" id="svg_25" fill="#00ffff" stroke-width="0" stroke-dasharray="null" stroke-linejoin="null" stroke-linecap="null" x="545.24995" y="265.95834" width="3.49999" height="90.10417"/>
  <rect stroke="#000000" id="svg_28" fill="#00ffff" stroke-width="0" stroke-dasharray="null" stroke-linejoin="null" stroke-linecap="null" x="568.24995" y="284.95834" width="3.49999" height="59.10416"/>
  <rect id="svg_29" stroke="#000000" fill="#00ffff" stroke-width="0" stroke-dasharray="null" stroke-linejoin="null" stroke-linecap="null" x="612.24995" y="292.95834" width="3.49999" height="59.10416"/>
  <rect fill="#49f449" stroke="#000000" stroke-width="0" stroke-dasharray="null" stroke-linejoin="null" stroke-linecap="null" x="10.71387" y="348.15625" width="642" height="146" id="svg_49"/>
  <rect stroke="#000000" id="svg_54" height="4.5" width="615.74999" y="303" x="13.25004" stroke-linecap="null" stroke-linejoin="null" stroke-dasharray="null" stroke-width="0" fill="#ffaaaa"/>
  <rect stroke="#000000" id="svg_55" height="3.75" width="613.49999" y="329.25" x="17.75004" stroke-linecap="null" stroke-linejoin="null" stroke-dasharray="null" stroke-width="0" fill="#ffaaaa"/>
  <path id="svg_79" stroke="#000000" d="m62.80539,383.08909c116.71847,48.62419 238.74232,63.43937 477.48464,71.0369c238.74232,7.59753 53.05385,-11.39629 -37.13769,-22.03283c-90.19155,-10.63655 -249.35309,-20.13346 -244.04771,-33.80901c5.30539,-13.67556 74.27539,-20.89321 -26.52692,-23.55235c-100.80232,-2.65913 -238.74232,-15.95481 -244.04771,-2.65913c-5.30538,13.29568 74.27539,11.01642 74.27539,11.01642z" stroke-linecap="null" stroke-linejoin="null" stroke-dasharray="null" stroke-width="0" fill="#007f00"/>
  <path stroke="#000000" id="svg_77" d="m57.55539,383.83909c116.71847,48.62419 238.74232,63.43938 477.48464,71.03691c238.74232,7.59753 53.05385,-11.3963 -37.13769,-22.03284c-90.19154,-10.63654 -249.35309,-20.13345 -244.04771,-33.80901c5.30538,-13.67555 74.27539,-20.89321 -26.52692,-23.55234c-100.80231,-2.65914 -238.74232,-15.95481 -244.04771,-2.65914c-5.30538,13.29568 74.27539,11.01642 74.27539,11.01642z" stroke-linecap="null" stroke-linejoin="null" stroke-dasharray="null" stroke-width="0" fill="#ffff00"/>
  <rect id="svg_50" height="499.00002" width="48" y="-1.00003" x="630.25" stroke-linecap="null" stroke-linejoin="null" stroke-dasharray="null" stroke-width="0" fill="#ffffff" stroke="#000000"/>
  <path id="svg_80" stroke="#000000" d="m35.4784,392.33824c97.41354,47.1773 199.25497,61.55164 398.50995,68.92309c199.25498,7.37146 44.27889,-11.05718 -30.99521,-21.37721c-75.2741,-10.32004 -208.11075,-19.53436 -203.68287,-32.80298c4.42789,-13.26861 61.99044,-20.27149 -22.13945,-22.8515c-84.12987,-2.58001 -199.25497,-15.48006 -203.68286,-2.58001c-4.42789,12.90004 61.99044,10.68861 61.99044,10.68861z" stroke-linecap="null" stroke-linejoin="null" stroke-dasharray="null" stroke-width="0" fill="#05aa05"/>
  <path stroke="#000000" id="svg_78" d="m33.2284,395.33824c97.41355,47.1773 199.25498,61.55164 398.50996,68.92309c199.25498,7.37146 44.27889,-11.05718 -30.99521,-21.37721c-75.2741,-10.32004 -208.11075,-19.53436 -203.68287,-32.80298c4.42789,-13.26861 61.99044,-20.27149 -22.13945,-22.8515c-84.12988,-2.58001 -199.25498,-15.48006 -203.68286,-2.58001c-4.42789,12.90004 61.99043,10.68861 61.99043,10.68861z" stroke-linecap="null" stroke-linejoin="null" stroke-dasharray="null" stroke-width="0" fill="#00ff00"/>
  <path fill="#00ff00" stroke="#000000" stroke-width="0" stroke-dasharray="null" stroke-linejoin="null" stroke-linecap="null" d="m35.84373,365.22659c0,0 -4.11328,-26.57813 -4.11328,-26.57813c0,0 6.96094,12.02344 7.59375,15.50391c0.63281,3.48047 -3.48047,11.07422 -3.48047,11.07422z" id="svg_23" transform="rotate(3.869993209838867 35.56042098999345,351.937530517578) "/>
  <path fill="#00ff00" stroke-width="0" stroke-dasharray="null" stroke-linejoin="null" stroke-linecap="null" d="m33.73436,357.21097c0,0 -4.11328,-14.76563 -4.11328,-14.76563c0,0 6.96094,6.67969 7.59375,8.61328c0.63281,1.93359 -3.48047,6.15234 -3.48047,6.15234l0,0.00001z" id="svg_31" stroke="#000000"/>
  <path fill="#00ff00" stroke="#000000" stroke-width="0" stroke-dasharray="null" stroke-linejoin="null" stroke-linecap="null" d="m36.31834,367.33596c0,0 -4.11328,-26.57813 -4.11328,-26.57813c0,0 6.96094,12.02344 7.59375,15.50391c0.63281,3.48047 -3.48047,11.07422 -3.48047,11.07422z" id="svg_56" transform="rotate(35.48173522949219 36.03502655029315,354.04690551757807) "/>
  <path fill="#00ff00" stroke="#000000" stroke-width="0" stroke-dasharray="null" stroke-linejoin="null" stroke-linecap="null" d="m33.97166,365.83304c0,0 -4.11328,-26.57813 -4.11328,-26.57813c0,0 6.96094,12.02344 7.59375,15.50391c0.63281,3.48047 -3.48047,11.07422 -3.48047,11.07422z" id="svg_57" transform="rotate(40.65438461303711 33.688346862792955,352.5439758300781) "/>
  <path fill="#00ff00" stroke="#000000" stroke-width="0" stroke-dasharray="null" stroke-linejoin="null" stroke-linecap="null" d="m423.65232,369.65628c0,0 -4.11328,-26.57813 -4.11328,-26.57813c0,0 6.96094,12.02344 7.59375,15.50391c0.63281,3.48047 -3.48047,11.07422 -3.48047,11.07422z" transform="rotate(3.869993209838867 423.36901855468983,356.36721801757835) " id="svg_81"/>
  <path fill="#00ff00" stroke-width="0" stroke-dasharray="null" stroke-linejoin="null" stroke-linecap="null" d="m337.06249,393.28128c0,0 -4.11328,-14.76563 -4.11328,-14.76563c0,0 6.96093,6.67969 7.59374,8.61328c0.63281,1.9336 -3.48046,6.15235 -3.48046,6.15235z" stroke="#000000" id="svg_82"/>
  <path fill="#00ff00" stroke="#000000" stroke-width="0" stroke-dasharray="null" stroke-linejoin="null" stroke-linecap="null" d="m426.52635,367.09866c0,0 -4.11328,-26.57813 -4.11328,-26.57813c0,0 6.96094,12.02344 7.59375,15.50391c0.63281,3.48047 -3.48047,11.07422 -3.48047,11.07422z" transform="rotate(40.65438461303711 426.2430419921875,353.8096008300781) " id="svg_83"/>
  <path fill="#00ff00" stroke="#000000" stroke-width="0" stroke-dasharray="null" stroke-linejoin="null" stroke-linecap="null" d="m428.60936,364.27737c0,0 -4.11328,-26.57813 -4.11328,-26.57813c0,0 6.96094,12.02344 7.59375,15.50391c0.63281,3.48047 -3.48047,11.07422 -3.48047,11.07422z" transform="rotate(3.869993209838867 428.32604980468835,350.9883117675779) " id="svg_84"/>
  <path fill="#00ff00" stroke-width="0" stroke-dasharray="null" stroke-linejoin="null" stroke-linecap="null" d="m424.91796,354.67972c0,0 -4.11328,-14.76563 -4.11328,-14.76563c0,0 6.96093,6.67969 7.59374,8.61328c0.63281,1.9336 -3.48046,6.15235 -3.48046,6.15235z" stroke="#000000" id="svg_85"/>
  <path fill="#00ff00" stroke="#000000" stroke-width="0" stroke-dasharray="null" stroke-linejoin="null" stroke-linecap="null" d="m425.15526,363.30179c0,0 -4.11328,-26.57813 -4.11328,-26.57813c0,0 6.96094,12.02344 7.59375,15.50391c0.63281,3.48047 -3.48047,11.07422 -3.48047,11.07422z" transform="rotate(40.65438461303711 424.8719482421875,350.0127258300781) " id="svg_86"/>
  <path fill="#00ff00" stroke="#000000" stroke-width="0" stroke-dasharray="null" stroke-linejoin="null" stroke-linecap="null" d="m213.32127,437.44632c0,0 -4.11328,-26.57813 -4.11328,-26.57813c0,0 6.96094,12.02344 7.59375,15.50391c0.63281,3.48047 -3.48047,11.07422 -3.48047,11.07422z" transform="rotate(3.869993209838867 213.0379638671905,424.15725708007824) " id="svg_87"/>
  <path fill="#00ff00" stroke-width="0" stroke-dasharray="null" stroke-linejoin="null" stroke-linecap="null" d="m210.49999,426.34574c0,0 -4.11328,-14.76563 -4.11328,-14.76563c0,0 6.96093,6.67969 7.59374,8.61328c0.63281,1.9336 -3.48046,6.15235 -3.48046,6.15235z" stroke="#000000" id="svg_88"/>
  <path fill="#00ff00" stroke="#000000" stroke-width="0" stroke-dasharray="null" stroke-linejoin="null" stroke-linecap="null" d="m210.02537,436.15433c0,0 -4.11328,-26.57813 -4.11328,-26.57813c0,0 6.96094,12.02344 7.59375,15.50391c0.63281,3.48047 -3.48047,11.07422 -3.48047,11.07422z" transform="rotate(40.65438461303711 209.74206542968767,422.8652648925782) " id="svg_89"/>
  <path fill="#00ff00" stroke="#000000" stroke-width="0" stroke-dasharray="null" stroke-linejoin="null" stroke-linecap="null" d="m211.89744,437.68362c0,0 -4.11328,-26.57813 -4.11328,-26.57813c0,0 6.96094,12.02344 7.59375,15.50391c0.63281,3.48047 -3.48047,11.07422 -3.48047,11.07422z" transform="rotate(41.98979949951172 211.61413574218747,424.39456176757807) " id="svg_90"/>
  <ellipse opacity="0.5" fill="#ffffaa" stroke-width="0" stroke-dasharray="null" stroke-linejoin="null" stroke-linecap="null" cx="102.44444" cy="144.22222" id="svg_91" rx="58" ry="57" stroke="#000000"/>
  <rect stroke="#000000" transform="rotate(21.399810791015625 94.15521240234357,416.3603515625) " id="svg_61" height="43.27462" width="2.67287" y="394.72304" x="92.81877" stroke-linecap="null" stroke-linejoin="null" stroke-dasharray="null" fill="#bfbfbf"/>
  <ellipse stroke="#000000" id="svg_62" ry="10.51563" rx="11.3672" cy="442.37937" cx="82.52789" stroke-width="0" fill="#000000"/>
  <ellipse stroke="#000000" id="svg_63" ry="7.57031" rx="8.57813" cy="442.5903" cx="82.31695" stroke-width="0" fill="#ffffff"/>
  <ellipse stroke="#000000" id="svg_64" ry="6.17187" rx="6.57814" cy="442.87937" cx="82.1607" stroke-width="0" fill="#000000"/>
  <ellipse stroke="#000000" id="svg_66" ry="8.19531" rx="9.04688" cy="428.66843" cx="120.2857" stroke-width="0" fill="#000000"/>
  <rect stroke="#000000" id="svg_65" transform="rotate(179.10491943359375 119.87103271484375,414.9019470214844) " height="29.16684" width="2.67287" y="400.31853" x="118.5346" stroke-linecap="null" stroke-linejoin="null" stroke-dasharray="null" fill="#bfbfbf"/>
  <rect stroke="#000000" id="svg_67" transform="rotate(154.0298614501953 147.1666107177734,420.7899169921875) " height="68.27748" width="2.70383" y="386.65118" x="145.8147" stroke-linecap="null" stroke-linejoin="null" stroke-dasharray="null" fill="#bfbfbf"/>
  <rect fill="#3f3f3f" stroke-width="0" x="10.18744" y="346.64584" width="619.31254" height="14.29166" id="svg_100" opacity="0.15" stroke="#000000"/>
  <ellipse stroke="#000000" id="svg_60" ry="34.51563" rx="37.00001" cy="366.37937" cx="118.89508" stroke-width="0" fill="#c40303"/>
  <rect id="svg_68" stroke="#000000" transform="rotate(86.74259948730469 117.78019714355477,407.9228515625) " height="43.27462" width="2.67287" y="386.28554" x="116.44377" stroke-linecap="null" stroke-linejoin="null" stroke-dasharray="null" fill="#bfbfbf"/>
  <rect stroke="#000000" id="svg_69" transform="rotate(75.38660430908203 107.09970855712896,406.19604492187494) " height="22.78707" width="2.67287" y="394.80254" x="105.76327" stroke-linecap="null" stroke-linejoin="null" stroke-dasharray="null" fill="#bfbfbf"/>
  <rect stroke="#000000" id="svg_70" transform="rotate(96.74224090576172 130.23248291015634,404.57885742187494) " height="17.74503" width="1.92271" y="395.70636" x="129.27114" stroke-linecap="null" stroke-linejoin="null" stroke-dasharray="null" fill="#bfbfbf"/>
  <ellipse stroke="#000000" ry="12.65625" rx="37.54688" id="svg_71" cy="363.33251" cx="118.67632" stroke-linecap="null" stroke-linejoin="null" stroke-dasharray="null" fill="#ff0000"/>
  <ellipse stroke="#000000" id="svg_73" ry="12.15625" rx="36.78908" cy="361.73874" cx="118.68414" stroke-width="0" fill="#c40303"/>
  <rect stroke="#000000" transform="rotate(-7.9144978523254395 117.99624633788994,328.1467590332032) " id="svg_74" height="3.75355" width="14.87109" y="326.26999" x="110.5607" stroke-linecap="null" stroke-linejoin="null" stroke-dasharray="null" stroke-width="0" fill="#3f3f3f"/>
  <rect id="svg_75" height="2.10938" width="0.42188" y="325.03563" x="119.33256" stroke-linecap="null" stroke-linejoin="null" stroke-dasharray="null" stroke-width="0" stroke="#000000" fill="#3f3f3f"/>
  <rect stroke="#000000" id="svg_76" transform="rotate(82.91946411132812 111.54814147949212,331.37814331054693) " height="3.75355" width="6.9166" y="329.50137" x="108.08982" stroke-linecap="null" stroke-linejoin="null" stroke-dasharray="null" stroke-width="0" fill="#3f3f3f"/>
  <rect stroke="#000000" id="svg_92" transform="rotate(82.91946411132812 124.91271972656246,329.4441223144532) " height="3.75355" width="7.33526" y="327.56735" x="121.24508" stroke-linecap="null" stroke-linejoin="null" stroke-dasharray="null" stroke-width="0" fill="#3f3f3f"/>
  <rect stroke="#000000" id="svg_96" transform="rotate(87.41355895996094 122.79759216308595,437.62390136718744) " height="59.36676" width="2.18702" y="407.94051" x="121.70408" stroke-linecap="null" stroke-linejoin="null" stroke-dasharray="null" fill="#bfbfbf"/>
  <rect stroke="#000000" id="svg_97" transform="rotate(103.7060317993164 136.74095153808597,431.06451416015625) " height="33.30866" width="2.67287" y="414.41019" x="135.40452" stroke-linecap="null" stroke-linejoin="null" stroke-dasharray="null" fill="#bfbfbf"/>
  <rect id="svg_98" stroke="#000000" transform="rotate(74.02615356445312 102.39282989501962,431.49185180664057) " height="28.4748" width="2.67287" y="417.25445" x="101.05639" stroke-linecap="null" stroke-linejoin="null" stroke-dasharray="null" fill="#bfbfbf"/>
  <ellipse stroke="#000000" id="svg_109" opacity="0.5" fill="#ffffaa" stroke-width="0" stroke-dasharray="null" stroke-linejoin="null" stroke-linecap="null" cx="103.11111" cy="142.22222" rx="22.66667" ry="20.33333"/>
  <ellipse stroke="#000000" id="svg_110" opacity="0.5" fill="#ffffaa" stroke-width="0" stroke-dasharray="null" stroke-linejoin="null" stroke-linecap="null" cx="103.77778" cy="143.55555" rx="43.33333" ry="40.33333"/>
  <ellipse stroke="#000000" id="svg_111" opacity="0.5" fill="#ffffaa" stroke-width="0" stroke-dasharray="null" stroke-linejoin="null" stroke-linecap="null" cx="101.77778" cy="144.88888" rx="74.66667" ry="70.99999"/>
  <path stroke="#000000" transform="rotate(20.756986618041992 562.785888671875,347.80706787109375) " id="svg_136" d="m558.21785,341.37877c0,0 -0.30974,5.34683 1.54871,4.33946c1.85845,-1.00737 1.63319,-0.15498 2.67505,-1.00737c1.04186,-0.85239 2.70321,-10.15123 2.56241,-0.23247c-0.14079,9.91876 -1.63319,15.57556 -1.6895,7.05162c-0.05632,-8.52394 3.74507,7.05162 1.40792,-2.55718c-2.33715,-9.6088 -3.5198,-11.15861 -2.36531,-5.19185c1.15449,5.96676 -1.71766,7.51656 -1.23897,2.86714c0.47869,-4.64942 -2.92847,7.36158 -0.42238,3.71954c2.5061,-3.64205 1.3516,-9.37633 0.16895,-7.59405c-1.18265,1.78228 1.52055,6.66417 -0.56317,5.26934c-2.08372,-1.39483 -4.58982,-4.49444 -1.4924,-4.33946c3.09742,0.15498 3.97033,11.70104 4.05481,4.57193c0.08448,-7.12911 -0.70396,-16.0405 -0.02816,-7.12911c0.6758,8.91139 3.06927,14.49069 -0.39422,8.98888c-3.46348,-5.50181 -8.02514,-5.26934 -3.37901,-1.78228c4.64614,3.48707 5.06851,-9.6088 2.92847,-4.95938c-2.14004,4.64942 5.688,18.05525 3.71691,9.68629c-1.97109,-8.36896 -5.63168,-11.00363 -3.12558,-5.03687c2.5061,5.96676 8.92621,3.1771 4.22376,0.92988c-4.70245,-2.24722 -6.67354,9.22135 -4.5335,1.93726c2.14004,-7.28409 -0.02816,-18.21023 0.19711,-8.91139c0.22527,9.29884 6.30748,-4.72691 2.25267,2.01475c-4.05481,6.74166 0.42238,14.25822 0.4047,14.19139c-0.01768,-0.06683 -6.90929,-16.82606 -6.90929,-16.82606l0.00002,-0.00001z" stroke-linecap="null" stroke-linejoin="null" stroke-dasharray="null" stroke-width="0" fill="#59f759"/>
  <path id="svg_137" d="m1,42.34375l7.75195,-41.34375l25.83985,0l7.75195,41.34375l-41.34375,0z" stroke-linecap="null" stroke-linejoin="null" stroke-dasharray="null" stroke-width="0" stroke="#ff7f00" fill="none"/>
  <ellipse fill="#3f3f3f" stroke-width="0" stroke-dasharray="null" stroke-linejoin="null" stroke-linecap="null" opacity="0.2" cx="126.00309" cy="453.5679" id="svg_94" rx="39.11112" ry="16" stroke="#000000"/>
  <rect fill="#ff00ff" stroke-width="0" stroke-dasharray="null" stroke-linejoin="null" stroke-linecap="null" opacity="0.2" x="11.77471" y="306.11728" width="611.55557" height="2.37035" id="svg_95" stroke="#000000"/>
  <rect fill="#ff00ff" stroke-width="0" stroke-dasharray="null" stroke-linejoin="null" stroke-linecap="null" opacity="0.2" x="18.52471" y="332.36728" width="611.55557" height="2.37035" stroke="#000000" id="svg_99"/>
  <rect fill="#49f449" stroke-width="0" stroke-dasharray="null" stroke-linejoin="null" stroke-linecap="null" x="38.93745" y="353.1667" width="3.74999" height="8.35418" id="svg_101" stroke="#000000" transform="rotate(-9.192890167236328 40.812446594237976,357.34378051757807) "/>
  <rect fill="#49f449" stroke-width="0" stroke-dasharray="null" stroke-linejoin="null" stroke-linecap="null" x="20.93745" y="354.6667" width="3.74999" height="8.35418" stroke="#000000" transform="rotate(-9.192890167236328 22.812446594236402,358.84378051757795) " id="svg_102"/>
  <rect fill="#49f449" stroke-width="0" stroke-dasharray="null" stroke-linejoin="null" stroke-linecap="null" x="57.94854" y="346.33542" width="3.22781" height="14.51676" transform="rotate(-9.192890167236328 59.56244277954077,353.59378051757807) " id="svg_103" stroke="#000000"/>
  <rect fill="#49f449" stroke-width="0" stroke-dasharray="null" stroke-linejoin="null" stroke-linecap="null" x="78.68745" y="348.6667" width="3.74999" height="8.35418" stroke="#000000" transform="rotate(-9.192890167236328 80.56244659423838,352.8437805175781) " id="svg_104"/>
  <rect fill="#49f449" stroke-width="0" stroke-dasharray="null" stroke-linejoin="null" stroke-linecap="null" x="166.63864" y="347.09021" width="3.34763" height="15.25712" transform="rotate(-9.192890167236328 168.31245422363307,354.7188110351563) " id="svg_105" stroke="#000000"/>
  <rect fill="#49f449" stroke-width="0" stroke-dasharray="null" stroke-linejoin="null" stroke-linecap="null" x="179.23499" y="347.10259" width="3.74999" height="18.33841" transform="rotate(-9.192890167236328 181.10998535156276,356.27178955078114) " id="svg_106" stroke="#000000"/>
  <rect fill="#49f449" stroke-width="0" stroke-dasharray="null" stroke-linejoin="null" stroke-linecap="null" x="194.74874" y="346.37159" width="4.06654" height="19.31842" transform="rotate(-16.57061767578125 196.78201293945307,356.0308227539062) " id="svg_107" stroke="#000000"/>
  <rect fill="#49f449" stroke-width="0" stroke-dasharray="null" stroke-linejoin="null" stroke-linecap="null" x="214.99874" y="347.12159" width="4.06654" height="19.31842" transform="rotate(-16.57061767578125 217.0320129394529,356.78082275390614) " stroke="#000000" id="svg_108"/>
  <rect fill="#49f449" stroke-width="0" stroke-dasharray="null" stroke-linejoin="null" stroke-linecap="null" x="230.74874" y="347.87159" width="4.06654" height="19.31842" transform="rotate(-16.57061767578125 232.78201293945307,357.53082275390625) " stroke="#000000" id="svg_112"/>
  <rect fill="#49f449" stroke-width="0" stroke-dasharray="null" stroke-linejoin="null" stroke-linecap="null" x="243.49874" y="347.12159" width="4.06654" height="19.31842" transform="rotate(-16.57061767578125 245.53201293945318,356.78082275390625) " stroke="#000000" id="svg_113"/>
  <rect fill="#49f449" stroke-width="0" stroke-dasharray="null" stroke-linejoin="null" stroke-linecap="null" x="256.99874" y="346.37159" width="4.06654" height="19.31842" transform="rotate(-16.57061767578125 259.0320129394527,356.0308227539062) " stroke="#000000" id="svg_114"/>
  <rect fill="#49f449" stroke-width="0" stroke-dasharray="null" stroke-linejoin="null" stroke-linecap="null" x="270.52859" y="348.0766" width="2.62883" height="19.31842" transform="rotate(-16.57061767578125 271.84301757812517,357.7358093261718) " id="svg_115" stroke="#000000"/>
  <rect fill="#49f449" stroke-width="0" stroke-dasharray="null" stroke-linejoin="null" stroke-linecap="null" x="292.27859" y="348.0766" width="2.62883" height="19.31842" transform="rotate(-16.57061767578125 293.59301757812483,357.73580932617176) " stroke="#000000" id="svg_116"/>
  <rect fill="#49f449" stroke-width="0" stroke-dasharray="null" stroke-linejoin="null" stroke-linecap="null" x="307.99874" y="347.12159" width="4.06654" height="19.31842" transform="rotate(-16.57061767578125 310.0320129394531,356.7808227539062) " stroke="#000000" id="svg_117"/>
  <rect fill="#49f449" stroke-width="0" stroke-dasharray="null" stroke-linejoin="null" stroke-linecap="null" x="327.49874" y="346.37159" width="4.06654" height="19.31842" transform="rotate(-16.57061767578125 329.53201293945284,356.03082275390625) " stroke="#000000" id="svg_118"/>
  <rect fill="#49f449" stroke-width="0" stroke-dasharray="null" stroke-linejoin="null" stroke-linecap="null" x="344.74874" y="347.12159" width="4.06654" height="19.31842" transform="rotate(-16.57061767578125 346.78201293945324,356.7808227539063) " stroke="#000000" id="svg_119"/>
  <rect fill="#49f449" stroke-width="0" stroke-dasharray="null" stroke-linejoin="null" stroke-linecap="null" x="364.99874" y="347.87159" width="4.06654" height="19.31842" transform="rotate(-16.57061767578125 367.0320129394527,357.5308227539062) " stroke="#000000" id="svg_120"/>
  <rect fill="#49f449" stroke-width="0" stroke-dasharray="null" stroke-linejoin="null" stroke-linecap="null" x="389.74874" y="346.37159" width="4.06654" height="19.31842" transform="rotate(-16.57061767578125 391.7820129394532,356.03082275390636) " stroke="#000000" id="svg_121"/>
  <rect fill="#49f449" stroke-width="0" stroke-dasharray="null" stroke-linejoin="null" stroke-linecap="null" x="411.49874" y="345.62159" width="4.06654" height="19.31842" transform="rotate(-16.57061767578125 413.53201293945284,355.2808227539063) " stroke="#000000" id="svg_122"/>
  <rect fill="#49f449" stroke-width="0" stroke-dasharray="null" stroke-linejoin="null" stroke-linecap="null" x="455.49874" y="347.62159" width="4.06654" height="19.31842" transform="rotate(-16.57061767578125 457.53201293945284,357.2808227539065) " stroke="#000000" id="svg_123"/>
  <rect fill="#49f449" stroke-width="0" stroke-dasharray="null" stroke-linejoin="null" stroke-linecap="null" x="475.49874" y="347.62159" width="4.06654" height="19.31842" transform="rotate(-16.57061767578125 477.53201293945284,357.2808227539063) " stroke="#000000" id="svg_124"/>
  <rect fill="#49f449" stroke-width="0" stroke-dasharray="null" stroke-linejoin="null" stroke-linecap="null" x="441.27859" y="346.0766" width="2.62883" height="19.31842" transform="rotate(-16.57061767578125 442.5930175781248,355.7358093261721) " stroke="#000000" id="svg_125"/>
  <rect fill="#49f449" stroke-width="0" stroke-dasharray="null" stroke-linejoin="null" stroke-linecap="null" x="427.27859" y="346.0766" width="2.62883" height="19.31842" transform="rotate(-16.57061767578125 428.59301757812494,355.73580932617176) " stroke="#000000" id="svg_126"/>
  <rect fill="#49f449" stroke-width="0" stroke-dasharray="null" stroke-linejoin="null" stroke-linecap="null" x="495.27859" y="347.0766" width="2.62883" height="19.31842" transform="rotate(-16.57061767578125 496.59301757812494,356.7358093261718) " stroke="#000000" id="svg_127"/>
  <rect fill="#49f449" stroke-width="0" stroke-dasharray="null" stroke-linejoin="null" stroke-linecap="null" x="514.27859" y="345.0766" width="2.62883" height="19.31842" transform="rotate(-16.57061767578125 515.5930175781247,354.7358093261721) " stroke="#000000" id="svg_128"/>
  <rect fill="#49f449" stroke-width="0" stroke-dasharray="null" stroke-linejoin="null" stroke-linecap="null" x="535.27859" y="347.0766" width="2.62883" height="19.31842" transform="rotate(-16.57061767578125 536.5930175781249,356.73580932617193) " stroke="#000000" id="svg_129"/>
  <rect fill="#49f449" stroke-width="0" stroke-dasharray="null" stroke-linejoin="null" stroke-linecap="null" x="550.27859" y="347.0766" width="2.62883" height="19.31842" transform="rotate(-16.57061767578125 551.5930175781247,356.73580932617176) " stroke="#000000" id="svg_130"/>
  <rect fill="#49f449" stroke-width="0" stroke-dasharray="null" stroke-linejoin="null" stroke-linecap="null" x="559.27859" y="346.0766" width="2.62883" height="19.31842" transform="rotate(-16.57061767578125 560.5930175781249,355.7358093261718) " stroke="#000000" id="svg_131"/>
  <rect fill="#49f449" stroke-width="0" stroke-dasharray="null" stroke-linejoin="null" stroke-linecap="null" x="571.27859" y="344.0766" width="2.62883" height="19.31842" transform="rotate(-16.57061767578125 572.5930175781249,353.73580932617193) " stroke="#000000" id="svg_132"/>
  <rect fill="#49f449" stroke-width="0" stroke-dasharray="null" stroke-linejoin="null" stroke-linecap="null" x="585.27859" y="347.0766" width="2.62883" height="19.31842" transform="rotate(-16.57061767578125 586.5930175781248,356.73580932617193) " stroke="#000000" id="svg_133"/>
  <rect fill="#49f449" stroke-width="0" stroke-dasharray="null" stroke-linejoin="null" stroke-linecap="null" x="605.27859" y="346.0766" width="2.62883" height="19.31842" transform="rotate(-16.57061767578125 606.5930175781248,355.73580932617176) " stroke="#000000" id="svg_134"/>
  <rect fill="#49f449" stroke-width="0" stroke-dasharray="null" stroke-linejoin="null" stroke-linecap="null" x="616.27859" y="347.0766" width="2.62883" height="19.31842" transform="rotate(-16.57061767578125 617.5930175781245,356.735809326172) " stroke="#000000" id="svg_135"/>
  <ellipse fill="#49f449" stroke="#000000" stroke-width="0" stroke-dasharray="null" stroke-linejoin="null" stroke-linecap="null" cx="414.12154" cy="361.45487" id="svg_140" rx="57" ry="7"/>
  <ellipse fill="#49f449" stroke="#000000" stroke-width="0" stroke-dasharray="null" stroke-linejoin="null" stroke-linecap="null" cx="374.12154" cy="529.45487" id="svg_141" ry="5"/>
  <ellipse fill="#49f449" stroke="#000000" stroke-width="0" stroke-dasharray="null" stroke-linejoin="null" stroke-linecap="null" cx="513.12154" cy="360.45487" rx="57" ry="7" id="svg_143"/>
  <ellipse fill="#49f449" stroke-width="0" stroke-dasharray="null" stroke-linejoin="null" stroke-linecap="null" cx="604.12153" cy="361.45487" rx="32" ry="7" id="svg_144" stroke="#000000"/>
  <ellipse fill="#49f449" stroke="#000000" stroke-width="0" stroke-dasharray="null" stroke-linejoin="null" stroke-linecap="null" cx="330.12154" cy="360.45487" rx="57" ry="7" id="svg_145"/>
  <ellipse fill="#49f449" stroke-width="0" stroke-dasharray="null" stroke-linejoin="null" stroke-linecap="null" cx="219.12154" cy="359.45487" rx="60" ry="7" id="svg_146" stroke="#000000"/>
  <ellipse fill="#49f449" stroke-width="0" stroke-dasharray="null" stroke-linejoin="null" stroke-linecap="null" cx="40.12154" cy="359.95487" rx="38" ry="5.5" id="svg_147" stroke="#000000"/>
  <rect stroke="#000000" id="svg_32" height="493.99994" width="38.66666" y="1.00001" x="-28" stroke-linecap="null" stroke-linejoin="null" stroke-dasharray="null" stroke-width="0" fill="#ffffff"/>
  <ellipse ry="115" rx="25" id="svg_72" cy="293.12154" cx="265.34376" stroke-linecap="null" stroke-linejoin="null" stroke-dasharray="null" stroke-width="0" stroke="#000000" fill="#ff7f00"/>
  <ellipse ry="142.66667" rx="25.33333" id="svg_93" cy="285.84106" cx="287.4213" stroke-linecap="null" stroke-linejoin="null" stroke-dasharray="null" stroke-width="0" stroke="#000000" fill="#af0000"/>
  <ellipse stroke="#000000" ry="122.02778" rx="27.95062" id="svg_138" cy="297.36559" cx="319.70958" stroke-linecap="null" stroke-linejoin="null" stroke-dasharray="null" stroke-width="0" fill="#ff7f00"/>
  <ellipse ry="18.75" rx="7.5" id="svg_139" cy="211.59116" cx="265.34118" stroke-linecap="null" stroke-linejoin="null" stroke-dasharray="null" stroke-width="0" stroke="#000000" fill="#ffffff"/>
  <ellipse stroke="#000000" id="svg_142" ry="9.75" rx="7.5" cy="216.84116" cx="264.59118" stroke-linecap="null" stroke-linejoin="null" stroke-dasharray="null" stroke-width="0" fill="#000000"/>
  <path id="svg_148" d="m275.09118,409.59116c0,0 -8.25,13.5 -8.25,24.75c0,11.25 0,21.75 -0.59118,21.65884c-0.59118,-0.09116 9.59118,-5.90884 9,-6c-0.59118,-0.09116 -3.15882,-16.40884 -0.90882,-21.65884c2.25,-5.25 5.25,-10.5 4.65882,-10.59116c-0.59118,-0.09116 -3.90882,-8.15884 -3.90882,-8.15884z" stroke-linecap="null" stroke-linejoin="null" stroke-dasharray="null" stroke-width="0" stroke="#000000" fill="#000000"/>
  <path stroke="#000000" id="svg_149" d="m300.48035,406.59116c0,0 8.60259,15.68167 8.60259,28.74973c0,13.06806 0,25.26491 0.61645,25.15902c0.61645,-0.10589 -10.00108,-6.86374 -9.38464,-6.96963c0.61645,-0.10589 3.29382,-19.06059 0.94766,-25.15902c-2.34616,-6.09843 -5.47437,-12.19685 -4.85793,-12.30275c0.61645,-0.10589 4.07587,-9.47735 4.07587,-9.47735z" stroke-linecap="null" stroke-linejoin="null" stroke-dasharray="null" stroke-width="0" fill="#000000"/>
  <ellipse id="svg_150" ry="18.75" rx="7.5" cy="211.59116" cx="290.09118" stroke-linecap="null" stroke-linejoin="null" stroke-dasharray="null" stroke-width="0" stroke="#000000" fill="#ffffff"/>
  <ellipse stroke="#000000" id="svg_151" ry="9.75" rx="7.5" cy="217.59116" cx="289.34118" stroke-linecap="null" stroke-linejoin="null" stroke-dasharray="null" stroke-width="0" fill="#000000"/>
  <path stroke="#000000" transform="rotate(-38.796268463134766 233.73507690429685,296.8251647949219) " id="svg_152" d="m250.9626,289.44801c0,0 -18,8.50618 -23.25,8.50618c-5.25,0 -10.5,1.4177 -11.09118,1.36026c-0.59118,-0.05744 1.34118,4.31053 0.75,4.25309c-0.59118,-0.05744 4.34118,1.9477 13.34118,-0.88769c9,-2.83539 14.25,-5.19822 13.65882,-5.25566c-0.59118,-0.05744 6.59118,-7.97617 6.59118,-7.97617z" stroke-linecap="null" stroke-linejoin="null" stroke-dasharray="null" stroke-width="0" fill="#000000"/>
  <path stroke="#000000" id="svg_163" transform="rotate(-99.99750518798828 340.8730163574219,300.0318603515625) " d="m360.18098,292.13976c0,0 -20.17374,9.09994 -26.05775,9.09994c-5.88401,0 -11.76801,1.51666 -12.43059,1.45521c-0.66257,-0.06145 1.50315,4.61142 0.84057,4.54997c-0.66257,-0.06145 4.86544,2.08366 14.9523,-0.94966c10.08687,-3.03331 15.97088,-5.56107 15.3083,-5.62252c-0.66257,-0.06145 7.38715,-8.53294 7.38715,-8.53294z" stroke-linecap="null" stroke-linejoin="null" stroke-dasharray="null" stroke-width="0" fill="#000000"/>
 </g>
</svg>
