<svg width="640" height="479.99999999999994" xmlns="http://www.w3.org/2000/svg" xmlns:svg="http://www.w3.org/2000/svg">
 <!-- Created with SVG-edit - http://svg-edit.googlecode.com/ -->
 <g>
  <title>Layer 1</title>
  <rect stroke="#000000" height="34.59259" width="637.00001" y="437.85186" x="8.07407" stroke-linecap="null" stroke-linejoin="null" stroke-dasharray="null" stroke-width="0" fill="#000000" id="svg_104"/>
  <rect id="svg_67" height="314" width="638.74075" y="1" x="2" stroke-linecap="null" stroke-linejoin="null" stroke-dasharray="null" stroke-width="0" fill="#c9fce2" stroke="#000000"/>
  <rect id="svg_37" height="34" width="635.99999" y="395.55555" x="5.44444" stroke-linecap="null" stroke-linejoin="null" stroke-dasharray="null" stroke-width="0" fill="#000000" stroke="#000000"/>
  <rect stroke="#000000" id="svg_36" height="26" width="640.99996" y="357.78472" x="2.89584" stroke-linecap="null" stroke-linejoin="null" stroke-dasharray="null" stroke-width="0" fill="#000000"/>
  <rect id="svg_35" height="18.125" width="640.99998" y="334.5625" x="-0.56251" stroke-linecap="null" stroke-linejoin="null" stroke-dasharray="null" stroke-width="0" fill="#000000" stroke="#000000"/>
  <rect id="svg_31" height="16.0625" width="641.99997" y="306.94922" x="-1.98438" stroke-linecap="null" stroke-linejoin="null" stroke-dasharray="null" stroke-width="0" fill="#000000" stroke="#000000"/>
  <rect stroke="#000000" id="svg_44" height="168.66668" width="43.99994" y="307.33333" x="586" stroke-linecap="null" stroke-linejoin="null" stroke-dasharray="null" stroke-width="0" fill="#ffffff"/>
  <rect stroke="#000000" id="svg_43" height="160.88889" width="43.99994" y="312.88889" x="492.44445" stroke-linecap="null" stroke-linejoin="null" stroke-dasharray="null" stroke-width="0" fill="#ffffff"/>
  <rect id="svg_42" height="187" width="43.99994" y="283" x="406" stroke-linecap="null" stroke-linejoin="null" stroke-dasharray="null" stroke-width="0" fill="#ffffff" stroke="#000000"/>
  <rect id="svg_41" height="185.99999" width="43.99994" y="282" x="316" stroke-linecap="null" stroke-linejoin="null" stroke-dasharray="null" stroke-width="0" fill="#ffffff" stroke="#000000"/>
  <rect id="svg_40" height="181.77777" width="43.99994" y="285" x="224" stroke-linecap="null" stroke-linejoin="null" stroke-dasharray="null" stroke-width="0" fill="#ffffff" stroke="#000000"/>
  <rect id="svg_63" stroke="#000000" height="22" width="51" y="322.16667" x="221.16667" stroke-linecap="null" stroke-linejoin="null" stroke-dasharray="null" stroke-width="0" fill="#000000"/>
  <rect id="svg_64" stroke="#000000" height="22" width="51" y="322.16667" x="311.16667" stroke-linecap="null" stroke-linejoin="null" stroke-dasharray="null" stroke-width="0" fill="#000000"/>
  <rect id="svg_65" stroke="#000000" height="22" width="51" y="321.41667" x="403.41667" stroke-linecap="null" stroke-linejoin="null" stroke-dasharray="null" stroke-width="0" fill="#000000"/>
  <rect id="svg_39" height="162" width="43.99994" y="306" x="124" stroke-linecap="null" stroke-linejoin="null" stroke-dasharray="null" stroke-width="0" fill="#ffffff" stroke="#000000"/>
  <path stroke="#000000" id="svg_69" d="m175.49045,303.71142c0,0 8.53233,10.39352 -2.82273,10.73244c-11.35506,0.33892 -6.54359,-6.10054 -4.4907,-6.89136c2.05289,-0.79081 1.86043,-0.56486 3.4001,-4.85784c1.53967,-4.29297 3.91333,1.01676 3.91333,1.01676z" stroke-linecap="null" stroke-linejoin="null" stroke-dasharray="null" stroke-width="0.1" fill="#ffaad4"/>
  <path stroke="#000000" id="svg_68" transform="rotate(94.68254852294922 176.690673828125,273.5451354980469) " d="m195.64284,270.41904c0,0 46.06676,8.06964 -15.24015,8.33277c-61.3069,0.26314 -35.32939,-4.73652 -24.24567,-5.35052c11.08374,-0.61399 10.04464,-0.43857 18.35744,-3.77168c8.31282,-3.33311 21.12838,0.78942 21.12838,0.78942l0,0.00001z" stroke-linecap="null" stroke-linejoin="null" stroke-dasharray="null" stroke-width="0" fill="#ffaad4"/>
  <ellipse stroke="#000000" fill="#ffaaff" stroke-dasharray="null" stroke-linejoin="null" stroke-linecap="null" cx="332.53459" cy="204.06532" id="svg_6" rx="201.56292" ry="148.06637" transform="rotate(1.585239291191101 332.5345764160195,204.0653228759774) "/>
  <rect fill="#c9fce2" stroke-width="0" stroke-dasharray="null" stroke-linejoin="null" stroke-linecap="null" x="116.50677" y="43.24177" width="437.09249" height="177.77471" transform="rotate(-3.5340118408203125 335.053009033203,132.12911987304668) " id="svg_8" stroke="#000000"/>
  <rect fill="#bfbfbf" stroke-width="0" stroke-dasharray="null" stroke-linejoin="null" stroke-linecap="null" x="500" y="22.75" width="2.91668" height="173.33333" id="svg_91" stroke="#000000"/>
  <ellipse stroke="#000000" fill="#ffffff" cx="339.91502" cy="227.06575" rx="227.17473" ry="39.99715" transform="rotate(-1.0663634538650513 339.91500854492233,227.06575012207028) " id="svg_2"/>
  <ellipse stroke="#000000" fill="#ffffff" cx="337.1789" cy="217.74779" id="svg_1" rx="204.75" ry="29.70921" transform="rotate(-1.093762993812561 337.1788940429663,217.7477874755866) "/>
  <ellipse stroke="#92fcfc" fill="#5ef9f9" stroke-width="5" cx="337.90078" cy="220.41446" rx="195.01787" ry="21.88266" transform="rotate(-0.93995201587677 337.90078735351653,220.41445922851676) " id="svg_9"/>
  <ellipse fill="#ffaa56" stroke-width="0" stroke-dasharray="null" stroke-linejoin="null" stroke-linecap="null" cx="343.0706" cy="211.1719" rx="35.07523" ry="19.125" id="svg_34" stroke="#ffaa56"/>
  <ellipse fill="#ffff00" stroke-width="0.1" stroke-dasharray="null" stroke-linejoin="null" stroke-linecap="null" cx="318.61287" cy="188.34159" rx="15.61411" ry="14.91504" id="svg_12" transform="rotate(51.97122573852539 318.6128845214844,188.34158325195312) " stroke="#ffaa56"/>
  <path fill="#e2650b" stroke-width="0" stroke-dasharray="null" stroke-linejoin="null" stroke-linecap="null" d="m312.96972,192.90894c0,0 -5.67,1.79129 -8.35961,-0.68896c-2.68961,-2.48025 -5.23384,-2.34246 -4.36154,0.68896c0.87231,3.03142 6.03346,7.16517 8.86846,7.44076c2.835,0.27558 5.23384,-2.20467 5.52461,-2.75584c0.29077,-0.55117 -1.67192,-4.68492 -1.67192,-4.68492z" stroke="#000000" transform="rotate(-68.77131652832031 307.3724975585938,195.42846679687503) " id="svg_33"/>
  <path fill="#ff7f00" stroke-width="0" stroke-dasharray="null" stroke-linejoin="null" stroke-linecap="null" d="m312.72129,192.59748c0,0 -5.67,1.79129 -8.35961,-0.68896c-2.68961,-2.48025 -5.23384,-2.34246 -4.36154,0.68896c0.87231,3.03142 6.03346,7.16517 8.86846,7.44076c2.835,0.27558 5.23384,-2.20467 5.52461,-2.75584c0.29077,-0.55117 -1.67192,-4.68492 -1.67192,-4.68492z" id="svg_21" stroke="#000000" transform="rotate(-68.77131652832031 307.1240844726563,195.11700439453122) "/>
  <polygon id="svg_25" fill="none"/>
  <ellipse fill="#ffff00" stroke-width="0" stroke-dasharray="null" stroke-linejoin="null" stroke-linecap="null" cx="312.15052" cy="189.83877" id="svg_16" rx="5.40824" ry="2.9283" transform="rotate(43.555824279785156 312.1505126953126,189.8387603759765) " stroke="#000000"/>
  <ellipse id="svg_4" ry="1.73529" rx="0.84677" cy="188.00342" cx="316.87507" stroke-linecap="null" stroke-linejoin="null" stroke-dasharray="null" stroke-width="0" fill="#000000" stroke="#000000"/>
  <ellipse fill="#ffff00" stroke-width="0" stroke-dasharray="null" stroke-linejoin="null" stroke-linecap="null" cx="307.11511" cy="188.09568" rx="5.19991" ry="2.60265" transform="rotate(-62.467559814453125 307.1150817871093,188.09567260742185) " id="svg_18" stroke="#000000"/>
  <ellipse ry="1.73529" rx="0.6549" id="svg_3" cy="187.79484" cx="305.27856" stroke-linecap="null" stroke-linejoin="null" stroke-dasharray="null" stroke-width="0" fill="#000000" stroke="#000000"/>
  <ellipse fill="#ffff00" stroke-width="0" stroke-dasharray="null" stroke-linejoin="null" stroke-linecap="null" cx="343.22139" cy="211.58718" id="svg_10" rx="34.875" ry="19.125" stroke="#ffaa56"/>
  <ellipse fill="#aaffff" stroke-width="0" stroke-dasharray="null" stroke-linejoin="null" stroke-linecap="null" cx="342.44925" cy="217.3705" id="svg_22" rx="43.90137" ry="5.15292" transform="rotate(-2.663031816482544 342.4492492675778,217.37049865722608) " stroke="#000000"/>
  <rect fill="#5ef9f9" stroke-width="0" stroke-dasharray="null" stroke-linejoin="null" stroke-linecap="null" x="308.20349" y="221.7657" width="74.76091" height="18.55483" id="svg_11" transform="rotate(-3.5762856006622314 345.58395385742256,231.04312133789008) " stroke="#56ffff"/>
  <ellipse fill="#c4e0fc" stroke-width="0" stroke-dasharray="null" stroke-linejoin="null" stroke-linecap="null" cx="343.14128" cy="218.67782" rx="58.48485" ry="6.85543" transform="rotate(-2.663031816482544 343.14129638671847,218.67782592773452) " id="svg_28" stroke="#000000"/>
  <path fill="#ffff00" stroke-width="0" stroke-dasharray="null" stroke-linejoin="null" stroke-linecap="null" d="m364.24677,218.34199l0,-14.23049l13.73788,14.23049l-13.73788,0z" id="svg_20" transform="rotate(-77.53276824951172 371.1156921386719,211.2267608642578) " stroke="#000000"/>
  <ellipse fill="#aaffff" stroke-width="0" stroke-dasharray="null" stroke-linejoin="null" stroke-linecap="null" cx="343.52354" cy="218.12164" rx="54.99762" ry="4.74451" transform="rotate(-2.663031816482544 343.5235290527338,218.12165832519474) " id="svg_27" stroke="#000000"/>
  <ellipse fill="#b9d8f7" stroke-width="0" stroke-dasharray="null" stroke-linejoin="null" stroke-linecap="null" cx="342.04557" cy="217.832" rx="48.69052" ry="4.57591" transform="rotate(-2.663031816482544 342.04556274414017,217.83200073242244) " id="svg_26" stroke="#000000"/>
  <ellipse fill="#aaffff" stroke-width="0" stroke-dasharray="null" stroke-linejoin="null" stroke-linecap="null" cx="343.55432" cy="217.02338" rx="42.82914" ry="3.28547" transform="rotate(-2.663031816482544 343.5543212890616,217.02339172363264) " id="svg_23" stroke="#000000"/>
  <ellipse fill="#ffff00" stroke-width="0" stroke-dasharray="null" stroke-linejoin="null" stroke-linecap="null" cx="343.44272" cy="214.05375" rx="34.75981" ry="4.55527" id="svg_24" transform="rotate(-2.0853896141052246 343.4427490234373,214.05375671386724) " stroke="#56ffff"/>
  <path fill="#ffff00" stroke-width="0" stroke-dasharray="null" stroke-linejoin="null" stroke-linecap="null" d="m373.06043,211.96489l0,-6.48196l7.22319,6.48196l-7.22319,0z" transform="rotate(-49.54206848144531 376.6720275878907,208.72392272949227) " id="svg_29" stroke="#000000"/>
  <path stroke="#000000" id="svg_30" transform="rotate(94.68254852294922 185.1783294677734,309.7783203125) " d="m204.13051,303.73727c0,0 46.06676,15.59424 -15.24015,16.10275c-61.3069,0.50851 -35.32939,-9.15314 -24.24567,-10.33966c11.08374,-1.18651 10.04464,-0.84751 18.35744,-7.28861c8.31282,-6.44109 21.12838,1.52552 21.12838,1.52552z" stroke-linecap="null" stroke-linejoin="null" stroke-dasharray="null" fill="#ffaad4"/>
  <path stroke="#000000" transform="rotate(94.68254852294922 186.49284362792974,307.86550903320307) " id="svg_15" d="m205.44503,301.18438c0,0 46.06676,17.24646 -15.24015,17.80884c-61.30691,0.56238 -35.32939,-10.12292 -24.24567,-11.43515c11.08374,-1.31223 10.04464,-0.9373 18.35744,-8.06084c8.31282,-7.12353 21.12838,1.68715 21.12838,1.68715z" stroke-linecap="null" stroke-linejoin="null" stroke-dasharray="null" stroke-width="0" fill="#ffaad4"/>
  <rect id="svg_66" stroke="#000000" height="22" width="51" y="321.41666" x="490.08333" stroke-linecap="null" stroke-linejoin="null" stroke-dasharray="null" stroke-width="0" fill="#000000"/>
  <path stroke="#000000" id="svg_17" d="m485.32527,323.85427c0,0 -24.30362,22.99217 8.0403,23.74192c32.34392,0.74974 18.63887,-13.49541 12.79138,-15.24482c-5.84749,-1.7494 -5.29929,-1.24957 -9.68491,-10.74634c-4.38562,-9.49677 -11.14678,2.24924 -11.14678,2.24924l0.00001,0z" stroke-linecap="null" stroke-linejoin="null" stroke-dasharray="null" stroke-width="0" fill="#ffaad4"/>
  <path stroke="#000000" id="svg_19" transform="rotate(94.68254852294922 486.7824096679688,304.55981445312494) " d="m505.73459,312.23103c0,0 46.06676,-19.80226 -15.24015,-20.44798c-61.3069,-0.64572 -35.32939,11.62306 -24.24567,13.12976c11.08374,1.50669 10.04464,1.0762 18.35744,9.2554c8.31282,8.17919 21.12838,-1.93717 21.12838,-1.93717l0,-0.00001z" stroke-linecap="null" stroke-linejoin="null" stroke-dasharray="null" fill="#ffaad4"/>
  <rect id="svg_62" stroke="#000000" height="22" width="51" y="318.97917" x="119.54167" stroke-linecap="null" stroke-linejoin="null" stroke-dasharray="null" stroke-width="0" fill="#000000"/>
  <path stroke="#000000" id="svg_14" d="m192.65958,321.55652c0,0 28.16103,27.63283 -9.31644,28.5339c-37.47747,0.90107 -21.59719,-16.21927 -14.8216,-18.32177c6.77559,-2.1025 6.14038,-1.50178 11.22207,-12.91534c5.0817,-11.41356 12.91597,2.70321 12.91597,2.70321z" stroke-linecap="null" stroke-linejoin="null" stroke-dasharray="null" stroke-width="0" fill="#ffaad4"/>
  <rect id="svg_38" height="159.99999" width="43.99994" y="307" x="38" stroke-linecap="null" stroke-linejoin="null" stroke-dasharray="null" stroke-width="0" fill="#ffffff" stroke="#000000"/>
  <rect stroke="#000000" id="svg_45" height="22" width="51" y="318.625" x="33.4375" stroke-linecap="null" stroke-linejoin="null" stroke-dasharray="null" stroke-width="0" fill="#000000"/>
  <rect stroke="#000000" id="svg_46" height="26" width="46.1875" y="368" x="36" stroke-linecap="null" stroke-linejoin="null" stroke-dasharray="null" stroke-width="0" fill="#000000"/>
  <rect stroke="#000000" id="svg_47" height="33" width="51" y="402.33333" x="118" stroke-linecap="null" stroke-linejoin="null" stroke-dasharray="null" stroke-width="0" fill="#000000"/>
  <rect stroke="#000000" id="svg_48" height="34" width="47" y="406.22223" x="36.88889" stroke-linecap="null" stroke-linejoin="null" stroke-dasharray="null" stroke-width="0" fill="#000000"/>
  <rect id="svg_49" stroke="#000000" height="33" width="51" y="406.33333" x="400.22222" stroke-linecap="null" stroke-linejoin="null" stroke-dasharray="null" stroke-width="0" fill="#000000"/>
  <rect id="svg_50" stroke="#000000" height="33" width="51" y="409.55555" x="314.77778" stroke-linecap="null" stroke-linejoin="null" stroke-dasharray="null" stroke-width="0" fill="#000000"/>
  <rect id="svg_51" stroke="#000000" height="33" width="51" y="408.88889" x="219.22222" stroke-linecap="null" stroke-linejoin="null" stroke-dasharray="null" stroke-width="0" fill="#000000"/>
  <rect id="svg_52" stroke="#000000" height="26" width="46.1875" y="366.66667" x="122.66667" stroke-linecap="null" stroke-linejoin="null" stroke-dasharray="null" stroke-width="0" fill="#000000"/>
  <rect id="svg_53" stroke="#000000" height="26" width="46.1875" y="368" x="403.99999" stroke-linecap="null" stroke-linejoin="null" stroke-dasharray="null" stroke-width="0" fill="#000000"/>
  <rect id="svg_54" stroke="#000000" height="26" width="46.1875" y="369.33334" x="221.33333" stroke-linecap="null" stroke-linejoin="null" stroke-dasharray="null" stroke-width="0" fill="#000000"/>
  <rect id="svg_55" stroke="#000000" height="26" width="46.1875" y="368" x="314.66667" stroke-linecap="null" stroke-linejoin="null" stroke-dasharray="null" stroke-width="0" fill="#000000"/>
  <rect id="svg_56" stroke="#000000" height="33" width="51" y="408.11111" x="485.55556" stroke-linecap="null" stroke-linejoin="null" stroke-dasharray="null" stroke-width="0" fill="#000000"/>
  <rect id="svg_57" stroke="#000000" height="33" width="51" y="405" x="579.77778" stroke-linecap="null" stroke-linejoin="null" stroke-dasharray="null" stroke-width="0" fill="#000000"/>
  <rect id="svg_59" height="26" width="49.74305" y="363.11111" x="489.33333" stroke-linecap="null" stroke-linejoin="null" stroke-dasharray="null" stroke-width="0" fill="#000000" stroke="#000000"/>
  <rect stroke="#000000" id="svg_60" height="23.33333" width="46.1875" y="320" x="583.99999" stroke-linecap="null" stroke-linejoin="null" stroke-dasharray="null" stroke-width="0" fill="#000000"/>
  <rect id="svg_61" stroke="#000000" height="26" width="46.1875" y="365.33334" x="583.99999" stroke-linecap="null" stroke-linejoin="null" stroke-dasharray="null" stroke-width="0" fill="#000000"/>
  <rect stroke="#000000" id="svg_72" height="103.50001" width="6.1875" y="234.37502" x="51.31245" stroke-linecap="null" stroke-linejoin="null" stroke-dasharray="null" stroke-width="0" fill="#007fff"/>
  <ellipse stroke="#000000" ry="6.1875" rx="50.34375" id="svg_70" cy="228.75002" cx="56.6562" stroke-linecap="null" stroke-linejoin="null" stroke-dasharray="null" fill="#007fff"/>
  <ellipse id="svg_71" stroke="#000000" ry="6.1875" rx="50.34375" cy="227.06252" cx="56.0937" stroke-linecap="null" stroke-linejoin="null" stroke-dasharray="null" fill="#007fff"/>
  <rect stroke="#000000" id="svg_73" height="101.91798" width="1.23047" y="235.50002" x="55.46088" stroke-linecap="null" stroke-linejoin="null" stroke-dasharray="null" stroke-width="0" fill="#0000ff"/>
  <rect stroke="#000000" transform="rotate(42.111122131347656 47.950683593750185,337.5610961914062) " id="svg_74" height="14.55469" width="3.95022" y="330.28375" x="45.97557" stroke-linecap="null" stroke-linejoin="null" stroke-dasharray="null" stroke-width="0" fill="#007fff"/>
  <rect id="svg_75" stroke="#000000" transform="rotate(-42.68626022338867 61.23974609375008,337.5610961914063) " height="14.55469" width="3.95022" y="330.28375" x="59.26463" stroke-linecap="null" stroke-linejoin="null" stroke-dasharray="null" stroke-width="0" fill="#007fff"/>
  <rect id="svg_76" height="13.07813" width="12.88037" y="210.53024" x="68.96755" stroke-linecap="null" stroke-linejoin="null" stroke-dasharray="null" stroke-width="0" fill="#ffffaa" stroke="#000000"/>
  <ellipse transform="rotate(-178.3955078125 75.70703125,223.75628662109372) " ry="1.35562" rx="6.60547" id="svg_77" cy="223.7563" cx="75.70703" stroke-linecap="null" stroke-linejoin="null" stroke-dasharray="null" stroke-width="0" fill="#ffd4aa" stroke="#000000"/>
  <ellipse stroke="#000000" id="svg_78" transform="rotate(-178.3955078125 75.20629119873048,210.75646972656247) " ry="1.35562" rx="7.04693" cy="210.75647" cx="75.20629" stroke-linecap="null" stroke-linejoin="null" stroke-dasharray="null" stroke-width="0" fill="#ff007f"/>
  <path stroke="#000000" id="svg_79" d="m75.49968,211.32785c0,0 -5.69035,-7.88388 -2.99491,-10.03405c2.69542,-2.15015 4.49237,-6.45045 4.47432,-6.46662c-0.01806,-0.01617 2.71349,3.24141 1.51553,7.18335c-1.19798,3.94196 -2.99493,9.31733 -2.99493,9.31733l-0.00001,-0.00001z" stroke-linecap="null" stroke-linejoin="null" stroke-dasharray="null" stroke-width="0" fill="#ff7f00"/>
  <path stroke="#000000" transform="rotate(5.9582624435424805 75.38400268554732,204.92259216308588) " id="svg_80" d="m75.49256,209.81143c0,0 -2.93534,-4.67166 -1.54491,-5.94577c1.39042,-1.27409 2.31737,-3.82227 2.30806,-3.83185c-0.00931,-0.00958 1.39974,1.92072 0.78178,4.25655c-0.61797,2.33584 -1.54492,5.52107 -1.54492,5.52107l-0.00001,0z" stroke-linecap="null" stroke-linejoin="null" stroke-dasharray="null" stroke-width="0" fill="#ffff00"/>
  <rect id="svg_81" height="28.23926" width="16.13672" y="193.9453" x="35.84372" stroke-linecap="null" stroke-linejoin="null" stroke-dasharray="null" stroke-width="0" fill="#007f00" stroke="#000000"/>
  <ellipse stroke="#000000" ry="4.03418" rx="8.18701" id="svg_82" cy="221.94726" cx="43.79342" stroke-linecap="null" stroke-linejoin="null" stroke-dasharray="null" stroke-width="0" fill="#007f00"/>
  <ellipse stroke="#000000" id="svg_84" ry="5.10205" rx="8.06836" cy="193.35204" cx="43.91208" stroke-linecap="null" stroke-linejoin="null" stroke-dasharray="null" stroke-width="0" fill="#007f00"/>
  <rect stroke="#000000" id="svg_85" height="11.39062" width="4.27148" y="179.46972" x="41.53903" stroke-linecap="null" stroke-linejoin="null" stroke-dasharray="null" stroke-width="0" fill="#007f00"/>
  <ellipse stroke="#000000" id="svg_86" ry="1.89844" rx="3.55957" cy="178.5205" cx="43.67477" stroke-linecap="null" stroke-linejoin="null" stroke-dasharray="null" stroke-width="0" fill="#007f00"/>
  <path stroke="#000000" id="svg_87" d="m88.54307,199.06721c0.10594,2.80343 0.50816,5.37176 1.09863,7.62695l1.09863,-3.42773l-0.31738,-0.23438l-0.43945,-0.3125l0.22949,-0.80078l0.80566,-2.85156l-2.47559,0l0.00001,0zm3.37402,0l-0.7959,2.8125l0.3418,0.24414l0.46387,0.33203l-0.26367,0.82031l-1.58203,4.95117c1.13827,3.45538 2.80282,5.8408 4.71192,6.35742l0,10.10742l-3.125,0l0,2.5l7.8125,0l0,-2.5l-3.125,0l0,-10.10742c3.33033,-0.89063 5.94325,-7.40011 6.25,-15.51758l-10.68848,0l0,0l-0.00001,0.00001z" stroke-linecap="null" stroke-linejoin="null" stroke-dasharray="null" stroke-width="0" fill="#d4aaff"/>
  <path transform="rotate(94.68254852294922 486.2284240722656,304.8543701171875) " d="m507.75211,312.19506c0,0 52.3173,-18.94909 -17.308,-19.56699c-69.62529,-0.6179 -40.12304,11.12229 -27.53543,12.56407c12.58763,1.44178 11.40754,1.02983 20.84826,8.85664c9.44074,7.82679 23.99517,-1.85371 23.99517,-1.85371l0,-0.00001z" stroke-linecap="null" stroke-linejoin="null" stroke-dasharray="null" stroke-width="0" fill="#ffaad4" id="svg_5" stroke="#000000"/>
  <rect fill="#ffaad4" stroke-width="0" stroke-dasharray="null" stroke-linejoin="null" stroke-linecap="null" x="486.68746" y="327.18752" width="11.8125" height="11.8125" id="svg_7" stroke="#000000"/>
  <rect fill="#bfbfbf" stroke-width="0" stroke-dasharray="null" stroke-linejoin="null" stroke-linecap="null" x="465.49997" y="22" width="37.41664" height="2.58334" id="svg_92" stroke="#000000"/>
  <ellipse fill="#bfbfbf" stroke-width="0" stroke-dasharray="null" stroke-linejoin="null" stroke-linecap="null" cx="466.06253" cy="38.75" id="svg_94" rx="25.25" ry="3.75" stroke="#000000"/>
  <rect fill="#bfbfbf" stroke-width="0" stroke-dasharray="null" stroke-linejoin="null" stroke-linecap="null" x="459.58792" y="28.44692" width="13.88298" height="1.60866" id="svg_95" transform="rotate(87.26664733886719 466.5294189453125,29.25124549865723) " stroke="#000000"/>
  <rect stroke="#000000" opacity="0.5" id="svg_58" fill="#7f7f7f" stroke-width="0" stroke-dasharray="null" stroke-linejoin="null" stroke-linecap="null" x="502.13574" y="22.03809" width="0.54364" height="173.33333"/>
  <rect stroke="#000000" opacity="0.4" id="svg_83" fill="#7f7f7f" stroke-width="0" stroke-dasharray="null" stroke-linejoin="null" stroke-linecap="null" x="488.27836" y="173.48434" width="24.46875" height="13.39453"/>
  <ellipse stroke="#000000" id="svg_102" opacity="0.6" fill="#7f7f7f" stroke-width="0" stroke-dasharray="null" stroke-linejoin="null" stroke-linecap="null" cx="491.61764" cy="174.45996" rx="8.5549" ry="2.86807"/>
  <rect fill="#bfbfbf" stroke="#000000" stroke-width="0" stroke-dasharray="null" stroke-linejoin="null" stroke-linecap="null" x="488.51566" y="173.48434" width="21.9375" height="11.8125" id="svg_96"/>
  <rect stroke="#000000" fill="#bfbfbf" stroke-width="0" stroke-dasharray="null" stroke-linejoin="null" stroke-linecap="null" x="481.11719" y="177.90332" width="17.63965" height="4.64063" id="svg_98"/>
  <rect stroke="#000000" fill="#bfbfbf" stroke-width="0" stroke-dasharray="null" stroke-linejoin="null" stroke-linecap="null" x="477.63398" y="181.20728" width="12.03297" height="5.71183" id="svg_99" transform="rotate(90.68073272705078 483.6504516601562,184.06320190429688) "/>
  <ellipse fill="#bfbfbf" stroke-width="0" stroke-dasharray="null" stroke-linejoin="null" stroke-linecap="null" cx="490.90621" cy="174.18752" id="svg_100" rx="7.03125" ry="2.25" stroke="#000000"/>
  <ellipse stroke="#000000" id="svg_32" opacity="0.6" fill="#7f7f7f" stroke-width="0" stroke-dasharray="null" stroke-linejoin="null" stroke-linecap="null" cx="510.63909" cy="173.99277" rx="9.28906" ry="2.80133"/>
  <ellipse fill="#bfbfbf" stroke-width="0" stroke-dasharray="null" stroke-linejoin="null" stroke-linecap="null" cx="510.03121" cy="174.18752" rx="8.71875" ry="2.25" id="svg_101" stroke="#000000"/>
  <ellipse opacity="0.6" stroke="#000000" id="svg_13" fill="#7f7f7f" stroke-width="0" stroke-dasharray="null" stroke-linejoin="null" stroke-linecap="null" cx="466.06253" cy="40.36719" rx="25.25" ry="2.13281"/>
  <rect stroke="#000000" opacity="0.5" id="svg_88" fill="#7f7f7f" stroke-width="0" stroke-dasharray="null" stroke-linejoin="null" stroke-linecap="null" x="486.61228" y="181.37199" width="9.87905" height="1.06072"/>
  <rect stroke="#000000" id="svg_90" opacity="0.5" fill="#7f7f7f" stroke-width="0" stroke-dasharray="null" stroke-linejoin="null" stroke-linecap="null" x="486.02098" y="181.30168" width="0.61549" height="8.67713"/>
  <rect stroke="#000000" id="svg_93" opacity="0.8" fill="#ffffff" stroke-width="0" stroke-dasharray="null" stroke-linejoin="null" stroke-linecap="null" x="481.09354" y="178.30298" width="0.38224" height="11.28163"/>
  <rect stroke="#000000" id="svg_97" opacity="0.8" fill="#ffffff" stroke-width="0" stroke-dasharray="null" stroke-linejoin="null" stroke-linecap="null" x="481.14972" y="178.07774" width="14.1374" height="0.35681"/>
 </g>
</svg>
