<svg width="640" height="479.99999999999994" xmlns="http://www.w3.org/2000/svg" xmlns:svg="http://www.w3.org/2000/svg">
 <!-- Created with SVG-edit - http://svg-edit.googlecode.com/ -->
 <g>
  <title>Layer 1</title>
  <rect stroke="#000000" id="svg_104" fill="#000000" stroke-width="0" stroke-dasharray="null" stroke-linejoin="null" stroke-linecap="null" x="8.07407" y="450.2963" width="637.00001" height="22.14815"/>
  <rect stroke="#000000" fill="#c9fce2" stroke-width="0" stroke-dasharray="null" stroke-linejoin="null" stroke-linecap="null" x="2" y="1" width="638.74075" height="314" id="svg_67"/>
  <rect stroke="#000000" fill="#000000" stroke-width="0" stroke-dasharray="null" stroke-linejoin="null" stroke-linecap="null" x="1.33333" y="397.11111" width="635.99999" height="34" id="svg_37"/>
  <rect fill="#000000" stroke-width="0" stroke-dasharray="null" stroke-linejoin="null" stroke-linecap="null" x="-1.10416" y="357.89583" width="640.99996" height="26" id="svg_36" stroke="#000000"/>
  <rect stroke="#000000" fill="#000000" stroke-width="0" stroke-dasharray="null" stroke-linejoin="null" stroke-linecap="null" x="-0.56251" y="334.5625" width="640.99998" height="18.125" id="svg_35"/>
  <rect stroke="#000000" fill="#000000" stroke-width="0" stroke-dasharray="null" stroke-linejoin="null" stroke-linecap="null" x="-1.98438" y="306.94922" width="641.99997" height="16.0625" id="svg_31"/>
  <rect fill="#ffffff" stroke-width="0" stroke-dasharray="null" stroke-linejoin="null" stroke-linecap="null" x="586" y="307.33333" width="43.99994" height="168.66668" id="svg_44" stroke="#000000"/>
  <rect fill="#ffffff" stroke-width="0" stroke-dasharray="null" stroke-linejoin="null" stroke-linecap="null" x="492.44445" y="312.88889" width="43.99994" height="160.88889" id="svg_43" stroke="#000000"/>
  <rect stroke="#000000" fill="#ffffff" stroke-width="0" stroke-dasharray="null" stroke-linejoin="null" stroke-linecap="null" x="406" y="283" width="43.99994" height="187" id="svg_42"/>
  <rect stroke="#000000" fill="#ffffff" stroke-width="0" stroke-dasharray="null" stroke-linejoin="null" stroke-linecap="null" x="316" y="282" width="43.99994" height="185.99999" id="svg_41"/>
  <rect stroke="#000000" fill="#ffffff" stroke-width="0" stroke-dasharray="null" stroke-linejoin="null" stroke-linecap="null" x="224" y="285" width="43.99994" height="181.77777" id="svg_40"/>
  <rect fill="#000000" stroke-width="0" stroke-dasharray="null" stroke-linejoin="null" stroke-linecap="null" x="221.16667" y="322.16667" width="51" height="22" stroke="#000000" id="svg_63"/>
  <rect fill="#000000" stroke-width="0" stroke-dasharray="null" stroke-linejoin="null" stroke-linecap="null" x="311.16667" y="322.16667" width="51" height="22" stroke="#000000" id="svg_64"/>
  <rect fill="#000000" stroke-width="0" stroke-dasharray="null" stroke-linejoin="null" stroke-linecap="null" x="403.41667" y="321.41667" width="51" height="22" stroke="#000000" id="svg_65"/>
  <rect stroke="#000000" fill="#ffffff" stroke-width="0" stroke-dasharray="null" stroke-linejoin="null" stroke-linecap="null" x="124" y="306" width="43.99994" height="162" id="svg_39"/>
  <path fill="#ffaad4" stroke-width="0.1" stroke-dasharray="null" stroke-linejoin="null" stroke-linecap="null" d="m175.49045,303.71142c0,0 8.53233,10.39352 -2.82273,10.73244c-11.35506,0.33892 -6.54359,-6.10054 -4.4907,-6.89136c2.05289,-0.79081 1.86043,-0.56486 3.4001,-4.85784c1.53967,-4.29297 3.91333,1.01676 3.91333,1.01676z" id="svg_69" stroke="#000000"/>
  <path fill="#ffaad4" stroke-width="0" stroke-dasharray="null" stroke-linejoin="null" stroke-linecap="null" d="m195.64284,270.41904c0,0 46.06676,8.06964 -15.24015,8.33277c-61.3069,0.26314 -35.32939,-4.73652 -24.24567,-5.35052c11.08374,-0.61399 10.04464,-0.43857 18.35744,-3.77168c8.31282,-3.33311 21.12838,0.78942 21.12838,0.78942l0,0.00001z" transform="rotate(94.68254852294922 176.690673828125,273.5451354980469) " id="svg_68" stroke="#000000"/>
  <ellipse transform="rotate(1.585239291191101 332.5345764160195,204.0653228759774) " ry="148.06637" rx="201.56292" id="svg_6" cy="204.06532" cx="332.53459" stroke-linecap="null" stroke-linejoin="null" stroke-dasharray="null" fill="#ffaaff" stroke="#000000"/>
  <rect stroke="#000000" id="svg_8" transform="rotate(-3.5340118408203125 335.053009033203,132.12911987304668) " height="177.77471" width="437.09249" y="43.24177" x="116.50677" stroke-linecap="null" stroke-linejoin="null" stroke-dasharray="null" stroke-width="0" fill="#c9fce2"/>
  <rect stroke="#000000" id="svg_91" height="173.33333" width="2.91668" y="22.75" x="500" stroke-linecap="null" stroke-linejoin="null" stroke-dasharray="null" stroke-width="0" fill="#bfbfbf"/>
  <ellipse stroke="#000000" id="svg_2" transform="rotate(-1.0663634538650513 339.91500854492233,227.06575012207028) " ry="39.99715" rx="227.17473" cy="227.06575" cx="339.91502" fill="#ffffff"/>
  <ellipse transform="rotate(-1.093762993812561 337.1788940429663,217.7477874755866) " ry="29.70921" rx="204.75" id="svg_1" cy="217.74779" cx="337.1789" fill="#ffffff" stroke="#000000"/>
  <ellipse stroke="#92fcfc" id="svg_9" transform="rotate(-0.93995201587677 337.90078735351653,220.41445922851676) " ry="21.88266" rx="195.01787" cy="220.41446" cx="337.90078" stroke-width="5" fill="#5ef9f9"/>
  <ellipse stroke="#ffaa56" id="svg_34" ry="19.125" rx="35.07523" cy="211.1719" cx="343.0706" stroke-linecap="null" stroke-linejoin="null" stroke-dasharray="null" stroke-width="0" fill="#ffaa56"/>
  <ellipse stroke="#ffaa56" transform="rotate(51.97122573852539 318.6128845214844,188.34158325195312) " id="svg_12" ry="14.91504" rx="15.61411" cy="188.34159" cx="318.61287" stroke-linecap="null" stroke-linejoin="null" stroke-dasharray="null" stroke-width="0.1" fill="#ffff00"/>
  <path id="svg_33" transform="rotate(-68.77131652832031 307.3724975585938,195.42846679687503) " stroke="#000000" d="m312.96972,192.90894c0,0 -5.67,1.79129 -8.35961,-0.68896c-2.68961,-2.48025 -5.23384,-2.34246 -4.36154,0.68896c0.87231,3.03142 6.03346,7.16517 8.86846,7.44076c2.835,0.27558 5.23384,-2.20467 5.52461,-2.75584c0.29077,-0.55117 -1.67192,-4.68492 -1.67192,-4.68492z" stroke-linecap="null" stroke-linejoin="null" stroke-dasharray="null" stroke-width="0" fill="#e2650b"/>
  <path transform="rotate(-68.77131652832031 307.1240844726563,195.11700439453122) " stroke="#000000" id="svg_21" d="m312.72129,192.59748c0,0 -5.67,1.79129 -8.35961,-0.68896c-2.68961,-2.48025 -5.23384,-2.34246 -4.36154,0.68896c0.87231,3.03142 6.03346,7.16517 8.86846,7.44076c2.835,0.27558 5.23384,-2.20467 5.52461,-2.75584c0.29077,-0.55117 -1.67192,-4.68492 -1.67192,-4.68492z" stroke-linecap="null" stroke-linejoin="null" stroke-dasharray="null" stroke-width="0" fill="#ff7f00"/>
  <polygon fill="none" id="svg_25"/>
  <ellipse stroke="#000000" transform="rotate(43.555824279785156 312.1505126953126,189.8387603759765) " ry="2.9283" rx="5.40824" id="svg_16" cy="189.83877" cx="312.15052" stroke-linecap="null" stroke-linejoin="null" stroke-dasharray="null" stroke-width="0" fill="#ffff00"/>
  <ellipse stroke="#000000" fill="#000000" stroke-width="0" stroke-dasharray="null" stroke-linejoin="null" stroke-linecap="null" cx="316.87507" cy="188.00342" rx="0.84677" ry="1.73529" id="svg_4"/>
  <ellipse stroke="#000000" id="svg_18" transform="rotate(-62.467559814453125 307.1150817871093,188.09567260742185) " ry="2.60265" rx="5.19991" cy="188.09568" cx="307.11511" stroke-linecap="null" stroke-linejoin="null" stroke-dasharray="null" stroke-width="0" fill="#ffff00"/>
  <ellipse stroke="#000000" fill="#000000" stroke-width="0" stroke-dasharray="null" stroke-linejoin="null" stroke-linecap="null" cx="305.27856" cy="187.79484" id="svg_3" rx="0.6549" ry="1.73529"/>
  <ellipse stroke="#ffaa56" ry="19.125" rx="34.875" id="svg_10" cy="211.58718" cx="343.22139" stroke-linecap="null" stroke-linejoin="null" stroke-dasharray="null" stroke-width="0" fill="#ffff00"/>
  <ellipse stroke="#000000" transform="rotate(-2.663031816482544 342.4492492675778,217.37049865722608) " ry="5.15292" rx="43.90137" id="svg_22" cy="217.3705" cx="342.44925" stroke-linecap="null" stroke-linejoin="null" stroke-dasharray="null" stroke-width="0" fill="#aaffff"/>
  <rect stroke="#56ffff" transform="rotate(-3.5762856006622314 345.58395385742256,231.04312133789008) " id="svg_11" height="18.55483" width="74.76091" y="221.7657" x="308.20349" stroke-linecap="null" stroke-linejoin="null" stroke-dasharray="null" stroke-width="0" fill="#5ef9f9"/>
  <ellipse stroke="#000000" id="svg_28" transform="rotate(-2.663031816482544 343.14129638671847,218.67782592773452) " ry="6.85543" rx="58.48485" cy="218.67782" cx="343.14128" stroke-linecap="null" stroke-linejoin="null" stroke-dasharray="null" stroke-width="0" fill="#c4e0fc"/>
  <path stroke="#000000" transform="rotate(-77.53276824951172 371.1156921386719,211.2267608642578) " id="svg_20" d="m364.24677,218.34199l0,-14.23049l13.73788,14.23049l-13.73788,0z" stroke-linecap="null" stroke-linejoin="null" stroke-dasharray="null" stroke-width="0" fill="#ffff00"/>
  <ellipse stroke="#000000" id="svg_27" transform="rotate(-2.663031816482544 343.5235290527338,218.12165832519474) " ry="4.74451" rx="54.99762" cy="218.12164" cx="343.52354" stroke-linecap="null" stroke-linejoin="null" stroke-dasharray="null" stroke-width="0" fill="#aaffff"/>
  <ellipse stroke="#000000" id="svg_26" transform="rotate(-2.663031816482544 342.04556274414017,217.83200073242244) " ry="4.57591" rx="48.69052" cy="217.832" cx="342.04557" stroke-linecap="null" stroke-linejoin="null" stroke-dasharray="null" stroke-width="0" fill="#b9d8f7"/>
  <ellipse stroke="#000000" id="svg_23" transform="rotate(-2.663031816482544 343.5543212890616,217.02339172363264) " ry="3.28547" rx="42.82914" cy="217.02338" cx="343.55432" stroke-linecap="null" stroke-linejoin="null" stroke-dasharray="null" stroke-width="0" fill="#aaffff"/>
  <ellipse stroke="#56ffff" transform="rotate(-2.0853896141052246 343.4427490234373,214.05375671386724) " id="svg_24" ry="4.55527" rx="34.75981" cy="214.05375" cx="343.44272" stroke-linecap="null" stroke-linejoin="null" stroke-dasharray="null" stroke-width="0" fill="#ffff00"/>
  <path stroke="#000000" id="svg_29" transform="rotate(-49.54206848144531 376.6720275878907,208.72392272949227) " d="m373.06043,211.96489l0,-6.48196l7.22319,6.48196l-7.22319,0z" stroke-linecap="null" stroke-linejoin="null" stroke-dasharray="null" stroke-width="0" fill="#ffff00"/>
  <path fill="#ffaad4" stroke-dasharray="null" stroke-linejoin="null" stroke-linecap="null" d="m204.13051,303.73727c0,0 46.06676,15.59424 -15.24015,16.10275c-61.3069,0.50851 -35.32939,-9.15314 -24.24567,-10.33966c11.08374,-1.18651 10.04464,-0.84751 18.35744,-7.28861c8.31282,-6.44109 21.12838,1.52552 21.12838,1.52552z" transform="rotate(94.68254852294922 185.1783294677734,309.7783203125) " id="svg_30" stroke="#000000"/>
  <path fill="#ffaad4" stroke-width="0" stroke-dasharray="null" stroke-linejoin="null" stroke-linecap="null" d="m205.44503,301.18438c0,0 46.06676,17.24646 -15.24015,17.80884c-61.30691,0.56238 -35.32939,-10.12292 -24.24567,-11.43515c11.08374,-1.31223 10.04464,-0.9373 18.35744,-8.06084c8.31282,-7.12353 21.12838,1.68715 21.12838,1.68715z" id="svg_15" transform="rotate(94.68254852294922 186.49284362792974,307.86550903320307) " stroke="#000000"/>
  <rect fill="#000000" stroke-width="0" stroke-dasharray="null" stroke-linejoin="null" stroke-linecap="null" x="490.08333" y="321.41666" width="51" height="22" stroke="#000000" id="svg_66"/>
  <path fill="#ffaad4" stroke-width="0" stroke-dasharray="null" stroke-linejoin="null" stroke-linecap="null" d="m485.32527,323.85427c0,0 -24.30362,22.99217 8.0403,23.74192c32.34392,0.74974 18.63887,-13.49541 12.79138,-15.24482c-5.84749,-1.7494 -5.29929,-1.24957 -9.68491,-10.74634c-4.38562,-9.49677 -11.14678,2.24924 -11.14678,2.24924l0.00001,0z" id="svg_17" stroke="#000000"/>
  <path fill="#ffaad4" stroke-dasharray="null" stroke-linejoin="null" stroke-linecap="null" d="m505.73459,312.23103c0,0 46.06676,-19.80226 -15.24015,-20.44798c-61.3069,-0.64572 -35.32939,11.62306 -24.24567,13.12976c11.08374,1.50669 10.04464,1.0762 18.35744,9.2554c8.31282,8.17919 21.12838,-1.93717 21.12838,-1.93717l0,-0.00001z" transform="rotate(94.68254852294922 486.7824096679688,304.55981445312494) " id="svg_19" stroke="#000000"/>
  <rect fill="#000000" stroke-width="0" stroke-dasharray="null" stroke-linejoin="null" stroke-linecap="null" x="119.54167" y="318.97917" width="51" height="22" stroke="#000000" id="svg_62"/>
  <path fill="#ffaad4" stroke-width="0" stroke-dasharray="null" stroke-linejoin="null" stroke-linecap="null" d="m195.65958,322.55652c0,0 28.16103,27.63283 -9.31644,28.5339c-37.47747,0.90107 -21.59719,-16.21927 -14.8216,-18.32177c6.77559,-2.1025 6.14038,-1.50178 11.22207,-12.91534c5.0817,-11.41356 12.91597,2.70321 12.91597,2.70321z" id="svg_14" stroke="#000000"/>
  <rect stroke="#000000" fill="#ffffff" stroke-width="0" stroke-dasharray="null" stroke-linejoin="null" stroke-linecap="null" x="38" y="307" width="43.99994" height="159.99999" id="svg_38"/>
  <rect fill="#000000" stroke-width="0" stroke-dasharray="null" stroke-linejoin="null" stroke-linecap="null" x="33.4375" y="318.625" width="51" height="22" id="svg_45" stroke="#000000"/>
  <rect fill="#000000" stroke-width="0" stroke-dasharray="null" stroke-linejoin="null" stroke-linecap="null" x="36" y="368" width="46.1875" height="26" id="svg_46" stroke="#000000"/>
  <rect fill="#000000" stroke-width="0" stroke-dasharray="null" stroke-linejoin="null" stroke-linecap="null" x="118" y="402.33333" width="51" height="33" id="svg_47" stroke="#000000"/>
  <rect fill="#000000" stroke-width="0" stroke-dasharray="null" stroke-linejoin="null" stroke-linecap="null" x="36.88889" y="406.22223" width="47" height="34" id="svg_48" stroke="#000000"/>
  <rect fill="#000000" stroke-width="0" stroke-dasharray="null" stroke-linejoin="null" stroke-linecap="null" x="400.22222" y="406.33333" width="51" height="33" stroke="#000000" id="svg_49"/>
  <rect fill="#000000" stroke-width="0" stroke-dasharray="null" stroke-linejoin="null" stroke-linecap="null" x="314.77778" y="409.55555" width="51" height="33" stroke="#000000" id="svg_50"/>
  <rect fill="#000000" stroke-width="0" stroke-dasharray="null" stroke-linejoin="null" stroke-linecap="null" x="219.22222" y="408.88889" width="51" height="33" stroke="#000000" id="svg_51"/>
  <rect fill="#000000" stroke-width="0" stroke-dasharray="null" stroke-linejoin="null" stroke-linecap="null" x="122.66667" y="366.66667" width="46.1875" height="26" stroke="#000000" id="svg_52"/>
  <rect fill="#000000" stroke-width="0" stroke-dasharray="null" stroke-linejoin="null" stroke-linecap="null" x="403.99999" y="368" width="46.1875" height="26" stroke="#000000" id="svg_53"/>
  <rect fill="#000000" stroke-width="0" stroke-dasharray="null" stroke-linejoin="null" stroke-linecap="null" x="221.33333" y="369.33334" width="46.1875" height="26" stroke="#000000" id="svg_54"/>
  <rect fill="#000000" stroke-width="0" stroke-dasharray="null" stroke-linejoin="null" stroke-linecap="null" x="314.66667" y="368" width="46.1875" height="26" stroke="#000000" id="svg_55"/>
  <rect fill="#000000" stroke-width="0" stroke-dasharray="null" stroke-linejoin="null" stroke-linecap="null" x="485.55556" y="408.11111" width="51" height="33" stroke="#000000" id="svg_56"/>
  <rect fill="#000000" stroke-width="0" stroke-dasharray="null" stroke-linejoin="null" stroke-linecap="null" x="579.77778" y="405" width="51" height="33" stroke="#000000" id="svg_57"/>
  <rect stroke="#000000" fill="#000000" stroke-width="0" stroke-dasharray="null" stroke-linejoin="null" stroke-linecap="null" x="489.33333" y="363.11111" width="49.74305" height="26" id="svg_59"/>
  <rect fill="#000000" stroke-width="0" stroke-dasharray="null" stroke-linejoin="null" stroke-linecap="null" x="583.99999" y="320" width="46.1875" height="23.33333" id="svg_60" stroke="#000000"/>
  <rect fill="#000000" stroke-width="0" stroke-dasharray="null" stroke-linejoin="null" stroke-linecap="null" x="583.99999" y="365.33334" width="46.1875" height="26" stroke="#000000" id="svg_61"/>
  <rect fill="#007fff" stroke-width="0" stroke-dasharray="null" stroke-linejoin="null" stroke-linecap="null" x="51.31245" y="234.37502" width="6.1875" height="103.50001" id="svg_72" stroke="#000000"/>
  <ellipse fill="#007fff" stroke-dasharray="null" stroke-linejoin="null" stroke-linecap="null" cx="56.6562" cy="228.75002" id="svg_70" rx="50.34375" ry="6.1875" stroke="#000000"/>
  <ellipse fill="#007fff" stroke-dasharray="null" stroke-linejoin="null" stroke-linecap="null" cx="56.0937" cy="227.06252" rx="50.34375" ry="6.1875" stroke="#000000" id="svg_71"/>
  <rect fill="#0000ff" stroke-width="0" stroke-dasharray="null" stroke-linejoin="null" stroke-linecap="null" x="55.46088" y="235.50002" width="1.23047" height="101.91798" id="svg_73" stroke="#000000"/>
  <rect fill="#007fff" stroke-width="0" stroke-dasharray="null" stroke-linejoin="null" stroke-linecap="null" x="45.97557" y="330.28375" width="3.95022" height="14.55469" id="svg_74" transform="rotate(42.111122131347656 47.950683593750185,337.5610961914062) " stroke="#000000"/>
  <rect fill="#007fff" stroke-width="0" stroke-dasharray="null" stroke-linejoin="null" stroke-linecap="null" x="59.26463" y="330.28375" width="3.95022" height="14.55469" transform="rotate(-42.68626022338867 61.23974609375008,337.5610961914063) " stroke="#000000" id="svg_75"/>
  <rect stroke="#000000" fill="#ffffaa" stroke-width="0" stroke-dasharray="null" stroke-linejoin="null" stroke-linecap="null" x="68.96755" y="210.53024" width="12.88037" height="13.07813" id="svg_76"/>
  <ellipse stroke="#000000" fill="#ffd4aa" stroke-width="0" stroke-dasharray="null" stroke-linejoin="null" stroke-linecap="null" cx="75.70703" cy="223.7563" id="svg_77" rx="6.60547" ry="1.35562" transform="rotate(-178.3955078125 75.70703125,223.75628662109372) "/>
  <ellipse fill="#ff007f" stroke-width="0" stroke-dasharray="null" stroke-linejoin="null" stroke-linecap="null" cx="75.20629" cy="210.75647" rx="7.04693" ry="1.35562" transform="rotate(-178.3955078125 75.20629119873048,210.75646972656247) " id="svg_78" stroke="#000000"/>
  <path fill="#ff7f00" stroke-width="0" stroke-dasharray="null" stroke-linejoin="null" stroke-linecap="null" d="m75.49968,211.32785c0,0 -5.69035,-7.88388 -2.99491,-10.03405c2.69542,-2.15015 4.49237,-6.45045 4.47432,-6.46662c-0.01806,-0.01617 2.71349,3.24141 1.51553,7.18335c-1.19798,3.94196 -2.99493,9.31733 -2.99493,9.31733l-0.00001,-0.00001z" id="svg_79" stroke="#000000"/>
  <path fill="#ffff00" stroke-width="0" stroke-dasharray="null" stroke-linejoin="null" stroke-linecap="null" d="m75.49256,209.81143c0,0 -2.93534,-4.67166 -1.54491,-5.94577c1.39042,-1.27409 2.31737,-3.82227 2.30806,-3.83185c-0.00931,-0.00958 1.39974,1.92072 0.78178,4.25655c-0.61797,2.33584 -1.54492,5.52107 -1.54492,5.52107l-0.00001,0z" id="svg_80" transform="rotate(5.9582624435424805 75.38400268554732,204.92259216308588) " stroke="#000000"/>
  <rect stroke="#000000" fill="#007f00" stroke-width="0" stroke-dasharray="null" stroke-linejoin="null" stroke-linecap="null" x="35.84372" y="193.9453" width="16.13672" height="28.23926" id="svg_81"/>
  <ellipse fill="#007f00" stroke-width="0" stroke-dasharray="null" stroke-linejoin="null" stroke-linecap="null" cx="43.79342" cy="221.94726" id="svg_82" rx="8.18701" ry="4.03418" stroke="#000000"/>
  <ellipse fill="#007f00" stroke-width="0" stroke-dasharray="null" stroke-linejoin="null" stroke-linecap="null" cx="43.91208" cy="193.35204" rx="8.06836" ry="5.10205" id="svg_84" stroke="#000000"/>
  <rect fill="#007f00" stroke-width="0" stroke-dasharray="null" stroke-linejoin="null" stroke-linecap="null" x="41.53903" y="179.46972" width="4.27148" height="11.39062" id="svg_85" stroke="#000000"/>
  <ellipse fill="#007f00" stroke-width="0" stroke-dasharray="null" stroke-linejoin="null" stroke-linecap="null" cx="43.67477" cy="178.5205" rx="3.55957" ry="1.89844" id="svg_86" stroke="#000000"/>
  <path fill="#d4aaff" stroke-width="0" stroke-dasharray="null" stroke-linejoin="null" stroke-linecap="null" d="m88.54307,199.06721c0.10594,2.80343 0.50816,5.37176 1.09863,7.62695l1.09863,-3.42773l-0.31738,-0.23438l-0.43945,-0.3125l0.22949,-0.80078l0.80566,-2.85156l-2.47559,0l0.00001,0zm3.37402,0l-0.7959,2.8125l0.3418,0.24414l0.46387,0.33203l-0.26367,0.82031l-1.58203,4.95117c1.13827,3.45538 2.80282,5.8408 4.71192,6.35742l0,10.10742l-3.125,0l0,2.5l7.8125,0l0,-2.5l-3.125,0l0,-10.10742c3.33033,-0.89063 5.94325,-7.40011 6.25,-15.51758l-10.68848,0l0,0l-0.00001,0.00001z" id="svg_87" stroke="#000000"/>
  <path stroke="#000000" id="svg_5" fill="#ffaad4" stroke-width="0" stroke-dasharray="null" stroke-linejoin="null" stroke-linecap="null" d="m507.75211,312.19506c0,0 52.3173,-18.94909 -17.308,-19.56699c-69.62529,-0.6179 -40.12304,11.12229 -27.53543,12.56407c12.58763,1.44178 11.40754,1.02983 20.84826,8.85664c9.44074,7.82679 23.99517,-1.85371 23.99517,-1.85371l0,-0.00001z" transform="rotate(94.68254852294922 486.2284240722656,304.8543701171875) "/>
  <rect stroke="#000000" id="svg_7" height="11.8125" width="11.8125" y="327.18752" x="486.68746" stroke-linecap="null" stroke-linejoin="null" stroke-dasharray="null" stroke-width="0" fill="#ffaad4"/>
  <rect stroke="#000000" id="svg_92" height="2.58334" width="37.41664" y="22" x="465.49997" stroke-linecap="null" stroke-linejoin="null" stroke-dasharray="null" stroke-width="0" fill="#bfbfbf"/>
  <ellipse stroke="#000000" ry="3.75" rx="25.25" id="svg_94" cy="38.75" cx="466.06253" stroke-linecap="null" stroke-linejoin="null" stroke-dasharray="null" stroke-width="0" fill="#bfbfbf"/>
  <rect stroke="#000000" transform="rotate(87.26664733886719 466.8458251953125,30.516860961914084) " id="svg_95" height="1.60866" width="13.88298" y="29.71254" x="459.90433" stroke-linecap="null" stroke-linejoin="null" stroke-dasharray="null" stroke-width="0" fill="#bfbfbf"/>
  <rect id="svg_96" height="11.8125" width="21.9375" y="173.48434" x="488.51566" stroke-linecap="null" stroke-linejoin="null" stroke-dasharray="null" stroke-width="0" stroke="#000000" fill="#bfbfbf"/>
  <rect stroke="#000000" id="svg_98" height="4.64063" width="24.04688" y="177.70309" x="479.65629" stroke-linecap="null" stroke-linejoin="null" stroke-dasharray="null" stroke-width="0" fill="#bfbfbf"/>
  <rect stroke="#000000" transform="rotate(90.68073272705078 482.92538452148443,183.95175170898438) " id="svg_99" height="5.71183" width="12.31519" y="181.09585" x="476.7678" stroke-linecap="null" stroke-linejoin="null" stroke-dasharray="null" stroke-width="0" fill="#bfbfbf"/>
  <ellipse stroke="#000000" ry="2.25" rx="7.03125" id="svg_100" cy="174.18752" cx="490.90621" stroke-linecap="null" stroke-linejoin="null" stroke-dasharray="null" stroke-width="0" fill="#bfbfbf"/>
  <ellipse stroke="#000000" id="svg_101" ry="2.25" rx="8.71875" cy="174.18752" cx="510.03121" stroke-linecap="null" stroke-linejoin="null" stroke-dasharray="null" stroke-width="0" fill="#bfbfbf"/>
 </g>
</svg>
