<svg width="640" height="460" xmlns="http://www.w3.org/2000/svg" xmlns:svg="http://www.w3.org/2000/svg">
 <!-- Created with SVG-edit - http://svg-edit.googlecode.com/ -->
 <defs>
  <linearGradient id="svg_141" spreadMethod="pad">
   <stop stop-color="0" stop-opacity="0" offset="0.02311"/>
   <stop stop-color="0" stop-opacity="0" offset="0.06608"/>
   <stop stop-color="#2dafaf" offset="1"/>
  </linearGradient>
 </defs>
 <g stroke="null">
  <title>Layer 1</title>
  <ellipse stroke="#000000" id="svg_143" ry="5.29687" rx="7.03125" cy="202.13021" cx="75.52605" opacity="0.4" stroke-linecap="null" stroke-linejoin="null" stroke-dasharray="null" stroke-width="0" fill="#ffffff"/>
  <rect stroke="#000000" id="svg_67" height="307.80553" width="638.74075" y="7.19447" x="2" stroke-linecap="null" stroke-linejoin="null" stroke-dasharray="null" stroke-width="0" fill="#c9fce2"/>
  <rect stroke="#000000" id="svg_161" height="75.66665" width="58.08335" y="163.48006" x="569.95231" stroke-linecap="null" stroke-linejoin="null" stroke-dasharray="null" stroke-width="0" fill="#d35b5b"/>
  <rect stroke="#000000" id="svg_160" fill="#bfbfbf" stroke-width="0" stroke-dasharray="null" stroke-linejoin="null" stroke-linecap="null" x="557.75" y="163.75001" width="80.16677" height="9.83334"/>
  <rect stroke="#000000" id="svg_52" height="11.06251" width="638.73958" y="299.14514" x="1.62943" opacity="0.3" stroke-linecap="null" stroke-linejoin="null" stroke-dasharray="null" stroke-width="0" fill="#7fff00"/>
  <rect height="22.59259" width="640.00003" y="366.85185" x="1.07407" stroke-linecap="null" stroke-linejoin="null" stroke-dasharray="null" stroke-width="0" fill="#3f3f3f" id="svg_104" stroke="#000000"/>
  <rect id="svg_37" height="27" width="640.99996" y="415.55555" x="-0.55553" stroke-linecap="null" stroke-linejoin="null" stroke-dasharray="null" stroke-width="0" fill="#3f3f3f" stroke="#000000"/>
  <rect id="svg_36" height="16" width="640.99996" y="337.78473" x="0.89584" stroke-linecap="null" stroke-linejoin="null" stroke-dasharray="null" stroke-width="0" fill="#3f3f3f" stroke="#000000"/>
  <rect id="svg_35" height="10.125" width="640.99998" y="322.5625" x="-0.56251" stroke-linecap="null" stroke-linejoin="null" stroke-dasharray="null" stroke-width="0" fill="#3f3f3f" stroke="#000000"/>
  <rect id="svg_31" height="8.0625" width="641.99997" y="310.94922" x="1.01562" stroke-linecap="null" stroke-linejoin="null" stroke-dasharray="null" stroke-width="0" fill="#3f3f3f" stroke="#000000"/>
  <rect stroke="#000000" id="svg_44" height="129.6667" width="43.99994" y="312.33332" x="586" stroke-linecap="null" stroke-linejoin="null" stroke-dasharray="null" stroke-width="0" fill="#ffffff"/>
  <rect stroke="#000000" id="svg_43" height="145.88889" width="43.99994" y="312.88889" x="492.44445" stroke-linecap="null" stroke-linejoin="null" stroke-dasharray="null" stroke-width="0" fill="#ffffff"/>
  <rect id="svg_42" height="173.99999" width="43.99994" y="283" x="406" stroke-linecap="null" stroke-linejoin="null" stroke-dasharray="null" stroke-width="0" fill="#ffffff" stroke="#000000"/>
  <rect id="svg_41" height="176.99999" width="43.99994" y="282" x="316" stroke-linecap="null" stroke-linejoin="null" stroke-dasharray="null" stroke-width="0" fill="#ffffff" stroke="#000000"/>
  <rect id="svg_40" height="172.77777" width="42.99994" y="285" x="225" stroke-linecap="null" stroke-linejoin="null" stroke-dasharray="null" stroke-width="0" fill="#ffffff" stroke="#000000"/>
  <rect id="svg_63" height="10" width="51" y="330.16666" x="399.16667" stroke-linecap="null" stroke-linejoin="null" stroke-dasharray="null" stroke-width="0" fill="#3f3f3f" stroke="#000000"/>
  <rect id="svg_64" height="22" width="51" y="322.16667" x="311.16667" stroke-linecap="null" stroke-linejoin="null" stroke-dasharray="null" stroke-width="0" fill="#3f3f3f" stroke="#000000"/>
  <rect id="svg_65" height="10" width="50" y="330.41666" x="490.41667" stroke-linecap="null" stroke-linejoin="null" stroke-dasharray="null" stroke-width="0" fill="#3f3f3f" stroke="#000000"/>
  <rect stroke="#000000" id="svg_39" height="146.9375" width="43.99994" y="311.0625" x="124" stroke-linecap="null" stroke-linejoin="null" stroke-dasharray="null" stroke-width="0" fill="#ffffff"/>
  <path id="svg_69" d="m175.49045,303.71142c0,0 8.53233,10.39352 -2.82273,10.73244c-11.35506,0.33892 -6.54359,-6.10054 -4.4907,-6.89136c2.05289,-0.79081 1.86043,-0.56486 3.4001,-4.85784c1.53967,-4.29297 3.91333,1.01676 3.91333,1.01676z" stroke-linecap="null" stroke-linejoin="null" stroke-dasharray="null" stroke-width="0.1" fill="#ffaad4" stroke="#000000"/>
  <path id="svg_68" transform="rotate(94.68254852294922 176.690673828125,273.5451354980469) " d="m195.64284,270.41904c0,0 46.06676,8.06964 -15.24015,8.33277c-61.3069,0.26314 -35.32939,-4.73652 -24.24567,-5.35052c11.08374,-0.61399 10.04464,-0.43857 18.35744,-3.77168c8.31282,-3.33311 21.12838,0.78942 21.12838,0.78942l0,0.00001z" stroke-linecap="null" stroke-linejoin="null" stroke-dasharray="null" stroke-width="0" fill="#ffaad4" stroke="#000000"/>
  <rect height="8" width="48" y="330.41667" x="122.08333" stroke-linecap="null" stroke-linejoin="null" stroke-dasharray="null" stroke-width="0" fill="#3f3f3f" id="svg_122" stroke="#000000"/>
  <rect height="8" width="48" y="330.41667" x="222.08333" stroke-linecap="null" stroke-linejoin="null" stroke-dasharray="null" stroke-width="0" fill="#3f3f3f" id="svg_123" stroke="#000000"/>
  <ellipse fill="#ffaaff" stroke-dasharray="null" stroke-linejoin="null" stroke-linecap="null" cx="334.53459" cy="203.06532" id="svg_6" rx="201.56292" ry="148.06637" transform="rotate(1.585239291191101 334.5346069335962,203.0653228759762) " stroke="#000000"/>
  <ellipse stroke="#000000" fill="#ffffff" stroke-dasharray="null" stroke-linejoin="null" stroke-linecap="null" cx="312.4818" cy="203.4061" rx="168.9232" ry="134.03025" transform="rotate(1.585239291191101 312.48181152344085,203.40609741210983) " id="svg_139" stroke-width="0" opacity="0.15"/>
  <rect stroke="#000000" fill="#c9fce2" stroke-width="0" stroke-dasharray="null" stroke-linejoin="null" stroke-linecap="null" x="112.62924" y="50.21168" width="437.09249" height="173.80101" transform="rotate(-3.5340118408203125 331.1755065917972,137.11219787597716) " id="svg_8"/>
  <rect stroke="#000000" id="svg_145" height="2.125" width="637.83334" y="7.86722" x="0.68232" stroke-linecap="null" stroke-linejoin="null" stroke-dasharray="null" stroke-width="0" fill="#aaffaa"/>
  <rect stroke="#000000" id="svg_144" height="7.05555" width="640.50002" y="1.34117" x="0.75784" stroke-linecap="null" stroke-linejoin="null" stroke-dasharray="null" stroke-width="0" fill="#bbf9d7"/>
  <rect fill="#bfbfbf" stroke-width="0" stroke-dasharray="null" stroke-linejoin="null" stroke-linecap="null" x="500" y="22.75" width="2.91668" height="173.33333" id="svg_91" stroke="#000000"/>
  <ellipse fill="#ffffff" cx="339.91502" cy="227.06575" rx="227.17473" ry="39.99715" transform="rotate(-1.0663634538650513 339.91503906250216,227.06576538085716) " id="svg_2" stroke="#565555"/>
  <ellipse fill="#ffffff" cx="337.1789" cy="217.74779" id="svg_1" rx="204.75" ry="29.70921" transform="rotate(-1.093762993812561 337.1788940429663,217.7477874755866) " stroke="#302f2f"/>
  <ellipse fill="#5ef9f9" stroke-width="5" cx="337.90078" cy="220.41446" rx="195.01787" ry="21.88266" transform="rotate(-0.93995201587677 337.90075683593506,220.4144744873047) " id="svg_9" stroke="#92fcfc"/>
  <path fill="#ff7f00" stroke-width="0" stroke-dasharray="null" stroke-linejoin="null" stroke-linecap="null" d="m364.58465,217.44097l0,-14.23049l13.73788,14.23049l-13.73788,0z" transform="rotate(-77.53276824951172 371.45361328125006,210.32574462890634) " id="svg_113" stroke="#000000"/>
  <path fill="#ff7f00" stroke-width="0" stroke-dasharray="null" stroke-linejoin="null" stroke-linecap="null" d="m375.60538,210.77312l0,-6.48196l4.68274,6.48196l-4.68274,0z" transform="rotate(-47.76483154296875 377.9467468261718,207.53213500976557) " id="svg_115" stroke="#000000"/>
  <ellipse fill="#ffaa56" stroke-width="0" stroke-dasharray="null" stroke-linejoin="null" stroke-linecap="null" cx="343.0706" cy="211.1719" rx="35.07523" ry="19.125" id="svg_34" stroke="#ffaa56"/>
  <ellipse fill="#fca14b" stroke-width="0.1" stroke-dasharray="null" stroke-linejoin="null" stroke-linecap="null" cx="319.12641" cy="188.20347" rx="15.61411" ry="14.91504" transform="rotate(51.97122573852539 319.12640380859375,188.2034606933594) " id="svg_116" stroke="#ffaa56"/>
  <ellipse fill="#ffff00" stroke-width="0.1" stroke-dasharray="null" stroke-linejoin="null" stroke-linecap="null" cx="318.61287" cy="188.34159" rx="15.61411" ry="14.91504" id="svg_12" transform="rotate(51.97122573852539 318.6128845214843,188.34159851074224) " stroke="#ffaa56"/>
  <ellipse fill="url(#svg_141)" stroke-width="2" cx="345.29994" cy="221.26886" rx="173.50435" ry="16.3834" transform="rotate(-0.93995201587677 345.2999267578091,221.26884460449253) " id="svg_140" opacity="0.1" stroke="#7ebcbc"/>
  <path fill="#e2650b" stroke-width="0" stroke-dasharray="null" stroke-linejoin="null" stroke-linecap="null" d="m312.96972,192.90894c0,0 -5.67,1.79129 -8.35961,-0.68896c-2.68961,-2.48025 -5.23384,-2.34246 -4.36154,0.68896c0.87231,3.03142 6.03346,7.16517 8.86846,7.44076c2.835,0.27558 5.23384,-2.20467 5.52461,-2.75584c0.29077,-0.55117 -1.67192,-4.68492 -1.67192,-4.68492z" transform="rotate(-68.77131652832031 307.3724975585938,195.42846679687503) " id="svg_33" stroke="#000000"/>
  <path fill="#ff7f00" stroke-width="0" stroke-dasharray="null" stroke-linejoin="null" stroke-linecap="null" d="m312.72129,192.59748c0,0 -5.67,1.79129 -8.35961,-0.68896c-2.68961,-2.48025 -5.23384,-2.34246 -4.36154,0.68896c0.87231,3.03142 6.03346,7.16517 8.86846,7.44076c2.835,0.27558 5.23384,-2.20467 5.52461,-2.75584c0.29077,-0.55117 -1.67192,-4.68492 -1.67192,-4.68492z" id="svg_21" transform="rotate(-68.77131652832031 307.1240844726563,195.11700439453122) " stroke="#000000"/>
  <polygon id="svg_25" fill="none" stroke="null"/>
  <ellipse fill="#ffff00" stroke-width="0" stroke-dasharray="null" stroke-linejoin="null" stroke-linecap="null" cx="312.15052" cy="189.83877" id="svg_16" rx="5.40824" ry="2.9283" transform="rotate(43.555824279785156 312.1505126953125,189.83876037597653) " stroke="#000000"/>
  <ellipse id="svg_4" ry="1.73529" rx="0.84677" cy="188.00342" cx="316.87507" stroke-linecap="null" stroke-linejoin="null" stroke-dasharray="null" stroke-width="0" fill="#000000" stroke="#000000"/>
  <ellipse fill="#ffff00" stroke-width="0" stroke-dasharray="null" stroke-linejoin="null" stroke-linecap="null" cx="307.11511" cy="188.09568" rx="5.19991" ry="2.60265" transform="rotate(-62.467559814453125 307.1150817871093,188.09567260742185) " id="svg_18" stroke="#000000"/>
  <ellipse ry="1.73529" rx="0.6549" id="svg_3" cy="187.79484" cx="305.27856" stroke-linecap="null" stroke-linejoin="null" stroke-dasharray="null" stroke-width="0" fill="#000000" stroke="#000000"/>
  <ellipse fill="#ffff00" stroke-width="0" stroke-dasharray="null" stroke-linejoin="null" stroke-linecap="null" cx="342.74678" cy="211.82448" id="svg_10" rx="34.875" ry="19.125" stroke="#ffaa56"/>
  <ellipse fill="#aaffff" stroke-width="0" stroke-dasharray="null" stroke-linejoin="null" stroke-linecap="null" cx="342.44925" cy="217.3705" id="svg_22" rx="43.90137" ry="5.15292" transform="rotate(-2.663031816482544 342.4492492675778,217.37049865722608) " stroke="#000000"/>
  <rect fill="#5ef9f9" stroke-width="0" stroke-dasharray="null" stroke-linejoin="null" stroke-linecap="null" x="308.13735" y="221.64313" width="78.75312" height="16.55872" id="svg_11" transform="rotate(-3.5762856006622314 347.51391601562455,229.92250061035205) " stroke="#56ffff"/>
  <ellipse fill="#c4e0fc" stroke-width="0" stroke-dasharray="null" stroke-linejoin="null" stroke-linecap="null" cx="343.14128" cy="218.67782" rx="58.48485" ry="6.85543" transform="rotate(-2.663031816482544 343.14129638671847,218.67781066894452) " id="svg_28" stroke="#000000"/>
  <path fill="#ffff00" stroke-width="0" stroke-dasharray="null" stroke-linejoin="null" stroke-linecap="null" d="m364.24677,218.34199l0,-14.23049l13.73788,14.23049l-13.73788,0z" id="svg_20" transform="rotate(-77.53276824951172 371.11572265624994,211.22674560546872) " stroke="#000000"/>
  <ellipse fill="#aaffff" stroke-width="0" stroke-dasharray="null" stroke-linejoin="null" stroke-linecap="null" cx="343.52354" cy="218.12164" rx="54.99762" ry="4.74451" transform="rotate(-2.663031816482544 343.5235290527338,218.12165832519474) " id="svg_27" stroke="#000000"/>
  <ellipse fill="#b9d8f7" stroke-width="0" stroke-dasharray="null" stroke-linejoin="null" stroke-linecap="null" cx="342.04557" cy="217.832" rx="48.69052" ry="4.57591" transform="rotate(-2.663031816482544 342.04556274414017,217.83200073242244) " id="svg_26" stroke="#000000"/>
  <ellipse fill="#aaffff" stroke-width="0" stroke-dasharray="null" stroke-linejoin="null" stroke-linecap="null" cx="343.55432" cy="217.02338" rx="42.82914" ry="3.28547" transform="rotate(-2.663031816482544 343.5543212890616,217.02339172363264) " id="svg_23" stroke="#000000"/>
  <ellipse fill="#ffff00" stroke-width="0" stroke-dasharray="null" stroke-linejoin="null" stroke-linecap="null" cx="343.44272" cy="214.05375" rx="34.75981" ry="4.55527" id="svg_24" transform="rotate(-2.0853896141052246 343.4427490234373,214.05375671386724) " stroke="#56ffff"/>
  <path fill="#ffff00" stroke-width="0" stroke-dasharray="null" stroke-linejoin="null" stroke-linecap="null" d="m373.06043,211.96489l0,-6.48196l7.22319,6.48196l-7.22319,0z" transform="rotate(-49.54206848144531 376.6720275878907,208.72390747070312) " id="svg_29" stroke="#000000"/>
  <path id="svg_30" transform="rotate(94.68254852294922 185.1783294677734,309.7783203125) " d="m204.13051,303.73727c0,0 46.06676,15.59424 -15.24015,16.10275c-61.3069,0.50851 -35.32939,-9.15314 -24.24567,-10.33966c11.08374,-1.18651 10.04464,-0.84751 18.35744,-7.28861c8.31282,-6.44109 21.12838,1.52552 21.12838,1.52552z" stroke-linecap="null" stroke-linejoin="null" stroke-dasharray="null" fill="#ffaad4" stroke="#000000"/>
  <path transform="rotate(94.68254852294922 186.49284362792974,307.86550903320307) " id="svg_15" d="m205.44503,301.18438c0,0 46.06676,17.24646 -15.24015,17.80884c-61.30691,0.56238 -35.32939,-10.12292 -24.24567,-11.43515c11.08374,-1.31223 10.04464,-0.9373 18.35744,-8.06084c8.31282,-7.12353 21.12838,1.68715 21.12838,1.68715z" stroke-linecap="null" stroke-linejoin="null" stroke-dasharray="null" stroke-width="0" fill="#ffaad4" stroke="#000000"/>
  <rect id="svg_66" height="8" width="48" y="316.41667" x="122.08333" stroke-linecap="null" stroke-linejoin="null" stroke-dasharray="null" stroke-width="0" fill="#3f3f3f" stroke="#000000"/>
  <rect height="7.33331" width="46.1875" y="316" x="491.99999" stroke-linecap="null" stroke-linejoin="null" stroke-dasharray="null" stroke-width="0" fill="#3f3f3f" id="svg_114" stroke="#000000"/>
  <path id="svg_17" d="m485.32527,323.85427c0,0 -24.30362,22.99217 8.0403,23.74192c32.34392,0.74974 18.63887,-13.49541 12.79138,-15.24482c-5.84749,-1.7494 -5.29929,-1.24957 -9.68491,-10.74634c-4.38562,-9.49677 -11.14678,2.24924 -11.14678,2.24924l0.00001,0z" stroke-linecap="null" stroke-linejoin="null" stroke-dasharray="null" stroke-width="0" fill="#ffaad4" stroke="#000000"/>
  <path id="svg_19" transform="rotate(94.68254852294922 486.7824096679688,304.55981445312494) " d="m505.73459,312.23103c0,0 46.06676,-19.80226 -15.24015,-20.44798c-61.3069,-0.64572 -35.32939,11.62306 -24.24567,13.12976c11.08374,1.50669 10.04464,1.0762 18.35744,9.2554c8.31282,8.17919 21.12838,-1.93717 21.12838,-1.93717l0,-0.00001z" stroke-linecap="null" stroke-linejoin="null" stroke-dasharray="null" fill="#ffaad4" stroke="#000000"/>
  <rect id="svg_62" height="11" width="48" y="327.97916" x="583.54167" stroke-linecap="null" stroke-linejoin="null" stroke-dasharray="null" stroke-width="0" fill="#3f3f3f" stroke="#000000"/>
  <path id="svg_14" d="m192.65958,321.55652c0,0 28.16103,27.63283 -9.31644,28.5339c-37.47747,0.90107 -21.59719,-16.21927 -14.8216,-18.32177c6.77559,-2.1025 6.14038,-1.50178 11.22207,-12.91534c5.0817,-11.41356 12.91597,2.70321 12.91597,2.70321z" stroke-linecap="null" stroke-linejoin="null" stroke-dasharray="null" stroke-width="0" fill="#ffaad4" stroke="#000000"/>
  <rect stroke="#000000" id="svg_38" height="147.20311" width="43.99994" y="310.79688" x="38" stroke-linecap="null" stroke-linejoin="null" stroke-dasharray="null" stroke-width="0" fill="#ffffff"/>
  <rect id="svg_45" height="8" width="49" y="316.625" x="35.4375" stroke-linecap="null" stroke-linejoin="null" stroke-dasharray="null" stroke-width="0" fill="#3f3f3f" stroke="#000000"/>
  <rect id="svg_46" height="17" width="46.1875" y="351" x="37" stroke-linecap="null" stroke-linejoin="null" stroke-dasharray="null" stroke-width="0" fill="#3f3f3f" stroke="#000000"/>
  <rect id="svg_47" height="30" width="50" y="388.33333" x="121" stroke-linecap="null" stroke-linejoin="null" stroke-dasharray="null" stroke-width="0" fill="#3f3f3f" stroke="#000000"/>
  <rect id="svg_48" height="32" width="47" y="387.22223" x="35.88889" stroke-linecap="null" stroke-linejoin="null" stroke-dasharray="null" stroke-width="0" fill="#3f3f3f" stroke="#000000"/>
  <rect id="svg_49" height="28" width="51" y="389.33333" x="402.22222" stroke-linecap="null" stroke-linejoin="null" stroke-dasharray="null" stroke-width="0" fill="#3f3f3f" stroke="#000000"/>
  <rect id="svg_50" height="31" width="47" y="390.55555" x="314.77778" stroke-linecap="null" stroke-linejoin="null" stroke-dasharray="null" stroke-width="0" fill="#3f3f3f" stroke="#000000"/>
  <rect id="svg_51" height="31" width="46" y="387.88889" x="224.22222" stroke-linecap="null" stroke-linejoin="null" stroke-dasharray="null" stroke-width="0" fill="#3f3f3f" stroke="#000000"/>
  <rect id="svg_53" height="16" width="46.1875" y="353" x="403.99999" stroke-linecap="null" stroke-linejoin="null" stroke-dasharray="null" stroke-width="0" fill="#3f3f3f" stroke="#000000"/>
  <rect id="svg_54" height="18" width="46.1875" y="350.33334" x="222.33333" stroke-linecap="null" stroke-linejoin="null" stroke-dasharray="null" stroke-width="0" fill="#3f3f3f" stroke="#000000"/>
  <rect id="svg_55" height="18" width="46.1875" y="352" x="313.66667" stroke-linecap="null" stroke-linejoin="null" stroke-dasharray="null" stroke-width="0" fill="#3f3f3f" stroke="#000000"/>
  <rect id="svg_56" height="30" width="47" y="388.11111" x="491.55556" stroke-linecap="null" stroke-linejoin="null" stroke-dasharray="null" stroke-width="0" fill="#3f3f3f" stroke="#000000"/>
  <rect id="svg_57" height="31" width="46" y="388" x="584.77778" stroke-linecap="null" stroke-linejoin="null" stroke-dasharray="null" stroke-width="0" fill="#3f3f3f" stroke="#000000"/>
  <rect id="svg_59" height="16" width="49.74305" y="352.11111" x="490.33333" stroke-linecap="null" stroke-linejoin="null" stroke-dasharray="null" stroke-width="0" fill="#3f3f3f" stroke="#000000"/>
  <rect id="svg_60" height="7.33331" width="46.1875" y="317" x="584.99999" stroke-linecap="null" stroke-linejoin="null" stroke-dasharray="null" stroke-width="0" fill="#3f3f3f" stroke="#000000"/>
  <rect id="svg_61" height="17" width="46.1875" y="353.33334" x="584.99999" stroke-linecap="null" stroke-linejoin="null" stroke-dasharray="null" stroke-width="0" fill="#3f3f3f" stroke="#000000"/>
  <rect height="8" width="48" y="331.41667" x="35.08333" stroke-linecap="null" stroke-linejoin="null" stroke-dasharray="null" stroke-width="0" fill="#3f3f3f" id="svg_121" stroke="#000000"/>
  <rect id="svg_72" height="103.50001" width="6.1875" y="234.37502" x="51.31245" stroke-linecap="null" stroke-linejoin="null" stroke-dasharray="null" stroke-width="0" fill="#007fff" stroke="#000000"/>
  <ellipse ry="6.1875" rx="50.34375" id="svg_70" cy="228.75002" cx="56.6562" stroke-linecap="null" stroke-linejoin="null" stroke-dasharray="null" fill="#007fff" stroke="#000000"/>
  <ellipse id="svg_71" ry="6.1875" rx="50.34375" cy="227.06252" cx="56.0937" stroke-linecap="null" stroke-linejoin="null" stroke-dasharray="null" fill="#007fff" stroke="#000000"/>
  <rect id="svg_73" height="101.91798" width="1.23047" y="235.50002" x="55.46088" stroke-linecap="null" stroke-linejoin="null" stroke-dasharray="null" stroke-width="0" fill="#0000ff" stroke="#000000"/>
  <rect stroke="#000000" transform="rotate(57.58806610107422 44.35202789306641,338.95700073242193) " id="svg_74" height="18.5826" width="3.95022" y="329.66569" x="42.37691" stroke-linecap="null" stroke-linejoin="null" stroke-dasharray="null" stroke-width="0" fill="#007fff"/>
  <rect stroke="#000000" id="svg_75" transform="rotate(-59.122135162353516 63.535526275634645,338.49880981445307) " height="19.24118" width="3.95022" y="328.87822" x="61.56042" stroke-linecap="null" stroke-linejoin="null" stroke-dasharray="null" stroke-width="0" fill="#007fff"/>
  <rect id="svg_76" height="13.07813" width="12.88037" y="210.53024" x="68.96755" stroke-linecap="null" stroke-linejoin="null" stroke-dasharray="null" stroke-width="0" fill="#ffffaa" stroke="#000000"/>
  <ellipse transform="rotate(-178.3955078125 75.70703125,223.75628662109372) " ry="1.35562" rx="6.60547" id="svg_77" cy="223.7563" cx="75.70703" stroke-linecap="null" stroke-linejoin="null" stroke-dasharray="null" stroke-width="0" fill="#ffd4aa" stroke="#000000"/>
  <ellipse id="svg_78" transform="rotate(-178.3955078125 75.20629119873048,210.75646972656247) " ry="1.35562" rx="7.04693" cy="210.75647" cx="75.20629" stroke-linecap="null" stroke-linejoin="null" stroke-dasharray="null" stroke-width="0" fill="#ff007f" stroke="#000000"/>
  <path id="svg_79" d="m75.27609,211.32785c0,0 -5.34831,-5.66664 -2.81489,-7.2121c2.5334,-1.54545 4.22234,-4.63634 4.20538,-4.64797c-0.01697,-0.01162 2.55039,2.3298 1.42443,5.16312c-1.12597,2.83333 -2.81491,6.69695 -2.81491,6.69695l-0.00001,-0.00001l0,0.00001z" stroke-linecap="null" stroke-linejoin="null" stroke-dasharray="null" stroke-width="0" fill="#ff7f00" stroke="#000000"/>
  <path transform="rotate(5.9582624435424805 75.38401031494213,204.92260742187497) " id="svg_80" d="m75.49256,209.81143c0,0 -2.93534,-4.67166 -1.54491,-5.94577c1.39042,-1.27409 2.31737,-3.82227 2.30806,-3.83185c-0.00931,-0.00958 1.39974,1.92072 0.78178,4.25655c-0.61797,2.33584 -1.54492,5.52107 -1.54492,5.52107l-0.00001,0z" stroke-linecap="null" stroke-linejoin="null" stroke-dasharray="null" stroke-width="0" fill="#ffff00" stroke="#000000"/>
  <rect id="svg_81" height="28.23926" width="16.13672" y="193.9453" x="35.84372" stroke-linecap="null" stroke-linejoin="null" stroke-dasharray="null" stroke-width="0" fill="#007f00" stroke="#000000"/>
  <ellipse ry="4.03418" rx="8.18701" id="svg_82" cy="221.94726" cx="43.79342" stroke-linecap="null" stroke-linejoin="null" stroke-dasharray="null" stroke-width="0" fill="#007f00" stroke="#000000"/>
  <ellipse id="svg_84" ry="5.10205" rx="8.06836" cy="193.35204" cx="43.91208" stroke-linecap="null" stroke-linejoin="null" stroke-dasharray="null" stroke-width="0" fill="#007f00" stroke="#000000"/>
  <rect id="svg_85" height="11.39062" width="4.27148" y="179.46972" x="41.53903" stroke-linecap="null" stroke-linejoin="null" stroke-dasharray="null" stroke-width="0" fill="#007f00" stroke="#000000"/>
  <ellipse id="svg_86" ry="1.89844" rx="3.55957" cy="178.5205" cx="43.67477" stroke-linecap="null" stroke-linejoin="null" stroke-dasharray="null" stroke-width="0" fill="#007f00" stroke="#000000"/>
  <path id="svg_87" d="m88.54307,199.06721c0.10594,2.80343 0.50816,5.37176 1.09863,7.62695l1.09863,-3.42773l-0.31738,-0.23438l-0.43945,-0.3125l0.22949,-0.80078l0.80566,-2.85156l-2.47559,0l0.00001,0zm3.37402,0l-0.7959,2.8125l0.3418,0.24414l0.46387,0.33203l-0.26367,0.82031l-1.58203,4.95117c1.13827,3.45538 2.80282,5.8408 4.71192,6.35742l0,10.10742l-3.125,0l0,2.5l7.8125,0l0,-2.5l-3.125,0l0,-10.10742c3.33033,-0.89063 5.94325,-7.40011 6.25,-15.51758l-10.68848,0l0,0l-0.00001,0.00001z" stroke-linecap="null" stroke-linejoin="null" stroke-dasharray="null" stroke-width="0" fill="#d4aaff" stroke="#000000"/>
  <path transform="rotate(94.68254852294922 486.2284240722656,304.8543701171875) " d="m507.75211,312.19506c0,0 52.3173,-18.94909 -17.308,-19.56699c-69.62529,-0.6179 -40.12304,11.12229 -27.53543,12.56407c12.58763,1.44178 11.40754,1.02983 20.84826,8.85664c9.44074,7.82679 23.99517,-1.85371 23.99517,-1.85371l0,-0.00001z" stroke-linecap="null" stroke-linejoin="null" stroke-dasharray="null" stroke-width="0" fill="#ffaad4" id="svg_5" stroke="#000000"/>
  <rect fill="#ffaad4" stroke-width="0" stroke-dasharray="null" stroke-linejoin="null" stroke-linecap="null" x="486.68746" y="327.18752" width="11.8125" height="11.8125" id="svg_7" stroke="#000000"/>
  <rect fill="#bfbfbf" stroke-width="0" stroke-dasharray="null" stroke-linejoin="null" stroke-linecap="null" x="465.49997" y="22" width="37.41664" height="2.58334" id="svg_92" stroke="#000000"/>
  <ellipse fill="#bfbfbf" stroke-width="0" stroke-dasharray="null" stroke-linejoin="null" stroke-linecap="null" cx="466.06253" cy="38.75" id="svg_94" rx="25.25" ry="3.75" stroke="#000000"/>
  <rect fill="#bfbfbf" stroke-width="0" stroke-dasharray="null" stroke-linejoin="null" stroke-linecap="null" x="459.58792" y="28.44692" width="13.88298" height="1.60866" id="svg_95" transform="rotate(87.26664733886719 466.5294189453125,29.25124549865723) " stroke="#000000"/>
  <rect opacity="0.5" id="svg_58" fill="#7f7f7f" stroke-width="0" stroke-dasharray="null" stroke-linejoin="null" stroke-linecap="null" x="502.00226" y="22.03809" width="0.67712" height="173.33333" stroke="#000000"/>
  <rect opacity="0.5" fill="#ffffff" stroke-width="0" stroke-dasharray="null" stroke-linejoin="null" stroke-linecap="null" x="500.40045" y="24.70777" width="0.67712" height="173.33333" id="svg_106" stroke="#000000"/>
  <rect opacity="0.4" id="svg_83" fill="#7f7f7f" stroke-width="0" stroke-dasharray="null" stroke-linejoin="null" stroke-linecap="null" x="493.76273" y="177.70309" width="13.92186" height="9.17578" stroke="#000000"/>
  <rect fill="#bfbfbf" stroke-width="0" stroke-dasharray="null" stroke-linejoin="null" stroke-linecap="null" x="493.15629" y="178.54684" width="14.34375" height="6.75" id="svg_96" stroke="#000000"/>
  <rect fill="#7f7f7f" stroke-width="0" stroke-dasharray="null" stroke-linejoin="null" stroke-linecap="null" x="495.45264" y="175.01615" width="1.42383" height="6.64453" id="svg_108" stroke="#000000"/>
  <rect fill="#bfbfbf" stroke-width="0" stroke-dasharray="null" stroke-linejoin="null" stroke-linecap="null" opacity="0.8" x="495.21535" y="175.96537" width="1.42383" height="3.08496" id="svg_107" stroke="#000000"/>
  <ellipse id="svg_102" opacity="0.6" fill="#7f7f7f" stroke-width="0" stroke-dasharray="null" stroke-linejoin="null" stroke-linecap="null" cx="493.00191" cy="175.33007" rx="5.24582" ry="1.60245" stroke="#000000"/>
  <rect fill="#bfbfbf" stroke-width="0" stroke-dasharray="null" stroke-linejoin="null" stroke-linecap="null" x="481.11719" y="177.90332" width="17.63965" height="4.64063" id="svg_98" stroke="#000000"/>
  <rect fill="#bfbfbf" stroke-width="0" stroke-dasharray="null" stroke-linejoin="null" stroke-linecap="null" x="479.88497" y="178.98287" width="7.58382" height="5.71183" id="svg_99" transform="rotate(90.68073272705078 483.67687988281244,181.8387756347656) " stroke="#000000"/>
  <ellipse fill="#bfbfbf" stroke-width="0" stroke-dasharray="null" stroke-linejoin="null" stroke-linecap="null" cx="492.61349" cy="174.70167" id="svg_100" rx="5.43603" ry="0.98437" stroke="#000000"/>
  <ellipse id="svg_32" opacity="0.6" fill="#7f7f7f" stroke-width="0" stroke-dasharray="null" stroke-linejoin="null" stroke-linecap="null" cx="510.94232" cy="175.25839" rx="5.92724" ry="1.50934" stroke="#000000"/>
  <ellipse fill="#bfbfbf" stroke-width="0" stroke-dasharray="null" stroke-linejoin="null" stroke-linecap="null" cx="511.27046" cy="174.88624" rx="5.97656" ry="0.98437" id="svg_101" stroke="#000000"/>
  <ellipse opacity="0.6" id="svg_13" fill="#7f7f7f" stroke-width="0" stroke-dasharray="null" stroke-linejoin="null" stroke-linecap="null" cx="466.06253" cy="40.36719" rx="25.25" ry="2.13281" stroke="#000000"/>
  <rect opacity="0.5" id="svg_88" fill="#7f7f7f" stroke-width="0" stroke-dasharray="null" stroke-linejoin="null" stroke-linecap="null" x="486.61228" y="181.37199" width="9.87905" height="1.06072" stroke="#000000"/>
  <rect id="svg_90" opacity="0.5" fill="#7f7f7f" stroke-width="0" stroke-dasharray="null" stroke-linejoin="null" stroke-linecap="null" x="485.66501" y="181.30168" width="0.97145" height="3.87171" stroke="#000000"/>
  <rect id="svg_93" opacity="0.8" fill="#ffffff" stroke-width="0" stroke-dasharray="null" stroke-linejoin="null" stroke-linecap="null" x="481.27152" y="178.30298" width="0.20426" height="6.83217" stroke="#000000"/>
  <rect id="svg_97" opacity="0.8" fill="#ffffff" stroke-width="0" stroke-dasharray="null" stroke-linejoin="null" stroke-linecap="null" x="481.14972" y="178.07774" width="14.1374" height="0.35681" stroke="#000000"/>
  <rect height="18.64453" width="11.20996" y="202.59081" x="37.92282" stroke-linecap="null" stroke-linejoin="null" stroke-dasharray="null" stroke-width="0" fill="#ff0000" id="svg_103" opacity="0.1" stroke="#000000"/>
  <ellipse fill="#c9fce2" stroke-width="0" stroke-dasharray="null" stroke-linejoin="null" stroke-linecap="null" cx="50.10376" cy="207.07929" id="svg_89" rx="0.51557" ry="13.64314" transform="rotate(0.023361125960946083 50.103755951045976,207.07928466797773) " stroke="#000000"/>
  <rect fill="#7f7f7f" stroke-width="0" stroke-dasharray="null" stroke-linejoin="null" stroke-linecap="null" opacity="0.8" x="505.61969" y="176.03953" width="1.16057" height="1.92439" id="svg_109" stroke="#000000"/>
  <rect fill="#c9fce2" stroke-width="0" stroke-dasharray="null" stroke-linejoin="null" stroke-linecap="null" x="482.59801" y="178.71854" width="12.63925" height="2.30885" id="svg_110" opacity="0.2" stroke="#000000"/>
  <rect fill="#c9fce2" stroke-width="0" stroke-dasharray="null" stroke-linejoin="null" stroke-linecap="null" x="482.46454" y="181.38822" width="2.49448" height="2.84279" opacity="0.2" id="svg_111" stroke="#000000"/>
  <ellipse fill="#ffffff" stroke-width="0" stroke-dasharray="null" stroke-linejoin="null" stroke-linecap="null" cx="466.72995" cy="36.01358" rx="16.30658" ry="0.74661" id="svg_112" opacity="0.2" stroke="#000000"/>
  <path stroke="#000000" fill="#ff7f00" stroke-width="0" stroke-dasharray="null" stroke-linejoin="null" stroke-linecap="null" opacity="0.3" d="m353.21008,202.04357l5.99342,-1.25381l-1.58228,1.88613l7.91137,-0.71543l-1.58228,1.49589l16.2183,-0.58535l-14.24046,2.73163" id="svg_117" transform="rotate(12.920458793640137 366.6893310546878,203.19619750976562) "/>
  <path stroke="#000000" fill="#ff7f00" stroke-width="0" stroke-dasharray="null" stroke-linejoin="null" stroke-linecap="null" opacity="0.2" d="m356.94685,198.45181l3.76132,-0.99401l-0.99299,1.49532l4.96497,-0.56719l-0.99299,1.18594l10.17818,-0.46406l-8.93693,2.16563" transform="rotate(12.920458793640137 365.40609741210955,199.3656158447265) " id="svg_118"/>
  <path stroke="#000000" fill="#ffff00" stroke-width="0" stroke-dasharray="null" stroke-linejoin="null" stroke-linecap="null" d="m352.21357,202.09883l4.46784,-1.25381l-1.17952,1.88613l5.89759,-0.71543l-1.17952,1.49589l12.09005,-0.58535l-10.61565,2.73163" transform="rotate(12.920458793640137 362.2617797851563,203.25144958496082) " id="svg_119"/>
  <path fill="#ffff00" stroke-width="0" stroke-dasharray="null" stroke-linejoin="null" stroke-linecap="null" d="m355.44072,198.11605l3.77153,-0.93978l-0.99569,1.41372l4.97845,-0.53624l-0.99569,1.12123l10.20581,-0.43874l-8.9612,2.04746" transform="rotate(12.920458793640137 363.9229125976565,198.9799804687498) " id="svg_120" stroke="#000000"/>
  <rect height="18" width="47.1875" y="351" x="122" stroke-linecap="null" stroke-linejoin="null" stroke-dasharray="null" stroke-width="0" fill="#3f3f3f" id="svg_124" stroke="#000000"/>
  <path stroke="#000000" fill="#ff7f00" stroke-width="0" stroke-dasharray="null" stroke-linejoin="null" stroke-linecap="null" opacity="0.3" d="m322.90707,213.09196l4.46784,-1.73945l-1.17952,2.61669l5.89759,-0.99254l-1.17952,2.07529l12.09005,-0.81207l-10.65545,3.6494" transform="rotate(17.141950607299805 332.955291748047,214.6208953857422) " id="svg_133"/>
  <path fill="#ff0000" stroke="#000000" stroke-width="0" stroke-dasharray="null" stroke-linejoin="null" stroke-linecap="null" opacity="0.3" d="m91.771,205.86576c0,0 0,5.69531 2.61035,6.16992c2.61035,0.47461 4.74609,0 4.74609,-3.08496c0,-3.08496 0.47461,-4.27148 0.30321,-4.39408c-0.1714,-0.1226 -7.65966,1.30912 -7.65966,1.30912l0.00001,0z" id="svg_134" transform="rotate(9.23643970489502 95.61949157714899,208.37145996093747) "/>
  <ellipse stroke="#000000" id="svg_138" ry="14.15625" rx="18" cy="194.53646" cx="76.79168" opacity="0.3" stroke-linecap="null" stroke-linejoin="null" stroke-dasharray="null" stroke-width="0" fill="#ffffff"/>
  <rect stroke="#000000" transform="rotate(-59.05559539794922 63.373245239257756,340.070068359375) " id="svg_147" height="15.57555" width="0.74222" y="332.28231" x="63.00213" stroke-linecap="null" stroke-linejoin="null" stroke-dasharray="null" stroke-width="0" fill="#0000ff"/>
  <rect stroke="#000000" id="svg_148" transform="rotate(57.96266174316406 43.77011108398426,340.52877807617193) " height="14.83969" width="0.62907" y="333.10892" x="43.45557" stroke-linecap="null" stroke-linejoin="null" stroke-dasharray="null" stroke-width="0" fill="#0000ff"/>
  <ellipse stroke="#000000" opacity="0.2" id="svg_149" fill="#ffffff" stroke-width="0" stroke-dasharray="null" stroke-linejoin="null" stroke-linecap="null" cx="493.32541" cy="174.10841" rx="5.43603" ry="0.62841"/>
  <ellipse id="svg_150" stroke="#000000" opacity="0.2" fill="#ffffff" stroke-width="0" stroke-dasharray="null" stroke-linejoin="null" stroke-linecap="null" cx="511.36056" cy="174.58302" rx="5.43603" ry="0.62841"/>
  <rect stroke="#000000" id="svg_151" height="26.24999" width="21.75" y="109.67451" x="11.09118" opacity="0.2" stroke-linecap="null" stroke-linejoin="null" stroke-dasharray="null" stroke-width="0" fill="#ff0000"/>
  <rect id="svg_154" stroke="#000000" height="26.24999" width="21.75" y="80.00784" x="42.8134" opacity="0.2" stroke-linecap="null" stroke-linejoin="null" stroke-dasharray="null" stroke-width="0" fill="#ff0000"/>
  <rect stroke="#000000" id="svg_156" height="14.01562" width="12.46875" y="211.66583" x="68.82555" opacity="0.5" stroke-linecap="null" stroke-linejoin="null" stroke-dasharray="null" stroke-width="0" fill="#ff0000"/>
  <rect stroke="#000000" id="svg_155" height="92.99998" width="60.75001" y="163.48006" x="576.61898" stroke-linecap="null" stroke-linejoin="null" stroke-dasharray="null" stroke-width="0" fill="#d37676"/>
  <rect stroke="#000000" id="svg_162" height="35.91664" width="1" y="160.8134" x="587.28565" opacity="0.1" stroke-linecap="null" stroke-linejoin="null" stroke-dasharray="null" stroke-width="0" fill="#000000"/>
 </g>
</svg>
