<svg width="640" height="460" xmlns="http://www.w3.org/2000/svg" xmlns:svg="http://www.w3.org/2000/svg">
 <!-- Created with SVG-edit - http://svg-edit.googlecode.com/ -->
 <defs>
  <linearGradient id="svg_141" spreadMethod="pad">
   <stop stop-color="0" stop-opacity="0" offset="0.02311"/>
   <stop stop-color="0" stop-opacity="0" offset="0.06608"/>
   <stop stop-color="#2dafaf" offset="1"/>
  </linearGradient>
  <linearGradient id="svg_135" spreadMethod="pad" x1="0" y1="0" x2="1" y2="0">
   <stop stop-color="#ffffff" offset="0.61296"/>
   <stop stop-color="0" stop-opacity="0" offset="0.97624"/>
   <stop stop-color="0" stop-opacity="0" offset="1"/>
   <stop stop-color="0" stop-opacity="0" offset="1"/>
  </linearGradient>
 </defs>
 <g stroke="null">
  <title>Layer 1</title>
  <ellipse id="svg_143" ry="5.29687" rx="7.03125" cy="202.13021" cx="75.52605" opacity="0.4" stroke-linecap="null" stroke-linejoin="null" stroke-dasharray="null" stroke-width="0" fill="#ffffff" stroke="#000000"/>
  <rect stroke="#000000" id="svg_67" height="307.80553" width="637.99076" y="6.24525" x="0.83984" stroke-linecap="null" stroke-linejoin="null" stroke-dasharray="null" stroke-width="0" fill="#ffd4aa"/>
  <rect id="svg_161" height="75.66665" width="58.08335" y="162.32381" x="570.79606" stroke-linecap="null" stroke-linejoin="null" stroke-dasharray="null" stroke-width="0" fill="#d35b5b" stroke="#000000"/>
  <rect id="svg_160" fill="#bfbfbf" stroke-width="0" stroke-dasharray="null" stroke-linejoin="null" stroke-linecap="null" x="557.75" y="163.75001" width="80.16677" height="9.83334" stroke="#000000"/>
  <rect id="svg_52" height="11.06251" width="638.73958" y="299.14514" x="1.62943" opacity="0.4" stroke-linecap="null" stroke-linejoin="null" stroke-dasharray="null" fill="#ffaaaa" stroke="#000000"/>
  <rect height="22.59259" width="640.00003" y="366.85185" x="1.07407" stroke-linecap="null" stroke-linejoin="null" stroke-dasharray="null" stroke-width="0" fill="#3f3f3f" id="svg_104" stroke="#000000"/>
  <rect id="svg_37" height="27" width="640.99996" y="415.55555" x="-0.55553" stroke-linecap="null" stroke-linejoin="null" stroke-dasharray="null" stroke-width="0" fill="#3f3f3f" stroke="#000000"/>
  <rect id="svg_36" height="16" width="640.99996" y="337.78473" x="0.89584" stroke-linecap="null" stroke-linejoin="null" stroke-dasharray="null" stroke-width="0" fill="#3f3f3f" stroke="#000000"/>
  <rect id="svg_35" height="10.125" width="640.99998" y="322.5625" x="-0.56251" stroke-linecap="null" stroke-linejoin="null" stroke-dasharray="null" stroke-width="0" fill="#3f3f3f" stroke="#000000"/>
  <rect id="svg_31" height="8.0625" width="641.99997" y="310.94922" x="1.01562" stroke-linecap="null" stroke-linejoin="null" stroke-dasharray="null" stroke-width="0" fill="#3f3f3f" stroke="#000000"/>
  <rect id="svg_44" height="129.6667" width="43.99994" y="312.33332" x="586" stroke-linecap="null" stroke-linejoin="null" stroke-dasharray="null" stroke-width="0" fill="#ffffff" stroke="#000000"/>
  <rect id="svg_43" height="145.88889" width="43.99994" y="312.88889" x="492.44445" stroke-linecap="null" stroke-linejoin="null" stroke-dasharray="null" stroke-width="0" fill="#ffffff" stroke="#000000"/>
  <rect id="svg_42" height="173.99999" width="43.99994" y="283" x="406" stroke-linecap="null" stroke-linejoin="null" stroke-dasharray="null" stroke-width="0" fill="#ffffff" stroke="#000000"/>
  <rect id="svg_41" height="176.99999" width="43.99994" y="282" x="316" stroke-linecap="null" stroke-linejoin="null" stroke-dasharray="null" stroke-width="0" fill="#ffffff" stroke="#000000"/>
  <rect id="svg_40" height="172.77777" width="42.99994" y="285" x="225" stroke-linecap="null" stroke-linejoin="null" stroke-dasharray="null" stroke-width="0" fill="#ffffff" stroke="#000000"/>
  <rect id="svg_63" height="10" width="51" y="330.16666" x="399.16667" stroke-linecap="null" stroke-linejoin="null" stroke-dasharray="null" stroke-width="0" fill="#3f3f3f" stroke="#000000"/>
  <rect id="svg_64" height="22" width="51" y="322.16667" x="311.16667" stroke-linecap="null" stroke-linejoin="null" stroke-dasharray="null" stroke-width="0" fill="#3f3f3f" stroke="#000000"/>
  <rect id="svg_65" height="10" width="50" y="330.41666" x="490.41667" stroke-linecap="null" stroke-linejoin="null" stroke-dasharray="null" stroke-width="0" fill="#3f3f3f" stroke="#000000"/>
  <rect id="svg_39" height="146.9375" width="43.99994" y="311.0625" x="124" stroke-linecap="null" stroke-linejoin="null" stroke-dasharray="null" stroke-width="0" fill="#ffffff" stroke="#000000"/>
  <path id="svg_69" d="m210.92795,319.46142c0,0 8.53233,10.39352 -2.82273,10.73244c-11.35506,0.33892 -6.54359,-6.10054 -4.4907,-6.89136c2.05289,-0.79081 1.86043,-0.56486 3.4001,-4.85784c1.53967,-4.29297 3.91333,1.01676 3.91333,1.01676z" stroke-linecap="null" stroke-linejoin="null" stroke-dasharray="null" stroke-width="0.1" fill="#ffaad4" stroke="#000000"/>
  <path id="svg_68" transform="rotate(94.68254852294922 214.37817382812503,294.9201049804688) " d="m233.33034,291.79404c0,0 46.06676,8.06964 -15.24015,8.33277c-61.3069,0.26314 -35.32939,-4.73652 -24.24567,-5.35052c11.08374,-0.61399 10.04464,-0.43857 18.35744,-3.77168c8.31282,-3.33311 21.12838,0.78942 21.12838,0.78942l0,0.00001z" stroke-linecap="null" stroke-linejoin="null" stroke-dasharray="null" stroke-width="0" fill="#ffaad4" stroke="#000000"/>
  <rect height="8" width="48" y="330.41667" x="122.08333" stroke-linecap="null" stroke-linejoin="null" stroke-dasharray="null" stroke-width="0" fill="#3f3f3f" id="svg_122" stroke="#000000"/>
  <rect height="8" width="48" y="330.41667" x="222.08333" stroke-linecap="null" stroke-linejoin="null" stroke-dasharray="null" stroke-width="0" fill="#3f3f3f" id="svg_123" stroke="#000000"/>
  <ellipse fill="#000000" stroke-dasharray="null" stroke-linejoin="null" stroke-linecap="null" cx="337.29368" cy="350.72051" rx="145.82902" ry="12.50916" transform="rotate(-0.36375167965888977 337.2936706543273,350.7204895019505) " stroke-width="0" opacity="0.4" id="svg_125" stroke="#000000"/>
  <ellipse fill="#ffaaff" stroke-dasharray="null" stroke-linejoin="null" stroke-linecap="null" cx="334.53459" cy="203.06532" id="svg_6" rx="201.56292" ry="148.06637" transform="rotate(1.585239291191101 334.53457641601716,203.0653228759759) " stroke="#000000"/>
  <ellipse fill="#ffffff" stroke-dasharray="null" stroke-linejoin="null" stroke-linecap="null" cx="312.4818" cy="203.4061" rx="168.9232" ry="134.03025" transform="rotate(1.585239291191101 312.48181152344085,203.40611267090014) " id="svg_139" stroke-width="0" opacity="0.15" stroke="#000000"/>
  <rect fill="#ffd4aa" stroke-width="0" stroke-dasharray="null" stroke-linejoin="null" stroke-linecap="null" x="112.62924" y="50.21168" width="437.09249" height="173.80101" transform="rotate(-3.5340118408203125 331.17547607421915,137.11218261718798) " id="svg_8" stroke="#000000"/>
  <rect id="svg_152" stroke="#000000" height="87.58332" width="73.75" y="34.75437" x="126.11895" opacity="0.9" stroke-linecap="null" stroke-linejoin="null" stroke-dasharray="null" stroke-width="0" fill="#ffffff"/>
  <rect id="svg_145" height="2.125" width="637.83334" y="5.61722" x="-0.44268" stroke-linecap="null" stroke-linejoin="null" stroke-dasharray="null" stroke-width="0" fill="#ffaaaa" stroke="#000000"/>
  <rect stroke="#000000" id="svg_144" height="4.38888" width="640.50002" y="1.34117" x="0.75784" stroke-linecap="null" stroke-linejoin="null" stroke-dasharray="null" stroke-width="0" fill="#fc9494"/>
  <rect fill="#bfbfbf" stroke-width="0" stroke-dasharray="null" stroke-linejoin="null" stroke-linecap="null" x="500" y="22.75" width="2.91668" height="173.33333" id="svg_91" stroke="#000000"/>
  <ellipse fill="#ffffff" cx="341.41502" cy="227.06575" rx="227.17473" ry="39.99715" transform="rotate(-1.0663634538650513 341.41500854491846,227.0657653808577) " stroke="#565555" id="svg_128"/>
  <ellipse fill="url(#svg_135)" cx="340.66502" cy="226.81575" rx="227.17473" ry="39.99715" transform="rotate(-1.0663634538650513 340.66500854492296,226.81575012206883) " id="svg_2" stroke="#565555" opacity="0.3" stroke-width="0"/>
  <ellipse fill="#ffffff" cx="337.1789" cy="217.74779" id="svg_1" rx="204.75" ry="29.70921" transform="rotate(-1.093762993812561 337.1788940429663,217.7477874755866) " stroke="#302f2f" stroke-width="0"/>
  <ellipse fill="#5ef9f9" stroke-width="5" cx="341.94071" cy="223.34818" rx="191.02661" ry="18.88306" transform="rotate(-0.93995201587677 341.9407043457004,223.3481750488281) " id="svg_9" stroke="#92fcfc"/>
  <path fill="#ff7f00" stroke-width="0" stroke-dasharray="null" stroke-linejoin="null" stroke-linecap="null" d="m364.58465,217.44097l0,-14.23049l13.73788,14.23049l-13.73788,0z" transform="rotate(-77.53276824951172 371.45361328125006,210.32574462890634) " id="svg_113" stroke="#000000"/>
  <path fill="#ff7f00" stroke-width="0" stroke-dasharray="null" stroke-linejoin="null" stroke-linecap="null" d="m375.60538,210.77312l0,-6.48196l4.68274,6.48196l-4.68274,0z" transform="rotate(-47.76483154296875 377.9467468261718,207.53213500976557) " id="svg_115" stroke="#000000"/>
  <ellipse fill="#ffaa56" stroke-width="0" stroke-dasharray="null" stroke-linejoin="null" stroke-linecap="null" cx="343.0706" cy="211.1719" rx="35.07523" ry="19.125" id="svg_34" stroke="#ffaa56"/>
  <ellipse fill="#fca14b" stroke-width="0.1" stroke-dasharray="null" stroke-linejoin="null" stroke-linecap="null" cx="319.33776" cy="188.1874" rx="15.61411" ry="14.91504" transform="rotate(51.97122573852539 319.3377685546875,188.18739318847656) " id="svg_116" stroke="#ffaa56"/>
  <ellipse fill="url(#svg_141)" stroke-width="2" cx="345.25893" cy="218.76953" rx="173.50435" ry="18.88306" transform="rotate(-0.93995201587677 345.25894165039097,218.76953125000105) " id="svg_140" opacity="0.1" stroke="#7ebcbc"/>
  <ellipse fill="#ffff00" stroke-width="0.1" stroke-dasharray="null" stroke-linejoin="null" stroke-linecap="null" cx="318.37557" cy="188.34159" rx="15.61411" ry="14.91504" id="svg_12" transform="rotate(51.97122573852539 318.37554931640625,188.3415985107422) " stroke="#ffaa56"/>
  <path stroke="#000000" id="svg_137" fill="#ff7f00" stroke-width="0" stroke-dasharray="null" stroke-linejoin="null" stroke-linecap="null" d="m312.43245,195.45907c0,0 -2.40257,0.89562 -3.54225,-0.34447c-1.13968,-1.2401 -2.21776,-1.1712 -1.84813,0.34447c0.36963,1.51567 2.55658,3.5825 3.75787,3.72029c1.20129,0.13779 2.21776,-1.10231 2.34097,-1.37789c0.12321,-0.27558 -0.70845,-2.3424 -0.70845,-2.3424z" transform="rotate(-68.77131652832031 310.0607299804688,196.71881103515625) "/>
  <path fill="#e2650b" stroke-width="0" stroke-dasharray="null" stroke-linejoin="null" stroke-linecap="null" d="m312.96972,192.90894c0,0 -5.67,1.79129 -8.35961,-0.68896c-2.68961,-2.48025 -5.23384,-2.34246 -4.36154,0.68896c0.87231,3.03142 6.03346,7.16517 8.86846,7.44076c2.835,0.27558 5.23384,-2.20467 5.52461,-2.75584c0.29077,-0.55117 -1.67192,-4.68492 -1.67192,-4.68492z" transform="rotate(-68.77131652832031 307.3724975585938,195.42846679687503) " id="svg_33" stroke="#000000"/>
  <path fill="#ff7f00" stroke-width="0" stroke-dasharray="null" stroke-linejoin="null" stroke-linecap="null" d="m312.72129,192.59748c0,0 -5.67,1.79129 -8.35961,-0.68896c-2.68961,-2.48025 -5.23384,-2.34246 -4.36154,0.68896c0.87231,3.03142 6.03346,7.16517 8.86846,7.44076c2.835,0.27558 5.23384,-2.20467 5.52461,-2.75584c0.29077,-0.55117 -1.67192,-4.68492 -1.67192,-4.68492z" id="svg_21" transform="rotate(-68.77131652832031 307.1240844726563,195.11700439453122) " stroke="#000000"/>
  <polygon id="svg_25" fill="none" stroke="null"/>
  <ellipse fill="#ffff00" stroke-width="0" stroke-dasharray="null" stroke-linejoin="null" stroke-linecap="null" cx="312.15052" cy="189.83877" id="svg_16" rx="5.40824" ry="2.9283" transform="rotate(43.555824279785156 312.1505126953125,189.8387756347656) " stroke="#000000"/>
  <ellipse stroke="#000000" opacity="0.7" id="svg_131" ry="3.87103" rx="1.04699" cy="186.46834" cx="317.0753" stroke-linecap="null" stroke-linejoin="null" stroke-dasharray="null" stroke-width="0" fill="#ffffff"/>
  <ellipse id="svg_4" ry="3.27035" rx="0.84677" cy="186.46834" cx="316.87507" stroke-linecap="null" stroke-linejoin="null" stroke-dasharray="null" stroke-width="0" fill="#000000" stroke="#000000"/>
  <ellipse fill="#ffff00" stroke-width="0" stroke-dasharray="null" stroke-linejoin="null" stroke-linecap="null" cx="307.11511" cy="188.09568" rx="5.19991" ry="2.60265" transform="rotate(-62.467559814453125 307.1150817871093,188.09567260742185) " id="svg_18" stroke="#000000"/>
  <ellipse stroke="#000000" id="svg_132" opacity="0.7" ry="3.32041" rx="1.19716" cy="186.81873" cx="305.41215" stroke-linecap="null" stroke-linejoin="null" stroke-dasharray="null" stroke-width="0" fill="#ffffff"/>
  <ellipse ry="3.00339" rx="0.6549" id="svg_3" cy="186.52674" cx="305.27856" stroke-linecap="null" stroke-linejoin="null" stroke-dasharray="null" stroke-width="0" fill="#000000" stroke="#000000"/>
  <ellipse fill="#ffff00" stroke-width="0" stroke-dasharray="null" stroke-linejoin="null" stroke-linecap="null" cx="342.74678" cy="211.82448" id="svg_10" rx="34.875" ry="19.125" stroke="#ffaa56"/>
  <ellipse fill="#aaffff" stroke-width="0" stroke-dasharray="null" stroke-linejoin="null" stroke-linecap="null" cx="342.44925" cy="217.3705" id="svg_22" rx="43.90137" ry="5.15292" transform="rotate(-2.663031816482544 342.4492492675778,217.37049865722608) " stroke="#000000"/>
  <ellipse stroke="#56ffff" transform="rotate(-2.1619768142700195 347.59109497070506,222.039123535157) " ry="10.1154" rx="63.75" id="svg_169" cy="222.03911" cx="347.5911" opacity="0.9" stroke-linecap="null" stroke-linejoin="null" stroke-dasharray="null" stroke-width="0" fill="#5ef9f9"/>
  <ellipse fill="#c4e0fc" stroke-width="0" stroke-dasharray="null" stroke-linejoin="null" stroke-linecap="null" cx="343.14128" cy="218.67782" rx="58.48485" ry="6.85543" transform="rotate(-2.663031816482544 343.14129638671847,218.67781066894452) " id="svg_28" stroke="#000000"/>
  <path fill="#ffff00" stroke-width="0" stroke-dasharray="null" stroke-linejoin="null" stroke-linecap="null" d="m364.24677,218.34199l0,-14.23049l13.73788,14.23049l-13.73788,0z" id="svg_20" transform="rotate(-77.53276824951172 371.11572265624994,211.22674560546872) " stroke="#000000"/>
  <ellipse fill="#aaffff" stroke-width="0" stroke-dasharray="null" stroke-linejoin="null" stroke-linecap="null" cx="343.52354" cy="218.12164" rx="54.99762" ry="4.74451" transform="rotate(-2.663031816482544 343.5235290527338,218.12165832519474) " id="svg_27" stroke="#000000"/>
  <ellipse fill="#b9d8f7" stroke-width="0" stroke-dasharray="null" stroke-linejoin="null" stroke-linecap="null" cx="342.04557" cy="217.832" rx="48.69052" ry="4.57591" transform="rotate(-2.663031816482544 342.04556274414017,217.83200073242244) " id="svg_26" stroke="#000000"/>
  <ellipse fill="#aaffff" stroke-width="0" stroke-dasharray="null" stroke-linejoin="null" stroke-linecap="null" cx="343.55432" cy="217.02338" rx="42.82914" ry="3.28547" transform="rotate(-2.663031816482544 343.5543212890616,217.02339172363264) " id="svg_23" stroke="#000000"/>
  <ellipse fill="#ffff00" stroke-width="0" stroke-dasharray="null" stroke-linejoin="null" stroke-linecap="null" cx="343.44272" cy="214.05375" rx="34.75981" ry="4.55527" id="svg_24" transform="rotate(-2.0853896141052246 343.4427490234373,214.05375671386724) " stroke="#56ffff"/>
  <path fill="#ffff00" stroke-width="0" stroke-dasharray="null" stroke-linejoin="null" stroke-linecap="null" d="m373.06043,211.96489l0,-6.48196l7.22319,6.48196l-7.22319,0z" transform="rotate(-49.54206848144531 376.6720275878907,208.72390747070312) " id="svg_29" stroke="#000000"/>
  <path id="svg_30" transform="rotate(94.68254852294922 223.84501647949216,328.4449768066406) " d="m242.79718,322.40394c0,0 46.06676,15.59424 -15.24015,16.10275c-61.3069,0.50851 -35.32939,-9.15314 -24.24567,-10.33966c11.08374,-1.18651 10.04464,-0.84751 18.35744,-7.28861c8.31282,-6.44109 21.12838,1.52552 21.12838,1.52552z" stroke-linecap="null" stroke-linejoin="null" stroke-dasharray="null" fill="#ffaad4" stroke="#000000"/>
  <path stroke="#000000" transform="rotate(94.68254852294922 225.4378509521485,329.3156433105468) " id="svg_15" d="m244.39001,323.30643c0,0 46.06676,15.51202 -15.24015,16.01784c-61.30691,0.50582 -35.32939,-9.10488 -24.24567,-10.28514c11.08374,-1.18026 10.04464,-0.84304 18.35744,-7.25018c8.31282,-6.40713 21.12838,1.51748 21.12838,1.51748z" stroke-linecap="null" stroke-linejoin="null" stroke-dasharray="null" stroke-width="0" fill="#ffaad4"/>
  <rect id="svg_66" height="8" width="48" y="316.41667" x="122.08333" stroke-linecap="null" stroke-linejoin="null" stroke-dasharray="null" stroke-width="0" fill="#3f3f3f" stroke="#000000"/>
  <rect height="7.33331" width="46.1875" y="316" x="491.99999" stroke-linecap="null" stroke-linejoin="null" stroke-dasharray="null" stroke-width="0" fill="#3f3f3f" id="svg_114" stroke="#000000"/>
  <path id="svg_19" transform="rotate(82.43724822998047 446.6934204101562,321.62182617187506) " d="m462.96897,329.29301c0,0 39.56074,-19.80226 -13.08778,-20.44798c-52.64851,-0.64572 -30.33981,11.62306 -20.82145,13.12976c9.51838,1.50669 8.62603,1.0762 15.76481,9.2554c7.1388,8.17919 18.14441,-1.93717 18.14441,-1.93717l0,-0.00001l0.00001,0z" stroke-linecap="null" stroke-linejoin="null" stroke-dasharray="null" fill="#ffaad4" stroke="#000000"/>
  <rect id="svg_62" height="11" width="48" y="327.97916" x="583.54167" stroke-linecap="null" stroke-linejoin="null" stroke-dasharray="null" stroke-width="0" fill="#3f3f3f" stroke="#000000"/>
  <rect id="svg_38" height="147.20311" width="43.99994" y="310.79688" x="38" stroke-linecap="null" stroke-linejoin="null" stroke-dasharray="null" stroke-width="0" fill="#ffffff" stroke="#000000"/>
  <rect id="svg_45" height="8" width="49" y="316.625" x="35.4375" stroke-linecap="null" stroke-linejoin="null" stroke-dasharray="null" stroke-width="0" fill="#3f3f3f" stroke="#000000"/>
  <rect id="svg_46" height="17" width="46.1875" y="351" x="37" stroke-linecap="null" stroke-linejoin="null" stroke-dasharray="null" stroke-width="0" fill="#3f3f3f" stroke="#000000"/>
  <rect id="svg_47" height="30" width="50" y="388.33333" x="121" stroke-linecap="null" stroke-linejoin="null" stroke-dasharray="null" stroke-width="0" fill="#3f3f3f" stroke="#000000"/>
  <rect id="svg_48" height="32" width="47" y="387.22223" x="35.88889" stroke-linecap="null" stroke-linejoin="null" stroke-dasharray="null" stroke-width="0" fill="#3f3f3f" stroke="#000000"/>
  <rect id="svg_49" height="28" width="51" y="389.33333" x="402.22222" stroke-linecap="null" stroke-linejoin="null" stroke-dasharray="null" stroke-width="0" fill="#3f3f3f" stroke="#000000"/>
  <rect id="svg_50" height="31" width="47" y="390.55555" x="314.77778" stroke-linecap="null" stroke-linejoin="null" stroke-dasharray="null" stroke-width="0" fill="#3f3f3f" stroke="#000000"/>
  <rect id="svg_51" height="31" width="46" y="387.88889" x="224.22222" stroke-linecap="null" stroke-linejoin="null" stroke-dasharray="null" stroke-width="0" fill="#3f3f3f" stroke="#000000"/>
  <rect id="svg_53" height="16" width="46.1875" y="355.66667" x="406.66666" stroke-linecap="null" stroke-linejoin="null" stroke-dasharray="null" stroke-width="0" fill="#3f3f3f" stroke="#000000"/>
  <rect id="svg_54" height="18" width="46.1875" y="350.33334" x="222.33333" stroke-linecap="null" stroke-linejoin="null" stroke-dasharray="null" stroke-width="0" fill="#3f3f3f" stroke="#000000"/>
  <rect id="svg_55" height="18" width="46.1875" y="352" x="313.66667" stroke-linecap="null" stroke-linejoin="null" stroke-dasharray="null" stroke-width="0" fill="#3f3f3f" stroke="#000000"/>
  <rect id="svg_56" height="30" width="47" y="388.11111" x="491.55556" stroke-linecap="null" stroke-linejoin="null" stroke-dasharray="null" stroke-width="0" fill="#3f3f3f" stroke="#000000"/>
  <rect id="svg_57" height="31" width="46" y="388" x="584.77778" stroke-linecap="null" stroke-linejoin="null" stroke-dasharray="null" stroke-width="0" fill="#3f3f3f" stroke="#000000"/>
  <rect id="svg_59" height="16" width="49.74305" y="352.11111" x="490.33333" stroke-linecap="null" stroke-linejoin="null" stroke-dasharray="null" stroke-width="0" fill="#3f3f3f" stroke="#000000"/>
  <rect id="svg_60" height="7.33331" width="46.1875" y="317" x="584.99999" stroke-linecap="null" stroke-linejoin="null" stroke-dasharray="null" stroke-width="0" fill="#3f3f3f" stroke="#000000"/>
  <rect id="svg_61" height="17" width="46.1875" y="353.33334" x="584.99999" stroke-linecap="null" stroke-linejoin="null" stroke-dasharray="null" stroke-width="0" fill="#3f3f3f" stroke="#000000"/>
  <rect height="8" width="48" y="331.41667" x="35.08333" stroke-linecap="null" stroke-linejoin="null" stroke-dasharray="null" stroke-width="0" fill="#3f3f3f" id="svg_121" stroke="#000000"/>
  <rect id="svg_72" height="103.50001" width="6.1875" y="234.37502" x="51.31245" stroke-linecap="null" stroke-linejoin="null" stroke-dasharray="null" stroke-width="0" fill="#007fff" stroke="#000000"/>
  <ellipse ry="6.1875" rx="50.34375" id="svg_70" cy="228.75002" cx="56.6562" stroke-linecap="null" stroke-linejoin="null" stroke-dasharray="null" fill="#007fff" stroke="#000000"/>
  <ellipse id="svg_71" ry="6.1875" rx="50.34375" cy="227.06252" cx="56.0937" stroke-linecap="null" stroke-linejoin="null" stroke-dasharray="null" fill="#007fff" stroke="#000000"/>
  <rect id="svg_73" height="101.91798" width="1.23047" y="235.50002" x="55.46088" stroke-linecap="null" stroke-linejoin="null" stroke-dasharray="null" stroke-width="0" fill="#0000ff" stroke="#000000"/>
  <rect transform="rotate(57.58806610107422 44.35202789306641,338.95700073242193) " id="svg_74" height="18.5826" width="3.95022" y="329.66569" x="42.37691" stroke-linecap="null" stroke-linejoin="null" stroke-dasharray="null" stroke-width="0" fill="#007fff" stroke="#000000"/>
  <rect id="svg_75" transform="rotate(-59.122135162353516 63.535526275634645,338.49880981445307) " height="19.24118" width="3.95022" y="328.87822" x="61.56042" stroke-linecap="null" stroke-linejoin="null" stroke-dasharray="null" stroke-width="0" fill="#007fff" stroke="#000000"/>
  <rect id="svg_76" height="13.07813" width="12.88037" y="210.53024" x="68.96755" stroke-linecap="null" stroke-linejoin="null" stroke-dasharray="null" stroke-width="0" fill="#ffffaa" stroke="#000000"/>
  <ellipse transform="rotate(-178.3955078125 75.70703125,223.75628662109372) " ry="1.35562" rx="6.60547" id="svg_77" cy="223.7563" cx="75.70703" stroke-linecap="null" stroke-linejoin="null" stroke-dasharray="null" stroke-width="0" fill="#ffd4aa" stroke="#000000"/>
  <rect id="svg_81" height="28.23926" width="16.13672" y="193.9453" x="35.84372" stroke-linecap="null" stroke-linejoin="null" stroke-dasharray="null" stroke-width="0" fill="#007f00" stroke="#000000"/>
  <ellipse ry="4.03418" rx="8.18701" id="svg_82" cy="221.94726" cx="43.79342" stroke-linecap="null" stroke-linejoin="null" stroke-dasharray="null" stroke-width="0" fill="#007f00" stroke="#000000"/>
  <ellipse id="svg_84" ry="5.10205" rx="8.06836" cy="193.35204" cx="43.91208" stroke-linecap="null" stroke-linejoin="null" stroke-dasharray="null" stroke-width="0" fill="#007f00" stroke="#000000"/>
  <rect id="svg_85" height="11.39062" width="4.27148" y="179.46972" x="41.53903" stroke-linecap="null" stroke-linejoin="null" stroke-dasharray="null" stroke-width="0" fill="#007f00" stroke="#000000"/>
  <ellipse id="svg_86" ry="1.89844" rx="3.55957" cy="178.5205" cx="43.67477" stroke-linecap="null" stroke-linejoin="null" stroke-dasharray="null" stroke-width="0" fill="#007f00" stroke="#000000"/>
  <path id="svg_87" d="m88.54307,199.06721c0.10594,2.80343 0.50816,5.37176 1.09863,7.62695l1.09863,-3.42773l-0.31738,-0.23438l-0.43945,-0.3125l0.22949,-0.80078l0.80566,-2.85156l-2.47559,0l0.00001,0zm3.37402,0l-0.7959,2.8125l0.3418,0.24414l0.46387,0.33203l-0.26367,0.82031l-1.58203,4.95117c1.13827,3.45538 2.80282,5.8408 4.71192,6.35742l0,10.10742l-3.125,0l0,2.5l7.8125,0l0,-2.5l-3.125,0l0,-10.10742c3.33033,-0.89063 5.94325,-7.40011 6.25,-15.51758l-10.68848,0l0,0l-0.00001,0.00001z" stroke-linecap="null" stroke-linejoin="null" stroke-dasharray="null" stroke-width="0" fill="#d4aaff" stroke="#000000"/>
  <path stroke="#000000" transform="rotate(85.0872802734375 445.72164916992193,322.69696044921875) " d="m465.38686,328.91819c0,0 47.79997,-16.05933 -15.81354,-16.583c-63.61351,-0.52367 -36.65862,9.42613 -25.15789,10.64804c11.50075,1.22191 10.42256,0.87278 19.04812,7.50599c8.62558,6.6332 21.92331,-1.57102 21.92331,-1.57102l0,-0.00001z" stroke-linecap="null" stroke-linejoin="null" stroke-dasharray="null" stroke-width="0" fill="#ffaad4" id="svg_5"/>
  <rect fill="#bfbfbf" stroke-width="0" stroke-dasharray="null" stroke-linejoin="null" stroke-linecap="null" x="465.49997" y="22" width="37.41664" height="2.58334" id="svg_92" stroke="#000000"/>
  <ellipse fill="#bfbfbf" stroke-width="0" stroke-dasharray="null" stroke-linejoin="null" stroke-linecap="null" cx="466.06253" cy="38.75" id="svg_94" rx="25.25" ry="3.75" stroke="#000000"/>
  <rect fill="#bfbfbf" stroke-width="0" stroke-dasharray="null" stroke-linejoin="null" stroke-linecap="null" x="459.58792" y="28.44692" width="13.88298" height="1.60866" id="svg_95" transform="rotate(87.26664733886719 466.5294189453125,29.25124549865723) " stroke="#000000"/>
  <rect opacity="0.5" id="svg_58" fill="#7f7f7f" stroke-width="0" stroke-dasharray="null" stroke-linejoin="null" stroke-linecap="null" x="502.00226" y="22.03809" width="0.67712" height="173.33333" stroke="#000000"/>
  <rect opacity="0.5" fill="#ffffff" stroke-width="0" stroke-dasharray="null" stroke-linejoin="null" stroke-linecap="null" x="500.40045" y="24.70777" width="0.67712" height="173.33333" id="svg_106" stroke="#000000"/>
  <rect opacity="0.4" id="svg_83" fill="#7f7f7f" stroke-width="0" stroke-dasharray="null" stroke-linejoin="null" stroke-linecap="null" x="493.76273" y="177.70309" width="13.92186" height="9.17578" stroke="#000000"/>
  <rect fill="#bfbfbf" stroke-width="0" stroke-dasharray="null" stroke-linejoin="null" stroke-linecap="null" x="493.15629" y="178.54684" width="14.34375" height="6.75" id="svg_96" stroke="#000000"/>
  <rect fill="#7f7f7f" stroke-width="0" stroke-dasharray="null" stroke-linejoin="null" stroke-linecap="null" x="495.45264" y="175.01615" width="1.42383" height="6.64453" id="svg_108" stroke="#000000"/>
  <rect fill="#bfbfbf" stroke-width="0" stroke-dasharray="null" stroke-linejoin="null" stroke-linecap="null" opacity="0.8" x="495.21535" y="175.96537" width="1.42383" height="3.08496" id="svg_107" stroke="#000000"/>
  <ellipse id="svg_102" opacity="0.6" fill="#7f7f7f" stroke-width="0" stroke-dasharray="null" stroke-linejoin="null" stroke-linecap="null" cx="493.00191" cy="175.33007" rx="5.24582" ry="1.60245" stroke="#000000"/>
  <rect fill="#bfbfbf" stroke-width="0" stroke-dasharray="null" stroke-linejoin="null" stroke-linecap="null" x="481.11719" y="177.90332" width="17.63965" height="4.64063" id="svg_98" stroke="#000000"/>
  <rect fill="#bfbfbf" stroke-width="0" stroke-dasharray="null" stroke-linejoin="null" stroke-linecap="null" x="479.88497" y="178.98287" width="7.58382" height="5.71183" id="svg_99" transform="rotate(90.68073272705078 483.67687988281244,181.8387756347656) " stroke="#000000"/>
  <ellipse fill="#bfbfbf" stroke-width="0" stroke-dasharray="null" stroke-linejoin="null" stroke-linecap="null" cx="492.61349" cy="174.70167" id="svg_100" rx="5.43603" ry="0.98437" stroke="#000000"/>
  <ellipse id="svg_32" opacity="0.6" fill="#7f7f7f" stroke-width="0" stroke-dasharray="null" stroke-linejoin="null" stroke-linecap="null" cx="510.94232" cy="175.25839" rx="5.92724" ry="1.50934" stroke="#000000"/>
  <ellipse fill="#bfbfbf" stroke-width="0" stroke-dasharray="null" stroke-linejoin="null" stroke-linecap="null" cx="511.27046" cy="174.88624" rx="5.97656" ry="0.98437" id="svg_101" stroke="#000000"/>
  <ellipse opacity="0.6" id="svg_13" fill="#7f7f7f" stroke-width="0" stroke-dasharray="null" stroke-linejoin="null" stroke-linecap="null" cx="466.06253" cy="40.36719" rx="25.25" ry="2.13281" stroke="#000000"/>
  <rect opacity="0.5" id="svg_88" fill="#7f7f7f" stroke-width="0" stroke-dasharray="null" stroke-linejoin="null" stroke-linecap="null" x="486.61228" y="181.37199" width="9.87905" height="1.06072" stroke="#000000"/>
  <rect id="svg_90" opacity="0.5" fill="#7f7f7f" stroke-width="0" stroke-dasharray="null" stroke-linejoin="null" stroke-linecap="null" x="485.66501" y="181.30168" width="0.97145" height="3.87171" stroke="#000000"/>
  <rect id="svg_93" opacity="0.8" fill="#ffffff" stroke-width="0" stroke-dasharray="null" stroke-linejoin="null" stroke-linecap="null" x="481.27152" y="178.30298" width="0.20426" height="6.83217" stroke="#000000"/>
  <rect id="svg_97" opacity="0.8" fill="#ffffff" stroke-width="0" stroke-dasharray="null" stroke-linejoin="null" stroke-linecap="null" x="481.14972" y="178.07774" width="14.1374" height="0.35681" stroke="#000000"/>
  <rect height="18.64453" width="11.20996" y="202.59081" x="37.92282" stroke-linecap="null" stroke-linejoin="null" stroke-dasharray="null" stroke-width="0" fill="#ff0000" id="svg_103" opacity="0.1" stroke="#000000"/>
  <ellipse fill="#c9fce2" stroke-width="0" stroke-dasharray="null" stroke-linejoin="null" stroke-linecap="null" cx="50.10376" cy="207.07929" id="svg_89" rx="0.51557" ry="13.64314" transform="rotate(0.023361125960946083 50.10375976570881,207.07928466796685) " stroke="#000000"/>
  <rect fill="#7f7f7f" stroke-width="0" stroke-dasharray="null" stroke-linejoin="null" stroke-linecap="null" opacity="0.8" x="505.61969" y="176.03953" width="1.16057" height="1.92439" id="svg_109" stroke="#000000"/>
  <rect fill="#c9fce2" stroke-width="0" stroke-dasharray="null" stroke-linejoin="null" stroke-linecap="null" x="482.59801" y="178.71854" width="12.63925" height="2.30885" id="svg_110" opacity="0.2" stroke="#000000"/>
  <rect fill="#c9fce2" stroke-width="0" stroke-dasharray="null" stroke-linejoin="null" stroke-linecap="null" x="482.46454" y="181.38822" width="2.49448" height="2.84279" opacity="0.2" id="svg_111" stroke="#000000"/>
  <ellipse fill="#ffffff" stroke-width="0" stroke-dasharray="null" stroke-linejoin="null" stroke-linecap="null" cx="466.72995" cy="36.01358" rx="16.30658" ry="0.74661" id="svg_112" opacity="0.2" stroke="#000000"/>
  <path fill="#ff7f00" stroke-width="0" stroke-dasharray="null" stroke-linejoin="null" stroke-linecap="null" opacity="0.3" d="m353.21008,202.04357l5.99342,-1.25381l-1.58228,1.88613l7.91137,-0.71543l-1.58228,1.49589l16.2183,-0.58535l-14.24046,2.73163" id="svg_117" transform="rotate(12.920458793640137 366.6893310546878,203.19619750976562) " stroke="#000000"/>
  <path fill="#ffff00" stroke-width="0" stroke-dasharray="null" stroke-linejoin="null" stroke-linecap="null" d="m352.21357,202.09883l4.46784,-1.25381l-1.17952,1.88613l5.89759,-0.71543l-1.17952,1.49589l12.09005,-0.58535l-10.61565,2.73163" transform="rotate(12.920458793640137 362.2617797851563,203.25144958496082) " id="svg_119" stroke="#000000"/>
  <path stroke="#000000" fill="#ffff00" stroke-width="0" stroke-dasharray="null" stroke-linejoin="null" stroke-linecap="null" d="m346.48553,192.28878l-1.06666,-2.3835l0.2816,3.58552l-1.40799,-1.36003l0.2816,2.8437l-2.88638,-1.11275l2.53439,5.19284" transform="rotate(98.80397033691406 344.08660888671875,194.47991943359375) " id="svg_120"/>
  <rect height="18" width="47.1875" y="351" x="122" stroke-linecap="null" stroke-linejoin="null" stroke-dasharray="null" stroke-width="0" fill="#3f3f3f" id="svg_124" stroke="#000000"/>
  <path fill="#ff7f00" stroke-width="0" stroke-dasharray="null" stroke-linejoin="null" stroke-linecap="null" opacity="0.3" d="m322.90707,213.09196l4.46784,-1.73945l-1.17952,2.61669l5.89759,-0.99254l-1.17952,2.07529l12.09005,-0.81207l-10.65545,3.6494" transform="rotate(17.141950607299805 332.955291748047,214.6208953857422) " id="svg_133" stroke="#000000"/>
  <path fill="#ff0000" stroke-width="0" stroke-dasharray="null" stroke-linejoin="null" stroke-linecap="null" opacity="0.3" d="m91.771,205.86576c0,0 0,5.69531 2.61035,6.16992c2.61035,0.47461 4.74609,0 4.74609,-3.08496c0,-3.08496 0.47461,-4.27148 0.30321,-4.39408c-0.1714,-0.1226 -7.65966,1.30912 -7.65966,1.30912l0.00001,0z" id="svg_134" transform="rotate(9.23643970489502 95.61949157714899,208.37145996093747) " stroke="#000000"/>
  <ellipse ry="11.3833" rx="11.84143" cy="199.10897" cx="75.06329" opacity="0.3" stroke-linecap="null" stroke-linejoin="null" stroke-dasharray="null" stroke-width="0" fill="#ffffff" id="svg_136" stroke="#000000"/>
  <ellipse id="svg_138" ry="8.17969" rx="9.28125" cy="201.77865" cx="75.52606" opacity="0.7" stroke-linecap="null" stroke-linejoin="null" stroke-dasharray="null" stroke-width="0" fill="#ffffff" stroke="#000000"/>
  <rect transform="rotate(-59.05559539794922 63.373245239257756,340.070068359375) " id="svg_147" height="15.57555" width="0.74222" y="332.28231" x="63.00213" stroke-linecap="null" stroke-linejoin="null" stroke-dasharray="null" stroke-width="0" fill="#0000ff" stroke="#000000"/>
  <rect id="svg_148" transform="rotate(57.96266174316406 43.77011108398426,340.52877807617193) " height="14.83969" width="0.62907" y="333.10892" x="43.45557" stroke-linecap="null" stroke-linejoin="null" stroke-dasharray="null" stroke-width="0" fill="#0000ff" stroke="#000000"/>
  <ellipse opacity="0.2" id="svg_149" fill="#ffffff" stroke-width="0" stroke-dasharray="null" stroke-linejoin="null" stroke-linecap="null" cx="493.32541" cy="174.10841" rx="5.43603" ry="0.62841" stroke="#000000"/>
  <ellipse id="svg_150" opacity="0.2" fill="#ffffff" stroke-width="0" stroke-dasharray="null" stroke-linejoin="null" stroke-linecap="null" cx="511.36056" cy="174.58302" rx="5.43603" ry="0.62841" stroke="#000000"/>
  <rect stroke="#000000" id="svg_154" height="86.84895" width="73.75" y="35.01999" x="126.11895" opacity="0.2" stroke-linecap="null" stroke-linejoin="null" stroke-dasharray="null" stroke-width="0" fill="#007fff"/>
  <rect id="svg_155" height="92.99998" width="60.75001" y="162.48006" x="573.61898" stroke-linecap="null" stroke-linejoin="null" stroke-dasharray="null" stroke-width="0" fill="#d37676" stroke="#000000"/>
  <rect id="svg_162" height="91.60414" width="5.96094" y="162.71184" x="585.75436" opacity="0.1" stroke-linecap="null" stroke-linejoin="null" stroke-dasharray="null" stroke-width="0" fill="#ffffff" stroke="#000000"/>
  <rect fill="#969494" stroke-width="0" stroke-dasharray="null" stroke-linejoin="null" stroke-linecap="null" x="563.8584" y="164.38771" width="1.21826" height="8.63803" id="svg_105" stroke="#000000"/>
  <path d="m234.38875,343.47319c0,0 28.16103,27.63283 -9.31644,28.5339c-37.47747,0.90107 -21.59719,-16.21927 -14.8216,-18.32177c6.77559,-2.1025 6.14038,-1.50178 11.22207,-12.91534c5.0817,-11.41356 12.91597,2.70321 12.91597,2.70321z" stroke-linecap="null" stroke-linejoin="null" stroke-dasharray="null" stroke-width="0.9" fill="#ffaad4" stroke="#000000" id="svg_126"/>
  <ellipse stroke="#000000" id="svg_159" fill="#000000" stroke-dasharray="null" stroke-linejoin="null" stroke-linecap="null" cx="224.09371" cy="365.35228" rx="22.13388" ry="11.38418" transform="rotate(-0.36375167965888977 224.09371948242182,365.35226440429705) " stroke-width="0" opacity="0.4"/>
  <path id="svg_14" d="m235.32625,340.22319c0,0 28.16103,27.63283 -9.31644,28.5339c-37.47747,0.90107 -21.59719,-16.21927 -14.8216,-18.32177c6.77559,-2.1025 6.14038,-1.50178 11.22207,-12.91534c5.0817,-11.41356 12.91597,2.70321 12.91597,2.70321z" stroke-linecap="null" stroke-linejoin="null" stroke-dasharray="null" stroke-width="0" fill="#ffaad4" stroke="#000000"/>
  <path d="m445.49194,348.70844c0,0 -24.30362,22.99217 8.0403,23.74192c32.34392,0.74974 18.63887,-13.49541 12.79138,-15.24482c-5.84749,-1.7494 -5.29929,-1.24957 -9.68491,-10.74634c-4.38562,-9.49677 -11.14678,2.24924 -11.14678,2.24924l0.00001,0z" stroke-linecap="null" stroke-linejoin="null" stroke-dasharray="null" fill="#ffaad4" stroke="#000000" id="svg_127"/>
  <ellipse stroke="#000000" id="svg_163" fill="#000000" stroke-dasharray="null" stroke-linejoin="null" stroke-linecap="null" cx="455.09374" cy="365.35704" rx="21.38389" ry="11.38418" transform="rotate(-0.36375167965888977 455.09375000000153,365.3570556640583) " stroke-width="0" opacity="0.4"/>
  <path id="svg_17" d="m445.49194,345.89594c0,0 -24.30362,22.99217 8.0403,23.74192c32.34392,0.74974 18.63887,-13.49541 12.79138,-15.24482c-5.84749,-1.7494 -5.29929,-1.24957 -9.68491,-10.74634c-4.38562,-9.49677 -11.14678,2.24924 -11.14678,2.24924l0.00001,0z" stroke-linecap="null" stroke-linejoin="null" stroke-dasharray="null" stroke-width="0" fill="#ffaad4" stroke="#000000"/>
  <path id="svg_79" d="m75.61798,211.32785c0,0 2.51857,-5.66664 1.32556,-7.2121c-1.193,-1.54545 -1.98834,-4.63634 -1.98035,-4.64797c0.00799,-0.01162 -1.201,2.3298 -0.67078,5.16312c0.53023,2.83333 1.32557,6.69695 1.32557,6.69695l0,-0.00001l0,0.00001z" stroke-linecap="null" stroke-linejoin="null" stroke-dasharray="null" stroke-width="0" fill="#ff7f00" stroke="#000000"/>
  <path transform="rotate(5.9582624435424805 76.07443237304767,205.81275939941403) " id="svg_80" d="m76.14589,210.70158c0,0 -1.93213,-4.67166 -1.01691,-5.94577c0.91522,-1.27409 1.52537,-3.82227 1.51924,-3.83185c-0.00613,-0.00958 0.92135,1.92072 0.51459,4.25655c-0.40677,2.33584 -1.01691,5.52107 -1.01691,5.52107l-0.00001,0z" stroke-linecap="null" stroke-linejoin="null" stroke-dasharray="null" stroke-width="0" fill="#ffff00" stroke="#000000"/>
  <rect id="svg_156" height="14.01562" width="12.46875" y="211.66583" x="68.82555" opacity="0.5" stroke-linecap="null" stroke-linejoin="null" stroke-dasharray="null" stroke-width="0" fill="#f74747" stroke="#000000"/>
  <ellipse id="svg_78" transform="rotate(-178.3955078125 75.66551971435547,211.57818603515625) " ry="0.73294" rx="7.04693" cy="211.57817" cx="75.66551" stroke-linecap="null" stroke-linejoin="null" stroke-dasharray="null" stroke-width="0" fill="#ffffaa" stroke="#000000"/>
  <rect stroke="#000000" id="svg_151" height="76.75003" width="58.58333" y="38.92795" x="133.75264" opacity="0.2" stroke-linecap="null" stroke-linejoin="null" stroke-dasharray="null" stroke-width="0" fill="#007fff"/>
  <path id="svg_7" fill="#ffff00" stroke-width="0" stroke-dasharray="null" stroke-linejoin="null" stroke-linecap="null" d="m346.36829,195.0522l4.46784,-1.25381l-1.17952,1.88613l5.89759,-0.71543l-1.17952,1.49589l12.09005,-0.58535l-10.61565,2.73163" transform="rotate(12.920458793640137 356.4165039062499,196.20481872558577) " stroke="#000000"/>
  <polygon stroke="#302f2f" transform="rotate(67.28719329833984 338.5257568359375,193.27813720703125) " stroke-width="0" points="338.5257568359375,189.952880859375 339.10565185546875,192.43951416015625 340.8714294433594,192.49313354492188 339.4640197753906,194.08360290527344 339.9754638671875,196.60337829589844 338.5257568359375,195.09971618652344 337.0760498046875,196.60337829589844 337.58746337890625,194.08360290527344 336.1800842285156,192.49313354492188 337.94586181640625,192.43951416015625 338.5257568359375,189.952880859375 339.10565185546875,192.43951416015625 " strokeWidth="0" strokecolor="#302f2f" fill="#ffff00" orient="point" r2="654.20539" r="1635.51347" point="5" shape="star" id="svg_130" cy="178.73663" cx="327.0773"/>
  <ellipse stroke="#000000" transform="rotate(16.699161529541016 316.712371826172,188.90248107910165) " ry="1.53934" rx="2.26262" id="svg_142" cy="188.90249" cx="316.71239" stroke-linecap="null" stroke-linejoin="null" stroke-dasharray="null" stroke-width="0" fill="#ffff00"/>
  <ellipse id="svg_146" stroke="#000000" transform="rotate(16.699161529541016 305.7963562011719,189.13978576660162) " ry="1.53934" rx="2.26262" cy="189.13979" cx="305.79638" stroke-linecap="null" stroke-linejoin="null" stroke-dasharray="null" stroke-width="0" fill="#ffff00"/>
  <ellipse stroke="#000000" transform="rotate(3.3834404945373535 216.02738952636923,332.32690429687483) " ry="13.125" rx="1.01543" id="svg_153" cy="332.32691" cx="216.02738" opacity="0.9" stroke-linecap="null" stroke-linejoin="null" stroke-dasharray="null" stroke-width="0" fill="#ffffff"/>
  <ellipse stroke="#000000" id="svg_158" fill="#c9fce2" stroke-width="0" stroke-dasharray="null" stroke-linejoin="null" stroke-linecap="null" cx="45.4171" cy="183.78395" rx="0.18347" ry="3.35987" transform="rotate(0.023361125960946083 45.41709899896048,183.78393554687707) "/>
  <path stroke="#000000" transform="rotate(-17.895524978637695 441.52478027343744,336.1941528320311) " id="svg_165" d="m439.14381,331.03153c0,0 1.66696,3.13682 2.38138,-2.80662c0.71441,-5.94344 0.71441,-5.44815 0.63503,-6.93401c-0.07938,-1.48586 2.38138,19.31618 1.58758,24.10395c-0.79379,4.78777 -1.11131,5.77834 -1.34945,5.77834c-0.23814,0 -1.27007,-0.1651 -2.14324,-8.08968c-0.87317,-7.92459 -1.11131,-12.05197 -1.11131,-12.05197z" opacity="0.2" stroke-linecap="null" stroke-linejoin="null" stroke-dasharray="null" stroke-width="0" fill="#ffffff"/>
  <ellipse stroke="#1e0e0e" transform="rotate(-5.158639430999756 456.70913696289165,322.88159179687517) " ry="26.72065" rx="2.18803" id="svg_167" cy="322.88159" cx="456.70915" opacity="0.2" stroke-linecap="null" stroke-linejoin="null" stroke-dasharray="null" stroke-width="0" fill="#261111"/>
  <ellipse stroke="#1e0e0e" id="svg_168" transform="rotate(-5.158639430999756 452.94760131836034,325.1962585449217) " ry="26.72065" rx="4.17787" cy="325.19625" cx="452.94758" stroke-linecap="null" stroke-linejoin="null" stroke-dasharray="null" stroke-width="0" fill="#ffaad4"/>
 </g>
</svg>
