<svg width="640" height="460" xmlns="http://www.w3.org/2000/svg" xmlns:svg="http://www.w3.org/2000/svg" stroke="null" style="vector-effect: non-scaling-stroke;">
 <!-- Created with SVG-edit - http://svg-edit.googlecode.com/ -->
 <defs stroke="null" style="vector-effect: non-scaling-stroke;">
  <linearGradient stroke="null" style="vector-effect: non-scaling-stroke;" spreadMethod="pad" id="svg_141">
   <stop stroke="null" style="vector-effect: non-scaling-stroke;" offset="0.02311" stop-opacity="0" stop-color="0"/>
   <stop stroke="null" style="vector-effect: non-scaling-stroke;" offset="0.06608" stop-opacity="0" stop-color="0"/>
   <stop stroke="null" style="vector-effect: non-scaling-stroke;" offset="1" stop-color="#2dafaf"/>
  </linearGradient>
  <linearGradient y2="0" x2="1" y1="0" x1="0" spreadMethod="pad" id="svg_135">
   <stop offset="0.61296" stop-color="#ffffff"/>
   <stop offset="0.97624" stop-opacity="0" stop-color="0"/>
   <stop offset="1" stop-opacity="0" stop-color="0"/>
   <stop offset="1" stop-opacity="0" stop-color="0"/>
  </linearGradient>
 </defs>
 <g stroke="null">
  <title stroke="null">Layer 1</title>
  <ellipse stroke="#000000" fill="#ffffff" stroke-width="0" stroke-dasharray="null" stroke-linejoin="null" stroke-linecap="null" opacity="0.4" cx="75.52605" cy="202.13021" rx="7.03125" ry="5.29687" id="svg_143"/>
  <rect stroke="#000000" fill="#c9fce2" stroke-width="0" stroke-dasharray="null" stroke-linejoin="null" stroke-linecap="null" x="2" y="7.19447" width="638.74075" height="307.80553" id="svg_67"/>
  <rect stroke="#000000" style="vector-effect: non-scaling-stroke;" fill="#d35b5b" stroke-width="0" stroke-dasharray="null" stroke-linejoin="null" stroke-linecap="null" x="570.79606" y="162.32381" width="58.08335" height="75.66665" id="svg_161"/>
  <rect stroke="#000000" style="vector-effect: non-scaling-stroke;" height="9.83334" width="80.16677" y="163.75001" x="557.75" stroke-linecap="null" stroke-linejoin="null" stroke-dasharray="null" stroke-width="0" fill="#bfbfbf" id="svg_160"/>
  <rect stroke="#000000" fill="#7fff00" stroke-width="0" stroke-dasharray="null" stroke-linejoin="null" stroke-linecap="null" opacity="0.3" x="1.62943" y="299.14514" width="638.73958" height="11.06251" id="svg_52"/>
  <rect stroke="#000000" id="svg_104" fill="#3f3f3f" stroke-width="0" stroke-dasharray="null" stroke-linejoin="null" stroke-linecap="null" x="1.07407" y="366.85185" width="640.00003" height="22.59259"/>
  <rect stroke="#000000" fill="#3f3f3f" stroke-width="0" stroke-dasharray="null" stroke-linejoin="null" stroke-linecap="null" x="-0.55553" y="415.55555" width="640.99996" height="27" id="svg_37"/>
  <rect stroke="#000000" fill="#3f3f3f" stroke-width="0" stroke-dasharray="null" stroke-linejoin="null" stroke-linecap="null" x="0.89584" y="337.78473" width="640.99996" height="16" id="svg_36"/>
  <rect stroke="#000000" fill="#3f3f3f" stroke-width="0" stroke-dasharray="null" stroke-linejoin="null" stroke-linecap="null" x="-0.56251" y="322.5625" width="640.99998" height="10.125" id="svg_35"/>
  <rect stroke="#000000" fill="#3f3f3f" stroke-width="0" stroke-dasharray="null" stroke-linejoin="null" stroke-linecap="null" x="1.01562" y="310.94922" width="641.99997" height="8.0625" id="svg_31"/>
  <rect stroke="#000000" fill="#ffffff" stroke-width="0" stroke-dasharray="null" stroke-linejoin="null" stroke-linecap="null" x="586" y="312.33332" width="43.99994" height="129.6667" id="svg_44"/>
  <rect stroke="#000000" fill="#ffffff" stroke-width="0" stroke-dasharray="null" stroke-linejoin="null" stroke-linecap="null" x="492.44445" y="312.88889" width="43.99994" height="145.88889" id="svg_43"/>
  <rect stroke="#000000" fill="#ffffff" stroke-width="0" stroke-dasharray="null" stroke-linejoin="null" stroke-linecap="null" x="406" y="283" width="43.99994" height="173.99999" id="svg_42"/>
  <rect stroke="#000000" fill="#ffffff" stroke-width="0" stroke-dasharray="null" stroke-linejoin="null" stroke-linecap="null" x="316" y="282" width="43.99994" height="176.99999" id="svg_41"/>
  <rect stroke="#000000" fill="#ffffff" stroke-width="0" stroke-dasharray="null" stroke-linejoin="null" stroke-linecap="null" x="225" y="285" width="42.99994" height="172.77777" id="svg_40"/>
  <rect stroke="#000000" fill="#3f3f3f" stroke-width="0" stroke-dasharray="null" stroke-linejoin="null" stroke-linecap="null" x="399.16667" y="330.16666" width="51" height="10" id="svg_63"/>
  <rect stroke="#000000" fill="#3f3f3f" stroke-width="0" stroke-dasharray="null" stroke-linejoin="null" stroke-linecap="null" x="311.16667" y="322.16667" width="51" height="22" id="svg_64"/>
  <rect stroke="#000000" fill="#3f3f3f" stroke-width="0" stroke-dasharray="null" stroke-linejoin="null" stroke-linecap="null" x="490.41667" y="330.41666" width="50" height="10" id="svg_65"/>
  <rect stroke="#000000" fill="#ffffff" stroke-width="0" stroke-dasharray="null" stroke-linejoin="null" stroke-linecap="null" x="124" y="311.0625" width="43.99994" height="146.9375" id="svg_39"/>
  <path stroke="#000000" fill="#ffaad4" stroke-width="0.1" stroke-dasharray="null" stroke-linejoin="null" stroke-linecap="null" d="m210.92795,319.46142c0,0 8.53233,10.39352 -2.82273,10.73244c-11.35506,0.33892 -6.54359,-6.10054 -4.4907,-6.89136c2.05289,-0.79081 1.86043,-0.56486 3.4001,-4.85784c1.53967,-4.29297 3.91333,1.01676 3.91333,1.01676z" id="svg_69"/>
  <path stroke="#000000" fill="#ffaad4" stroke-width="0" stroke-dasharray="null" stroke-linejoin="null" stroke-linecap="null" d="m233.33034,291.79404c0,0 46.06676,8.06964 -15.24015,8.33277c-61.3069,0.26314 -35.32939,-4.73652 -24.24567,-5.35052c11.08374,-0.61399 10.04464,-0.43857 18.35744,-3.77168c8.31282,-3.33311 21.12838,0.78942 21.12838,0.78942l0,0.00001z" transform="rotate(94.68254852294922 214.37817382812503,294.9201049804688) " id="svg_68"/>
  <rect stroke="#000000" id="svg_122" fill="#3f3f3f" stroke-width="0" stroke-dasharray="null" stroke-linejoin="null" stroke-linecap="null" x="122.08333" y="330.41667" width="48" height="8"/>
  <rect stroke="#000000" id="svg_123" fill="#3f3f3f" stroke-width="0" stroke-dasharray="null" stroke-linejoin="null" stroke-linecap="null" x="222.08333" y="330.41667" width="48" height="8"/>
  <ellipse stroke="#000000" id="svg_125" opacity="0.4" stroke-width="0" transform="rotate(-0.36375167965888977 337.29364013673097,350.72048950195585) " ry="12.50916" rx="145.82902" cy="350.72051" cx="337.29368" stroke-linecap="null" stroke-linejoin="null" stroke-dasharray="null" fill="#000000"/>
  <ellipse stroke="#000000" transform="rotate(1.585239291191101 334.5346069335962,203.0653228759762) " ry="148.06637" rx="201.56292" id="svg_6" cy="203.06532" cx="334.53459" stroke-linecap="null" stroke-linejoin="null" stroke-dasharray="null" fill="#ffaaff"/>
  <ellipse stroke="#000000" opacity="0.15" stroke-width="0" id="svg_139" transform="rotate(1.585239291191101 312.48181152344085,203.40611267090014) " ry="134.03025" rx="168.9232" cy="203.4061" cx="312.4818" stroke-linecap="null" stroke-linejoin="null" stroke-dasharray="null" fill="#ffffff"/>
  <rect stroke="#000000" id="svg_8" transform="rotate(-3.5340118408203125 331.17547607421915,137.11218261718798) " height="173.80101" width="437.09249" y="50.21168" x="112.62924" stroke-linecap="null" stroke-linejoin="null" stroke-dasharray="null" stroke-width="0" fill="#c9fce2"/>
  <rect stroke="#000000" fill="#aaffaa" stroke-width="0" stroke-dasharray="null" stroke-linejoin="null" stroke-linecap="null" x="0.68232" y="7.86722" width="637.83334" height="2.125" id="svg_145"/>
  <rect stroke="#000000" fill="#bbf9d7" stroke-width="0" stroke-dasharray="null" stroke-linejoin="null" stroke-linecap="null" x="0.75784" y="1.34117" width="640.50002" height="7.05555" id="svg_144"/>
  <rect stroke="#000000" id="svg_91" height="173.33333" width="2.91668" y="22.75" x="500" stroke-linecap="null" stroke-linejoin="null" stroke-dasharray="null" stroke-width="0" fill="#bfbfbf"/>
  <ellipse id="svg_128" stroke="#565555" transform="rotate(-1.0663634538650513 341.41500854491846,227.0657653808577) " ry="39.99715" rx="227.17473" cy="227.06575" cx="341.41502" fill="#ffffff"/>
  <ellipse stroke-width="0" opacity="0.3" stroke="#565555" id="svg_2" transform="rotate(-1.0663634538650513 340.66500854492296,226.81575012206883) " ry="39.99715" rx="227.17473" cy="226.81575" cx="340.66502" fill="url(#svg_135)"/>
  <ellipse stroke-width="0" stroke="#302f2f" transform="rotate(-1.093762993812561 337.1788940429663,217.7477874755866) " ry="29.70921" rx="204.75" id="svg_1" cy="217.74779" cx="337.1789" fill="#ffffff"/>
  <ellipse stroke="#92fcfc" id="svg_9" transform="rotate(-0.93995201587677 341.9407043457004,223.3481750488281) " ry="18.88306" rx="191.02661" cy="223.34818" cx="341.94071" stroke-width="5" fill="#5ef9f9"/>
  <path stroke="#000000" id="svg_113" transform="rotate(-77.53276824951172 371.45361328125006,210.32574462890634) " d="m364.58465,217.44097l0,-14.23049l13.73788,14.23049l-13.73788,0z" stroke-linecap="null" stroke-linejoin="null" stroke-dasharray="null" stroke-width="0" fill="#ff7f00"/>
  <path stroke="#000000" id="svg_115" transform="rotate(-47.76483154296875 377.9467468261718,207.53213500976557) " d="m375.60538,210.77312l0,-6.48196l4.68274,6.48196l-4.68274,0z" stroke-linecap="null" stroke-linejoin="null" stroke-dasharray="null" stroke-width="0" fill="#ff7f00"/>
  <ellipse stroke="#ffaa56" id="svg_34" ry="19.125" rx="35.07523" cy="211.1719" cx="343.0706" stroke-linecap="null" stroke-linejoin="null" stroke-dasharray="null" stroke-width="0" fill="#ffaa56"/>
  <ellipse stroke="#ffaa56" style="vector-effect: non-scaling-stroke;" id="svg_116" transform="rotate(51.97122573852539 319.8383483886718,187.88706970214847) " ry="14.91504" rx="15.61411" cy="187.88706" cx="319.83832" stroke-linecap="null" stroke-linejoin="null" stroke-dasharray="null" stroke-width="0.1" fill="#fca14b"/>
  <ellipse stroke="#7ebcbc" opacity="0.1" id="svg_140" transform="rotate(-0.93995201587677 345.2589111328127,218.769546508789) " ry="18.88306" rx="173.50435" cy="218.76953" cx="345.25893" stroke-width="2" fill="url(#svg_141)"/>
  <ellipse stroke="#ffaa56" style="vector-effect: non-scaling-stroke;" transform="rotate(51.97122573852539 318.3755798339842,188.34159851074224) " id="svg_12" ry="14.91504" rx="15.61411" cy="188.34159" cx="318.37557" stroke-linecap="null" stroke-linejoin="null" stroke-dasharray="null" stroke-width="0.1" fill="#ffff00"/>
  <path stroke="#000000" id="svg_33" transform="rotate(-68.77131652832031 307.3724975585938,195.42846679687503) " d="m312.96972,192.90894c0,0 -5.67,1.79129 -8.35961,-0.68896c-2.68961,-2.48025 -5.23384,-2.34246 -4.36154,0.68896c0.87231,3.03142 6.03346,7.16517 8.86846,7.44076c2.835,0.27558 5.23384,-2.20467 5.52461,-2.75584c0.29077,-0.55117 -1.67192,-4.68492 -1.67192,-4.68492z" stroke-linecap="null" stroke-linejoin="null" stroke-dasharray="null" stroke-width="0" fill="#e2650b"/>
  <path stroke="#000000" transform="rotate(-68.77131652832031 307.1240844726563,195.11700439453122) " id="svg_21" d="m312.72129,192.59748c0,0 -5.67,1.79129 -8.35961,-0.68896c-2.68961,-2.48025 -5.23384,-2.34246 -4.36154,0.68896c0.87231,3.03142 6.03346,7.16517 8.86846,7.44076c2.835,0.27558 5.23384,-2.20467 5.52461,-2.75584c0.29077,-0.55117 -1.67192,-4.68492 -1.67192,-4.68492z" stroke-linecap="null" stroke-linejoin="null" stroke-dasharray="null" stroke-width="0" fill="#ff7f00"/>
  <polygon stroke="null" fill="none" id="svg_25"/>
  <ellipse stroke="#000000" transform="rotate(43.555824279785156 312.1505126953125,189.83876037597653) " ry="2.9283" rx="5.40824" id="svg_16" cy="189.83877" cx="312.15052" stroke-linecap="null" stroke-linejoin="null" stroke-dasharray="null" stroke-width="0" fill="#ffff00"/>
  <ellipse stroke="#000000" fill="#000000" stroke-width="0" stroke-dasharray="null" stroke-linejoin="null" stroke-linecap="null" cx="316.87507" cy="186.46834" rx="0.84677" ry="3.27035" id="svg_4"/>
  <ellipse stroke="#000000" id="svg_18" transform="rotate(-62.467559814453125 307.1150817871093,188.09567260742185) " ry="2.60265" rx="5.19991" cy="188.09568" cx="307.11511" stroke-linecap="null" stroke-linejoin="null" stroke-dasharray="null" stroke-width="0" fill="#ffff00"/>
  <ellipse stroke="#000000" fill="#000000" stroke-width="0" stroke-dasharray="null" stroke-linejoin="null" stroke-linecap="null" cx="305.27856" cy="186.52674" id="svg_3" rx="0.6549" ry="3.00339"/>
  <ellipse stroke="#ffaa56" ry="19.125" rx="34.875" id="svg_10" cy="211.82448" cx="342.74678" stroke-linecap="null" stroke-linejoin="null" stroke-dasharray="null" stroke-width="0" fill="#ffff00"/>
  <ellipse stroke="#000000" transform="rotate(-2.663031816482544 342.4492492675778,217.37049865722608) " ry="5.15292" rx="43.90137" id="svg_22" cy="217.3705" cx="342.44925" stroke-linecap="null" stroke-linejoin="null" stroke-dasharray="null" stroke-width="0" fill="#aaffff"/>
  <rect stroke="#56ffff" transform="rotate(-3.5762856006622314 347.51391601562455,229.92248535156264) " id="svg_11" height="16.55872" width="78.75312" y="221.64313" x="308.13735" stroke-linecap="null" stroke-linejoin="null" stroke-dasharray="null" stroke-width="0" fill="#5ef9f9"/>
  <ellipse stroke="#000000" id="svg_28" transform="rotate(-2.663031816482544 343.14129638671847,218.67781066894452) " ry="6.85543" rx="58.48485" cy="218.67782" cx="343.14128" stroke-linecap="null" stroke-linejoin="null" stroke-dasharray="null" stroke-width="0" fill="#c4e0fc"/>
  <path stroke="#000000" transform="rotate(-77.53276824951172 371.11572265624994,211.22674560546872) " id="svg_20" d="m364.24677,218.34199l0,-14.23049l13.73788,14.23049l-13.73788,0z" stroke-linecap="null" stroke-linejoin="null" stroke-dasharray="null" stroke-width="0" fill="#ffff00"/>
  <ellipse stroke="#000000" id="svg_27" transform="rotate(-2.663031816482544 343.5235290527338,218.12165832519474) " ry="4.74451" rx="54.99762" cy="218.12164" cx="343.52354" stroke-linecap="null" stroke-linejoin="null" stroke-dasharray="null" stroke-width="0" fill="#aaffff"/>
  <ellipse stroke="#000000" id="svg_26" transform="rotate(-2.663031816482544 342.04556274414017,217.83200073242244) " ry="4.57591" rx="48.69052" cy="217.832" cx="342.04557" stroke-linecap="null" stroke-linejoin="null" stroke-dasharray="null" stroke-width="0" fill="#b9d8f7"/>
  <ellipse stroke="#000000" id="svg_23" transform="rotate(-2.663031816482544 343.5543212890616,217.02339172363264) " ry="3.28547" rx="42.82914" cy="217.02338" cx="343.55432" stroke-linecap="null" stroke-linejoin="null" stroke-dasharray="null" stroke-width="0" fill="#aaffff"/>
  <ellipse stroke="#56ffff" transform="rotate(-2.0853896141052246 343.4427490234373,214.05375671386724) " id="svg_24" ry="4.55527" rx="34.75981" cy="214.05375" cx="343.44272" stroke-linecap="null" stroke-linejoin="null" stroke-dasharray="null" stroke-width="0" fill="#ffff00"/>
  <path stroke="#000000" id="svg_29" transform="rotate(-49.54206848144531 376.6720275878907,208.72390747070312) " d="m373.06043,211.96489l0,-6.48196l7.22319,6.48196l-7.22319,0z" stroke-linecap="null" stroke-linejoin="null" stroke-dasharray="null" stroke-width="0" fill="#ffff00"/>
  <path stroke="#000000" fill="#ffaad4" stroke-dasharray="null" stroke-linejoin="null" stroke-linecap="null" d="m242.79718,322.40394c0,0 46.06676,15.59424 -15.24015,16.10275c-61.3069,0.50851 -35.32939,-9.15314 -24.24567,-10.33966c11.08374,-1.18651 10.04464,-0.84751 18.35744,-7.28861c8.31282,-6.44109 21.12838,1.52552 21.12838,1.52552z" transform="rotate(94.68254852294922 223.84501647949216,328.4449768066406) " id="svg_30"/>
  <path stroke="#000000" fill="#ffaad4" stroke-width="0" stroke-dasharray="null" stroke-linejoin="null" stroke-linecap="null" d="m245.50753,322.72605c0,0 46.06676,17.24646 -15.24015,17.80884c-61.30691,0.56238 -35.32939,-10.12292 -24.24567,-11.43515c11.08374,-1.31223 10.04464,-0.9373 18.35744,-8.06084c8.31282,-7.12353 21.12838,1.68715 21.12838,1.68715z" id="svg_15" transform="rotate(94.68254852294922 226.55538940429685,329.40716552734375) "/>
  <rect stroke="#000000" fill="#3f3f3f" stroke-width="0" stroke-dasharray="null" stroke-linejoin="null" stroke-linecap="null" x="122.08333" y="316.41667" width="48" height="8" id="svg_66"/>
  <rect stroke="#000000" id="svg_114" fill="#3f3f3f" stroke-width="0" stroke-dasharray="null" stroke-linejoin="null" stroke-linecap="null" x="491.99999" y="316" width="46.1875" height="7.33331"/>
  <path stroke="#000000" fill="#ffaad4" stroke-dasharray="null" stroke-linejoin="null" stroke-linecap="null" d="m462.96897,329.29301c0,0 39.56074,-19.80226 -13.08778,-20.44798c-52.64851,-0.64572 -30.33981,11.62306 -20.82145,13.12976c9.51838,1.50669 8.62603,1.0762 15.76481,9.2554c7.1388,8.17919 18.14441,-1.93717 18.14441,-1.93717l0,-0.00001z" transform="rotate(82.43724822998047 446.6934204101562,321.62182617187506) " id="svg_19"/>
  <rect stroke="#000000" fill="#3f3f3f" stroke-width="0" stroke-dasharray="null" stroke-linejoin="null" stroke-linecap="null" x="583.54167" y="327.97916" width="48" height="11" id="svg_62"/>
  <rect stroke="#000000" fill="#ffffff" stroke-width="0" stroke-dasharray="null" stroke-linejoin="null" stroke-linecap="null" x="38" y="310.79688" width="43.99994" height="147.20311" id="svg_38"/>
  <rect stroke="#000000" fill="#3f3f3f" stroke-width="0" stroke-dasharray="null" stroke-linejoin="null" stroke-linecap="null" x="35.4375" y="316.625" width="49" height="8" id="svg_45"/>
  <rect stroke="#000000" fill="#3f3f3f" stroke-width="0" stroke-dasharray="null" stroke-linejoin="null" stroke-linecap="null" x="37" y="351" width="46.1875" height="17" id="svg_46"/>
  <rect stroke="#000000" fill="#3f3f3f" stroke-width="0" stroke-dasharray="null" stroke-linejoin="null" stroke-linecap="null" x="121" y="388.33333" width="50" height="30" id="svg_47"/>
  <rect stroke="#000000" fill="#3f3f3f" stroke-width="0" stroke-dasharray="null" stroke-linejoin="null" stroke-linecap="null" x="35.88889" y="387.22223" width="47" height="32" id="svg_48"/>
  <rect stroke="#000000" fill="#3f3f3f" stroke-width="0" stroke-dasharray="null" stroke-linejoin="null" stroke-linecap="null" x="402.22222" y="389.33333" width="51" height="28" id="svg_49"/>
  <rect stroke="#000000" fill="#3f3f3f" stroke-width="0" stroke-dasharray="null" stroke-linejoin="null" stroke-linecap="null" x="314.77778" y="390.55555" width="47" height="31" id="svg_50"/>
  <rect stroke="#000000" fill="#3f3f3f" stroke-width="0" stroke-dasharray="null" stroke-linejoin="null" stroke-linecap="null" x="224.22222" y="387.88889" width="46" height="31" id="svg_51"/>
  <rect stroke="#000000" fill="#3f3f3f" stroke-width="0" stroke-dasharray="null" stroke-linejoin="null" stroke-linecap="null" x="406.66666" y="355.66667" width="46.1875" height="16" id="svg_53"/>
  <rect stroke="#000000" fill="#3f3f3f" stroke-width="0" stroke-dasharray="null" stroke-linejoin="null" stroke-linecap="null" x="222.33333" y="350.33334" width="46.1875" height="18" id="svg_54"/>
  <rect stroke="#000000" fill="#3f3f3f" stroke-width="0" stroke-dasharray="null" stroke-linejoin="null" stroke-linecap="null" x="313.66667" y="352" width="46.1875" height="18" id="svg_55"/>
  <rect stroke="#000000" fill="#3f3f3f" stroke-width="0" stroke-dasharray="null" stroke-linejoin="null" stroke-linecap="null" x="491.55556" y="388.11111" width="47" height="30" id="svg_56"/>
  <rect stroke="#000000" fill="#3f3f3f" stroke-width="0" stroke-dasharray="null" stroke-linejoin="null" stroke-linecap="null" x="584.77778" y="388" width="46" height="31" id="svg_57"/>
  <rect stroke="#000000" fill="#3f3f3f" stroke-width="0" stroke-dasharray="null" stroke-linejoin="null" stroke-linecap="null" x="490.33333" y="352.11111" width="49.74305" height="16" id="svg_59"/>
  <rect stroke="#000000" fill="#3f3f3f" stroke-width="0" stroke-dasharray="null" stroke-linejoin="null" stroke-linecap="null" x="584.99999" y="317" width="46.1875" height="7.33331" id="svg_60"/>
  <rect stroke="#000000" fill="#3f3f3f" stroke-width="0" stroke-dasharray="null" stroke-linejoin="null" stroke-linecap="null" x="584.99999" y="353.33334" width="46.1875" height="17" id="svg_61"/>
  <rect stroke="#000000" id="svg_121" fill="#3f3f3f" stroke-width="0" stroke-dasharray="null" stroke-linejoin="null" stroke-linecap="null" x="35.08333" y="331.41667" width="48" height="8"/>
  <rect stroke="#000000" fill="#007fff" stroke-width="0" stroke-dasharray="null" stroke-linejoin="null" stroke-linecap="null" x="51.31245" y="234.37502" width="6.1875" height="103.50001" id="svg_72"/>
  <ellipse stroke="#000000" fill="#007fff" stroke-dasharray="null" stroke-linejoin="null" stroke-linecap="null" cx="56.6562" cy="228.75002" id="svg_70" rx="50.34375" ry="6.1875"/>
  <ellipse stroke="#000000" fill="#007fff" stroke-dasharray="null" stroke-linejoin="null" stroke-linecap="null" cx="56.0937" cy="227.06252" rx="50.34375" ry="6.1875" id="svg_71"/>
  <rect stroke="#000000" fill="#0000ff" stroke-width="0" stroke-dasharray="null" stroke-linejoin="null" stroke-linecap="null" x="55.46088" y="235.50002" width="1.23047" height="101.91798" id="svg_73"/>
  <rect stroke="#000000" fill="#007fff" stroke-width="0" stroke-dasharray="null" stroke-linejoin="null" stroke-linecap="null" x="42.37691" y="329.66569" width="3.95022" height="18.5826" id="svg_74" transform="rotate(57.58806610107422 44.35202789306641,338.95700073242193) "/>
  <rect stroke="#000000" fill="#007fff" stroke-width="0" stroke-dasharray="null" stroke-linejoin="null" stroke-linecap="null" x="61.56042" y="328.87822" width="3.95022" height="19.24118" transform="rotate(-59.122135162353516 63.535526275634645,338.49880981445307) " id="svg_75"/>
  <rect stroke="#000000" fill="#ffffaa" stroke-width="0" stroke-dasharray="null" stroke-linejoin="null" stroke-linecap="null" x="68.96755" y="210.53024" width="12.88037" height="13.07813" id="svg_76"/>
  <ellipse stroke="#000000" fill="#ffd4aa" stroke-width="0" stroke-dasharray="null" stroke-linejoin="null" stroke-linecap="null" cx="75.70703" cy="223.7563" id="svg_77" rx="6.60547" ry="1.35562" transform="rotate(-178.3955078125 75.70703125,223.75628662109372) "/>
  <rect stroke="#000000" fill="#007f00" stroke-width="0" stroke-dasharray="null" stroke-linejoin="null" stroke-linecap="null" x="35.84372" y="193.9453" width="16.13672" height="28.23926" id="svg_81"/>
  <ellipse stroke="#000000" fill="#007f00" stroke-width="0" stroke-dasharray="null" stroke-linejoin="null" stroke-linecap="null" cx="43.79342" cy="221.94726" id="svg_82" rx="8.18701" ry="4.03418"/>
  <ellipse stroke="#000000" fill="#007f00" stroke-width="0" stroke-dasharray="null" stroke-linejoin="null" stroke-linecap="null" cx="43.91208" cy="193.35204" rx="8.06836" ry="5.10205" id="svg_84"/>
  <rect stroke="#000000" fill="#007f00" stroke-width="0" stroke-dasharray="null" stroke-linejoin="null" stroke-linecap="null" x="41.53903" y="179.46972" width="4.27148" height="11.39062" id="svg_85"/>
  <ellipse stroke="#000000" fill="#007f00" stroke-width="0" stroke-dasharray="null" stroke-linejoin="null" stroke-linecap="null" cx="43.67477" cy="178.5205" rx="3.55957" ry="1.89844" id="svg_86"/>
  <path stroke="#000000" fill="#d4aaff" stroke-width="0" stroke-dasharray="null" stroke-linejoin="null" stroke-linecap="null" d="m88.54307,199.06721c0.10594,2.80343 0.50816,5.37176 1.09863,7.62695l1.09863,-3.42773l-0.31738,-0.23438l-0.43945,-0.3125l0.22949,-0.80078l0.80566,-2.85156l-2.47559,0l0.00001,0zm3.37402,0l-0.7959,2.8125l0.3418,0.24414l0.46387,0.33203l-0.26367,0.82031l-1.58203,4.95117c1.13827,3.45538 2.80282,5.8408 4.71192,6.35742l0,10.10742l-3.125,0l0,2.5l7.8125,0l0,-2.5l-3.125,0l0,-10.10742c3.33033,-0.89063 5.94325,-7.40011 6.25,-15.51758l-10.68848,0l0,0l-0.00001,0.00001z" id="svg_87"/>
  <path stroke="#000000" id="svg_5" fill="#ffaad4" stroke-width="0" stroke-dasharray="null" stroke-linejoin="null" stroke-linecap="null" d="m463.5256,330.33604c0,0 47.79997,-18.94909 -15.81354,-19.56699c-63.61351,-0.6179 -36.65862,11.12229 -25.15789,12.56407c11.50075,1.44178 10.42256,1.02983 19.04812,8.85664c8.62558,7.82679 21.92331,-1.85371 21.92331,-1.85371l0,-0.00001z" transform="rotate(85.0872802734375 443.8603820800781,322.995361328125) "/>
  <rect stroke="#000000" id="svg_92" height="2.58334" width="37.41664" y="22" x="465.49997" stroke-linecap="null" stroke-linejoin="null" stroke-dasharray="null" stroke-width="0" fill="#bfbfbf"/>
  <ellipse stroke="#000000" ry="3.75" rx="25.25" id="svg_94" cy="38.75" cx="466.06253" stroke-linecap="null" stroke-linejoin="null" stroke-dasharray="null" stroke-width="0" fill="#bfbfbf"/>
  <rect stroke="#000000" transform="rotate(87.26664733886719 466.5294189453125,29.25124549865723) " id="svg_95" height="1.60866" width="13.88298" y="28.44692" x="459.58792" stroke-linecap="null" stroke-linejoin="null" stroke-dasharray="null" stroke-width="0" fill="#bfbfbf"/>
  <rect stroke="#000000" height="173.33333" width="0.67712" y="22.03809" x="502.00226" stroke-linecap="null" stroke-linejoin="null" stroke-dasharray="null" stroke-width="0" fill="#7f7f7f" id="svg_58" opacity="0.5"/>
  <rect stroke="#000000" id="svg_106" height="173.33333" width="0.67712" y="24.70777" x="500.40045" stroke-linecap="null" stroke-linejoin="null" stroke-dasharray="null" stroke-width="0" fill="#ffffff" opacity="0.5"/>
  <rect stroke="#000000" height="9.17578" width="13.92186" y="177.70309" x="493.76273" stroke-linecap="null" stroke-linejoin="null" stroke-dasharray="null" stroke-width="0" fill="#7f7f7f" id="svg_83" opacity="0.4"/>
  <rect stroke="#000000" id="svg_96" height="6.75" width="14.34375" y="178.54684" x="493.15629" stroke-linecap="null" stroke-linejoin="null" stroke-dasharray="null" stroke-width="0" fill="#bfbfbf"/>
  <rect stroke="#000000" id="svg_108" height="6.64453" width="1.42383" y="175.01615" x="495.45264" stroke-linecap="null" stroke-linejoin="null" stroke-dasharray="null" stroke-width="0" fill="#7f7f7f"/>
  <rect stroke="#000000" id="svg_107" height="3.08496" width="1.42383" y="175.96537" x="495.21535" opacity="0.8" stroke-linecap="null" stroke-linejoin="null" stroke-dasharray="null" stroke-width="0" fill="#bfbfbf"/>
  <ellipse stroke="#000000" ry="1.60245" rx="5.24582" cy="175.33007" cx="493.00191" stroke-linecap="null" stroke-linejoin="null" stroke-dasharray="null" stroke-width="0" fill="#7f7f7f" opacity="0.6" id="svg_102"/>
  <rect stroke="#000000" id="svg_98" height="4.64063" width="17.63965" y="177.90332" x="481.11719" stroke-linecap="null" stroke-linejoin="null" stroke-dasharray="null" stroke-width="0" fill="#bfbfbf"/>
  <rect stroke="#000000" transform="rotate(90.68073272705078 483.67687988281244,181.8387756347656) " id="svg_99" height="5.71183" width="7.58382" y="178.98287" x="479.88497" stroke-linecap="null" stroke-linejoin="null" stroke-dasharray="null" stroke-width="0" fill="#bfbfbf"/>
  <ellipse stroke="#000000" ry="0.98437" rx="5.43603" id="svg_100" cy="174.70167" cx="492.61349" stroke-linecap="null" stroke-linejoin="null" stroke-dasharray="null" stroke-width="0" fill="#bfbfbf"/>
  <ellipse stroke="#000000" ry="1.50934" rx="5.92724" cy="175.25839" cx="510.94232" stroke-linecap="null" stroke-linejoin="null" stroke-dasharray="null" stroke-width="0" fill="#7f7f7f" opacity="0.6" id="svg_32"/>
  <ellipse stroke="#000000" id="svg_101" ry="0.98437" rx="5.97656" cy="174.88624" cx="511.27046" stroke-linecap="null" stroke-linejoin="null" stroke-dasharray="null" stroke-width="0" fill="#bfbfbf"/>
  <ellipse stroke="#000000" ry="2.13281" rx="25.25" cy="40.36719" cx="466.06253" stroke-linecap="null" stroke-linejoin="null" stroke-dasharray="null" stroke-width="0" fill="#7f7f7f" id="svg_13" opacity="0.6"/>
  <rect stroke="#000000" height="1.06072" width="9.87905" y="181.37199" x="486.61228" stroke-linecap="null" stroke-linejoin="null" stroke-dasharray="null" stroke-width="0" fill="#7f7f7f" id="svg_88" opacity="0.5"/>
  <rect stroke="#000000" height="3.87171" width="0.97145" y="181.30168" x="485.66501" stroke-linecap="null" stroke-linejoin="null" stroke-dasharray="null" stroke-width="0" fill="#7f7f7f" opacity="0.5" id="svg_90"/>
  <rect stroke="#000000" height="6.83217" width="0.20426" y="178.30298" x="481.27152" stroke-linecap="null" stroke-linejoin="null" stroke-dasharray="null" stroke-width="0" fill="#ffffff" opacity="0.8" id="svg_93"/>
  <rect stroke="#000000" height="0.35681" width="14.1374" y="178.07774" x="481.14972" stroke-linecap="null" stroke-linejoin="null" stroke-dasharray="null" stroke-width="0" fill="#ffffff" opacity="0.8" id="svg_97"/>
  <rect stroke="#000000" opacity="0.1" id="svg_103" fill="#ff0000" stroke-width="0" stroke-dasharray="null" stroke-linejoin="null" stroke-linecap="null" x="37.92282" y="202.59081" width="11.20996" height="18.64453"/>
  <ellipse stroke="#000000" transform="rotate(0.023361125960946083 50.103755951045976,207.07928466797773) " ry="13.64314" rx="0.51557" id="svg_89" cy="207.07929" cx="50.10376" stroke-linecap="null" stroke-linejoin="null" stroke-dasharray="null" stroke-width="0" fill="#c9fce2"/>
  <rect stroke="#000000" id="svg_109" height="1.92439" width="1.16057" y="176.03953" x="505.61969" opacity="0.8" stroke-linecap="null" stroke-linejoin="null" stroke-dasharray="null" stroke-width="0" fill="#7f7f7f"/>
  <rect stroke="#000000" opacity="0.2" id="svg_110" height="2.30885" width="12.63925" y="178.71854" x="482.59801" stroke-linecap="null" stroke-linejoin="null" stroke-dasharray="null" stroke-width="0" fill="#c9fce2"/>
  <rect stroke="#000000" id="svg_111" opacity="0.2" height="2.84279" width="2.49448" y="181.38822" x="482.46454" stroke-linecap="null" stroke-linejoin="null" stroke-dasharray="null" stroke-width="0" fill="#c9fce2"/>
  <ellipse stroke="#000000" opacity="0.2" id="svg_112" ry="0.74661" rx="16.30658" cy="36.01358" cx="466.72995" stroke-linecap="null" stroke-linejoin="null" stroke-dasharray="null" stroke-width="0" fill="#ffffff"/>
  <path stroke="#000000" transform="rotate(12.920458793640137 366.6893310546878,203.19619750976562) " id="svg_117" d="m353.21008,202.04357l5.99342,-1.25381l-1.58228,1.88613l7.91137,-0.71543l-1.58228,1.49589l16.2183,-0.58535l-14.24046,2.73163" opacity="0.3" stroke-linecap="null" stroke-linejoin="null" stroke-dasharray="null" stroke-width="0" fill="#ff7f00"/>
  <path stroke="#000000" id="svg_118" transform="rotate(12.920458793640137 365.40609741210955,199.3656158447265) " d="m356.94685,198.45181l3.76132,-0.99401l-0.99299,1.49532l4.96497,-0.56719l-0.99299,1.18594l10.17818,-0.46406l-8.93693,2.16563" opacity="0.2" stroke-linecap="null" stroke-linejoin="null" stroke-dasharray="null" stroke-width="0" fill="#ff7f00"/>
  <path stroke="#000000" id="svg_119" transform="rotate(12.920458793640137 362.2617797851563,203.25144958496082) " d="m352.21357,202.09883l4.46784,-1.25381l-1.17952,1.88613l5.89759,-0.71543l-1.17952,1.49589l12.09005,-0.58535l-10.61565,2.73163" stroke-linecap="null" stroke-linejoin="null" stroke-dasharray="null" stroke-width="0" fill="#ffff00"/>
  <path stroke="#000000" id="svg_120" transform="rotate(12.920458793640137 363.9229125976565,198.9799804687498) " d="m355.44072,198.11605l3.77153,-0.93978l-0.99569,1.41372l4.97845,-0.53624l-0.99569,1.12123l10.20581,-0.43874l-8.9612,2.04746" stroke-linecap="null" stroke-linejoin="null" stroke-dasharray="null" stroke-width="0" fill="#ffff00"/>
  <rect stroke="#000000" id="svg_124" fill="#3f3f3f" stroke-width="0" stroke-dasharray="null" stroke-linejoin="null" stroke-linecap="null" x="122" y="351" width="47.1875" height="18"/>
  <path stroke="#000000" id="svg_133" transform="rotate(17.141950607299805 332.955291748047,214.6208953857422) " d="m322.90707,213.09196l4.46784,-1.73945l-1.17952,2.61669l5.89759,-0.99254l-1.17952,2.07529l12.09005,-0.81207l-10.65545,3.6494" opacity="0.3" stroke-linecap="null" stroke-linejoin="null" stroke-dasharray="null" stroke-width="0" fill="#ff7f00"/>
  <path stroke="#000000" transform="rotate(9.23643970489502 95.61949157714899,208.37145996093747) " id="svg_134" d="m91.771,205.86576c0,0 0,5.69531 2.61035,6.16992c2.61035,0.47461 4.74609,0 4.74609,-3.08496c0,-3.08496 0.47461,-4.27148 0.30321,-4.39408c-0.1714,-0.1226 -7.65966,1.30912 -7.65966,1.30912l0.00001,0z" opacity="0.3" stroke-linecap="null" stroke-linejoin="null" stroke-dasharray="null" stroke-width="0" fill="#ff0000"/>
  <ellipse stroke="#000000" id="svg_136" fill="#ffffff" stroke-width="0" stroke-dasharray="null" stroke-linejoin="null" stroke-linecap="null" opacity="0.3" cx="75.06329" cy="199.10897" rx="11.84143" ry="11.3833"/>
  <ellipse stroke="#000000" fill="#ffffff" stroke-width="0" stroke-dasharray="null" stroke-linejoin="null" stroke-linecap="null" opacity="0.7" cx="75.52606" cy="201.77865" rx="9.28125" ry="8.17969" id="svg_138"/>
  <rect stroke="#000000" fill="#0000ff" stroke-width="0" stroke-dasharray="null" stroke-linejoin="null" stroke-linecap="null" x="63.00213" y="332.28231" width="0.74222" height="15.57555" id="svg_147" transform="rotate(-59.05559539794922 63.373245239257756,340.070068359375) "/>
  <rect stroke="#000000" fill="#0000ff" stroke-width="0" stroke-dasharray="null" stroke-linejoin="null" stroke-linecap="null" x="43.45557" y="333.10892" width="0.62907" height="14.83969" transform="rotate(57.96266174316406 43.77011108398426,340.52877807617193) " id="svg_148"/>
  <ellipse stroke="#000000" ry="0.62841" rx="5.43603" cy="174.10841" cx="493.32541" stroke-linecap="null" stroke-linejoin="null" stroke-dasharray="null" stroke-width="0" fill="#ffffff" id="svg_149" opacity="0.2"/>
  <ellipse stroke="#000000" ry="0.62841" rx="5.43603" cy="174.58302" cx="511.36056" stroke-linecap="null" stroke-linejoin="null" stroke-dasharray="null" stroke-width="0" fill="#ffffff" opacity="0.2" id="svg_150"/>
  <rect stroke="#000000" transform="translate(81.33333587646484,10.666666984558105) " fill="#007fff" stroke-width="0" stroke-dasharray="null" stroke-linejoin="null" stroke-linecap="null" opacity="0.2" x="26.17451" y="32.81337" width="39.58333" height="49.75003" id="svg_151"/>
  <rect stroke="#000000" fill="#007fff" stroke-width="0" stroke-dasharray="null" stroke-linejoin="null" stroke-linecap="null" opacity="0.2" x="101.78562" y="33.61895" width="49.75" height="67.58332" id="svg_154"/>
  <rect stroke="#000000" style="vector-effect: non-scaling-stroke;" fill="#d37676" stroke-width="0" stroke-dasharray="null" stroke-linejoin="null" stroke-linecap="null" x="573.61898" y="162.48006" width="60.75001" height="92.99998" id="svg_155"/>
  <rect stroke="#000000" fill="#ffffff" stroke-width="0" stroke-dasharray="null" stroke-linejoin="null" stroke-linecap="null" opacity="0.1" x="585.75436" y="162.71184" width="5.96094" height="91.60414" id="svg_162"/>
  <rect stroke="#000000" id="svg_105" height="8.63803" width="1.21826" y="164.38771" x="563.8584" stroke-linecap="null" stroke-linejoin="null" stroke-dasharray="null" stroke-width="0" fill="#969494"/>
  <path id="svg_126" stroke="#000000" fill="#ffaad4" stroke-width="0.9" stroke-dasharray="null" stroke-linejoin="null" stroke-linecap="null" d="m234.38875,343.47319c0,0 28.16103,27.63283 -9.31644,28.5339c-37.47747,0.90107 -21.59719,-16.21927 -14.8216,-18.32177c6.77559,-2.1025 6.14038,-1.50178 11.22207,-12.91534c5.0817,-11.41356 12.91597,2.70321 12.91597,2.70321z"/>
  <path stroke="#000000" fill="#ffaad4" stroke-width="0" stroke-dasharray="null" stroke-linejoin="null" stroke-linecap="null" d="m235.32625,340.22319c0,0 28.16103,27.63283 -9.31644,28.5339c-37.47747,0.90107 -21.59719,-16.21927 -14.8216,-18.32177c6.77559,-2.1025 6.14038,-1.50178 11.22207,-12.91534c5.0817,-11.41356 12.91597,2.70321 12.91597,2.70321z" id="svg_14"/>
  <path id="svg_127" stroke="#000000" fill="#ffaad4" stroke-dasharray="null" stroke-linejoin="null" stroke-linecap="null" d="m445.49194,348.70844c0,0 -24.30362,22.99217 8.0403,23.74192c32.34392,0.74974 18.63887,-13.49541 12.79138,-15.24482c-5.84749,-1.7494 -5.29929,-1.24957 -9.68491,-10.74634c-4.38562,-9.49677 -11.14678,2.24924 -11.14678,2.24924l0.00001,0z"/>
  <path stroke="#000000" fill="#ffaad4" stroke-width="0" stroke-dasharray="null" stroke-linejoin="null" stroke-linecap="null" d="m445.49194,345.89594c0,0 -24.30362,22.99217 8.0403,23.74192c32.34392,0.74974 18.63887,-13.49541 12.79138,-15.24482c-5.84749,-1.7494 -5.29929,-1.24957 -9.68491,-10.74634c-4.38562,-9.49677 -11.14678,2.24924 -11.14678,2.24924l0.00001,0z" id="svg_17"/>
  <path stroke="#000000" fill="#ff7f00" stroke-width="0" stroke-dasharray="null" stroke-linejoin="null" stroke-linecap="null" d="m75.61798,211.32785c0,0 2.51857,-5.66664 1.32556,-7.2121c-1.193,-1.54545 -1.98834,-4.63634 -1.98035,-4.64797c0.00799,-0.01162 -1.201,2.3298 -0.67078,5.16312c0.53023,2.83333 1.32557,6.69695 1.32557,6.69695l0,-0.00001l0,0.00001z" id="svg_79"/>
  <path stroke="#000000" fill="#ffff00" stroke-width="0" stroke-dasharray="null" stroke-linejoin="null" stroke-linecap="null" d="m76.14589,210.70158c0,0 -1.93213,-4.67166 -1.01691,-5.94577c0.91522,-1.27409 1.52537,-3.82227 1.51924,-3.83185c-0.00613,-0.00958 0.92135,1.92072 0.51459,4.25655c-0.40677,2.33584 -1.01691,5.52107 -1.01691,5.52107l-0.00001,0z" id="svg_80" transform="rotate(5.9582624435424805 76.07443237304767,205.81275939941403) "/>
  <rect stroke="#000000" fill="#ff0000" stroke-width="0" stroke-dasharray="null" stroke-linejoin="null" stroke-linecap="null" opacity="0.5" x="68.82555" y="211.66583" width="12.46875" height="14.01562" id="svg_156"/>
  <ellipse stroke="#000000" fill="#ffffaa" stroke-width="0" stroke-dasharray="null" stroke-linejoin="null" stroke-linecap="null" cx="75.66551" cy="211.57817" rx="7.04693" ry="0.73294" transform="rotate(-178.3955078125 75.66551971435547,211.57818603515625) " id="svg_78"/>
 </g>
</svg>
