<svg width="640" height="480" xmlns="http://www.w3.org/2000/svg" xmlns:svg="http://www.w3.org/2000/svg">
 <!-- Created with SVG-edit - http://svg-edit.googlecode.com/ -->
 <g>
  <title>Layer 1</title>
  <ellipse stroke="#000000" transform="rotate(-2.1434738636016846 343.47937011718517,220.64659118652335) " ry="119.20413" rx="203.28879" id="svg_6" cy="220.64659" cx="343.47938" stroke-linecap="null" stroke-linejoin="null" stroke-dasharray="null" stroke-width="5" fill="none"/>
  <ellipse stroke="#000000" id="svg_2" transform="rotate(-3.4682376384735107 339.9150085449226,227.0657501220695) " ry="39.99715" rx="227.17473" cy="227.06575" cx="339.91502" stroke-width="5" fill="#ffffff"/>
  <ellipse transform="rotate(-3.4682376384735107 337.332611083984,220.28393554687474) " stroke="#000000" ry="32.25" rx="204.75" id="svg_1" cy="220.28393" cx="337.33261" stroke-width="5" fill="#e8f9f9"/>
  <rect stroke="#000000" transform="rotate(6.292124271392822 411.4577026367187,143.99760437011702) " id="svg_7" height="64.49761" width="409.49999" y="111.7488" x="206.70772" stroke-linecap="null" stroke-linejoin="null" stroke-dasharray="null" stroke-width="0" fill="#ffffff"/>
  <rect id="svg_8" stroke="#000000" transform="rotate(-23.15629768371582 214.20771789550778,150.7476043701172) " height="64.49761" width="409.49999" y="118.4988" x="9.45772" stroke-linecap="null" stroke-linejoin="null" stroke-dasharray="null" stroke-width="0" fill="#ffffff"/>
  <ellipse stroke="#56ffff" id="svg_9" transform="rotate(-3.4682376384735107 337.87997436523546,223.393630981446) " ry="21.88266" rx="195.01787" cy="223.39363" cx="337.87995" stroke-width="5" fill="#5ef9f9"/>
  <ellipse stroke="#56ffff" transform="rotate(51.97122573852539 318.6128845214844,188.34158325195312) " id="svg_12" ry="14.91504" rx="15.61411" cy="188.34159" cx="318.61287" stroke-linecap="null" stroke-linejoin="null" stroke-dasharray="null" stroke-width="0" fill="#ffff00"/>
  <path transform="rotate(-68.77131652832031 307.12411499023443,195.1170043945313) " stroke="#000000" id="svg_21" d="m312.72129,192.59748c0,0 -5.67,1.79129 -8.35961,-0.68896c-2.68961,-2.48025 -5.23384,-2.34246 -4.36154,0.68896c0.87231,3.03142 6.03346,7.16517 8.86846,7.44076c2.835,0.27558 5.23384,-2.20467 5.52461,-2.75584c0.29077,-0.55117 -1.67192,-4.68492 -1.67192,-4.68492z" stroke-linecap="null" stroke-linejoin="null" stroke-dasharray="null" stroke-width="0" fill="#ff7f00"/>
  <polygon fill="none" id="svg_25"/>
  <ellipse stroke="#000000" transform="rotate(43.555824279785156 312.1505126953126,189.8387603759765) " ry="2.9283" rx="5.40824" id="svg_16" cy="189.83877" cx="312.15052" stroke-linecap="null" stroke-linejoin="null" stroke-dasharray="null" stroke-width="0" fill="#ffff00"/>
  <ellipse stroke="#000000" fill="#000000" stroke-width="0" stroke-dasharray="null" stroke-linejoin="null" stroke-linecap="null" cx="316.87507" cy="188.00342" rx="0.84677" ry="1.73529" id="svg_4"/>
  <ellipse stroke="#000000" id="svg_18" transform="rotate(-62.467559814453125 307.1150817871093,188.09567260742185) " ry="2.60265" rx="5.19991" cy="188.09568" cx="307.11511" stroke-linecap="null" stroke-linejoin="null" stroke-dasharray="null" stroke-width="0" fill="#ffff00"/>
  <ellipse stroke="#000000" fill="#000000" stroke-width="0" stroke-dasharray="null" stroke-linejoin="null" stroke-linecap="null" cx="305.27856" cy="187.79484" id="svg_3" rx="0.6549" ry="1.73529"/>
  <ellipse stroke="#000000" transform="rotate(-2.663031816482544 342.4492492675778,217.37049865722608) " ry="5.15292" rx="43.90137" id="svg_22" cy="217.3705" cx="342.44925" stroke-linecap="null" stroke-linejoin="null" stroke-dasharray="null" stroke-width="0" fill="#aaffff"/>
  <ellipse stroke="#56ffff" ry="19.125" rx="34.875" id="svg_10" cy="211.58718" cx="343.22139" stroke-linecap="null" stroke-linejoin="null" stroke-dasharray="null" stroke-width="0" fill="#ffff00"/>
  <rect stroke="#56ffff" transform="rotate(-3.5762856006622314 345.58395385742256,231.04312133789008) " id="svg_11" height="18.55483" width="74.76091" y="221.7657" x="308.20349" stroke-linecap="null" stroke-linejoin="null" stroke-dasharray="null" stroke-width="0" fill="#5ef9f9"/>
  <ellipse stroke="#000000" id="svg_28" transform="rotate(-2.663031816482544 343.14129638671847,218.67782592773452) " ry="6.85543" rx="58.48485" cy="218.67782" cx="343.14128" stroke-linecap="null" stroke-linejoin="null" stroke-dasharray="null" stroke-width="0" fill="#c4e0fc"/>
  <path stroke="#000000" transform="rotate(-77.53276824951172 371.1156921386719,211.2267608642578) " id="svg_20" d="m364.24677,218.34199l0,-14.23049l13.73788,14.23049l-13.73788,0z" stroke-linecap="null" stroke-linejoin="null" stroke-dasharray="null" stroke-width="0" fill="#ffff00"/>
  <ellipse stroke="#000000" id="svg_27" transform="rotate(-2.663031816482544 343.5235290527338,218.12165832519474) " ry="4.74451" rx="54.99762" cy="218.12164" cx="343.52354" stroke-linecap="null" stroke-linejoin="null" stroke-dasharray="null" stroke-width="0" fill="#aaffff"/>
  <ellipse stroke="#000000" id="svg_26" transform="rotate(-2.663031816482544 342.04556274414017,217.83200073242244) " ry="4.57591" rx="48.69052" cy="217.832" cx="342.04557" stroke-linecap="null" stroke-linejoin="null" stroke-dasharray="null" stroke-width="0" fill="#b9d8f7"/>
  <ellipse stroke="#000000" id="svg_23" transform="rotate(-2.663031816482544 343.5543212890616,217.02339172363264) " ry="3.28547" rx="42.82914" cy="217.02338" cx="343.55432" stroke-linecap="null" stroke-linejoin="null" stroke-dasharray="null" stroke-width="0" fill="#aaffff"/>
  <ellipse stroke="#56ffff" transform="rotate(-2.0853896141052246 343.4427185058616,214.05375671386776) " id="svg_24" ry="4.55527" rx="34.75981" cy="214.05375" cx="343.44272" stroke-linecap="null" stroke-linejoin="null" stroke-dasharray="null" stroke-width="0" fill="#ffff00"/>
  <path stroke="#000000" id="svg_29" transform="rotate(-49.54206848144531 376.6720275878907,208.72392272949227) " d="m373.06043,211.96489l0,-6.48196l7.22319,6.48196l-7.22319,0z" stroke-linecap="null" stroke-linejoin="null" stroke-dasharray="null" stroke-width="0" fill="#ffff00"/>
 </g>
</svg>
