<svg width="640" height="479.99999999999994" xmlns="http://www.w3.org/2000/svg" xmlns:svg="http://www.w3.org/2000/svg">
 <!-- Created with SVG-edit - http://svg-edit.googlecode.com/ -->
 <g>
  <title>Layer 1</title>
  <rect id="svg_26" transform="rotate(123.38851165771484 285,400.49999999999994) " height="9" width="52" y="396" x="259" stroke-linecap="null" stroke-linejoin="null" stroke-dasharray="null" stroke-width="0" stroke="#000000" fill="#ff7f00"/>
  <rect transform="rotate(51.67988586425781 356.00000000000006,401.50000000000006) " id="svg_25" height="9" width="52" y="397" x="330" stroke-linecap="null" stroke-linejoin="null" stroke-dasharray="null" stroke-width="0" stroke="#000000" fill="#ff7f00"/>
  <ellipse stroke="#000000" transform="rotate(90.46102905273438 300.6755065917969,151.0456695556641) " id="svg_12" ry="61.32773" rx="92" cy="151.04569" cx="300.67551" stroke-width="0" fill="#7fff00"/>
  <ellipse stroke="#000000" id="svg_10" ry="120" rx="44" cy="192" cx="291" stroke-width="0" fill="#ff7f00"/>
  <ellipse stroke="#000000" id="svg_11" ry="32" rx="53.5" cy="223" cx="291.5" stroke-width="0" fill="#ff7f00"/>
  <ellipse id="svg_9" stroke="#000000" ry="12" rx="5.5" cy="224" cx="274.5" stroke-linecap="null" stroke-linejoin="null" stroke-dasharray="null" stroke-width="0" fill="#3f3f3f"/>
  <ellipse stroke="#000000" ry="12" rx="5.5" id="svg_8" cy="223" cx="247.5" stroke-linecap="null" stroke-linejoin="null" stroke-dasharray="null" stroke-width="0" fill="#3f3f3f"/>
  <ellipse stroke="#000000" id="svg_14" transform="rotate(90.46102905273438 296.6799621582031,100.85256195068358) " ry="38.79225" rx="36.05009" cy="100.85256" cx="296.67997" stroke-width="0" fill="#7fff00"/>
  <rect stroke="#000000" id="svg_15" height="74" width="8" y="164" x="316" stroke-linecap="null" stroke-linejoin="null" stroke-dasharray="null" stroke-width="0" fill="#7fff00"/>
  <rect stroke="#000000" id="svg_16" height="97" width="29" y="112" x="316" stroke-linecap="null" stroke-linejoin="null" stroke-dasharray="null" stroke-width="0" fill="#7fff00"/>
  <rect stroke="#000000" id="svg_17" height="87" width="15" y="266" x="305" stroke-linecap="null" stroke-linejoin="null" stroke-dasharray="null" stroke-width="0" fill="#ff7f00"/>
  <polygon transform="rotate(12.324715614318848 323.39495849609466,388.99999999999983) " stroke-width="0" stroke="#000000" points="374.4969787597656,389 335.4585266113281,442.7318420410156 272.29296875,422.2080993652344 272.29296875,355.7919006347656 335.4585266113281,335.2681579589844 374.4969787597656,389 " strokeWidth="0" strokecolor="#000000" fill="#aaaaff" edge="66.4162" orient="x" sides="5" shape="regularPoly" id="svg_20" cy="372" cx="309"/>
  <rect stroke="#000000" transform="rotate(-5.587244033813477 323.7850952148451,431.08081054687557) " id="svg_21" height="68.71501" width="59.60346" y="396.7233" x="293.98335" stroke-linecap="null" stroke-linejoin="null" stroke-dasharray="null" stroke-width="0" fill="#aaaaff"/>
  <path id="svg_22" d="m261,272c0,0 3,0 18,-1c15,-1 31,-15 31,-15c0,0 -10,30 -22,30c-12,0 -27,-14 -27,-14z" stroke-linecap="null" stroke-linejoin="null" stroke-dasharray="null" stroke-width="0" stroke="#000000" fill="#000000"/>
  <rect stroke="#000000" id="svg_23" height="9" width="34" y="416" x="240" stroke-linecap="null" stroke-linejoin="null" stroke-dasharray="null" stroke-width="0" fill="#ff7f00"/>
  <rect stroke="#000000" id="svg_24" height="9" width="47" y="415" x="366" stroke-linecap="null" stroke-linejoin="null" stroke-dasharray="null" stroke-width="0" fill="#ff7f00"/>
  <rect stroke="#000000" id="svg_27" height="10.6875" width="16.28125" y="415.15625" x="229.03125" stroke-linecap="null" stroke-linejoin="null" stroke-dasharray="null" stroke-width="0" fill="#ff7f00"/>
  <rect transform="rotate(-90.99601745605469 228.73437500000009,417.68750000000006) " stroke="#000000" id="svg_28" height="10.6875" width="5.3125" y="412.34375" x="226.07813" stroke-linecap="null" stroke-linejoin="null" stroke-dasharray="null" stroke-width="0" fill="#ff7f00"/>
 </g>
</svg>
