<svg width="1040" height="480.0000000000001" xmlns="http://www.w3.org/2000/svg" xmlns:svg="http://www.w3.org/2000/svg">
 <!-- Created with SVG-edit - http://svg-edit.googlecode.com/ -->
 <g stroke="null">
  <title>Layer 1</title>
  <rect stroke="#000000" id="svg_1" height="474.07408" width="1047.7037" y="4.43622" x="-2.27979" stroke-linecap="null" stroke-linejoin="null" stroke-dasharray="null" stroke-width="5" fill="#fce3ee"/>
  <path stroke="#000000" id="svg_123" opacity="0.3" transform="rotate(-41.86880111694336 486.7355957031251,154.70890808105477) " d="m577.32532,154.70891l-90.58975,-44.0332l-90.58974,44.0332l90.58974,44.0332l90.58975,-44.0332z" stroke-linecap="null" stroke-linejoin="null" stroke-dasharray="null" stroke-width="5" fill="#7f00ff"/>
  <path id="svg_130" stroke="#000000" transform="rotate(-41.86880111694336 479.82818603515625,208.0422515869141) " d="m570.79025,208.04224l-90.96209,-44.36691l-90.96208,44.36691l90.96208,44.36691l90.96209,-44.36691z" stroke-linecap="null" stroke-linejoin="null" stroke-dasharray="null" stroke-width="5" fill="#000000"/>
  <path id="svg_118" opacity="0.3" stroke="#000000" transform="rotate(-41.86880111694336 367.7294311523438,260.8817443847657) " d="m458.69149,260.88175l-90.96209,-44.36691l-90.96208,44.36691l90.96208,44.36691l90.96209,-44.36691z" stroke-linecap="null" stroke-linejoin="null" stroke-dasharray="null" stroke-width="5" fill="#7f00ff"/>
  <path id="svg_117" opacity="0.3" stroke="#000000" transform="rotate(-41.86880111694336 397.11212158203136,184.33853149414062) " d="m488.0742,184.33854l-90.96209,-44.36691l-90.96208,44.36691l90.96208,44.36691l90.96209,-44.36691z" stroke-linecap="null" stroke-linejoin="null" stroke-dasharray="null" stroke-width="5" fill="#ff007f"/>
  <path stroke="#000000" id="svg_10" transform="rotate(-41.86880111694336 403.03805541992193,393.7212219238281) " d="m494.00013,393.72125l-90.96209,-44.3669l-90.96209,44.3669l90.96209,44.36691l90.96209,-44.36691z" stroke-linecap="null" stroke-linejoin="null" stroke-dasharray="null" stroke-width="5" fill="#ff007f"/>
  <path stroke="#000000" id="svg_61" transform="rotate(-41.86880111694336 771.9269409179688,121.49904632568355) " d="m862.889,121.49904l-90.96209,-44.36691l-90.96208,44.36691l90.96208,44.36691l90.96209,-44.36691z" stroke-linecap="null" stroke-linejoin="null" stroke-dasharray="null" stroke-width="5" fill="#ff00ff"/>
  <path stroke="#000000" id="svg_18" transform="rotate(-42.08880615234375 500.8158569335937,365.9434509277344) " d="m591.77792,365.94346l-90.96209,-44.3669l-90.96209,44.3669l90.96209,44.36692l90.96209,-44.36692z" stroke-linecap="null" stroke-linejoin="null" stroke-dasharray="null" stroke-width="5" fill="#ff00ff"/>
  <path stroke="#000000" id="svg_22" transform="rotate(-42.08880615234375 597.4824829101562,338.1656799316407) " d="m688.44458,338.16568l-90.96209,-44.3669l-90.96209,44.3669l90.96209,44.36692l90.96209,-44.36692z" stroke-linecap="null" stroke-linejoin="null" stroke-dasharray="null" stroke-width="5" fill="#ff007f"/>
  <path stroke="#000000" id="svg_23" transform="rotate(-42.08880615234375 537.4824829101562,271.12863159179693) " d="m628.44459,271.12864l-90.96209,-44.3669l-90.96209,44.3669l90.96209,44.36692l90.96209,-44.36692z" stroke-linecap="null" stroke-linejoin="null" stroke-dasharray="null" stroke-width="5" fill="#ff007f"/>
  <path stroke="#000000" id="svg_24" transform="rotate(-41.86880111694336 440.8158264160157,300.3879089355469) " d="m531.77791,300.38792l-90.96209,-44.36691l-90.96208,44.36691l90.96208,44.36691l90.96209,-44.36691z" stroke-linecap="null" stroke-linejoin="null" stroke-dasharray="null" stroke-width="5" fill="#7f00ff"/>
  <path stroke="#000000" id="svg_25" transform="rotate(-42.08880615234375 635.2603149414062,244.83235168457023) " d="m726.22237,244.83234l-90.96209,-44.3669l-90.96209,44.3669l90.96209,44.36692l90.96209,-44.36692z" stroke-linecap="null" stroke-linejoin="null" stroke-dasharray="null" stroke-width="5" fill="#7f00ff"/>
  <path stroke="#000000" transform="rotate(69.32462310791016 452.68203735351557,367.98538208007807) " opacity="0.2" id="svg_26" d="m426.57091,394.09647l0,-52.22221l52.22221,52.22221l-52.22221,0z" stroke-linecap="null" stroke-linejoin="null" stroke-dasharray="null" stroke-width="0" fill="#ffffff"/>
  <path stroke="#000000" id="svg_28" transform="rotate(68.99169921875 489.348663330078,276.87423706054693) " opacity="0.2" d="m463.23758,302.98536l0,-52.2222l52.22221,52.2222l-52.22221,0z" stroke-linecap="null" stroke-linejoin="null" stroke-dasharray="null" stroke-width="0" fill="#ffffff"/>
  <path stroke="#000000" id="svg_29" transform="rotate(68.21836853027344 588.2375488281249,244.65203857421875) " opacity="0.2" d="m562.12646,270.76313l0,-52.2222l52.22221,52.2222l-52.22221,0z" stroke-linecap="null" stroke-linejoin="null" stroke-dasharray="null" stroke-width="0" fill="#ffffff"/>
  <path stroke="#000000" id="svg_30" transform="rotate(68.21836853027344 549.3486938476562,340.2075805664063) " opacity="0.2" d="m523.23758,366.31869l0,-52.2222l52.22221,52.2222l-52.22221,0z" stroke-linecap="null" stroke-linejoin="null" stroke-dasharray="null" stroke-width="0" fill="#ffffff"/>
  <path stroke="#000000" id="svg_31" transform="rotate(68.21836853027344 684.9042358398438,216.87425231933602) " opacity="0.2" d="m658.79314,242.98535l0,-52.2222l52.22221,52.2222l-52.22221,0z" stroke-linecap="null" stroke-linejoin="null" stroke-dasharray="null" stroke-width="0" fill="#ffffff"/>
  <path stroke="#000000" id="svg_32" transform="rotate(70.350341796875 646.0153808593751,312.4297790527343) " opacity="0.2" d="m619.90425,338.54091l0,-52.2222l52.22221,52.2222l-52.22221,0z" stroke-linecap="null" stroke-linejoin="null" stroke-dasharray="null" stroke-width="0" fill="#ffffff"/>
  <path stroke="#000000" id="svg_33" transform="rotate(74.75824737548828 469.8529663085937,291.47250366210943) " opacity="0.2" d="m433.27995,341.088l0,-99.23095l73.14605,99.23095l-73.14605,0z" stroke-linecap="null" stroke-linejoin="null" stroke-dasharray="null" stroke-width="0" fill="#ffffff"/>
  <path stroke="#000000" id="svg_34" transform="rotate(74.26053619384766 565.7459106445312,266.2230224609375) " opacity="0.2" d="m528.93901,312.34692l0,-92.24781l73.61379,92.24781l-73.61379,0z" stroke-linecap="null" stroke-linejoin="null" stroke-dasharray="null" stroke-width="0" fill="#ffffff"/>
  <path stroke="#000000" id="svg_35" transform="rotate(72.50027465820312 663.2178955078125,232.44038391113278) " opacity="0.2" d="m629.78067,281.76938l0,-98.65803l66.87436,98.65803l-66.87436,0z" stroke-linecap="null" stroke-linejoin="null" stroke-dasharray="null" stroke-width="0" fill="#ffffff"/>
  <path stroke="#000000" id="svg_36" transform="rotate(75.5986328125 623.8994750976562,331.6741638183593) " opacity="0.2" d="m587.14996,378.05884l0,-92.76935l73.499,92.76935l-73.499,0z" stroke-linecap="null" stroke-linejoin="null" stroke-dasharray="null" stroke-width="0" fill="#ffffff"/>
  <path stroke="#000000" id="svg_37" transform="rotate(75.05943298339844 523.6162719726561,361.71627807617193) " opacity="0.2" d="m488.38137,409.19882l0,-94.96503l70.46979,94.96503l-70.46979,0z" stroke-linecap="null" stroke-linejoin="null" stroke-dasharray="null" stroke-width="0" fill="#ffffff"/>
  <path stroke="#000000" id="svg_38" transform="rotate(75.05943298339844 429.31954956054676,386.1587219238281) " opacity="0.2" d="m392.97495,433.49802l0,-94.67856l72.68919,94.67856l-72.68919,0z" stroke-linecap="null" stroke-linejoin="null" stroke-dasharray="null" stroke-width="0" fill="#ffffff"/>
  <path stroke="#000000" id="svg_50" transform="rotate(-42.08880615234375 477.48251342773443,205.94346618652344) " d="m568.44459,205.94346l-90.96209,-44.3669l-90.96209,44.3669l90.96209,44.36692l90.96209,-44.36692z" stroke-linecap="null" stroke-linejoin="null" stroke-dasharray="null" stroke-width="5" fill="#ff007f"/>
  <path stroke="#000000" id="svg_53" transform="rotate(74.26053619384766 504.6348266601562,198.4452667236328) " opacity="0.2" d="m467.8279,244.56914l0,-92.24781l73.61379,92.24781l-73.61379,0z" stroke-linecap="null" stroke-linejoin="null" stroke-dasharray="null" stroke-width="0" fill="#ffffff"/>
  <path stroke="#000000" id="svg_49" transform="rotate(-41.86880111694336 575.2602539062501,178.16571044921878) " d="m666.22235,178.1657l-90.96209,-44.36691l-90.96208,44.36691l90.96208,44.36691l90.96209,-44.36691z" stroke-linecap="null" stroke-linejoin="null" stroke-dasharray="null" stroke-width="5" fill="#7f00ff"/>
  <path stroke="#000000" id="svg_58" transform="rotate(-42.08880615234375 731.9269409179689,217.05459594726565) " d="m822.88903,217.05457l-90.96209,-44.3669l-90.96209,44.3669l90.96209,44.36692l90.96209,-44.36692z" stroke-linecap="null" stroke-linejoin="null" stroke-dasharray="null" stroke-width="5" fill="#ff007f"/>
  <path stroke="#000000" id="svg_51" transform="rotate(-42.08880615234375 673.0380859375001,150.3879089355468) " d="m764.00015,150.3879l-90.96209,-44.3669l-90.96209,44.3669l90.96209,44.36692l90.96209,-44.36692z" stroke-linecap="null" stroke-linejoin="null" stroke-dasharray="null" stroke-width="5" fill="#ff007f"/>
  <path stroke="#000000" id="svg_52" transform="rotate(74.26053619384766 601.6303100585938,169.86264038085932) " opacity="0.2" d="m564.90601,218.66017l0,-97.59505l73.44855,97.59505l-73.44855,0z" stroke-linecap="null" stroke-linejoin="null" stroke-dasharray="null" stroke-width="0" fill="#ffffff"/>
  <path stroke="#000000" id="svg_54" transform="rotate(75.8099136352539 701.3014526367188,140.66746520996094) " opacity="0.2" d="m664.49456,186.79136l0,-92.24781l73.61379,92.24781l-73.61379,0z" stroke-linecap="null" stroke-linejoin="null" stroke-dasharray="null" stroke-width="0" fill="#ffffff"/>
  <path stroke="#000000" id="svg_55" transform="rotate(71.94294738769531 720.4597778320312,124.65202331542969) " opacity="0.2" d="m694.34869,150.76312l0,-52.2222l52.22221,52.2222l-52.22221,0z" stroke-linecap="null" stroke-linejoin="null" stroke-dasharray="null" stroke-width="0" fill="#ffffff"/>
  <path stroke="#000000" id="svg_56" transform="rotate(72.37594604492188 622.6820068359375,153.54090881347656) " opacity="0.2" d="m596.57092,179.65202l0,-52.2222l52.22221,52.2222l-52.22221,0z" stroke-linecap="null" stroke-linejoin="null" stroke-dasharray="null" stroke-width="0" fill="#ffffff"/>
  <path stroke="#000000" id="svg_57" transform="rotate(65.85455322265625 526.015380859375,181.31869506835935) " opacity="0.2" d="m499.90425,207.4298l0,-52.2222l52.22221,52.2222l-52.22221,0z" stroke-linecap="null" stroke-linejoin="null" stroke-dasharray="null" stroke-width="0" fill="#ffffff"/>
  <path stroke="#000000" id="svg_63" transform="rotate(-41.86880111694336 695.26025390625,310.3879089355469) " d="m786.22235,310.38792l-90.96209,-44.36691l-90.96208,44.36691l90.96208,44.36691l90.96209,-44.36691z" stroke-linecap="null" stroke-linejoin="null" stroke-dasharray="null" stroke-width="5" fill="#ff00ff"/>
  <path stroke="#000000" id="svg_67" transform="rotate(74.26053619384766 793.8525390625,116.52930450439446) " opacity="0.2" d="m757.12823,165.32684l0,-97.59505l73.44855,97.59505l-73.44855,0z" stroke-linecap="null" stroke-linejoin="null" stroke-dasharray="null" stroke-width="0" fill="#ffffff"/>
  <path stroke="#000000" id="svg_68" transform="rotate(71.94294738769531 817.12646484375,102.42980957031253) " opacity="0.2" d="m791.01535,128.5409l0,-52.2222l52.22221,52.2222l-52.22221,0z" stroke-linecap="null" stroke-linejoin="null" stroke-dasharray="null" stroke-width="0" fill="#ffffff"/>
  <path stroke="#000000" id="svg_69" transform="rotate(74.26053619384766 758.2969970703125,209.86262512207028) " opacity="0.2" d="m721.57267,258.66017l0,-97.59505l73.44855,97.59505l-73.44855,0z" stroke-linecap="null" stroke-linejoin="null" stroke-dasharray="null" stroke-width="0" fill="#ffffff"/>
  <path stroke="#000000" id="svg_70" transform="rotate(71.94294738769531 777.12646484375,191.31869506835926) " opacity="0.2" d="m751.01535,217.42979l0,-52.2222l52.22221,52.2222l-52.22221,0z" stroke-linecap="null" stroke-linejoin="null" stroke-dasharray="null" stroke-width="0" fill="#ffffff"/>
  <path stroke="#000000" id="svg_71" transform="rotate(74.26053619384766 728.2969970703126,300.9737243652343) " opacity="0.2" d="m691.57267,349.77128l0,-97.59505l73.44855,97.59505l-73.44855,0z" stroke-linecap="null" stroke-linejoin="null" stroke-dasharray="null" stroke-width="0" fill="#ffffff"/>
  <path stroke="#000000" id="svg_73" transform="rotate(68.21836853027344 741.5709228515625,286.8742370605469) " opacity="0.2" d="m715.4598,312.98535l0,-52.2222l52.22221,52.2222l-52.22221,0z" stroke-linecap="null" stroke-linejoin="null" stroke-dasharray="null" stroke-width="0" fill="#ffffff"/>
  <path stroke="#000000" opacity="0.3" id="svg_114" transform="rotate(-41.86880111694336 369.45782470703125,117.6533660888672) " d="m461.42103,117.65336l-91.96323,-45.48393l-91.96322,45.48393l91.96322,45.48393l91.96323,-45.48393z" stroke-linecap="null" stroke-linejoin="null" stroke-dasharray="null" stroke-width="5" fill="#ff007f"/>
  <path stroke="#000000" id="svg_115" opacity="0.3" transform="rotate(-41.86880111694336 300.322021484375,281.62866210937494) " d="m391.61781,281.62866l-91.2958,-44.73925l-91.29579,44.73925l91.29579,44.73925l91.2958,-44.73925z" stroke-linecap="null" stroke-linejoin="null" stroke-dasharray="null" stroke-width="5" fill="#ff007f"/>
  <path opacity="0.3" id="svg_116" stroke="#000000" transform="rotate(-41.86880111694336 336.12448120117193,199.64718627929693) " d="m427.08655,199.64718l-90.96209,-44.36691l-90.96208,44.36691l90.96208,44.36691l90.96209,-44.36691z" stroke-linecap="null" stroke-linejoin="null" stroke-dasharray="null" stroke-width="5" fill="#7f00ff"/>
  <path id="svg_119" opacity="0.3" stroke="#000000" transform="rotate(-41.86880111694336 434.8899230957032,98.90644836425781) " d="m525.85198,98.90643l-90.96209,-44.36691l-90.96208,44.36691l90.96208,44.36691l90.96209,-44.36691z" stroke-linecap="null" stroke-linejoin="null" stroke-dasharray="null" stroke-width="5" fill="#7f00ff"/>
  <path stroke="#000000" id="svg_122" opacity="0.3" transform="rotate(-41.86880111694336 517.8529052734375,75.44967651367192) " d="m604.23041,75.44968l-86.37754,-44.99633l-86.37753,44.99633l86.37753,44.99633l86.37754,-44.99633z" stroke-linecap="null" stroke-linejoin="null" stroke-dasharray="null" stroke-width="5" fill="#ff007f"/>
  <path id="svg_127" opacity="0.3" stroke="#000000" transform="rotate(-41.86880111694336 255.3837127685548,221.37556457519537) " d="m346.3458,221.37558l-90.96209,-44.36691l-90.96208,44.36691l90.96208,44.36691l90.96209,-44.36691z" stroke-linecap="null" stroke-linejoin="null" stroke-dasharray="null" stroke-width="5" fill="#ff007f"/>
  <path id="svg_128" opacity="0.3" stroke="#000000" transform="rotate(-41.86880111694336 288.22320556640636,140.3879089355469) " d="m379.18531,140.38791l-90.96209,-44.36691l-90.96208,44.36691l90.96208,44.36691l90.96209,-44.36691z" stroke-linecap="null" stroke-linejoin="null" stroke-dasharray="null" stroke-width="5" fill="#7f00ff"/>
  <path stroke="#000000" id="svg_129" opacity="0.3" transform="rotate(-41.86880111694336 219.58741760253903,306.31384277343756) " d="m310.17718,306.31385l-90.58975,-44.0332l-90.58974,44.0332l90.58974,44.0332l90.58975,-44.0332z" stroke-linecap="null" stroke-linejoin="null" stroke-dasharray="null" stroke-width="5" fill="#7f00ff"/>
 </g>
</svg>
