<svg width="640" height="480.00000000000006" xmlns="http://www.w3.org/2000/svg" xmlns:svg="http://www.w3.org/2000/svg" stroke="null" style="vector-effect: non-scaling-stroke;">
 <!-- Created with SVG-edit - http://svg-edit.googlecode.com/ -->

 <g stroke="null">
  <title stroke="null">Layer 1</title>
  <path id="svg_123" opacity="0.3" stroke="#000000" transform="rotate(-41.86880111694336 250.1985626220704,159.4496459960938) " d="m341.16063,159.44965l-90.96209,-44.36691l-90.96208,44.36691l90.96208,44.36691l90.96209,-44.36691z" stroke-linecap="null" stroke-linejoin="null" stroke-dasharray="null" stroke-width="5" fill="#7f00ff"/>
  <path id="svg_130" stroke="#000000" transform="rotate(-41.86880111694336 242.7911529541016,212.78298950195307) " d="m333.75322,212.78298l-90.96209,-44.36691l-90.96208,44.36691l90.96208,44.36691l90.96209,-44.36691z" stroke-linecap="null" stroke-linejoin="null" stroke-dasharray="null" stroke-width="5" fill="#000000"/>
  <path id="svg_118" opacity="0.3" stroke="#000000" transform="rotate(-41.86880111694336 130.69238281250003,265.62249755859375) " d="m221.65446,265.62249l-90.96209,-44.36691l-90.96208,44.36691l90.96208,44.36691l90.96209,-44.36691z" stroke-linecap="null" stroke-linejoin="null" stroke-dasharray="null" stroke-width="5" fill="#7f00ff"/>
  <path id="svg_117" opacity="0.3" stroke="#000000" transform="rotate(-41.86880111694336 160.07508850097656,189.07926940917972) " d="m251.03717,189.07928l-90.96209,-44.36691l-90.96208,44.36691l90.96208,44.36691l90.96209,-44.36691z" stroke-linecap="null" stroke-linejoin="null" stroke-dasharray="null" stroke-width="5" fill="#ff007f"/>
  <path stroke="#000000" id="svg_10" transform="rotate(-41.86880111694336 166.00100708007832,398.46197509765636) " d="m256.9631,398.46199l-90.96209,-44.3669l-90.96209,44.3669l90.96209,44.36691l90.96209,-44.36691z" stroke-linecap="null" stroke-linejoin="null" stroke-dasharray="null" stroke-width="5" fill="#ff007f"/>
  <path stroke="#000000" style="vector-effect: non-scaling-stroke;" id="svg_61" transform="rotate(-41.86880111694336 534.8898925781251,126.23978424072266) " d="m625.85197,126.23978l-90.96209,-44.36691l-90.96208,44.36691l90.96208,44.36691l90.96209,-44.36691z" stroke-linecap="null" stroke-linejoin="null" stroke-dasharray="null" stroke-width="5" fill="#ff00ff"/>
  <path stroke="#000000" style="vector-effect: non-scaling-stroke;" id="svg_18" transform="rotate(-42.08880615234375 263.77880859375,370.6842041015625) " d="m354.74089,370.6842l-90.96209,-44.3669l-90.96209,44.3669l90.96209,44.36692l90.96209,-44.36692z" stroke-linecap="null" stroke-linejoin="null" stroke-dasharray="null" stroke-width="5" fill="#ff00ff"/>
  <path stroke="#000000" style="vector-effect: non-scaling-stroke;" id="svg_22" transform="rotate(-42.08880615234375 360.44546508789074,342.9064331054688) " d="m451.40755,342.90642l-90.96209,-44.3669l-90.96209,44.3669l90.96209,44.36692l90.96209,-44.36692z" stroke-linecap="null" stroke-linejoin="null" stroke-dasharray="null" stroke-width="5" fill="#ff007f"/>
  <path stroke="#000000" style="vector-effect: non-scaling-stroke;" id="svg_23" transform="rotate(-42.08880615234375 300.4454650878908,275.86938476562506) " d="m391.40756,275.86938l-90.96209,-44.3669l-90.96209,44.3669l90.96209,44.36692l90.96209,-44.36692z" stroke-linecap="null" stroke-linejoin="null" stroke-dasharray="null" stroke-width="5" fill="#ff007f"/>
  <path stroke="#000000" id="svg_24" transform="rotate(-41.86880111694336 203.77877807617196,305.12866210937506) " d="m294.74088,305.12866l-90.96209,-44.36691l-90.96208,44.36691l90.96208,44.36691l90.96209,-44.36691z" stroke-linecap="null" stroke-linejoin="null" stroke-dasharray="null" stroke-width="5" fill="#7f00ff"/>
  <path stroke="#000000" style="vector-effect: non-scaling-stroke;" id="svg_25" transform="rotate(-42.08880615234375 398.2232666015625,249.57308959960932) " d="m489.18534,249.57308l-90.96209,-44.3669l-90.96209,44.3669l90.96209,44.36692l90.96209,-44.36692z" stroke-linecap="null" stroke-linejoin="null" stroke-dasharray="null" stroke-width="5" fill="#7f00ff"/>
  <path stroke="#000000" style="vector-effect: non-scaling-stroke;" transform="rotate(69.32462310791016 215.64498901367188,372.72613525390625) " opacity="0.2" id="svg_26" d="m189.53388,398.83721l0,-52.22221l52.22221,52.22221l-52.22221,0z" stroke-linecap="null" stroke-linejoin="null" stroke-dasharray="null" stroke-width="0" fill="#ffffff"/>
  <path stroke="#000000" style="vector-effect: non-scaling-stroke;" id="svg_28" transform="rotate(68.99169921875 252.31164550781247,281.614990234375) " opacity="0.2" d="m226.20055,307.7261l0,-52.2222l52.22221,52.2222l-52.22221,0z" stroke-linecap="null" stroke-linejoin="null" stroke-dasharray="null" stroke-width="0" fill="#ffffff"/>
  <path stroke="#000000" style="vector-effect: non-scaling-stroke;" id="svg_29" transform="rotate(68.21836853027344 351.2005310058594,249.39277648925787) " opacity="0.2" d="m325.08943,275.50387l0,-52.2222l52.22221,52.2222l-52.22221,0z" stroke-linecap="null" stroke-linejoin="null" stroke-dasharray="null" stroke-width="0" fill="#ffffff"/>
  <path stroke="#000000" style="vector-effect: non-scaling-stroke;" id="svg_30" transform="rotate(68.21836853027344 312.31164550781244,344.9483337402344) " opacity="0.2" d="m286.20055,371.05943l0,-52.2222l52.22221,52.2222l-52.22221,0z" stroke-linecap="null" stroke-linejoin="null" stroke-dasharray="null" stroke-width="0" fill="#ffffff"/>
  <path stroke="#000000" style="vector-effect: non-scaling-stroke;" id="svg_31" transform="rotate(68.21836853027344 447.86721801757807,221.61499023437503) " opacity="0.2" d="m421.75611,247.72609l0,-52.2222l52.22221,52.2222l-52.22221,0z" stroke-linecap="null" stroke-linejoin="null" stroke-dasharray="null" stroke-width="0" fill="#ffffff"/>
  <path stroke="#000000" style="vector-effect: non-scaling-stroke;" id="svg_32" transform="rotate(70.350341796875 408.9783325195312,317.17053222656256) " opacity="0.2" d="m382.86722,343.28165l0,-52.2222l52.22221,52.2222l-52.22221,0z" stroke-linecap="null" stroke-linejoin="null" stroke-dasharray="null" stroke-width="0" fill="#ffffff"/>
  <path stroke="#000000" style="vector-effect: non-scaling-stroke;" id="svg_33" transform="rotate(74.75824737548828 232.81594848632815,296.2132568359375) " opacity="0.2" d="m196.24292,345.82874l0,-99.23095l73.14605,99.23095l-73.14605,0z" stroke-linecap="null" stroke-linejoin="null" stroke-dasharray="null" stroke-width="0" fill="#ffffff"/>
  <path stroke="#000000" style="vector-effect: non-scaling-stroke;" id="svg_34" transform="rotate(74.26053619384766 328.7088928222656,270.9637756347656) " opacity="0.2" d="m291.90198,317.08766l0,-92.24781l73.61379,92.24781l-73.61379,0z" stroke-linecap="null" stroke-linejoin="null" stroke-dasharray="null" stroke-width="0" fill="#ffffff"/>
  <path stroke="#000000" style="vector-effect: non-scaling-stroke;" id="svg_35" transform="rotate(72.50027465820312 426.18084716796875,237.18112182617188) " opacity="0.2" d="m392.74364,286.51012l0,-98.65803l66.87436,98.65803l-66.87436,0z" stroke-linecap="null" stroke-linejoin="null" stroke-dasharray="null" stroke-width="0" fill="#ffffff"/>
  <path stroke="#000000" style="vector-effect: non-scaling-stroke;" id="svg_36" transform="rotate(75.5986328125 386.86242675781256,336.4149169921875) " opacity="0.2" d="m350.11293,382.79958l0,-92.76935l73.499,92.76935l-73.499,0z" stroke-linecap="null" stroke-linejoin="null" stroke-dasharray="null" stroke-width="0" fill="#ffffff"/>
  <path stroke="#000000" style="vector-effect: non-scaling-stroke;" id="svg_37" transform="rotate(75.05943298339844 286.5792541503906,366.45703125) " opacity="0.2" d="m251.34434,413.93956l0,-94.96503l70.46979,94.96503l-70.46979,0z" stroke-linecap="null" stroke-linejoin="null" stroke-dasharray="null" stroke-width="0" fill="#ffffff"/>
  <path stroke="#000000" style="vector-effect: non-scaling-stroke;" id="svg_38" transform="rotate(75.05943298339844 192.28251647949222,390.89947509765625) " opacity="0.2" d="m155.93792,438.23876l0,-94.67856l72.68919,94.67856l-72.68919,0z" stroke-linecap="null" stroke-linejoin="null" stroke-dasharray="null" stroke-width="0" fill="#ffffff"/>
  <path stroke="#000000" id="svg_50" transform="rotate(-42.08880615234375 240.44548034667963,210.68420410156247) " d="m331.40756,210.6842l-90.96209,-44.3669l-90.96209,44.3669l90.96209,44.36692l90.96209,-44.36692z" stroke-linecap="null" stroke-linejoin="null" stroke-dasharray="null" stroke-width="5" fill="#ff007f"/>
  <path stroke="#000000" style="vector-effect: non-scaling-stroke;" id="svg_53" transform="rotate(74.26053619384766 267.5977783203125,203.18600463867185) " opacity="0.2" d="m230.79087,249.30988l0,-92.24781l73.61379,92.24781l-73.61379,0z" stroke-linecap="null" stroke-linejoin="null" stroke-dasharray="null" stroke-width="0" fill="#ffffff"/>
  <path stroke="#000000" style="vector-effect: non-scaling-stroke;" id="svg_49" transform="rotate(-41.86880111694336 338.22323608398443,182.90644836425778) " d="m429.18532,182.90644l-90.96209,-44.36691l-90.96208,44.36691l90.96208,44.36691l90.96209,-44.36691z" stroke-linecap="null" stroke-linejoin="null" stroke-dasharray="null" stroke-width="5" fill="#7f00ff"/>
  <path stroke="#000000" style="vector-effect: non-scaling-stroke;" id="svg_58" transform="rotate(-42.08880615234375 494.889892578125,221.79533386230466) " d="m585.852,221.79531l-90.96209,-44.3669l-90.96209,44.3669l90.96209,44.36692l90.96209,-44.36692z" stroke-linecap="null" stroke-linejoin="null" stroke-dasharray="null" stroke-width="5" fill="#ff007f"/>
  <path stroke="#000000" style="vector-effect: non-scaling-stroke;" id="svg_51" transform="rotate(-42.08880615234375 436.0010375976562,155.12864685058594) " d="m526.96312,155.12864l-90.96209,-44.3669l-90.96209,44.3669l90.96209,44.36692l90.96209,-44.36692z" stroke-linecap="null" stroke-linejoin="null" stroke-dasharray="null" stroke-width="5" fill="#ff007f"/>
  <path stroke="#000000" style="vector-effect: non-scaling-stroke;" id="svg_52" transform="rotate(74.26053619384766 364.59326171875,174.60337829589838) " opacity="0.2" d="m327.86898,223.40091l0,-97.59505l73.44855,97.59505l-73.44855,0z" stroke-linecap="null" stroke-linejoin="null" stroke-dasharray="null" stroke-width="0" fill="#ffffff"/>
  <path stroke="#000000" style="vector-effect: non-scaling-stroke;" id="svg_54" transform="rotate(75.8099136352539 464.264404296875,145.408203125) " opacity="0.2" d="m427.45753,191.5321l0,-92.24781l73.61379,92.24781l-73.61379,0z" stroke-linecap="null" stroke-linejoin="null" stroke-dasharray="null" stroke-width="0" fill="#ffffff"/>
  <path stroke="#000000" style="vector-effect: non-scaling-stroke;" id="svg_55" transform="rotate(71.94294738769531 483.42276000976557,129.39276123046875) " opacity="0.2" d="m457.31166,155.50386l0,-52.2222l52.22221,52.2222l-52.22221,0z" stroke-linecap="null" stroke-linejoin="null" stroke-dasharray="null" stroke-width="0" fill="#ffffff"/>
  <path stroke="#000000" style="vector-effect: non-scaling-stroke;" id="svg_56" transform="rotate(72.37594604492188 385.64498901367193,158.28164672851557) " opacity="0.2" d="m359.53389,184.39276l0,-52.2222l52.22221,52.2222l-52.22221,0z" stroke-linecap="null" stroke-linejoin="null" stroke-dasharray="null" stroke-width="0" fill="#ffffff"/>
  <path stroke="#000000" style="vector-effect: non-scaling-stroke;" id="svg_57" transform="rotate(65.85455322265625 288.9783325195312,186.05943298339847) " opacity="0.2" d="m262.86722,212.17054l0,-52.2222l52.22221,52.2222l-52.22221,0z" stroke-linecap="null" stroke-linejoin="null" stroke-dasharray="null" stroke-width="0" fill="#ffffff"/>
  <path stroke="#000000" style="vector-effect: non-scaling-stroke;" id="svg_63" transform="rotate(-41.86880111694336 458.22320556640636,315.1286621093751) " d="m549.18532,315.12866l-90.96209,-44.36691l-90.96208,44.36691l90.96208,44.36691l90.96209,-44.36691z" stroke-linecap="null" stroke-linejoin="null" stroke-dasharray="null" stroke-width="5" fill="#ff00ff"/>
  <path stroke="#000000" style="vector-effect: non-scaling-stroke;" id="svg_67" transform="rotate(74.26053619384766 556.8154907226562,121.27004241943357) " opacity="0.2" d="m520.0912,170.06758l0,-97.59505l73.44855,97.59505l-73.44855,0z" stroke-linecap="null" stroke-linejoin="null" stroke-dasharray="null" stroke-width="0" fill="#ffffff"/>
  <path stroke="#000000" style="vector-effect: non-scaling-stroke;" id="svg_68" transform="rotate(71.94294738769531 580.0894165039062,107.17054748535155) " opacity="0.2" d="m553.97832,133.28164l0,-52.2222l52.22221,52.2222l-52.22221,0z" stroke-linecap="null" stroke-linejoin="null" stroke-dasharray="null" stroke-width="0" fill="#ffffff"/>
  <path stroke="#000000" style="vector-effect: non-scaling-stroke;" id="svg_69" transform="rotate(74.26053619384766 521.2599487304688,214.60336303710938) " opacity="0.2" d="m484.53564,263.40091l0,-97.59505l73.44855,97.59505l-73.44855,0z" stroke-linecap="null" stroke-linejoin="null" stroke-dasharray="null" stroke-width="0" fill="#ffffff"/>
  <path stroke="#000000" style="vector-effect: non-scaling-stroke;" id="svg_70" transform="rotate(71.94294738769531 540.0894165039062,196.05943298339847) " opacity="0.2" d="m513.97832,222.17053l0,-52.2222l52.22221,52.2222l-52.22221,0z" stroke-linecap="null" stroke-linejoin="null" stroke-dasharray="null" stroke-width="0" fill="#ffffff"/>
  <path stroke="#000000" style="vector-effect: non-scaling-stroke;" id="svg_71" transform="rotate(74.26053619384766 491.2599487304687,305.7144775390625) " opacity="0.2" d="m454.53564,354.51202l0,-97.59505l73.44855,97.59505l-73.44855,0z" stroke-linecap="null" stroke-linejoin="null" stroke-dasharray="null" stroke-width="0" fill="#ffffff"/>
  <path stroke="#000000" style="vector-effect: non-scaling-stroke;" id="svg_73" transform="rotate(68.21836853027344 504.5338745117188,291.614990234375) " opacity="0.2" d="m478.42277,317.72609l0,-52.2222l52.22221,52.2222l-52.22221,0z" stroke-linecap="null" stroke-linejoin="null" stroke-dasharray="null" stroke-width="0" fill="#ffffff"/>
  <path opacity="0.3" id="svg_114" stroke="#000000" transform="rotate(-41.86880111694336 132.42076110839847,123.89408111572266) " d="m223.38285,123.8941l-90.96209,-44.36691l-90.96208,44.36691l90.96208,44.36691l90.96209,-44.36691z" stroke-linecap="null" stroke-linejoin="null" stroke-dasharray="null" stroke-width="5" fill="#ff007f"/>
  <path stroke="#000000" id="svg_115" opacity="0.3" transform="rotate(-41.86880111694336 63.28494644165044,285.86938476562506) " d="m154.24706,285.8694l-90.96209,-44.36691l-90.96208,44.36691l90.96208,44.36691l90.96209,-44.36691z" stroke-linecap="null" stroke-linejoin="null" stroke-dasharray="null" stroke-width="5" fill="#ff007f"/>
  <path opacity="0.3" id="svg_116" stroke="#000000" transform="rotate(-41.86880111694336 99.08743286132825,204.38792419433597) " d="m190.04952,204.38792l-90.96209,-44.36691l-90.96208,44.36691l90.96208,44.36691l90.96209,-44.36691z" stroke-linecap="null" stroke-linejoin="null" stroke-dasharray="null" stroke-width="5" fill="#7f00ff"/>
  <path id="svg_119" opacity="0.3" stroke="#000000" transform="rotate(-41.86880111694336 197.85287475585946,103.6471862792969) " d="m288.81495,103.64717l-90.96209,-44.36691l-90.96208,44.36691l90.96208,44.36691l90.96209,-44.36691z" stroke-linecap="null" stroke-linejoin="null" stroke-dasharray="null" stroke-width="5" fill="#7f00ff"/>
  <path stroke="#000000" id="svg_122" opacity="0.3" transform="rotate(-41.86880111694336 280.8158569335938,80.190414428711) " d="m367.19338,80.19042l-86.37754,-44.99633l-86.37753,44.99633l86.37753,44.99633l86.37754,-44.99633z" stroke-linecap="null" stroke-linejoin="null" stroke-dasharray="null" stroke-width="5" fill="#ff007f"/>
  <path id="svg_127" opacity="0.3" stroke="#000000" transform="rotate(-41.86880111694336 18.34667968750011,226.1163024902344) " d="m109.30877,226.11632l-90.96209,-44.36691l-90.96208,44.36691l90.96208,44.36691l90.96209,-44.36691z" stroke-linecap="null" stroke-linejoin="null" stroke-dasharray="null" stroke-width="5" fill="#ff007f"/>
  <path id="svg_128" opacity="0.3" stroke="#000000" transform="rotate(-41.86880111694336 51.18620300292973,145.128662109375) " d="m142.14828,145.12865l-90.96209,-44.36691l-90.96208,44.36691l90.96208,44.36691l90.96209,-44.36691z" stroke-linecap="null" stroke-linejoin="null" stroke-dasharray="null" stroke-width="5" fill="#7f00ff"/>
  <path id="svg_129" opacity="0.3" stroke="#000000" transform="rotate(-41.86880111694336 -17.94961547851557,311.0545959472657) " d="m73.01248,311.05459l-90.96209,-44.36691l-90.96208,44.36691l90.96208,44.36691l90.96209,-44.36691z" stroke-linecap="null" stroke-linejoin="null" stroke-dasharray="null" stroke-width="5" fill="#7f00ff"/>
 </g>
</svg>
