<svg width="640.0000000000001" height="480.00000000000006" xmlns="http://www.w3.org/2000/svg" xmlns:svg="http://www.w3.org/2000/svg" xmlns:xlink="http://www.w3.org/1999/xlink">
 <!-- Created with SVG-edit - http://svg-edit.googlecode.com/ -->
 <defs>
  <linearGradient spreadMethod="reflect" y2="0" x2="0.97919" y1="0.99609" x1="0" id="svg_81">
   <stop offset="0.35419" stop-color="#ffc896"/>
   <stop offset="0.63544" stop-opacity="0" stop-color="0"/>
   <stop offset="0.88153" stop-color="#ffc896"/>
   <stop offset="1" stop-opacity="0" stop-color="0"/>
  </linearGradient>
  <linearGradient spreadMethod="reflect" y2="0" x2="0.02081" y1="0.99609" x1="1" id="svg_90">
   <stop offset="0.26044" stop-opacity="0" stop-color="0"/>
   <stop offset="0.35419" stop-color="#ffc896"/>
   <stop offset="0.88153" stop-color="#ffc896"/>
   <stop offset="1" stop-opacity="0" stop-color="0"/>
  </linearGradient>
  <pattern id="gridpattern" patternUnits="userSpaceOnUse" x="0" y="0" width="100" height="100">
   <image id="svg_6" x="0" y="0" width="100" height="100"/>
  </pattern>
 </defs>
 <g>
  <title>Layer 1</title>
  <circle fill="#848383" stroke-width="0" cx="268.29169" cy="237.68749" r="145.37498" id="svg_45" stroke="#000000"/>
  <ellipse fill="#00ffff" stroke-width="0" stroke-dasharray="null" stroke-linejoin="null" stroke-linecap="null" cx="308.9601" cy="262.3537" id="svg_37" rx="243.81845" ry="190.98703" transform="rotate(0.964017927646637 308.9600830078162,262.353729248046) " stroke="#545454"/>
  <ellipse fill="#7cf9f9" stroke-width="0" stroke-dasharray="null" stroke-linejoin="null" stroke-linecap="null" cx="311.68865" cy="265.58917" rx="243.36496" ry="191.63396" id="svg_38" transform="rotate(4.241243362426758 311.6886596679677,265.58917236328085) " stroke="#545454"/>
  <circle fill="#ffffff" stroke-width="0" cx="248.06251" cy="241.27082" r="137.375" id="svg_1" stroke="#000000"/>
  <image transform="rotate(89.8905029296875 247.03279113769528,248.64982604980472) " xlink:href="https://upload.wikimedia.org/wikipedia/commons/7/70/Golf.png" opacity="0.8" id="svg_69" height="325.99999" width="387.99998" y="85.64982" x="53.03281"/>
  <circle transform="rotate(11.460444450378418 243.01045227050756,242.17056274414065) " fill="none" stroke-width="20" stroke-dasharray="null" stroke-linejoin="null" stroke-linecap="null" cx="243.01045" cy="242.17057" r="142.56653" id="svg_2" stroke="#77f9f9"/>
  <ellipse fill="#646664" stroke-width="0" stroke-dasharray="null" stroke-linejoin="null" stroke-linecap="null" cx="307.49999" cy="443" rx="135.50002" ry="13" id="svg_21" stroke="#545454"/>
  <ellipse fill="#00ff00" stroke-width="0" stroke-dasharray="null" stroke-linejoin="null" stroke-linecap="null" cx="305.29864" cy="437.75641" id="svg_20" rx="140.50001" ry="13" stroke="#000000"/>
  <path id="svg_4" fill="#898888" stroke-width="0" stroke-dasharray="null" stroke-linejoin="null" stroke-linecap="null" d="m298.33577,333.27659l4.98325,-4.12503l7.04747,0l4.98325,4.12503l0,5.83374l-4.98325,4.12503l-7.04747,0l-4.98325,-4.12503l0,-5.83374z" transform="rotate(-19.10797691345215 306.8427429199215,336.19348144531233) " stroke="#000000"/>
  <path id="svg_5" fill="#898888" stroke-width="0" stroke-dasharray="null" stroke-linejoin="null" stroke-linecap="null" d="m264.58577,361.96409l4.98325,-4.12503l7.04747,0l4.98325,4.12503l0,5.83374l-4.98325,4.12503l-7.04747,0l-4.98325,-4.12503l0,-5.83374z" transform="rotate(-19.10797691345215 273.09274291992165,364.8809814453124) " stroke="#000000"/>
  <ellipse id="svg_18" fill="#ffffff" stroke-width="0" stroke-dasharray="null" stroke-linejoin="null" stroke-linecap="null" cx="271.9269" cy="356.87398" rx="7.63401" ry="8.93841" transform="rotate(39.98685836791992 271.92687988281256,356.8739929199219) " stroke="#000000"/>
  <path stroke="#000000" transform="rotate(0.13794632256031036 348.2775878906821,441.50207519531705) " id="svg_79" opacity="0.3" d="m265.33313,442.19059l82.94435,2.22803l82.94454,-2.22803l-31.68185,-3.60504l-102.52509,0l-31.68194,3.60504l0.00001,0l-0.00001,0l-0.00001,0z" stroke-linecap="null" stroke-linejoin="null" stroke-dasharray="null" stroke-width="0" fill="url(#svg_81)"/>
  <circle transform="rotate(10.445972442626953 240.31132507324216,240.67596435546884) " fill="#ffffff" stroke-width="0" stroke-dasharray="null" stroke-linejoin="null" stroke-linecap="null" cx="240.31132" cy="240.67598" r="131.90399" id="svg_3" opacity="0.4" stroke="#545454"/>
  <path id="svg_72" d="m234.22804,359.96349l109.45126,-50.92876l109.45152,50.92876l-41.80657,82.40482l-135.28952,0l-41.80669,-82.40482l0.00001,0l-0.00001,0z" stroke-linecap="null" stroke-linejoin="null" stroke-dasharray="null" stroke-width="0" fill="#ffc896" stroke="#000000"/>
  <rect transform="rotate(-26.165103912353516 285.81552124023443,335.1605834960938) " id="svg_25" height="6.05002" width="129.45506" y="332.13555" x="221.088" stroke-linecap="null" stroke-linejoin="null" stroke-dasharray="null" fill="#ed984e" stroke="#000000"/>
  <rect id="svg_26" transform="rotate(25.865459442138672 401.64636230468756,335.87567138671875) " height="6.05002" width="134.54713" y="332.85065" x="334.37281" stroke-linecap="null" stroke-linejoin="null" stroke-dasharray="null" fill="#ed984e" stroke="#000000"/>
  <polygon transform="rotate(-13.222352027893066 207.66557312011722,418.8749999999999) " stroke="#000000" stroke-width="0" points="214.67059326171875,418.875 209.31922912597656,440.8760681152344 200.66055297851562,432.472412109375 200.66055297851562,405.277587890625 209.31922912597656,396.87396240234375 214.67059326171875,418.875 " fill="#aa4c00" id="svg_27"/>
  <polygon id="svg_28" transform="rotate(-177.86251831054688 205.4155731201172,366.375) " stroke="#000000" stroke-width="0" points="212.42059326171875,366.375 207.06922912597656,388.3760681152344 198.41055297851562,379.972412109375 198.41055297851562,352.777587890625 207.06922912597656,344.37396240234375 212.42059326171875,366.375 " fill="#aa4c00"/>
  <polygon stroke="#000000" id="svg_29" transform="rotate(176.8663787841797 205.4155731201172,391.8749999999999) " stroke-width="0" points="212.42059326171875,391.875 207.06922912597656,413.8760681152344 198.41055297851562,405.472412109375 198.41055297851562,378.277587890625 207.06922912597656,369.87396240234375 212.42059326171875,391.875 " fill="#aa4c00"/>
  <polygon id="svg_30" transform="rotate(-177.86251831054688 205.41557312011722,345.37500000000006) " stroke="#000000" stroke-width="0" points="212.42059326171875,345.375 207.06922912597656,367.3760681152344 198.41055297851562,358.972412109375 198.41055297851562,331.777587890625 207.06922912597656,323.37396240234375 212.42059326171875,345.375 " fill="#aa4c00"/>
  <polygon stroke="#000000" id="svg_31" transform="rotate(-2.0029456615448 209.99014282226432,351.0240783691403) " stroke-width="0" points="216.9951629638672,351.0240783691406 211.643798828125,370.0664367675781 202.98512268066406,362.79290771484375 202.98512268066406,339.2552490234375 211.643798828125,331.9817199707031 216.9951629638672,351.0240783691406 " fill="#aa4c00"/>
  <path id="svg_32" d="m196.25002,318.75c0,0 -36.75,-43.5 -75.75,-30.75c-39,12.75 -48,29.25 -48.50002,29.25c-0.50002,0 84.50002,-36 84,-36c-0.50002,0 40.25002,37.5 40.25002,37.5z" stroke-linecap="null" stroke-linejoin="null" stroke-dasharray="null" stroke-width="0" stroke="#000000" fill="#1ba01b"/>
  <path transform="rotate(21.42464256286621 154.3739013671878,286.49999999999994) " id="svg_33" d="m216.50002,305.25c0,0 -36.75,-43.5 -75.75,-30.75c-39,12.75 -48,29.25 -48.50002,29.25c-0.50002,0 84.50002,-36 84,-36c-0.50002,0 40.25002,37.5 40.25002,37.5z" stroke-linecap="null" stroke-linejoin="null" stroke-dasharray="null" stroke-width="0" stroke="#000000" fill="#1dad1d"/>
  <path id="svg_34" transform="rotate(59.384376525878906 185.12390136718741,278.25000000000006) " d="m247.25002,297c0,0 -36.75,-43.5 -75.75,-30.75c-39,12.75 -48,29.25 -48.50002,29.25c-0.50002,0 84.50002,-36 84,-36c-0.50002,0 40.25002,37.5 40.25002,37.5z" stroke-linecap="null" stroke-linejoin="null" stroke-dasharray="null" stroke-width="0" stroke="#000000" fill="#0d960d"/>
  <path stroke="#000000" id="svg_35" transform="rotate(145.2699737548828 246.96511840820315,282.0451049804688) " d="m309.09122,265.53933c0,0 -36.75,38.29336 -75.75,27.06945c-39,-11.22392 -48,-25.74899 -48.50002,-25.74899c-0.50002,0 84.50002,31.69106 84,31.69106c-0.50002,0 40.25002,-33.01152 40.25002,-33.01152z" stroke-linecap="null" stroke-linejoin="null" stroke-dasharray="null" stroke-width="0" fill="#109610"/>
  <path id="svg_36" stroke="#000000" transform="rotate(163.76194763183594 261.2151184082031,300.04510498046875) " d="m323.34122,283.53933c0,0 -36.75,38.29337 -75.75,27.06945c-39,-11.22392 -48,-25.74899 -48.50002,-25.74899c-0.50002,0 84.50002,31.69106 84,31.69106c-0.50002,0 40.25002,-33.01152 40.25002,-33.01152z" stroke-linecap="null" stroke-linejoin="null" stroke-dasharray="null" stroke-width="0" fill="#139313"/>
  <ellipse fill="#ffffff" stroke="#000000" stroke-dasharray="null" stroke-linejoin="null" stroke-linecap="null" cx="477.33333" cy="246.66667" id="svg_39" rx="34.66667" ry="14.66667" opacity="0.95" stroke-width="0"/>
  <ellipse fill="#ffffff" stroke-dasharray="null" stroke-linejoin="null" stroke-linecap="null" cx="503.33333" cy="237.33333" rx="27.33333" ry="14.66667" opacity="0.95" stroke-width="0" id="svg_40" stroke="#000000"/>
  <ellipse fill="#ffffff" stroke-dasharray="null" stroke-linejoin="null" stroke-linecap="null" cx="485.99999" cy="257.33333" rx="64.66666" ry="14.66667" opacity="0.95" stroke-width="0" id="svg_41" stroke="#000000"/>
  <rect fill="#ff0000" stroke-width="0.1" stroke-dasharray="null" stroke-linejoin="null" stroke-linecap="null" opacity="0.2" x="331.59804" y="380.90021" width="22.46355" height="48.18099" id="svg_42" stroke="#000000"/>
  <rect fill="#aad4ff" stroke-width="0" stroke-dasharray="null" stroke-linejoin="null" stroke-linecap="null" opacity="0.6" x="327.92154" y="429.2207" width="28.92514" height="5.68326" id="svg_43" stroke="#000000"/>
  <rect fill="#aad4ff" stroke-width="0" stroke-dasharray="null" stroke-linejoin="null" stroke-linecap="null" opacity="0.6" x="327.06283" y="433.33334" width="30.11166" height="6.66666" id="svg_47" stroke="#000000"/>
  <rect fill="#aad4ff" stroke-width="0" stroke-dasharray="null" stroke-linejoin="null" stroke-linecap="null" opacity="0.5" x="326.97233" y="437.33334" width="31.53548" height="6.66666" id="svg_48" stroke="#000000"/>
  <path stroke="#000000" fill="#ffffaa" stroke-width="0" stroke-dasharray="null" stroke-linejoin="null" stroke-linecap="null" opacity="0.6" d="m319.57692,449.73597l8.4095,-7.29713l28.03166,0l8.40949,7.29713l-44.85065,0z" id="svg_68"/>
  <rect id="svg_44" fill="#ff0000" stroke-width="0" stroke-dasharray="null" stroke-linejoin="null" stroke-linecap="null" opacity="0.3" x="268.60246" y="377.50323" width="56.89778" height="25.91667" stroke="#000000"/>
  <ellipse stroke="#000000" ry="8.03711" rx="8.50781" id="svg_82" cy="437.18436" cx="211.86669" opacity="0.3" stroke-linecap="null" stroke-linejoin="null" stroke-dasharray="null" stroke-width="0" fill="url(#svg_81)"/>
  <path stroke="#000000" transform="rotate(17.79402732849121 202.8584136962891,335.46789550781244) " id="svg_88" d="m204.30498,346.02618l-0.54246,-21.11658l-1.8082,0l-0.54246,21.11658l2.89312,0z" opacity="0.1" stroke-linecap="null" stroke-linejoin="null" stroke-dasharray="null" stroke-width="0" fill="#000000"/>
  <path stroke="#000000" id="svg_89" transform="rotate(172.3258056640625 200.55720520019528,390.707763671875) " d="m202.76315,400.65125l-0.82723,-19.88699l-2.75743,0l-0.82723,19.88699l4.41189,0z" opacity="0.1" stroke-linecap="null" stroke-linejoin="null" stroke-dasharray="null" stroke-width="0" fill="url(#svg_90)"/>
  <path stroke="#000000" id="svg_97" transform="rotate(17.79402732849121 208.79760742187545,348.9875488281249) " d="m209.48959,359.54584l-0.25949,-21.11658l-0.86498,0l-0.25949,21.11658l1.38397,0l-0.00001,0z" opacity="0.1" stroke-linecap="null" stroke-linejoin="null" stroke-dasharray="null" stroke-width="0" fill="#000000"/>
  <path stroke="#000000" id="svg_98" transform="rotate(-25.18406867980957 201.7857055664063,351.05581665039057) " d="m202.69004,356.55652l-0.33913,-11.00141l-1.13041,0l-0.33912,11.00141l1.80866,0z" opacity="0.1" stroke-linecap="null" stroke-linejoin="null" stroke-dasharray="null" stroke-width="0" fill="#000000"/>
  <path stroke="#000000" id="svg_99" transform="rotate(-22.95184326171875 204.40747070312497,365.3615722656251) " d="m204.70249,370.41843l-0.11063,-10.11371l-0.36877,0l-0.11063,10.11371l0.59004,0l-0.00001,0z" opacity="0.1" stroke-linecap="null" stroke-linejoin="null" stroke-dasharray="null" stroke-width="0" fill="#000000"/>
  <path id="svg_100" stroke="#000000" transform="rotate(27.392704010009766 207.07714843749991,368.03125) " d="m207.37217,373.08811l-0.11064,-10.11371l-0.36877,0l-0.11063,10.11371l0.59004,0z" opacity="0.1" stroke-linecap="null" stroke-linejoin="null" stroke-dasharray="null" stroke-width="0" fill="#000000"/>
  <path id="svg_101" stroke="#000000" transform="rotate(-11.839466094970703 200.13598632812517,371.5018310546876) " d="m200.43101,376.55869l-0.11064,-10.11371l-0.36877,0l-0.11063,10.11371l0.59004,0z" opacity="0.1" stroke-linecap="null" stroke-linejoin="null" stroke-dasharray="null" stroke-width="0" fill="#000000"/>
  <polygon stroke="#000000" id="svg_102" transform="rotate(-13.222352027893066 213.71684265136696,418.4300842285155) " stroke-width="0" points="219.27472397891808,418.43005502551966 215.02888187565924,440.4969064972378 208.1589752849589,432.0681234977295 208.1589752849589,404.7919865533098 215.02888187565924,396.36323416262746 219.27472397891808,418.43005502551966 " fill="#aa4c00"/>
  <path stroke="#000000" id="svg_104" d="m213.64183,439.62288l1.10124,-11.21265l3.67081,0l1.10124,11.21265l-5.87329,0z" stroke-linecap="null" stroke-linejoin="null" stroke-dasharray="null" stroke-width="0" fill="#aa4c00"/>
  <path stroke="#000000" id="svg_105" transform="rotate(173.85646057128906 230.04025268554688,316.32061767578125) " d="m255.71967,299.81484c0,0 -15.19037,38.29337 -31.31076,27.06945c-16.12039,-11.22392 -19.84048,-25.74899 -20.04716,-25.74899c-0.20668,0 34.92752,31.69106 34.72084,31.69106c-0.20668,0 16.63708,-33.01152 16.63708,-33.01152z" stroke-linecap="null" stroke-linejoin="null" stroke-dasharray="null" stroke-width="0" fill="#007f00"/>
  <path stroke="#000000" id="svg_106" transform="rotate(173.85646057128906 176.357421875,316.1712036132812) " d="m150.87265,299.66544c0,0 15.07523,38.29337 31.07342,27.06945c15.9982,-11.22392 19.69009,-25.74899 19.8952,-25.74899c0.20511,0 -34.66277,31.69106 -34.45765,31.69106c0.20511,0 -16.51097,-33.01152 -16.51097,-33.01152z" stroke-linecap="null" stroke-linejoin="null" stroke-dasharray="null" stroke-width="0" fill="#007f00"/>
  <ellipse ry="1.40158" rx="1.00113" id="svg_107" cy="406.6741" cx="351.42559" opacity="0.5" stroke-linecap="null" stroke-linejoin="null" stroke-dasharray="null" stroke-width="0.4" stroke="#000000" fill="#ffffff"/>
  <rect id="svg_108" height="18.1019" width="12.31389" y="384.43529" x="336.16394" opacity="0.2" stroke-linecap="null" stroke-linejoin="null" stroke-dasharray="null" stroke-width="0" fill="#ff0000" stroke="#000000"/>
  <rect id="svg_109" height="15.01694" width="12.7885" y="409.91479" x="335.92663" opacity="0.2" stroke-linecap="null" stroke-linejoin="null" stroke-dasharray="null" stroke-width="0" fill="#ff0000" stroke="#000000"/>
  <rect stroke="#000000" id="svg_111" fill="#aad4ff" stroke-width="0" stroke-dasharray="null" stroke-linejoin="null" stroke-linecap="null" opacity="0.5" x="326.55045" y="438.17709" width="31.53548" height="4.13541"/>
  <rect stroke="#000000" id="svg_112" height="14.79168" width="0.52561" y="410.14004" x="336.10092" opacity="0.2" stroke-linecap="null" stroke-linejoin="null" stroke-dasharray="null" stroke-width="0" fill="#ff7f00"/>
  <rect stroke="#000000" transform="rotate(89.65928649902344 342.40673828125,409.9918823242188) " id="svg_113" height="12.5396" width="0.52428" y="403.72209" x="342.1446" opacity="0.2" stroke-linecap="null" stroke-linejoin="null" stroke-dasharray="null" stroke-width="0" fill="#ff7f00"/>
  <path stroke="#545454" transform="rotate(19.890623092651367 322.12332153320295,437.9639282226563) " id="svg_119" d="m322.30341,444.69881c0,0 1.5834,-10.25377 -0.2436,-13.12483c-1.827,-2.87106 0.2436,13.12483 0.2436,13.12483z" stroke-linecap="null" stroke-linejoin="null" stroke-dasharray="null" stroke-width="0" fill="#41e241"/>
  <path stroke="#545454" id="svg_115" d="m319.46185,443.76408c0,0 2.49274,-10.25378 -0.3835,-13.12483c-2.87624,-2.87106 0.3835,13.12483 0.3835,13.12483z" stroke-linecap="null" stroke-linejoin="null" stroke-dasharray="null" stroke-width="0" fill="#13af13"/>
  <path stroke="#545454" transform="rotate(9.092625617980957 321.0383911132805,437.0670776367187) " id="svg_116" d="m321.38339,443.80196c0,0 3.03339,-10.25377 -0.46668,-13.12483c-3.50006,-2.87106 0.46668,13.12483 0.46668,13.12483z" stroke-linecap="null" stroke-linejoin="null" stroke-dasharray="null" stroke-width="0" fill="#1fd31f"/>
  <path stroke="#545454" transform="rotate(-20.825725555419922 317.52416992187494,436.9911804199218) " id="svg_120" d="m317.71647,443.72606c0,0 1.69077,-10.25377 -0.26012,-13.12483c-1.95089,-2.87106 0.26012,13.12483 0.26012,13.12483z" stroke-linecap="null" stroke-linejoin="null" stroke-dasharray="null" stroke-width="0" fill="#41e241"/>
  <path stroke="#545454" transform="rotate(-32.82950210571289 316.13955688476585,437.79971313476574) " id="svg_117" d="m316.32324,444.53461c0,0 1.61531,-10.25377 -0.24851,-13.12483c-1.86382,-2.87106 0.24851,13.12483 0.24851,13.12483z" stroke-linecap="null" stroke-linejoin="null" stroke-dasharray="null" stroke-width="0" fill="#50b750"/>
  <path stroke="#545454" transform="rotate(27.25311851501465 323.36474609375006,438.3489990234375) " id="svg_118" d="m323.52777,444.01085c0,0 1.4332,-8.62013 -0.22049,-11.03377c-1.65369,-2.41364 0.22049,11.03377 0.22049,11.03377z" stroke-linecap="null" stroke-linejoin="null" stroke-dasharray="null" stroke-width="0" fill="#5edb5e"/>
  <path id="svg_131" stroke="#545454" transform="rotate(19.890623092651367 320.02093505859403,438.86492919921875) " d="m320.20104,445.59983c0,0 1.58341,-10.25377 -0.2436,-13.12483c-1.827,-2.87106 0.2436,13.12483 0.2436,13.12483z" stroke-linecap="null" stroke-linejoin="null" stroke-dasharray="null" stroke-width="0" fill="#41e241"/>
  <path stroke="#545454" id="svg_132" d="m317.35948,444.6651c0,0 2.49274,-10.25377 -0.3835,-13.12483c-2.87624,-2.87106 0.3835,13.12483 0.3835,13.12483z" stroke-linecap="null" stroke-linejoin="null" stroke-dasharray="null" stroke-width="0" fill="#13af13"/>
  <path id="svg_133" stroke="#545454" transform="rotate(9.092625617980957 318.9360046386715,437.9680786132812) " d="m319.28102,444.70298c0,0 3.03338,-10.25377 -0.46668,-13.12483c-3.50006,-2.87106 0.46668,13.12483 0.46668,13.12483z" stroke-linecap="null" stroke-linejoin="null" stroke-dasharray="null" stroke-width="0" fill="#1fd31f"/>
  <path id="svg_134" stroke="#545454" transform="rotate(-20.825725555419922 315.4218139648438,437.89221191406244) " d="m315.6141,444.62708c0,0 1.69077,-10.25377 -0.26012,-13.12483c-1.95089,-2.87106 0.26012,13.12483 0.26012,13.12483z" stroke-linecap="null" stroke-linejoin="null" stroke-dasharray="null" stroke-width="0" fill="#41e241"/>
  <path id="svg_135" stroke="#545454" transform="rotate(-32.82950210571289 314.03717041015636,438.70074462890625) " d="m314.22087,445.43563c0,0 1.61532,-10.25377 -0.24851,-13.12483c-1.86382,-2.87106 0.24851,13.12483 0.24851,13.12483z" stroke-linecap="null" stroke-linejoin="null" stroke-dasharray="null" stroke-width="0" fill="#50b750"/>
  <path id="svg_136" stroke="#545454" transform="rotate(27.25311851501465 322.3635864257816,438.44909667968744) " d="m322.52664,444.11096c0,0 1.4332,-8.62013 -0.22049,-11.03377c-1.65369,-2.41364 0.22049,11.03377 0.22049,11.03377z" stroke-linecap="null" stroke-linejoin="null" stroke-dasharray="null" stroke-width="0" fill="#5edb5e"/>
  <rect fill="#00ffff" stroke-width="0" stroke-dasharray="null" stroke-linejoin="null" stroke-linecap="null" opacity="0.65" x="281.38836" y="378.05082" width="32.85676" height="24.59143" id="svg_49" transform="rotate(0.03678214177489281 297.81674194331305,390.3465270996729) " stroke="#000000"/>
  <rect id="svg_67" fill="#ff0000" stroke-width="0" stroke-dasharray="null" stroke-linejoin="null" stroke-linecap="null" opacity="0.3" x="363.1757" y="377.21705" width="60.02083" height="25.91667" stroke="#000000"/>
  <rect fill="#00ffff" stroke-width="0" stroke-dasharray="null" stroke-linejoin="null" stroke-linecap="null" opacity="0.6" x="372.42253" y="377.78353" width="40.75813" height="25.00554" id="svg_51" stroke="#000000" transform="rotate(-0.1676539182662964 392.8016052245479,390.2863159179677) "/>
  <rect transform="rotate(62.64728546142578 341.20333862304676,307.93200683593756) " height="5.37782" width="4.84576" y="305.24311" x="338.78045" stroke-linecap="null" stroke-linejoin="null" stroke-dasharray="null" fill="#ed984e" id="svg_23" stroke-width="0" stroke="#000000"/>
  <ellipse stroke="#545454" ry="6.88184" rx="8.06836" id="svg_7" cy="437.65722" cx="276.47067" stroke-linecap="null" stroke-linejoin="null" stroke-dasharray="null" stroke-width="0" fill="#118e11"/>
  <ellipse id="svg_8" stroke="#545454" ry="6.88184" rx="8.06836" cy="437.89453" cx="285.48825" stroke-linecap="null" stroke-linejoin="null" stroke-dasharray="null" stroke-width="0" fill="#309930"/>
  <ellipse id="svg_9" stroke="#545454" ry="6.88184" rx="8.06836" cy="438.13183" cx="295.45504" stroke-linecap="null" stroke-linejoin="null" stroke-dasharray="null" stroke-width="0" fill="#258e25"/>
  <ellipse stroke="#545454" id="svg_10" ry="6.88184" rx="8.06836" cy="438.21972" cx="410.34567" stroke-linecap="null" stroke-linejoin="null" stroke-dasharray="null" stroke-width="0" fill="#259b25"/>
  <ellipse id="svg_11" stroke="#545454" ry="6.88184" rx="8.06836" cy="438.21972" cx="400.22067" stroke-linecap="null" stroke-linejoin="null" stroke-dasharray="null" stroke-width="0" fill="#1a991a"/>
  <ellipse id="svg_12" stroke="#545454" ry="6.88184" rx="8.06836" cy="438.78222" cx="391.22067" stroke-linecap="null" stroke-linejoin="null" stroke-dasharray="null" stroke-width="0" fill="#209920"/>
  <rect opacity="0.5" stroke="#000000" id="svg_13" height="19.69629" width="0.47461" y="380.55578" x="270.93851" stroke-linecap="null" stroke-linejoin="null" stroke-dasharray="null" stroke-width="0" fill="#ffffaa"/>
  <rect stroke="#000000" opacity="0.5" id="svg_14" height="19.69629" width="0.74158" y="380.36297" x="272.27334" stroke-linecap="null" stroke-linejoin="null" stroke-dasharray="null" stroke-width="0" fill="#ffffaa"/>
  <rect opacity="0.5" id="svg_15" stroke="#000000" height="19.69629" width="0.47461" y="380.30364" x="274.77988" stroke-linecap="null" stroke-linejoin="null" stroke-dasharray="null" stroke-width="0" fill="#ffffaa"/>
  <rect id="svg_16" opacity="0.5" stroke="#000000" height="19.69629" width="0.47461" y="380.57061" x="276.51517" stroke-linecap="null" stroke-linejoin="null" stroke-dasharray="null" stroke-width="0" fill="#ffffaa"/>
  <rect id="svg_17" opacity="0.5" stroke="#000000" height="19.69629" width="0.47461" y="380.57061" x="278.91788" stroke-linecap="null" stroke-linejoin="null" stroke-dasharray="null" stroke-width="0" fill="#ffffaa"/>
  <rect id="svg_19" opacity="0.5" stroke="#000000" height="19.69629" width="0.47461" y="380.95623" x="315.65561" stroke-linecap="null" stroke-linejoin="null" stroke-dasharray="null" stroke-width="0" fill="#ffffaa"/>
  <rect id="svg_22" stroke="#000000" opacity="0.5" height="19.69629" width="0.74158" y="380.76342" x="316.99045" stroke-linecap="null" stroke-linejoin="null" stroke-dasharray="null" stroke-width="0" fill="#ffffaa"/>
  <rect id="svg_24" opacity="0.5" stroke="#000000" height="19.69629" width="0.47461" y="380.7041" x="319.49698" stroke-linecap="null" stroke-linejoin="null" stroke-dasharray="null" stroke-width="0" fill="#ffffaa"/>
  <rect id="svg_46" opacity="0.5" stroke="#000000" height="19.69629" width="0.47461" y="380.97106" x="321.23227" stroke-linecap="null" stroke-linejoin="null" stroke-dasharray="null" stroke-width="0" fill="#ffffaa"/>
  <rect id="svg_50" opacity="0.5" stroke="#000000" height="19.69629" width="0.47461" y="380.97106" x="323.63498" stroke-linecap="null" stroke-linejoin="null" stroke-dasharray="null" stroke-width="0" fill="#ffffaa"/>
  <path stroke="#000000" id="svg_52" transform="rotate(-8.817418098449707 202.92460632324233,392.48065185546864) " d="m203.61659,398.7835l-0.25949,-12.6057l-0.86498,0l-0.25949,12.6057l1.38397,0l-0.00001,0z" opacity="0.1" stroke-linecap="null" stroke-linejoin="null" stroke-dasharray="null" stroke-width="0" fill="#000000"/>
  <path stroke="#000000" id="svg_53" transform="rotate(-169.47279357910156 205.05297851562497,387.20922851562494) " d="m205.74495,394.77048l-0.25949,-15.12254l-0.86498,0l-0.25949,15.12254l1.38397,0l-0.00001,0z" opacity="0.1" stroke-linecap="null" stroke-linejoin="null" stroke-dasharray="null" stroke-width="0" fill="#000000"/>
  <rect id="svg_54" stroke="#000000" opacity="0.5" height="19.69629" width="0.74158" y="381.51427" x="363.91838" stroke-linecap="null" stroke-linejoin="null" stroke-dasharray="null" stroke-width="0" fill="#ffffaa"/>
  <rect id="svg_55" opacity="0.5" stroke="#000000" height="19.69629" width="0.47461" y="381.45494" x="366.42491" stroke-linecap="null" stroke-linejoin="null" stroke-dasharray="null" stroke-width="0" fill="#ffffaa"/>
  <rect id="svg_56" opacity="0.5" stroke="#000000" height="19.69629" width="0.47461" y="381.72191" x="368.1602" stroke-linecap="null" stroke-linejoin="null" stroke-dasharray="null" stroke-width="0" fill="#ffffaa"/>
  <rect id="svg_57" opacity="0.5" stroke="#000000" height="19.69629" width="0.47461" y="381.72191" x="370.56291" stroke-linecap="null" stroke-linejoin="null" stroke-dasharray="null" stroke-width="0" fill="#ffffaa"/>
  <rect id="svg_58" stroke="#000000" opacity="0.5" height="19.69629" width="0.74158" y="380.98033" x="414.77574" stroke-linecap="null" stroke-linejoin="null" stroke-dasharray="null" stroke-width="0" fill="#ffffaa"/>
  <rect id="svg_59" opacity="0.5" stroke="#000000" height="19.69629" width="0.47461" y="380.92101" x="417.28227" stroke-linecap="null" stroke-linejoin="null" stroke-dasharray="null" stroke-width="0" fill="#ffffaa"/>
  <rect id="svg_60" opacity="0.5" stroke="#000000" height="19.69629" width="0.47461" y="381.18797" x="419.01756" stroke-linecap="null" stroke-linejoin="null" stroke-dasharray="null" stroke-width="0" fill="#ffffaa"/>
  <rect id="svg_61" opacity="0.5" stroke="#000000" height="19.69629" width="0.47461" y="381.18797" x="421.42027" stroke-linecap="null" stroke-linejoin="null" stroke-dasharray="null" stroke-width="0" fill="#ffffaa"/>
  <rect fill="#154a7f" stroke-width="0" stroke-dasharray="null" stroke-linejoin="null" stroke-linecap="null" opacity="0.3" x="328.0146" y="435.13617" width="28.66349" height="2.05181" id="svg_62" stroke="#000000"/>
  <rect fill="#154a7f" stroke-width="0" stroke-dasharray="null" stroke-linejoin="null" stroke-linecap="null" opacity="0.3" x="328.57774" y="431.41948" width="27.64985" height="2.05181" id="svg_63" stroke="#000000"/>
  <rect fill="#154a7f" stroke-width="0" stroke-dasharray="null" stroke-linejoin="null" stroke-linecap="null" opacity="0.3" x="327.74763" y="439.54114" width="29.33091" height="2.45226" id="svg_64" stroke="#000000"/>
 </g>
</svg>
