<svg width="640" height="480" xmlns="http://www.w3.org/2000/svg" xmlns:svg="http://www.w3.org/2000/svg">
 <!-- Created with SVG-edit - http://svg-edit.googlecode.com/ -->
 <g>
  <title>Layer 1</title>
  <circle fill="#474545" stroke-width="0" cx="252.62502" cy="249.62499" r="145.37498" id="svg_45" stroke="#000000"/>
  <circle fill="#ffffff" stroke-width="0" cx="248.12501" cy="242.12499" r="137.375" id="svg_1" stroke="#000000"/>
  <circle fill="#ffffff" stroke-width="0" cx="251.87893" cy="247.29686" r="144.875" id="svg_46" opacity="0.5" stroke="#000000"/>
  <path fill="#898888" stroke-width="0" stroke-dasharray="null" stroke-linejoin="null" stroke-linecap="null" d="m132.53889,176.76097l4.98325,-4.12503l7.04747,0l4.98325,4.12503l0,5.83374l-4.98325,4.12503l-7.04747,0l-4.98325,-4.12503l0,-5.83374z" id="svg_50" transform="rotate(-19.10797691345215 141.04586791992185,179.67784118652344) " stroke="#000000"/>
  <ellipse fill="#ffffff" stroke-width="0" stroke-dasharray="null" stroke-linejoin="null" stroke-linecap="null" cx="146.37247" cy="175.87998" id="svg_52" rx="7.63401" ry="10.77357" transform="rotate(49.22768783569336 146.37246704101565,175.87997436523438) " stroke="#000000"/>
  <path fill="#898888" stroke-width="0" stroke-dasharray="null" stroke-linejoin="null" stroke-linecap="null" d="m122.41389,199.54222l4.98325,-4.12503l7.04747,0l4.98325,4.12503l0,5.83374l-4.98325,4.12503l-7.04747,0l-4.98325,-4.12503l0,-5.83374z" transform="rotate(-19.10797691345215 130.9208831787108,202.45909118652338) " stroke="#000000" id="svg_53"/>
  <path fill="#898888" stroke-width="0" stroke-dasharray="null" stroke-linejoin="null" stroke-linecap="null" d="m116.40218,234.97971l4.98325,-4.12502l7.04747,0l4.98325,4.12502l0,5.83374l-4.98325,4.12504l-7.04747,0l-4.98325,-4.12504l0,-5.83374z" transform="rotate(-19.10797691345215 124.90916442871075,237.89659118652338) " stroke="#000000" id="svg_54"/>
  <path fill="#898888" stroke-width="0" stroke-dasharray="null" stroke-linejoin="null" stroke-linecap="null" d="m128.42561,281.80784l4.98325,-4.12502l7.04747,0l4.98325,4.12502l0,5.83375l-4.98325,4.12503l-7.04747,0l-4.98325,-4.12503l0,-5.83375z" transform="rotate(-19.10797691345215 136.9326019287106,284.72473144531244) " stroke="#000000" id="svg_55"/>
  <path fill="#898888" stroke-width="0" stroke-dasharray="null" stroke-linejoin="null" stroke-linecap="null" d="m152.78889,326.42113l4.98325,-4.12502l7.04747,0l4.98325,4.12502l0,5.83374l-4.98325,4.12504l-7.04747,0l-4.98325,-4.12504l0,-5.83374z" transform="rotate(-19.10797691345215 161.29588317871048,329.3380126953125) " stroke="#000000" id="svg_56"/>
  <path fill="#898888" stroke-width="0" stroke-dasharray="null" stroke-linejoin="null" stroke-linecap="null" d="m138.67952,217.02659l4.98325,-4.12502l7.04747,0l4.98325,4.12502l0,5.83375l-4.98325,4.12503l-7.04747,0l-4.98325,-4.12503l0,-5.83375z" transform="rotate(-19.10797691345215 147.18650817871068,219.9434661865233) " stroke="#000000" id="svg_57"/>
  <path fill="#898888" stroke-width="0" stroke-dasharray="null" stroke-linejoin="null" stroke-linecap="null" d="m158.13264,296.85471l4.98325,-4.12502l7.04747,0l4.98325,4.12502l0,5.83374l-4.98325,4.12504l-7.04747,0l-4.98325,-4.12504l0,-5.83374z" transform="rotate(-19.10797691345215 166.63961791992142,299.7715759277343) " stroke="#000000" id="svg_58"/>
  <path fill="#898888" stroke-width="0" stroke-dasharray="null" stroke-linejoin="null" stroke-linecap="null" d="m141.96077,251.99534l4.98325,-4.12502l7.04747,0l4.98325,4.12502l0,5.83375l-4.98325,4.12503l-7.04747,0l-4.98325,-4.12503l0,-5.83375z" transform="rotate(-19.10797691345215 150.46775817871094,254.91221618652338) " stroke="#000000" id="svg_59"/>
  <ellipse fill="#ffffff" stroke-width="0" stroke-dasharray="null" stroke-linejoin="null" stroke-linecap="null" cx="135.02065" cy="198.95601" rx="7.63401" ry="8.93841" transform="rotate(39.98685836791992 135.02064514160165,198.95600891113278) " id="svg_60" stroke="#000000"/>
  <ellipse fill="#ffffff" stroke-width="0" stroke-dasharray="null" stroke-linejoin="null" stroke-linecap="null" cx="127.72768" cy="235.35836" rx="7.63401" ry="8.93841" transform="rotate(39.98685836791992 127.72767639160152,235.35835266113284) " stroke="#000000" id="svg_61"/>
  <ellipse fill="#ffffff" stroke-width="0" stroke-dasharray="null" stroke-linejoin="null" stroke-linecap="null" cx="150.30971" cy="217.44039" rx="7.63401" ry="8.93841" transform="rotate(39.98685836791992 150.30970764160156,217.44038391113278) " stroke="#000000" id="svg_62"/>
  <ellipse fill="#ffffff" stroke-width="0" stroke-dasharray="null" stroke-linejoin="null" stroke-linecap="null" cx="154.10658" cy="252.56148" rx="7.63401" ry="8.93841" transform="rotate(39.98685836791992 154.10658264160162,252.56149291992188) " stroke="#000000" id="svg_63"/>
  <ellipse fill="#ffffff" stroke-width="0" stroke-dasharray="null" stroke-linejoin="null" stroke-linecap="null" cx="138.29777" cy="282.29341" rx="10.46494" ry="8.3519" transform="rotate(39.98685836791992 138.29777526855474,282.2933959960937) " id="svg_64" stroke="#000000"/>
  <ellipse fill="#ffffff" stroke-width="0" stroke-dasharray="null" stroke-linejoin="null" stroke-linecap="null" cx="164.6769" cy="295.37398" rx="7.63401" ry="8.93841" transform="rotate(39.98685836791992 164.67689514160162,295.3739929199218) " stroke="#000000" id="svg_65"/>
  <ellipse fill="#ffffff" stroke-width="0" stroke-dasharray="null" stroke-linejoin="null" stroke-linecap="null" cx="158.66518" cy="325.62008" rx="7.63401" ry="8.93841" transform="rotate(39.98685836791992 158.66517639160148,325.6200866699219) " stroke="#000000" id="svg_66"/>
  <path id="svg_2" fill="#898888" stroke-width="0" stroke-dasharray="null" stroke-linejoin="null" stroke-linecap="null" d="m175.99202,342.55784l4.98325,-4.12503l7.04747,0l4.98325,4.12503l0,5.83374l-4.98325,4.12503l-7.04747,0l-4.98325,-4.12503l0,-5.83374z" transform="rotate(-19.10797691345215 184.49899291992176,345.4747314453125) " stroke="#000000"/>
  <path id="svg_3" fill="#898888" stroke-width="0" stroke-dasharray="null" stroke-linejoin="null" stroke-linecap="null" d="m320.69514,288.13597l4.98325,-4.12503l7.04747,0l4.98325,4.12503l0,5.83374l-4.98325,4.12503l-7.04747,0l-4.98325,-4.12503l0,-5.83374z" transform="rotate(-19.10797691345215 329.2021179199219,291.05285644531244) " stroke="#000000"/>
  <path id="svg_4" fill="#898888" stroke-width="0" stroke-dasharray="null" stroke-linejoin="null" stroke-linecap="null" d="m298.33577,333.27659l4.98325,-4.12503l7.04747,0l4.98325,4.12503l0,5.83374l-4.98325,4.12503l-7.04747,0l-4.98325,-4.12503l0,-5.83374z" transform="rotate(-19.10797691345215 306.8427429199215,336.19348144531233) " stroke="#000000"/>
  <path id="svg_5" fill="#898888" stroke-width="0" stroke-dasharray="null" stroke-linejoin="null" stroke-linecap="null" d="m264.58577,361.96409l4.98325,-4.12503l7.04747,0l4.98325,4.12503l0,5.83374l-4.98325,4.12503l-7.04747,0l-4.98325,-4.12503l0,-5.83374z" transform="rotate(-19.10797691345215 273.09274291992165,364.8809814453124) " stroke="#000000"/>
  <path id="svg_6" fill="#898888" stroke-width="0" stroke-dasharray="null" stroke-linejoin="null" stroke-linecap="null" d="m265.85139,289.82347l4.98325,-4.12503l7.04747,0l4.98325,4.12503l0,5.83374l-4.98325,4.12503l-7.04747,0l-4.98325,-4.12503l0,-5.83374z" transform="rotate(-19.10797691345215 274.3583679199215,292.74035644531244) " stroke="#000000"/>
  <path id="svg_7" fill="#898888" stroke-width="0" stroke-dasharray="null" stroke-linejoin="null" stroke-linecap="null" d="m241.38264,325.26097l4.98325,-4.12503l7.04747,0l4.98325,4.12503l0,5.83374l-4.98325,4.12503l-7.04747,0l-4.98325,-4.12503l0,-5.83374z" transform="rotate(-19.10797691345215 249.88961791992162,328.17785644531244) " stroke="#000000"/>
  <path id="svg_8" fill="#898888" stroke-width="0" stroke-dasharray="null" stroke-linejoin="null" stroke-linecap="null" d="m213.53889,354.79223l4.98325,-4.12503l7.04747,0l4.98325,4.12503l0,5.83374l-4.98325,4.12503l-7.04747,0l-4.98325,-4.12503l0,-5.83374z" transform="rotate(-19.10797691345215 222.04586791992136,357.7091064453125) " stroke="#000000"/>
  <path id="svg_9" fill="#898888" stroke-width="0" stroke-dasharray="null" stroke-linejoin="null" stroke-linecap="null" d="m223.24202,286.87034l4.98325,-4.12503l7.04747,0l4.98325,4.12503l0,5.83374l-4.98325,4.12503l-7.04747,0l-4.98325,-4.12503l0,-5.83374z" transform="rotate(-19.10797691345215 231.74899291992173,289.7872314453125) " stroke="#000000"/>
  <path id="svg_10" fill="#898888" stroke-width="0" stroke-dasharray="null" stroke-linejoin="null" stroke-linecap="null" d="m200.46077,314.7141l4.98325,-4.12503l7.04747,0l4.98325,4.12503l0,5.83374l-4.98325,4.12503l-7.04747,0l-4.98325,-4.12503l0,-5.83374z" transform="rotate(-19.10797691345215 208.9677429199214,317.6309814453124) " stroke="#000000"/>
  <ellipse id="svg_11" fill="#ffffff" stroke-width="0" stroke-dasharray="null" stroke-linejoin="null" stroke-linecap="null" cx="230.6769" cy="284.12398" rx="7.63401" ry="8.93841" transform="rotate(39.98685836791992 230.6768951416017,284.1239929199218) " stroke="#000000"/>
  <ellipse id="svg_12" fill="#ffffff" stroke-width="0" stroke-dasharray="null" stroke-linejoin="null" stroke-linecap="null" cx="284.6769" cy="288.62398" rx="7.63401" ry="8.93841" transform="rotate(39.98685836791992 284.6768798828126,288.6239929199218) " stroke="#000000"/>
  <ellipse id="svg_13" fill="#ffffff" stroke-width="0" stroke-dasharray="null" stroke-linejoin="null" stroke-linecap="null" cx="330.4269" cy="284.12398" rx="7.63401" ry="8.93841" transform="rotate(39.98685836791992 330.4268798828126,284.1239929199218) " stroke="#000000"/>
  <ellipse id="svg_14" fill="#ffffff" stroke-width="0" stroke-dasharray="null" stroke-linejoin="null" stroke-linecap="null" cx="208.1769" cy="312.62398" rx="7.63401" ry="8.93841" transform="rotate(39.98685836791992 208.1768951416016,312.6239929199219) " stroke="#000000"/>
  <ellipse id="svg_15" fill="#ffffff" stroke-width="0" stroke-dasharray="null" stroke-linejoin="null" stroke-linecap="null" cx="187.9269" cy="340.37398" rx="7.63401" ry="8.93841" transform="rotate(39.98685836791992 187.92689514160176,340.37399291992176) " stroke="#000000"/>
  <ellipse id="svg_16" fill="#ffffff" stroke-width="0" stroke-dasharray="null" stroke-linejoin="null" stroke-linecap="null" cx="221.6769" cy="351.62398" rx="7.63401" ry="8.93841" transform="rotate(39.98685836791992 221.67689514160173,351.6239929199219) " stroke="#000000"/>
  <ellipse id="svg_17" fill="#ffffff" stroke-width="0" stroke-dasharray="null" stroke-linejoin="null" stroke-linecap="null" cx="250.1769" cy="321.62398" rx="7.63401" ry="8.93841" transform="rotate(39.98685836791992 250.1768951416016,321.62399291992193) " stroke="#000000"/>
  <ellipse id="svg_18" fill="#ffffff" stroke-width="0" stroke-dasharray="null" stroke-linejoin="null" stroke-linecap="null" cx="271.9269" cy="356.87398" rx="7.63401" ry="8.93841" transform="rotate(39.98685836791992 271.92687988281256,356.8739929199219) " stroke="#000000"/>
  <ellipse id="svg_19" fill="#ffffff" stroke-width="0" stroke-dasharray="null" stroke-linejoin="null" stroke-linecap="null" cx="304.9269" cy="328.37398" rx="7.63401" ry="8.93841" transform="rotate(39.98685836791992 304.92687988281244,328.3739929199218) " stroke="#000000"/>
  <path stroke="#000000" id="svg_22" fill="#898888" stroke-width="0" stroke-dasharray="null" stroke-linejoin="null" stroke-linecap="null" d="m186.24202,259.87034l4.98325,-4.12502l7.04747,0l4.98325,4.12502l0,5.83374l-4.98325,4.12504l-7.04747,0l-4.98325,-4.12504l0,-5.83374z" transform="rotate(-19.10797691345215 194.74899291992196,262.78723144531256) "/>
  <path stroke="#000000" id="svg_23" d="m228.04054,342.84124l144.88872,-59.07735l144.88906,59.07735l-55.34245,95.58957l-179.09273,0l-55.34261,-95.58957z" stroke-linecap="null" stroke-linejoin="null" stroke-dasharray="null" stroke-width="0" fill="#f9b3f9"/>
  <ellipse id="svg_24" fill="#ffffff" stroke-width="0" stroke-dasharray="null" stroke-linejoin="null" stroke-linecap="null" cx="193.9269" cy="257.12398" rx="7.63401" ry="8.93841" stroke="#000000"/>
  <rect stroke="#000000" transform="rotate(-23.385204315185547 297.5768737792968,314.21679687500006) " id="svg_25" height="6.05002" width="165.79539" y="311.19176" x="214.67919" stroke-linecap="null" stroke-linejoin="null" stroke-dasharray="null" stroke-width="0" fill="#f9b3f9"/>
  <rect stroke="#000000" id="svg_26" transform="rotate(23.323591232299805 448.44448852539097,314.69409179687494) " height="6.05002" width="167.17281" y="311.66909" x="364.85806" stroke-linecap="null" stroke-linejoin="null" stroke-dasharray="null" stroke-width="0" fill="#f9b3f9"/>
  <polygon transform="rotate(-13.222352027893066 207.66557312011722,418.8749999999999) " stroke="#000000" stroke-width="0" points="214.67059326171875,418.875 209.31922912597656,440.8760681152344 200.66055297851562,432.472412109375 200.66055297851562,405.277587890625 209.31922912597656,396.87396240234375 214.67059326171875,418.875 " strokeWidth="0" strokecolor="#000000" fill="#7f3f00" edge="85.13548" orient="x" sides="5" shape="regularPoly" id="svg_27" cy="429" cx="188.00002"/>
  <polygon id="svg_28" transform="rotate(-177.86251831054688 205.4155731201172,366.375) " stroke="#000000" stroke-width="0" points="212.42059326171875,366.375 207.06922912597656,388.3760681152344 198.41055297851562,379.972412109375 198.41055297851562,352.777587890625 207.06922912597656,344.37396240234375 212.42059326171875,366.375 " strokeWidth="0" strokecolor="#000000" fill="#7f3f00" edge="85.13548" orient="x" sides="5" shape="regularPoly" cy="429" cx="188.00002"/>
  <polygon stroke="#000000" id="svg_29" transform="rotate(176.8663787841797 205.4155731201172,391.8749999999999) " stroke-width="0" points="212.42059326171875,391.875 207.06922912597656,413.8760681152344 198.41055297851562,405.472412109375 198.41055297851562,378.277587890625 207.06922912597656,369.87396240234375 212.42059326171875,391.875 " strokeWidth="0" strokecolor="#000000" fill="#7f3f00" edge="85.13548" orient="x" sides="5" shape="regularPoly" cy="429" cx="188.00002"/>
  <polygon id="svg_30" transform="rotate(-177.86251831054688 205.41557312011722,345.37500000000006) " stroke="#000000" stroke-width="0" points="212.42059326171875,345.375 207.06922912597656,367.3760681152344 198.41055297851562,358.972412109375 198.41055297851562,331.777587890625 207.06922912597656,323.37396240234375 212.42059326171875,345.375 " strokeWidth="0" strokecolor="#000000" fill="#7f3f00" edge="85.13548" orient="x" sides="5" shape="regularPoly" cy="429" cx="188.00002"/>
  <polygon id="svg_31" transform="rotate(-2.0029456615448 209.91557312011335,353.62499999999955) " stroke="#000000" stroke-width="0" points="216.92059326171875,353.625 211.56922912597656,375.6260681152344 202.91055297851562,367.222412109375 202.91055297851562,340.027587890625 211.56922912597656,331.62396240234375 216.92059326171875,353.625 " strokeWidth="0" strokecolor="#000000" fill="#7f3f00" edge="85.13548" orient="x" sides="5" shape="regularPoly" cy="429" cx="188.00002"/>
  <path id="svg_32" d="m196.25002,318.75c0,0 -36.75,-43.5 -75.75,-30.75c-39,12.75 -48,29.25 -48.50002,29.25c-0.50002,0 84.50002,-36 84,-36c-0.50002,0 40.25002,37.5 40.25002,37.5z" stroke-linecap="null" stroke-linejoin="null" stroke-dasharray="null" stroke-width="0" stroke="#000000" fill="#7f3f00"/>
  <path transform="rotate(21.42464256286621 154.3739013671878,286.49999999999994) " id="svg_33" d="m216.50002,305.25c0,0 -36.75,-43.5 -75.75,-30.75c-39,12.75 -48,29.25 -48.50002,29.25c-0.50002,0 84.50002,-36 84,-36c-0.50002,0 40.25002,37.5 40.25002,37.5z" stroke-linecap="null" stroke-linejoin="null" stroke-dasharray="null" stroke-width="0" stroke="#000000" fill="#7f3f00"/>
  <path id="svg_34" transform="rotate(59.384376525878906 185.12390136718747,278.25) " d="m247.25002,297c0,0 -36.75,-43.5 -75.75,-30.75c-39,12.75 -48,29.25 -48.50002,29.25c-0.50002,0 84.50002,-36 84,-36c-0.50002,0 40.25002,37.5 40.25002,37.5z" stroke-linecap="null" stroke-linejoin="null" stroke-dasharray="null" stroke-width="0" stroke="#000000" fill="#7f3f00"/>
  <path stroke="#000000" id="svg_35" transform="rotate(145.2699737548828 246.96511840820315,282.0451049804688) " d="m309.09122,265.53933c0,0 -36.75,38.29336 -75.75,27.06945c-39,-11.22392 -48,-25.74899 -48.50002,-25.74899c-0.50002,0 84.50002,31.69106 84,31.69106c-0.50002,0 40.25002,-33.01152 40.25002,-33.01152z" stroke-linecap="null" stroke-linejoin="null" stroke-dasharray="null" stroke-width="0" fill="#7f3f00"/>
  <path id="svg_36" stroke="#000000" transform="rotate(163.76194763183594 261.2151184082031,300.04510498046875) " d="m323.34122,283.53933c0,0 -36.75,38.29337 -75.75,27.06945c-39,-11.22392 -48,-25.74899 -48.50002,-25.74899c-0.50002,0 84.50002,31.69106 84,31.69106c-0.50002,0 40.25002,-33.01152 40.25002,-33.01152z" stroke-linecap="null" stroke-linejoin="null" stroke-dasharray="null" stroke-width="0" fill="#7f3f00"/>
 </g>
</svg>
