<svg width="640" height="480" xmlns="http://www.w3.org/2000/svg" xmlns:svg="http://www.w3.org/2000/svg">
 <!-- Created with SVG-edit - http://svg-edit.googlecode.com/ -->
 <defs>
  <linearGradient spreadMethod="reflect" y2="0" x2="0.97919" y1="0.99609" x1="0" id="svg_81">
   <stop offset="0.35419" stop-color="#ffc896"/>
   <stop offset="0.63544" stop-opacity="0" stop-color="0"/>
   <stop offset="0.88153" stop-color="#ffc896"/>
   <stop offset="1" stop-opacity="0" stop-color="0"/>
  </linearGradient>
  <linearGradient spreadMethod="reflect" y2="0" x2="0.02081" y1="0.99609" x1="1" id="svg_90">
   <stop offset="0.26044" stop-opacity="0" stop-color="0"/>
   <stop offset="0.35419" stop-color="#ffc896"/>
   <stop offset="0.88153" stop-color="#ffc896"/>
   <stop offset="1" stop-opacity="0" stop-color="0"/>
  </linearGradient>
 </defs>
 <g>
  <title>Layer 1</title>
  <ellipse fill="#7cf9f9" stroke-width="0" stroke-dasharray="null" stroke-linejoin="null" stroke-linecap="null" cx="306.49997" cy="268.66666" rx="278.16669" ry="188" id="svg_38" stroke="#545454" transform="rotate(4.241243362426758 306.4999694824222,268.66665649414074) "/>
  <ellipse fill="#00ffff" stroke-width="0" stroke-dasharray="null" stroke-linejoin="null" stroke-linecap="null" cx="301.83333" cy="274.66666" id="svg_37" rx="269.50001" ry="182" stroke="#545454" transform="rotate(0.964017927646637 301.8333435058584,274.6666564941391) "/>
  <ellipse fill="#646664" stroke-width="0" stroke-dasharray="null" stroke-linejoin="null" stroke-linecap="null" cx="307.49999" cy="443" rx="135.50002" ry="13" id="svg_21" stroke="#545454"/>
  <ellipse fill="#00ff00" stroke-width="0" stroke-dasharray="null" stroke-linejoin="null" stroke-linecap="null" cx="305.29864" cy="437.75641" id="svg_20" rx="140.50001" ry="13" stroke="#000000"/>
  <circle fill="#848383" stroke-width="0" cx="252.62502" cy="249.62499" r="145.37498" id="svg_45" stroke="#000000"/>
  <circle fill="#ffffff" stroke-width="0" cx="248.12501" cy="242.12499" r="137.375" id="svg_1" stroke="#000000"/>
  <circle fill="#ffffff" stroke-width="0" cx="251.59084" cy="245.53416" r="144.875" id="svg_46" opacity="0.5" stroke="#000000"/>
  <path fill="#898888" stroke-width="0" stroke-dasharray="null" stroke-linejoin="null" stroke-linecap="null" d="m132.53889,176.76097l4.98325,-4.12503l7.04747,0l4.98325,4.12503l0,5.83374l-4.98325,4.12503l-7.04747,0l-4.98325,-4.12503l0,-5.83374z" id="svg_50" transform="rotate(-19.10797691345215 141.04586791992185,179.67784118652344) " stroke="#000000"/>
  <ellipse fill="#ffffff" stroke-width="0" stroke-dasharray="null" stroke-linejoin="null" stroke-linecap="null" cx="143.55997" cy="175.87998" id="svg_52" rx="7.63401" ry="10.77357" transform="rotate(49.22768783569336 143.55996704101562,175.87997436523438) " stroke="#000000"/>
  <path fill="#898888" stroke-width="0" stroke-dasharray="null" stroke-linejoin="null" stroke-linecap="null" d="m122.41389,199.54222l4.98325,-4.12503l7.04747,0l4.98325,4.12503l0,5.83374l-4.98325,4.12503l-7.04747,0l-4.98325,-4.12503l0,-5.83374z" transform="rotate(-19.10797691345215 130.92086791992176,202.45909118652344) " stroke="#000000" id="svg_53"/>
  <path fill="#898888" stroke-width="0" stroke-dasharray="null" stroke-linejoin="null" stroke-linecap="null" d="m116.40218,234.97971l4.98325,-4.12502l7.04747,0l4.98325,4.12502l0,5.83374l-4.98325,4.12504l-7.04747,0l-4.98325,-4.12504l0,-5.83374z" transform="rotate(-19.10797691345215 124.90916442871075,237.89659118652338) " stroke="#000000" id="svg_54"/>
  <path fill="#898888" stroke-width="0" stroke-dasharray="null" stroke-linejoin="null" stroke-linecap="null" d="m128.42561,281.80784l4.98325,-4.12502l7.04747,0l4.98325,4.12502l0,5.83375l-4.98325,4.12503l-7.04747,0l-4.98325,-4.12503l0,-5.83375z" transform="rotate(-19.10797691345215 136.9326019287106,284.72473144531244) " stroke="#000000" id="svg_55"/>
  <path fill="#898888" stroke-width="0" stroke-dasharray="null" stroke-linejoin="null" stroke-linecap="null" d="m152.78889,326.42113l4.98325,-4.12502l7.04747,0l4.98325,4.12502l0,5.83374l-4.98325,4.12504l-7.04747,0l-4.98325,-4.12504l0,-5.83374z" transform="rotate(-19.10797691345215 161.29588317871048,329.3380126953125) " stroke="#000000" id="svg_56"/>
  <path fill="#898888" stroke-width="0" stroke-dasharray="null" stroke-linejoin="null" stroke-linecap="null" d="m138.67952,217.02659l4.98325,-4.12502l7.04747,0l4.98325,4.12502l0,5.83375l-4.98325,4.12503l-7.04747,0l-4.98325,-4.12503l0,-5.83375z" transform="rotate(-19.10797691345215 147.18650817871068,219.9434661865233) " stroke="#000000" id="svg_57"/>
  <path fill="#898888" stroke-width="0" stroke-dasharray="null" stroke-linejoin="null" stroke-linecap="null" d="m158.13264,296.85471l4.98325,-4.12502l7.04747,0l4.98325,4.12502l0,5.83374l-4.98325,4.12504l-7.04747,0l-4.98325,-4.12504l0,-5.83374z" transform="rotate(-19.10797691345215 166.63961791992142,299.7715759277343) " stroke="#000000" id="svg_58"/>
  <path fill="#898888" stroke-width="0" stroke-dasharray="null" stroke-linejoin="null" stroke-linecap="null" d="m141.96077,251.99534l4.98325,-4.12502l7.04747,0l4.98325,4.12502l0,5.83375l-4.98325,4.12503l-7.04747,0l-4.98325,-4.12503l0,-5.83375z" transform="rotate(-19.10797691345215 150.46775817871094,254.91221618652338) " stroke="#000000" id="svg_59"/>
  <ellipse fill="#ffffff" stroke-width="0" stroke-dasharray="null" stroke-linejoin="null" stroke-linecap="null" cx="131.08315" cy="199.51851" rx="7.63401" ry="8.93841" transform="rotate(39.98685836791992 131.0831451416017,199.51850891113276) " id="svg_60" stroke="#000000"/>
  <ellipse fill="#ffffff" stroke-width="0" stroke-dasharray="null" stroke-linejoin="null" stroke-linecap="null" cx="124.35268" cy="234.23336" rx="7.63401" ry="8.93841" transform="rotate(39.98685836791992 124.35267639160155,234.2333526611328) " stroke="#000000" id="svg_61"/>
  <ellipse fill="#ffffff" stroke-width="0" stroke-dasharray="null" stroke-linejoin="null" stroke-linecap="null" cx="146.93471" cy="217.44039" rx="7.63401" ry="8.93841" transform="rotate(39.98685836791992 146.93470764160148,217.44038391113278) " stroke="#000000" id="svg_62"/>
  <ellipse fill="#ffffff" stroke-width="0" stroke-dasharray="null" stroke-linejoin="null" stroke-linecap="null" cx="150.73158" cy="251.99898" rx="7.63401" ry="8.93841" transform="rotate(39.98685836791992 150.73158264160153,251.9989776611328) " stroke="#000000" id="svg_63"/>
  <ellipse fill="#ffffff" stroke-width="0" stroke-dasharray="null" stroke-linejoin="null" stroke-linecap="null" cx="138.29777" cy="282.29341" rx="10.46494" ry="8.3519" transform="rotate(39.98685836791992 138.29777526855474,282.2933959960937) " id="svg_64" stroke="#000000"/>
  <ellipse fill="#ffffff" stroke-width="0" stroke-dasharray="null" stroke-linejoin="null" stroke-linecap="null" cx="164.25502" cy="295.37398" rx="7.63401" ry="8.93841" transform="rotate(39.98685836791992 164.25502014160168,295.3739929199218) " stroke="#000000" id="svg_65"/>
  <ellipse fill="#ffffff" stroke-width="0" stroke-dasharray="null" stroke-linejoin="null" stroke-linecap="null" cx="160.77455" cy="325.62008" rx="7.63401" ry="8.93841" transform="rotate(76.13661193847656 160.77455139160153,325.62008666992193) " stroke="#000000" id="svg_66"/>
  <path id="svg_2" fill="#898888" stroke-width="0" stroke-dasharray="null" stroke-linejoin="null" stroke-linecap="null" d="m175.99202,342.55784l4.98325,-4.12503l7.04747,0l4.98325,4.12503l0,5.83374l-4.98325,4.12503l-7.04747,0l-4.98325,-4.12503l0,-5.83374z" transform="rotate(-19.10797691345215 184.49899291992176,345.4747314453125) " stroke="#000000"/>
  <path id="svg_3" fill="#898888" stroke-width="0" stroke-dasharray="null" stroke-linejoin="null" stroke-linecap="null" d="m320.69514,288.13597l4.98325,-4.12503l7.04747,0l4.98325,4.12503l0,5.83374l-4.98325,4.12503l-7.04747,0l-4.98325,-4.12503l0,-5.83374z" transform="rotate(-19.10797691345215 329.2021179199219,291.05285644531244) " stroke="#000000"/>
  <path id="svg_4" fill="#898888" stroke-width="0" stroke-dasharray="null" stroke-linejoin="null" stroke-linecap="null" d="m298.33577,333.27659l4.98325,-4.12503l7.04747,0l4.98325,4.12503l0,5.83374l-4.98325,4.12503l-7.04747,0l-4.98325,-4.12503l0,-5.83374z" transform="rotate(-19.10797691345215 306.8427429199215,336.19348144531233) " stroke="#000000"/>
  <path id="svg_5" fill="#898888" stroke-width="0" stroke-dasharray="null" stroke-linejoin="null" stroke-linecap="null" d="m264.58577,361.96409l4.98325,-4.12503l7.04747,0l4.98325,4.12503l0,5.83374l-4.98325,4.12503l-7.04747,0l-4.98325,-4.12503l0,-5.83374z" transform="rotate(-19.10797691345215 273.09274291992165,364.8809814453124) " stroke="#000000"/>
  <path id="svg_6" fill="#898888" stroke-width="0" stroke-dasharray="null" stroke-linejoin="null" stroke-linecap="null" d="m265.85139,289.82347l4.98325,-4.12503l7.04747,0l4.98325,4.12503l0,5.83374l-4.98325,4.12503l-7.04747,0l-4.98325,-4.12503l0,-5.83374z" transform="rotate(-19.10797691345215 274.35836791992176,292.74032592773443) " stroke="#000000"/>
  <path id="svg_7" fill="#898888" stroke-width="0" stroke-dasharray="null" stroke-linejoin="null" stroke-linecap="null" d="m241.38264,325.26097l4.98325,-4.12503l7.04747,0l4.98325,4.12503l0,5.83374l-4.98325,4.12503l-7.04747,0l-4.98325,-4.12503l0,-5.83374z" transform="rotate(-19.10797691345215 249.88961791992162,328.1778259277342) " stroke="#000000"/>
  <path id="svg_8" fill="#898888" stroke-width="0" stroke-dasharray="null" stroke-linejoin="null" stroke-linecap="null" d="m213.53889,354.79223l4.98325,-4.12503l7.04747,0l4.98325,4.12503l0,5.83374l-4.98325,4.12503l-7.04747,0l-4.98325,-4.12503l0,-5.83374z" transform="rotate(-19.10797691345215 222.04586791992136,357.7091064453125) " stroke="#000000"/>
  <path id="svg_9" fill="#898888" stroke-width="0" stroke-dasharray="null" stroke-linejoin="null" stroke-linecap="null" d="m223.24202,286.87034l4.98325,-4.12503l7.04747,0l4.98325,4.12503l0,5.83374l-4.98325,4.12503l-7.04747,0l-4.98325,-4.12503l0,-5.83374z" transform="rotate(-19.10797691345215 231.74899291992173,289.7872314453125) " stroke="#000000"/>
  <path id="svg_10" fill="#898888" stroke-width="0" stroke-dasharray="null" stroke-linejoin="null" stroke-linecap="null" d="m200.46077,314.7141l4.98325,-4.12503l7.04747,0l4.98325,4.12503l0,5.83374l-4.98325,4.12503l-7.04747,0l-4.98325,-4.12503l0,-5.83374z" transform="rotate(-19.10797691345215 208.9677429199214,317.6309814453124) " stroke="#000000"/>
  <ellipse id="svg_11" fill="#ffffff" stroke-width="0" stroke-dasharray="null" stroke-linejoin="null" stroke-linecap="null" cx="230.6769" cy="284.12398" rx="7.63401" ry="8.93841" transform="rotate(39.98685836791992 230.6768951416017,284.1239929199218) " stroke="#000000"/>
  <ellipse id="svg_12" fill="#ffffff" stroke-width="0" stroke-dasharray="null" stroke-linejoin="null" stroke-linecap="null" cx="284.6769" cy="288.62398" rx="7.63401" ry="8.93841" transform="rotate(39.98685836791992 284.67691040039074,288.6239929199218) " stroke="#000000"/>
  <ellipse id="svg_13" fill="#ffffff" stroke-width="0" stroke-dasharray="null" stroke-linejoin="null" stroke-linecap="null" cx="330.4269" cy="284.12398" rx="7.63401" ry="8.93841" transform="rotate(39.98685836791992 330.4268798828126,284.1239929199218) " stroke="#000000"/>
  <ellipse id="svg_14" fill="#ffffff" stroke-width="0" stroke-dasharray="null" stroke-linejoin="null" stroke-linecap="null" cx="208.1769" cy="312.62398" rx="7.63401" ry="8.93841" transform="rotate(39.98685836791992 208.1768951416016,312.6239929199219) " stroke="#000000"/>
  <ellipse stroke="#000000" id="svg_15" fill="#ffffff" stroke-width="0" stroke-dasharray="null" stroke-linejoin="null" stroke-linecap="null" cx="185.55385" cy="341.08589" rx="7.63401" ry="8.93841" transform="rotate(39.98685836791992 185.55384826660162,341.08590698242176) "/>
  <ellipse id="svg_16" fill="#ffffff" stroke-width="0" stroke-dasharray="null" stroke-linejoin="null" stroke-linecap="null" cx="221.6769" cy="351.62398" rx="7.63401" ry="8.93841" transform="rotate(39.98685836791992 221.67689514160173,351.6239929199219) " stroke="#000000"/>
  <ellipse id="svg_17" fill="#ffffff" stroke-width="0" stroke-dasharray="null" stroke-linejoin="null" stroke-linecap="null" cx="250.1769" cy="321.62398" rx="7.63401" ry="8.93841" transform="rotate(39.98685836791992 250.1768951416016,321.62399291992193) " stroke="#000000"/>
  <ellipse id="svg_18" fill="#ffffff" stroke-width="0" stroke-dasharray="null" stroke-linejoin="null" stroke-linecap="null" cx="271.9269" cy="356.87398" rx="7.63401" ry="8.93841" transform="rotate(39.98685836791992 271.92687988281256,356.8739929199219) " stroke="#000000"/>
  <ellipse id="svg_19" fill="#ffffff" stroke-width="0" stroke-dasharray="null" stroke-linejoin="null" stroke-linecap="null" cx="304.9269" cy="328.37398" rx="7.63401" ry="8.93841" transform="rotate(39.98685836791992 304.92687988281244,328.3739929199218) " stroke="#000000"/>
  <path stroke="#000000" id="svg_22" fill="#898888" stroke-width="0" stroke-dasharray="null" stroke-linejoin="null" stroke-linecap="null" d="m186.24202,259.87034l4.98325,-4.12502l7.04747,0l4.98325,4.12502l0,5.83374l-4.98325,4.12504l-7.04747,0l-4.98325,-4.12504l0,-5.83374z" transform="rotate(-19.10797691345215 194.74900817871074,262.7872314453124) "/>
  <path stroke="#000000" transform="rotate(0.13794632256031036 348.2775878906821,441.50207519531705) " id="svg_79" opacity="0.3" d="m265.33313,442.19059l82.94435,2.22803l82.94454,-2.22803l-31.68185,-3.60504l-102.52509,0l-31.68194,3.60504l0.00001,0l-0.00001,0z" stroke-linecap="null" stroke-linejoin="null" stroke-dasharray="null" stroke-width="0" fill="url(#svg_81)"/>
  <path id="svg_72" d="m234.22804,346.77874l109.45126,-59.07735l109.45152,59.07735l-41.80657,95.58957l-135.28952,0l-41.80669,-95.58957l0.00001,0l-0.00001,0z" stroke-linecap="null" stroke-linejoin="null" stroke-dasharray="null" stroke-width="0" fill="#ffc896" stroke="#000000"/>
  <ellipse id="svg_24" fill="#ffffff" stroke-width="0" stroke-dasharray="null" stroke-linejoin="null" stroke-linecap="null" cx="193.9269" cy="257.12398" rx="7.63401" ry="8.93841" stroke="#000000"/>
  <rect transform="rotate(-30.938730239868164 285.87802124023455,317.2022399902345) " id="svg_25" height="6.05002" width="129.45506" y="314.17722" x="221.1505" stroke-linecap="null" stroke-linejoin="null" stroke-dasharray="null" fill="#ed984e" stroke="#000000"/>
  <rect id="svg_26" transform="rotate(28.474212646484375 397.4082641601562,316.9435424804688) " height="6.05002" width="134.54713" y="313.91852" x="330.13469" stroke-linecap="null" stroke-linejoin="null" stroke-dasharray="null" fill="#ed984e" stroke="#000000"/>
  <polygon transform="rotate(-13.222352027893066 207.66557312011722,418.8749999999999) " stroke="#000000" stroke-width="0" points="214.67059326171875,418.875 209.31922912597656,440.8760681152344 200.66055297851562,432.472412109375 200.66055297851562,405.277587890625 209.31922912597656,396.87396240234375 214.67059326171875,418.875 " fill="#aa4c00" id="svg_27"/>
  <polygon id="svg_28" transform="rotate(-177.86251831054688 205.4155731201172,366.375) " stroke="#000000" stroke-width="0" points="212.42059326171875,366.375 207.06922912597656,388.3760681152344 198.41055297851562,379.972412109375 198.41055297851562,352.777587890625 207.06922912597656,344.37396240234375 212.42059326171875,366.375 " fill="#aa4c00"/>
  <polygon stroke="#000000" id="svg_29" transform="rotate(176.8663787841797 205.4155731201172,391.8749999999999) " stroke-width="0" points="212.42059326171875,391.875 207.06922912597656,413.8760681152344 198.41055297851562,405.472412109375 198.41055297851562,378.277587890625 207.06922912597656,369.87396240234375 212.42059326171875,391.875 " fill="#aa4c00"/>
  <polygon id="svg_30" transform="rotate(-177.86251831054688 205.41557312011722,345.37500000000006) " stroke="#000000" stroke-width="0" points="212.42059326171875,345.375 207.06922912597656,367.3760681152344 198.41055297851562,358.972412109375 198.41055297851562,331.777587890625 207.06922912597656,323.37396240234375 212.42059326171875,345.375 " fill="#aa4c00"/>
  <polygon stroke="#000000" id="svg_31" transform="rotate(-2.0029456615448 209.99014282226432,351.0240783691403) " stroke-width="0" points="216.9951629638672,351.0240783691406 211.643798828125,370.0664367675781 202.98512268066406,362.79290771484375 202.98512268066406,339.2552490234375 211.643798828125,331.9817199707031 216.9951629638672,351.0240783691406 " fill="#aa4c00"/>
  <path id="svg_32" d="m196.25002,318.75c0,0 -36.75,-43.5 -75.75,-30.75c-39,12.75 -48,29.25 -48.50002,29.25c-0.50002,0 84.50002,-36 84,-36c-0.50002,0 40.25002,37.5 40.25002,37.5z" stroke-linecap="null" stroke-linejoin="null" stroke-dasharray="null" stroke-width="0" stroke="#000000" fill="#007f00"/>
  <path transform="rotate(21.42464256286621 154.3739013671878,286.49999999999994) " id="svg_33" d="m216.50002,305.25c0,0 -36.75,-43.5 -75.75,-30.75c-39,12.75 -48,29.25 -48.50002,29.25c-0.50002,0 84.50002,-36 84,-36c-0.50002,0 40.25002,37.5 40.25002,37.5z" stroke-linecap="null" stroke-linejoin="null" stroke-dasharray="null" stroke-width="0" stroke="#000000" fill="#1dad1d"/>
  <path id="svg_34" transform="rotate(59.384376525878906 185.12390136718747,278.25) " d="m247.25002,297c0,0 -36.75,-43.5 -75.75,-30.75c-39,12.75 -48,29.25 -48.50002,29.25c-0.50002,0 84.50002,-36 84,-36c-0.50002,0 40.25002,37.5 40.25002,37.5z" stroke-linecap="null" stroke-linejoin="null" stroke-dasharray="null" stroke-width="0" stroke="#000000" fill="#0d960d"/>
  <path stroke="#000000" id="svg_35" transform="rotate(145.2699737548828 246.96511840820315,282.0451049804688) " d="m309.09122,265.53933c0,0 -36.75,38.29336 -75.75,27.06945c-39,-11.22392 -48,-25.74899 -48.50002,-25.74899c-0.50002,0 84.50002,31.69106 84,31.69106c-0.50002,0 40.25002,-33.01152 40.25002,-33.01152z" stroke-linecap="null" stroke-linejoin="null" stroke-dasharray="null" stroke-width="0" fill="#109610"/>
  <path id="svg_36" stroke="#000000" transform="rotate(163.76194763183594 261.2151184082031,300.04510498046875) " d="m323.34122,283.53933c0,0 -36.75,38.29337 -75.75,27.06945c-39,-11.22392 -48,-25.74899 -48.50002,-25.74899c-0.50002,0 84.50002,31.69106 84,31.69106c-0.50002,0 40.25002,-33.01152 40.25002,-33.01152z" stroke-linecap="null" stroke-linejoin="null" stroke-dasharray="null" stroke-width="0" fill="#139313"/>
  <ellipse fill="#ffffff" stroke="#000000" stroke-dasharray="null" stroke-linejoin="null" stroke-linecap="null" cx="477.33333" cy="246.66667" id="svg_39" rx="34.66667" ry="14.66667" opacity="0.95" stroke-width="0"/>
  <ellipse fill="#ffffff" stroke-dasharray="null" stroke-linejoin="null" stroke-linecap="null" cx="503.33333" cy="237.33333" rx="27.33333" ry="14.66667" opacity="0.95" stroke-width="0" id="svg_40" stroke="#000000"/>
  <ellipse fill="#ffffff" stroke-dasharray="null" stroke-linejoin="null" stroke-linecap="null" cx="485.99999" cy="257.33333" rx="64.66666" ry="14.66667" opacity="0.95" stroke-width="0" id="svg_41" stroke="#000000"/>
  <rect stroke="#000000" fill="#ffffff" stroke-width="0.1" stroke-dasharray="null" stroke-linejoin="null" stroke-linecap="null" opacity="0.5" x="333.33333" y="384" width="18.66667" height="45.33333" id="svg_42"/>
  <rect fill="#aad4ff" stroke-width="0" stroke-dasharray="null" stroke-linejoin="null" stroke-linecap="null" opacity="0.5" x="327.92154" y="429.2207" width="28.92514" height="5.68326" id="svg_43" stroke="#000000"/>
  <rect fill="#aad4ff" stroke-width="0" stroke-dasharray="null" stroke-linejoin="null" stroke-linecap="null" opacity="0.5" x="327.06283" y="433.33334" width="30.11166" height="6.66666" id="svg_47" stroke="#000000"/>
  <rect fill="#aad4ff" stroke-width="0" stroke-dasharray="null" stroke-linejoin="null" stroke-linecap="null" opacity="0.5" x="326.97233" y="437.33334" width="31.53548" height="6.66666" id="svg_48" stroke="#000000"/>
  <rect fill="#00ffff" stroke="#000000" stroke-width="0" stroke-dasharray="null" stroke-linejoin="null" stroke-linecap="null" opacity="0.5" x="286.91667" y="384" width="25.33333" height="26.66667" id="svg_49"/>
  <rect fill="#00ffff" stroke="#000000" stroke-width="0" stroke-dasharray="null" stroke-linejoin="null" stroke-linecap="null" opacity="0.5" x="378.41667" y="385.33333" width="25.33333" height="26.66667" id="svg_51"/>
  <path fill="#ffffaa" stroke-width="0" stroke-dasharray="null" stroke-linejoin="null" stroke-linecap="null" opacity="0.5" d="m319.7549,449.20203l8.4095,-8.54298l28.03166,0l8.40949,8.54298l-44.85065,0z" id="svg_68" stroke="#000000"/>
  <rect stroke="#000000" id="svg_44" fill="#00ffff" stroke-width="0" stroke-dasharray="null" stroke-linejoin="null" stroke-linecap="null" opacity="0.3" x="278.09465" y="384.17798" width="44.08333" height="25.91667"/>
  <rect stroke="#000000" id="svg_67" fill="#00ffff" stroke-width="0" stroke-dasharray="null" stroke-linejoin="null" stroke-linecap="null" opacity="0.3" x="368.84465" y="385.71607" width="44.83333" height="25.91667"/>
  <ellipse stroke="#000000" ry="8.03711" rx="8.50781" id="svg_82" cy="437.18436" cx="211.86669" opacity="0.3" stroke-linecap="null" stroke-linejoin="null" stroke-dasharray="null" stroke-width="0" fill="url(#svg_81)"/>
  <path stroke="#000000" transform="rotate(17.79402732849121 202.8584136962891,335.46789550781244) " id="svg_88" d="m204.30498,346.02618l-0.54246,-21.11658l-1.8082,0l-0.54246,21.11658l2.89312,0z" opacity="0.1" stroke-linecap="null" stroke-linejoin="null" stroke-dasharray="null" stroke-width="0" fill="#000000"/>
  <path stroke="#000000" id="svg_89" transform="rotate(172.3258056640625 200.55720520019528,390.707763671875) " d="m202.76315,400.65125l-0.82723,-19.88699l-2.75743,0l-0.82723,19.88699l4.41189,0z" opacity="0.1" stroke-linecap="null" stroke-linejoin="null" stroke-dasharray="null" stroke-width="0" fill="url(#svg_90)"/>
  <path stroke="#000000" id="svg_93" fill="#898888" stroke-width="0" stroke-dasharray="null" stroke-linejoin="null" stroke-linecap="null" d="m379.26473,297.12533l3.24592,-1.20714l4.59048,0l3.24592,1.20714l0,1.70717l-3.24592,1.20714l-4.59048,0l-3.24592,-1.20714l0,-1.70717z" transform="rotate(-72.40389251708984 384.805877685547,297.9789123535157) "/>
  <path id="svg_94" stroke="#000000" fill="#898888" stroke-width="0" stroke-dasharray="null" stroke-linejoin="null" stroke-linecap="null" d="m384.32723,280.98861l3.24592,-1.20714l4.59049,0l3.24592,1.20714l0,1.70718l-3.24592,1.20714l-4.59049,0l-3.24592,-1.20714l0,-1.70718z" transform="rotate(-74.72648620605469 389.86840820312506,281.8421936035157) "/>
  <path stroke="#000000" id="svg_95" fill="#898888" stroke-width="0" stroke-dasharray="null" stroke-linejoin="null" stroke-linecap="null" d="m374.01887,294.9569l2.71912,-1.20714l3.84547,0l2.71912,1.20714l0,1.70718l-2.71912,1.20714l-3.84547,0l-2.71912,-1.20714l0,-1.70718z" transform="rotate(-72.55982208251953 378.6607055664063,295.8104858398438) "/>
  <path id="svg_96" stroke="#000000" fill="#898888" stroke-width="0" stroke-dasharray="null" stroke-linejoin="null" stroke-linecap="null" d="m377.6036,279.80209l3.24592,-1.20714l4.59049,0l3.24592,1.20714l0,1.70718l-3.24592,1.20714l-4.59049,0l-3.24592,-1.20714l0,-1.70718z" transform="rotate(-72.40389251708984 383.1447448730469,280.65567016601557) "/>
  <path stroke="#000000" id="svg_97" transform="rotate(17.79402732849121 208.79759216308648,348.9875488281249) " d="m209.48959,359.54584l-0.25949,-21.11658l-0.86498,0l-0.25949,21.11658l1.38397,0z" opacity="0.1" stroke-linecap="null" stroke-linejoin="null" stroke-dasharray="null" stroke-width="0" fill="#000000"/>
  <path stroke="#000000" id="svg_98" transform="rotate(-25.18406867980957 201.7857055664063,351.05581665039057) " d="m202.69004,356.55652l-0.33913,-11.00141l-1.13041,0l-0.33912,11.00141l1.80866,0z" opacity="0.1" stroke-linecap="null" stroke-linejoin="null" stroke-dasharray="null" stroke-width="0" fill="#000000"/>
  <path stroke="#000000" id="svg_99" transform="rotate(-22.95184326171875 204.40747070312497,365.3615722656251) " d="m204.70249,370.41843l-0.11063,-10.11371l-0.36877,0l-0.11063,10.11371l0.59004,0z" opacity="0.1" stroke-linecap="null" stroke-linejoin="null" stroke-dasharray="null" stroke-width="0" fill="#000000"/>
  <path id="svg_100" stroke="#000000" transform="rotate(27.392704010009766 207.07714843749991,368.03125) " d="m207.37217,373.08811l-0.11064,-10.11371l-0.36877,0l-0.11063,10.11371l0.59004,0z" opacity="0.1" stroke-linecap="null" stroke-linejoin="null" stroke-dasharray="null" stroke-width="0" fill="#000000"/>
  <path id="svg_101" stroke="#000000" transform="rotate(-11.839466094970703 200.13598632812517,371.5018310546876) " d="m200.43101,376.55869l-0.11064,-10.11371l-0.36877,0l-0.11063,10.11371l0.59004,0z" opacity="0.1" stroke-linecap="null" stroke-linejoin="null" stroke-dasharray="null" stroke-width="0" fill="#000000"/>
  <polygon stroke="#000000" id="svg_102" transform="rotate(-13.222352027893066 213.71684265136696,418.4300842285155) " stroke-width="0" points="219.27472397891808,418.43005502551966 215.02888187565924,440.4969064972378 208.1589752849589,432.0681234977295 208.1589752849589,404.7919865533098 215.02888187565924,396.36323416262746 219.27472397891808,418.43005502551966 " fill="#aa4c00"/>
  <path stroke="#000000" id="svg_104" d="m213.64183,439.62288l1.10124,-11.21265l3.67081,0l1.10124,11.21265l-5.87329,0z" stroke-linecap="null" stroke-linejoin="null" stroke-dasharray="null" stroke-width="0" fill="#aa4c00"/>
  <path stroke="#000000" id="svg_105" transform="rotate(173.85646057128906 230.04025268554688,316.32061767578125) " d="m255.71967,299.81484c0,0 -15.19037,38.29337 -31.31076,27.06945c-16.12039,-11.22392 -19.84048,-25.74899 -20.04716,-25.74899c-0.20668,0 34.92752,31.69106 34.72084,31.69106c-0.20668,0 16.63708,-33.01152 16.63708,-33.01152z" stroke-linecap="null" stroke-linejoin="null" stroke-dasharray="null" stroke-width="0" fill="#007f00"/>
  <path stroke="#000000" id="svg_106" transform="rotate(173.85646057128906 176.357421875,316.1712036132812) " d="m150.87265,299.66544c0,0 15.07523,38.29337 31.07342,27.06945c15.9982,-11.22392 19.69009,-25.74899 19.8952,-25.74899c0.20511,0 -34.66277,31.69106 -34.45765,31.69106c0.20511,0 -16.51097,-33.01152 -16.51097,-33.01152z" stroke-linecap="null" stroke-linejoin="null" stroke-dasharray="null" stroke-width="0" fill="#007f00"/>
  <ellipse ry="1.40158" rx="1.00113" id="svg_107" cy="407.74197" cx="350.17974" opacity="0.5" stroke-linecap="null" stroke-linejoin="null" stroke-dasharray="null" stroke-width="0.4" stroke="#000000" fill="#ffffff"/>
  <rect id="svg_108" height="15.01694" width="12.31389" y="389.41869" x="336.40124" opacity="0.2" stroke-linecap="null" stroke-linejoin="null" stroke-dasharray="null" stroke-width="0" stroke="#000000" fill="#ff0000"/>
  <rect id="svg_109" height="15.01694" width="12.31389" y="409.91479" x="336.40124" opacity="0.2" stroke-linecap="null" stroke-linejoin="null" stroke-dasharray="null" stroke-width="0" stroke="#000000" fill="#ff0000"/>
  <rect stroke="#000000" id="svg_111" fill="#aad4ff" stroke-width="0" stroke-dasharray="null" stroke-linejoin="null" stroke-linecap="null" opacity="0.5" x="326.55045" y="438.17709" width="31.53548" height="4.13541"/>
  <rect stroke="#000000" id="svg_112" height="14.79168" width="0.52561" y="410.14004" x="336.10092" opacity="0.2" stroke-linecap="null" stroke-linejoin="null" stroke-dasharray="null" stroke-width="0" fill="#ff7f00"/>
  <rect stroke="#000000" transform="rotate(89.65928649902344 342.40673828125,409.9918823242188) " id="svg_113" height="12.5396" width="0.52428" y="403.72209" x="342.1446" opacity="0.2" stroke-linecap="null" stroke-linejoin="null" stroke-dasharray="null" stroke-width="0" fill="#ff7f00"/>
  <path id="svg_114" stroke="#000000" fill="#898888" stroke-width="0" stroke-dasharray="null" stroke-linejoin="null" stroke-linecap="null" d="m388.26473,264.67611l3.24592,-1.20714l4.59049,0l3.24592,1.20714l0,1.70718l-3.24592,1.20714l-4.59049,0l-3.24592,-1.20714l0,-1.70718z" transform="rotate(-82.24893188476562 393.80590820312506,265.5296936035157) "/>
  <path stroke="#545454" transform="rotate(19.890623092651367 322.12332153320295,437.9639282226563) " id="svg_119" d="m322.30341,444.69881c0,0 1.5834,-10.25377 -0.2436,-13.12483c-1.827,-2.87106 0.2436,13.12483 0.2436,13.12483z" stroke-linecap="null" stroke-linejoin="null" stroke-dasharray="null" stroke-width="0" fill="#41e241"/>
  <path stroke="#545454" id="svg_115" d="m319.46185,443.76408c0,0 2.49274,-10.25378 -0.3835,-13.12483c-2.87624,-2.87106 0.3835,13.12483 0.3835,13.12483z" stroke-linecap="null" stroke-linejoin="null" stroke-dasharray="null" stroke-width="0" fill="#13af13"/>
  <path stroke="#545454" transform="rotate(9.092625617980957 321.0383911132805,437.0670776367187) " id="svg_116" d="m321.38339,443.80196c0,0 3.03339,-10.25377 -0.46668,-13.12483c-3.50006,-2.87106 0.46668,13.12483 0.46668,13.12483z" stroke-linecap="null" stroke-linejoin="null" stroke-dasharray="null" stroke-width="0" fill="#1fd31f"/>
  <path stroke="#545454" transform="rotate(-20.825725555419922 317.52416992187494,436.9911804199218) " id="svg_120" d="m317.71647,443.72606c0,0 1.69077,-10.25377 -0.26012,-13.12483c-1.95089,-2.87106 0.26012,13.12483 0.26012,13.12483z" stroke-linecap="null" stroke-linejoin="null" stroke-dasharray="null" stroke-width="0" fill="#41e241"/>
  <path stroke="#545454" transform="rotate(-32.82950210571289 316.13955688476585,437.79971313476574) " id="svg_117" d="m316.32324,444.53461c0,0 1.61531,-10.25377 -0.24851,-13.12483c-1.86382,-2.87106 0.24851,13.12483 0.24851,13.12483z" stroke-linecap="null" stroke-linejoin="null" stroke-dasharray="null" stroke-width="0" fill="#50b750"/>
  <path stroke="#545454" transform="rotate(27.25311851501465 323.36474609375006,438.3489990234375) " id="svg_118" d="m323.52777,444.01085c0,0 1.4332,-8.62013 -0.22049,-11.03377c-1.65369,-2.41364 0.22049,11.03377 0.22049,11.03377z" stroke-linecap="null" stroke-linejoin="null" stroke-dasharray="null" stroke-width="0" fill="#5edb5e"/>
  <path id="svg_123" stroke="#000000" fill="#898888" stroke-width="0" stroke-dasharray="null" stroke-linejoin="null" stroke-linecap="null" d="m230.67952,254.24534l4.98325,-4.12502l7.04747,0l4.98325,4.12502l0,5.83374l-4.98325,4.12504l-7.04747,0l-4.98325,-4.12504l0,-5.83374z" transform="rotate(-19.10797691345215 239.1865081787107,257.1622314453125) "/>
  <ellipse stroke="#000000" id="svg_124" fill="#ffffff" stroke-width="0" stroke-dasharray="null" stroke-linejoin="null" stroke-linecap="null" cx="237.94252" cy="253.46773" rx="8.47776" ry="9.21966"/>
  <path id="svg_125" stroke="#000000" fill="#898888" stroke-width="0" stroke-dasharray="null" stroke-linejoin="null" stroke-linecap="null" d="m204.24202,238.49534l4.98325,-4.12502l7.04747,0l4.98325,4.12502l0,5.83374l-4.98325,4.12504l-7.04747,0l-4.98325,-4.12504l0,-5.83374z" transform="rotate(-19.10797691345215 212.7490081787107,241.41223144531259) "/>
  <ellipse stroke="#000000" id="svg_126" fill="#ffffff" stroke-width="0" stroke-dasharray="null" stroke-linejoin="null" stroke-linecap="null" cx="212.06752" cy="238.28023" rx="8.89963" ry="8.93841"/>
  <path id="svg_127" stroke="#000000" fill="#898888" stroke-width="0" stroke-dasharray="null" stroke-linejoin="null" stroke-linecap="null" d="m234.7439,386.40528l3.24592,-1.20714l4.59049,0l3.24592,1.20714l0,1.70718l-3.24592,1.20714l-4.59049,0l-3.24592,-1.20714l0,-1.70718z" transform="rotate(5.594152450561523 240.28506469726415,387.2588806152346) "/>
  <path id="svg_128" stroke="#000000" fill="#898888" stroke-width="0" stroke-dasharray="null" stroke-linejoin="null" stroke-linecap="null" d="m212.9939,383.40528l3.24592,-1.20714l4.59049,0l3.24592,1.20714l0,1.70718l-3.24592,1.20714l-4.59049,0l-3.24592,-1.20714l0,-1.70718z" transform="rotate(18.060794830322266 218.53506469726594,384.2588806152344) "/>
  <path id="svg_129" stroke="#000000" fill="#898888" stroke-width="0" stroke-dasharray="null" stroke-linejoin="null" stroke-linecap="null" d="m180.7439,370.65528l3.24592,-1.20714l4.59049,0l3.24592,1.20714l0,1.70718l-3.24592,1.20714l-4.59049,0l-3.24592,-1.20714l0,-1.70718z" transform="rotate(28.001379013061523 186.28506469726562,371.5088806152344) "/>
  <path id="svg_130" stroke="#000000" fill="#898888" stroke-width="0" stroke-dasharray="null" stroke-linejoin="null" stroke-linecap="null" d="m224.2439,380.40528l3.24592,-1.20714l4.59049,0l3.24592,1.20714l0,1.70718l-3.24592,1.20714l-4.59049,0l-3.24592,-1.20714l0,-1.70718z" transform="rotate(5.842807769775391 229.78506469726517,381.2588806152343) "/>
  <path id="svg_131" stroke="#545454" transform="rotate(19.890623092651367 320.02093505859403,438.86492919921875) " d="m320.20104,445.59983c0,0 1.58341,-10.25377 -0.2436,-13.12483c-1.827,-2.87106 0.2436,13.12483 0.2436,13.12483z" stroke-linecap="null" stroke-linejoin="null" stroke-dasharray="null" stroke-width="0" fill="#41e241"/>
  <path stroke="#545454" id="svg_132" d="m317.35948,444.6651c0,0 2.49274,-10.25377 -0.3835,-13.12483c-2.87624,-2.87106 0.3835,13.12483 0.3835,13.12483z" stroke-linecap="null" stroke-linejoin="null" stroke-dasharray="null" stroke-width="0" fill="#13af13"/>
  <path id="svg_133" stroke="#545454" transform="rotate(9.092625617980957 318.9360046386715,437.9680786132812) " d="m319.28102,444.70298c0,0 3.03338,-10.25377 -0.46668,-13.12483c-3.50006,-2.87106 0.46668,13.12483 0.46668,13.12483z" stroke-linecap="null" stroke-linejoin="null" stroke-dasharray="null" stroke-width="0" fill="#1fd31f"/>
  <path id="svg_134" stroke="#545454" transform="rotate(-20.825725555419922 315.4218139648438,437.89221191406244) " d="m315.6141,444.62708c0,0 1.69077,-10.25377 -0.26012,-13.12483c-1.95089,-2.87106 0.26012,13.12483 0.26012,13.12483z" stroke-linecap="null" stroke-linejoin="null" stroke-dasharray="null" stroke-width="0" fill="#41e241"/>
  <path id="svg_135" stroke="#545454" transform="rotate(-32.82950210571289 314.03717041015636,438.70074462890625) " d="m314.22087,445.43563c0,0 1.61532,-10.25377 -0.24851,-13.12483c-1.86382,-2.87106 0.24851,13.12483 0.24851,13.12483z" stroke-linecap="null" stroke-linejoin="null" stroke-dasharray="null" stroke-width="0" fill="#50b750"/>
  <path id="svg_136" stroke="#545454" transform="rotate(27.25311851501465 322.3635864257816,438.44909667968744) " d="m322.52664,444.11096c0,0 1.4332,-8.62013 -0.22049,-11.03377c-1.65369,-2.41364 0.22049,11.03377 0.22049,11.03377z" stroke-linecap="null" stroke-linejoin="null" stroke-dasharray="null" stroke-width="0" fill="#5edb5e"/>
 </g>
</svg>
