<svg width="640" height="480" xmlns="http://www.w3.org/2000/svg" xmlns:svg="http://www.w3.org/2000/svg">
 <!-- Created with SVG-edit - http://svg-edit.googlecode.com/ -->

 <g>
  <title>Layer 1</title>
  <circle stroke="#000000" id="svg_45" r="145.37498" cy="249.62499" cx="252.62502" stroke-width="0" fill="#474545"/>
  <circle stroke="#000000" id="svg_1" r="137.375" cy="242.12499" cx="248.12501" stroke-width="0" fill="#ffffff"/>
  <circle stroke="#000000" opacity="0.5" id="svg_46" r="144.875" cy="240.12499" cx="248.1758" stroke-width="0" fill="#ffffff"/>
  <path stroke="#000000" transform="rotate(-19.10797691345215 141.04588317871088,179.67784118652338) " id="svg_50" d="m132.53889,176.76097l4.98325,-4.12503l7.04747,0l4.98325,4.12503l0,5.83374l-4.98325,4.12503l-7.04747,0l-4.98325,-4.12503l0,-5.83374z" stroke-linecap="null" stroke-linejoin="null" stroke-dasharray="null" stroke-width="0" fill="#898888"/>
  <ellipse stroke="#000000" transform="rotate(49.22768783569336 142.1224670410156,182.37997436523443) " ry="10.77357" rx="7.63401" id="svg_52" cy="182.37998" cx="142.12247" stroke-linecap="null" stroke-linejoin="null" stroke-dasharray="null" stroke-width="0" fill="#ffffff"/>
  <path id="svg_53" stroke="#000000" transform="rotate(-19.10797691345215 130.9208831787108,202.45909118652338) " d="m122.41389,199.54222l4.98325,-4.12503l7.04747,0l4.98325,4.12503l0,5.83374l-4.98325,4.12503l-7.04747,0l-4.98325,-4.12503l0,-5.83374z" stroke-linecap="null" stroke-linejoin="null" stroke-dasharray="null" stroke-width="0" fill="#898888"/>
  <path id="svg_54" stroke="#000000" transform="rotate(-19.10797691345215 124.90916442871075,237.89659118652338) " d="m116.40218,234.97971l4.98325,-4.12502l7.04747,0l4.98325,4.12502l0,5.83374l-4.98325,4.12504l-7.04747,0l-4.98325,-4.12504l0,-5.83374z" stroke-linecap="null" stroke-linejoin="null" stroke-dasharray="null" stroke-width="0" fill="#898888"/>
  <path id="svg_55" stroke="#000000" transform="rotate(-19.10797691345215 136.9326019287106,284.72473144531244) " d="m128.42561,281.80784l4.98325,-4.12502l7.04747,0l4.98325,4.12502l0,5.83375l-4.98325,4.12503l-7.04747,0l-4.98325,-4.12503l0,-5.83375z" stroke-linecap="null" stroke-linejoin="null" stroke-dasharray="null" stroke-width="0" fill="#898888"/>
  <path id="svg_56" stroke="#000000" transform="rotate(-19.10797691345215 161.29588317871048,329.3380126953125) " d="m152.78889,326.42113l4.98325,-4.12502l7.04747,0l4.98325,4.12502l0,5.83374l-4.98325,4.12504l-7.04747,0l-4.98325,-4.12504l0,-5.83374z" stroke-linecap="null" stroke-linejoin="null" stroke-dasharray="null" stroke-width="0" fill="#898888"/>
  <path id="svg_57" stroke="#000000" transform="rotate(-19.10797691345215 147.93650817871074,219.19346618652335) " d="m139.42952,216.27659l4.98325,-4.12502l7.04747,0l4.98325,4.12502l0,5.83375l-4.98325,4.12503l-7.04747,0l-4.98325,-4.12503l0,-5.83375z" stroke-linecap="null" stroke-linejoin="null" stroke-dasharray="null" stroke-width="0" fill="#898888"/>
  <path id="svg_58" stroke="#000000" transform="rotate(-19.10797691345215 166.6396331787107,299.77160644531244) " d="m158.13264,296.85471l4.98325,-4.12502l7.04747,0l4.98325,4.12502l0,5.83374l-4.98325,4.12504l-7.04747,0l-4.98325,-4.12504l0,-5.83374z" stroke-linecap="null" stroke-linejoin="null" stroke-dasharray="null" stroke-width="0" fill="#898888"/>
  <path id="svg_59" stroke="#000000" transform="rotate(-19.10797691345215 150.46775817871094,254.91221618652338) " d="m141.96077,251.99534l4.98325,-4.12502l7.04747,0l4.98325,4.12502l0,5.83375l-4.98325,4.12503l-7.04747,0l-4.98325,-4.12503l0,-5.83375z" stroke-linecap="null" stroke-linejoin="null" stroke-dasharray="null" stroke-width="0" fill="#898888"/>
  <ellipse stroke="#000000" id="svg_60" transform="rotate(39.98685836791992 133.27064514160153,202.45600891113284) " ry="8.93841" rx="7.63401" cy="202.45601" cx="133.27065" stroke-linecap="null" stroke-linejoin="null" stroke-dasharray="null" stroke-width="0" fill="#ffffff"/>
  <ellipse id="svg_61" stroke="#000000" transform="rotate(39.98685836791992 124.72767639160156,240.1083526611328) " ry="8.93841" rx="7.63401" cy="240.10836" cx="124.72768" stroke-linecap="null" stroke-linejoin="null" stroke-dasharray="null" stroke-width="0" fill="#ffffff"/>
  <ellipse id="svg_62" stroke="#000000" transform="rotate(39.98685836791992 146.5597076416016,221.4403839111328) " ry="8.93841" rx="7.63401" cy="221.44039" cx="146.55971" stroke-linecap="null" stroke-linejoin="null" stroke-dasharray="null" stroke-width="0" fill="#ffffff"/>
  <ellipse id="svg_63" stroke="#000000" transform="rotate(39.98685836791992 150.35658264160173,256.5614624023437) " ry="8.93841" rx="7.63401" cy="256.56148" cx="150.35658" stroke-linecap="null" stroke-linejoin="null" stroke-dasharray="null" stroke-width="0" fill="#ffffff"/>
  <ellipse stroke="#000000" id="svg_64" transform="rotate(39.98685836791992 138.29777526855474,282.2933959960937) " ry="8.3519" rx="10.46494" cy="282.29341" cx="138.29777" stroke-linecap="null" stroke-linejoin="null" stroke-dasharray="null" stroke-width="0" fill="#ffffff"/>
  <ellipse id="svg_65" stroke="#000000" transform="rotate(39.98685836791992 166.1768951416016,302.12396240234375) " ry="8.93841" rx="7.63401" cy="302.12398" cx="166.1769" stroke-linecap="null" stroke-linejoin="null" stroke-dasharray="null" stroke-width="0" fill="#ffffff"/>
  <ellipse id="svg_66" stroke="#000000" transform="rotate(39.98685836791992 160.16517639160156,327.12005615234375) " ry="8.93841" rx="7.63401" cy="327.12008" cx="160.16518" stroke-linecap="null" stroke-linejoin="null" stroke-dasharray="null" stroke-width="0" fill="#ffffff"/>
 </g>
</svg>
