<svg width="640" height="480" xmlns="http://www.w3.org/2000/svg" xmlns:svg="http://www.w3.org/2000/svg">
 <!-- Created with SVG-edit - http://svg-edit.googlecode.com/ -->
 <g>
  <title>Layer 1</title>
  <ellipse transform="rotate(4.241243362426758 306.4999694824222,268.66665649414074) " stroke="#545454" id="svg_38" ry="188" rx="278.16669" cy="268.66666" cx="306.49997" stroke-linecap="null" stroke-linejoin="null" stroke-dasharray="null" stroke-width="0" fill="#7cf9f9"/>
  <ellipse transform="rotate(0.964017927646637 301.8333435058584,274.6666564941391) " stroke="#545454" ry="182" rx="269.50001" id="svg_37" cy="274.66666" cx="301.83333" stroke-linecap="null" stroke-linejoin="null" stroke-dasharray="null" stroke-width="0" fill="#00ffff"/>
  <ellipse stroke="#545454" id="svg_21" ry="13" rx="135.50002" cy="443" cx="307.49999" stroke-linecap="null" stroke-linejoin="null" stroke-dasharray="null" stroke-width="0" fill="#646664"/>
  <ellipse stroke="#000000" ry="13" rx="140.50001" id="svg_20" cy="437" cx="306.49999" stroke-linecap="null" stroke-linejoin="null" stroke-dasharray="null" stroke-width="0" fill="#00ff00"/>
  <circle stroke="#000000" id="svg_45" r="145.37498" cy="249.62499" cx="252.62502" stroke-width="0" fill="#474545"/>
  <circle stroke="#000000" id="svg_1" r="137.375" cy="242.12499" cx="248.12501" stroke-width="0" fill="#ffffff"/>
  <circle stroke="#000000" opacity="0.5" id="svg_46" r="144.875" cy="247.29686" cx="251.87893" stroke-width="0" fill="#ffffff"/>
  <path stroke="#000000" transform="rotate(-19.10797691345215 141.04586791992185,179.67784118652344) " id="svg_50" d="m132.53889,176.76097l4.98325,-4.12503l7.04747,0l4.98325,4.12503l0,5.83374l-4.98325,4.12503l-7.04747,0l-4.98325,-4.12503l0,-5.83374z" stroke-linecap="null" stroke-linejoin="null" stroke-dasharray="null" stroke-width="0" fill="#898888"/>
  <ellipse stroke="#000000" transform="rotate(49.22768783569336 146.37246704101565,175.87997436523438) " ry="10.77357" rx="7.63401" id="svg_52" cy="175.87998" cx="146.37247" stroke-linecap="null" stroke-linejoin="null" stroke-dasharray="null" stroke-width="0" fill="#ffffff"/>
  <path id="svg_53" stroke="#000000" transform="rotate(-19.10797691345215 130.92086791992176,202.45909118652344) " d="m122.41389,199.54222l4.98325,-4.12503l7.04747,0l4.98325,4.12503l0,5.83374l-4.98325,4.12503l-7.04747,0l-4.98325,-4.12503l0,-5.83374z" stroke-linecap="null" stroke-linejoin="null" stroke-dasharray="null" stroke-width="0" fill="#898888"/>
  <path id="svg_54" stroke="#000000" transform="rotate(-19.10797691345215 124.90916442871075,237.89659118652338) " d="m116.40218,234.97971l4.98325,-4.12502l7.04747,0l4.98325,4.12502l0,5.83374l-4.98325,4.12504l-7.04747,0l-4.98325,-4.12504l0,-5.83374z" stroke-linecap="null" stroke-linejoin="null" stroke-dasharray="null" stroke-width="0" fill="#898888"/>
  <path id="svg_55" stroke="#000000" transform="rotate(-19.10797691345215 136.9326019287106,284.72473144531244) " d="m128.42561,281.80784l4.98325,-4.12502l7.04747,0l4.98325,4.12502l0,5.83375l-4.98325,4.12503l-7.04747,0l-4.98325,-4.12503l0,-5.83375z" stroke-linecap="null" stroke-linejoin="null" stroke-dasharray="null" stroke-width="0" fill="#898888"/>
  <path id="svg_56" stroke="#000000" transform="rotate(-19.10797691345215 161.29588317871048,329.3380126953125) " d="m152.78889,326.42113l4.98325,-4.12502l7.04747,0l4.98325,4.12502l0,5.83374l-4.98325,4.12504l-7.04747,0l-4.98325,-4.12504l0,-5.83374z" stroke-linecap="null" stroke-linejoin="null" stroke-dasharray="null" stroke-width="0" fill="#898888"/>
  <path id="svg_57" stroke="#000000" transform="rotate(-19.10797691345215 147.18650817871068,219.9434661865233) " d="m138.67952,217.02659l4.98325,-4.12502l7.04747,0l4.98325,4.12502l0,5.83375l-4.98325,4.12503l-7.04747,0l-4.98325,-4.12503l0,-5.83375z" stroke-linecap="null" stroke-linejoin="null" stroke-dasharray="null" stroke-width="0" fill="#898888"/>
  <path id="svg_58" stroke="#000000" transform="rotate(-19.10797691345215 166.63961791992142,299.7715759277343) " d="m158.13264,296.85471l4.98325,-4.12502l7.04747,0l4.98325,4.12502l0,5.83374l-4.98325,4.12504l-7.04747,0l-4.98325,-4.12504l0,-5.83374z" stroke-linecap="null" stroke-linejoin="null" stroke-dasharray="null" stroke-width="0" fill="#898888"/>
  <path id="svg_59" stroke="#000000" transform="rotate(-19.10797691345215 150.46775817871094,254.91221618652338) " d="m141.96077,251.99534l4.98325,-4.12502l7.04747,0l4.98325,4.12502l0,5.83375l-4.98325,4.12503l-7.04747,0l-4.98325,-4.12503l0,-5.83375z" stroke-linecap="null" stroke-linejoin="null" stroke-dasharray="null" stroke-width="0" fill="#898888"/>
  <ellipse stroke="#000000" id="svg_60" transform="rotate(39.98685836791992 135.02064514160165,198.95600891113278) " ry="8.93841" rx="7.63401" cy="198.95601" cx="135.02065" stroke-linecap="null" stroke-linejoin="null" stroke-dasharray="null" stroke-width="0" fill="#ffffff"/>
  <ellipse id="svg_61" stroke="#000000" transform="rotate(39.98685836791992 127.72767639160152,235.35835266113284) " ry="8.93841" rx="7.63401" cy="235.35836" cx="127.72768" stroke-linecap="null" stroke-linejoin="null" stroke-dasharray="null" stroke-width="0" fill="#ffffff"/>
  <ellipse id="svg_62" stroke="#000000" transform="rotate(39.98685836791992 150.30970764160156,217.44038391113278) " ry="8.93841" rx="7.63401" cy="217.44039" cx="150.30971" stroke-linecap="null" stroke-linejoin="null" stroke-dasharray="null" stroke-width="0" fill="#ffffff"/>
  <ellipse id="svg_63" stroke="#000000" transform="rotate(39.98685836791992 154.10658264160162,252.56149291992188) " ry="8.93841" rx="7.63401" cy="252.56148" cx="154.10658" stroke-linecap="null" stroke-linejoin="null" stroke-dasharray="null" stroke-width="0" fill="#ffffff"/>
  <ellipse stroke="#000000" id="svg_64" transform="rotate(39.98685836791992 138.29777526855474,282.2933959960937) " ry="8.3519" rx="10.46494" cy="282.29341" cx="138.29777" stroke-linecap="null" stroke-linejoin="null" stroke-dasharray="null" stroke-width="0" fill="#ffffff"/>
  <ellipse id="svg_65" stroke="#000000" transform="rotate(39.98685836791992 164.67689514160162,295.3739929199218) " ry="8.93841" rx="7.63401" cy="295.37398" cx="164.6769" stroke-linecap="null" stroke-linejoin="null" stroke-dasharray="null" stroke-width="0" fill="#ffffff"/>
  <ellipse id="svg_66" stroke="#000000" transform="rotate(39.98685836791992 158.66517639160148,325.6200866699219) " ry="8.93841" rx="7.63401" cy="325.62008" cx="158.66518" stroke-linecap="null" stroke-linejoin="null" stroke-dasharray="null" stroke-width="0" fill="#ffffff"/>
  <path stroke="#000000" transform="rotate(-19.10797691345215 184.49899291992176,345.4747314453125) " d="m175.99202,342.55784l4.98325,-4.12503l7.04747,0l4.98325,4.12503l0,5.83374l-4.98325,4.12503l-7.04747,0l-4.98325,-4.12503l0,-5.83374z" stroke-linecap="null" stroke-linejoin="null" stroke-dasharray="null" stroke-width="0" fill="#898888" id="svg_2"/>
  <path stroke="#000000" transform="rotate(-19.10797691345215 329.2021179199219,291.05285644531244) " d="m320.69514,288.13597l4.98325,-4.12503l7.04747,0l4.98325,4.12503l0,5.83374l-4.98325,4.12503l-7.04747,0l-4.98325,-4.12503l0,-5.83374z" stroke-linecap="null" stroke-linejoin="null" stroke-dasharray="null" stroke-width="0" fill="#898888" id="svg_3"/>
  <path stroke="#000000" transform="rotate(-19.10797691345215 306.8427429199215,336.19348144531233) " d="m298.33577,333.27659l4.98325,-4.12503l7.04747,0l4.98325,4.12503l0,5.83374l-4.98325,4.12503l-7.04747,0l-4.98325,-4.12503l0,-5.83374z" stroke-linecap="null" stroke-linejoin="null" stroke-dasharray="null" stroke-width="0" fill="#898888" id="svg_4"/>
  <path stroke="#000000" transform="rotate(-19.10797691345215 273.09274291992165,364.8809814453124) " d="m264.58577,361.96409l4.98325,-4.12503l7.04747,0l4.98325,4.12503l0,5.83374l-4.98325,4.12503l-7.04747,0l-4.98325,-4.12503l0,-5.83374z" stroke-linecap="null" stroke-linejoin="null" stroke-dasharray="null" stroke-width="0" fill="#898888" id="svg_5"/>
  <path stroke="#000000" transform="rotate(-19.10797691345215 274.3583679199215,292.74035644531244) " d="m265.85139,289.82347l4.98325,-4.12503l7.04747,0l4.98325,4.12503l0,5.83374l-4.98325,4.12503l-7.04747,0l-4.98325,-4.12503l0,-5.83374z" stroke-linecap="null" stroke-linejoin="null" stroke-dasharray="null" stroke-width="0" fill="#898888" id="svg_6"/>
  <path stroke="#000000" transform="rotate(-19.10797691345215 249.88961791992162,328.17785644531244) " d="m241.38264,325.26097l4.98325,-4.12503l7.04747,0l4.98325,4.12503l0,5.83374l-4.98325,4.12503l-7.04747,0l-4.98325,-4.12503l0,-5.83374z" stroke-linecap="null" stroke-linejoin="null" stroke-dasharray="null" stroke-width="0" fill="#898888" id="svg_7"/>
  <path stroke="#000000" transform="rotate(-19.10797691345215 222.04586791992136,357.7091064453125) " d="m213.53889,354.79223l4.98325,-4.12503l7.04747,0l4.98325,4.12503l0,5.83374l-4.98325,4.12503l-7.04747,0l-4.98325,-4.12503l0,-5.83374z" stroke-linecap="null" stroke-linejoin="null" stroke-dasharray="null" stroke-width="0" fill="#898888" id="svg_8"/>
  <path stroke="#000000" transform="rotate(-19.10797691345215 231.74899291992173,289.7872314453125) " d="m223.24202,286.87034l4.98325,-4.12503l7.04747,0l4.98325,4.12503l0,5.83374l-4.98325,4.12503l-7.04747,0l-4.98325,-4.12503l0,-5.83374z" stroke-linecap="null" stroke-linejoin="null" stroke-dasharray="null" stroke-width="0" fill="#898888" id="svg_9"/>
  <path stroke="#000000" transform="rotate(-19.10797691345215 208.9677429199214,317.6309814453124) " d="m200.46077,314.7141l4.98325,-4.12503l7.04747,0l4.98325,4.12503l0,5.83374l-4.98325,4.12503l-7.04747,0l-4.98325,-4.12503l0,-5.83374z" stroke-linecap="null" stroke-linejoin="null" stroke-dasharray="null" stroke-width="0" fill="#898888" id="svg_10"/>
  <ellipse stroke="#000000" transform="rotate(39.98685836791992 230.6768951416017,284.1239929199218) " ry="8.93841" rx="7.63401" cy="284.12398" cx="230.6769" stroke-linecap="null" stroke-linejoin="null" stroke-dasharray="null" stroke-width="0" fill="#ffffff" id="svg_11"/>
  <ellipse stroke="#000000" transform="rotate(39.98685836791992 284.6768798828126,288.6239929199218) " ry="8.93841" rx="7.63401" cy="288.62398" cx="284.6769" stroke-linecap="null" stroke-linejoin="null" stroke-dasharray="null" stroke-width="0" fill="#ffffff" id="svg_12"/>
  <ellipse stroke="#000000" transform="rotate(39.98685836791992 330.4268798828126,284.1239929199218) " ry="8.93841" rx="7.63401" cy="284.12398" cx="330.4269" stroke-linecap="null" stroke-linejoin="null" stroke-dasharray="null" stroke-width="0" fill="#ffffff" id="svg_13"/>
  <ellipse stroke="#000000" transform="rotate(39.98685836791992 208.1768951416016,312.6239929199219) " ry="8.93841" rx="7.63401" cy="312.62398" cx="208.1769" stroke-linecap="null" stroke-linejoin="null" stroke-dasharray="null" stroke-width="0" fill="#ffffff" id="svg_14"/>
  <ellipse stroke="#000000" transform="rotate(39.98685836791992 187.92689514160176,340.37399291992176) " ry="8.93841" rx="7.63401" cy="340.37398" cx="187.9269" stroke-linecap="null" stroke-linejoin="null" stroke-dasharray="null" stroke-width="0" fill="#ffffff" id="svg_15"/>
  <ellipse stroke="#000000" transform="rotate(39.98685836791992 221.67689514160173,351.6239929199219) " ry="8.93841" rx="7.63401" cy="351.62398" cx="221.6769" stroke-linecap="null" stroke-linejoin="null" stroke-dasharray="null" stroke-width="0" fill="#ffffff" id="svg_16"/>
  <ellipse stroke="#000000" transform="rotate(39.98685836791992 250.1768951416016,321.62399291992193) " ry="8.93841" rx="7.63401" cy="321.62398" cx="250.1769" stroke-linecap="null" stroke-linejoin="null" stroke-dasharray="null" stroke-width="0" fill="#ffffff" id="svg_17"/>
  <ellipse stroke="#000000" transform="rotate(39.98685836791992 271.92687988281256,356.8739929199219) " ry="8.93841" rx="7.63401" cy="356.87398" cx="271.9269" stroke-linecap="null" stroke-linejoin="null" stroke-dasharray="null" stroke-width="0" fill="#ffffff" id="svg_18"/>
  <ellipse stroke="#000000" transform="rotate(39.98685836791992 304.92687988281244,328.3739929199218) " ry="8.93841" rx="7.63401" cy="328.37398" cx="304.9269" stroke-linecap="null" stroke-linejoin="null" stroke-dasharray="null" stroke-width="0" fill="#ffffff" id="svg_19"/>
  <path transform="rotate(-19.10797691345215 194.74899291992196,262.78723144531256) " d="m186.24202,259.87034l4.98325,-4.12502l7.04747,0l4.98325,4.12502l0,5.83374l-4.98325,4.12504l-7.04747,0l-4.98325,-4.12504l0,-5.83374z" stroke-linecap="null" stroke-linejoin="null" stroke-dasharray="null" stroke-width="0" fill="#898888" id="svg_22" stroke="#000000"/>
  <path stroke="#000000" fill="#ffc896" stroke-width="0" stroke-dasharray="null" stroke-linejoin="null" stroke-linecap="null" d="m232.54054,345.65374l109.45126,-59.07735l109.45152,59.07735l-41.80657,95.58957l-135.28952,0l-41.80669,-95.58957l0.00001,0z" id="svg_23"/>
  <ellipse stroke="#000000" ry="8.93841" rx="7.63401" cy="257.12398" cx="193.9269" stroke-linecap="null" stroke-linejoin="null" stroke-dasharray="null" stroke-width="0" fill="#ffffff" id="svg_24"/>
  <rect stroke="#000000" fill="#ed984e" stroke-dasharray="null" stroke-linejoin="null" stroke-linecap="null" x="221.1505" y="314.17722" width="129.45506" height="6.05002" id="svg_25" transform="rotate(-30.938730239868164 285.87802124023455,317.2022399902345) "/>
  <rect stroke="#000000" fill="#ed984e" stroke-dasharray="null" stroke-linejoin="null" stroke-linecap="null" x="330.13469" y="313.91852" width="134.54713" height="6.05002" transform="rotate(28.474212646484375 397.4082641601562,316.9435424804688) " id="svg_26"/>
  <polygon id="svg_27" fill="#7f3f00" points="214.67059326171875,418.875 209.31922912597656,440.8760681152344 200.66055297851562,432.472412109375 200.66055297851562,405.277587890625 209.31922912597656,396.87396240234375 214.67059326171875,418.875 " stroke-width="0" stroke="#000000" transform="rotate(-13.222352027893066 207.66557312011722,418.8749999999999) "/>
  <polygon fill="#7f3f00" points="212.42059326171875,366.375 207.06922912597656,388.3760681152344 198.41055297851562,379.972412109375 198.41055297851562,352.777587890625 207.06922912597656,344.37396240234375 212.42059326171875,366.375 " stroke-width="0" stroke="#000000" transform="rotate(-177.86251831054688 205.4155731201172,366.375) " id="svg_28"/>
  <polygon fill="#7f3f00" points="212.42059326171875,391.875 207.06922912597656,413.8760681152344 198.41055297851562,405.472412109375 198.41055297851562,378.277587890625 207.06922912597656,369.87396240234375 212.42059326171875,391.875 " stroke-width="0" transform="rotate(176.8663787841797 205.4155731201172,391.8749999999999) " id="svg_29" stroke="#000000"/>
  <polygon fill="#7f3f00" points="212.42059326171875,345.375 207.06922912597656,367.3760681152344 198.41055297851562,358.972412109375 198.41055297851562,331.777587890625 207.06922912597656,323.37396240234375 212.42059326171875,345.375 " stroke-width="0" stroke="#000000" transform="rotate(-177.86251831054688 205.41557312011722,345.37500000000006) " id="svg_30"/>
  <polygon fill="#7f3f00" points="216.92059326171875,353.625 211.56922912597656,375.6260681152344 202.91055297851562,367.222412109375 202.91055297851562,340.027587890625 211.56922912597656,331.62396240234375 216.92059326171875,353.625 " stroke-width="0" stroke="#000000" transform="rotate(-2.0029456615448 209.91557312011335,353.62499999999955) " id="svg_31"/>
  <path fill="#007f00" stroke="#000000" stroke-width="0" stroke-dasharray="null" stroke-linejoin="null" stroke-linecap="null" d="m196.25002,318.75c0,0 -36.75,-43.5 -75.75,-30.75c-39,12.75 -48,29.25 -48.50002,29.25c-0.50002,0 84.50002,-36 84,-36c-0.50002,0 40.25002,37.5 40.25002,37.5z" id="svg_32"/>
  <path fill="#007f00" stroke="#000000" stroke-width="0" stroke-dasharray="null" stroke-linejoin="null" stroke-linecap="null" d="m216.50002,305.25c0,0 -36.75,-43.5 -75.75,-30.75c-39,12.75 -48,29.25 -48.50002,29.25c-0.50002,0 84.50002,-36 84,-36c-0.50002,0 40.25002,37.5 40.25002,37.5z" id="svg_33" transform="rotate(21.42464256286621 154.3739013671878,286.49999999999994) "/>
  <path fill="#007f00" stroke="#000000" stroke-width="0" stroke-dasharray="null" stroke-linejoin="null" stroke-linecap="null" d="m247.25002,297c0,0 -36.75,-43.5 -75.75,-30.75c-39,12.75 -48,29.25 -48.50002,29.25c-0.50002,0 84.50002,-36 84,-36c-0.50002,0 40.25002,37.5 40.25002,37.5z" transform="rotate(59.384376525878906 185.12390136718747,278.25) " id="svg_34"/>
  <path fill="#007f00" stroke-width="0" stroke-dasharray="null" stroke-linejoin="null" stroke-linecap="null" d="m309.09122,265.53933c0,0 -36.75,38.29336 -75.75,27.06945c-39,-11.22392 -48,-25.74899 -48.50002,-25.74899c-0.50002,0 84.50002,31.69106 84,31.69106c-0.50002,0 40.25002,-33.01152 40.25002,-33.01152z" transform="rotate(145.2699737548828 246.96511840820315,282.0451049804688) " id="svg_35" stroke="#000000"/>
  <path fill="#007f00" stroke-width="0" stroke-dasharray="null" stroke-linejoin="null" stroke-linecap="null" d="m323.34122,283.53933c0,0 -36.75,38.29337 -75.75,27.06945c-39,-11.22392 -48,-25.74899 -48.50002,-25.74899c-0.50002,0 84.50002,31.69106 84,31.69106c-0.50002,0 40.25002,-33.01152 40.25002,-33.01152z" transform="rotate(163.76194763183594 261.2151184082031,300.04510498046875) " stroke="#000000" id="svg_36"/>
  <ellipse stroke-width="0" opacity="0.95" ry="14.66667" rx="34.66667" id="svg_39" cy="246.66667" cx="477.33333" stroke-linecap="null" stroke-linejoin="null" stroke-dasharray="null" stroke="#000000" fill="#ffffff"/>
  <ellipse stroke="#000000" id="svg_40" stroke-width="0" opacity="0.95" ry="14.66667" rx="27.33333" cy="237.33333" cx="503.33333" stroke-linecap="null" stroke-linejoin="null" stroke-dasharray="null" fill="#ffffff"/>
  <ellipse stroke="#000000" id="svg_41" stroke-width="0" opacity="0.95" ry="14.66667" rx="64.66666" cy="257.33333" cx="485.99999" stroke-linecap="null" stroke-linejoin="null" stroke-dasharray="null" fill="#ffffff"/>
  <rect stroke="#000000" id="svg_42" height="45.33333" width="18.66667" y="384" x="333.33333" opacity="0.95" stroke-linecap="null" stroke-linejoin="null" stroke-dasharray="null" stroke-width="0" fill="#bfbfbf"/>
  <rect stroke="#000000" id="svg_43" height="5.68326" width="28.92514" y="429.2207" x="327.92154" opacity="0.5" stroke-linecap="null" stroke-linejoin="null" stroke-dasharray="null" stroke-width="0" fill="#aad4ff"/>
  <rect stroke="#000000" id="svg_47" height="6.66666" width="30.11166" y="433.33334" x="327.06283" opacity="0.5" stroke-linecap="null" stroke-linejoin="null" stroke-dasharray="null" stroke-width="0" fill="#aad4ff"/>
  <rect stroke="#000000" id="svg_48" height="6.66666" width="31.53548" y="437.33334" x="326.97233" opacity="0.5" stroke-linecap="null" stroke-linejoin="null" stroke-dasharray="null" stroke-width="0" fill="#aad4ff"/>
  <rect id="svg_49" height="26.66667" width="25.33333" y="384" x="290.66667" opacity="0.5" stroke-linecap="null" stroke-linejoin="null" stroke-dasharray="null" stroke-width="0" stroke="#000000" fill="#00ffff"/>
  <rect id="svg_51" height="26.66667" width="25.33333" y="385.33333" x="374.66667" opacity="0.5" stroke-linecap="null" stroke-linejoin="null" stroke-dasharray="null" stroke-width="0" stroke="#000000" fill="#00ffff"/>
  <path stroke="#000000" id="svg_68" d="m319.7549,449.20203l8.4095,-8.54298l28.03166,0l8.40949,8.54298l-44.85065,0z" opacity="0.5" stroke-linecap="null" stroke-linejoin="null" stroke-dasharray="null" stroke-width="0" fill="#ffffaa"/>
 </g>
</svg>
