<svg width="640" height="480" xmlns="http://www.w3.org/2000/svg" xmlns:svg="http://www.w3.org/2000/svg">
 <!-- Created with SVG-edit - http://svg-edit.googlecode.com/ -->
 <defs>
  <linearGradient id="svg_81" x1="0" y1="0.99609" x2="0.97919" y2="0" spreadMethod="reflect">
   <stop stop-color="#ffc896" offset="0.35419"/>
   <stop stop-color="0" stop-opacity="0" offset="0.63544"/>
   <stop stop-color="#ffc896" offset="0.88153"/>
   <stop stop-color="0" stop-opacity="0" offset="1"/>
  </linearGradient>
  <linearGradient id="svg_90" x1="1" y1="0.99609" x2="0.02081" y2="0" spreadMethod="reflect">
   <stop stop-color="0" stop-opacity="0" offset="0.26044"/>
   <stop stop-color="#ffc896" offset="0.35419"/>
   <stop stop-color="#ffc896" offset="0.88153"/>
   <stop stop-color="0" stop-opacity="0" offset="1"/>
  </linearGradient>
 </defs>
 <g>
  <title>Layer 1</title>
  <ellipse transform="rotate(4.241243362426758 306.4999694824222,268.66665649414074) " stroke="#545454" id="svg_38" ry="188" rx="278.16669" cy="268.66666" cx="306.49997" stroke-linecap="null" stroke-linejoin="null" stroke-dasharray="null" stroke-width="0" fill="#7cf9f9"/>
  <ellipse transform="rotate(0.964017927646637 301.8333435058584,274.6666564941391) " stroke="#545454" ry="182" rx="269.50001" id="svg_37" cy="274.66666" cx="301.83333" stroke-linecap="null" stroke-linejoin="null" stroke-dasharray="null" stroke-width="0" fill="#00ffff"/>
  <ellipse stroke="#545454" id="svg_21" ry="13" rx="135.50002" cy="443" cx="307.49999" stroke-linecap="null" stroke-linejoin="null" stroke-dasharray="null" stroke-width="0" fill="#646664"/>
  <ellipse stroke="#000000" ry="13" rx="140.50001" id="svg_20" cy="437.75641" cx="305.29864" stroke-linecap="null" stroke-linejoin="null" stroke-dasharray="null" stroke-width="0" fill="#00ff00"/>
  <circle stroke="#000000" id="svg_45" r="145.37498" cy="249.62499" cx="252.62502" stroke-width="0" fill="#848383"/>
  <circle stroke="#000000" id="svg_1" r="137.375" cy="242.12499" cx="248.12501" stroke-width="0" fill="#ffffff"/>
  <circle stroke="#000000" opacity="0.5" id="svg_46" r="144.875" cy="245.53416" cx="251.59084" stroke-width="0" fill="#ffffff"/>
  <path stroke="#000000" transform="rotate(-19.10797691345215 141.04586791992185,179.67784118652344) " id="svg_50" d="m132.53889,176.76097l4.98325,-4.12503l7.04747,0l4.98325,4.12503l0,5.83374l-4.98325,4.12503l-7.04747,0l-4.98325,-4.12503l0,-5.83374z" stroke-linecap="null" stroke-linejoin="null" stroke-dasharray="null" stroke-width="0" fill="#898888"/>
  <ellipse stroke="#000000" transform="rotate(49.22768783569336 143.55996704101562,175.87997436523438) " ry="10.77357" rx="7.63401" id="svg_52" cy="175.87998" cx="143.55997" stroke-linecap="null" stroke-linejoin="null" stroke-dasharray="null" stroke-width="0" fill="#ffffff"/>
  <path id="svg_53" stroke="#000000" transform="rotate(-19.10797691345215 130.92086791992176,202.45909118652344) " d="m122.41389,199.54222l4.98325,-4.12503l7.04747,0l4.98325,4.12503l0,5.83374l-4.98325,4.12503l-7.04747,0l-4.98325,-4.12503l0,-5.83374z" stroke-linecap="null" stroke-linejoin="null" stroke-dasharray="null" stroke-width="0" fill="#898888"/>
  <path id="svg_54" stroke="#000000" transform="rotate(-19.10797691345215 124.90916442871075,237.89659118652338) " d="m116.40218,234.97971l4.98325,-4.12502l7.04747,0l4.98325,4.12502l0,5.83374l-4.98325,4.12504l-7.04747,0l-4.98325,-4.12504l0,-5.83374z" stroke-linecap="null" stroke-linejoin="null" stroke-dasharray="null" stroke-width="0" fill="#898888"/>
  <path id="svg_55" stroke="#000000" transform="rotate(-19.10797691345215 136.9326019287106,284.72473144531244) " d="m128.42561,281.80784l4.98325,-4.12502l7.04747,0l4.98325,4.12502l0,5.83375l-4.98325,4.12503l-7.04747,0l-4.98325,-4.12503l0,-5.83375z" stroke-linecap="null" stroke-linejoin="null" stroke-dasharray="null" stroke-width="0" fill="#898888"/>
  <path id="svg_56" stroke="#000000" transform="rotate(-19.10797691345215 161.29588317871048,329.3380126953125) " d="m152.78889,326.42113l4.98325,-4.12502l7.04747,0l4.98325,4.12502l0,5.83374l-4.98325,4.12504l-7.04747,0l-4.98325,-4.12504l0,-5.83374z" stroke-linecap="null" stroke-linejoin="null" stroke-dasharray="null" stroke-width="0" fill="#898888"/>
  <path id="svg_57" stroke="#000000" transform="rotate(-19.10797691345215 147.18650817871068,219.9434661865233) " d="m138.67952,217.02659l4.98325,-4.12502l7.04747,0l4.98325,4.12502l0,5.83375l-4.98325,4.12503l-7.04747,0l-4.98325,-4.12503l0,-5.83375z" stroke-linecap="null" stroke-linejoin="null" stroke-dasharray="null" stroke-width="0" fill="#898888"/>
  <path id="svg_58" stroke="#000000" transform="rotate(-19.10797691345215 166.63961791992142,299.7715759277343) " d="m158.13264,296.85471l4.98325,-4.12502l7.04747,0l4.98325,4.12502l0,5.83374l-4.98325,4.12504l-7.04747,0l-4.98325,-4.12504l0,-5.83374z" stroke-linecap="null" stroke-linejoin="null" stroke-dasharray="null" stroke-width="0" fill="#898888"/>
  <path id="svg_59" stroke="#000000" transform="rotate(-19.10797691345215 150.46775817871094,254.91221618652338) " d="m141.96077,251.99534l4.98325,-4.12502l7.04747,0l4.98325,4.12502l0,5.83375l-4.98325,4.12503l-7.04747,0l-4.98325,-4.12503l0,-5.83375z" stroke-linecap="null" stroke-linejoin="null" stroke-dasharray="null" stroke-width="0" fill="#898888"/>
  <ellipse stroke="#000000" id="svg_60" transform="rotate(39.98685836791992 131.0831451416017,199.51850891113276) " ry="8.93841" rx="7.63401" cy="199.51851" cx="131.08315" stroke-linecap="null" stroke-linejoin="null" stroke-dasharray="null" stroke-width="0" fill="#ffffff"/>
  <ellipse id="svg_61" stroke="#000000" transform="rotate(39.98685836791992 124.35267639160155,234.2333526611328) " ry="8.93841" rx="7.63401" cy="234.23336" cx="124.35268" stroke-linecap="null" stroke-linejoin="null" stroke-dasharray="null" stroke-width="0" fill="#ffffff"/>
  <ellipse id="svg_62" stroke="#000000" transform="rotate(39.98685836791992 146.93470764160148,217.44038391113278) " ry="8.93841" rx="7.63401" cy="217.44039" cx="146.93471" stroke-linecap="null" stroke-linejoin="null" stroke-dasharray="null" stroke-width="0" fill="#ffffff"/>
  <ellipse id="svg_63" stroke="#000000" transform="rotate(39.98685836791992 150.73158264160153,251.9989776611328) " ry="8.93841" rx="7.63401" cy="251.99898" cx="150.73158" stroke-linecap="null" stroke-linejoin="null" stroke-dasharray="null" stroke-width="0" fill="#ffffff"/>
  <ellipse stroke="#000000" id="svg_64" transform="rotate(39.98685836791992 138.29777526855474,282.2933959960937) " ry="8.3519" rx="10.46494" cy="282.29341" cx="138.29777" stroke-linecap="null" stroke-linejoin="null" stroke-dasharray="null" stroke-width="0" fill="#ffffff"/>
  <ellipse id="svg_65" stroke="#000000" transform="rotate(39.98685836791992 164.25502014160168,295.3739929199218) " ry="8.93841" rx="7.63401" cy="295.37398" cx="164.25502" stroke-linecap="null" stroke-linejoin="null" stroke-dasharray="null" stroke-width="0" fill="#ffffff"/>
  <ellipse id="svg_66" stroke="#000000" transform="rotate(76.13661193847656 160.77455139160153,325.62008666992193) " ry="8.93841" rx="7.63401" cy="325.62008" cx="160.77455" stroke-linecap="null" stroke-linejoin="null" stroke-dasharray="null" stroke-width="0" fill="#ffffff"/>
  <path stroke="#000000" transform="rotate(-19.10797691345215 184.49899291992176,345.4747314453125) " d="m175.99202,342.55784l4.98325,-4.12503l7.04747,0l4.98325,4.12503l0,5.83374l-4.98325,4.12503l-7.04747,0l-4.98325,-4.12503l0,-5.83374z" stroke-linecap="null" stroke-linejoin="null" stroke-dasharray="null" stroke-width="0" fill="#898888" id="svg_2"/>
  <path stroke="#000000" transform="rotate(-19.10797691345215 329.2021179199219,291.05285644531244) " d="m320.69514,288.13597l4.98325,-4.12503l7.04747,0l4.98325,4.12503l0,5.83374l-4.98325,4.12503l-7.04747,0l-4.98325,-4.12503l0,-5.83374z" stroke-linecap="null" stroke-linejoin="null" stroke-dasharray="null" stroke-width="0" fill="#898888" id="svg_3"/>
  <path stroke="#000000" transform="rotate(-19.10797691345215 306.8427429199215,336.19348144531233) " d="m298.33577,333.27659l4.98325,-4.12503l7.04747,0l4.98325,4.12503l0,5.83374l-4.98325,4.12503l-7.04747,0l-4.98325,-4.12503l0,-5.83374z" stroke-linecap="null" stroke-linejoin="null" stroke-dasharray="null" stroke-width="0" fill="#898888" id="svg_4"/>
  <path stroke="#000000" transform="rotate(-19.10797691345215 273.09274291992165,364.8809814453124) " d="m264.58577,361.96409l4.98325,-4.12503l7.04747,0l4.98325,4.12503l0,5.83374l-4.98325,4.12503l-7.04747,0l-4.98325,-4.12503l0,-5.83374z" stroke-linecap="null" stroke-linejoin="null" stroke-dasharray="null" stroke-width="0" fill="#898888" id="svg_5"/>
  <path stroke="#000000" transform="rotate(-19.10797691345215 274.35836791992176,292.74032592773443) " d="m265.85139,289.82347l4.98325,-4.12503l7.04747,0l4.98325,4.12503l0,5.83374l-4.98325,4.12503l-7.04747,0l-4.98325,-4.12503l0,-5.83374z" stroke-linecap="null" stroke-linejoin="null" stroke-dasharray="null" stroke-width="0" fill="#898888" id="svg_6"/>
  <path stroke="#000000" transform="rotate(-19.10797691345215 249.88961791992162,328.1778259277342) " d="m241.38264,325.26097l4.98325,-4.12503l7.04747,0l4.98325,4.12503l0,5.83374l-4.98325,4.12503l-7.04747,0l-4.98325,-4.12503l0,-5.83374z" stroke-linecap="null" stroke-linejoin="null" stroke-dasharray="null" stroke-width="0" fill="#898888" id="svg_7"/>
  <path stroke="#000000" transform="rotate(-19.10797691345215 222.04586791992136,357.7091064453125) " d="m213.53889,354.79223l4.98325,-4.12503l7.04747,0l4.98325,4.12503l0,5.83374l-4.98325,4.12503l-7.04747,0l-4.98325,-4.12503l0,-5.83374z" stroke-linecap="null" stroke-linejoin="null" stroke-dasharray="null" stroke-width="0" fill="#898888" id="svg_8"/>
  <path stroke="#000000" transform="rotate(-19.10797691345215 231.74899291992173,289.7872314453125) " d="m223.24202,286.87034l4.98325,-4.12503l7.04747,0l4.98325,4.12503l0,5.83374l-4.98325,4.12503l-7.04747,0l-4.98325,-4.12503l0,-5.83374z" stroke-linecap="null" stroke-linejoin="null" stroke-dasharray="null" stroke-width="0" fill="#898888" id="svg_9"/>
  <path stroke="#000000" transform="rotate(-19.10797691345215 208.9677429199214,317.6309814453124) " d="m200.46077,314.7141l4.98325,-4.12503l7.04747,0l4.98325,4.12503l0,5.83374l-4.98325,4.12503l-7.04747,0l-4.98325,-4.12503l0,-5.83374z" stroke-linecap="null" stroke-linejoin="null" stroke-dasharray="null" stroke-width="0" fill="#898888" id="svg_10"/>
  <ellipse stroke="#000000" transform="rotate(39.98685836791992 230.6768951416017,284.1239929199218) " ry="8.93841" rx="7.63401" cy="284.12398" cx="230.6769" stroke-linecap="null" stroke-linejoin="null" stroke-dasharray="null" stroke-width="0" fill="#ffffff" id="svg_11"/>
  <ellipse stroke="#000000" transform="rotate(39.98685836791992 284.67691040039074,288.6239929199218) " ry="8.93841" rx="7.63401" cy="288.62398" cx="284.6769" stroke-linecap="null" stroke-linejoin="null" stroke-dasharray="null" stroke-width="0" fill="#ffffff" id="svg_12"/>
  <ellipse stroke="#000000" transform="rotate(39.98685836791992 330.4268798828126,284.1239929199218) " ry="8.93841" rx="7.63401" cy="284.12398" cx="330.4269" stroke-linecap="null" stroke-linejoin="null" stroke-dasharray="null" stroke-width="0" fill="#ffffff" id="svg_13"/>
  <ellipse stroke="#000000" transform="rotate(39.98685836791992 208.1768951416016,312.6239929199219) " ry="8.93841" rx="7.63401" cy="312.62398" cx="208.1769" stroke-linecap="null" stroke-linejoin="null" stroke-dasharray="null" stroke-width="0" fill="#ffffff" id="svg_14"/>
  <ellipse transform="rotate(39.98685836791992 185.55384826660162,341.08590698242176) " ry="8.93841" rx="7.63401" cy="341.08589" cx="185.55385" stroke-linecap="null" stroke-linejoin="null" stroke-dasharray="null" stroke-width="0" fill="#ffffff" id="svg_15" stroke="#000000"/>
  <ellipse stroke="#000000" transform="rotate(39.98685836791992 221.67689514160173,351.6239929199219) " ry="8.93841" rx="7.63401" cy="351.62398" cx="221.6769" stroke-linecap="null" stroke-linejoin="null" stroke-dasharray="null" stroke-width="0" fill="#ffffff" id="svg_16"/>
  <ellipse stroke="#000000" transform="rotate(39.98685836791992 250.1768951416016,321.62399291992193) " ry="8.93841" rx="7.63401" cy="321.62398" cx="250.1769" stroke-linecap="null" stroke-linejoin="null" stroke-dasharray="null" stroke-width="0" fill="#ffffff" id="svg_17"/>
  <ellipse stroke="#000000" transform="rotate(39.98685836791992 271.92687988281256,356.8739929199219) " ry="8.93841" rx="7.63401" cy="356.87398" cx="271.9269" stroke-linecap="null" stroke-linejoin="null" stroke-dasharray="null" stroke-width="0" fill="#ffffff" id="svg_18"/>
  <ellipse stroke="#000000" transform="rotate(39.98685836791992 304.92687988281244,328.3739929199218) " ry="8.93841" rx="7.63401" cy="328.37398" cx="304.9269" stroke-linecap="null" stroke-linejoin="null" stroke-dasharray="null" stroke-width="0" fill="#ffffff" id="svg_19"/>
  <path transform="rotate(-19.10797691345215 194.74900817871074,262.7872314453124) " d="m186.24202,259.87034l4.98325,-4.12502l7.04747,0l4.98325,4.12502l0,5.83374l-4.98325,4.12504l-7.04747,0l-4.98325,-4.12504l0,-5.83374z" stroke-linecap="null" stroke-linejoin="null" stroke-dasharray="null" stroke-width="0" fill="#898888" id="svg_22" stroke="#000000"/>
  <path fill="url(#svg_81)" stroke-width="0" stroke-dasharray="null" stroke-linejoin="null" stroke-linecap="null" d="m265.33313,442.19059l82.94435,2.22803l82.94454,-2.22803l-31.68185,-3.60504l-102.52509,0l-31.68194,3.60504l0.00001,0l-0.00001,0l-0.00001,0z" opacity="0.3" id="svg_79" transform="rotate(0.13794632256031036 348.2775878906821,441.50207519531705) " stroke="#000000"/>
  <path stroke="#000000" fill="#ffc896" stroke-width="0" stroke-dasharray="null" stroke-linejoin="null" stroke-linecap="null" d="m234.22804,359.96349l109.45126,-50.92876l109.45152,50.92876l-41.80657,82.40482l-135.28952,0l-41.80669,-82.40482l0.00001,0l-0.00001,0z" id="svg_72"/>
  <ellipse stroke="#000000" ry="8.93841" rx="7.63401" cy="257.12398" cx="193.9269" stroke-linecap="null" stroke-linejoin="null" stroke-dasharray="null" stroke-width="0" fill="#ffffff" id="svg_24"/>
  <rect stroke="#000000" fill="#ed984e" stroke-dasharray="null" stroke-linejoin="null" stroke-linecap="null" x="221.088" y="332.13555" width="129.45506" height="6.05002" id="svg_25" transform="rotate(-26.165103912353516 285.81552124023443,335.1605834960938) "/>
  <rect stroke="#000000" fill="#ed984e" stroke-dasharray="null" stroke-linejoin="null" stroke-linecap="null" x="334.37281" y="332.85065" width="134.54713" height="6.05002" transform="rotate(25.865459442138672 401.64636230468756,335.87567138671875) " id="svg_26"/>
  <polygon id="svg_27" fill="#aa4c00" points="214.67059326171875,418.875 209.31922912597656,440.8760681152344 200.66055297851562,432.472412109375 200.66055297851562,405.277587890625 209.31922912597656,396.87396240234375 214.67059326171875,418.875 " stroke-width="0" stroke="#000000" transform="rotate(-13.222352027893066 207.66557312011722,418.8749999999999) "/>
  <polygon fill="#aa4c00" points="212.42059326171875,366.375 207.06922912597656,388.3760681152344 198.41055297851562,379.972412109375 198.41055297851562,352.777587890625 207.06922912597656,344.37396240234375 212.42059326171875,366.375 " stroke-width="0" stroke="#000000" transform="rotate(-177.86251831054688 205.4155731201172,366.375) " id="svg_28"/>
  <polygon fill="#aa4c00" points="212.42059326171875,391.875 207.06922912597656,413.8760681152344 198.41055297851562,405.472412109375 198.41055297851562,378.277587890625 207.06922912597656,369.87396240234375 212.42059326171875,391.875 " stroke-width="0" transform="rotate(176.8663787841797 205.4155731201172,391.8749999999999) " id="svg_29" stroke="#000000"/>
  <polygon fill="#aa4c00" points="212.42059326171875,345.375 207.06922912597656,367.3760681152344 198.41055297851562,358.972412109375 198.41055297851562,331.777587890625 207.06922912597656,323.37396240234375 212.42059326171875,345.375 " stroke-width="0" stroke="#000000" transform="rotate(-177.86251831054688 205.41557312011722,345.37500000000006) " id="svg_30"/>
  <polygon fill="#aa4c00" points="216.9951629638672,351.0240783691406 211.643798828125,370.0664367675781 202.98512268066406,362.79290771484375 202.98512268066406,339.2552490234375 211.643798828125,331.9817199707031 216.9951629638672,351.0240783691406 " stroke-width="0" transform="rotate(-2.0029456615448 209.99014282226432,351.0240783691403) " id="svg_31" stroke="#000000"/>
  <path fill="#1ba01b" stroke="#000000" stroke-width="0" stroke-dasharray="null" stroke-linejoin="null" stroke-linecap="null" d="m196.25002,318.75c0,0 -36.75,-43.5 -75.75,-30.75c-39,12.75 -48,29.25 -48.50002,29.25c-0.50002,0 84.50002,-36 84,-36c-0.50002,0 40.25002,37.5 40.25002,37.5z" id="svg_32"/>
  <path fill="#1dad1d" stroke="#000000" stroke-width="0" stroke-dasharray="null" stroke-linejoin="null" stroke-linecap="null" d="m216.50002,305.25c0,0 -36.75,-43.5 -75.75,-30.75c-39,12.75 -48,29.25 -48.50002,29.25c-0.50002,0 84.50002,-36 84,-36c-0.50002,0 40.25002,37.5 40.25002,37.5z" id="svg_33" transform="rotate(21.42464256286621 154.3739013671878,286.49999999999994) "/>
  <path fill="#0d960d" stroke="#000000" stroke-width="0" stroke-dasharray="null" stroke-linejoin="null" stroke-linecap="null" d="m247.25002,297c0,0 -36.75,-43.5 -75.75,-30.75c-39,12.75 -48,29.25 -48.50002,29.25c-0.50002,0 84.50002,-36 84,-36c-0.50002,0 40.25002,37.5 40.25002,37.5z" transform="rotate(59.384376525878906 185.12390136718747,278.25) " id="svg_34"/>
  <path fill="#109610" stroke-width="0" stroke-dasharray="null" stroke-linejoin="null" stroke-linecap="null" d="m309.09122,265.53933c0,0 -36.75,38.29336 -75.75,27.06945c-39,-11.22392 -48,-25.74899 -48.50002,-25.74899c-0.50002,0 84.50002,31.69106 84,31.69106c-0.50002,0 40.25002,-33.01152 40.25002,-33.01152z" transform="rotate(145.2699737548828 246.96511840820315,282.0451049804688) " id="svg_35" stroke="#000000"/>
  <path fill="#139313" stroke-width="0" stroke-dasharray="null" stroke-linejoin="null" stroke-linecap="null" d="m323.34122,283.53933c0,0 -36.75,38.29337 -75.75,27.06945c-39,-11.22392 -48,-25.74899 -48.50002,-25.74899c-0.50002,0 84.50002,31.69106 84,31.69106c-0.50002,0 40.25002,-33.01152 40.25002,-33.01152z" transform="rotate(163.76194763183594 261.2151184082031,300.04510498046875) " stroke="#000000" id="svg_36"/>
  <ellipse stroke-width="0" opacity="0.95" ry="14.66667" rx="34.66667" id="svg_39" cy="246.66667" cx="477.33333" stroke-linecap="null" stroke-linejoin="null" stroke-dasharray="null" stroke="#000000" fill="#ffffff"/>
  <ellipse stroke="#000000" id="svg_40" stroke-width="0" opacity="0.95" ry="14.66667" rx="27.33333" cy="237.33333" cx="503.33333" stroke-linecap="null" stroke-linejoin="null" stroke-dasharray="null" fill="#ffffff"/>
  <ellipse stroke="#000000" id="svg_41" stroke-width="0" opacity="0.95" ry="14.66667" rx="64.66666" cy="257.33333" cx="485.99999" stroke-linecap="null" stroke-linejoin="null" stroke-dasharray="null" fill="#ffffff"/>
  <rect stroke="#000000" id="svg_42" height="48.18099" width="22.46355" y="379.96582" x="331.19759" opacity="0.5" stroke-linecap="null" stroke-linejoin="null" stroke-dasharray="null" stroke-width="0.1" fill="#ffffff"/>
  <rect stroke="#000000" id="svg_43" height="5.68326" width="28.92514" y="429.2207" x="327.92154" opacity="0.5" stroke-linecap="null" stroke-linejoin="null" stroke-dasharray="null" stroke-width="0" fill="#aad4ff"/>
  <rect stroke="#000000" id="svg_47" height="6.66666" width="30.11166" y="433.33334" x="327.06283" opacity="0.5" stroke-linecap="null" stroke-linejoin="null" stroke-dasharray="null" stroke-width="0" fill="#aad4ff"/>
  <rect stroke="#000000" id="svg_48" height="6.66666" width="31.53548" y="437.33334" x="326.97233" opacity="0.5" stroke-linecap="null" stroke-linejoin="null" stroke-dasharray="null" stroke-width="0" fill="#aad4ff"/>
  <path stroke="#000000" id="svg_68" d="m319.7549,449.20203l8.4095,-8.54298l28.03166,0l8.40949,8.54298l-44.85065,0z" opacity="0.6" stroke-linecap="null" stroke-linejoin="null" stroke-dasharray="null" stroke-width="0" fill="#ffffaa"/>
  <rect stroke="#000000" height="25.91667" width="56.89778" y="377.10278" x="268.60246" opacity="0.3" stroke-linecap="null" stroke-linejoin="null" stroke-dasharray="null" stroke-width="0" fill="#ff0000" id="svg_44"/>
  <ellipse fill="url(#svg_81)" stroke-width="0" stroke-dasharray="null" stroke-linejoin="null" stroke-linecap="null" opacity="0.3" cx="211.86669" cy="437.18436" id="svg_82" rx="8.50781" ry="8.03711" stroke="#000000"/>
  <path fill="#000000" stroke-width="0" stroke-dasharray="null" stroke-linejoin="null" stroke-linecap="null" opacity="0.1" d="m204.30498,346.02618l-0.54246,-21.11658l-1.8082,0l-0.54246,21.11658l2.89312,0z" id="svg_88" transform="rotate(17.79402732849121 202.8584136962891,335.46789550781244) " stroke="#000000"/>
  <path fill="url(#svg_90)" stroke-width="0" stroke-dasharray="null" stroke-linejoin="null" stroke-linecap="null" opacity="0.1" d="m202.76315,400.65125l-0.82723,-19.88699l-2.75743,0l-0.82723,19.88699l4.41189,0z" transform="rotate(172.3258056640625 200.55720520019528,390.707763671875) " id="svg_89" stroke="#000000"/>
  <path transform="rotate(-72.40389251708984 384.805877685547,297.9789123535157) " d="m379.26473,297.12533l3.24592,-1.20714l4.59048,0l3.24592,1.20714l0,1.70717l-3.24592,1.20714l-4.59048,0l-3.24592,-1.20714l0,-1.70717z" stroke-linecap="null" stroke-linejoin="null" stroke-dasharray="null" stroke-width="0" fill="#898888" id="svg_93" stroke="#000000"/>
  <path transform="rotate(-74.72648620605469 371.868408203125,310.3421936035156) " d="m366.32723,309.48861l3.24592,-1.20714l4.59049,0l3.24592,1.20714l0,1.70718l-3.24592,1.20714l-4.59049,0l-3.24592,-1.20714l0,-1.70718z" stroke-linecap="null" stroke-linejoin="null" stroke-dasharray="null" stroke-width="0" fill="#898888" stroke="#000000" id="svg_94"/>
  <path transform="rotate(-72.55982208251953 385.4107055664062,277.0604858398437) " d="m380.76887,276.2069l2.71912,-1.20714l3.84547,0l2.71912,1.20714l0,1.70718l-2.71912,1.20714l-3.84547,0l-2.71912,-1.20714l0,-1.70718z" stroke-linecap="null" stroke-linejoin="null" stroke-dasharray="null" stroke-width="0" fill="#898888" id="svg_95" stroke="#000000"/>
  <path transform="rotate(-72.40389251708984 389.1447753906251,249.90567016601565) " d="m383.6036,249.05209l3.24592,-1.20714l4.59049,0l3.24592,1.20714l0,1.70718l-3.24592,1.20714l-4.59049,0l-3.24592,-1.20714l0,-1.70718z" stroke-linecap="null" stroke-linejoin="null" stroke-dasharray="null" stroke-width="0" fill="#898888" stroke="#000000" id="svg_96"/>
  <path fill="#000000" stroke-width="0" stroke-dasharray="null" stroke-linejoin="null" stroke-linecap="null" opacity="0.1" d="m209.48959,359.54584l-0.25949,-21.11658l-0.86498,0l-0.25949,21.11658l1.38397,0l-0.00001,0z" transform="rotate(17.79402732849121 208.79759216308648,348.9875488281249) " id="svg_97" stroke="#000000"/>
  <path fill="#000000" stroke-width="0" stroke-dasharray="null" stroke-linejoin="null" stroke-linecap="null" opacity="0.1" d="m202.69004,356.55652l-0.33913,-11.00141l-1.13041,0l-0.33912,11.00141l1.80866,0z" transform="rotate(-25.18406867980957 201.7857055664063,351.05581665039057) " id="svg_98" stroke="#000000"/>
  <path fill="#000000" stroke-width="0" stroke-dasharray="null" stroke-linejoin="null" stroke-linecap="null" opacity="0.1" d="m204.70249,370.41843l-0.11063,-10.11371l-0.36877,0l-0.11063,10.11371l0.59004,0l-0.00001,0z" transform="rotate(-22.95184326171875 204.40747070312497,365.3615722656251) " id="svg_99" stroke="#000000"/>
  <path fill="#000000" stroke-width="0" stroke-dasharray="null" stroke-linejoin="null" stroke-linecap="null" opacity="0.1" d="m207.37217,373.08811l-0.11064,-10.11371l-0.36877,0l-0.11063,10.11371l0.59004,0z" transform="rotate(27.392704010009766 207.07714843749991,368.03125) " stroke="#000000" id="svg_100"/>
  <path fill="#000000" stroke-width="0" stroke-dasharray="null" stroke-linejoin="null" stroke-linecap="null" opacity="0.1" d="m200.43101,376.55869l-0.11064,-10.11371l-0.36877,0l-0.11063,10.11371l0.59004,0z" transform="rotate(-11.839466094970703 200.13598632812517,371.5018310546876) " stroke="#000000" id="svg_101"/>
  <polygon fill="#aa4c00" points="219.27472397891808,418.43005502551966 215.02888187565924,440.4969064972378 208.1589752849589,432.0681234977295 208.1589752849589,404.7919865533098 215.02888187565924,396.36323416262746 219.27472397891808,418.43005502551966 " stroke-width="0" transform="rotate(-13.222352027893066 213.71684265136696,418.4300842285155) " id="svg_102" stroke="#000000"/>
  <path fill="#aa4c00" stroke-width="0" stroke-dasharray="null" stroke-linejoin="null" stroke-linecap="null" d="m213.64183,439.62288l1.10124,-11.21265l3.67081,0l1.10124,11.21265l-5.87329,0z" id="svg_104" stroke="#000000"/>
  <path fill="#007f00" stroke-width="0" stroke-dasharray="null" stroke-linejoin="null" stroke-linecap="null" d="m255.71967,299.81484c0,0 -15.19037,38.29337 -31.31076,27.06945c-16.12039,-11.22392 -19.84048,-25.74899 -20.04716,-25.74899c-0.20668,0 34.92752,31.69106 34.72084,31.69106c-0.20668,0 16.63708,-33.01152 16.63708,-33.01152z" transform="rotate(173.85646057128906 230.04025268554688,316.32061767578125) " id="svg_105" stroke="#000000"/>
  <path fill="#007f00" stroke-width="0" stroke-dasharray="null" stroke-linejoin="null" stroke-linecap="null" d="m150.87265,299.66544c0,0 15.07523,38.29337 31.07342,27.06945c15.9982,-11.22392 19.69009,-25.74899 19.8952,-25.74899c0.20511,0 -34.66277,31.69106 -34.45765,31.69106c0.20511,0 -16.51097,-33.01152 -16.51097,-33.01152z" transform="rotate(173.85646057128906 176.357421875,316.1712036132812) " id="svg_106" stroke="#000000"/>
  <ellipse fill="#ffffff" stroke="#000000" stroke-width="0.4" stroke-dasharray="null" stroke-linejoin="null" stroke-linecap="null" opacity="0.5" cx="350.17974" cy="407.74197" id="svg_107" rx="1.00113" ry="1.40158"/>
  <rect stroke="#000000" fill="#ff0000" stroke-width="0" stroke-dasharray="null" stroke-linejoin="null" stroke-linecap="null" opacity="0.2" x="336.16394" y="384.43529" width="12.31389" height="18.1019" id="svg_108"/>
  <rect stroke="#000000" fill="#ff0000" stroke-width="0" stroke-dasharray="null" stroke-linejoin="null" stroke-linecap="null" opacity="0.2" x="335.92663" y="409.91479" width="12.7885" height="15.01694" id="svg_109"/>
  <rect height="4.13541" width="31.53548" y="438.17709" x="326.55045" opacity="0.5" stroke-linecap="null" stroke-linejoin="null" stroke-dasharray="null" stroke-width="0" fill="#aad4ff" id="svg_111" stroke="#000000"/>
  <rect fill="#ff7f00" stroke-width="0" stroke-dasharray="null" stroke-linejoin="null" stroke-linecap="null" opacity="0.2" x="336.10092" y="410.14004" width="0.52561" height="14.79168" id="svg_112" stroke="#000000"/>
  <rect fill="#ff7f00" stroke-width="0" stroke-dasharray="null" stroke-linejoin="null" stroke-linecap="null" opacity="0.2" x="342.1446" y="403.72209" width="0.52428" height="12.5396" id="svg_113" transform="rotate(89.65928649902344 342.40673828125,409.9918823242188) " stroke="#000000"/>
  <path transform="rotate(-82.24893188476562 393.80590820312506,265.5296936035157) " d="m388.26473,264.67611l3.24592,-1.20714l4.59049,0l3.24592,1.20714l0,1.70718l-3.24592,1.20714l-4.59049,0l-3.24592,-1.20714l0,-1.70718z" stroke-linecap="null" stroke-linejoin="null" stroke-dasharray="null" stroke-width="0" fill="#898888" stroke="#000000" id="svg_114"/>
  <path fill="#41e241" stroke-width="0" stroke-dasharray="null" stroke-linejoin="null" stroke-linecap="null" d="m322.30341,444.69881c0,0 1.5834,-10.25377 -0.2436,-13.12483c-1.827,-2.87106 0.2436,13.12483 0.2436,13.12483z" id="svg_119" transform="rotate(19.890623092651367 322.12332153320295,437.9639282226563) " stroke="#545454"/>
  <path fill="#13af13" stroke-width="0" stroke-dasharray="null" stroke-linejoin="null" stroke-linecap="null" d="m319.46185,443.76408c0,0 2.49274,-10.25378 -0.3835,-13.12483c-2.87624,-2.87106 0.3835,13.12483 0.3835,13.12483z" id="svg_115" stroke="#545454"/>
  <path fill="#1fd31f" stroke-width="0" stroke-dasharray="null" stroke-linejoin="null" stroke-linecap="null" d="m321.38339,443.80196c0,0 3.03339,-10.25377 -0.46668,-13.12483c-3.50006,-2.87106 0.46668,13.12483 0.46668,13.12483z" id="svg_116" transform="rotate(9.092625617980957 321.0383911132805,437.0670776367187) " stroke="#545454"/>
  <path fill="#41e241" stroke-width="0" stroke-dasharray="null" stroke-linejoin="null" stroke-linecap="null" d="m317.71647,443.72606c0,0 1.69077,-10.25377 -0.26012,-13.12483c-1.95089,-2.87106 0.26012,13.12483 0.26012,13.12483z" id="svg_120" transform="rotate(-20.825725555419922 317.52416992187494,436.9911804199218) " stroke="#545454"/>
  <path fill="#50b750" stroke-width="0" stroke-dasharray="null" stroke-linejoin="null" stroke-linecap="null" d="m316.32324,444.53461c0,0 1.61531,-10.25377 -0.24851,-13.12483c-1.86382,-2.87106 0.24851,13.12483 0.24851,13.12483z" id="svg_117" transform="rotate(-32.82950210571289 316.13955688476585,437.79971313476574) " stroke="#545454"/>
  <path fill="#5edb5e" stroke-width="0" stroke-dasharray="null" stroke-linejoin="null" stroke-linecap="null" d="m323.52777,444.01085c0,0 1.4332,-8.62013 -0.22049,-11.03377c-1.65369,-2.41364 0.22049,11.03377 0.22049,11.03377z" id="svg_118" transform="rotate(27.25311851501465 323.36474609375006,438.3489990234375) " stroke="#545454"/>
  <path transform="rotate(-19.10797691345215 239.1865081787107,257.1622314453125) " d="m230.67952,254.24534l4.98325,-4.12502l7.04747,0l4.98325,4.12502l0,5.83374l-4.98325,4.12504l-7.04747,0l-4.98325,-4.12504l0,-5.83374z" stroke-linecap="null" stroke-linejoin="null" stroke-dasharray="null" stroke-width="0" fill="#898888" stroke="#000000" id="svg_123"/>
  <ellipse ry="9.21966" rx="8.47776" cy="253.46773" cx="237.94252" stroke-linecap="null" stroke-linejoin="null" stroke-dasharray="null" stroke-width="0" fill="#ffffff" id="svg_124" stroke="#000000"/>
  <path transform="rotate(-19.10797691345215 212.7490081787107,241.41223144531259) " d="m204.24202,238.49534l4.98325,-4.12502l7.04747,0l4.98325,4.12502l0,5.83374l-4.98325,4.12504l-7.04747,0l-4.98325,-4.12504l0,-5.83374z" stroke-linecap="null" stroke-linejoin="null" stroke-dasharray="null" stroke-width="0" fill="#898888" stroke="#000000" id="svg_125"/>
  <ellipse ry="8.93841" rx="8.89963" cy="238.28023" cx="212.06752" stroke-linecap="null" stroke-linejoin="null" stroke-dasharray="null" stroke-width="0" fill="#ffffff" id="svg_126" stroke="#000000"/>
  <path transform="rotate(5.594152450561523 240.28506469726415,387.2588806152346) " d="m234.7439,386.40528l3.24592,-1.20714l4.59049,0l3.24592,1.20714l0,1.70718l-3.24592,1.20714l-4.59049,0l-3.24592,-1.20714l0,-1.70718z" stroke-linecap="null" stroke-linejoin="null" stroke-dasharray="null" stroke-width="0" fill="#898888" stroke="#000000" id="svg_127"/>
  <path transform="rotate(18.060794830322266 218.53506469726594,384.2588806152344) " d="m212.9939,383.40528l3.24592,-1.20714l4.59049,0l3.24592,1.20714l0,1.70718l-3.24592,1.20714l-4.59049,0l-3.24592,-1.20714l0,-1.70718z" stroke-linecap="null" stroke-linejoin="null" stroke-dasharray="null" stroke-width="0" fill="#898888" stroke="#000000" id="svg_128"/>
  <path transform="rotate(28.001379013061523 186.28506469726562,371.5088806152344) " d="m180.7439,370.65528l3.24592,-1.20714l4.59049,0l3.24592,1.20714l0,1.70718l-3.24592,1.20714l-4.59049,0l-3.24592,-1.20714l0,-1.70718z" stroke-linecap="null" stroke-linejoin="null" stroke-dasharray="null" stroke-width="0" fill="#898888" stroke="#000000" id="svg_129"/>
  <path transform="rotate(5.842807769775391 229.78506469726517,381.2588806152343) " d="m224.2439,380.40528l3.24592,-1.20714l4.59049,0l3.24592,1.20714l0,1.70718l-3.24592,1.20714l-4.59049,0l-3.24592,-1.20714l0,-1.70718z" stroke-linecap="null" stroke-linejoin="null" stroke-dasharray="null" stroke-width="0" fill="#898888" stroke="#000000" id="svg_130"/>
  <path fill="#41e241" stroke-width="0" stroke-dasharray="null" stroke-linejoin="null" stroke-linecap="null" d="m320.20104,445.59983c0,0 1.58341,-10.25377 -0.2436,-13.12483c-1.827,-2.87106 0.2436,13.12483 0.2436,13.12483z" transform="rotate(19.890623092651367 320.02093505859403,438.86492919921875) " stroke="#545454" id="svg_131"/>
  <path fill="#13af13" stroke-width="0" stroke-dasharray="null" stroke-linejoin="null" stroke-linecap="null" d="m317.35948,444.6651c0,0 2.49274,-10.25377 -0.3835,-13.12483c-2.87624,-2.87106 0.3835,13.12483 0.3835,13.12483z" id="svg_132" stroke="#545454"/>
  <path fill="#1fd31f" stroke-width="0" stroke-dasharray="null" stroke-linejoin="null" stroke-linecap="null" d="m319.28102,444.70298c0,0 3.03338,-10.25377 -0.46668,-13.12483c-3.50006,-2.87106 0.46668,13.12483 0.46668,13.12483z" transform="rotate(9.092625617980957 318.9360046386715,437.9680786132812) " stroke="#545454" id="svg_133"/>
  <path fill="#41e241" stroke-width="0" stroke-dasharray="null" stroke-linejoin="null" stroke-linecap="null" d="m315.6141,444.62708c0,0 1.69077,-10.25377 -0.26012,-13.12483c-1.95089,-2.87106 0.26012,13.12483 0.26012,13.12483z" transform="rotate(-20.825725555419922 315.4218139648438,437.89221191406244) " stroke="#545454" id="svg_134"/>
  <path fill="#50b750" stroke-width="0" stroke-dasharray="null" stroke-linejoin="null" stroke-linecap="null" d="m314.22087,445.43563c0,0 1.61532,-10.25377 -0.24851,-13.12483c-1.86382,-2.87106 0.24851,13.12483 0.24851,13.12483z" transform="rotate(-32.82950210571289 314.03717041015636,438.70074462890625) " stroke="#545454" id="svg_135"/>
  <path fill="#5edb5e" stroke-width="0" stroke-dasharray="null" stroke-linejoin="null" stroke-linecap="null" d="m322.52664,444.11096c0,0 1.4332,-8.62013 -0.22049,-11.03377c-1.65369,-2.41364 0.22049,11.03377 0.22049,11.03377z" transform="rotate(27.25311851501465 322.3635864257816,438.44909667968744) " stroke="#545454" id="svg_136"/>
  <rect stroke="#000000" transform="rotate(0.03678214177489281 297.81674194331305,390.3465270996729) " id="svg_49" height="24.59143" width="32.85676" y="378.05082" x="281.38836" opacity="0.65" stroke-linecap="null" stroke-linejoin="null" stroke-dasharray="null" stroke-width="0" fill="#00ffff"/>
  <rect stroke="#000000" height="25.91667" width="60.02083" y="377.21705" x="363.1757" opacity="0.3" stroke-linecap="null" stroke-linejoin="null" stroke-dasharray="null" stroke-width="0" fill="#ff0000" id="svg_67"/>
  <rect transform="rotate(-0.1676539182662964 392.8016052245479,390.2863159179677) " stroke="#000000" id="svg_51" height="25.00554" width="40.75813" y="377.78353" x="372.42253" opacity="0.6" stroke-linecap="null" stroke-linejoin="null" stroke-dasharray="null" stroke-width="0" fill="#00ffff"/>
  <rect stroke="#000000" stroke-width="0" id="svg_23" fill="#ed984e" stroke-dasharray="null" stroke-linejoin="null" stroke-linecap="null" x="338.78045" y="305.24311" width="4.84576" height="5.37782" transform="rotate(62.64728546142578 341.20333862304676,307.93200683593756) "/>
 </g>
</svg>
