<svg width="640.0000000000001" height="479.99999999999994" xmlns="http://www.w3.org/2000/svg" xmlns:svg="http://www.w3.org/2000/svg" xmlns:xlink="http://www.w3.org/1999/xlink">
 <!-- Created with SVG-edit - http://svg-edit.googlecode.com/ -->
 <defs>
  <radialGradient id="svg_94" spreadMethod="pad">
   <stop stop-color="#ffffff" offset="0"/>
   <stop stop-color="0" stop-opacity="0" offset="0.81999"/>
  </radialGradient>
  <linearGradient id="svg_99">
   <stop stop-color="#7f7f7f" offset="0"/>
   <stop stop-color="#808080" offset="1"/>
  </linearGradient>
 </defs>
 <g>
  <title>Layer 1</title>
  <path fill="#3f007f" stroke-width="0" stroke-dasharray="null" stroke-linejoin="null" stroke-linecap="null" d="m-34.73392,194.2857l37.78549,-40.23831l125.95163,0l37.78547,40.23831l-201.52259,0z" id="svg_118" transform="rotate(89.7810287475586 66.0273666381836,174.16653442382812) " stroke="#000000"/>
  <rect stroke="#000000" fill="url(#svg_99)" stroke-width="0" x="-1.04938" y="-0.20834" width="642.75002" height="480.00001" id="svg_2"/>
  <rect fill="#600000" stroke-dasharray="null" stroke-linejoin="null" stroke-linecap="null" x="228.70158" y="288.86515" width="93.25529" height="6.93305" transform="rotate(89.35145568847656 275.32922363281244,292.3316955566406) " stroke="#000000" id="svg_60"/>
  <rect fill="#600000" stroke-dasharray="null" stroke-linejoin="null" stroke-linecap="null" x="277.22672" y="285.06816" width="91.56789" height="6.93305" transform="rotate(89.35145568847656 323.0106506347656,288.5346984863282) " id="svg_64" stroke="#000000"/>
  <rect fill="#600000" stroke-dasharray="null" stroke-linejoin="null" stroke-linecap="null" x="243.42451" y="241.84116" width="108.42188" height="12" id="svg_1" stroke="#000000"/>
  <rect stroke="#000000" fill="#ffffff" stroke-dasharray="null" stroke-linejoin="null" stroke-linecap="null" x="299.66667" y="207" width="11.375" height="61" id="svg_24"/>
  <ellipse fill="#000000" stroke-width="0" stroke-dasharray="null" stroke-linejoin="null" stroke-linecap="null" cx="328.91796" cy="89.50393" id="svg_21" rx="108.73829" ry="45.5625" stroke="#000000"/>
  <ellipse fill="#ffffff" stroke-width="0" cx="341.00002" cy="140" id="svg_3" rx="102" ry="78.75" stroke="#000000"/>
  <ellipse fill="#3f3f3f" stroke="#000000" stroke-width="0" stroke-dasharray="null" stroke-linejoin="null" stroke-linecap="null" cx="311.25002" cy="140.5" id="svg_4" rx="25.5" ry="22.5"/>
  <ellipse fill="#3f3f3f" stroke-width="0" stroke-dasharray="null" stroke-linejoin="null" stroke-linecap="null" cx="399.25002" cy="139.75" rx="22.5" ry="22.5" id="svg_5" stroke="#000000"/>
  <path fill="#000000" stroke-width="0" stroke-dasharray="null" stroke-linejoin="null" stroke-linecap="null" d="m325.68423,145.68568c0,0 25.97141,4.14427 25.97141,4.14427c0,0 36.35998,-5.52569 36.35998,-5.52569c0,0 -62.33139,1.38142 -62.33139,1.38142z" id="svg_11" transform="rotate(86.59153747558594 356.84988403320307,147.0670928955078) " opacity="0.5" stroke="#000000"/>
  <ellipse fill="#ffffff" stroke-dasharray="null" stroke-linejoin="null" stroke-linecap="null" cx="237.12502" cy="149" id="svg_12" rx="15.375" ry="33" stroke="#000000"/>
  <ellipse fill="#ffffff" stroke-width="0" stroke-dasharray="null" stroke-linejoin="null" stroke-linecap="null" cx="252.12502" cy="151.625" rx="15.375" ry="20.625" id="svg_14" stroke="#000000"/>
  <path fill="#000000" stroke="#000000" stroke-width="0" stroke-dasharray="null" stroke-linejoin="null" stroke-linecap="null" d="m347.94924,182.63281c0,0 7.5,6.75 7.5,6.75c0,0 10.5,-9 10.5,-9c0,0 -18,2.25 -18,2.25z" id="svg_8"/>
  <path fill="#ffffff" stroke-width="0" stroke-dasharray="null" stroke-linejoin="null" stroke-linecap="null" d="m341.40209,185.03726l14.9021,-10.33594l14.9021,10.33594l-29.8042,0z" id="svg_10" transform="rotate(-176.0072021484375 356.30419921875,179.8692932128906) " stroke="#000000"/>
  <path fill="#ffffff" stroke="#000000" stroke-width="null" stroke-dasharray="null" stroke-linejoin="null" stroke-linecap="null" d="m345.38834,199.41585c0,0 10.66203,4.50508 15.76778,1.35152c5.10576,-3.15356 5.03067,-4.12966 5.00883,-4.14604c-0.02184,-0.01638 -20.77661,2.79451 -20.77661,2.79451l0,0.00001z" id="svg_20" transform="rotate(7.608928680419922 355.7784423828128,199.25451660156244) "/>
  <path fill="#ffffff" stroke="#000000" stroke-width="null" stroke-dasharray="null" stroke-linejoin="null" stroke-linecap="null" d="m353.8621,196.42297c0,0 -0.52559,0.67576 2.62796,0.75085c3.15356,0.07508 3.22864,-0.75085 3.30373,-0.82593c0.07508,-0.07508 4.43,1.05119 4.40815,1.0348c-0.02184,-0.01638 1.37337,0.46689 2.95015,0.46689c1.57678,0 -9.23542,2.32763 -13.89067,1.65186c-4.65525,-0.67576 -7.50847,-1.72695 -7.53031,-1.74333c-0.02184,-0.01638 4.37676,-0.5843 6.40404,-0.95972c2.02729,-0.37542 1.72695,-0.37542 1.72695,-0.37542z" id="svg_19"/>
  <ellipse fill="#000000" stroke-width="0" stroke-dasharray="null" stroke-linejoin="null" stroke-linecap="null" cx="343.22265" cy="52.55081" rx="62.58985" ry="31.21875" id="svg_22" stroke="#000000"/>
  <rect stroke="#000000" fill="#600000" stroke-dasharray="null" stroke-linejoin="null" stroke-linecap="null" x="252.06597" y="291.06751" width="81.25606" height="6.93305" transform="rotate(89.35145568847656 292.69400024414057,294.5340270996094) " id="svg_63"/>
  <rect stroke="#000000" fill="#600000" stroke-dasharray="null" stroke-linejoin="null" stroke-linecap="null" x="296.24909" y="292.66149" width="84.81833" height="6.93305" transform="rotate(89.35145568847656 338.65826416015625,296.12802124023443) " id="svg_66"/>
  <path stroke="#000000" fill="#000000" stroke-dasharray="null" stroke-linejoin="null" stroke-linecap="null" d="m333.95616,261.88398c0,0 -64.95601,2.26927 -64.56233,1.81542c0.39367,-0.45386 -7.87345,8.16936 13.77855,20.4234c21.652,12.25404 10.23549,37.21597 39.36728,12.25404c29.13178,-24.96193 25.41218,-35.86732 16.75137,-34.95961c-8.6608,0.9077 -5.33487,0.46675 -5.33487,0.46675z" id="svg_25"/>
  <path stroke="#000000" opacity="0.5" id="svg_29" d="m7.55501,482.18666l3.875,-482.00001l12.91665,0l3.87499,482.00001l-20.66664,0z" stroke-linecap="null" stroke-linejoin="null" stroke-dasharray="null" stroke-width="0" fill="#3f3f3f"/>
  <path stroke="#000000" transform="rotate(179.4684295654297 547.5740966796875,230.09924316406253) " id="svg_31" d="m546.67531,461.46654l0.33703,-462.73459l1.12345,0l0.33703,462.73459l-1.79751,0l0,0z" stroke-linecap="null" stroke-linejoin="null" stroke-dasharray="null" stroke-width="0" fill="#3f3f3f"/>
  <path stroke="#000000" id="svg_38" d="m27.55501,476.51998l0.37499,-472l1.24998,0l0.37499,472l-1.99997,0l0.00001,0z" stroke-linecap="null" stroke-linejoin="null" stroke-dasharray="null" stroke-width="0" fill="#3f3f3f"/>
  <path stroke="#000000" id="svg_6" d="m4.555,395.51999l118.31222,-61l394.37554,0l118.31222,61l-630.99998,0z" stroke-linecap="null" stroke-linejoin="null" stroke-dasharray="null" stroke-width="0" fill="#3f3f3f"/>
  <ellipse id="svg_9" cy="274" cx="-151" stroke-linecap="null" stroke-linejoin="null" stroke-dasharray="null" stroke-width="0" stroke="#000000" fill="#ffffff"/>
  <ellipse stroke="#000000" id="svg_13" ry="11" rx="59" cy="357.25" cx="455" stroke-linecap="null" stroke-linejoin="null" stroke-dasharray="null" stroke-width="0" fill="#ffffff"/>
  <ellipse ry="11" rx="91" id="svg_7" cy="354.57227" cx="454.72461" stroke-linecap="null" stroke-linejoin="null" stroke-dasharray="null" stroke="#000000" fill="#ffffff"/>
  <ellipse opacity="0.5" stroke="#000000" id="svg_15" ry="7" rx="57" cy="354.02148" cx="453" stroke-linecap="null" stroke-linejoin="null" stroke-dasharray="null" fill="url(#svg_94)"/>
  <ellipse stroke="#4f3c3c" id="svg_18" stroke-width="0" ry="8" rx="24" cy="260.88672" cx="136.89844" stroke-linecap="null" stroke-linejoin="null" stroke-dasharray="null" fill="#282828"/>
  <rect id="svg_30" height="58" width="48" y="266" x="111" stroke-linecap="null" stroke-linejoin="null" stroke-dasharray="null" stroke-width="null" stroke="#4f3c3c" fill="#565656"/>
  <ellipse stroke-width="0" stroke="#4f3c3c" ry="42" rx="19.5" id="svg_16" cy="293" cx="104.5" stroke-linecap="null" stroke-linejoin="null" stroke-dasharray="null" fill="#7f7f7f"/>
  <path stroke="#000000" transform="rotate(179.4684295654297 103.0115966796875,232.53674316406244) " d="m102.11281,463.90404l0.33703,-462.73459l1.12345,0l0.33703,462.73459l-1.79751,0l0,0z" stroke-linecap="null" stroke-linejoin="null" stroke-dasharray="null" stroke-width="0" fill="#3f3f3f" id="svg_115"/>
  <path fill="#3f3f3f" stroke-width="0" stroke-dasharray="null" stroke-linejoin="null" stroke-linecap="null" d="m-22.19776,196.79405l18.85855,-44.90571l167.10965,0.09805c16.54845,13.7522 1.59643,38.14463 18.14489,51.89683l-233.27487,-10.64022l29.16178,3.55105z" id="svg_117" transform="rotate(86.85797882080078 65.27789306640628,177.8857727050781) " stroke="#000000"/>
  <ellipse id="svg_33" stroke-width="0" stroke="#4f3c3c" ry="42" rx="19.5" cy="294" cx="166.5" stroke-linecap="null" stroke-linejoin="null" stroke-dasharray="null" fill="#7f7f7f"/>
  <ellipse stroke="#4f3c3c" ry="30" rx="30" id="svg_34" cy="341" cx="136" stroke-linecap="null" stroke-linejoin="null" stroke-dasharray="null" stroke-width="0" fill="#565656"/>
  <path stroke="#000000" transform="rotate(-179.37796020507812 136.30871582031253,239.6224365234375) " id="svg_40" d="m131.85616,243.74164c0,0 -3.63137,-6.687 2.15193,-6.6227c5.7833,0.0643 10.0199,-4.17937 6.72477,0.83587c-3.29514,5.01525 -5.17807,4.43657 -6.59027,5.01525c-1.4122,0.57868 -2.28642,0.77158 -2.28642,0.77158l-0.00001,0z" stroke-linecap="null" stroke-linejoin="null" stroke-dasharray="null" stroke-width="0" fill="#000000"/>
  <rect id="svg_42" height="4" width="628" y="397.33333" x="6.66667" stroke-linecap="null" stroke-linejoin="null" stroke-dasharray="null" stroke-width="0" stroke="#000000" fill="#000000"/>
  <rect stroke="#000000" id="svg_43" height="81.33334" width="20" y="400.00001" x="33.33333" stroke-linecap="null" stroke-linejoin="null" stroke-dasharray="null" stroke-width="0" fill="#3f3f3f"/>
  <rect stroke="#000000" id="svg_45" height="81.33334" width="9.33333" y="400.00001" x="52" stroke-linecap="null" stroke-linejoin="null" stroke-dasharray="null" stroke-width="0" fill="#000000"/>
  <rect id="svg_46" stroke="#000000" height="81.33334" width="20" y="397.33334" x="604" stroke-linecap="null" stroke-linejoin="null" stroke-dasharray="null" stroke-width="0" fill="#3f3f3f"/>
  <rect stroke="#000000" id="svg_47" height="77.33334" width="9.33333" y="400.00001" x="596" stroke-linecap="null" stroke-linejoin="null" stroke-dasharray="null" stroke-width="0" fill="#000000"/>
  <rect stroke="#000000" id="svg_48" height="76.08334" width="8" y="401.33334" x="112.83333" stroke-linecap="null" stroke-linejoin="null" stroke-dasharray="null" stroke-width="0" fill="#3f3f3f"/>
  <rect stroke="#000000" id="svg_49" height="81.33334" width="4" y="400.25001" x="114.33333" stroke-linecap="null" stroke-linejoin="null" stroke-dasharray="null" stroke-width="0" fill="#000000"/>
  <ellipse stroke="#000000" id="svg_53" ry="26.66667" rx="30.00001" cy="144" cx="311.33337" opacity="0.2" stroke-linecap="null" stroke-linejoin="null" stroke-dasharray="null" stroke-width="null" fill="#000000"/>
  <ellipse stroke="#000000" id="svg_54" ry="26" rx="24.66667" cy="143.33333" cx="399.33336" opacity="0.2" stroke-linecap="null" stroke-linejoin="null" stroke-dasharray="null" stroke-width="null" fill="#000000"/>
  <ellipse stroke="#000000" ry="10.66666" rx="8.66666" id="svg_51" cy="136.00001" cx="302.00001" opacity="0.2" stroke-linecap="null" stroke-linejoin="null" stroke-dasharray="null" stroke-width="null" fill="#ffffff"/>
  <ellipse id="svg_55" stroke="#000000" ry="10.66666" rx="8.66666" cy="137.33334" cx="388.66667" opacity="0.2" stroke-linecap="null" stroke-linejoin="null" stroke-dasharray="null" stroke-width="null" fill="#ffffff"/>
  <path stroke="#000000" transform="rotate(59.96553421020508 144.02551269531247,233.6370849609375) " d="m139.57295,237.75628c0,0 -3.63137,-6.687 2.15193,-6.6227c5.7833,0.0643 10.0199,-4.17937 6.72477,0.83587c-3.29514,5.01525 -5.17807,4.43657 -6.59027,5.01525c-1.4122,0.57868 -2.28642,0.77158 -2.28642,0.77158l-0.00001,0z" stroke-linecap="null" stroke-linejoin="null" stroke-dasharray="null" stroke-width="0" fill="#000000" id="svg_17"/>
  <path stroke="#000000" transform="rotate(-156.60513305664062 154.23840332031253,239.61364746093753) " d="m149.78585,243.73284c0,0 -3.63137,-6.687 2.15193,-6.6227c5.7833,0.0643 10.0199,-4.17937 6.72477,0.83587c-3.29514,5.01525 -5.17807,4.43657 -6.59027,5.01525c-1.4122,0.57868 -2.28642,0.77158 -2.28642,0.77158l-0.00001,0z" stroke-linecap="null" stroke-linejoin="null" stroke-dasharray="null" stroke-width="0" fill="#000000" id="svg_23"/>
  <path stroke="#000000" transform="rotate(63.05271530151367 123.6260986328125,230.8157958984375) " d="m119.17355,234.93499c0,0 -3.63138,-6.687 2.15192,-6.6227c5.78331,0.0643 10.01991,-4.17937 6.72478,0.83587c-3.29515,5.01525 -5.17808,4.43657 -6.59028,5.01525c-1.4122,0.57868 -2.28641,0.77158 -2.28641,0.77158l-0.00001,0z" stroke-linecap="null" stroke-linejoin="null" stroke-dasharray="null" stroke-width="0" fill="#000000" id="svg_26"/>
  <path stroke="#000000" transform="rotate(22.82932472229004 124.41126251220686,241.65563964843753) " d="m119.95871,245.77484c0,0 -3.63137,-6.687 2.15193,-6.6227c5.7833,0.0643 10.0199,-4.17937 6.72477,0.83587c-3.29514,5.01525 -5.17807,4.43657 -6.59027,5.01525c-1.4122,0.57868 -2.28642,0.77158 -2.28642,0.77158l-0.00001,0z" stroke-linecap="null" stroke-linejoin="null" stroke-dasharray="null" stroke-width="0" fill="#000000" id="svg_28"/>
  <rect stroke="#000000" height="76.08334" width="8" y="401.33334" x="506.16665" stroke-linecap="null" stroke-linejoin="null" stroke-dasharray="null" stroke-width="0" fill="#3f3f3f" id="svg_35"/>
  <rect height="81.33334" width="4" y="400.25001" x="511.66667" stroke-linecap="null" stroke-linejoin="null" stroke-dasharray="null" stroke-width="0" fill="#000000" id="svg_32" stroke="#000000"/>
  <path fill="#000000" stroke-dasharray="null" stroke-linejoin="null" stroke-linecap="null" d="m278.02639,266.24336c0,0 55.2396,2.26927 54.90481,1.81542c-0.33478,-0.45386 6.6957,8.16936 -11.7175,20.4234c-18.4132,12.25404 -8.70442,37.21597 -33.47855,12.25404c-24.77412,-24.96193 -21.61091,-35.86732 -14.24563,-34.95961c7.36528,0.9077 4.53686,0.46675 4.53686,0.46675l0.00001,0z" id="svg_36" stroke="#000000"/>
  <rect fill="#000000" stroke-width="null" stroke-dasharray="null" stroke-linejoin="null" stroke-linecap="null" x="264" y="264" width="5" height="60" id="svg_41" stroke="#000000"/>
  <rect fill="#ffffff" stroke-width="0" stroke-dasharray="null" stroke-linejoin="null" stroke-linecap="null" x="276.69923" y="318.04429" width="3.13278" height="33.81769" id="svg_44" transform="rotate(-44.443748474121094 278.26562500000006,334.95312499999994) " stroke="#000000"/>
  <rect fill="#000000" stroke-width="null" stroke-dasharray="null" stroke-linejoin="null" stroke-linecap="null" x="343" y="264.10156" width="5" height="61.89844" id="svg_50" stroke="#000000"/>
  <rect fill="#ffffff" stroke-width="0" stroke-dasharray="null" stroke-linejoin="null" stroke-linecap="null" x="363.78437" y="307.68772" width="5" height="36.92646" transform="rotate(-96.91122436523438 366.28436279296875,326.15093994140625) " id="svg_52" stroke="#000000"/>
  <rect fill="#000000" stroke-width="null" stroke-dasharray="null" stroke-linejoin="null" stroke-linecap="null" x="283.57813" y="277.26563" width="47" height="58" id="svg_56" stroke="#000000"/>
  <rect fill="#600000" stroke="#000000" stroke-dasharray="null" stroke-linejoin="null" stroke-linecap="null" x="245.06833" y="401.1309" width="124.3125" height="12.9375" id="svg_70"/>
  <rect fill="#000000" stroke-width="null" stroke-dasharray="null" stroke-linejoin="null" stroke-linecap="null" x="287" y="401" width="12" height="49.92188" id="svg_57" stroke="#000000"/>
  <rect stroke="#000000" fill="#600000" stroke-dasharray="null" stroke-linejoin="null" stroke-linecap="null" x="326.06833" y="414.08601" width="10.125" height="65.23242" id="svg_85"/>
  <rect fill="#000000" stroke-width="null" stroke-dasharray="null" stroke-linejoin="null" stroke-linecap="null" x="321" y="399.00002" width="9" height="52.79688" id="svg_58" stroke="#000000"/>
  <ellipse fill="#000000" stroke-width="null" stroke-dasharray="null" stroke-linejoin="null" stroke-linecap="null" cx="292.65625" cy="403.5" id="svg_61" rx="8.65625" ry="6.5" stroke="#000000"/>
  <ellipse stroke="#000000" ry="38.22222" rx="21.33334" id="svg_72" cy="111.11111" cx="590.22221" stroke-linecap="null" stroke-linejoin="null" stroke-dasharray="null" stroke-width="null" fill="#000000"/>
  <ellipse opacity="0.8" id="svg_73" stroke="#000000" ry="32.88889" rx="18.66667" cy="111.11111" cx="587.55555" stroke-linecap="null" stroke-linejoin="null" stroke-dasharray="null" stroke-width="null" fill="#ffffff"/>
  <rect stroke="#000000" transform="rotate(-10.774657249450684 582.288330078125,98.71197509765628) " id="svg_74" height="29.25" width="1.11411" y="84.08697" x="581.7313" opacity="0.8" stroke-linecap="null" stroke-linejoin="null" stroke-dasharray="null" stroke-width="null" fill="#000000"/>
  <rect stroke="#000000" id="svg_75" height="19.2832" width="1.10156" y="94.16894" x="584.17286" stroke-linecap="null" stroke-linejoin="null" stroke-dasharray="null" stroke-width="null" fill="#000000"/>
  <rect stroke="#000000" id="svg_76" height="4.33301" width="1.33887" y="81.11719" x="585.35939" stroke-linecap="null" stroke-linejoin="null" stroke-dasharray="null" stroke-width="null" fill="#000000"/>
  <rect id="svg_77" stroke="#000000" height="4.33301" width="1.33887" y="136.17187" x="584.41017" stroke-linecap="null" stroke-linejoin="null" stroke-dasharray="null" stroke-width="null" fill="#000000"/>
  <rect stroke="#000000" id="svg_78" height="1.72266" width="4.18652" y="112.2832" x="599.17584" stroke-linecap="null" stroke-linejoin="null" stroke-dasharray="null" stroke-width="null" fill="#000000"/>
  <rect stroke="#000000" id="svg_79" height="1.72266" width="3.47461" y="111.14941" x="571.30572" stroke-linecap="null" stroke-linejoin="null" stroke-dasharray="null" stroke-width="null" fill="#000000"/>
  <rect stroke="#000000" fill="#600000" stroke-dasharray="null" stroke-linejoin="null" stroke-linecap="null" x="217.90268" y="291.49786" width="81.23908" height="6.93305" id="svg_59" transform="rotate(89.35145568847656 258.52221679687494,294.9643859863281) "/>
  <ellipse fill="#000000" stroke-width="null" stroke-dasharray="null" stroke-linejoin="null" stroke-linecap="null" cx="325.84375" cy="404.625" rx="8.65625" ry="6.5" stroke="#000000" id="svg_80"/>
  <rect stroke="#000000" fill="#600000" stroke-dasharray="null" stroke-linejoin="null" stroke-linecap="null" x="255.19333" y="413.90632" width="13.5" height="65.41211" id="svg_82"/>
  <rect stroke="#000000" fill="#600000" stroke-dasharray="null" stroke-linejoin="null" stroke-linecap="null" x="341.81833" y="414.21783" width="13.5" height="67.35059" id="svg_83"/>
  <rect stroke="#000000" fill="#600000" stroke-dasharray="null" stroke-linejoin="null" stroke-linecap="null" x="271.50583" y="414.02449" width="10.125" height="65.94433" id="svg_84"/>
  <ellipse fill="#000000" stroke-width="null" stroke-dasharray="null" stroke-linejoin="null" stroke-linecap="null" cx="293.22656" cy="468.00781" rx="10.72656" ry="11.00781" id="svg_81" stroke="#000000"/>
  <image x="433.37155" y="311.42652" width="38.71219" height="60.53877" id="svg_93" xlink:href="http://res.cloudinary.com/kboyle/image/upload/v1530430046/apple-core.png"/>
  <image x="375.37155" y="283.42652" width="38.71219" height="60.53877" xlink:href="http://res.cloudinary.com/kboyle/image/upload/v1530430046/apple-core.png" id="svg_95" transform="rotate(81.38482666015625 394.7276611328125,313.6958923339843) "/>
  <rect fill="#ffffff" stroke-width="0" stroke-dasharray="null" stroke-linejoin="null" stroke-linecap="null" x="343.42243" y="325.48698" width="5" height="6.42236" transform="rotate(-96.91122436523438 345.9224243164062,328.69815063476557) " id="svg_97" stroke="#000000"/>
  <path fill="#ffffff" stroke="#000000" stroke-width="0" stroke-dasharray="null" stroke-linejoin="null" stroke-linecap="null" d="m384.34133,323.64799c0,0 -6.16992,3.79687 4.9834,2.61035c11.15332,-1.18652 11.62793,-6.64453 11.48289,-6.84623c-0.14504,-0.20171 -1.04149,-5.73092 -1.18653,-5.93262c-0.14503,-0.2017 0.61965,4.47319 -1.75339,6.13432c-2.37305,1.66113 -4.03418,1.18652 -4.17922,0.98482c-0.14504,-0.2017 -1.99071,1.86284 -2.13574,1.66113c-0.14504,-0.2017 0.14503,-2.40865 0,-2.61035c-0.14504,-0.2017 1.80617,3.76127 4.17921,-1.22212l2.22801,-5.18511" id="svg_98"/>
  <path fill="#ffffff" stroke="#4f3c3c" stroke-width="0" stroke-dasharray="null" stroke-linejoin="null" stroke-linecap="null" d="m286.30018,344.45256c0,0 -1.26563,8.22656 3.16406,9.17578c4.42969,0.94922 8.85938,-4.74609 8.59044,-4.94865c-0.26893,-0.20256 -0.68029,-2.01229 -0.94922,-2.21484c-0.26893,-0.20256 -3.52794,-2.01229 -3.79688,-2.21484c-0.26893,-0.20256 -3.21154,-1.06307 -3.48047,-1.26563" id="svg_107" transform="rotate(-9.740124702453613 292.099578857422,348.3596801757813) "/>
  <path fill="#ffffff" stroke="#4f3c3c" stroke-width="0" stroke-dasharray="null" stroke-linejoin="null" stroke-linecap="null" d="m290.72987,344.13615l5.10997,-2.101l-5.10997,2.101z" id="svg_108"/>
  <path fill="#ffffff" stroke-width="0" stroke-dasharray="null" stroke-linejoin="null" stroke-linecap="null" d="m283.61834,351.69768l8.02323,1.84766c0,0 0.1063,0.38007 3.60826,-0.21096c3.50195,-0.59103 2.25125,-1.18206 0.75042,-1.18206c-1.50084,0 -4.00223,0.63649 -4.87772,0.31825c-0.87549,-0.31825 -4.00223,-0.59103 -4.75265,-0.68196c-0.75042,-0.09093 -1.00056,-0.68196 -1.10686,-0.65285c-0.1063,0.0291 -1.64467,0.56193 -1.64467,0.56193l-0.00001,-0.00001z" id="svg_110" transform="rotate(51.08281707763672 290.56201171874983,352.4001770019532) " stroke="#4f3c3c"/>
  <path fill="#ffffff" stroke-width="0" stroke-dasharray="null" stroke-linejoin="null" stroke-linecap="null" d="m287.51686,354.95079l8.02323,-2.9159c0,0 0.1063,-0.59981 3.60825,0.33293c3.50196,0.93274 2.25126,1.86548 0.75042,1.86548c-1.50083,0 -4.00223,-1.0045 -4.87772,-0.50225c-0.87548,0.50225 -4.00223,0.93274 -4.75264,1.07624c-0.75042,0.1435 -1.00056,1.07624 -1.10687,1.0303c-0.1063,-0.04592 -1.64467,-0.8868 -1.64467,-0.8868z" transform="rotate(51.08281707763672 294.4605407714843,353.8421325683594) " id="svg_111" stroke="#4f3c3c"/>
  <path fill="#ffffff" stroke-width="0" stroke-dasharray="null" stroke-linejoin="null" stroke-linecap="null" d="m291.30523,353.31272l8.02323,-2.45462c0,0 0.1063,-0.50491 3.60825,0.28027c3.50196,0.78518 2.25126,1.57037 0.75042,1.57037c-1.50083,0 -4.00223,-0.8456 -4.87772,-0.42279c-0.87548,0.42279 -4.00223,0.78518 -4.75264,0.90597c-0.75042,0.1208 -1.00056,0.90599 -1.10687,0.86732c-0.1063,-0.03867 -1.64467,-0.74652 -1.64467,-0.74652z" transform="rotate(51.08281707763672 298.24890136718733,352.37945556640636) " id="svg_112" stroke="#4f3c3c"/>
  <path fill="#ffffff" stroke-width="0" stroke-dasharray="null" stroke-linejoin="null" stroke-linecap="null" d="m292.98021,351.41301l8.02323,-2.48058c0,0 0.1063,-0.51025 3.60825,0.28323c3.50196,0.79349 2.25126,1.58698 0.75041,1.58698c-1.50083,0 -4.00223,-0.85454 -4.87772,-0.42726c-0.87548,0.42726 -4.00223,0.79349 -4.75264,0.91555c-0.75041,0.12208 -1.00056,0.91557 -1.10687,0.87649c-0.1063,-0.03907 -1.64466,-0.75441 -1.64466,-0.75441z" transform="rotate(51.08281707763672 299.9238891601562,350.4698486328126) " id="svg_113" stroke="#4f3c3c"/>
  <path fill="#ffffff" stroke-width="0" stroke-dasharray="null" stroke-linejoin="null" stroke-linecap="null" d="m292.65375,346.95658c0,0 -1.96674,-3.15196 1.67537,-3.9554c3.6421,-0.80344 4.88042,-0.80344 4.8359,-0.8079c-0.04452,-0.00446 1.21,0.49889 0.84578,1.24052c-0.36421,0.74164 -1.89389,0.92705 -1.93841,0.92259c-0.04452,-0.00446 -2.50495,-0.18095 -2.54947,-0.18541c-0.04452,-0.00446 -1.19379,0.6843 -1.26664,1.42594c-0.07284,0.74164 -0.72842,0.86524 -0.77294,0.86078c-0.04452,-0.00446 -1.55801,0.06627 -1.60252,0.0618c-0.04452,-0.00446 0.77294,0.43709 0.77294,0.43709l-0.00001,-0.00001z" id="svg_114" stroke="#000000" transform="rotate(29.462491989135742 295.9781494140625,344.57489013671875) "/>
  <rect fill="#ffffff" stroke-width="null" stroke-dasharray="null" stroke-linejoin="null" stroke-linecap="null" x="288.26562" y="451.20311" width="9.04688" height="9" id="svg_120" stroke="#000000"/>
  <rect fill="#ffffff" stroke-width="null" stroke-dasharray="null" stroke-linejoin="null" stroke-linecap="null" x="322.4375" y="451.62499" width="6.9375" height="9" id="svg_121" stroke="#000000"/>
  <ellipse fill="#000000" stroke-width="null" stroke-dasharray="null" stroke-linejoin="null" stroke-linecap="null" cx="336.46875" cy="464" rx="16" ry="5.3125" id="svg_62" stroke="#000000"/>
  <path stroke="#000000" transform="rotate(-3.53952693939209 129.38986206054727,232.19123840332009) " id="svg_37" d="m127.83231,211.22605c0,0 1.6875,25.5895 1.6875,32.26502c0,6.67552 0,10.01328 -0.31693,9.63665c-0.31693,-0.37663 2.42631,-33.55727 1.58256,-35.78245" stroke-linecap="null" stroke-linejoin="null" stroke-dasharray="null" fill="#00007f"/>
  <polygon id="svg_67" stroke="#000000" transform="rotate(170.4022674560547 127.82197570800783,209.7396240234375) " stroke-width="0" points="138.3974151611328,209.73960876464844 130.31849670410156,222.9643096923828 117.24653625488281,217.91293334960938 117.24653625488281,201.56629943847656 130.31849670410156,196.51492309570312 138.3974151611328,209.73960876464844 " fill="#aa2f2f"/>
  <polygon stroke="#000000" transform="rotate(170.4022674560547 129.50947570800784,209.1771240234375) " stroke-width="0" points="140.0849151611328,209.17710876464844 132.00599670410156,222.4018096923828 118.93403625488281,217.35043334960938 118.93403625488281,201.00379943847656 132.00599670410156,195.95242309570312 140.0849151611328,209.17710876464844 " fill="#721010" id="svg_65"/>
  <path id="svg_71" stroke="#000000" transform="rotate(24.101037979125977 150.06172180175784,234.7224731445312) " d="m148.50419,213.7573c0,0 1.6875,25.58951 1.6875,32.26503c0,6.67552 0,10.01328 -0.31694,9.63665c-0.31693,-0.37663 2.42631,-33.55727 1.58256,-35.78245" stroke-linecap="null" stroke-linejoin="null" stroke-dasharray="null" fill="#00007f"/>
  <polygon stroke="#000000" id="svg_68" transform="rotate(-100.2221450805664 158.65655517578128,213.62548828125003) " stroke-width="0" points="173.1624298095703,213.62547302246094 162.0809326171875,227.07688903808594 144.15069580078125,221.9389190673828 144.15069580078125,205.3120880126953 162.0809326171875,200.174072265625 173.1624298095703,213.62547302246094 " fill="#bc3636"/>
  <polygon stroke="#000000" id="svg_69" transform="rotate(-173.22177124023438 157.43652343750003,216.0619049072266) " stroke-width="0" points="168.7567138671875,216.0618896484375 160.10885620117188,229.28659057617188 146.11631774902344,224.23521423339844 146.11631774902344,207.88858032226562 160.10885620117188,202.8372039794922 168.7567138671875,216.0618896484375 " fill="#750404"/>
 </g>
</svg>
