<svg width="640.0000000000001" height="479.99999999999994" xmlns="http://www.w3.org/2000/svg" xmlns:svg="http://www.w3.org/2000/svg">
 <!-- Created with SVG-edit - http://svg-edit.googlecode.com/ -->
 <g>
  <title>Layer 1</title>
  <rect id="svg_2" height="480.00001" width="642.75002" y="1.12499" x="1.83335" stroke-width="0" fill="#7f7f7f" stroke="#000000"/>
  <rect stroke="#000000" id="svg_24" height="61" width="14" y="207" x="299.66667" stroke-linecap="null" stroke-linejoin="null" stroke-dasharray="null" fill="#ffffff"/>
  <ellipse stroke="#000000" ry="45.5625" rx="108.73829" id="svg_21" cy="89.50393" cx="328.91796" stroke-linecap="null" stroke-linejoin="null" stroke-dasharray="null" stroke-width="0" fill="#000000"/>
  <ellipse stroke="#000000" ry="78.75" rx="102" id="svg_3" cy="140" cx="341.00002" stroke-width="0" fill="#ffffff"/>
  <ellipse ry="22.5" rx="25.5" id="svg_4" cy="140.5" cx="311.25002" stroke-linecap="null" stroke-linejoin="null" stroke-dasharray="null" stroke-width="0" stroke="#000000" fill="#3f3f3f"/>
  <ellipse stroke="#000000" id="svg_5" ry="22.5" rx="22.5" cy="139.75" cx="399.25002" stroke-linecap="null" stroke-linejoin="null" stroke-dasharray="null" stroke-width="0" fill="#3f3f3f"/>
  <path stroke="#000000" opacity="0.5" transform="rotate(86.59153747558594 356.84988403320307,147.0670928955078) " id="svg_11" d="m325.68423,145.68568c0,0 25.97141,4.14427 25.97141,4.14427c0,0 36.35998,-5.52569 36.35998,-5.52569c0,0 -62.33139,1.38142 -62.33139,1.38142z" stroke-linecap="null" stroke-linejoin="null" stroke-dasharray="null" stroke-width="0" fill="#000000"/>
  <ellipse stroke="#000000" ry="33" rx="15.375" id="svg_12" cy="149" cx="237.12502" stroke-linecap="null" stroke-linejoin="null" stroke-dasharray="null" fill="#ffffff"/>
  <ellipse stroke="#000000" id="svg_14" ry="20.625" rx="15.375" cy="151.625" cx="252.12502" stroke-linecap="null" stroke-linejoin="null" stroke-dasharray="null" stroke-width="0" fill="#ffffff"/>
  <path id="svg_8" d="m347.94924,182.63281c0,0 7.5,6.75 7.5,6.75c0,0 10.5,-9 10.5,-9c0,0 -18,2.25 -18,2.25z" stroke-linecap="null" stroke-linejoin="null" stroke-dasharray="null" stroke-width="0" stroke="#000000" fill="#000000"/>
  <path stroke="#000000" transform="rotate(-176.0072021484375 356.30419921875,179.8692932128906) " id="svg_10" d="m341.40209,185.03726l14.9021,-10.33594l14.9021,10.33594l-29.8042,0z" stroke-linecap="null" stroke-linejoin="null" stroke-dasharray="null" stroke-width="0" fill="#ffffff"/>
  <path transform="rotate(7.608928680419922 355.7784423828128,199.25451660156244) " id="svg_20" d="m345.38834,199.41585c0,0 10.66203,4.50508 15.76778,1.35152c5.10576,-3.15356 5.03067,-4.12966 5.00883,-4.14604c-0.02184,-0.01638 -20.77661,2.79451 -20.77661,2.79451l0,0.00001z" stroke-linecap="null" stroke-linejoin="null" stroke-dasharray="null" stroke-width="null" stroke="#000000" fill="#ffffff"/>
  <path id="svg_19" d="m353.8621,196.42297c0,0 -0.52559,0.67576 2.62796,0.75085c3.15356,0.07508 3.22864,-0.75085 3.30373,-0.82593c0.07508,-0.07508 4.43,1.05119 4.40815,1.0348c-0.02184,-0.01638 1.37337,0.46689 2.95015,0.46689c1.57678,0 -9.23542,2.32763 -13.89067,1.65186c-4.65525,-0.67576 -7.50847,-1.72695 -7.53031,-1.74333c-0.02184,-0.01638 4.37676,-0.5843 6.40404,-0.95972c2.02729,-0.37542 1.72695,-0.37542 1.72695,-0.37542z" stroke-linecap="null" stroke-linejoin="null" stroke-dasharray="null" stroke-width="null" stroke="#000000" fill="#ffffff"/>
  <ellipse stroke="#000000" id="svg_22" ry="31.21875" rx="62.58985" cy="52.55081" cx="343.22265" stroke-linecap="null" stroke-linejoin="null" stroke-dasharray="null" stroke-width="0" fill="#000000"/>
  <path id="svg_25" d="m333.95616,261.88398c0,0 -64.95601,2.26927 -64.56233,1.81542c0.39367,-0.45386 -7.87345,8.16936 13.77855,20.4234c21.652,12.25404 10.23549,37.21597 39.36728,12.25404c29.13178,-24.96193 25.41218,-35.86732 16.75137,-34.95961c-8.6608,0.9077 -5.33487,0.46675 -5.33487,0.46675z" stroke-linecap="null" stroke-linejoin="null" stroke-dasharray="null" fill="#000000" stroke="#000000"/>
  <path fill="#3f3f3f" stroke-width="0" stroke-dasharray="null" stroke-linejoin="null" stroke-linecap="null" d="m7.55501,482.18666l3.875,-482.00001l12.91665,0l3.87499,482.00001l-20.66664,0z" id="svg_29" opacity="0.5" stroke="#000000"/>
  <path fill="#3f3f3f" stroke-width="0" stroke-dasharray="null" stroke-linejoin="null" stroke-linecap="null" d="m546.67531,461.46654l0.33703,-462.73459l1.12345,0l0.33703,462.73459l-1.79751,0l0,0z" id="svg_31" transform="rotate(179.4684295654297 547.5740966796875,230.09924316406253) " stroke="#000000"/>
  <path fill="#3f3f3f" stroke-width="0" stroke-dasharray="null" stroke-linejoin="null" stroke-linecap="null" d="m27.55501,476.51998l0.37499,-472l1.24998,0l0.37499,472l-1.99997,0l0.00001,0z" id="svg_38" stroke="#000000"/>
  <path fill="#3f3f3f" stroke-width="0" stroke-dasharray="null" stroke-linejoin="null" stroke-linecap="null" d="m4.555,395.51999l118.31222,-61l394.37554,0l118.31222,61l-630.99998,0z" id="svg_6" stroke="#000000"/>
  <ellipse fill="#ffffff" stroke="#000000" stroke-width="0" stroke-dasharray="null" stroke-linejoin="null" stroke-linecap="null" cx="-151" cy="274" id="svg_9"/>
  <ellipse fill="#ffffff" stroke-width="0" stroke-dasharray="null" stroke-linejoin="null" stroke-linecap="null" cx="383" cy="352" rx="59" ry="11" id="svg_13" stroke="#000000"/>
  <ellipse fill="#ffffff" stroke="#000000" stroke-dasharray="null" stroke-linejoin="null" stroke-linecap="null" cx="380" cy="349" id="svg_7" rx="91" ry="11"/>
  <ellipse fill="#ffffff" stroke-dasharray="null" stroke-linejoin="null" stroke-linecap="null" cx="381" cy="349" rx="57" ry="7" id="svg_15" stroke="#000000" opacity="0.5"/>
  <ellipse fill="#000000" stroke-dasharray="null" stroke-linejoin="null" stroke-linecap="null" cx="135" cy="265" rx="24" ry="8" stroke-width="0" id="svg_18" stroke="#4f3c3c"/>
  <rect fill="#565656" stroke="#4f3c3c" stroke-width="null" stroke-dasharray="null" stroke-linejoin="null" stroke-linecap="null" x="111" y="266" width="48" height="58" id="svg_30"/>
  <ellipse fill="#7f7f7f" stroke-dasharray="null" stroke-linejoin="null" stroke-linecap="null" cx="104.5" cy="293" id="svg_16" rx="19.5" ry="42" stroke="#4f3c3c" stroke-width="0"/>
  <ellipse fill="#7f7f7f" stroke-dasharray="null" stroke-linejoin="null" stroke-linecap="null" cx="166.5" cy="294" rx="19.5" ry="42" stroke="#4f3c3c" stroke-width="0" id="svg_33"/>
  <ellipse fill="#565656" stroke-width="0" stroke-dasharray="null" stroke-linejoin="null" stroke-linecap="null" cx="136" cy="341" id="svg_34" rx="30" ry="30" stroke="#4f3c3c"/>
  <path fill="#000000" stroke="#000000" stroke-width="0" stroke-dasharray="null" stroke-linejoin="null" stroke-linecap="null" d="m124.82031,264.5625c0,0 -14,-44 -32,-70c-18,-26 16,15 17,29c1,14 15,41 15,41z" id="svg_39"/>
  <path fill="#000000" stroke-width="0" stroke-dasharray="null" stroke-linejoin="null" stroke-linecap="null" d="m101.95577,203.05706c0,0 -3.63137,-6.687 2.15193,-6.6227c5.7833,0.0643 10.0199,-4.17937 6.72477,0.83587c-3.29514,5.01525 -5.17807,4.43657 -6.59027,5.01525c-1.4122,0.57868 -2.28642,0.77158 -2.28642,0.77158l-0.00001,0z" id="svg_40" transform="rotate(171.84461975097656 106.40832519531251,198.93786621093747) " stroke="#000000"/>
  <rect fill="#000000" stroke="#000000" stroke-width="0" stroke-dasharray="null" stroke-linejoin="null" stroke-linecap="null" x="6.66667" y="397.33333" width="628" height="4" id="svg_42"/>
  <rect fill="#3f3f3f" stroke-width="0" stroke-dasharray="null" stroke-linejoin="null" stroke-linecap="null" x="33.33333" y="400.00001" width="20" height="81.33334" id="svg_43" stroke="#000000"/>
  <rect fill="#000000" stroke-width="0" stroke-dasharray="null" stroke-linejoin="null" stroke-linecap="null" x="52" y="400.00001" width="9.33333" height="81.33334" id="svg_45" stroke="#000000"/>
  <rect fill="#3f3f3f" stroke-width="0" stroke-dasharray="null" stroke-linejoin="null" stroke-linecap="null" x="604" y="397.33334" width="20" height="81.33334" stroke="#000000" id="svg_46"/>
  <rect fill="#000000" stroke-width="0" stroke-dasharray="null" stroke-linejoin="null" stroke-linecap="null" x="596" y="400.00001" width="9.33333" height="77.33334" id="svg_47" stroke="#000000"/>
  <rect fill="#3f3f3f" stroke-width="0" stroke-dasharray="null" stroke-linejoin="null" stroke-linecap="null" x="112.83333" y="401.33334" width="8" height="76.08334" id="svg_48" stroke="#000000"/>
  <rect fill="#000000" stroke-width="0" stroke-dasharray="null" stroke-linejoin="null" stroke-linecap="null" x="114.33333" y="400.25001" width="4" height="81.33334" id="svg_49" stroke="#000000"/>
  <ellipse fill="#000000" stroke-width="null" stroke-dasharray="null" stroke-linejoin="null" stroke-linecap="null" opacity="0.2" cx="311.33337" cy="144" rx="30.00001" ry="26.66667" id="svg_53" stroke="#000000"/>
  <ellipse fill="#000000" stroke-width="null" stroke-dasharray="null" stroke-linejoin="null" stroke-linecap="null" opacity="0.2" cx="399.33336" cy="143.33333" rx="24.66667" ry="26" id="svg_54" stroke="#000000"/>
  <ellipse fill="#ffffff" stroke-width="null" stroke-dasharray="null" stroke-linejoin="null" stroke-linecap="null" opacity="0.2" cx="302.00001" cy="136.00001" id="svg_51" rx="8.66666" ry="10.66666" stroke="#000000"/>
  <ellipse fill="#ffffff" stroke-width="null" stroke-dasharray="null" stroke-linejoin="null" stroke-linecap="null" opacity="0.2" cx="388.66667" cy="137.33334" rx="8.66666" ry="10.66666" stroke="#000000" id="svg_55"/>
  <path id="svg_17" fill="#000000" stroke-width="0" stroke-dasharray="null" stroke-linejoin="null" stroke-linecap="null" d="m86.04756,206.98577c0,0 -3.63137,-6.687 2.15193,-6.6227c5.7833,0.0643 10.0199,-4.17937 6.72477,0.83587c-3.29514,5.01525 -5.17807,4.43657 -6.59027,5.01525c-1.4122,0.57868 -2.28642,0.77158 -2.28642,0.77158l-0.00001,0z" transform="rotate(22.847639083862305 90.50012207031263,202.86657714843747) " stroke="#000000"/>
  <path id="svg_23" fill="#000000" stroke-width="0" stroke-dasharray="null" stroke-linejoin="null" stroke-linecap="null" d="m97.47335,198.17034c0,0 -3.63137,-6.687 2.15193,-6.6227c5.7833,0.0643 10.0199,-4.17937 6.72477,0.83587c-3.29514,5.01525 -5.17807,4.43657 -6.59027,5.01525c-1.4122,0.57868 -2.28642,0.77158 -2.28642,0.77158l-0.00001,0z" transform="rotate(140.5535125732422 101.92590332031251,194.0511474609375) " stroke="#000000"/>
  <path id="svg_26" fill="#000000" stroke-width="0" stroke-dasharray="null" stroke-linejoin="null" stroke-linecap="null" d="m84.13156,199.33929c0,0 -3.63138,-6.687 2.15192,-6.6227c5.78331,0.0643 10.01991,-4.17937 6.72478,0.83587c-3.29515,5.01525 -5.17808,4.43657 -6.59028,5.01525c-1.4122,0.57868 -2.28641,0.77158 -2.28641,0.77158l-0.00001,0z" transform="rotate(63.05271530151367 88.58410644531246,195.2200927734375) " stroke="#000000"/>
  <path id="svg_27" fill="#000000" stroke-width="0" stroke-dasharray="null" stroke-linejoin="null" stroke-linecap="null" d="m92.42843,193.32757c0,0 -3.63137,-6.687 2.15193,-6.6227c5.7833,0.0643 10.0199,-4.17937 6.72477,0.83587c-3.29514,5.01525 -5.17807,4.43657 -6.59027,5.01525c-1.4122,0.57868 -2.28642,0.77158 -2.28642,0.77158l-0.00001,0z" transform="rotate(123.12508392333984 96.88098144531253,189.2083740234375) " stroke="#000000"/>
  <path id="svg_28" fill="#000000" stroke-width="0" stroke-dasharray="null" stroke-linejoin="null" stroke-linecap="null" d="m91.3298,213.30511c0,0 -3.63137,-6.687 2.15193,-6.6227c5.7833,0.0643 10.0199,-4.17937 6.72477,0.83587c-3.29514,5.01525 -5.17807,4.43657 -6.59027,5.01525c-1.4122,0.57868 -2.28642,0.77158 -2.28642,0.77158l-0.00001,0z" transform="rotate(-40.99509811401367 95.78234863281251,209.1859130859375) " stroke="#000000"/>
  <rect id="svg_35" fill="#3f3f3f" stroke-width="0" stroke-dasharray="null" stroke-linejoin="null" stroke-linecap="null" x="506.16665" y="401.33334" width="8" height="76.08334" stroke="#000000"/>
  <rect stroke="#000000" transform="translate(10.666666984558105,5.333333492279053) " id="svg_32" fill="#000000" stroke-width="0" stroke-dasharray="null" stroke-linejoin="null" stroke-linecap="null" x="501" y="394.91668" width="4" height="81.33334"/>
  <path stroke="#000000" id="svg_36" d="m275.87378,264.13398c0,0 57.36487,2.26927 57.0172,1.81542c-0.34766,-0.45386 6.95331,8.16936 -12.16831,20.4234c-19.12162,12.25404 -9.03931,37.21597 -34.76659,12.25404c-25.72727,-24.96193 -22.44236,-35.86732 -14.79371,-34.95961c7.64865,0.9077 4.71141,0.46675 4.71141,0.46675z" stroke-linecap="null" stroke-linejoin="null" stroke-dasharray="null" fill="#000000"/>
  <rect stroke="#000000" id="svg_41" height="60" width="5" y="264" x="264" stroke-linecap="null" stroke-linejoin="null" stroke-dasharray="null" stroke-width="null" fill="#000000"/>
  <rect stroke="#000000" transform="rotate(-44.443748474121094 277.00000000000017,332.0000000000001) " id="svg_44" height="33.81769" width="3.13278" y="315.09116" x="275.43361" stroke-linecap="null" stroke-linejoin="null" stroke-dasharray="null" stroke-width="null" fill="#ffffff"/>
  <rect id="svg_50" stroke="#000000" height="60" width="5" y="266" x="343" stroke-linecap="null" stroke-linejoin="null" stroke-dasharray="null" stroke-width="null" fill="#000000"/>
  <rect stroke="#000000" id="svg_52" transform="rotate(-96.91122436523438 366.04705810546875,326.38824462890625) " height="36.92646" width="5" y="307.92502" x="363.54707" stroke-linecap="null" stroke-linejoin="null" stroke-dasharray="null" stroke-width="null" fill="#ffffff"/>
  <rect stroke="#000000" id="svg_56" height="58" width="47" y="276" x="284" stroke-linecap="null" stroke-linejoin="null" stroke-dasharray="null" stroke-width="null" fill="#000000"/>
  <rect stroke="#000000" id="svg_57" height="64" width="12" y="400" x="278" stroke-linecap="null" stroke-linejoin="null" stroke-dasharray="null" stroke-width="null" fill="#000000"/>
  <rect stroke="#000000" id="svg_58" height="64" width="9" y="399" x="331" stroke-linecap="null" stroke-linejoin="null" stroke-dasharray="null" stroke-width="null" fill="#000000"/>
  <ellipse stroke="#000000" ry="6.5" rx="14" id="svg_61" cy="464.5" cx="290" stroke-linecap="null" stroke-linejoin="null" stroke-dasharray="null" stroke-width="null" fill="#000000"/>
  <ellipse stroke="#000000" id="svg_62" ry="7" rx="16" cy="465" cx="346" stroke-linecap="null" stroke-linejoin="null" stroke-dasharray="null" stroke-width="null" fill="#000000"/>
 </g>
</svg>
