<svg width="640.0000000000001" height="479.99999999999994" xmlns="http://www.w3.org/2000/svg" xmlns:svg="http://www.w3.org/2000/svg">
 <!-- Created with SVG-edit - http://svg-edit.googlecode.com/ -->
 <g>
  <title>Layer 1</title>
  <rect stroke="#000000" fill="#7f7f7f" stroke-width="0" x="1.83335" y="1.12499" width="642.75002" height="480.00001" id="svg_2"/>
  <rect stroke="#000000" fill="#ffffff" stroke-dasharray="null" stroke-linejoin="null" stroke-linecap="null" x="299.66667" y="207" width="11.375" height="61" id="svg_24"/>
  <ellipse fill="#000000" stroke-width="0" stroke-dasharray="null" stroke-linejoin="null" stroke-linecap="null" cx="328.91796" cy="89.50393" id="svg_21" rx="108.73829" ry="45.5625" stroke="#000000"/>
  <ellipse fill="#ffffff" stroke-width="0" cx="341.00002" cy="140" id="svg_3" rx="102" ry="78.75" stroke="#000000"/>
  <ellipse fill="#3f3f3f" stroke="#000000" stroke-width="0" stroke-dasharray="null" stroke-linejoin="null" stroke-linecap="null" cx="311.25002" cy="140.5" id="svg_4" rx="25.5" ry="22.5"/>
  <ellipse fill="#3f3f3f" stroke-width="0" stroke-dasharray="null" stroke-linejoin="null" stroke-linecap="null" cx="399.25002" cy="139.75" rx="22.5" ry="22.5" id="svg_5" stroke="#000000"/>
  <path fill="#000000" stroke-width="0" stroke-dasharray="null" stroke-linejoin="null" stroke-linecap="null" d="m325.68423,145.68568c0,0 25.97141,4.14427 25.97141,4.14427c0,0 36.35998,-5.52569 36.35998,-5.52569c0,0 -62.33139,1.38142 -62.33139,1.38142z" id="svg_11" transform="rotate(86.59153747558594 356.84988403320307,147.0670928955078) " opacity="0.5" stroke="#000000"/>
  <ellipse fill="#ffffff" stroke-dasharray="null" stroke-linejoin="null" stroke-linecap="null" cx="237.12502" cy="149" id="svg_12" rx="15.375" ry="33" stroke="#000000"/>
  <ellipse fill="#ffffff" stroke-width="0" stroke-dasharray="null" stroke-linejoin="null" stroke-linecap="null" cx="252.12502" cy="151.625" rx="15.375" ry="20.625" id="svg_14" stroke="#000000"/>
  <path fill="#000000" stroke="#000000" stroke-width="0" stroke-dasharray="null" stroke-linejoin="null" stroke-linecap="null" d="m347.94924,182.63281c0,0 7.5,6.75 7.5,6.75c0,0 10.5,-9 10.5,-9c0,0 -18,2.25 -18,2.25z" id="svg_8"/>
  <path fill="#ffffff" stroke-width="0" stroke-dasharray="null" stroke-linejoin="null" stroke-linecap="null" d="m341.40209,185.03726l14.9021,-10.33594l14.9021,10.33594l-29.8042,0z" id="svg_10" transform="rotate(-176.0072021484375 356.30419921875,179.8692932128906) " stroke="#000000"/>
  <path fill="#ffffff" stroke="#000000" stroke-width="null" stroke-dasharray="null" stroke-linejoin="null" stroke-linecap="null" d="m345.38834,199.41585c0,0 10.66203,4.50508 15.76778,1.35152c5.10576,-3.15356 5.03067,-4.12966 5.00883,-4.14604c-0.02184,-0.01638 -20.77661,2.79451 -20.77661,2.79451l0,0.00001z" id="svg_20" transform="rotate(7.608928680419922 355.7784423828128,199.25451660156244) "/>
  <path fill="#ffffff" stroke="#000000" stroke-width="null" stroke-dasharray="null" stroke-linejoin="null" stroke-linecap="null" d="m353.8621,196.42297c0,0 -0.52559,0.67576 2.62796,0.75085c3.15356,0.07508 3.22864,-0.75085 3.30373,-0.82593c0.07508,-0.07508 4.43,1.05119 4.40815,1.0348c-0.02184,-0.01638 1.37337,0.46689 2.95015,0.46689c1.57678,0 -9.23542,2.32763 -13.89067,1.65186c-4.65525,-0.67576 -7.50847,-1.72695 -7.53031,-1.74333c-0.02184,-0.01638 4.37676,-0.5843 6.40404,-0.95972c2.02729,-0.37542 1.72695,-0.37542 1.72695,-0.37542z" id="svg_19"/>
  <ellipse fill="#000000" stroke-width="0" stroke-dasharray="null" stroke-linejoin="null" stroke-linecap="null" cx="343.22265" cy="52.55081" rx="62.58985" ry="31.21875" id="svg_22" stroke="#000000"/>
  <path stroke="#000000" fill="#000000" stroke-dasharray="null" stroke-linejoin="null" stroke-linecap="null" d="m333.95616,261.88398c0,0 -64.95601,2.26927 -64.56233,1.81542c0.39367,-0.45386 -7.87345,8.16936 13.77855,20.4234c21.652,12.25404 10.23549,37.21597 39.36728,12.25404c29.13178,-24.96193 25.41218,-35.86732 16.75137,-34.95961c-8.6608,0.9077 -5.33487,0.46675 -5.33487,0.46675z" id="svg_25"/>
  <path stroke="#000000" opacity="0.5" id="svg_29" d="m7.55501,482.18666l3.875,-482.00001l12.91665,0l3.87499,482.00001l-20.66664,0z" stroke-linecap="null" stroke-linejoin="null" stroke-dasharray="null" stroke-width="0" fill="#3f3f3f"/>
  <path stroke="#000000" transform="rotate(179.4684295654297 547.5740966796875,230.09924316406253) " id="svg_31" d="m546.67531,461.46654l0.33703,-462.73459l1.12345,0l0.33703,462.73459l-1.79751,0l0,0z" stroke-linecap="null" stroke-linejoin="null" stroke-dasharray="null" stroke-width="0" fill="#3f3f3f"/>
  <path stroke="#000000" id="svg_38" d="m27.55501,476.51998l0.37499,-472l1.24998,0l0.37499,472l-1.99997,0l0.00001,0z" stroke-linecap="null" stroke-linejoin="null" stroke-dasharray="null" stroke-width="0" fill="#3f3f3f"/>
  <path stroke="#000000" id="svg_6" d="m4.555,395.51999l118.31222,-61l394.37554,0l118.31222,61l-630.99998,0z" stroke-linecap="null" stroke-linejoin="null" stroke-dasharray="null" stroke-width="0" fill="#3f3f3f"/>
  <ellipse id="svg_9" cy="274" cx="-151" stroke-linecap="null" stroke-linejoin="null" stroke-dasharray="null" stroke-width="0" stroke="#000000" fill="#ffffff"/>
  <ellipse stroke="#000000" id="svg_13" ry="11" rx="59" cy="352" cx="383" stroke-linecap="null" stroke-linejoin="null" stroke-dasharray="null" stroke-width="0" fill="#ffffff"/>
  <ellipse ry="11" rx="91" id="svg_7" cy="349" cx="380" stroke-linecap="null" stroke-linejoin="null" stroke-dasharray="null" stroke="#000000" fill="#ffffff"/>
  <ellipse opacity="0.5" stroke="#000000" id="svg_15" ry="7" rx="57" cy="349" cx="381" stroke-linecap="null" stroke-linejoin="null" stroke-dasharray="null" fill="#ffffff"/>
  <ellipse stroke="#4f3c3c" id="svg_18" stroke-width="0" ry="8" rx="24" cy="265" cx="135" stroke-linecap="null" stroke-linejoin="null" stroke-dasharray="null" fill="#000000"/>
  <rect id="svg_30" height="58" width="48" y="266" x="111" stroke-linecap="null" stroke-linejoin="null" stroke-dasharray="null" stroke-width="null" stroke="#4f3c3c" fill="#565656"/>
  <ellipse stroke-width="0" stroke="#4f3c3c" ry="42" rx="19.5" id="svg_16" cy="293" cx="104.5" stroke-linecap="null" stroke-linejoin="null" stroke-dasharray="null" fill="#7f7f7f"/>
  <ellipse id="svg_33" stroke-width="0" stroke="#4f3c3c" ry="42" rx="19.5" cy="294" cx="166.5" stroke-linecap="null" stroke-linejoin="null" stroke-dasharray="null" fill="#7f7f7f"/>
  <ellipse stroke="#4f3c3c" ry="30" rx="30" id="svg_34" cy="341" cx="136" stroke-linecap="null" stroke-linejoin="null" stroke-dasharray="null" stroke-width="0" fill="#565656"/>
  <path id="svg_39" d="m124.82031,264.5625c0,0 -14,-44 -32,-70c-18,-26 16,15 17,29c1,14 15,41 15,41z" stroke-linecap="null" stroke-linejoin="null" stroke-dasharray="null" stroke-width="0" stroke="#000000" fill="#000000"/>
  <path stroke="#000000" transform="rotate(171.84461975097656 106.40832519531251,198.93786621093747) " id="svg_40" d="m101.95577,203.05706c0,0 -3.63137,-6.687 2.15193,-6.6227c5.7833,0.0643 10.0199,-4.17937 6.72477,0.83587c-3.29514,5.01525 -5.17807,4.43657 -6.59027,5.01525c-1.4122,0.57868 -2.28642,0.77158 -2.28642,0.77158l-0.00001,0z" stroke-linecap="null" stroke-linejoin="null" stroke-dasharray="null" stroke-width="0" fill="#000000"/>
  <rect id="svg_42" height="4" width="628" y="397.33333" x="6.66667" stroke-linecap="null" stroke-linejoin="null" stroke-dasharray="null" stroke-width="0" stroke="#000000" fill="#000000"/>
  <rect stroke="#000000" id="svg_43" height="81.33334" width="20" y="400.00001" x="33.33333" stroke-linecap="null" stroke-linejoin="null" stroke-dasharray="null" stroke-width="0" fill="#3f3f3f"/>
  <rect stroke="#000000" id="svg_45" height="81.33334" width="9.33333" y="400.00001" x="52" stroke-linecap="null" stroke-linejoin="null" stroke-dasharray="null" stroke-width="0" fill="#000000"/>
  <rect id="svg_46" stroke="#000000" height="81.33334" width="20" y="397.33334" x="604" stroke-linecap="null" stroke-linejoin="null" stroke-dasharray="null" stroke-width="0" fill="#3f3f3f"/>
  <rect stroke="#000000" id="svg_47" height="77.33334" width="9.33333" y="400.00001" x="596" stroke-linecap="null" stroke-linejoin="null" stroke-dasharray="null" stroke-width="0" fill="#000000"/>
  <rect stroke="#000000" id="svg_48" height="76.08334" width="8" y="401.33334" x="112.83333" stroke-linecap="null" stroke-linejoin="null" stroke-dasharray="null" stroke-width="0" fill="#3f3f3f"/>
  <rect stroke="#000000" id="svg_49" height="81.33334" width="4" y="400.25001" x="114.33333" stroke-linecap="null" stroke-linejoin="null" stroke-dasharray="null" stroke-width="0" fill="#000000"/>
  <ellipse stroke="#000000" id="svg_53" ry="26.66667" rx="30.00001" cy="144" cx="311.33337" opacity="0.2" stroke-linecap="null" stroke-linejoin="null" stroke-dasharray="null" stroke-width="null" fill="#000000"/>
  <ellipse stroke="#000000" id="svg_54" ry="26" rx="24.66667" cy="143.33333" cx="399.33336" opacity="0.2" stroke-linecap="null" stroke-linejoin="null" stroke-dasharray="null" stroke-width="null" fill="#000000"/>
  <ellipse stroke="#000000" ry="10.66666" rx="8.66666" id="svg_51" cy="136.00001" cx="302.00001" opacity="0.2" stroke-linecap="null" stroke-linejoin="null" stroke-dasharray="null" stroke-width="null" fill="#ffffff"/>
  <ellipse id="svg_55" stroke="#000000" ry="10.66666" rx="8.66666" cy="137.33334" cx="388.66667" opacity="0.2" stroke-linecap="null" stroke-linejoin="null" stroke-dasharray="null" stroke-width="null" fill="#ffffff"/>
  <path stroke="#000000" transform="rotate(22.847639083862305 90.50012207031263,202.86657714843747) " d="m86.04756,206.98577c0,0 -3.63137,-6.687 2.15193,-6.6227c5.7833,0.0643 10.0199,-4.17937 6.72477,0.83587c-3.29514,5.01525 -5.17807,4.43657 -6.59027,5.01525c-1.4122,0.57868 -2.28642,0.77158 -2.28642,0.77158l-0.00001,0z" stroke-linecap="null" stroke-linejoin="null" stroke-dasharray="null" stroke-width="0" fill="#000000" id="svg_17"/>
  <path stroke="#000000" transform="rotate(140.5535125732422 101.92590332031251,194.0511474609375) " d="m97.47335,198.17034c0,0 -3.63137,-6.687 2.15193,-6.6227c5.7833,0.0643 10.0199,-4.17937 6.72477,0.83587c-3.29514,5.01525 -5.17807,4.43657 -6.59027,5.01525c-1.4122,0.57868 -2.28642,0.77158 -2.28642,0.77158l-0.00001,0z" stroke-linecap="null" stroke-linejoin="null" stroke-dasharray="null" stroke-width="0" fill="#000000" id="svg_23"/>
  <path stroke="#000000" transform="rotate(63.05271530151367 88.58410644531246,195.2200927734375) " d="m84.13156,199.33929c0,0 -3.63138,-6.687 2.15192,-6.6227c5.78331,0.0643 10.01991,-4.17937 6.72478,0.83587c-3.29515,5.01525 -5.17808,4.43657 -6.59028,5.01525c-1.4122,0.57868 -2.28641,0.77158 -2.28641,0.77158l-0.00001,0z" stroke-linecap="null" stroke-linejoin="null" stroke-dasharray="null" stroke-width="0" fill="#000000" id="svg_26"/>
  <path stroke="#000000" transform="rotate(123.12508392333984 96.88098144531253,189.2083740234375) " d="m92.42843,193.32757c0,0 -3.63137,-6.687 2.15193,-6.6227c5.7833,0.0643 10.0199,-4.17937 6.72477,0.83587c-3.29514,5.01525 -5.17807,4.43657 -6.59027,5.01525c-1.4122,0.57868 -2.28642,0.77158 -2.28642,0.77158l-0.00001,0z" stroke-linecap="null" stroke-linejoin="null" stroke-dasharray="null" stroke-width="0" fill="#000000" id="svg_27"/>
  <path stroke="#000000" transform="rotate(-40.99509811401367 95.78234863281251,209.1859130859375) " d="m91.3298,213.30511c0,0 -3.63137,-6.687 2.15193,-6.6227c5.7833,0.0643 10.0199,-4.17937 6.72477,0.83587c-3.29514,5.01525 -5.17807,4.43657 -6.59027,5.01525c-1.4122,0.57868 -2.28642,0.77158 -2.28642,0.77158l-0.00001,0z" stroke-linecap="null" stroke-linejoin="null" stroke-dasharray="null" stroke-width="0" fill="#000000" id="svg_28"/>
  <rect stroke="#000000" height="76.08334" width="8" y="401.33334" x="506.16665" stroke-linecap="null" stroke-linejoin="null" stroke-dasharray="null" stroke-width="0" fill="#3f3f3f" id="svg_35"/>
  <rect height="81.33334" width="4" y="400.25001" x="511.66667" stroke-linecap="null" stroke-linejoin="null" stroke-dasharray="null" stroke-width="0" fill="#000000" id="svg_32" stroke="#000000"/>
  <path fill="#000000" stroke-dasharray="null" stroke-linejoin="null" stroke-linecap="null" d="m275.87378,264.13398c0,0 57.36487,2.26927 57.0172,1.81542c-0.34766,-0.45386 6.95331,8.16936 -12.16831,20.4234c-19.12162,12.25404 -9.03931,37.21597 -34.76659,12.25404c-25.72727,-24.96193 -22.44236,-35.86732 -14.79371,-34.95961c7.64865,0.9077 4.71141,0.46675 4.71141,0.46675z" id="svg_36" stroke="#000000"/>
  <rect fill="#000000" stroke-width="null" stroke-dasharray="null" stroke-linejoin="null" stroke-linecap="null" x="264" y="264" width="5" height="60" id="svg_41" stroke="#000000"/>
  <rect fill="#ffffff" stroke-width="null" stroke-dasharray="null" stroke-linejoin="null" stroke-linecap="null" x="275.43361" y="315.09116" width="3.13278" height="33.81769" id="svg_44" transform="rotate(-44.443748474121094 277.00000000000017,332.0000000000001) " stroke="#000000"/>
  <rect fill="#000000" stroke-width="null" stroke-dasharray="null" stroke-linejoin="null" stroke-linecap="null" x="343" y="266" width="5" height="60" stroke="#000000" id="svg_50"/>
  <rect fill="#ffffff" stroke-width="null" stroke-dasharray="null" stroke-linejoin="null" stroke-linecap="null" x="363.54707" y="307.92502" width="5" height="36.92646" transform="rotate(-96.91122436523438 366.04705810546875,326.38824462890625) " id="svg_52" stroke="#000000"/>
  <rect fill="#000000" stroke-width="null" stroke-dasharray="null" stroke-linejoin="null" stroke-linecap="null" x="284" y="276" width="47" height="58" id="svg_56" stroke="#000000"/>
  <rect stroke="#000000" fill="#000000" stroke-width="null" stroke-dasharray="null" stroke-linejoin="null" stroke-linecap="null" x="287" y="401" width="12" height="36" id="svg_57"/>
  <rect stroke="#000000" fill="#000000" stroke-width="null" stroke-dasharray="null" stroke-linejoin="null" stroke-linecap="null" x="321" y="399" width="9" height="40" id="svg_58"/>
  <ellipse fill="#000000" stroke-width="null" stroke-dasharray="null" stroke-linejoin="null" stroke-linecap="null" cx="289" cy="439.5" id="svg_61" rx="14" ry="6.5" stroke="#000000"/>
  <ellipse fill="#000000" stroke-width="null" stroke-dasharray="null" stroke-linejoin="null" stroke-linecap="null" cx="330" cy="437" rx="16" ry="7" id="svg_62" stroke="#000000"/>
  <polygon id="svg_67" stroke="#000000" transform="rotate(170.4022674560547 127.82197570800783,209.7396240234375) " stroke-width="0" points="138.3974151611328,209.73960876464844 130.31849670410156,222.9643096923828 117.24653625488281,217.91293334960938 117.24653625488281,201.56629943847656 130.31849670410156,196.51492309570312 138.3974151611328,209.73960876464844 " strokeWidth="null" strokecolor="#000000" fill="#fc8d8d" edge="34.91161" orient="x" sides="5" shape="regularPoly" cy="181.33333" cx="135.11111"/>
  <polygon stroke="#000000" id="svg_68" transform="rotate(-100.2221450805664 153.1721954345703,225.85984802246094) " stroke-width="0" points="167.67805960958248,225.8598441250798 156.59655129394486,239.3112601407048 138.66632411173686,234.17329017000168 138.66632411173686,217.54645911531418 156.59655129394486,212.40844336824387 167.67805960958248,225.8598441250798 " strokeWidth="null" strokecolor="#000000" fill="#fc8d8d" edge="34.91161" orient="x" sides="5" shape="regularPoly" cy="181.33333" cx="135.11111"/>
  <polygon stroke="#000000" transform="rotate(170.4022674560547 129.50947570800784,209.1771087646485) " stroke-width="0" points="140.0849151611328,209.17710876464844 132.00599670410156,222.4018096923828 118.93403625488281,217.35043334960938 118.93403625488281,201.00379943847656 132.00599670410156,195.95242309570312 140.0849151611328,209.17710876464844 " strokeWidth="null" strokecolor="#000000" fill="#ff0000" edge="34.91161" orient="x" sides="5" shape="regularPoly" id="svg_65" cy="181.33333" cx="135.11111"/>
  <polygon id="svg_69" stroke="#000000" transform="rotate(-173.22177124023438 153.1344757080078,228.30212402343753) " stroke-width="0" points="163.7099151611328,228.30210876464844 155.63099670410156,241.5268096923828 142.5590362548828,236.47543334960938 142.5590362548828,220.12879943847656 155.63099670410156,215.07742309570312 163.7099151611328,228.30210876464844 " strokeWidth="null" strokecolor="#000000" fill="#ff0000" edge="34.91161" orient="x" sides="5" shape="regularPoly" cy="181.33333" cx="135.11111"/>
  <ellipse stroke="#000000" ry="38.22222" rx="21.33334" id="svg_72" cy="111.11111" cx="590.22221" stroke-linecap="null" stroke-linejoin="null" stroke-dasharray="null" stroke-width="null" fill="#000000"/>
  <ellipse opacity="0.8" id="svg_73" stroke="#000000" ry="32.88889" rx="18.66667" cy="111.11111" cx="587.55555" stroke-linecap="null" stroke-linejoin="null" stroke-dasharray="null" stroke-width="null" fill="#ffffff"/>
  <rect stroke="#000000" transform="rotate(-10.774657249450684 582.288330078125,98.71197509765628) " id="svg_74" height="29.25" width="1.11411" y="84.08697" x="581.7313" opacity="0.8" stroke-linecap="null" stroke-linejoin="null" stroke-dasharray="null" stroke-width="null" fill="#000000"/>
  <rect stroke="#000000" id="svg_75" height="19.2832" width="1.10156" y="94.16894" x="584.17286" stroke-linecap="null" stroke-linejoin="null" stroke-dasharray="null" stroke-width="null" fill="#000000"/>
  <rect stroke="#000000" id="svg_76" height="4.33301" width="1.33887" y="81.11719" x="585.35939" stroke-linecap="null" stroke-linejoin="null" stroke-dasharray="null" stroke-width="null" fill="#000000"/>
  <rect id="svg_77" stroke="#000000" height="4.33301" width="1.33887" y="136.17187" x="584.41017" stroke-linecap="null" stroke-linejoin="null" stroke-dasharray="null" stroke-width="null" fill="#000000"/>
  <rect stroke="#000000" id="svg_78" height="1.72266" width="4.18652" y="112.2832" x="599.17584" stroke-linecap="null" stroke-linejoin="null" stroke-dasharray="null" stroke-width="null" fill="#000000"/>
  <rect stroke="#000000" id="svg_79" height="1.72266" width="3.47461" y="111.14941" x="571.30572" stroke-linecap="null" stroke-linejoin="null" stroke-dasharray="null" stroke-width="null" fill="#000000"/>
 </g>
</svg>
