<svg width="640.0000000000001" height="479.99999999999994" xmlns="http://www.w3.org/2000/svg" xmlns:svg="http://www.w3.org/2000/svg" xmlns:xlink="http://www.w3.org/1999/xlink">
 <!-- Created with SVG-edit - http://svg-edit.googlecode.com/ -->
 <defs>
  <radialGradient spreadMethod="pad" id="svg_94">
   <stop offset="0" stop-color="#ffffff"/>
   <stop offset="0.81999" stop-opacity="0" stop-color="0"/>
  </radialGradient>
  <linearGradient id="svg_99">
   <stop offset="0" stop-color="#7f7f7f"/>
   <stop offset="1" stop-color="#808080"/>
  </linearGradient>
 </defs>
 <g>
  <title>Layer 1</title>
  <path stroke="#000000" transform="rotate(89.7810287475586 66.0273666381836,174.16653442382812) " id="svg_118" d="m-34.73392,194.2857l37.78549,-40.23831l125.95163,0l37.78547,40.23831l-201.52259,0z" stroke-linecap="null" stroke-linejoin="null" stroke-dasharray="null" stroke-width="0" fill="#3f007f"/>
  <rect id="svg_2" height="480.00001" width="642.75002" y="-0.20834" x="-0.29938" stroke-width="0" fill="url(#svg_99)" stroke="#000000"/>
  <rect id="svg_60" stroke="#000000" transform="rotate(89.35145568847656 275.3292236328125,292.3316650390625) " height="6.93305" width="93.25529" y="288.86515" x="228.70158" stroke-linecap="null" stroke-linejoin="null" stroke-dasharray="null" stroke-width="0" fill="#7f0000"/>
  <rect stroke="#000000" id="svg_64" transform="rotate(89.35145568847656 323.0106506347656,288.53466796875) " height="6.93305" width="91.56789" y="285.06816" x="277.22672" stroke-linecap="null" stroke-linejoin="null" stroke-dasharray="null" stroke-width="0" fill="#7f0000"/>
  <rect stroke="#000000" id="svg_1" height="12" width="108.42188" y="241.84116" x="243.42451" stroke-linecap="null" stroke-linejoin="null" stroke-dasharray="null" fill="#7f0000"/>
  <rect id="svg_24" height="61" width="11.375" y="207" x="299.66667" stroke-linecap="null" stroke-linejoin="null" stroke-dasharray="null" fill="#ffffff" stroke="#000000"/>
  <ellipse stroke="#000000" ry="45.5625" rx="108.73829" id="svg_21" cy="89.50393" cx="328.91796" stroke-linecap="null" stroke-linejoin="null" stroke-dasharray="null" stroke-width="0" fill="#000000"/>
  <ellipse stroke="#000000" ry="78.75" rx="102" id="svg_3" cy="140" cx="341.00002" stroke-width="0" fill="#ffffff"/>
  <ellipse ry="22.5" rx="25.5" id="svg_4" cy="140.5" cx="311.25002" stroke-linecap="null" stroke-linejoin="null" stroke-dasharray="null" stroke-width="0" stroke="#000000" fill="#3f3f3f"/>
  <ellipse stroke="#000000" id="svg_5" ry="22.5" rx="22.5" cy="139.75" cx="399.25002" stroke-linecap="null" stroke-linejoin="null" stroke-dasharray="null" stroke-width="0" fill="#3f3f3f"/>
  <path stroke="#000000" opacity="0.5" transform="rotate(86.59153747558594 356.84988403320307,147.0670928955078) " id="svg_11" d="m325.68423,145.68568c0,0 25.97141,4.14427 25.97141,4.14427c0,0 36.35998,-5.52569 36.35998,-5.52569c0,0 -62.33139,1.38142 -62.33139,1.38142z" stroke-linecap="null" stroke-linejoin="null" stroke-dasharray="null" stroke-width="0" fill="#000000"/>
  <ellipse stroke="#000000" ry="33" rx="15.375" id="svg_12" cy="149" cx="237.12502" stroke-linecap="null" stroke-linejoin="null" stroke-dasharray="null" fill="#ffffff"/>
  <ellipse stroke="#000000" id="svg_14" ry="20.625" rx="15.375" cy="151.625" cx="252.12502" stroke-linecap="null" stroke-linejoin="null" stroke-dasharray="null" stroke-width="0" fill="#ffffff"/>
  <path id="svg_8" d="m347.94924,182.63281c0,0 7.5,6.75 7.5,6.75c0,0 10.5,-9 10.5,-9c0,0 -18,2.25 -18,2.25z" stroke-linecap="null" stroke-linejoin="null" stroke-dasharray="null" stroke-width="0" stroke="#000000" fill="#000000"/>
  <path stroke="#000000" transform="rotate(-176.0072021484375 356.30419921875,179.8692932128906) " id="svg_10" d="m341.40209,185.03726l14.9021,-10.33594l14.9021,10.33594l-29.8042,0z" stroke-linecap="null" stroke-linejoin="null" stroke-dasharray="null" stroke-width="0" fill="#ffffff"/>
  <path transform="rotate(7.608928680419922 355.7784423828128,199.25451660156244) " id="svg_20" d="m345.38834,199.41585c0,0 10.66203,4.50508 15.76778,1.35152c5.10576,-3.15356 5.03067,-4.12966 5.00883,-4.14604c-0.02184,-0.01638 -20.77661,2.79451 -20.77661,2.79451l0,0.00001z" stroke-linecap="null" stroke-linejoin="null" stroke-dasharray="null" stroke-width="null" stroke="#000000" fill="#ffffff"/>
  <path id="svg_19" d="m353.8621,196.42297c0,0 -0.52559,0.67576 2.62796,0.75085c3.15356,0.07508 3.22864,-0.75085 3.30373,-0.82593c0.07508,-0.07508 4.43,1.05119 4.40815,1.0348c-0.02184,-0.01638 1.37337,0.46689 2.95015,0.46689c1.57678,0 -9.23542,2.32763 -13.89067,1.65186c-4.65525,-0.67576 -7.50847,-1.72695 -7.53031,-1.74333c-0.02184,-0.01638 4.37676,-0.5843 6.40404,-0.95972c2.02729,-0.37542 1.72695,-0.37542 1.72695,-0.37542z" stroke-linecap="null" stroke-linejoin="null" stroke-dasharray="null" stroke-width="null" stroke="#000000" fill="#ffffff"/>
  <ellipse stroke="#000000" id="svg_22" ry="31.21875" rx="62.58985" cy="52.55081" cx="343.22265" stroke-linecap="null" stroke-linejoin="null" stroke-dasharray="null" stroke-width="0" fill="#000000"/>
  <rect id="svg_63" stroke="#000000" transform="rotate(89.35145568847656 292.6260986328125,288.5347900390625) " height="6.93305" width="93.25529" y="285.06828" x="245.99846" stroke-linecap="null" stroke-linejoin="null" stroke-dasharray="null" stroke-width="0" fill="#7f0000"/>
  <rect id="svg_66" stroke="#000000" transform="rotate(89.35145568847656 338.6200256347656,292.75341796875) " height="6.93305" width="91.56789" y="289.28691" x="292.8361" stroke-linecap="null" stroke-linejoin="null" stroke-dasharray="null" stroke-width="0" fill="#7f0000"/>
  <path id="svg_25" d="m333.95616,261.88398c0,0 -64.95601,2.26927 -64.56233,1.81542c0.39367,-0.45386 -7.87345,8.16936 13.77855,20.4234c21.652,12.25404 10.23549,37.21597 39.36728,12.25404c29.13178,-24.96193 25.41218,-35.86732 16.75137,-34.95961c-8.6608,0.9077 -5.33487,0.46675 -5.33487,0.46675z" stroke-linecap="null" stroke-linejoin="null" stroke-dasharray="null" fill="#000000" stroke="#000000"/>
  <path fill="#3f3f3f" stroke-width="0" stroke-dasharray="null" stroke-linejoin="null" stroke-linecap="null" d="m7.55501,482.18666l3.875,-482.00001l12.91665,0l3.87499,482.00001l-20.66664,0z" id="svg_29" opacity="0.5" stroke="#000000"/>
  <path fill="#3f3f3f" stroke-width="0" stroke-dasharray="null" stroke-linejoin="null" stroke-linecap="null" d="m546.67531,461.46654l0.33703,-462.73459l1.12345,0l0.33703,462.73459l-1.79751,0l0,0z" id="svg_31" transform="rotate(179.4684295654297 547.5740966796875,230.09924316406253) " stroke="#000000"/>
  <path fill="#3f3f3f" stroke-width="0" stroke-dasharray="null" stroke-linejoin="null" stroke-linecap="null" d="m27.55501,476.51998l0.37499,-472l1.24998,0l0.37499,472l-1.99997,0l0.00001,0z" id="svg_38" stroke="#000000"/>
  <path fill="#3f3f3f" stroke-width="0" stroke-dasharray="null" stroke-linejoin="null" stroke-linecap="null" d="m4.555,395.51999l118.31222,-61l394.37554,0l118.31222,61l-630.99998,0z" id="svg_6" stroke="#000000"/>
  <ellipse fill="#ffffff" stroke="#000000" stroke-width="0" stroke-dasharray="null" stroke-linejoin="null" stroke-linecap="null" cx="-151" cy="274" id="svg_9"/>
  <ellipse fill="#ffffff" stroke-width="0" stroke-dasharray="null" stroke-linejoin="null" stroke-linecap="null" cx="455" cy="357.25" rx="59" ry="11" id="svg_13" stroke="#000000"/>
  <ellipse fill="#ffffff" stroke="#000000" stroke-dasharray="null" stroke-linejoin="null" stroke-linecap="null" cx="454.72461" cy="354.57227" id="svg_7" rx="91" ry="11"/>
  <ellipse fill="url(#svg_94)" stroke-dasharray="null" stroke-linejoin="null" stroke-linecap="null" cx="453" cy="354.02148" rx="57" ry="7" id="svg_15" stroke="#000000" opacity="0.5"/>
  <ellipse fill="#282828" stroke-dasharray="null" stroke-linejoin="null" stroke-linecap="null" cx="136.89844" cy="260.88672" rx="24" ry="8" stroke-width="0" id="svg_18" stroke="#4f3c3c"/>
  <rect fill="#565656" stroke="#4f3c3c" stroke-width="null" stroke-dasharray="null" stroke-linejoin="null" stroke-linecap="null" x="111" y="266" width="48" height="58" id="svg_30"/>
  <ellipse fill="#7f7f7f" stroke-dasharray="null" stroke-linejoin="null" stroke-linecap="null" cx="104.5" cy="293" id="svg_16" rx="19.5" ry="42" stroke="#4f3c3c" stroke-width="0"/>
  <path id="svg_115" fill="#3f3f3f" stroke-width="0" stroke-dasharray="null" stroke-linejoin="null" stroke-linecap="null" d="m102.11281,463.90404l0.33703,-462.73459l1.12345,0l0.33703,462.73459l-1.79751,0l0,0z" transform="rotate(179.4684295654297 103.0115966796875,232.53674316406244) " stroke="#000000"/>
  <path stroke="#000000" transform="rotate(86.85797882080078 65.27789306640628,177.8857727050781) " id="svg_117" d="m-22.19776,196.79405l18.85855,-44.90571l167.10965,0.09805c16.54845,13.7522 1.59643,38.14463 18.14489,51.89683l-233.27487,-10.64022z" stroke-linecap="null" stroke-linejoin="null" stroke-dasharray="null" stroke-width="0" fill="#3f3f3f"/>
  <path stroke="#000000" transform="rotate(-13.193272590637207 109.72633361816416,225.61376953125003) " fill="#000000" stroke-width="0" stroke-dasharray="null" stroke-linejoin="null" stroke-linecap="null" d="m114.93777,257.20072c0,0 -3.91756,-35.43161 -8.95442,-56.36848c-5.03686,-20.93686 4.47721,12.07896 4.75703,23.35265c0.27983,11.2737 4.19738,33.01582 4.19738,33.01582z" id="svg_39"/>
  <ellipse fill="#7f7f7f" stroke-dasharray="null" stroke-linejoin="null" stroke-linecap="null" cx="166.5" cy="294" rx="19.5" ry="42" stroke="#4f3c3c" stroke-width="0" id="svg_33"/>
  <ellipse fill="#565656" stroke-width="0" stroke-dasharray="null" stroke-linejoin="null" stroke-linecap="null" cx="136" cy="341" id="svg_34" rx="30" ry="30" stroke="#4f3c3c"/>
  <path fill="#000000" stroke-width="0" stroke-dasharray="null" stroke-linejoin="null" stroke-linecap="null" d="m101.48116,202.81976c0,0 -3.63137,-6.687 2.15193,-6.6227c5.7833,0.0643 10.0199,-4.17937 6.72477,0.83587c-3.29514,5.01525 -5.17807,4.43657 -6.59027,5.01525c-1.4122,0.57868 -2.28642,0.77158 -2.28642,0.77158l-0.00001,0z" id="svg_40" transform="rotate(-179.37796020507812 105.9337158203125,198.7005615234375) " stroke="#000000"/>
  <rect fill="#000000" stroke="#000000" stroke-width="0" stroke-dasharray="null" stroke-linejoin="null" stroke-linecap="null" x="6.66667" y="397.33333" width="628" height="4" id="svg_42"/>
  <rect fill="#3f3f3f" stroke-width="0" stroke-dasharray="null" stroke-linejoin="null" stroke-linecap="null" x="33.33333" y="400.00001" width="20" height="81.33334" id="svg_43" stroke="#000000"/>
  <rect fill="#000000" stroke-width="0" stroke-dasharray="null" stroke-linejoin="null" stroke-linecap="null" x="52" y="400.00001" width="9.33333" height="81.33334" id="svg_45" stroke="#000000"/>
  <rect fill="#3f3f3f" stroke-width="0" stroke-dasharray="null" stroke-linejoin="null" stroke-linecap="null" x="604" y="397.33334" width="20" height="81.33334" stroke="#000000" id="svg_46"/>
  <rect fill="#000000" stroke-width="0" stroke-dasharray="null" stroke-linejoin="null" stroke-linecap="null" x="596" y="400.00001" width="9.33333" height="77.33334" id="svg_47" stroke="#000000"/>
  <rect fill="#3f3f3f" stroke-width="0" stroke-dasharray="null" stroke-linejoin="null" stroke-linecap="null" x="112.83333" y="401.33334" width="8" height="76.08334" id="svg_48" stroke="#000000"/>
  <rect fill="#000000" stroke-width="0" stroke-dasharray="null" stroke-linejoin="null" stroke-linecap="null" x="114.33333" y="400.25001" width="4" height="81.33334" id="svg_49" stroke="#000000"/>
  <ellipse fill="#000000" stroke-width="null" stroke-dasharray="null" stroke-linejoin="null" stroke-linecap="null" opacity="0.2" cx="311.33337" cy="144" rx="30.00001" ry="26.66667" id="svg_53" stroke="#000000"/>
  <ellipse fill="#000000" stroke-width="null" stroke-dasharray="null" stroke-linejoin="null" stroke-linecap="null" opacity="0.2" cx="399.33336" cy="143.33333" rx="24.66667" ry="26" id="svg_54" stroke="#000000"/>
  <ellipse fill="#ffffff" stroke-width="null" stroke-dasharray="null" stroke-linejoin="null" stroke-linecap="null" opacity="0.2" cx="302.00001" cy="136.00001" id="svg_51" rx="8.66666" ry="10.66666" stroke="#000000"/>
  <ellipse fill="#ffffff" stroke-width="null" stroke-dasharray="null" stroke-linejoin="null" stroke-linecap="null" opacity="0.2" cx="388.66667" cy="137.33334" rx="8.66666" ry="10.66666" stroke="#000000" id="svg_55"/>
  <path id="svg_17" fill="#000000" stroke-width="0" stroke-dasharray="null" stroke-linejoin="null" stroke-linecap="null" d="m89.36983,204.85003c0,0 -3.63137,-6.687 2.15193,-6.6227c5.7833,0.0643 10.0199,-4.17937 6.72477,0.83587c-3.29514,5.01525 -5.17807,4.43657 -6.59027,5.01525c-1.4122,0.57868 -2.28642,0.77158 -2.28642,0.77158l-0.00001,0z" transform="rotate(22.847639083862305 93.82238006591793,200.73083496093747) " stroke="#000000"/>
  <path id="svg_23" fill="#000000" stroke-width="0" stroke-dasharray="null" stroke-linejoin="null" stroke-linecap="null" d="m97.47335,198.17034c0,0 -3.63137,-6.687 2.15193,-6.6227c5.7833,0.0643 10.0199,-4.17937 6.72477,0.83587c-3.29514,5.01525 -5.17807,4.43657 -6.59027,5.01525c-1.4122,0.57868 -2.28642,0.77158 -2.28642,0.77158l-0.00001,0z" transform="rotate(146.5273895263672 101.92590332031253,194.05114746093744) " stroke="#000000"/>
  <path id="svg_26" fill="#000000" stroke-width="0" stroke-dasharray="null" stroke-linejoin="null" stroke-linecap="null" d="m86.2673,196.96624c0,0 -3.63138,-6.687 2.15192,-6.6227c5.78331,0.0643 10.01991,-4.17937 6.72478,0.83587c-3.29515,5.01525 -5.17808,4.43657 -6.59028,5.01525c-1.4122,0.57868 -2.28641,0.77158 -2.28641,0.77158l-0.00001,0z" transform="rotate(63.05271530151367 90.71984863281253,192.84704589843747) " stroke="#000000"/>
  <path id="svg_27" fill="#000000" stroke-width="0" stroke-dasharray="null" stroke-linejoin="null" stroke-linecap="null" d="m92.42843,193.32757c0,0 -3.63137,-6.687 2.15193,-6.6227c5.7833,0.0643 10.0199,-4.17937 6.72477,0.83587c-3.29514,5.01525 -5.17807,4.43657 -6.59027,5.01525c-1.4122,0.57868 -2.28642,0.77158 -2.28642,0.77158l-0.00001,0z" transform="rotate(123.12508392333984 96.88098144531253,189.2083740234375) " stroke="#000000"/>
  <path id="svg_28" fill="#000000" stroke-width="0" stroke-dasharray="null" stroke-linejoin="null" stroke-linecap="null" d="m94.17746,212.11859c0,0 -3.63137,-6.687 2.15193,-6.6227c5.7833,0.0643 10.0199,-4.17937 6.72477,0.83587c-3.29514,5.01525 -5.17807,4.43657 -6.59027,5.01525c-1.4122,0.57868 -2.28642,0.77158 -2.28642,0.77158l-0.00001,0z" transform="rotate(-40.99509811401367 98.63000488281261,207.99938964843753) " stroke="#000000"/>
  <rect id="svg_35" fill="#3f3f3f" stroke-width="0" stroke-dasharray="null" stroke-linejoin="null" stroke-linecap="null" x="506.16665" y="401.33334" width="8" height="76.08334" stroke="#000000"/>
  <rect stroke="#000000" id="svg_32" fill="#000000" stroke-width="0" stroke-dasharray="null" stroke-linejoin="null" stroke-linecap="null" x="511.66667" y="400.25001" width="4" height="81.33334"/>
  <path stroke="#000000" id="svg_36" d="m278.02639,266.24336c0,0 55.2396,2.26927 54.90481,1.81542c-0.33478,-0.45386 6.6957,8.16936 -11.7175,20.4234c-18.4132,12.25404 -8.70442,37.21597 -33.47855,12.25404c-24.77412,-24.96193 -21.61091,-35.86732 -14.24563,-34.95961c7.36528,0.9077 4.53686,0.46675 4.53686,0.46675z" stroke-linecap="null" stroke-linejoin="null" stroke-dasharray="null" fill="#000000"/>
  <rect stroke="#000000" id="svg_41" height="60" width="5" y="264" x="264" stroke-linecap="null" stroke-linejoin="null" stroke-dasharray="null" stroke-width="null" fill="#000000"/>
  <rect stroke="#000000" transform="rotate(-44.443748474121094 278.26562500000006,334.95312499999994) " id="svg_44" height="33.81769" width="3.13278" y="318.04429" x="276.69923" stroke-linecap="null" stroke-linejoin="null" stroke-dasharray="null" stroke-width="0" fill="#ffffff"/>
  <rect stroke="#000000" id="svg_50" height="61.89844" width="5" y="264.10156" x="343" stroke-linecap="null" stroke-linejoin="null" stroke-dasharray="null" stroke-width="null" fill="#000000"/>
  <rect stroke="#000000" id="svg_52" transform="rotate(-96.91122436523438 366.28436279296875,326.15093994140625) " height="36.92646" width="5" y="307.68772" x="363.78437" stroke-linecap="null" stroke-linejoin="null" stroke-dasharray="null" stroke-width="0" fill="#ffffff"/>
  <rect stroke="#000000" id="svg_56" height="58" width="47" y="277.26563" x="283.57813" stroke-linecap="null" stroke-linejoin="null" stroke-dasharray="null" stroke-width="null" fill="#000000"/>
  <rect id="svg_70" height="12.9375" width="124.3125" y="401.1309" x="245.06833" stroke-linecap="null" stroke-linejoin="null" stroke-dasharray="null" stroke="#000000" fill="#7f0000"/>
  <rect stroke="#000000" id="svg_57" height="49.92188" width="12" y="401" x="287" stroke-linecap="null" stroke-linejoin="null" stroke-dasharray="null" stroke-width="null" fill="#000000"/>
  <rect id="svg_85" stroke="#000000" height="74.25" width="10.125" y="405.06843" x="326.06833" stroke-linecap="null" stroke-linejoin="null" stroke-dasharray="null" stroke-width="0" fill="#7f0000"/>
  <rect stroke="#000000" id="svg_58" height="52.79688" width="9" y="399.00002" x="321" stroke-linecap="null" stroke-linejoin="null" stroke-dasharray="null" stroke-width="null" fill="#000000"/>
  <ellipse stroke="#000000" ry="6.5" rx="8.65625" id="svg_61" cy="403.5" cx="292.65625" stroke-linecap="null" stroke-linejoin="null" stroke-dasharray="null" stroke-width="null" fill="#000000"/>
  <polygon fill="#aa2f2f" points="138.3974151611328,209.73960876464844 130.31849670410156,222.9643096923828 117.24653625488281,217.91293334960938 117.24653625488281,201.56629943847656 130.31849670410156,196.51492309570312 138.3974151611328,209.73960876464844 " stroke-width="0" transform="rotate(170.4022674560547 127.82197570800783,209.7396240234375) " stroke="#000000" id="svg_67"/>
  <polygon fill="#bc3636" points="167.67805960958248,225.8598441250798 156.59655129394486,239.3112601407048 138.66632411173686,234.17329017000168 138.66632411173686,217.54645911531418 156.59655129394486,212.40844336824387 167.67805960958248,225.8598441250798 " stroke-width="0" transform="rotate(-100.2221450805664 153.17218017578125,225.85986328125) " id="svg_68" stroke="#000000"/>
  <polygon id="svg_65" fill="#721010" points="140.0849151611328,209.17710876464844 132.00599670410156,222.4018096923828 118.93403625488281,217.35043334960938 118.93403625488281,201.00379943847656 132.00599670410156,195.95242309570312 140.0849151611328,209.17710876464844 " stroke-width="0" transform="rotate(170.4022674560547 129.50947570800784,209.1771240234375) " stroke="#000000"/>
  <polygon fill="#750404" points="163.7099151611328,228.30210876464844 155.63099670410156,241.5268096923828 142.5590362548828,236.47543334960938 142.5590362548828,220.12879943847656 155.63099670410156,215.07742309570312 163.7099151611328,228.30210876464844 " stroke-width="0" transform="rotate(-173.22177124023438 153.1344757080078,228.30212402343753) " stroke="#000000" id="svg_69"/>
  <ellipse fill="#000000" stroke-width="null" stroke-dasharray="null" stroke-linejoin="null" stroke-linecap="null" cx="590.22221" cy="111.11111" id="svg_72" rx="21.33334" ry="38.22222" stroke="#000000"/>
  <ellipse fill="#ffffff" stroke-width="null" stroke-dasharray="null" stroke-linejoin="null" stroke-linecap="null" cx="587.55555" cy="111.11111" rx="18.66667" ry="32.88889" stroke="#000000" id="svg_73" opacity="0.8"/>
  <rect fill="#000000" stroke-width="null" stroke-dasharray="null" stroke-linejoin="null" stroke-linecap="null" opacity="0.8" x="581.7313" y="84.08697" width="1.11411" height="29.25" id="svg_74" transform="rotate(-10.774657249450684 582.288330078125,98.71197509765628) " stroke="#000000"/>
  <rect fill="#000000" stroke-width="null" stroke-dasharray="null" stroke-linejoin="null" stroke-linecap="null" x="584.17286" y="94.16894" width="1.10156" height="19.2832" id="svg_75" stroke="#000000"/>
  <rect fill="#000000" stroke-width="null" stroke-dasharray="null" stroke-linejoin="null" stroke-linecap="null" x="585.35939" y="81.11719" width="1.33887" height="4.33301" id="svg_76" stroke="#000000"/>
  <rect fill="#000000" stroke-width="null" stroke-dasharray="null" stroke-linejoin="null" stroke-linecap="null" x="584.41017" y="136.17187" width="1.33887" height="4.33301" stroke="#000000" id="svg_77"/>
  <rect fill="#000000" stroke-width="null" stroke-dasharray="null" stroke-linejoin="null" stroke-linecap="null" x="599.17584" y="112.2832" width="4.18652" height="1.72266" id="svg_78" stroke="#000000"/>
  <rect fill="#000000" stroke-width="null" stroke-dasharray="null" stroke-linejoin="null" stroke-linecap="null" x="571.30572" y="111.14941" width="3.47461" height="1.72266" id="svg_79" stroke="#000000"/>
  <rect stroke="#000000" transform="rotate(89.35145568847656 258.45422363281256,288.9566650390625) " id="svg_59" height="6.93305" width="93.25529" y="285.49015" x="211.82658" stroke-linecap="null" stroke-linejoin="null" stroke-dasharray="null" stroke-width="0" fill="#7f0000"/>
  <ellipse id="svg_80" stroke="#000000" ry="6.5" rx="8.65625" cy="404.625" cx="325.84375" stroke-linecap="null" stroke-linejoin="null" stroke-dasharray="null" stroke-width="null" fill="#000000"/>
  <rect stroke="#000000" id="svg_82" height="68.0625" width="13.5" y="412.94342" x="255.19333" stroke-linecap="null" stroke-linejoin="null" stroke-dasharray="null" stroke-width="0" fill="#7f0000"/>
  <rect id="svg_83" stroke="#000000" height="68.0625" width="13.5" y="413.50592" x="341.81833" stroke-linecap="null" stroke-linejoin="null" stroke-dasharray="null" stroke-width="0" fill="#7f0000"/>
  <rect stroke="#000000" id="svg_84" height="74.25" width="10.125" y="406.19343" x="271.50583" stroke-linecap="null" stroke-linejoin="null" stroke-dasharray="null" stroke-width="0" fill="#7f0000"/>
  <ellipse stroke="#000000" id="svg_81" ry="11.00781" rx="10.72656" cy="468.00781" cx="293.22656" stroke-linecap="null" stroke-linejoin="null" stroke-dasharray="null" stroke-width="null" fill="#000000"/>
  <image stroke="null" xlink:href="http://res.cloudinary.com/kboyle/image/upload/v1530430046/apple-core.png" id="svg_93" height="60.53877" width="38.71219" y="311.42652" x="433.37155"/>
  <image fill="#ff0000" transform="rotate(81.38482666015625 394.7276611328125,313.6958923339843) " id="svg_95" stroke="null" xlink:href="http://res.cloudinary.com/kboyle/image/upload/v1530430046/apple-core.png" height="60.53877" width="38.71219" y="283.42652" x="375.37155"/>
  <rect stroke="#000000" id="svg_97" transform="rotate(-96.91122436523438 345.9224243164062,328.69815063476557) " height="6.42236" width="5" y="325.48698" x="343.42243" stroke-linecap="null" stroke-linejoin="null" stroke-dasharray="null" stroke-width="0" fill="#ffffff"/>
  <path id="svg_98" d="m384.34133,323.64799c0,0 -6.16992,3.79687 4.9834,2.61035c11.15332,-1.18652 11.62793,-6.64453 11.48289,-6.84623c-0.14504,-0.20171 -1.04149,-5.73092 -1.18653,-5.93262c-0.14503,-0.2017 0.61965,4.47319 -1.75339,6.13432c-2.37305,1.66113 -4.03418,1.18652 -4.17922,0.98482c-0.14504,-0.2017 -1.99071,1.86284 -2.13574,1.66113c-0.14504,-0.2017 0.14503,-2.40865 0,-2.61035c-0.14504,-0.2017 1.80617,3.76127 4.17921,-1.22212l2.22801,-5.18511" stroke-linecap="null" stroke-linejoin="null" stroke-dasharray="null" stroke-width="0" stroke="#000000" fill="#ffffff"/>
  <path transform="rotate(-9.740124702453613 292.099578857422,348.3596801757813) " id="svg_107" d="m286.30018,344.45256c0,0 -1.26563,8.22656 3.16406,9.17578c4.42969,0.94922 8.85938,-4.74609 8.59044,-4.94865c-0.26893,-0.20256 -0.68029,-2.01229 -0.94922,-2.21484c-0.26893,-0.20256 -3.52794,-2.01229 -3.79688,-2.21484c-0.26893,-0.20256 -3.21154,-1.06307 -3.48047,-1.26563" stroke-linecap="null" stroke-linejoin="null" stroke-dasharray="null" stroke-width="0" stroke="#4f3c3c" fill="#ffffff"/>
  <path id="svg_108" d="m290.72987,344.13615l5.10997,-2.101l-5.10997,2.101z" stroke-linecap="null" stroke-linejoin="null" stroke-dasharray="null" stroke-width="0" stroke="#4f3c3c" fill="#ffffff"/>
  <path stroke="#4f3c3c" transform="rotate(51.08281707763672 290.56201171874983,352.4001770019532) " id="svg_110" d="m283.61834,351.69768l8.02323,1.84766c0,0 0.1063,0.38007 3.60826,-0.21096c3.50195,-0.59103 2.25125,-1.18206 0.75042,-1.18206c-1.50084,0 -4.00223,0.63649 -4.87772,0.31825c-0.87549,-0.31825 -4.00223,-0.59103 -4.75265,-0.68196c-0.75042,-0.09093 -1.00056,-0.68196 -1.10686,-0.65285c-0.1063,0.0291 -1.64467,0.56193 -1.64467,0.56193z" stroke-linecap="null" stroke-linejoin="null" stroke-dasharray="null" stroke-width="0" fill="#ffffff"/>
  <path stroke="#4f3c3c" id="svg_111" transform="rotate(51.08281707763672 294.4605407714843,353.8421325683594) " d="m287.51686,354.95079l8.02323,-2.9159c0,0 0.1063,-0.59981 3.60825,0.33293c3.50196,0.93274 2.25126,1.86548 0.75042,1.86548c-1.50083,0 -4.00223,-1.0045 -4.87772,-0.50225c-0.87548,0.50225 -4.00223,0.93274 -4.75264,1.07624c-0.75042,0.1435 -1.00056,1.07624 -1.10687,1.0303c-0.1063,-0.04592 -1.64467,-0.8868 -1.64467,-0.8868z" stroke-linecap="null" stroke-linejoin="null" stroke-dasharray="null" stroke-width="0" fill="#ffffff"/>
  <path stroke="#4f3c3c" id="svg_112" transform="rotate(51.08281707763672 298.24890136718733,352.37945556640636) " d="m291.30523,353.31272l8.02323,-2.45462c0,0 0.1063,-0.50491 3.60825,0.28027c3.50196,0.78518 2.25126,1.57037 0.75042,1.57037c-1.50083,0 -4.00223,-0.8456 -4.87772,-0.42279c-0.87548,0.42279 -4.00223,0.78518 -4.75264,0.90597c-0.75042,0.1208 -1.00056,0.90599 -1.10687,0.86732c-0.1063,-0.03867 -1.64467,-0.74652 -1.64467,-0.74652z" stroke-linecap="null" stroke-linejoin="null" stroke-dasharray="null" stroke-width="0" fill="#ffffff"/>
  <path stroke="#4f3c3c" id="svg_113" transform="rotate(51.08281707763672 299.9238891601562,350.4698486328126) " d="m292.98021,351.41301l8.02323,-2.48058c0,0 0.1063,-0.51025 3.60825,0.28323c3.50196,0.79349 2.25126,1.58698 0.75041,1.58698c-1.50083,0 -4.00223,-0.85454 -4.87772,-0.42726c-0.87548,0.42726 -4.00223,0.79349 -4.75264,0.91555c-0.75041,0.12208 -1.00056,0.91557 -1.10687,0.87649c-0.1063,-0.03907 -1.64466,-0.75441 -1.64466,-0.75441z" stroke-linecap="null" stroke-linejoin="null" stroke-dasharray="null" stroke-width="0" fill="#ffffff"/>
  <path transform="rotate(29.462491989135742 295.9781494140625,344.57489013671875) " stroke="#000000" id="svg_114" d="m292.65375,346.95658c0,0 -1.96674,-3.15196 1.67537,-3.9554c3.6421,-0.80344 4.88042,-0.80344 4.8359,-0.8079c-0.04452,-0.00446 1.21,0.49889 0.84578,1.24052c-0.36421,0.74164 -1.89389,0.92705 -1.93841,0.92259c-0.04452,-0.00446 -2.50495,-0.18095 -2.54947,-0.18541c-0.04452,-0.00446 -1.19379,0.6843 -1.26664,1.42594c-0.07284,0.74164 -0.72842,0.86524 -0.77294,0.86078c-0.04452,-0.00446 -1.55801,0.06627 -1.60252,0.0618c-0.04452,-0.00446 0.77294,0.43709 0.77294,0.43709z" stroke-linecap="null" stroke-linejoin="null" stroke-dasharray="null" stroke-width="0" fill="#ffffff"/>
  <rect stroke="#000000" id="svg_120" height="9" width="9.04688" y="451.20311" x="288.26562" stroke-linecap="null" stroke-linejoin="null" stroke-dasharray="null" stroke-width="null" fill="#ffffff"/>
  <rect stroke="#000000" id="svg_121" height="9" width="6.9375" y="451.62499" x="322.4375" stroke-linecap="null" stroke-linejoin="null" stroke-dasharray="null" stroke-width="null" fill="#ffffff"/>
  <ellipse stroke="#000000" id="svg_62" ry="5.3125" rx="16" cy="464" cx="336.46875" stroke-linecap="null" stroke-linejoin="null" stroke-dasharray="null" stroke-width="null" fill="#000000"/>
 </g>
</svg>
