<svg width="640" height="479.99999999999994" xmlns="http://www.w3.org/2000/svg" xmlns:svg="http://www.w3.org/2000/svg">
 <!-- Created with SVG-edit - http://svg-edit.googlecode.com/ -->
 <g>
  <title>Layer 1</title>
  <rect stroke="#000000" fill="#7f7f7f" stroke-width="0" x="1.83335" y="-0.00001" width="642.75002" height="480.00001" id="svg_2"/>
  <rect fill="#ffffff" stroke-dasharray="null" stroke-linejoin="null" stroke-linecap="null" x="299.66667" y="207" width="14" height="61" id="svg_24" stroke="#000000"/>
  <ellipse fill="#000000" stroke-width="0" stroke-dasharray="null" stroke-linejoin="null" stroke-linecap="null" cx="328.91796" cy="89.50393" id="svg_21" rx="108.73829" ry="45.5625" stroke="#000000"/>
  <ellipse fill="#ffffff" stroke-width="0" cx="341.00002" cy="140" id="svg_3" rx="102" ry="78.75" stroke="#000000"/>
  <ellipse fill="#3f3f3f" stroke="#000000" stroke-width="0" stroke-dasharray="null" stroke-linejoin="null" stroke-linecap="null" cx="311.25002" cy="140.5" id="svg_4" rx="25.5" ry="22.5"/>
  <ellipse fill="#3f3f3f" stroke-width="0" stroke-dasharray="null" stroke-linejoin="null" stroke-linecap="null" cx="399.25002" cy="139.75" rx="22.5" ry="22.5" id="svg_5" stroke="#000000"/>
  <path fill="#000000" stroke-width="0" stroke-dasharray="null" stroke-linejoin="null" stroke-linecap="null" d="m325.68423,145.68568c0,0 25.97141,4.14427 25.97141,4.14427c0,0 36.35998,-5.52569 36.35998,-5.52569c0,0 -62.33139,1.38142 -62.33139,1.38142z" id="svg_11" transform="rotate(86.59153747558594 356.84988403320307,147.0670928955078) " opacity="0.5" stroke="#000000"/>
  <ellipse fill="#ffffff" stroke-dasharray="null" stroke-linejoin="null" stroke-linecap="null" cx="237.12502" cy="149" id="svg_12" rx="15.375" ry="33" stroke="#000000"/>
  <ellipse fill="#ffffff" stroke-width="0" stroke-dasharray="null" stroke-linejoin="null" stroke-linecap="null" cx="252.12502" cy="151.625" rx="15.375" ry="20.625" id="svg_14" stroke="#000000"/>
  <path fill="#000000" stroke="#000000" stroke-width="0" stroke-dasharray="null" stroke-linejoin="null" stroke-linecap="null" d="m347.94924,182.63281c0,0 7.5,6.75 7.5,6.75c0,0 10.5,-9 10.5,-9c0,0 -18,2.25 -18,2.25z" id="svg_8"/>
  <path fill="#ffffff" stroke-width="0" stroke-dasharray="null" stroke-linejoin="null" stroke-linecap="null" d="m341.40209,185.03726l14.9021,-10.33594l14.9021,10.33594l-29.8042,0z" id="svg_10" transform="rotate(-176.0072021484375 356.30419921875,179.8692932128906) " stroke="#000000"/>
  <path fill="#ffffff" stroke="#000000" stroke-width="null" stroke-dasharray="null" stroke-linejoin="null" stroke-linecap="null" d="m345.38834,199.41585c0,0 10.66203,4.50508 15.76778,1.35152c5.10576,-3.15356 5.03067,-4.12966 5.00883,-4.14604c-0.02184,-0.01638 -20.77661,2.79451 -20.77661,2.79451l0,0.00001z" id="svg_20" transform="rotate(7.608928680419922 355.7784423828128,199.25451660156244) "/>
  <path fill="#ffffff" stroke="#000000" stroke-width="null" stroke-dasharray="null" stroke-linejoin="null" stroke-linecap="null" d="m353.8621,196.42297c0,0 -0.52559,0.67576 2.62796,0.75085c3.15356,0.07508 3.22864,-0.75085 3.30373,-0.82593c0.07508,-0.07508 4.43,1.05119 4.40815,1.0348c-0.02184,-0.01638 1.37337,0.46689 2.95015,0.46689c1.57678,0 -9.23542,2.32763 -13.89067,1.65186c-4.65525,-0.67576 -7.50847,-1.72695 -7.53031,-1.74333c-0.02184,-0.01638 4.37676,-0.5843 6.40404,-0.95972c2.02729,-0.37542 1.72695,-0.37542 1.72695,-0.37542z" id="svg_19"/>
  <ellipse fill="#000000" stroke-width="0" stroke-dasharray="null" stroke-linejoin="null" stroke-linecap="null" cx="343.22265" cy="52.55081" rx="62.58985" ry="31.21875" id="svg_22" stroke="#000000"/>
  <path stroke="#000000" fill="#000000" stroke-dasharray="null" stroke-linejoin="null" stroke-linecap="null" d="m349.95616,256.55065c0,0 -64.95601,2.26927 -64.56233,1.81542c0.39367,-0.45386 -7.87345,8.16936 13.77855,20.4234c21.652,12.25404 10.23549,37.21597 39.36728,12.25404c29.13178,-24.96193 29.52546,-39.03139 20.86465,-38.12368c-8.6608,0.9077 -9.44815,3.63082 -9.44815,3.63082z" id="svg_25"/>
  <path stroke="#000000" id="svg_1" fill="#000000" stroke-dasharray="null" stroke-linejoin="null" stroke-linecap="null" d="m280.14943,253.8156c0,0 76.03642,4.08088 75.5756,3.26471c-0.46083,-0.81619 9.21654,14.69113 -16.12894,36.72784c-25.34547,22.0367 -11.98149,66.92627 -46.08269,22.0367c-34.10118,-44.88957 -34.56201,-70.19098 -24.42382,-68.55863c10.13819,1.63234 11.05985,6.52938 11.05985,6.52938z"/>
  <path stroke="#000000" opacity="0.5" id="svg_29" d="m7.55501,482.18666l3.875,-482.00001l12.91665,0l3.87499,482.00001l-20.66664,0z" stroke-linecap="null" stroke-linejoin="null" stroke-dasharray="null" stroke-width="0" fill="#3f3f3f"/>
  <path stroke="#000000" transform="rotate(179.4684295654297 547.5740966796875,230.09924316406253) " id="svg_31" d="m546.67531,461.46654l0.33703,-462.73459l1.12345,0l0.33703,462.73459l-1.79751,0l0,0z" stroke-linecap="null" stroke-linejoin="null" stroke-dasharray="null" stroke-width="0" fill="#3f3f3f"/>
  <path stroke="#000000" id="svg_38" d="m27.55501,476.51998l0.37499,-472l1.24998,0l0.37499,472l-1.99997,0z" stroke-linecap="null" stroke-linejoin="null" stroke-dasharray="null" stroke-width="0" fill="#3f3f3f"/>
  <path stroke="#000000" id="svg_6" d="m4.555,395.51999l118.31222,-61l394.37554,0l118.31222,61l-630.99998,0z" stroke-linecap="null" stroke-linejoin="null" stroke-dasharray="null" stroke-width="0" fill="#3f3f3f"/>
  <ellipse id="svg_9" cy="274" cx="-151" stroke-linecap="null" stroke-linejoin="null" stroke-dasharray="null" stroke-width="0" stroke="#000000" fill="#ffffff"/>
  <ellipse stroke="#000000" id="svg_13" ry="11" rx="59" cy="352" cx="383" stroke-linecap="null" stroke-linejoin="null" stroke-dasharray="null" stroke-width="0" fill="#ffffff"/>
  <ellipse ry="11" rx="91" id="svg_7" cy="349" cx="380" stroke-linecap="null" stroke-linejoin="null" stroke-dasharray="null" stroke="#000000" fill="#ffffff"/>
  <ellipse opacity="0.5" stroke="#000000" id="svg_15" ry="7" rx="57" cy="349" cx="381" stroke-linecap="null" stroke-linejoin="null" stroke-dasharray="null" fill="#ffffff"/>
  <ellipse stroke="#4f3c3c" id="svg_18" stroke-width="0" ry="8" rx="24" cy="265" cx="135" stroke-linecap="null" stroke-linejoin="null" stroke-dasharray="null" fill="#000000"/>
  <rect id="svg_30" height="58" width="48" y="266" x="111" stroke-linecap="null" stroke-linejoin="null" stroke-dasharray="null" stroke-width="null" stroke="#4f3c3c" fill="#565656"/>
  <ellipse stroke-width="0" stroke="#4f3c3c" ry="42" rx="19.5" id="svg_16" cy="293" cx="104.5" stroke-linecap="null" stroke-linejoin="null" stroke-dasharray="null" fill="#7f7f7f"/>
  <ellipse id="svg_33" stroke-width="0" stroke="#4f3c3c" ry="42" rx="19.5" cy="294" cx="166.5" stroke-linecap="null" stroke-linejoin="null" stroke-dasharray="null" fill="#7f7f7f"/>
  <ellipse stroke="#4f3c3c" ry="30" rx="30" id="svg_34" cy="341" cx="136" stroke-linecap="null" stroke-linejoin="null" stroke-dasharray="null" stroke-width="0" fill="#565656"/>
  <path id="svg_39" d="m122.57031,265.125c0,0 -14,-44 -32,-70c-18,-26 16,15 17,29c1,14 15,41 15,41z" stroke-linecap="null" stroke-linejoin="null" stroke-dasharray="null" stroke-width="0" stroke="#000000" fill="#000000"/>
  <path stroke="#000000" transform="rotate(171.84461975097656 90.37707519531251,182.0628662109375) " id="svg_40" d="m85.92452,186.18206c0,0 -3.63137,-6.687 2.15193,-6.6227c5.7833,0.0643 10.0199,-4.17937 6.72477,0.83587c-3.29514,5.01525 -5.17807,4.43657 -6.59027,5.01525c-1.4122,0.57868 -2.28642,0.77158 -2.28642,0.77158z" stroke-linecap="null" stroke-linejoin="null" stroke-dasharray="null" stroke-width="0" fill="#000000"/>
  <rect id="svg_42" height="4" width="628" y="397.33333" x="6.66667" stroke-linecap="null" stroke-linejoin="null" stroke-dasharray="null" stroke-width="0" stroke="#000000" fill="#000000"/>
  <rect stroke="#000000" id="svg_43" height="81.33334" width="20" y="400.00001" x="33.33333" stroke-linecap="null" stroke-linejoin="null" stroke-dasharray="null" stroke-width="0" fill="#3f3f3f"/>
  <rect stroke="#000000" id="svg_45" height="81.33334" width="9.33333" y="400.00001" x="52" stroke-linecap="null" stroke-linejoin="null" stroke-dasharray="null" stroke-width="0" fill="#000000"/>
  <rect id="svg_46" stroke="#000000" height="81.33334" width="20" y="397.33334" x="604" stroke-linecap="null" stroke-linejoin="null" stroke-dasharray="null" stroke-width="0" fill="#3f3f3f"/>
  <rect stroke="#000000" id="svg_47" height="77.33334" width="9.33333" y="400.00001" x="596" stroke-linecap="null" stroke-linejoin="null" stroke-dasharray="null" stroke-width="0" fill="#000000"/>
  <rect stroke="#000000" id="svg_48" height="76.08334" width="8" y="401.33334" x="112.83333" stroke-linecap="null" stroke-linejoin="null" stroke-dasharray="null" stroke-width="0" fill="#3f3f3f"/>
  <rect stroke="#000000" id="svg_49" height="81.33334" width="4" y="400.25001" x="114.33333" stroke-linecap="null" stroke-linejoin="null" stroke-dasharray="null" stroke-width="0" fill="#000000"/>
  <ellipse stroke="#000000" id="svg_53" ry="26.66667" rx="30.00001" cy="144" cx="311.33337" opacity="0.2" stroke-linecap="null" stroke-linejoin="null" stroke-dasharray="null" stroke-width="null" fill="#000000"/>
  <ellipse stroke="#000000" id="svg_54" ry="26" rx="24.66667" cy="143.33333" cx="399.33336" opacity="0.2" stroke-linecap="null" stroke-linejoin="null" stroke-dasharray="null" stroke-width="null" fill="#000000"/>
  <ellipse stroke="#000000" ry="10.66666" rx="8.66666" id="svg_51" cy="136.00001" cx="302.00001" opacity="0.2" stroke-linecap="null" stroke-linejoin="null" stroke-dasharray="null" stroke-width="null" fill="#ffffff"/>
  <ellipse id="svg_55" stroke="#000000" ry="10.66666" rx="8.66666" cy="137.33334" cx="388.66667" opacity="0.2" stroke-linecap="null" stroke-linejoin="null" stroke-dasharray="null" stroke-width="null" fill="#ffffff"/>
 </g>
</svg>
