<svg width="640.0000000000001" height="479.99999999999994" xmlns="http://www.w3.org/2000/svg" xmlns:svg="http://www.w3.org/2000/svg" xmlns:xlink="http://www.w3.org/1999/xlink">
 <!-- Created with SVG-edit - http://svg-edit.googlecode.com/ -->
 <defs>
  <radialGradient spreadMethod="pad" id="svg_94">
   <stop offset="0" stop-color="#ffffff"/>
   <stop offset="0.81999" stop-opacity="0" stop-color="0"/>
  </radialGradient>
  <linearGradient id="svg_99">
   <stop offset="0" stop-color="#7f7f7f"/>
   <stop offset="1" stop-color="#808080"/>
  </linearGradient>
  <radialGradient id="svg_92" spreadMethod="pad">
   <stop stop-color="#ffffff" offset="0.28483"/>
   <stop stop-color="0" stop-opacity="0" offset="0.74577"/>
  </radialGradient>
 </defs>
 <g>
  <title>Layer 1</title>
  <rect id="svg_2" height="480.00001" width="642.75002" y="-0.20834" x="0.28395" stroke-width="0" fill="url(#svg_99)" stroke="#000000"/>
  <rect id="svg_60" stroke="#000000" transform="rotate(89.35145568847656 275.32922363281244,292.3316955566406) " height="6.93305" width="93.25529" y="288.86515" x="228.70158" stroke-linecap="null" stroke-linejoin="null" stroke-dasharray="null" fill="#350000"/>
  <rect stroke="#000000" id="svg_64" transform="rotate(89.35145568847656 323.0106506347656,288.5346984863282) " height="6.93305" width="91.56789" y="285.06816" x="277.22672" stroke-linecap="null" stroke-linejoin="null" stroke-dasharray="null" fill="#350000"/>
  <rect stroke="#000000" id="svg_1" height="12" width="108.42188" y="241.84116" x="243.42451" stroke-linecap="null" stroke-linejoin="null" stroke-dasharray="null" fill="#350000"/>
  <rect id="svg_24" height="61" width="11.375" y="207" x="299.66667" stroke-linecap="null" stroke-linejoin="null" stroke-dasharray="null" fill="#ffffff" stroke="#000000"/>
  <ellipse stroke="#000000" ry="45.5625" rx="108.73829" id="svg_21" cy="89.50393" cx="328.91796" stroke-linecap="null" stroke-linejoin="null" stroke-dasharray="null" stroke-width="0" fill="#000000"/>
  <ellipse stroke="#000000" ry="78.75" rx="102" id="svg_3" cy="140" cx="341.00002" stroke-width="0" fill="#ffffff"/>
  <ellipse ry="22.5" rx="25.5" id="svg_4" cy="140.5" cx="311.25002" stroke-linecap="null" stroke-linejoin="null" stroke-dasharray="null" stroke-width="0" stroke="#000000" fill="#3f3f3f"/>
  <ellipse stroke="#000000" id="svg_5" ry="22.5" rx="22.5" cy="139.75" cx="399.25002" stroke-linecap="null" stroke-linejoin="null" stroke-dasharray="null" stroke-width="0" fill="#3f3f3f"/>
  <path stroke="#000000" opacity="0.5" transform="rotate(86.59153747558594 356.84988403320307,147.0670928955078) " id="svg_11" d="m325.68423,145.68568c0,0 25.97141,4.14427 25.97141,4.14427c0,0 36.35998,-5.52569 36.35998,-5.52569c0,0 -62.33139,1.38142 -62.33139,1.38142z" stroke-linecap="null" stroke-linejoin="null" stroke-dasharray="null" stroke-width="0" fill="#000000"/>
  <ellipse stroke="#000000" ry="33" rx="15.375" id="svg_12" cy="149" cx="237.12502" stroke-linecap="null" stroke-linejoin="null" stroke-dasharray="null" fill="#ffffff"/>
  <ellipse stroke="#000000" id="svg_14" ry="20.625" rx="15.375" cy="151.625" cx="252.12502" stroke-linecap="null" stroke-linejoin="null" stroke-dasharray="null" stroke-width="0" fill="#ffffff"/>
  <path id="svg_8" d="m347.94924,182.63281c0,0 7.5,6.75 7.5,6.75c0,0 10.5,-9 10.5,-9c0,0 -18,2.25 -18,2.25z" stroke-linecap="null" stroke-linejoin="null" stroke-dasharray="null" stroke-width="0" stroke="#000000" fill="#000000"/>
  <path stroke="#000000" transform="rotate(-176.0072021484375 356.30419921875,179.8692932128906) " id="svg_10" d="m341.40209,185.03726l14.9021,-10.33594l14.9021,10.33594l-29.8042,0z" stroke-linecap="null" stroke-linejoin="null" stroke-dasharray="null" stroke-width="0" fill="#ffffff"/>
  <path transform="rotate(7.608928680419922 355.7784423828128,199.25451660156244) " id="svg_20" d="m345.38834,199.41585c0,0 10.66203,4.50508 15.76778,1.35152c5.10576,-3.15356 5.03067,-4.12966 5.00883,-4.14604c-0.02184,-0.01638 -20.77661,2.79451 -20.77661,2.79451l0,0.00001z" stroke-linecap="null" stroke-linejoin="null" stroke-dasharray="null" stroke-width="null" stroke="#000000" fill="#ffffff"/>
  <path id="svg_19" d="m353.8621,196.42297c0,0 -0.52559,0.67576 2.62796,0.75085c3.15356,0.07508 3.22864,-0.75085 3.30373,-0.82593c0.07508,-0.07508 4.43,1.05119 4.40815,1.0348c-0.02184,-0.01638 1.37337,0.46689 2.95015,0.46689c1.57678,0 -9.23542,2.32763 -13.89067,1.65186c-4.65525,-0.67576 -7.50847,-1.72695 -7.53031,-1.74333c-0.02184,-0.01638 4.37676,-0.5843 6.40404,-0.95972c2.02729,-0.37542 1.72695,-0.37542 1.72695,-0.37542z" stroke-linecap="null" stroke-linejoin="null" stroke-dasharray="null" stroke-width="null" stroke="#000000" fill="#ffffff"/>
  <ellipse stroke="#000000" id="svg_22" ry="31.21875" rx="62.58985" cy="52.55081" cx="343.22265" stroke-linecap="null" stroke-linejoin="null" stroke-dasharray="null" stroke-width="0" fill="#000000"/>
  <rect id="svg_63" transform="rotate(89.35145568847656 292.69400024414057,294.5340270996094) " height="6.93305" width="81.25606" y="291.06751" x="252.06597" stroke-linecap="null" stroke-linejoin="null" stroke-dasharray="null" fill="#350000" stroke="#000000"/>
  <rect id="svg_66" transform="rotate(89.35145568847656 338.6582641601563,296.12799072265625) " height="6.93305" width="84.81833" y="292.66149" x="296.24909" stroke-linecap="null" stroke-linejoin="null" stroke-dasharray="null" fill="#350000" stroke="#000000"/>
  <path id="svg_25" d="m333.95616,261.88398c0,0 -64.95601,2.26927 -64.56233,1.81542c0.39367,-0.45386 -7.87345,8.16936 13.77855,20.4234c21.652,12.25404 10.23549,37.21597 39.36728,12.25404c29.13178,-24.96193 25.41218,-35.86732 16.75137,-34.95961c-8.6608,0.9077 -5.33487,0.46675 -5.33487,0.46675z" stroke-linecap="null" stroke-linejoin="null" stroke-dasharray="null" fill="#000000" stroke="#000000"/>
  <path fill="#3f3f3f" stroke-width="0" stroke-dasharray="null" stroke-linejoin="null" stroke-linecap="null" d="m7.55501,479.93666l3.875,-479.75001l12.91665,0l3.87499,479.75001l-20.66664,0z" id="svg_29" opacity="0.5" stroke="#000000"/>
  <path stroke="#000000" fill="#3f3f3f" stroke-width="0" stroke-dasharray="null" stroke-linejoin="null" stroke-linecap="null" d="m546.58138,481.7161l0.37225,-482.98372l1.24087,0l0.37225,482.98372l-1.98538,0l0,0z" id="svg_31" transform="rotate(179.4684295654297 547.5740966796875,240.2242431640625) "/>
  <path fill="#3f3f3f" stroke-width="0" stroke-dasharray="null" stroke-linejoin="null" stroke-linecap="null" d="m27.55501,481.01997l0.37499,-476.49999l1.24998,0l0.37499,476.49999l-1.99997,0l0.00001,0z" id="svg_38" stroke="#000000"/>
  <path fill="#3f3f3f" stroke-width="0" stroke-dasharray="null" stroke-linejoin="null" stroke-linecap="null" d="m4.555,395.51999l118.31222,-61l394.37554,0l118.31222,61l-630.99998,0z" id="svg_6" stroke="#000000"/>
  <ellipse fill="#ffffff" stroke="#000000" stroke-width="0" stroke-dasharray="null" stroke-linejoin="null" stroke-linecap="null" cx="-151" cy="274" id="svg_9"/>
  <ellipse fill="#ffffff" stroke-width="0" stroke-dasharray="null" stroke-linejoin="null" stroke-linecap="null" cx="455" cy="357.25" rx="59" ry="11" id="svg_13" stroke="#000000"/>
  <ellipse stroke="#4f3c3c" id="svg_106" transform="rotate(-0.9343173503875732 469.8768310546733,368.4135437011715) " opacity="0.1" fill="#000000" stroke-width="0" stroke-dasharray="null" stroke-linejoin="null" stroke-linecap="null" cx="469.87683" cy="368.41354" rx="73.36595" ry="10.74418"/>
  <ellipse fill="#ffffff" stroke="#000000" stroke-dasharray="null" stroke-linejoin="null" stroke-linecap="null" cx="454.72461" cy="354.57227" id="svg_7" rx="91" ry="11"/>
  <ellipse fill="url(#svg_94)" stroke-dasharray="null" stroke-linejoin="null" stroke-linecap="null" cx="453" cy="354.02148" rx="57" ry="7" id="svg_15" stroke="#000000" opacity="0.5"/>
  <ellipse fill="#282828" stroke-dasharray="null" stroke-linejoin="null" stroke-linecap="null" cx="136.89844" cy="260.88672" rx="24" ry="8" stroke-width="0" id="svg_18" stroke="#4f3c3c"/>
  <rect fill="#565656" stroke="#4f3c3c" stroke-width="null" stroke-dasharray="null" stroke-linejoin="null" stroke-linecap="null" x="111" y="266" width="48" height="58" id="svg_30"/>
  <ellipse opacity="0.1" id="svg_104" fill="#000000" stroke-dasharray="null" stroke-linejoin="null" stroke-linecap="null" cx="105.41406" cy="291.96875" rx="19.5" ry="42" stroke="#4f3c3c" stroke-width="0"/>
  <ellipse stroke="#4f3c3c" fill="#7f7f7f" stroke-dasharray="null" stroke-linejoin="null" stroke-linecap="null" cx="102.25" cy="290.375" id="svg_16" rx="19.5" ry="46.125" stroke-width="0"/>
  <path id="svg_115" fill="#3f3f3f" stroke-width="0" stroke-dasharray="null" stroke-linejoin="null" stroke-linecap="null" d="m104.91479,478.31515l0.57535,-478.47349l1.91788,0l0.57535,478.47349l-3.06858,0l0,0z" transform="rotate(179.4684295654297 106.4490737915039,239.0784149169922) " stroke="#000000"/>
  <path stroke="#000000" transform="rotate(89.7810287475586 66.02737426757812,174.1665496826172) " id="svg_118" d="m-34.73392,194.2857l37.78549,-40.23831l125.95163,0l37.78547,40.23831l-201.52259,0z" stroke-linecap="null" stroke-linejoin="null" stroke-dasharray="null" stroke-width="0" fill="#210044"/>
  <path stroke="#000000" transform="rotate(86.85797882080078 70.61122894287111,164.55244445800778) " id="svg_117" d="m-16.86443,183.46072l18.85855,-44.90571l167.10965,0.09805c16.54845,13.7522 1.59643,38.14463 18.14489,51.89683l-233.27487,-10.64022l29.16178,3.55105z" stroke-linecap="null" stroke-linejoin="null" stroke-dasharray="null" stroke-width="0" fill="#3f3f3f"/>
  <ellipse fill="#7f7f7f" stroke-dasharray="null" stroke-linejoin="null" stroke-linecap="null" cx="170.25" cy="294" rx="19.5" ry="42" stroke="#4f3c3c" stroke-width="0" id="svg_33"/>
  <ellipse stroke="#4f3c3c" transform="rotate(-18.230491638183594 109.29302215576166,371.8431396484375) " opacity="0.1" id="svg_105" fill="#000000" stroke-width="0" stroke-dasharray="null" stroke-linejoin="null" stroke-linecap="null" cx="109.29302" cy="371.84313" rx="40.66274" ry="14.13093"/>
  <ellipse fill="#565656" stroke-width="0" stroke-dasharray="null" stroke-linejoin="null" stroke-linecap="null" cx="136" cy="341" id="svg_34" rx="24.75" ry="30" stroke="#4f3c3c"/>
  <path fill="#000000" stroke-width="0" stroke-dasharray="null" stroke-linejoin="null" stroke-linecap="null" d="m131.85616,243.74164c0,0 -3.63137,-6.687 2.15193,-6.6227c5.7833,0.0643 10.0199,-4.17937 6.72477,0.83587c-3.29514,5.01525 -5.17807,4.43657 -6.59027,5.01525c-1.4122,0.57868 -2.28642,0.77158 -2.28642,0.77158l-0.00001,0z" id="svg_40" transform="rotate(-179.37796020507812 136.30871582031253,239.6224365234375) " stroke="#000000"/>
  <rect fill="#000000" stroke="#000000" stroke-width="0" stroke-dasharray="null" stroke-linejoin="null" stroke-linecap="null" x="6.66667" y="397.33333" width="628" height="4" id="svg_42"/>
  <rect fill="#3f3f3f" stroke-width="0" stroke-dasharray="null" stroke-linejoin="null" stroke-linecap="null" x="33.33333" y="400.00001" width="20" height="80.20834" id="svg_43" stroke="#000000"/>
  <rect fill="#000000" stroke-width="0" stroke-dasharray="null" stroke-linejoin="null" stroke-linecap="null" x="52" y="400.00001" width="9.33333" height="80.77084" id="svg_45" stroke="#000000"/>
  <rect stroke="#000000" fill="#3f3f3f" stroke-width="0" stroke-dasharray="null" stroke-linejoin="null" stroke-linecap="null" x="604" y="397.33334" width="20" height="83.58334" id="svg_46"/>
  <rect stroke="#000000" fill="#000000" stroke-width="0" stroke-dasharray="null" stroke-linejoin="null" stroke-linecap="null" x="596" y="398.50001" width="9.33333" height="81.83334" id="svg_47"/>
  <rect fill="#3f3f3f" stroke-width="0" stroke-dasharray="null" stroke-linejoin="null" stroke-linecap="null" x="112.83333" y="401.33334" width="8" height="78.89584" id="svg_48" stroke="#000000"/>
  <rect fill="#000000" stroke-width="0" stroke-dasharray="null" stroke-linejoin="null" stroke-linecap="null" x="114.33333" y="400.25001" width="4" height="79.64584" id="svg_49" stroke="#000000"/>
  <ellipse fill="#000000" stroke-width="null" stroke-dasharray="null" stroke-linejoin="null" stroke-linecap="null" opacity="0.2" cx="311.33337" cy="144" rx="30.00001" ry="26.66667" id="svg_53" stroke="#000000"/>
  <ellipse fill="#000000" stroke-width="null" stroke-dasharray="null" stroke-linejoin="null" stroke-linecap="null" opacity="0.2" cx="399.33336" cy="143.33333" rx="24.66667" ry="26" id="svg_54" stroke="#000000"/>
  <ellipse fill="#ffffff" stroke-width="null" stroke-dasharray="null" stroke-linejoin="null" stroke-linecap="null" opacity="0.2" cx="302.00001" cy="136.00001" id="svg_51" rx="8.66666" ry="10.66666" stroke="#000000"/>
  <ellipse fill="#ffffff" stroke-width="null" stroke-dasharray="null" stroke-linejoin="null" stroke-linecap="null" opacity="0.2" cx="388.66667" cy="137.33334" rx="8.66666" ry="10.66666" stroke="#000000" id="svg_55"/>
  <path id="svg_17" fill="#000000" stroke-width="0" stroke-dasharray="null" stroke-linejoin="null" stroke-linecap="null" d="m139.57295,237.75628c0,0 -3.63137,-6.687 2.15193,-6.6227c5.7833,0.0643 10.0199,-4.17937 6.72477,0.83587c-3.29514,5.01525 -5.17807,4.43657 -6.59027,5.01525c-1.4122,0.57868 -2.28642,0.77158 -2.28642,0.77158l-0.00001,0z" transform="rotate(59.96553421020508 144.02551269531247,233.6370849609375) " stroke="#000000"/>
  <path id="svg_23" fill="#000000" stroke-width="0" stroke-dasharray="null" stroke-linejoin="null" stroke-linecap="null" d="m149.78585,243.73284c0,0 -3.63137,-6.687 2.15193,-6.6227c5.7833,0.0643 10.0199,-4.17937 6.72477,0.83587c-3.29514,5.01525 -5.17807,4.43657 -6.59027,5.01525c-1.4122,0.57868 -2.28642,0.77158 -2.28642,0.77158l-0.00001,0z" transform="rotate(-156.60513305664062 154.23840332031253,239.61364746093753) " stroke="#000000"/>
  <path id="svg_26" fill="#000000" stroke-width="0" stroke-dasharray="null" stroke-linejoin="null" stroke-linecap="null" d="m119.17355,234.93499c0,0 -3.63138,-6.687 2.15192,-6.6227c5.78331,0.0643 10.01991,-4.17937 6.72478,0.83587c-3.29515,5.01525 -5.17808,4.43657 -6.59028,5.01525c-1.4122,0.57868 -2.28641,0.77158 -2.28641,0.77158l-0.00001,0z" transform="rotate(63.05271530151367 123.6260986328125,230.8157958984375) " stroke="#000000"/>
  <path id="svg_28" fill="#000000" stroke-width="0" stroke-dasharray="null" stroke-linejoin="null" stroke-linecap="null" d="m119.95871,245.77484c0,0 -3.63137,-6.687 2.15193,-6.6227c5.7833,0.0643 10.0199,-4.17937 6.72477,0.83587c-3.29514,5.01525 -5.17807,4.43657 -6.59027,5.01525c-1.4122,0.57868 -2.28642,0.77158 -2.28642,0.77158l-0.00001,0z" transform="rotate(22.82932472229004 124.41126251220686,241.65563964843753) " stroke="#000000"/>
  <rect stroke="#000000" id="svg_35" fill="#3f3f3f" stroke-width="0" stroke-dasharray="null" stroke-linejoin="null" stroke-linecap="null" x="506.16665" y="401.33334" width="8" height="79.83334"/>
  <rect stroke="#000000" id="svg_32" fill="#000000" stroke-width="0" stroke-dasharray="null" stroke-linejoin="null" stroke-linecap="null" x="511.66667" y="400.25001" width="4" height="81.33334"/>
  <path stroke="#000000" id="svg_36" d="m278.02639,266.24336c0,0 55.2396,2.26927 54.90481,1.81542c-0.33478,-0.45386 6.6957,8.16936 -11.7175,20.4234c-18.4132,12.25404 -8.70442,37.21597 -33.47855,12.25404c-24.77412,-24.96193 -21.61091,-35.86732 -14.24563,-34.95961c7.36528,0.9077 4.53686,0.46675 4.53686,0.46675l0.00001,0z" stroke-linecap="null" stroke-linejoin="null" stroke-dasharray="null" fill="#000000"/>
  <rect stroke="#000000" id="svg_41" height="60" width="5" y="264" x="264" stroke-linecap="null" stroke-linejoin="null" stroke-dasharray="null" stroke-width="null" fill="#000000"/>
  <rect stroke="#000000" transform="rotate(-44.443748474121094 278.26562500000006,334.95312499999994) " id="svg_44" height="33.81769" width="3.13278" y="318.04429" x="276.69923" stroke-linecap="null" stroke-linejoin="null" stroke-dasharray="null" stroke-width="0" fill="#ffffff"/>
  <rect stroke="#000000" id="svg_50" height="61.89844" width="5" y="264.10156" x="343" stroke-linecap="null" stroke-linejoin="null" stroke-dasharray="null" stroke-width="null" fill="#000000"/>
  <rect stroke="#000000" id="svg_52" transform="rotate(-96.91122436523438 366.28436279296875,326.15093994140625) " height="36.92646" width="5" y="307.68772" x="363.78437" stroke-linecap="null" stroke-linejoin="null" stroke-dasharray="null" stroke-width="0" fill="#ffffff"/>
  <rect stroke="#000000" id="svg_56" height="58" width="47" y="277.26563" x="283.57813" stroke-linecap="null" stroke-linejoin="null" stroke-dasharray="null" stroke-width="null" fill="#000000"/>
  <rect id="svg_70" height="12.9375" width="124.3125" y="401.1309" x="245.06833" stroke-linecap="null" stroke-linejoin="null" stroke-dasharray="null" stroke="#000000" fill="#350000"/>
  <rect stroke="#000000" id="svg_57" height="49.92188" width="12" y="401" x="287" stroke-linecap="null" stroke-linejoin="null" stroke-dasharray="null" stroke-width="null" fill="#000000"/>
  <rect id="svg_85" height="65.23242" width="10.125" y="414.08601" x="326.06833" stroke-linecap="null" stroke-linejoin="null" stroke-dasharray="null" fill="#350000" stroke="#000000"/>
  <rect stroke="#000000" id="svg_58" height="52.79688" width="9" y="399.00002" x="321" stroke-linecap="null" stroke-linejoin="null" stroke-dasharray="null" stroke-width="null" fill="#000000"/>
  <ellipse ry="5.375" rx="7.90625" id="svg_61" cy="404.625" cx="293.40625" stroke-linecap="null" stroke-linejoin="null" stroke-dasharray="null" stroke-width="null" fill="#000000" stroke="#000000"/>
  <ellipse fill="#000000" stroke-width="null" stroke-dasharray="null" stroke-linejoin="null" stroke-linecap="null" cx="590.22221" cy="111.11111" id="svg_72" rx="21.33334" ry="38.22222" stroke="#000000"/>
  <ellipse fill="#ffffff" stroke-width="null" stroke-dasharray="null" stroke-linejoin="null" stroke-linecap="null" cx="587.55555" cy="111.11111" rx="18.66667" ry="32.88889" stroke="#000000" id="svg_73" opacity="0.8"/>
  <rect fill="#000000" stroke-width="null" stroke-dasharray="null" stroke-linejoin="null" stroke-linecap="null" opacity="0.8" x="581.7313" y="84.08697" width="1.11411" height="29.25" id="svg_74" transform="rotate(-10.774657249450684 582.288330078125,98.71197509765628) " stroke="#000000"/>
  <rect fill="#000000" stroke-width="null" stroke-dasharray="null" stroke-linejoin="null" stroke-linecap="null" x="584.17286" y="94.16894" width="1.10156" height="19.2832" id="svg_75" stroke="#000000"/>
  <rect fill="#000000" stroke-width="null" stroke-dasharray="null" stroke-linejoin="null" stroke-linecap="null" x="585.35939" y="81.11719" width="1.33887" height="4.33301" id="svg_76" stroke="#000000"/>
  <rect fill="#000000" stroke-width="null" stroke-dasharray="null" stroke-linejoin="null" stroke-linecap="null" x="584.41017" y="136.17187" width="1.33887" height="4.33301" stroke="#000000" id="svg_77"/>
  <rect fill="#000000" stroke-width="null" stroke-dasharray="null" stroke-linejoin="null" stroke-linecap="null" x="599.17584" y="112.2832" width="4.18652" height="1.72266" id="svg_78" stroke="#000000"/>
  <rect fill="#000000" stroke-width="null" stroke-dasharray="null" stroke-linejoin="null" stroke-linecap="null" x="571.30572" y="111.14941" width="3.47461" height="1.72266" id="svg_79" stroke="#000000"/>
  <rect transform="rotate(89.35145568847656 258.52221679687494,294.96435546875006) " id="svg_59" height="6.93305" width="81.23908" y="291.49786" x="217.90268" stroke-linecap="null" stroke-linejoin="null" stroke-dasharray="null" fill="#350000" stroke="#000000"/>
  <ellipse id="svg_80" ry="6.5" rx="6.78125" cy="404.625" cx="325.46875" stroke-linecap="null" stroke-linejoin="null" stroke-dasharray="null" stroke-width="null" fill="#000000" stroke="#000000"/>
  <rect id="svg_82" height="65.41211" width="13.5" y="413.90632" x="255.19333" stroke-linecap="null" stroke-linejoin="null" stroke-dasharray="null" fill="#350000" stroke="#000000"/>
  <rect id="svg_83" height="67.35059" width="13.5" y="414.21783" x="341.81833" stroke-linecap="null" stroke-linejoin="null" stroke-dasharray="null" fill="#350000" stroke="#000000"/>
  <rect id="svg_84" height="65.94433" width="10.125" y="414.02449" x="271.50583" stroke-linecap="null" stroke-linejoin="null" stroke-dasharray="null" fill="#350000" stroke="#000000"/>
  <ellipse id="svg_81" ry="11.00781" rx="9.77734" cy="467.05859" cx="293.22656" stroke-linecap="null" stroke-linejoin="null" stroke-dasharray="null" stroke-width="null" fill="#000000" stroke="#000000"/>
  <image xlink:href="http://res.cloudinary.com/kboyle/image/upload/v1530430046/apple-core.png" id="svg_93" height="60.53877" width="38.71219" y="311.42652" x="433.37155"/>
  <image transform="rotate(81.38482666015625 394.7276611328125,313.6958923339843) " id="svg_95" xlink:href="http://res.cloudinary.com/kboyle/image/upload/v1530430046/apple-core.png" height="60.53877" width="38.71219" y="283.42652" x="375.37155"/>
  <rect stroke="#000000" id="svg_97" transform="rotate(-96.91122436523438 345.9224243164062,328.69815063476557) " height="6.42236" width="5" y="325.48698" x="343.42243" stroke-linecap="null" stroke-linejoin="null" stroke-dasharray="null" stroke-width="0" fill="#ffffff"/>
  <path id="svg_98" d="m384.34133,323.64799c0,0 -6.16992,3.79687 4.9834,2.61035c11.15332,-1.18652 11.62793,-6.64453 11.48289,-6.84623c-0.14504,-0.20171 -1.04149,-5.73092 -1.18653,-5.93262c-0.14503,-0.2017 0.61965,4.47319 -1.75339,6.13432c-2.37305,1.66113 -4.03418,1.18652 -4.17922,0.98482c-0.14504,-0.2017 -1.99071,1.86284 -2.13574,1.66113c-0.14504,-0.2017 0.14503,-2.40865 0,-2.61035c-0.14504,-0.2017 1.80617,3.76127 4.17921,-1.22212l2.22801,-5.18511" stroke-linecap="null" stroke-linejoin="null" stroke-dasharray="null" stroke-width="0" stroke="#000000" fill="#ffffff"/>
  <path transform="rotate(-9.740124702453613 292.099578857422,348.3596801757813) " id="svg_107" d="m286.30018,344.45256c0,0 -1.26563,8.22656 3.16406,9.17578c4.42969,0.94922 8.85938,-4.74609 8.59044,-4.94865c-0.26893,-0.20256 -0.68029,-2.01229 -0.94922,-2.21484c-0.26893,-0.20256 -3.52794,-2.01229 -3.79688,-2.21484c-0.26893,-0.20256 -3.21154,-1.06307 -3.48047,-1.26563" stroke-linecap="null" stroke-linejoin="null" stroke-dasharray="null" stroke-width="0" stroke="#4f3c3c" fill="#ffffff"/>
  <path id="svg_108" d="m290.72987,344.13615l5.10997,-2.101l-5.10997,2.101z" stroke-linecap="null" stroke-linejoin="null" stroke-dasharray="null" stroke-width="0" stroke="#4f3c3c" fill="#ffffff"/>
  <path stroke="#4f3c3c" transform="rotate(51.08281707763672 290.56201171874983,352.4001770019532) " id="svg_110" d="m283.61834,351.69768l8.02323,1.84766c0,0 0.1063,0.38007 3.60826,-0.21096c3.50195,-0.59103 2.25125,-1.18206 0.75042,-1.18206c-1.50084,0 -4.00223,0.63649 -4.87772,0.31825c-0.87549,-0.31825 -4.00223,-0.59103 -4.75265,-0.68196c-0.75042,-0.09093 -1.00056,-0.68196 -1.10686,-0.65285c-0.1063,0.0291 -1.64467,0.56193 -1.64467,0.56193l-0.00001,-0.00001z" stroke-linecap="null" stroke-linejoin="null" stroke-dasharray="null" stroke-width="0" fill="#ffffff"/>
  <path stroke="#4f3c3c" id="svg_111" transform="rotate(51.08281707763672 294.4605407714843,353.8421325683594) " d="m287.51686,354.95079l8.02323,-2.9159c0,0 0.1063,-0.59981 3.60825,0.33293c3.50196,0.93274 2.25126,1.86548 0.75042,1.86548c-1.50083,0 -4.00223,-1.0045 -4.87772,-0.50225c-0.87548,0.50225 -4.00223,0.93274 -4.75264,1.07624c-0.75042,0.1435 -1.00056,1.07624 -1.10687,1.0303c-0.1063,-0.04592 -1.64467,-0.8868 -1.64467,-0.8868z" stroke-linecap="null" stroke-linejoin="null" stroke-dasharray="null" stroke-width="0" fill="#ffffff"/>
  <path stroke="#4f3c3c" id="svg_112" transform="rotate(51.08281707763672 298.24890136718733,352.37945556640636) " d="m291.30523,353.31272l8.02323,-2.45462c0,0 0.1063,-0.50491 3.60825,0.28027c3.50196,0.78518 2.25126,1.57037 0.75042,1.57037c-1.50083,0 -4.00223,-0.8456 -4.87772,-0.42279c-0.87548,0.42279 -4.00223,0.78518 -4.75264,0.90597c-0.75042,0.1208 -1.00056,0.90599 -1.10687,0.86732c-0.1063,-0.03867 -1.64467,-0.74652 -1.64467,-0.74652z" stroke-linecap="null" stroke-linejoin="null" stroke-dasharray="null" stroke-width="0" fill="#ffffff"/>
  <path stroke="#4f3c3c" id="svg_113" transform="rotate(51.08281707763672 299.9238891601562,350.4698486328126) " d="m292.98021,351.41301l8.02323,-2.48058c0,0 0.1063,-0.51025 3.60825,0.28323c3.50196,0.79349 2.25126,1.58698 0.75041,1.58698c-1.50083,0 -4.00223,-0.85454 -4.87772,-0.42726c-0.87548,0.42726 -4.00223,0.79349 -4.75264,0.91555c-0.75041,0.12208 -1.00056,0.91557 -1.10687,0.87649c-0.1063,-0.03907 -1.64466,-0.75441 -1.64466,-0.75441z" stroke-linecap="null" stroke-linejoin="null" stroke-dasharray="null" stroke-width="0" fill="#ffffff"/>
  <path transform="rotate(29.462491989135742 296.45275878906244,345.0495300292969) " stroke="#000000" id="svg_114" d="m293.12836,347.43119c0,0 -1.96674,-3.15196 1.67537,-3.9554c3.6421,-0.80344 4.88042,-0.80344 4.8359,-0.8079c-0.04452,-0.00446 1.21,0.49889 0.84578,1.24052c-0.36421,0.74164 -1.89389,0.92705 -1.93841,0.92259c-0.04452,-0.00446 -2.50495,-0.18095 -2.54947,-0.18541c-0.04452,-0.00446 -1.19379,0.6843 -1.26664,1.42594c-0.07284,0.74164 -0.72842,0.86524 -0.77294,0.86078c-0.04452,-0.00446 -1.55801,0.06627 -1.60252,0.0618c-0.04452,-0.00446 0.77294,0.43709 0.77294,0.43709l-0.00001,-0.00001z" stroke-linecap="null" stroke-linejoin="null" stroke-dasharray="null" stroke-width="0" fill="#ffffff"/>
  <rect stroke="#000000" id="svg_120" height="9" width="9.04688" y="451.20311" x="288.26562" stroke-linecap="null" stroke-linejoin="null" stroke-dasharray="null" stroke-width="null" fill="#ffffff"/>
  <rect stroke="#000000" id="svg_121" height="9" width="6.9375" y="451.62499" x="322.4375" stroke-linecap="null" stroke-linejoin="null" stroke-dasharray="null" stroke-width="null" fill="#ffffff"/>
  <ellipse stroke="#000000" id="svg_62" ry="5.3125" rx="16" cy="466.00391" cx="336.46875" stroke-linecap="null" stroke-linejoin="null" stroke-dasharray="null" stroke-width="null" fill="#000000" transform="rotate(11.374775886535645 336.4687499999996,466.0039062499999) "/>
  <path fill="#00007f" stroke-dasharray="null" stroke-linejoin="null" stroke-linecap="null" d="m127.83231,211.22605c0,0 1.6875,25.5895 1.6875,32.26502c0,6.67552 0,10.01328 -0.31693,9.63665c-0.31693,-0.37663 2.42631,-33.55727 1.58256,-35.78245" id="svg_37" transform="rotate(-3.53952693939209 129.38986206054727,232.19123840332009) " stroke="#000000"/>
  <polygon fill="#aa2f2f" points="138.3974151611328,209.73960876464844 130.31849670410156,222.9643096923828 117.24653625488281,217.91293334960938 117.24653625488281,201.56629943847656 130.31849670410156,196.51492309570312 138.3974151611328,209.73960876464844 " stroke-width="0" transform="rotate(170.4022674560547 127.82197570800783,209.7396240234375) " stroke="#000000" id="svg_67"/>
  <polygon id="svg_65" fill="#721010" points="140.0849151611328,209.17710876464844 132.00599670410156,222.4018096923828 118.93403625488281,217.35043334960938 118.93403625488281,201.00379943847656 132.00599670410156,195.95242309570312 140.0849151611328,209.17710876464844 " stroke-width="0" transform="rotate(170.4022674560547 129.50947570800784,209.1771240234375) " stroke="#000000"/>
  <path fill="#00007f" stroke-dasharray="null" stroke-linejoin="null" stroke-linecap="null" d="m148.50419,213.7573c0,0 1.6875,25.58951 1.6875,32.26503c0,6.67552 0,10.01328 -0.31694,9.63665c-0.31693,-0.37663 2.42631,-33.55727 1.58256,-35.78245" transform="rotate(24.101037979125977 150.06172180175784,234.7224731445312) " stroke="#000000" id="svg_71"/>
  <polygon fill="#bc3636" points="173.1624298095703,213.62547302246094 162.0809326171875,227.07688903808594 144.15069580078125,221.9389190673828 144.15069580078125,205.3120880126953 162.0809326171875,200.174072265625 173.1624298095703,213.62547302246094 " stroke-width="0" transform="rotate(-100.2221450805664 158.65655517578128,213.62548828125003) " id="svg_68" stroke="#000000"/>
  <polygon fill="#750404" points="168.7567138671875,216.0618896484375 160.10885620117188,229.28659057617188 146.11631774902344,224.23521423339844 146.11631774902344,207.88858032226562 160.10885620117188,202.8372039794922 168.7567138671875,216.0618896484375 " stroke-width="0" transform="rotate(-173.22177124023438 157.43652343750003,216.0619049072266) " id="svg_69" stroke="#000000"/>
  <polygon stroke="#000000" transform="rotate(-94.8466567993164 385.20996093749994,307.4378356933594) " stroke-width="0" points="384.25172424316406,307.4378356933594 384.9837188720703,306.8948974609375 386.1681671142578,307.1022644042969 386.1681671142578,307.7734069824219 384.9837188720703,307.9808044433594 384.25172424316406,307.4378356933594 " fill="#7f7f7f" id="svg_87"/>
  <polygon stroke="#000000" id="svg_88" transform="rotate(-94.8466567993164 385.74755859374994,307.35870361328125) " stroke-width="0" points="384.2981565451304,307.3587653838328 385.4053354542633,305.7150830720672 387.1969480380143,306.3427379382735 387.1969480380143,308.37441119895055 385.4053354542633,309.0023204854512 384.2981565451304,307.3587653838328 " fill="#7f7f7f"/>
  <polygon stroke="#000000" id="svg_89" transform="rotate(-94.8466567993164 386.7257690429687,308.260009765625) " stroke-width="0" points="385.76756286621094,308.2600402832031 386.49949645996094,307.37640380859375 387.68394470214844,307.7138366699219 387.68394470214844,308.8061218261719 386.49949645996094,309.14361572265625 385.76756286621094,308.2600402832031 " fill="#7f7f7f"/>
  <polygon stroke="#000000" id="svg_90" transform="rotate(-33.99279022216797 388.31634521484364,307.6195678710938) " stroke-width="0" points="386.7252655029297,307.61964416503906 387.94065856933594,305.77732849121094 389.9073944091797,306.48085021972656 389.9073944091797,308.75807189941406 387.94065856933594,309.46177673339844 386.7252655029297,307.61964416503906 " fill="#7f7f7f"/>
  <path id="svg_91" transform="rotate(20.377836227416992 290.75744628906256,344.57492065429693) " stroke="#000000" d="m287.43305,346.95658c0,0 -1.96674,-3.15196 1.67537,-3.9554c3.6421,-0.80344 4.88042,-0.80344 4.8359,-0.8079c-0.04452,-0.00446 1.21,0.49889 0.84578,1.24052c-0.36421,0.74164 -1.89389,0.92705 -1.93841,0.92259c-0.04452,-0.00446 -2.50495,-0.18095 -2.54947,-0.18541c-0.04452,-0.00446 -1.19379,0.6843 -1.26664,1.42594c-0.07284,0.74164 -0.72842,0.86524 -0.77294,0.86078c-0.04452,-0.00446 -1.55801,0.06627 -1.60252,0.0618c-0.04452,-0.00446 0.77294,0.43709 0.77294,0.43709l-0.00001,-0.00001z" stroke-linecap="null" stroke-linejoin="null" stroke-dasharray="null" stroke-width="0" fill="#ffffff"/>
  <rect fill="#ffd4aa" stroke-width="0" stroke-dasharray="null" stroke-linejoin="null" stroke-linecap="null" x="199.89931" y="293.45487" width="5" height="52" id="svg_27" stroke="#000000"/>
  <path fill="#ffff00" stroke-width="0" stroke-dasharray="null" stroke-linejoin="null" stroke-linecap="null" d="m203.61737,292.44874c0,0 -10.9648,-5.70981 -6.57888,-14.27452c4.38592,-8.56471 4.93416,-12.84707 4.44112,-13.17172c-0.49304,-0.32465 5.4272,8.17564 5.4272,13.17172c0,4.99608 -3.28944,14.27452 -3.28944,14.27452z" id="svg_39" transform="rotate(2.345418930053711 201.4548645019555,278.7210998535158) " stroke="#000000" opacity="0.8"/>
  <ellipse fill="url(#svg_92)" stroke-width="0" stroke-dasharray="null" stroke-linejoin="null" stroke-linecap="null" cx="202.14933" cy="278.70488" id="svg_86" rx="72.50001" ry="63.99999" opacity="0.35" stroke="#000000"/>
  <path fill="#ff0000" stroke-width="0" stroke-dasharray="null" stroke-linejoin="null" stroke-linecap="null" d="m203.72549,291.87689c0,0 -9.67198,-3.87371 -5.80319,-9.68428c3.86879,-5.81057 4.35239,-8.71585 3.91749,-8.9361c-0.43491,-0.22025 4.7873,5.54661 4.7873,8.9361c0,3.3895 -2.9016,9.68428 -2.9016,9.68428z" transform="rotate(2.345418930053711 201.81796264648517,282.56362915039034) " opacity="0.5" id="svg_96" stroke="#000000"/>
  <ellipse fill="url(#svg_92)" stroke="#000000" stroke-width="0" stroke-dasharray="null" stroke-linejoin="null" stroke-linecap="null" opacity="0.35" cx="201.89931" cy="345.45487" id="svg_100" rx="33" ry="12"/>
  <rect fill="#000000" stroke-width="0" stroke-dasharray="null" stroke-linejoin="null" stroke-linecap="null" x="320.43804" y="460.29345" width="9.5625" height="11.10938" id="svg_109" stroke="#000000"/>
  <rect fill="#3f3f3f" stroke-width="null" stroke-dasharray="null" stroke-linejoin="null" stroke-linecap="null" x="129.67364" y="142.91618" width="76.4469" height="10.2041" id="svg_119" stroke="#000000"/>
  <rect stroke="#000000" fill="#560e0e" stroke-width="null" stroke-dasharray="null" stroke-linejoin="null" stroke-linecap="null" x="136.43308" y="110.9825" width="11.85185" height="30.93519" id="svg_122"/>
  <rect fill="#701414" stroke-width="null" stroke-dasharray="null" stroke-linejoin="null" stroke-linecap="null" x="148.43308" y="108.7325" width="11.85185" height="33.18519" stroke="#000000" id="svg_123"/>
  <rect stroke="#000000" fill="#560000" stroke-width="null" stroke-dasharray="null" stroke-linejoin="null" stroke-linecap="null" x="161.18308" y="111.7325" width="11.85185" height="30.18519" id="svg_124"/>
  <rect fill="#511010" stroke-width="null" stroke-dasharray="null" stroke-linejoin="null" stroke-linecap="null" x="173.93308" y="108.7325" width="11.85185" height="33.18519" stroke="#000000" id="svg_125"/>
  <rect stroke="#000000" fill="#6b0000" stroke-width="null" stroke-dasharray="null" stroke-linejoin="null" stroke-linecap="null" x="186.68308" y="111.7325" width="11.85185" height="30.93519" id="svg_126"/>
  <ellipse stroke="#4f3c3c" transform="rotate(-2.023454189300537 126.87070465087598,342.580291748047) " opacity="0.1" id="svg_101" fill="#000000" stroke-width="0" stroke-dasharray="null" stroke-linejoin="null" stroke-linecap="null" cx="126.87071" cy="342.58031" rx="15.6678" ry="27.3625"/>
  <ellipse stroke="#4f3c3c" id="svg_102" fill="#565656" stroke-width="0" stroke-dasharray="null" stroke-linejoin="null" stroke-linecap="null" cx="134.39258" cy="340.31641" rx="18.67383" ry="29.6836"/>
  <rect stroke="#000000" id="svg_116" height="12.75" width="3" y="154.34115" x="140.6745" stroke-linecap="null" stroke-linejoin="null" stroke-dasharray="null" stroke-width="null" fill="#000000"/>
  <rect id="svg_127" stroke="#000000" height="12.75" width="3" y="153.59115" x="187.9245" stroke-linecap="null" stroke-linejoin="null" stroke-dasharray="null" stroke-width="null" fill="#000000"/>
 </g>
</svg>
