<svg width="800" height="459.9999999999999" xmlns="http://www.w3.org/2000/svg" xmlns:svg="http://www.w3.org/2000/svg" xmlns:xlink="http://www.w3.org/1999/xlink">
 <!-- Created with SVG-edit - http://svg-edit.googlecode.com/ -->
 <defs>
  <radialGradient spreadMethod="pad" id="svg_1">
   <stop offset="0.1403" stop-color="#722b2b"/>
   <stop offset="0.18717" stop-color="#8dd4d4"/>
   <stop offset="0.18717" stop-color="#8dd4d4"/>
   <stop offset="0.80436" stop-color="#722b2b"/>
   <stop offset="1" stop-color="#8dd4d4"/>
  </radialGradient>
 </defs>
 <g stroke="null">
  <title>Layer 1</title>
  <rect fill="#ffffff" stroke-width="0" stroke-dasharray="null" stroke-linejoin="null" stroke-linecap="null" x="603.51593" y="359.83788" width="192.00001" height="176" id="svg_36" stroke="#000000"/>
  <rect stroke="#000000" fill="#ff7f00" stroke-width="0" stroke-dasharray="null" stroke-linejoin="null" stroke-linecap="null" x="605.74438" y="-6.4108" width="193.77537" height="367.36547" id="svg_23"/>
  <ellipse stroke="#000000" opacity="0.6" fill="url(#svg_1)" stroke-width="0" stroke-dasharray="null" stroke-linejoin="null" stroke-linecap="null" cx="290.26013" cy="363.01106" id="svg_34" rx="73.30617" ry="3.54257"/>
  <image stroke="null" x="150.98931" y="-321.31652" width="758.47436" height="1196.3741" id="svg_40" xlink:href="https://pbs.twimg.com/media/Djy_fm-UcAALUC6.jpg:large" transform="rotate(149.14971923828125 530.2265014648438,276.8705139160156) " opacity="0.45"/>
  <rect fill="#ffffff" stroke="#000000" stroke-width="0" stroke-dasharray="null" stroke-linejoin="null" stroke-linecap="null" x="-26.0864" y="358.58642" width="26.66667" height="177.77778" id="svg_37"/>
  <image x="-33.6613" y="0.28216" width="640" height="360" id="svg_3" xlink:href="https://pbs.twimg.com/media/DjjSktRU8AAVNUZ.jpg"/>
  <rect stroke="#000000" fill="#fc67af" stroke-width="0" x="-21.72889" y="378.90299" width="821.93373" height="104" id="svg_20" opacity="0.45"/>
  <rect stroke="#000000" fill="#cc4343" stroke-width="0" x="-14.9748" y="355.97423" width="815.69699" height="171.06652" id="svg_16" opacity="0.8"/>
  <rect stroke="#000000" fill="#ff77b9" stroke-width="0" x="-13.05" y="360.01046" width="825.33327" height="44.11696" opacity="0.55" id="svg_21"/>
  <rect stroke="#000000" id="svg_39" fill="#ff77b9" stroke-width="0" x="-10.94474" y="358.95783" width="825.33327" height="5.1696" opacity="0.55"/>
  <rect fill="#ff7f00" stroke-width="0" stroke-dasharray="null" stroke-linejoin="null" stroke-linecap="null" x="-17.88103" y="-2.65882" width="11.19445" height="542.05555" id="svg_22" stroke="#000000"/>
  <rect fill="#00ffff" stroke-width="0" x="-28.69125" y="478.51337" width="834.22206" height="48.88887" opacity="0.3" id="svg_24" stroke="#000000"/>
  <path fill="#0000ff" stroke-width="0" stroke-dasharray="null" stroke-linejoin="null" stroke-linecap="null" d="m525.70654,277.47122l128.06602,-42.28626l128.06602,42.28626l-256.13204,0z" id="svg_31" transform="rotate(20.19529914855957 653.7725830078124,256.32809448242193) " stroke="#000000"/>
  <rect fill="#0000ff" stroke-width="0" stroke-dasharray="null" stroke-linejoin="null" stroke-linecap="null" x="619.41974" y="251.22011" width="4.87067" height="145.90681" id="svg_33" transform="rotate(21.116586685180664 621.8551025390625,324.17352294921875) " stroke="#000000"/>
  <rect fill="#3f3f3f" stroke-width="0" stroke-dasharray="null" stroke-linejoin="null" stroke-linecap="null" x="618.12326" y="272.07501" width="2.14168" height="123.16947" id="svg_42" transform="rotate(21.344223022460938 619.1940917968752,333.65975952148443) " opacity="0.2" stroke="#000000"/>
  <rect fill="#3f3f3f" stroke-width="0" stroke-dasharray="null" stroke-linejoin="null" stroke-linecap="null" x="596.59817" y="407.27124" width="145.10928" height="2.69829" id="svg_43" transform="rotate(13.398824691772461 669.1527709960939,408.6203918457032) " stroke="#000000"/>
  <path fill="#3f3f3f" stroke-width="0" stroke-dasharray="null" stroke-linejoin="null" stroke-linecap="null" d="m713.07925,444.04011l57.5831,-13.43279l57.5831,13.43279l-115.16619,0l-0.00001,0z" transform="rotate(107.0465087890625 770.662353515625,437.3237304687499) " id="svg_45" opacity="0.75" stroke="#000000"/>
  <path fill="#3f3f3f" stroke-width="0" stroke-dasharray="null" stroke-linejoin="null" stroke-linecap="null" d="m694.42497,415.667l57.5831,27.02853l57.5831,-27.02853l-115.1662,0z" transform="rotate(107.0465087890625 752.0080566406249,429.18127441406244) " opacity="0.75" id="svg_46" stroke="#000000"/>
  <path fill="#3f3f3f" stroke-width="0" stroke-dasharray="null" stroke-linejoin="null" stroke-linecap="null" d="m622.25025,272.17106l28.94411,-35.26051l28.94411,35.26051l-57.88821,0l-0.00001,0z" transform="rotate(22.506139755249023 651.1943359375,254.54080200195324) " id="svg_49" opacity="0.25" stroke="#000000"/>
  <path fill="#3f3f3f" stroke-width="0" stroke-dasharray="null" stroke-linejoin="null" stroke-linecap="null" opacity="0.25" d="m710.5545,341.74435l0.26363,-127.54397l0.87877,0l0.26363,127.54397l-1.40604,0l0.00001,0z" id="svg_52" transform="rotate(-51.92229080200195 711.2575073242186,277.9723510742187) " stroke="#000000"/>
 </g>
</svg>
