<svg width="800" height="459.9999999999999" xmlns="http://www.w3.org/2000/svg" xmlns:svg="http://www.w3.org/2000/svg" xmlns:xlink="http://www.w3.org/1999/xlink" stroke="null" style="vector-effect: non-scaling-stroke;">
 <!-- Created with SVG-edit - http://svg-edit.googlecode.com/ -->
 <g stroke="null">
  <title stroke="null">Layer 1</title>
  <rect stroke="#000000" id="svg_23" height="492.27775" width="192.5278" y="-1.32549" x="609.23005" stroke-linecap="null" stroke-linejoin="null" stroke-dasharray="null" stroke-width="0" fill="#ff7f00"/>
  <image stroke="null" opacity="0.45" transform="rotate(154.0946502685547 527.2815551757812,267.50830078125006) " xlink:href="https://pbs.twimg.com/media/Djy_fm-UcAALUC6.jpg:large" id="svg_40" height="975.2282" width="725.34193" y="-220.10582" x="164.61058"/>
  <rect id="svg_37" height="177.77778" width="26.66667" y="358.58642" x="-26.0864" stroke-linecap="null" stroke-linejoin="null" stroke-dasharray="null" stroke-width="0" stroke="#000000" fill="#ffffff"/>
  <rect stroke="#000000" id="svg_36" height="176" width="192.00001" y="360.3642" x="610.35804" stroke-linecap="null" stroke-linejoin="null" stroke-dasharray="null" stroke-width="0" fill="#ffffff"/>
  <image stroke="null" xlink:href="https://pbs.twimg.com/media/DjjSktRU8AAVNUZ.jpg" id="svg_3" height="360" width="640" y="-1.29513" x="-27.87847"/>
  <rect stroke="#000000" opacity="0.8" id="svg_16" height="130.01388" width="824.11804" y="357.8021" x="-21.78125" stroke-width="0" fill="#cc4343"/>
  <rect stroke="#000000" opacity="0.45" id="svg_20" height="104" width="830.66665" y="389.45489" x="-26.98961" stroke-width="0" fill="#ff007f"/>
  <rect stroke="#000000" id="svg_21" opacity="0.3" height="104" width="825.33327" y="431.12156" x="-24.43402" stroke-width="0" fill="#ffaad4"/>
  <rect stroke="#000000" id="svg_22" height="542.05555" width="11.19445" y="-2.65882" x="-17.88103" stroke-linecap="null" stroke-linejoin="null" stroke-dasharray="null" stroke-width="0" fill="#ff7f00"/>
  <rect stroke="#000000" id="svg_24" opacity="0.3" height="48.88887" width="834.22206" y="486.23267" x="-27.9895" stroke-width="0" fill="#00ffff"/>
  <path stroke="#000000" transform="rotate(20.19529914855957 653.7725830078124,256.32809448242193) " id="svg_31" d="m525.70654,277.47122l128.06602,-42.28626l128.06602,42.28626l-256.13204,0z" stroke-linecap="null" stroke-linejoin="null" stroke-dasharray="null" stroke-width="0" fill="#0000ff"/>
  <rect stroke="#000000" transform="rotate(21.116586685180664 621.8551025390625,324.17352294921875) " id="svg_33" height="145.90681" width="4.87067" y="251.22011" x="619.41974" stroke-linecap="null" stroke-linejoin="null" stroke-dasharray="null" stroke-width="0" fill="#0000ff"/>
  <ellipse stroke="#000000" ry="25.77778" rx="17.77777" id="svg_34" cy="309.25961" cx="545.253" stroke-linecap="null" stroke-linejoin="null" stroke-dasharray="null" stroke-width="0" fill="#000000"/>
  <rect stroke="#000000" transform="rotate(-4.3526129722595215 550.6098632812513,364.40014648437597) " id="svg_35" height="18.74374" width="93.67724" y="355.02824" x="503.77128" stroke-linecap="null" stroke-linejoin="null" stroke-dasharray="null" stroke-width="0" fill="#000000"/>
  <rect transform="rotate(-95.3449478149414 547.5268554687501,343.4019470214843) " id="svg_38" height="64" width="14.22222" y="311.40196" x="540.41577" stroke-linecap="null" stroke-linejoin="null" stroke-dasharray="null" stroke-width="0" stroke="#000000" fill="#000000"/>
  <rect transform="rotate(86.76622009277344 554.1939697265625,387.81951904296875) " id="svg_39" height="64" width="14.22222" y="355.8195" x="547.08288" stroke-linecap="null" stroke-linejoin="null" stroke-dasharray="null" stroke-width="0" stroke="#000000" fill="#000000"/>
  <rect stroke="#000000" opacity="0.2" transform="rotate(21.344223022460938 619.1940917968752,333.65975952148443) " id="svg_42" height="123.16947" width="2.14168" y="272.07501" x="618.12326" stroke-linecap="null" stroke-linejoin="null" stroke-dasharray="null" stroke-width="0" fill="#3f3f3f"/>
  <rect stroke="#000000" transform="rotate(13.398824691772461 670.8403320312495,410.3078613281246) " id="svg_43" height="2.69829" width="145.10928" y="408.95874" x="598.28567" stroke-linecap="null" stroke-linejoin="null" stroke-dasharray="null" stroke-width="0" fill="#3f3f3f"/>
  <path stroke="#000000" opacity="0.75" id="svg_45" transform="rotate(107.0465087890625 772.560791015625,437.3237304687499) " d="m714.97769,444.04011l57.5831,-13.43279l57.5831,13.43279l-115.16619,0z" stroke-linecap="null" stroke-linejoin="null" stroke-dasharray="null" stroke-width="0" fill="#3f3f3f"/>
  <path stroke="#000000" id="svg_46" opacity="0.75" transform="rotate(107.0465087890625 753.9064941406249,431.0181579589844) " d="m696.32341,417.50391l57.5831,27.02853l57.5831,-27.02853l-115.1662,0z" stroke-linecap="null" stroke-linejoin="null" stroke-dasharray="null" stroke-width="0" fill="#3f3f3f"/>
  <path stroke="#000000" opacity="0.25" id="svg_49" transform="rotate(22.506139755249023 651.1943359375,254.54080200195324) " d="m622.25025,272.17106l28.94411,-35.26051l28.94411,35.26051l-57.88821,0z" stroke-linecap="null" stroke-linejoin="null" stroke-dasharray="null" stroke-width="0" fill="#3f3f3f"/>
  <path stroke="#000000" transform="rotate(-51.92229080200195 711.2575073242186,277.9723510742187) " id="svg_52" d="m710.5545,341.74435l0.26363,-127.54397l0.87877,0l0.26363,127.54397l-1.40604,0z" opacity="0.25" stroke-linecap="null" stroke-linejoin="null" stroke-dasharray="null" stroke-width="0" fill="#3f3f3f"/>
 </g>
</svg>
