<svg width="640" height="480" xmlns="http://www.w3.org/2000/svg" xmlns:svg="http://www.w3.org/2000/svg">
 <!-- Created with SVG-edit - http://svg-edit.googlecode.com/ -->
 <g stroke="null">
  <title>Layer 1</title>
  <rect stroke="#000000" fill="#ff7f00" stroke-width="0" stroke-dasharray="null" stroke-linejoin="null" stroke-linecap="null" x="28.00001" y="101.4" width="637.99997" height="299" id="svg_1"/>
  <path stroke="#000000" fill="#ffffff" stroke-width="0" stroke-dasharray="null" stroke-linejoin="null" stroke-linecap="null" d="m121.46348,392.38161l142.65295,-202.64032l142.65295,202.64032l-285.30591,0z" id="svg_2" transform="rotate(30.460102081298828 264.1164550781247,291.0614624023438) "/>
  <path stroke="#000000" id="svg_3" fill="#ffffff" stroke-width="0" stroke-dasharray="null" stroke-linejoin="null" stroke-linecap="null" d="m346.20662,196.55096l69.20694,-166.34446l69.20694,166.34446l-138.41387,0z" transform="rotate(65.26522064208984 415.41354370117193,113.37874603271483) "/>
  <path stroke="#000000" id="svg_4" fill="#ffffff" stroke-width="0" stroke-dasharray="null" stroke-linejoin="null" stroke-linecap="null" d="m196.14924,404.26225l200.39582,-340.0489l200.39585,340.0489l-400.79168,0z" transform="rotate(-34.51631164550781 396.5451049804686,234.23779296874997) "/>
  <rect stroke="#000000" id="svg_5" height="168.99999" width="227" y="70.40001" x="89.00001" stroke-linecap="null" stroke-linejoin="null" stroke-dasharray="null" stroke-width="0" fill="#ffffff"/>
  <path stroke="#000000" id="svg_7" fill="#ffffff" stroke-width="0" stroke-dasharray="null" stroke-linejoin="null" stroke-linecap="null" d="m75.74276,431.25462l27.66121,-101.58227l27.66122,101.58227l-55.32243,0z" transform="rotate(-20.400331497192383 103.40396881103527,380.4635009765625) "/>
  <path stroke="#000000" id="svg_8" fill="#ffffff" stroke-width="0" stroke-dasharray="null" stroke-linejoin="null" stroke-linecap="null" d="m71.24581,274.07431l27.66121,-127.87557l27.66122,127.87557l-55.32243,0z" transform="rotate(-164.5738525390625 98.90702056884766,210.1365203857422) "/>
 </g>
</svg>
