<svg width="640" height="479.99999999999994" xmlns="http://www.w3.org/2000/svg" xmlns:svg="http://www.w3.org/2000/svg">
 <!-- Created with SVG-edit - http://svg-edit.googlecode.com/ -->
 <g>
  <title>Layer 1</title>
  <ellipse stroke="#000000" ry="88.12501" rx="18.75" id="svg_3" cy="192.62499" cx="149.50002" stroke-linecap="null" stroke-linejoin="null" stroke-dasharray="null" stroke-width="0" fill="#ff7f00"/>
  <ellipse stroke="#000000" ry="123.37501" rx="21.25" id="svg_2" cy="234.125" cx="48.25001" stroke-linecap="null" stroke-linejoin="null" stroke-dasharray="null" stroke-width="0" fill="#ff7f00"/>
  <ellipse stroke="#000000" id="svg_8" ry="91.875" rx="13.75" cy="233.62499" cx="51.00002" stroke-linecap="null" stroke-linejoin="null" stroke-dasharray="null" stroke-width="0" fill="#ffaaaa"/>
  <ellipse stroke="#000000" id="svg_9" ry="88.12501" rx="9.5" cy="218.62499" cx="149.50001" stroke-linecap="null" stroke-linejoin="null" stroke-dasharray="null" stroke-width="0" fill="#ffaaaa"/>
  <ellipse stroke="#000000" ry="93.75" rx="98.625" id="svg_1" cy="314.43749" cx="114.93069" stroke-linecap="null" stroke-linejoin="null" stroke-dasharray="null" stroke-width="0" fill="#ff7f00"/>
  <ellipse ry="23.25" rx="17.25" id="svg_6" cy="275.25" cx="164.00002" stroke-linecap="null" stroke-linejoin="null" stroke-dasharray="null" stroke-width="0" stroke="#000000" fill="#f4d7d7"/>
  <ellipse stroke="#000000" ry="25.5" rx="18.75" id="svg_7" cy="279" cx="87.50002" stroke-linecap="null" stroke-linejoin="null" stroke-dasharray="null" stroke-width="0" fill="#f4d7d7"/>
  <polygon id="svg_11" stroke="#000000" stroke-width="0" points="150.7021942138672,307.5 143.25550842285156,316.9442138671875 131.20652770996094,313.33685302734375 131.20652770996094,301.66314697265625 143.25550842285156,298.0557861328125 150.7021942138672,307.5 " strokeWidth="0" strokecolor="#000000" fill="#7f0000" edge="30.21471" orient="x" sides="5" shape="regularPoly" cy="318.75" cx="126.50002"/>
  <polygon stroke="#000000" stroke-width="0" points="150.3081512451172,305.56787109375 142.86146545410156,315.0120849609375 130.81248474121094,311.40472412109375 130.81248474121094,299.73101806640625 142.86146545410156,296.1236572265625 150.3081512451172,305.56787109375 " strokeWidth="0" strokecolor="#000000" fill="#ff0000" edge="30.21471" orient="x" sides="5" shape="regularPoly" id="svg_10" cy="318.75" cx="126.50002"/>
  <polygon stroke="#000000" transform="rotate(34.09357833862305 104.81114196777327,224.5133209228516) " stroke-width="0" points="104.81114959716797,211.0892333984375 107.71432495117188,221.12779235839844 116.55474090576172,221.3443145751953 109.50858306884766,227.76504516601562 112.069091796875,237.93740844726562 104.81114959716797,231.8670654296875 97.55320739746094,237.93740844726562 100.11370849609375,227.76504516601562 93.06755065917969,221.3443145751953 101.90797424316406,221.12779235839844 104.81114959716797,211.0892333984375 107.71432495117188,221.12779235839844 " strokeWidth="null" strokecolor="#000000" fill="#ff7f00" orient="point" r2="35.1753" r="87.93826" point="5" shape="star" id="svg_21" cy="230.43752" cx="86.74995"/>
  <ellipse ry="20.25" rx="7.5" id="svg_22" cy="265.125" cx="81.68752" stroke-linecap="null" stroke-linejoin="null" stroke-dasharray="null" stroke-width="0" stroke="#000000" fill="#ff7f00"/>
  <ellipse id="svg_23" ry="20.25" rx="7.5" cy="267.375" cx="158.18752" stroke-linecap="null" stroke-linejoin="null" stroke-dasharray="null" stroke-width="0" stroke="#000000" fill="#ff7f00"/>
  <polygon stroke="#000000" id="svg_27" transform="rotate(34.09357833862305 54.56114959716783,331.76330566406256) " stroke-width="0" points="54.561148258374544,316.6575905735399 58.07849311944943,327.9536994688124 68.78911671990414,328.19731113676517 60.252328248266224,335.4223854078291 63.35451503276187,346.8690431545683 54.561148258374544,340.03826676501467 45.76778148398722,346.8690431545683 48.869959025082665,335.4223854078291 40.333179796844945,328.19731113676517 51.043803397299655,327.9536994688124 54.561148258374544,316.6575905735399 58.07849311944943,327.9536994688124 " strokeWidth="null" strokecolor="#000000" fill="#f2b882" orient="point" r2="35.1753" r="87.93826" point="5" shape="star" cy="230.43752" cx="86.74995"/>
  <polygon transform="rotate(13.654742240905762 68.27547454833989,328.5) " stroke-width="0" stroke="#000000" points="85.09281158447266,328.5 72.2455062866211,346.18280029296875 51.458133697509766,339.4285583496094 51.458133697509766,317.5714416503906 72.2455062866211,310.81719970703125 85.09281158447266,328.5 " strokeWidth="0" strokecolor="#000000" fill="#ff7f00" edge="21.85714" orient="x" sides="5" shape="regularPoly" id="svg_29" cy="320.25" cx="59.75002"/>
  <path transform="rotate(168.68226623535156 144.10089111328125,357.77847290039074) " stroke="#000000" id="svg_31" d="m133.81768,365.9523l0,-16.34767l20.56642,16.34767l-20.56642,0z" stroke-linecap="null" stroke-linejoin="null" stroke-dasharray="null" stroke-width="0" fill="#991616"/>
  <path stroke="#000000" id="svg_34" transform="rotate(174.0668182373047 145.70092773437497,357.53555297851557) " d="m138.07885,362.14488l0,-9.21868l15.24416,9.21868l-15.24416,0z" stroke-linecap="null" stroke-linejoin="null" stroke-dasharray="null" stroke-width="0" fill="#dd2a2a"/>
  <ellipse transform="rotate(-29.74488639831543 144.7665710449219,351.75292968750006) " ry="4.50879" rx="12.10254" id="svg_35" cy="351.75292" cx="144.76657" stroke-linecap="null" stroke-linejoin="null" stroke-dasharray="null" stroke="#7f3f00" fill="#ff7f00"/>
  <ellipse stroke="#000000" ry="13.28906" rx="18.77344" id="svg_32" cy="343.13083" cx="136.64553" stroke-linecap="null" stroke-linejoin="null" stroke-dasharray="null" stroke-width="0" fill="#ff7f00"/>
  <ellipse transform="rotate(-12.652769088745117 161.91409301757892,370.78121948242205) " id="svg_33" stroke="#000000" ry="13.28906" rx="18.77344" cy="370.78122" cx="161.91409" stroke-linecap="null" stroke-linejoin="null" stroke-dasharray="null" stroke-width="0" fill="#ff7f00"/>
  <ellipse stroke="#000000" id="svg_36" ry="9.9668" rx="3.74414" cy="357.21091" cx="135.85452" stroke-linecap="null" stroke-linejoin="null" stroke-dasharray="null" stroke-width="0" fill="#ff7f00"/>
  <ellipse id="svg_38" transform="rotate(-29.74488639831543 154.57516479492173,363.1435546875) " ry="4.50879" rx="12.10254" cy="363.14355" cx="154.57516" stroke-linecap="null" stroke-linejoin="null" stroke-dasharray="null" stroke="#7f3f00" fill="#ff7f00"/>
  <ellipse stroke="#000000" transform="rotate(-32.30320358276367 159.0745544433593,349.14886474609375) " id="svg_37" ry="13.15618" rx="3.74414" cy="349.14886" cx="159.07455" stroke-linecap="null" stroke-linejoin="null" stroke-dasharray="null" stroke-width="0" fill="#ff7f00"/>
  <ellipse stroke="#000000" id="svg_39" transform="rotate(61.26944351196289 155.66870117187497,366.14770507812494) " ry="16.29565" rx="5.90545" cy="366.14772" cx="155.66868" stroke-linecap="null" stroke-linejoin="null" stroke-dasharray="null" stroke-width="0" fill="#ff7f00"/>
  <ellipse stroke="#000000" transform="rotate(-43.629215240478516 144.37046813964827,365.2384643554687) " id="svg_40" ry="4.8834" rx="3.74414" cy="365.23847" cx="144.37046" stroke-linecap="null" stroke-linejoin="null" stroke-dasharray="null" stroke-width="0" fill="#ff7f00"/>
  <ellipse id="svg_41" stroke="#000000" transform="rotate(-43.629215240478516 160.82359313964847,355.42987060546875) " ry="4.8834" rx="3.74414" cy="355.42988" cx="160.82359" stroke-linecap="null" stroke-linejoin="null" stroke-dasharray="null" stroke-width="0" fill="#ff7f00"/>
 </g>
</svg>
