<svg width="640" height="480.00000000000017" xmlns="http://www.w3.org/2000/svg" xmlns:svg="http://www.w3.org/2000/svg">
 <!-- Created with SVG-edit - http://svg-edit.googlecode.com/ -->
 <g>
  <title>Layer 1</title>
  <ellipse stroke="#e5e58b" ry="124" rx="98.5" id="svg_77" cy="173" cx="259.3" opacity="0.95" stroke-linecap="null" stroke-linejoin="null" stroke-dasharray="null" stroke-width="0" fill="#8c8cf7"/>
  <ellipse stroke="#00ffff" ry="69.4948" rx="47.45313" id="svg_41" cy="183.38434" cx="256.8896" stroke-linecap="null" stroke-linejoin="null" stroke-dasharray="null" stroke-width="0" fill="#edaaaa"/>
  <polygon stroke="#e5e58b" stroke-width="0" points="211.38543701171875,70.31995391845703 213.31634521484375,76.52386474609375 219.19613647460938,76.65768432617188 214.5097198486328,80.62572479248047 216.2127227783203,86.91233825683594 211.38543701171875,83.16082000732422 206.55816650390625,86.91233825683594 208.26116943359375,80.62572479248047 203.57473754882812,76.65768432617188 209.45452880859375,76.52386474609375 211.38543701171875,70.31995391845703 213.31634521484375,76.52386474609375 " fill="#ff007f" id="svg_72" transform="rotate(-45.09101486206055 211.38543701171878,78.61614227294919) "/>
  <path transform="rotate(3.683162212371826 210.7750091552726,166.6132507324222) " stroke="#000000" id="svg_7" d="m208.96251,151.86326l3.625,-14.75l0,44.25l-3.625,14.74999l0,-44.24999z" stroke-linecap="null" stroke-linejoin="null" stroke-dasharray="null" fill="#7f0000"/>
  <path stroke="#000000" id="svg_8" d="m291.0332,159.69409l9.98563,-15.49832l0,46.49496l-9.98563,15.49831l0,-46.49494l0,-0.00001z" stroke-linecap="null" stroke-linejoin="null" stroke-dasharray="null" stroke-width="0" fill="#7f0000" transform="rotate(3.8383307456970215 296.0260314941408,175.19241333007838) "/>
  <polygon stroke="#000000" fill="#7f0000" points="286.41006889087384,157.56276702620465 300.7537883732957,172.91464834425727 323.9623760197801,167.0507531867451 323.9623760197801,148.0747663254469 300.7537883732957,142.21085662771742 286.41006889087384,157.56276702620465 " stroke-width="0" transform="rotate(-117.50167846679688 305.18621826171875,157.5627593994141) " id="svg_5"/>
  <polygon stroke="#000000" fill="#7f0000" points="276.25146484375,160.855224609375 291.35748291015625,173.11886596679688 315.79949951171875,168.4345703125 315.79949951171875,153.27587890625 291.35748291015625,148.59158325195312 276.25146484375,160.855224609375 " stroke-width="0" transform="rotate(-97.08348846435547 296.0254821777344,160.85522460937497) " id="svg_10"/>
  <line fill="none" stroke="#844343" stroke-width="2" stroke-dasharray="null" stroke-linejoin="null" stroke-linecap="null" x1="235" y1="166.6" x2="224" y2="199.6" id="svg_17"/>
  <line stroke="#6d3939" fill="none" stroke-width="2" stroke-dasharray="null" stroke-linejoin="null" stroke-linecap="null" x1="235.96212" y1="197.29199" x2="225.97488" y2="204.64457" id="svg_18" transform="rotate(37.46174240112305 230.96849060058582,200.96829223632818) "/>
  <path transform="rotate(-8.165899276733398 254.12499999999983,163.58314514160156) " stroke="#000000" fill="#7f0000" stroke-width="0" stroke-dasharray="null" stroke-linejoin="null" stroke-linecap="null" d="m240.3125,159.47687c12.05208,0.74705 24.10416,-0.89646 26.27084,5.97642c2.16667,6.87288 1.08334,1.64352 1.08334,1.55387c0,-0.08965 -1.89583,-7.38087 -1.89583,-7.47052c0,-0.08965 -0.8125,0.38847 -4.19792,-0.6574c-3.38542,-1.04587 -8.125,-0.59764 -8.125,-0.68729c0,-0.08965 -8.26042,0.68729 -8.26042,0.59764c0,-0.08965 -4.875,0.68729 -4.875,0.68729l0,-0.00001l-0.00001,0z" id="svg_20"/>
  <ellipse fill="#b2b267" stroke="#000000" stroke-width="2" stroke-dasharray="null" stroke-linejoin="null" stroke-linecap="null" cx="220" cy="169.6" id="svg_22" rx="2" ry="5"/>
  <ellipse fill="#b2b267" stroke="#000000" stroke-width="2" stroke-dasharray="null" stroke-linejoin="null" stroke-linecap="null" cx="253.63794" cy="169.77798" rx="2" ry="5" id="svg_24"/>
  <ellipse fill="#ff7f00" stroke-width="0" stroke-dasharray="null" stroke-linejoin="null" stroke-linecap="null" cx="219.26247" cy="169.78174" id="svg_25" rx="0.97888" ry="3.2926" opacity="0.5" stroke="#000000"/>
  <ellipse fill="#ff7f00" stroke-width="0" stroke-dasharray="null" stroke-linejoin="null" stroke-linecap="null" cx="252.54446" cy="170.31567" rx="0.97888" ry="3.2926" opacity="0.5" stroke="#000000" id="svg_26"/>
  <ellipse fill="#00ffff" stroke-width="0" stroke-dasharray="null" stroke-linejoin="null" stroke-linecap="null" cx="251.47659" cy="170.31567" rx="0.97888" ry="3.2926" opacity="0.5" stroke="#000000" id="svg_27"/>
  <ellipse fill="#00ffff" stroke-width="0" stroke-dasharray="null" stroke-linejoin="null" stroke-linecap="null" cx="218.1946" cy="169.95972" rx="0.97888" ry="3.2926" opacity="0.5" stroke="#000000" id="svg_28"/>
  <path stroke="#000000" id="svg_1" d="m226.42333,212.71499c0,0 2.18065,2.69299 6.29966,1.6158c4.11901,-1.0772 4.3613,-0.96948 4.3613,-1.03411c0,-0.06463 12.59931,3.08078 12.59931,3.01615c0,-0.06463 -24.71403,-1.44344 -24.71403,-1.50808c0,-0.06463 -3.87671,-1.7666 -1.21147,-2.08976c2.66524,-0.32316 2.66524,0 2.66524,0l-0.00001,0z" stroke-width="0" fill="#7f0000"/>
  <ellipse stroke="#6d3939" ry="0.63281" rx="6.43074" id="svg_11" cy="202.46766" cx="230.78982" opacity="0.5" stroke-linecap="null" stroke-linejoin="null" stroke-dasharray="null" stroke-width="2" fill="none"/>
  <path stroke="#7f0000" id="svg_13" d="m223.7409,217.54924c0,0 1.96207,3.31409 10.65123,1.87318c8.68916,-1.44091 8.68916,-1.44091 8.60958,-1.52204c-0.07958,-0.08113 -3.56426,2.96294 -9.73076,2.81885c-6.1665,-0.14409 -8.68916,-1.00864 -9.53005,-1.585c-0.84089,-0.57636 0,-1.585 0,-1.585l0,0.00001z" stroke-linecap="null" stroke-linejoin="null" stroke-dasharray="null" stroke-width="0" fill="#7f0000"/>
  <polygon stroke="#a07272" transform="rotate(21.28138542175293 311.47183227539057,164.72590637207037) " stroke-width="2" points="311.4718322753906,155.04376220703125 313.0081787109375,162.28408813476562 317.68646240234375,162.44024658203125 313.9576721191406,167.07118225097656 315.31268310546875,174.40805053710938 311.4718322753906,170.02980041503906 307.6309814453125,174.40805053710938 308.9859924316406,167.07118225097656 305.2572021484375,162.44024658203125 309.93548583984375,162.28408813476562 311.4718322753906,155.04376220703125 313.0081787109375,162.28408813476562 " fill="#a06d6d" id="svg_14"/>
  <path stroke="#965858" transform="rotate(-89.88261413574219 239.27413940429688,238.6252899169922) " id="svg_15" d="m239.91323,226.57552c0,0 -4.41165,9.55463 -1.17644,17.06183c3.23521,7.50721 3.52932,2.72989 3.49665,2.68437c-0.03267,-0.04552 -2.32021,7.55273 -3.79076,2.77541c-1.47055,-4.77731 -2.79404,-14.33194 -1.76466,-17.74431c1.02938,-3.41237 3.23521,-4.77731 3.23521,-4.77731l0,0.00001z" stroke-linecap="null" stroke-linejoin="null" stroke-dasharray="null" fill="#7f0000"/>
  <path stroke="#7f2323" transform="rotate(-9.17534351348877 249.3892822265629,215.40428161621094) " id="svg_19" d="m249.90358,207.43326c0,0 -1.9203,4.69247 -0.79461,9.94804c1.1257,5.25557 1.32435,6.00636 1.30964,5.99384c-0.01471,-0.01252 -2.3029,-5.43075 -2.03803,-8.62163c0.26487,-3.19088 1.523,-7.32026 1.523,-7.32026l0,0.00001z" stroke-linecap="null" stroke-linejoin="null" stroke-dasharray="null" stroke-width="0.3" fill="#7f0000"/>
  <polygon stroke="#000000" id="svg_29" fill="#7f0000" points="296.01739501953125,185.9061279296875 308.3972473144531,188.8889617919922 328.42828369140625,187.74961853027344 328.42828369140625,184.06265258789062 308.3972473144531,182.9232940673828 296.01739501953125,185.9061279296875 " stroke-width="0" transform="rotate(-83.04230499267578 312.22283935546875,185.9061279296875) "/>
  <path id="svg_32" transform="rotate(176.8744659423828 314.2412414550781,146.08871459960938) " d="m312.89685,142.58034c0,0 5.01987,2.06535 2.07718,4.37855c-2.94266,2.3132 -3.46197,2.64365 -3.42352,2.63814c0.03845,-0.00551 6.01999,-2.3903 5.3276,-3.79474c-0.69239,-1.40444 -3.98126,-3.22195 -3.98126,-3.22195z" stroke-linecap="null" stroke-linejoin="null" stroke-dasharray="null" stroke-width="0.3" fill="#7f0000" stroke="#7f2323"/>
  <polygon stroke="#000000" id="svg_33" fill="#7f0000" points="301.20308817079217,161.70800698399322 307.3552821497267,171.56703103184478 317.30972723963146,167.80120766758697 317.30972723963146,155.61477578282134 307.3552821497267,151.84895241856353 301.20308817079217,161.70800698399322 " stroke-width="0" transform="rotate(-97.08348846435547 309.2564086914063,161.70799255371097) "/>
  <polygon id="svg_34" fill="#bf6363" points="287.4007568359375,165.7924041748047 300.19268798828125,179.13873291015625 320.8904113769531,174.04087829589844 320.8904113769531,157.5438690185547 300.19268798828125,152.44601440429688 287.4007568359375,165.7924041748047 " stroke-width="0" transform="rotate(178.85549926757812 304.14556884765625,165.79237365722656) " stroke="#000000"/>
  <polygon stroke="#a07272" id="svg_36" transform="rotate(14.279905319213867 315.03372192382824,171.6727905273436) " stroke-width="2" points="315.0337219238281,160.46592712402344 315.8738098144531,168.84645080566406 318.431884765625,169.02720642089844 316.3929748535156,174.3874053955078 317.1338806152344,182.87966918945312 315.0337219238281,177.8119354248047 312.93353271484375,182.87966918945312 313.6744689941406,174.3874053955078 311.63555908203125,169.02720642089844 314.1936340332031,168.84645080566406 315.0337219238281,160.46592712402344 315.8738098144531,168.84645080566406 " fill="#a06d6d"/>
  <path stroke="#000000" transform="rotate(8.145116806030273 210.59252929687474,153.82452392578122) " id="svg_38" d="m208.86699,153.82452l1.72553,-13.28996l1.72553,13.28996l-1.72553,13.28996l-1.72553,-13.28996z" stroke-linecap="null" stroke-linejoin="null" stroke-dasharray="null" stroke-width="0" fill="#a07070"/>
  <path stroke="#000000" fill="#7f0000" stroke-width="0" stroke-dasharray="null" stroke-linejoin="null" stroke-linecap="null" d="m230.96891,159.41666c-11.34813,0.72789 -22.69625,-0.87347 -24.73637,5.8231c-2.04011,6.69657 -1.02006,1.60135 -1.02006,1.514c0,-0.08735 1.7851,-7.19153 1.7851,-7.27887c0,-0.08735 0.76504,0.3785 3.95272,-0.64054c3.18768,-1.01905 7.65042,-0.58232 7.65042,-0.66966c0,-0.08735 7.77793,0.66966 7.77793,0.58232c0,-0.08735 4.59025,0.66966 4.59025,0.66966l0.00001,0l0,-0.00001z" id="svg_21" transform="rotate(10.332831382751465 217.963195800781,163.41758728027358) "/>
  <polygon id="svg_40" stroke="#000000" fill="#7f0000" points="298.82989501953125,187.5936279296875 311.2097473144531,190.5764617919922 331.24078369140625,189.43711853027344 331.24078369140625,185.75015258789062 311.2097473144531,184.6107940673828 298.82989501953125,187.5936279296875 " stroke-width="0" transform="rotate(-83.04230499267578 315.03533935546875,187.59362792968753) "/>
  <ellipse stroke="#7f0000" ry="12.10254" rx="7.91895" id="svg_39" cy="175.28612" cx="306.4109" stroke-linecap="null" stroke-linejoin="null" stroke-dasharray="null" fill="#edaaaa"/>
  <polygon stroke="#a07272" stroke-width="0" points="310.6217346191406,184.03070068359375 306.3149719238281,199.84347534179688 299.3465270996094,193.80352783203125 299.3465270996094,174.25784301757812 306.3149719238281,168.2178955078125 310.6217346191406,184.03070068359375 " fill="#edaaaa" id="svg_35"/>
  <path stroke="#f23c3c" transform="rotate(88.67416381835938 224.87557983398435,151.29676818847656) " id="svg_44" d="m214.03709,162.70427l0,-22.81499l21.67699,22.81499l-21.67699,0z" stroke-linecap="null" stroke-linejoin="null" stroke-dasharray="null" stroke-width="0" fill="#edaaaa"/>
  <path stroke="#f23c3c" transform="rotate(18.7429256439209 273.35470581054693,185.39776611328122) " id="svg_45" d="m265.44419,194.1281l0,-17.46067l15.82108,17.46067l-15.82108,0z" stroke-linecap="null" stroke-linejoin="null" stroke-dasharray="null" stroke-width="0" fill="#edaaaa"/>
  <path stroke="#000000" id="svg_2" d="m209.94872,144.18365l1.11496,-5.0625l1.11496,5.0625l-2.22992,0z" stroke-linecap="null" stroke-linejoin="null" stroke-dasharray="null" stroke-width="0" fill="#7f0000"/>
  <ellipse stroke="#7f0000" transform="rotate(2.5052490234375 305.1452636718762,177.81736755371213) " stroke-width="0.5" id="svg_3" ry="12.1302" rx="6.65272" cy="177.81737" cx="305.14527" stroke-linecap="null" stroke-linejoin="null" stroke-dasharray="null" fill="#edaaaa"/>
  <ellipse stroke="#7f0000" id="svg_6" transform="rotate(2.5052490234375 303.3661804199215,181.83963012695295) " stroke-width="0" ry="9.40907" rx="5.17757" cy="181.83963" cx="303.36618" stroke-linecap="null" stroke-linejoin="null" stroke-dasharray="null" fill="#edaaaa"/>
  <rect stroke="#e5e58b" id="svg_78" height="8.25" width="25.5" y="126.75" x="215.75002" opacity="0.95" stroke-linecap="null" stroke-linejoin="null" stroke-dasharray="null" stroke-width="0" fill="#8c8cf7"/>
  <ellipse stroke="#000000" ry="5.625" rx="47.25" id="svg_43" cy="138.075" cx="259.10002" stroke-linecap="null" stroke-linejoin="null" stroke-dasharray="null" stroke-width="0" fill="#543a3a"/>
  <rect transform="rotate(6.008937835693359 290.7500305175786,130.125) " id="svg_79" stroke="#e5e58b" height="8.25" width="25.5" y="126" x="278.00002" opacity="0.95" stroke-linecap="null" stroke-linejoin="null" stroke-dasharray="null" stroke-width="0" fill="#8c8cf7"/>
  <ellipse stroke="#e5e58b" ry="32.625" rx="37.79784" id="svg_46" cy="107.32501" cx="258.48577" stroke-linecap="null" stroke-linejoin="null" stroke-dasharray="null" stroke-width="0" fill="#ff007f"/>
  <polygon id="svg_49" stroke-width="0" stroke="#e5e58b" points="254.75001525878906,85.9130859375 262.34112548828125,107.7517318725586 285.4566955566406,108.22279357910156 267.03269958496094,122.19087982177734 273.727783203125,144.32066345214844 254.75001525878906,131.11476135253906 235.77224731445312,144.32066345214844 242.46734619140625,122.19087982177734 224.0433349609375,108.22279357910156 247.15890502929688,107.7517318725586 254.75001525878906,85.9130859375 262.34112548828125,107.7517318725586 " fill="#ff007f"/>
  <polygon transform="rotate(23.39608383178711 291.71459960937506,66.51921844482418) " stroke="#e5e58b" id="svg_50" stroke-width="0" points="291.7146301269531,57.7236328125 294.25762939453125,64.30098724365234 302.0013732910156,64.44286346435547 295.8293151855469,68.64976501464844 298.07220458984375,75.31480407714844 291.7146301269531,71.33745574951172 285.3570556640625,75.31480407714844 287.59991455078125,68.64976501464844 281.4278564453125,64.44286346435547 289.17156982421875,64.30098724365234 291.7146301269531,57.7236328125 294.25762939453125,64.30098724365234 " fill="#ff007f"/>
  <polygon transform="rotate(19.80002784729004 319.2646484375,101.05374908447256) " stroke="#e5e58b" stroke-width="0" points="319.2646789550781,80.17913818359375 321.92108154296875,95.78921508789062 330.0101013183594,96.12592315673828 323.5628356933594,106.11019134521484 325.9057312011719,121.92835998535156 319.2646789550781,112.48890686035156 312.6236267089844,121.92835998535156 314.96649169921875,106.11019134521484 308.51922607421875,96.12592315673828 316.6082458496094,95.78921508789062 319.2646789550781,80.17913818359375 321.92108154296875,95.78921508789062 " fill="#f99dca" id="svg_51"/>
  <ellipse stroke="#e5e58b" ry="24.75" rx="30" id="svg_52" cy="109.2" cx="257.00001" stroke-linecap="null" stroke-linejoin="null" stroke-dasharray="null" stroke-width="0" fill="#ff00ff"/>
  <ellipse stroke="#e5e58b" transform="rotate(93.09404754638672 258.2282409667969,112.60440826416014) " id="svg_31" ry="6.75" rx="19.69283" cy="112.60441" cx="258.22825" stroke-linecap="null" stroke-linejoin="null" stroke-dasharray="null" stroke-width="0" fill="#bfbfbf"/>
  <ellipse stroke="#e5e58b" transform="rotate(91.4148178100586 252.37435913085938,114.30472564697267) " id="svg_30" ry="3.65025" rx="16.81417" cy="114.30473" cx="252.37436" stroke-linecap="null" stroke-linejoin="null" stroke-dasharray="null" stroke-width="0" fill="#ff00ff"/>
  <ellipse ry="3.00058" rx="11.98172" cy="115.80918" cx="261.93845" stroke-linecap="null" stroke-linejoin="null" stroke-dasharray="null" stroke-width="0" fill="#0000ff" opacity="0.3" id="svg_73" transform="rotate(93.20083618164062 261.9384460449219,115.8091659545898) " stroke="#e5e58b"/>
  <ellipse id="svg_37" transform="rotate(91.4148178100586 263.58465576171875,117.62049865722655) " ry="3.62195" rx="14.06074" cy="117.62049" cx="263.58467" stroke-linecap="null" stroke-linejoin="null" stroke-dasharray="null" stroke-width="0" fill="#ff00ff" stroke="#e5e58b"/>
  <ellipse ry="1.36652" rx="13.5" cy="113.22145" cx="258.31245" stroke-linecap="null" stroke-linejoin="null" stroke-dasharray="null" stroke-width="0" fill="#7f7f7f" id="svg_76" stroke="#e5e58b"/>
  <ellipse stroke="#e5e58b" ry="6.75" rx="23.34375" cy="99.52442" cx="258.5937" stroke-linecap="null" stroke-linejoin="null" stroke-dasharray="null" stroke-width="0" fill="#7f7f7f" id="svg_16" opacity="0.8"/>
  <ellipse stroke="#e5e58b" ry="6.75" rx="23.34375" id="svg_23" cy="98.81251" cx="258.5937" stroke-linecap="null" stroke-linejoin="null" stroke-dasharray="null" stroke-width="0" fill="#bfbfbf"/>
  <ellipse id="svg_54" ry="3.375" rx="15.56251" cy="129.56251" cx="257.93744" stroke-linecap="null" stroke-linejoin="null" stroke-dasharray="null" stroke-width="0" fill="#0000ff" opacity="0.3" stroke="#e5e58b"/>
  <ellipse stroke="#e5e58b" id="svg_47" ry="3.375" rx="13.5" cy="128.62501" cx="257.74995" stroke-linecap="null" stroke-linejoin="null" stroke-dasharray="null" stroke-width="0" fill="#bfbfbf"/>
  <ellipse id="svg_58" stroke="#e5e58b" ry="6.75" rx="9.84375" cy="92.06251" cx="259.71869" stroke-linecap="null" stroke-linejoin="null" stroke-dasharray="null" stroke-width="0" fill="#7f7f7f"/>
  <ellipse id="svg_59" stroke="#e5e58b" ry="6.75" rx="9.84375" cy="94.87501" cx="249.03119" stroke-linecap="null" stroke-linejoin="null" stroke-dasharray="null" stroke-width="0" fill="#7f7f7f"/>
  <ellipse id="svg_60" ry="4.2583" rx="9.77564" cy="97.78419" cx="248.50385" opacity="0.5" stroke-linecap="null" stroke-linejoin="null" stroke-dasharray="null" stroke-width="0" fill="#ffffff" stroke="#e5e58b"/>
  <ellipse id="svg_55" ry="6.48303" rx="9.84375" cy="95.28212" cx="249.75154" stroke-linecap="null" stroke-linejoin="null" stroke-dasharray="null" stroke-width="0" fill="#bfbfbf" stroke="#e5e58b"/>
  <ellipse ry="5.86011" rx="9.84375" cy="91.98952" cx="260.07429" stroke-linecap="null" stroke-linejoin="null" stroke-dasharray="null" stroke-width="0" fill="#bfbfbf" id="svg_4" stroke="#e5e58b"/>
  <ellipse ry="4.97022" rx="9.59766" cy="97.60621" cx="268.43744" opacity="0.5" stroke-linecap="null" stroke-linejoin="null" stroke-dasharray="null" stroke-width="0" fill="#ffffff" id="svg_12" stroke="#e5e58b"/>
  <ellipse id="svg_62" stroke="#e5e58b" ry="6.75" rx="9.84375" cy="95.43751" cx="268.71869" stroke-linecap="null" stroke-linejoin="null" stroke-dasharray="null" stroke-width="0" fill="#7f7f7f"/>
  <ellipse ry="5.86011" rx="9.84375" cy="95.37111" cx="267.72737" stroke-linecap="null" stroke-linejoin="null" stroke-dasharray="null" stroke-width="0" fill="#bfbfbf" stroke="#e5e58b" id="svg_9"/>
  <ellipse ry="1.47722" rx="3.87046" cy="104.63865" cx="245.32317" stroke-linecap="null" stroke-linejoin="null" stroke-dasharray="null" stroke-width="0" fill="#7f7f7f" transform="rotate(10.81128978729248 245.32316589355452,104.63864898681649) " stroke="#e5e58b" id="svg_63"/>
  <ellipse ry="1.47722" rx="3.87046" cy="103.92674" cx="245.85711" stroke-linecap="null" stroke-linejoin="null" stroke-dasharray="null" stroke-width="0" fill="#bfbfbf" id="svg_57" transform="rotate(10.81128978729248 245.85710144042986,103.92672729492189) " stroke="#e5e58b"/>
  <ellipse ry="1.47722" rx="3.87046" cy="103.21482" cx="276.11345" stroke-linecap="null" stroke-linejoin="null" stroke-dasharray="null" stroke-width="0" fill="#7f7f7f" transform="rotate(-12.59776496887207 276.11346435546864,103.21482086181636) " stroke="#e5e58b" id="svg_64"/>
  <ellipse ry="1.47722" rx="3.87046" cy="102.85886" cx="275.04558" stroke-linecap="null" stroke-linejoin="null" stroke-dasharray="null" stroke-width="0" fill="#bfbfbf" transform="rotate(-6.947676658630371 275.04559326171886,102.85886383056668) " stroke="#e5e58b" id="svg_65"/>
  <ellipse ry="1.5" rx="13.5" id="svg_42" cy="112.68752" cx="258.31245" stroke-linecap="null" stroke-linejoin="null" stroke-dasharray="null" stroke-width="0" fill="#bfbfbf" stroke="#e5e58b"/>
  <ellipse fill="#3f3f3f" stroke-width="0" stroke-dasharray="null" stroke-linejoin="null" stroke-linecap="null" opacity="0.8" cx="258.07958" cy="111.77854" id="svg_66" rx="8.54297" ry="0.35596" stroke="#e5e58b"/>
  <rect fill="#bfbfbf" stroke-width="0" stroke-dasharray="null" stroke-linejoin="null" stroke-linecap="null" x="256.12182" y="110.17671" width="3.20361" height="1.60181" id="svg_67" stroke="#e5e58b"/>
  <ellipse ry="2.26428" rx="4.14844" cy="96.12587" cx="248.27497" stroke-linecap="null" stroke-linejoin="null" stroke-dasharray="null" stroke-width="0" fill="#7f7f7f" id="svg_68" stroke="#e5e58b"/>
  <ellipse ry="2.47522" rx="3.51562" cy="95.07118" cx="250.17341" stroke-linecap="null" stroke-linejoin="null" stroke-dasharray="null" stroke-width="0" fill="#bfbfbf" id="svg_69" stroke="#e5e58b"/>
  <ellipse ry="2.26428" rx="4.14844" cy="92.75087" cx="252.91559" stroke-linecap="null" stroke-linejoin="null" stroke-dasharray="null" stroke-width="0" fill="#7f7f7f" stroke="#e5e58b" id="svg_70"/>
  <ellipse ry="2.26428" rx="3.30469" cy="93.59462" cx="252.91559" stroke-linecap="null" stroke-linejoin="null" stroke-dasharray="null" stroke-width="0" fill="#bfbfbf" id="svg_71" stroke="#e5e58b"/>
  <rect fill="#b0b0f4" stroke-width="0" stroke-dasharray="null" stroke-linejoin="null" stroke-linecap="null" opacity="0.5" x="259.14746" y="111.64503" width="1.42383" height="0.31146" id="svg_74" stroke="#e5e58b"/>
  <rect fill="#b0b0f4" stroke-width="0" stroke-dasharray="null" stroke-linejoin="null" stroke-linecap="null" opacity="0.5" x="259.14746" y="110.97761" width="1.29034" height="0.71191" id="svg_75" stroke="#e5e58b"/>
  <polygon stroke="#e5e58b" transform="rotate(104.73858642578125 212.46908569335938,114.93453216552732) " id="svg_56" stroke-width="0" points="212.4690916159657,111.10129144215455 213.31453267425653,113.96779444970537 215.88903764090767,114.02962740720898 213.83706551005938,115.86305098380956 214.58275071023175,118.76776874246946 212.4690916159657,117.03438751401711 210.35545510111527,118.76776874246946 211.10110643216424,115.86305098380956 209.04913430131595,114.02962740720898 211.6236166885515,113.96779444970537 212.4690916159657,111.10129144215455 213.31453267425653,113.96779444970537 " fill="#ff007f"/>
  <polygon stroke="#e5e58b" id="svg_61" transform="rotate(128.83082580566406 304.3922119140625,126.42350006103514) " stroke-width="0" points="304.3922119140625,121.85750579833984 305.5348815917969,125.27195739746094 309.0144958496094,125.34561157226562 306.2411193847656,127.52950286865234 307.24896240234375,130.98948669433594 304.3922119140625,128.92475128173828 301.5354919433594,130.98948669433594 302.54327392578125,127.52950286865234 299.7698974609375,125.34561157226562 303.2494812011719,125.27195739746094 304.3922119140625,121.85750579833984 305.5348815917969,125.27195739746094 " fill="#ff007f"/>
  <polygon id="svg_80" stroke="#e5e58b" transform="rotate(104.73858642578125 191.09408569335935,100.6845245361328) " stroke-width="0" points="191.09410095214844,95.22879028320312 192.2367706298828,99.30859375 195.7163848876953,99.39659118652344 192.94300842285156,102.00605773925781 193.9508514404297,106.1402587890625 191.09410095214844,103.67318725585938 188.2373809814453,106.1402587890625 189.24517822265625,102.00605773925781 186.4718017578125,99.39659118652344 189.95138549804688,99.30859375 191.09410095214844,95.22879028320312 192.2367706298828,99.30859375 " fill="#f28cbd"/>
  <polygon stroke="#e5e58b" id="svg_81" stroke-width="0" points="261.26043701171875,64.11271667480469 262.60231018066406,66.54563903808594 266.68841552734375,66.59811401367188 263.431640625,68.15422821044922 264.6151428222656,70.61957550048828 261.26043701171875,69.14837646484375 257.90574645996094,70.61957550048828 259.08924865722656,68.15422821044922 255.8324432373047,66.59811401367188 259.91856384277344,66.54563903808594 261.26043701171875,64.11271667480469 262.60231018066406,66.54563903808594 " fill="#f794c2" transform="rotate(-45.09101486206055 261.2604370117188,67.36614990234374) "/>
 </g>
</svg>
