<svg width="640" height="480.00000000000017" xmlns="http://www.w3.org/2000/svg" xmlns:svg="http://www.w3.org/2000/svg">
 <!-- Created with SVG-edit - http://svg-edit.googlecode.com/ -->
 <defs>
  <radialGradient cy="0.33047" cx="0.49927" gradientTransform="translate(0,0.17919381142690266) scale(1,0.4577586206896551)" r="2.16863" spreadMethod="repeat" id="d_svg_107">
   <stop offset="0.10864" stop-color="#ffffaa"/>
   <stop offset="0.17505" stop-opacity="0" stop-color="0"/>
   <stop offset="0.24536" stop-color="#ffffaa"/>
   <stop offset="0.98364" stop-color="#ffffaa"/>
  </radialGradient>
  <radialGradient cy="0.34609" cx="0.50317" gradientTransform="translate(0,0.2974615802538806) scale(1,0.14051724137931032)" r="2.16863" spreadMethod="repeat" id="d_svg_110">
   <stop offset="0.10864" stop-color="#ffffaa"/>
   <stop offset="0.17505" stop-opacity="0" stop-color="0"/>
   <stop offset="0.24536" stop-color="#ffffaa"/>
   <stop offset="0.98364" stop-color="#ffffaa"/>
  </radialGradient>
 </defs>
 <g stroke="null">
  <title>Layer 1</title>
  <rect stroke="#e5e58b" id="d_svg_84" height="16.3184" width="21.32405" y="462.86339" x="1.62366" stroke-linecap="null" stroke-linejoin="null" stroke-dasharray="null" stroke-width="0" fill="#ffffff"/>
  <ellipse id="d_svg_101" fill="#ffff56" stroke-width="0" stroke-dasharray="null" stroke-linejoin="null" stroke-linecap="null" opacity="0.95" cx="334.77324" cy="247.11564" rx="199.97327" ry="191.23458" stroke="#e5e58b"/>
  <ellipse fill-opacity="0.93" fill="url(#svg_107)" stroke-width="0" stroke-dasharray="null" stroke-linejoin="null" stroke-linecap="null" opacity="0.95" cx="320.96388" cy="159.82307" rx="44.39906" ry="5" id="d_svg_103" stroke="#e5e58b"/>
  <ellipse stroke="#e5e58b" id="d_svg_108" fill-opacity="0.93" fill="url(#svg_110)" stroke-width="0" stroke-dasharray="null" stroke-linejoin="null" stroke-linecap="null" opacity="0.95" cx="320.79998" cy="193" rx="44" ry="16"/>
  <ellipse stroke="#e5e58b" fill-opacity="0.93" fill="url(#svg_107)" stroke-width="0" stroke-dasharray="null" stroke-linejoin="null" stroke-linecap="null" opacity="0.95" cx="319.29999" cy="187" id="d_svg_77" rx="50.5" ry="5"/>
  <path stroke="#000000" fill="#7f0000" stroke-dasharray="null" stroke-linejoin="null" stroke-linecap="null" d="m272.6264,224.45561l3.625,-14.75l0,44.25l-3.625,14.74999l0,-44.24999z" id="d_svg_7" transform="rotate(3.683162212371826 274.43890380859244,239.20559692382807) " stroke-width="0.1"/>
  <ellipse fill="#edaaaa" stroke-width="0" stroke-dasharray="null" stroke-linejoin="null" stroke-linecap="null" cx="320.21968" cy="263.99469" id="d_svg_41" rx="47.45313" ry="69.4948" stroke="#00ffff"/>
  <polygon stroke="#e5e58b" transform="rotate(-45.09101486206055 273.38543701171875,156.61613464355472) " id="d_svg_72" fill="#ff007f" points="273.38543701171875,148.31995391845703 275.31634521484375,154.52386474609375 281.1961364746094,154.65768432617188 276.5097198486328,158.62572479248047 278.2127227783203,164.91233825683594 273.38543701171875,161.16082000732422 268.55816650390625,164.91233825683594 270.26116943359375,158.62572479248047 265.5747375488281,154.65768432617188 271.45452880859375,154.52386474609375 273.38543701171875,148.31995391845703 275.31634521484375,154.52386474609375 " stroke-width="0"/>
  <path stroke="#000000" transform="rotate(3.8383307456970215 358.0260009765615,253.19241333007787) " fill="#7f0000" stroke-width="0" stroke-dasharray="null" stroke-linejoin="null" stroke-linecap="null" d="m353.0332,237.69409l9.98563,-15.49832l0,46.49496l-9.98563,15.49831l0,-46.49494l0,-0.00001z" id="d_svg_8"/>
  <polygon stroke="#000000" id="d_svg_5" transform="rotate(-117.50167846679688 367.18621826171875,235.56275939941412) " stroke-width="0" points="348.4100646972656,235.56275939941406 362.7537841796875,250.91464233398438 385.9623718261719,245.05075073242188 385.9623718261719,226.07476806640625 362.7537841796875,220.2108612060547 348.4100646972656,235.56275939941406 " fill="#7f0000"/>
  <polygon stroke="#000000" id="d_svg_10" transform="rotate(-97.08348846435547 358.0254821777344,238.85522460937503) " stroke-width="0" points="338.25146484375,238.855224609375 353.35748291015625,251.11886596679688 377.79949951171875,246.4345703125 377.79949951171875,231.27587890625 353.35748291015625,226.59158325195312 338.25146484375,238.855224609375 " fill="#7f0000"/>
  <line stroke="#844343" id="d_svg_17" y2="277.6" x2="286" y1="244.6" x1="297" stroke-linecap="null" stroke-linejoin="null" stroke-dasharray="null" stroke-width="2" fill="none"/>
  <line stroke="#6d3939" transform="rotate(37.46174240112305 292.9685058593749,278.9682922363282) " id="d_svg_18" y2="282.64457" x2="287.97488" y1="275.29199" x1="297.96212" stroke-linecap="null" stroke-linejoin="null" stroke-dasharray="null" stroke-width="2" fill="none"/>
  <path stroke="#000000" id="d_svg_20" d="m302.3125,237.47687c12.05208,0.74705 24.10416,-0.89646 26.27084,5.97642c2.16667,6.87288 1.08334,1.64352 1.08334,1.55387c0,-0.08965 -1.89583,-7.38087 -1.89583,-7.47052c0,-0.08965 -0.8125,0.38847 -4.19792,-0.6574c-3.38542,-1.04587 -8.125,-0.59764 -8.125,-0.68729c0,-0.08965 -8.26042,0.68729 -8.26042,0.59764c0,-0.08965 -4.875,0.68729 -4.875,0.68729l0,-0.00001l-0.00001,0z" stroke-linecap="null" stroke-linejoin="null" stroke-dasharray="null" stroke-width="0" fill="#7f0000" transform="rotate(-8.165899276733398 316.1250000000009,241.583145141602) "/>
  <ellipse stroke="#000000" ry="5" rx="2" id="d_svg_22" cy="247.6" cx="282" stroke-linecap="null" stroke-linejoin="null" stroke-dasharray="null" stroke-width="2" fill="#b2b267"/>
  <ellipse stroke="#000000" id="d_svg_24" ry="5" rx="2" cy="247.77798" cx="315.63794" stroke-linecap="null" stroke-linejoin="null" stroke-dasharray="null" stroke-width="2" fill="#b2b267"/>
  <ellipse stroke="#000000" opacity="0.5" ry="3.2926" rx="0.97888" id="d_svg_25" cy="247.78174" cx="281.26247" stroke-linecap="null" stroke-linejoin="null" stroke-dasharray="null" stroke-width="0" fill="#ff7f00"/>
  <ellipse stroke="#000000" id="d_svg_26" opacity="0.5" ry="3.2926" rx="0.97888" cy="248.31567" cx="314.54446" stroke-linecap="null" stroke-linejoin="null" stroke-dasharray="null" stroke-width="0" fill="#ff7f00"/>
  <ellipse stroke="#000000" id="d_svg_27" opacity="0.5" ry="3.2926" rx="0.97888" cy="248.31567" cx="313.47659" stroke-linecap="null" stroke-linejoin="null" stroke-dasharray="null" stroke-width="0" fill="#00ffff"/>
  <ellipse stroke="#000000" id="d_svg_28" opacity="0.5" ry="3.2926" rx="0.97888" cy="247.95972" cx="280.1946" stroke-linecap="null" stroke-linejoin="null" stroke-dasharray="null" stroke-width="0" fill="#00ffff"/>
  <path stroke="#000000" fill="#7f0000" stroke-width="0" d="m288.42333,290.71499c0,0 2.18065,2.69299 6.29966,1.6158c4.11901,-1.0772 4.3613,-0.96948 4.3613,-1.03411c0,-0.06463 12.59931,3.08078 12.59931,3.01615c0,-0.06463 -24.71403,-1.44344 -24.71403,-1.50808c0,-0.06463 -3.87671,-1.7666 -1.21147,-2.08976c2.66524,-0.32316 2.66524,0 2.66524,0l-0.00001,0z" id="d_svg_1"/>
  <ellipse stroke="#6d3939" fill="none" stroke-width="2" stroke-dasharray="null" stroke-linejoin="null" stroke-linecap="null" opacity="0.5" cx="292.78982" cy="280.46766" id="d_svg_11" rx="6.43074" ry="0.63281"/>
  <path stroke="#7f0000" fill="#7f0000" stroke-width="0" stroke-dasharray="null" stroke-linejoin="null" stroke-linecap="null" d="m285.7409,295.54924c0,0 1.96207,3.31409 10.65123,1.87318c8.68916,-1.44091 8.68916,-1.44091 8.60958,-1.52204c-0.07958,-0.08113 -3.56426,2.96294 -9.73076,2.81885c-6.1665,-0.14409 -8.68916,-1.00864 -9.53005,-1.585c-0.84089,-0.57636 0,-1.585 0,-1.585l0,0.00001z" id="d_svg_13"/>
  <polygon id="d_svg_14" fill="#a06d6d" points="376.6078186035156,234.416748046875 378.1441650390625,242.333251953125 382.82244873046875,242.50399780273438 379.0936584472656,247.5674285888672 380.44866943359375,255.58950805664062 376.6078186035156,250.8023681640625 372.7669677734375,255.58950805664062 374.1219787597656,247.5674285888672 370.3931884765625,242.50399780273438 375.07147216796875,242.333251953125 376.6078186035156,234.416748046875 378.1441650390625,242.333251953125 " stroke-width="2" transform="rotate(21.28138542175293 376.6078186035157,245.00312805175776) " stroke="#a07272"/>
  <path stroke="#965858" fill="#7f0000" stroke-dasharray="null" stroke-linejoin="null" stroke-linecap="null" d="m301.91323,304.57552c0,0 -4.41165,9.55463 -1.17644,17.06183c3.23521,7.50721 3.52932,2.72989 3.49665,2.68437c-0.03267,-0.04552 -2.32021,7.55273 -3.79076,2.77541c-1.47055,-4.77731 -2.79404,-14.33194 -1.76466,-17.74431c1.02938,-3.41237 3.23521,-4.77731 3.23521,-4.77731l0,0.00001z" id="d_svg_15" transform="rotate(-89.88261413574219 301.2741394042968,316.62530517578125) "/>
  <path stroke="#7f2323" fill="#7f0000" stroke-width="0.3" stroke-dasharray="null" stroke-linejoin="null" stroke-linecap="null" d="m311.90358,285.43326c0,0 -1.9203,4.69247 -0.79461,9.94804c1.1257,5.25557 1.32435,6.00636 1.30964,5.99384c-0.01471,-0.01252 -2.3029,-5.43075 -2.03803,-8.62163c0.26487,-3.19088 1.523,-7.32026 1.523,-7.32026l0,0.00001z" id="d_svg_19" transform="rotate(-9.17534351348877 311.3892822265629,293.40426635742176) "/>
  <polygon transform="rotate(-88.54969024658203 372.5609130859375,262.0598754882812) " stroke-width="0" points="356.35546875,262.0598907470703 368.7353210449219,267.03675842285156 388.766357421875,265.13575744628906 388.766357421875,258.9840393066406 368.7353210449219,257.0830078125 356.35546875,262.0598907470703 " fill="#7f0000" id="d_svg_29" stroke="#000000"/>
  <path stroke="#7f2323" fill="#7f0000" stroke-width="0.3" stroke-dasharray="null" stroke-linejoin="null" stroke-linecap="null" d="m370.82496,215.91618c0,0 5.01987,2.06535 2.07718,4.37855c-2.94266,2.3132 -3.46197,2.64365 -3.42352,2.63814c0.03845,-0.00551 6.01999,-2.3903 5.3276,-3.79474c-0.69239,-1.40444 -3.98126,-3.22195 -3.98126,-3.22195z" transform="rotate(176.8744659423828 372.1693420410156,219.4245452880859) " id="d_svg_32"/>
  <polygon stroke="#000000" transform="rotate(-97.08348846435547 371.25640869140625,239.70799255371094) " stroke-width="0" points="363.2030944824219,239.7080078125 369.35528564453125,249.56703186035156 379.3097229003906,245.80120849609375 379.3097229003906,233.61477661132812 369.35528564453125,229.8489532470703 363.2030944824219,239.7080078125 " fill="#7f0000" id="d_svg_33"/>
  <polygon transform="rotate(-174.4308319091797 366.06842041015625,240.16033935546878) " stroke-width="0" points="347.46392822265625,240.16036987304688 361.676513671875,249.9518585205078 384.6729431152344,246.21182250976562 384.6729431152344,234.10885620117188 361.676513671875,230.3688201904297 347.46392822265625,240.16036987304688 " fill="#965858" id="d_svg_34" stroke="#000000"/>
  <path fill="#a07070" stroke-width="0" stroke-dasharray="null" stroke-linejoin="null" stroke-linecap="null" d="m272.7259,229.18919l2.83629,-11.61348l2.83629,11.61348l-2.83629,11.61348l-2.83629,-11.61348z" id="d_svg_38" transform="rotate(-5.432056903839111 275.56219482421784,229.18919372558608) " stroke="#000000"/>
  <polygon stroke="#a07272" id="d_svg_35" fill="#edaaaa" points="371.8717346191406,268.03070068359375 367.5649719238281,283.8434753417969 360.5965270996094,277.80352783203125 360.5965270996094,258.2578430175781 367.5649719238281,252.2178955078125 371.8717346191406,268.03070068359375 " stroke-width="0"/>
  <polygon transform="rotate(-83.04230499267578 368.57739257812494,268.7739868164062) " stroke-width="0" points="352.3719482421875,268.77398681640625 364.7518005371094,273.24578857421875 384.7828369140625,271.53770446777344 384.7828369140625,266.0102996826172 364.7518005371094,264.3022003173828 352.3719482421875,268.77398681640625 " fill="#7f0000" id="d_svg_40" stroke="#000000"/>
  <path stroke="#f23c3c" fill="#edaaaa" stroke-width="0" stroke-dasharray="null" stroke-linejoin="null" stroke-linecap="null" d="m276.03709,240.70427l0,-22.81499l21.67699,22.81499l-21.67699,0z" id="d_svg_44" transform="rotate(88.67416381835938 286.8755798339843,229.29678344726565) "/>
  <path stroke="#f23c3c" fill="#edaaaa" stroke-width="0" stroke-dasharray="null" stroke-linejoin="null" stroke-linecap="null" d="m327.44419,272.1281l0,-17.46067l15.82108,17.46067l-15.82108,0z" id="d_svg_45" transform="rotate(18.7429256439209 335.3547058105464,263.3977661132814) "/>
  <path fill="#7f0000" stroke-width="0" stroke-dasharray="null" stroke-linejoin="null" stroke-linecap="null" d="m273.52781,222.83109l1.91346,-6.1076l1.91346,6.1076l-3.82692,0z" id="d_svg_2" transform="rotate(-164.60711669921875 275.4412841796875,219.77728271484375) " stroke="#000000"/>
  <rect fill="#ffff56" stroke-width="0" stroke-dasharray="null" stroke-linejoin="null" stroke-linecap="null" opacity="0.95" x="266.35936" y="200.71582" width="105.70899" height="14.65723" id="d_svg_78" stroke="#e5e58b"/>
  <ellipse fill="#3f3f3f" stroke-width="0.2" stroke-dasharray="null" stroke-linejoin="null" stroke-linecap="null" cx="321.27551" cy="216.81177" id="d_svg_43" rx="47.07451" ry="4.88823" stroke="#ff5656"/>
  <ellipse stroke="#000000" id="d_svg_53" fill="#543a3a" stroke-width="0" stroke-dasharray="null" stroke-linejoin="null" stroke-linecap="null" cx="322.83733" cy="217.23186" rx="43.61426" ry="3.99353"/>
  <rect stroke="#e5e58b" fill="#ffff00" stroke-width="0" stroke-dasharray="null" stroke-linejoin="null" stroke-linecap="null" opacity="0.95" x="340.00002" y="204" width="25.5" height="8.25" id="d_svg_79" transform="rotate(6.008937835693359 352.75003051757835,208.12500000000017) "/>
  <ellipse stroke="#e5e58b" opacity="0.5" id="d_svg_83" fill="#4af7f7" stroke-width="0" stroke-dasharray="null" stroke-linejoin="null" stroke-linecap="null" cx="320.50682" cy="176.82653" rx="41.42284" ry="37.375"/>
  <ellipse fill="#ff007f" stroke-width="0" stroke-dasharray="null" stroke-linejoin="null" stroke-linecap="null" cx="320.48577" cy="178.10279" id="d_svg_46" rx="37.79784" ry="33.51389" stroke="#e5e58b"/>
  <polygon transform="rotate(33.84178924560547 318.3598937988281,195.59149169921872) " fill="#ff007f" points="318.35986328125,176.07957458496094 324.1531677246094,190.67062377929688 341.7943420410156,190.98536682128906 327.7335510253906,200.31786346435547 332.84320068359375,215.10342407226562 318.35986328125,206.28016662597656 303.8766174316406,215.10342407226562 308.9861145019531,200.31786346435547 294.9254455566406,190.98536682128906 312.5665740966797,190.67062377929688 318.35986328125,176.07957458496094 324.1531677246094,190.67062377929688 " stroke-width="0" id="d_svg_49" stroke="#e5e58b"/>
  <polygon stroke="#e5e58b" fill="#ff007f" points="353.7146301269531,135.7236328125 356.25762939453125,142.30098724365234 364.0013732910156,142.44286346435547 357.8293151855469,146.64976501464844 360.07220458984375,153.31480407714844 353.7146301269531,149.33745574951172 347.3570556640625,153.31480407714844 349.59991455078125,146.64976501464844 343.4278564453125,142.44286346435547 351.17156982421875,142.30098724365234 353.7146301269531,135.7236328125 356.25762939453125,142.30098724365234 " stroke-width="0" id="d_svg_50" transform="rotate(23.39608383178711 353.7145996093748,144.51921081542966) "/>
  <ellipse fill="#ff00ff" stroke-width="0" stroke-dasharray="null" stroke-linejoin="null" stroke-linecap="null" cx="319.71876" cy="179.76581" id="d_svg_52" rx="31.65625" ry="29.44211" stroke="#e5e58b"/>
  <ellipse fill="#bfbfbf" stroke-width="0" stroke-dasharray="null" stroke-linejoin="null" stroke-linecap="null" cx="320.39429" cy="187.5327" rx="16.61662" ry="6.75" id="d_svg_31" transform="rotate(93.09404754638672 320.39428710937506,187.53268432617185) " stroke="#e5e58b"/>
  <ellipse stroke="#e5e58b" fill="#ff00ff" stroke-width="0" stroke-dasharray="null" stroke-linejoin="null" stroke-linecap="null" cx="314.37436" cy="191.77079" rx="16.81417" ry="3.65025" id="d_svg_30" transform="rotate(91.4148178100586 314.3743591308593,191.77078247070312) "/>
  <ellipse stroke="#e5e58b" transform="rotate(93.20083618164062 323.9384460449219,193.80915832519534) " id="d_svg_73" opacity="0.3" fill="#0000ff" stroke-width="0" stroke-dasharray="null" stroke-linejoin="null" stroke-linecap="null" cx="323.93845" cy="193.80918" rx="11.98172" ry="3.00058"/>
  <ellipse stroke="#e5e58b" fill="#ff00ff" stroke-width="0" stroke-dasharray="null" stroke-linejoin="null" stroke-linecap="null" cx="325.76265" cy="192.77283" rx="14.06074" ry="3.62195" transform="rotate(93.4549560546875 325.7626342773438,192.77284240722656) " id="d_svg_37"/>
  <ellipse stroke="#e5e58b" id="d_svg_76" fill="#7f7f7f" stroke-width="0" stroke-dasharray="null" stroke-linejoin="null" stroke-linecap="null" cx="320.31245" cy="191.22145" rx="13.5" ry="1.36652"/>
  <ellipse stroke="#e5e58b" opacity="0.8" id="d_svg_16" fill="#7f7f7f" stroke-width="0" stroke-dasharray="null" stroke-linejoin="null" stroke-linecap="null" cx="320.5937" cy="177.52442" rx="23.34375" ry="6.75"/>
  <ellipse stroke="#e5e58b" fill="#bfbfbf" stroke-width="0" stroke-dasharray="null" stroke-linejoin="null" stroke-linecap="null" cx="320.5937" cy="176.81251" id="d_svg_23" rx="23.34375" ry="6.75"/>
  <ellipse stroke="#e5e58b" opacity="0.3" fill="#0000ff" stroke-width="0" stroke-dasharray="null" stroke-linejoin="null" stroke-linecap="null" cx="319.93744" cy="203.90138" rx="15.56251" ry="3.375" id="d_svg_54"/>
  <ellipse ry="3.10108" rx="39.27539" id="d_svg_116" cy="218.03933" cx="320.18591" opacity="0.3" stroke-linecap="null" stroke-linejoin="null" stroke-dasharray="null" stroke-width="0" fill="#7f7f7f" stroke="#e5e58b"/>
  <ellipse fill="#bfbfbf" stroke-width="0" stroke-dasharray="null" stroke-linejoin="null" stroke-linecap="null" cx="319.74995" cy="202.20118" rx="13.5" ry="2.66309" id="d_svg_47" stroke="#e5e58b"/>
  <ellipse stroke="#e5e58b" fill="#7f7f7f" stroke-width="0" stroke-dasharray="null" stroke-linejoin="null" stroke-linecap="null" cx="321.71869" cy="170.06251" rx="9.84375" ry="6.75" id="d_svg_58"/>
  <ellipse stroke="#e5e58b" fill="#7f7f7f" stroke-width="0" stroke-dasharray="null" stroke-linejoin="null" stroke-linecap="null" cx="311.03119" cy="172.87501" rx="9.84375" ry="6.75" id="d_svg_59"/>
  <ellipse stroke="#e5e58b" fill="#ffffff" stroke-width="0" stroke-dasharray="null" stroke-linejoin="null" stroke-linecap="null" opacity="0.5" cx="310.50385" cy="175.78419" rx="9.77564" ry="4.2583" id="d_svg_60"/>
  <ellipse stroke="#e5e58b" fill="#bfbfbf" stroke-width="0" stroke-dasharray="null" stroke-linejoin="null" stroke-linecap="null" cx="311.75154" cy="173.28212" rx="9.84375" ry="6.48303" id="d_svg_55"/>
  <ellipse stroke="#e5e58b" id="d_svg_4" fill="#bfbfbf" stroke-width="0" stroke-dasharray="null" stroke-linejoin="null" stroke-linecap="null" cx="322.07429" cy="169.98952" rx="9.84375" ry="5.86011"/>
  <ellipse stroke="#e5e58b" id="d_svg_12" fill="#ffffff" stroke-width="0" stroke-dasharray="null" stroke-linejoin="null" stroke-linecap="null" opacity="0.5" cx="330.43744" cy="175.60621" rx="9.59766" ry="4.97022"/>
  <ellipse stroke="#e5e58b" fill="#7f7f7f" stroke-width="0" stroke-dasharray="null" stroke-linejoin="null" stroke-linecap="null" cx="330.71869" cy="173.43751" rx="9.84375" ry="6.75" id="d_svg_62"/>
  <ellipse stroke="#e5e58b" id="d_svg_9" fill="#bfbfbf" stroke-width="0" stroke-dasharray="null" stroke-linejoin="null" stroke-linecap="null" cx="329.72737" cy="173.37111" rx="9.84375" ry="5.86011"/>
  <ellipse stroke="#e5e58b" id="d_svg_63" transform="rotate(10.81128978729248 307.3231811523435,182.63865661621068) " fill="#7f7f7f" stroke-width="0" stroke-dasharray="null" stroke-linejoin="null" stroke-linecap="null" cx="307.32317" cy="182.63865" rx="3.87046" ry="1.47722"/>
  <ellipse stroke="#e5e58b" transform="rotate(10.81128978729248 307.8571166992187,181.92672729492176) " id="d_svg_57" fill="#bfbfbf" stroke-width="0" stroke-dasharray="null" stroke-linejoin="null" stroke-linecap="null" cx="307.85711" cy="181.92674" rx="3.87046" ry="1.47722"/>
  <ellipse stroke="#e5e58b" id="d_svg_64" transform="rotate(-12.59776496887207 338.1134643554687,181.21482849121094) " fill="#7f7f7f" stroke-width="0" stroke-dasharray="null" stroke-linejoin="null" stroke-linecap="null" cx="338.11345" cy="181.21482" rx="3.87046" ry="1.47722"/>
  <ellipse stroke="#e5e58b" id="d_svg_65" transform="rotate(-6.947676658630371 337.04559326171875,180.8588714599607) " fill="#bfbfbf" stroke-width="0" stroke-dasharray="null" stroke-linejoin="null" stroke-linecap="null" cx="337.04558" cy="180.85886" rx="3.87046" ry="1.47722"/>
  <ellipse stroke="#e5e58b" fill="#bfbfbf" stroke-width="0" stroke-dasharray="null" stroke-linejoin="null" stroke-linecap="null" cx="320.31245" cy="190.68752" id="d_svg_42" rx="13.5" ry="1.5"/>
  <ellipse stroke="#e5e58b" ry="0.35596" rx="8.54297" id="d_svg_66" cy="189.77854" cx="320.07958" opacity="0.8" stroke-linecap="null" stroke-linejoin="null" stroke-dasharray="null" stroke-width="0" fill="#3f3f3f"/>
  <rect stroke="#e5e58b" id="d_svg_67" height="1.60181" width="3.20361" y="188.17671" x="318.12182" stroke-linecap="null" stroke-linejoin="null" stroke-dasharray="null" stroke-width="0" fill="#bfbfbf"/>
  <ellipse stroke="#e5e58b" id="d_svg_68" fill="#7f7f7f" stroke-width="0" stroke-dasharray="null" stroke-linejoin="null" stroke-linecap="null" cx="310.27497" cy="174.12587" rx="4.14844" ry="2.26428"/>
  <ellipse stroke="#e5e58b" id="d_svg_69" fill="#bfbfbf" stroke-width="0" stroke-dasharray="null" stroke-linejoin="null" stroke-linecap="null" cx="312.17341" cy="173.07118" rx="3.51562" ry="2.47522"/>
  <ellipse stroke="#e5e58b" id="d_svg_70" fill="#7f7f7f" stroke-width="0" stroke-dasharray="null" stroke-linejoin="null" stroke-linecap="null" cx="314.91559" cy="170.75087" rx="4.14844" ry="2.26428"/>
  <ellipse stroke="#e5e58b" id="d_svg_71" fill="#bfbfbf" stroke-width="0" stroke-dasharray="null" stroke-linejoin="null" stroke-linecap="null" cx="314.91559" cy="171.59462" rx="3.30469" ry="2.26428"/>
  <rect stroke="#e5e58b" id="d_svg_74" height="0.31146" width="1.42383" y="189.64503" x="321.14746" opacity="0.5" stroke-linecap="null" stroke-linejoin="null" stroke-dasharray="null" stroke-width="0" fill="#b0b0f4"/>
  <rect stroke="#e5e58b" id="d_svg_75" height="0.71191" width="1.29034" y="188.97761" x="321.14746" opacity="0.5" stroke-linecap="null" stroke-linejoin="null" stroke-dasharray="null" stroke-width="0" fill="#b0b0f4"/>
  <polygon stroke="#e5e58b" fill="#ff007f" points="274.4690856933594,189.10128784179688 275.3145294189453,191.9677963256836 277.8890380859375,192.02962493896484 275.8370666503906,193.86305236816406 276.58274841308594,196.76776885986328 274.4690856933594,195.03438568115234 272.35545349121094,196.76776885986328 273.1011047363281,193.86305236816406 271.04913330078125,192.02962493896484 273.6236114501953,191.9677963256836 274.4690856933594,189.10128784179688 275.3145294189453,191.9677963256836 " stroke-width="0" id="d_svg_56" transform="rotate(104.73858642578125 274.4690856933594,192.93453979492188) "/>
  <polygon stroke="#e5e58b" fill="#ff007f" points="370.3922119140625,199.85750579833984 371.5348815917969,203.27195739746094 375.0144958496094,203.34561157226562 372.2411193847656,205.52950286865234 373.24896240234375,208.98948669433594 370.3922119140625,206.92474365234375 367.5354919433594,208.98948669433594 368.54327392578125,205.52950286865234 365.7698974609375,203.34561157226562 369.2494812011719,203.27195739746094 370.3922119140625,199.85750579833984 371.5348815917969,203.27195739746094 " stroke-width="0" transform="rotate(128.83082580566406 370.3922119140625,204.42349243164062) " id="d_svg_61"/>
  <polygon stroke="#e5e58b" fill="#f28cbd" points="253.09410095214844,173.22879028320312 254.2367706298828,177.30859375 257.7163848876953,177.39659118652344 254.94300842285156,180.0060577392578 255.9508514404297,184.1402587890625 253.09410095214844,181.67318725585938 250.2373809814453,184.1402587890625 251.24517822265625,180.0060577392578 248.4718017578125,177.39659118652344 251.95138549804688,177.30859375 253.09410095214844,173.22879028320312 254.2367706298828,177.30859375 " stroke-width="0" transform="rotate(104.73858642578125 253.09408569335938,178.6845245361328) " id="d_svg_80"/>
  <polygon stroke="#e5e58b" transform="rotate(-45.09101486206055 323.2604370117188,145.36614990234375) " fill="#f794c2" points="323.26043701171875,142.1127166748047 324.602294921875,144.54563903808594 328.68841552734375,144.59811401367188 325.431640625,146.15422821044922 326.6151428222656,148.61957550048828 323.26043701171875,147.14837646484375 319.90576171875,148.61957550048828 321.0892639160156,146.15422821044922 317.8324432373047,144.59811401367188 321.9185791015625,144.54563903808594 323.26043701171875,142.1127166748047 324.602294921875,144.54563903808594 " stroke-width="0" id="d_svg_81"/>
  <polygon stroke="#e5e58b" id="d_svg_82" fill="#ff5656" points="382.7646789550781,158.17913818359375 385.42108154296875,173.78921508789062 393.5101013183594,174.12592315673828 387.0628356933594,184.11019134521484 389.4057312011719,199.92835998535156 382.7646789550781,190.48890686035156 376.1236267089844,199.92835998535156 378.46649169921875,184.11019134521484 372.01922607421875,174.12592315673828 380.1082458496094,173.78921508789062 382.7646789550781,158.17913818359375 385.42108154296875,173.78921508789062 " stroke-width="0" transform="rotate(19.80002784729004 382.76464843750006,179.0537414550781) "/>
  <polygon stroke="#e5e58b" id="d_svg_51" fill="#f99dca" points="381.2646789550781,158.17913818359375 383.92108154296875,173.78921508789062 392.0101013183594,174.12592315673828 385.5628356933594,184.11019134521484 387.9057312011719,199.92835998535156 381.2646789550781,190.48890686035156 374.6236267089844,199.92835998535156 376.96649169921875,184.11019134521484 370.51922607421875,174.12592315673828 378.6082458496094,173.78921508789062 381.2646789550781,158.17913818359375 383.92108154296875,173.78921508789062 " stroke-width="0" transform="rotate(19.80002784729004 381.2646484375,179.0537414550781) "/>
  <ellipse fill="#ffffff" stroke-width="5" stroke-dasharray="null" stroke-linejoin="null" stroke-linecap="null" opacity="0.1" cx="294.77503" cy="293.92498" rx="7.875" ry="1.875" id="d_svg_100" stroke="#fcfced"/>
  <polygon transform="rotate(179.45281982421875 366.1663513183594,226.33221435546872) " stroke-width="0" points="347.5618591308594,226.3322296142578 361.7744445800781,234.2246856689453 384.7708740234375,231.21002197265625 384.7708740234375,221.45437622070312 361.7744445800781,218.43972778320312 347.5618591308594,226.3322296142578 " fill="#965858" id="d_svg_102" stroke="#000000"/>
  <polygon transform="rotate(-177.0822296142578 366.9442443847657,232.14862060546878) " stroke-width="0" points="347.63507080078125,232.14865112304688 362.3860168457031,241.07687377929688 386.25341796875,237.6665802001953 386.25341796875,226.63064575195312 362.3860168457031,223.22036743164062 347.63507080078125,232.14865112304688 " fill="#8c1010" id="d_svg_98" stroke="#000000"/>
  <ellipse fill="#edaaaa" stroke-dasharray="null" stroke-linejoin="null" stroke-linecap="null" cx="367.2859" cy="258.16112" id="d_svg_39" rx="5.29395" ry="10.97754" stroke="#7f0000"/>
  <ellipse fill="#edaaaa" stroke-dasharray="null" stroke-linejoin="null" stroke-linecap="null" cx="366.96514" cy="262.18449" rx="3.65559" ry="8.00914" id="d_svg_3" stroke-width="0.5" transform="rotate(2.5052490234375 366.9651489257794,262.1844787597657) " stroke="#7f0000"/>
  <ellipse fill="#edaaaa" stroke-dasharray="null" stroke-linejoin="null" stroke-linecap="null" cx="365.1352" cy="263.31809" rx="3.01457" ry="5.77183" stroke-width="0" transform="rotate(10.074833869934082 365.13522338867193,263.3180847167966) " id="d_svg_6" stroke="#7f0000"/>
  <path transform="rotate(10.332831382751465 279.90274047851585,241.74900817871085) " id="d_svg_21" d="m292.90848,238.00367c-11.34813,0.68139 -22.69625,-0.81767 -24.73637,5.4511c-2.04011,6.26877 -1.02006,1.49905 -1.02006,1.41728c0,-0.08177 1.7851,-6.73212 1.7851,-6.81388c0,-0.08177 0.76504,0.35432 3.95272,-0.59962c3.18768,-0.95395 7.65042,-0.54512 7.65042,-0.62688c0,-0.08177 7.77793,0.62688 7.77793,0.54512c0,-0.08177 4.59025,0.62688 4.59025,0.62688l0.00001,0l0,-0.00001l0,0.00001z" stroke-linecap="null" stroke-linejoin="null" stroke-dasharray="null" stroke-width="0" fill="#7f0000" stroke="#000000"/>
  <path fill="#7f0000" stroke-width="0.3" stroke-dasharray="null" stroke-linejoin="null" stroke-linecap="null" d="m271.41669,218.39407c0,0 2.41787,1.48507 1.00049,3.14836c-1.41736,1.66329 -1.66749,1.9009 -1.64897,1.89693c0.01852,-0.00396 2.89958,-1.71873 2.56609,-2.72858c-0.3335,-1.00985 -1.91761,-2.31672 -1.91761,-2.31672l0,0.00001z" transform="rotate(-134.8605499267578 272.06423950195307,220.916748046875) " id="d_svg_104" stroke="#7f2323"/>
  <rect id="d_svg_86" stroke="#e5e58b" height="16.3184" width="21.32405" y="2.60124" x="615.15744" stroke-linecap="null" stroke-linejoin="null" stroke-dasharray="null" stroke-width="0" fill="#ffffff"/>
  <ellipse stroke="#ff00ff" id="d_svg_87" fill="none" stroke-width="8" stroke-dasharray="null" stroke-linejoin="null" stroke-linecap="null" opacity="0.35" cx="332.71769" cy="245.06009" rx="198.47327" ry="189.73458"/>
 </g>
</svg>
