<svg width="640" height="480.00000000000017" xmlns="http://www.w3.org/2000/svg" xmlns:svg="http://www.w3.org/2000/svg">
 <!-- Created with SVG-edit - http://svg-edit.googlecode.com/ -->
 <g>
  <title>Layer 1</title>
  <ellipse fill="#edaaaa" stroke-width="63" stroke-dasharray="null" stroke-linejoin="null" stroke-linecap="null" cx="259.88961" cy="188.88434" id="svg_41" rx="82.45313" ry="95.9948" stroke="#e5e58b"/>
  <polygon stroke="#e5e58b" transform="rotate(-41.6051139831543 253.250015258789,80.24186706542969) " id="svg_72" fill="#ff007f" points="253.25,71.69304656982422 255.78994750976562,78.08587646484375 263.5242614746094,78.22377014160156 257.3597106933594,82.3126449584961 259.599853515625,88.79069519042969 253.25,84.92493438720703 246.90017700195312,88.79069519042969 249.14031982421875,82.3126449584961 242.97576904296875,78.22377014160156 250.7100830078125,78.08587646484375 253.25,71.69304656982422 255.78994750976562,78.08587646484375 " stroke-width="0"/>
  <path fill="#7f0000" stroke-dasharray="null" stroke-linejoin="null" stroke-linecap="null" d="m208.96251,151.86326l3.625,-14.75l0,44.25l-3.625,14.74999l0,-44.24999z" id="svg_7" stroke="#000000" transform="rotate(3.683162212371826 210.7750091552726,166.6132507324222) "/>
  <path transform="rotate(3.8383307456970215 296.0260314941408,175.19241333007838) " fill="#7f0000" stroke-width="0" stroke-dasharray="null" stroke-linejoin="null" stroke-linecap="null" d="m291.0332,159.69409l9.98563,-15.49832l0,46.49496l-9.98563,15.49831l0,-46.49494l0,-0.00001z" id="svg_8" stroke="#000000"/>
  <polygon id="svg_5" transform="rotate(-117.50167846679688 305.18621826171875,157.5627593994141) " stroke-width="0" points="286.41006889087384,157.56276702620465 300.7537883732957,172.91464834425727 323.9623760197801,167.0507531867451 323.9623760197801,148.0747663254469 300.7537883732957,142.21085662771742 286.41006889087384,157.56276702620465 " fill="#7f0000" stroke="#000000"/>
  <polygon id="svg_10" transform="rotate(-97.08348846435547 296.0254821777344,160.85522460937497) " stroke-width="0" points="276.25146484375,160.855224609375 291.35748291015625,173.11886596679688 315.79949951171875,168.4345703125 315.79949951171875,153.27587890625 291.35748291015625,148.59158325195312 276.25146484375,160.855224609375 " fill="#7f0000" stroke="#000000"/>
  <line id="svg_17" y2="199.6" x2="224" y1="166.6" x1="235" stroke-linecap="null" stroke-linejoin="null" stroke-dasharray="null" stroke-width="2" stroke="#844343" fill="none"/>
  <line transform="rotate(37.46174240112305 230.96849060058582,200.96829223632818) " id="svg_18" y2="204.64457" x2="225.97488" y1="197.29199" x1="235.96212" stroke-linecap="null" stroke-linejoin="null" stroke-dasharray="null" stroke-width="2" fill="none" stroke="#6d3939"/>
  <path id="svg_20" d="m240.3125,159.47687c12.05208,0.74705 24.10416,-0.89646 26.27084,5.97642c2.16667,6.87288 1.08334,1.64352 1.08334,1.55387c0,-0.08965 -1.89583,-7.38087 -1.89583,-7.47052c0,-0.08965 -0.8125,0.38847 -4.19792,-0.6574c-3.38542,-1.04587 -8.125,-0.59764 -8.125,-0.68729c0,-0.08965 -8.26042,0.68729 -8.26042,0.59764c0,-0.08965 -4.875,0.68729 -4.875,0.68729l0,-0.00001l-0.00001,0z" stroke-linecap="null" stroke-linejoin="null" stroke-dasharray="null" stroke-width="0" fill="#7f0000" stroke="#000000" transform="rotate(-8.165899276733398 254.12499999999983,163.58314514160156) "/>
  <ellipse ry="5" rx="2" id="svg_22" cy="169.6" cx="220" stroke-linecap="null" stroke-linejoin="null" stroke-dasharray="null" stroke-width="2" stroke="#000000" fill="#b2b267"/>
  <ellipse id="svg_24" ry="5" rx="2" cy="169.77798" cx="253.63794" stroke-linecap="null" stroke-linejoin="null" stroke-dasharray="null" stroke-width="2" stroke="#000000" fill="#b2b267"/>
  <ellipse stroke="#000000" opacity="0.5" ry="3.2926" rx="0.97888" id="svg_25" cy="169.78174" cx="219.26247" stroke-linecap="null" stroke-linejoin="null" stroke-dasharray="null" stroke-width="0" fill="#ff7f00"/>
  <ellipse id="svg_26" stroke="#000000" opacity="0.5" ry="3.2926" rx="0.97888" cy="170.31567" cx="252.54446" stroke-linecap="null" stroke-linejoin="null" stroke-dasharray="null" stroke-width="0" fill="#ff7f00"/>
  <ellipse id="svg_27" stroke="#000000" opacity="0.5" ry="3.2926" rx="0.97888" cy="170.31567" cx="251.47659" stroke-linecap="null" stroke-linejoin="null" stroke-dasharray="null" stroke-width="0" fill="#00ffff"/>
  <ellipse id="svg_28" stroke="#000000" opacity="0.5" ry="3.2926" rx="0.97888" cy="169.95972" cx="218.1946" stroke-linecap="null" stroke-linejoin="null" stroke-dasharray="null" stroke-width="0" fill="#00ffff"/>
  <path fill="#7f0000" stroke-width="0" d="m226.42333,212.71499c0,0 2.18065,2.69299 6.29966,1.6158c4.11901,-1.0772 4.3613,-0.96948 4.3613,-1.03411c0,-0.06463 12.59931,3.08078 12.59931,3.01615c0,-0.06463 -24.71403,-1.44344 -24.71403,-1.50808c0,-0.06463 -3.87671,-1.7666 -1.21147,-2.08976c2.66524,-0.32316 2.66524,0 2.66524,0l-0.00001,0z" id="svg_1" stroke="#000000"/>
  <ellipse fill="none" stroke-width="2" stroke-dasharray="null" stroke-linejoin="null" stroke-linecap="null" opacity="0.5" cx="230.78982" cy="202.46766" id="svg_11" rx="6.43074" ry="0.63281" stroke="#6d3939"/>
  <path fill="#7f0000" stroke-width="0" stroke-dasharray="null" stroke-linejoin="null" stroke-linecap="null" d="m223.7409,217.54924c0,0 1.96207,3.31409 10.65123,1.87318c8.68916,-1.44091 8.68916,-1.44091 8.60958,-1.52204c-0.07958,-0.08113 -3.56426,2.96294 -9.73076,2.81885c-6.1665,-0.14409 -8.68916,-1.00864 -9.53005,-1.585c-0.84089,-0.57636 0,-1.585 0,-1.585l0,0.00001z" id="svg_13" stroke="#7f0000"/>
  <polygon id="svg_14" fill="#a06d6d" points="311.4718322753906,155.04376220703125 313.0081787109375,162.28408813476562 317.68646240234375,162.44024658203125 313.9576721191406,167.07118225097656 315.31268310546875,174.40805053710938 311.4718322753906,170.02980041503906 307.6309814453125,174.40805053710938 308.9859924316406,167.07118225097656 305.2572021484375,162.44024658203125 309.93548583984375,162.28408813476562 311.4718322753906,155.04376220703125 313.0081787109375,162.28408813476562 " stroke-width="2" transform="rotate(21.28138542175293 311.47183227539057,164.72590637207037) " stroke="#a07272"/>
  <path fill="#7f0000" stroke-dasharray="null" stroke-linejoin="null" stroke-linecap="null" d="m239.91323,226.57552c0,0 -4.41165,9.55463 -1.17644,17.06183c3.23521,7.50721 3.52932,2.72989 3.49665,2.68437c-0.03267,-0.04552 -2.32021,7.55273 -3.79076,2.77541c-1.47055,-4.77731 -2.79404,-14.33194 -1.76466,-17.74431c1.02938,-3.41237 3.23521,-4.77731 3.23521,-4.77731l0,0.00001z" id="svg_15" transform="rotate(-89.88261413574219 239.27413940429688,238.6252899169922) " stroke="#965858"/>
  <path fill="#7f0000" stroke-width="0.3" stroke-dasharray="null" stroke-linejoin="null" stroke-linecap="null" d="m249.90358,207.43326c0,0 -1.9203,4.69247 -0.79461,9.94804c1.1257,5.25557 1.32435,6.00636 1.30964,5.99384c-0.01471,-0.01252 -2.3029,-5.43075 -2.03803,-8.62163c0.26487,-3.19088 1.523,-7.32026 1.523,-7.32026l0,0.00001z" id="svg_19" transform="rotate(-9.17534351348877 249.3892822265629,215.40428161621094) " stroke="#7f2323"/>
  <polygon transform="rotate(-83.04230499267578 312.22283935546875,185.9061279296875) " stroke-width="0" points="296.01739501953125,185.9061279296875 308.3972473144531,188.8889617919922 328.42828369140625,187.74961853027344 328.42828369140625,184.06265258789062 308.3972473144531,182.9232940673828 296.01739501953125,185.9061279296875 " fill="#7f0000" id="svg_29" stroke="#000000"/>
  <path stroke="#7f2323" fill="#7f0000" stroke-width="0.3" stroke-dasharray="null" stroke-linejoin="null" stroke-linecap="null" d="m312.89685,142.58034c0,0 5.01987,2.06535 2.07718,4.37855c-2.94266,2.3132 -3.46197,2.64365 -3.42352,2.63814c0.03845,-0.00551 6.01999,-2.3903 5.3276,-3.79474c-0.69239,-1.40444 -3.98126,-3.22195 -3.98126,-3.22195z" transform="rotate(176.8744659423828 314.2412414550781,146.08871459960938) " id="svg_32"/>
  <polygon transform="rotate(-97.08348846435547 309.2564086914063,161.70799255371097) " stroke-width="0" points="301.20308817079217,161.70800698399322 307.3552821497267,171.56703103184478 317.30972723963146,167.80120766758697 317.30972723963146,155.61477578282134 307.3552821497267,151.84895241856353 301.20308817079217,161.70800698399322 " fill="#7f0000" id="svg_33" stroke="#000000"/>
  <polygon stroke="#000000" transform="rotate(178.85549926757812 304.14556884765625,165.79237365722656) " stroke-width="0" points="287.4007568359375,165.7924041748047 300.19268798828125,179.13873291015625 320.8904113769531,174.04087829589844 320.8904113769531,157.5438690185547 300.19268798828125,152.44601440429688 287.4007568359375,165.7924041748047 " fill="#bf6363" id="svg_34"/>
  <polygon fill="#a06d6d" points="315.0337219238281,160.46592712402344 315.8738098144531,168.84645080566406 318.431884765625,169.02720642089844 316.3929748535156,174.3874053955078 317.1338806152344,182.87966918945312 315.0337219238281,177.8119354248047 312.93353271484375,182.87966918945312 313.6744689941406,174.3874053955078 311.63555908203125,169.02720642089844 314.1936340332031,168.84645080566406 315.0337219238281,160.46592712402344 315.8738098144531,168.84645080566406 " stroke-width="2" transform="rotate(14.279905319213867 315.03372192382824,171.6727905273436) " id="svg_36" stroke="#a07272"/>
  <path fill="#a07070" stroke-width="0" stroke-dasharray="null" stroke-linejoin="null" stroke-linecap="null" d="m208.86699,153.82452l1.72553,-13.28996l1.72553,13.28996l-1.72553,13.28996l-1.72553,-13.28996z" id="svg_38" transform="rotate(8.145116806030273 210.59252929687474,153.82452392578122) " stroke="#000000"/>
  <path transform="rotate(10.332831382751465 217.963195800781,163.41758728027358) " id="svg_21" d="m230.96891,159.41666c-11.34813,0.72789 -22.69625,-0.87347 -24.73637,5.8231c-2.04011,6.69657 -1.02006,1.60135 -1.02006,1.514c0,-0.08735 1.7851,-7.19153 1.7851,-7.27887c0,-0.08735 0.76504,0.3785 3.95272,-0.64054c3.18768,-1.01905 7.65042,-0.58232 7.65042,-0.66966c0,-0.08735 7.77793,0.66966 7.77793,0.58232c0,-0.08735 4.59025,0.66966 4.59025,0.66966l0.00001,0l0,-0.00001z" stroke-linecap="null" stroke-linejoin="null" stroke-dasharray="null" stroke-width="0" fill="#7f0000" stroke="#000000"/>
  <polygon transform="rotate(-83.04230499267578 315.03533935546875,187.59362792968753) " stroke-width="0" points="298.82989501953125,187.5936279296875 311.2097473144531,190.5764617919922 331.24078369140625,189.43711853027344 331.24078369140625,185.75015258789062 311.2097473144531,184.6107940673828 298.82989501953125,187.5936279296875 " fill="#7f0000" stroke="#000000" id="svg_40"/>
  <ellipse fill="#edaaaa" stroke-dasharray="null" stroke-linejoin="null" stroke-linecap="null" cx="306.4109" cy="175.28612" id="svg_39" rx="7.91895" ry="12.10254" stroke="#7f0000"/>
  <polygon id="svg_35" fill="#edaaaa" points="310.6217346191406,184.03070068359375 306.3149719238281,199.84347534179688 299.3465270996094,193.80352783203125 299.3465270996094,174.25784301757812 306.3149719238281,168.2178955078125 310.6217346191406,184.03070068359375 " stroke-width="0" stroke="#a07272"/>
  <path fill="#edaaaa" stroke-width="0" stroke-dasharray="null" stroke-linejoin="null" stroke-linecap="null" d="m214.03709,162.70427l0,-22.81499l21.67699,22.81499l-21.67699,0z" id="svg_44" transform="rotate(88.67416381835938 224.87557983398435,151.29676818847656) " stroke="#f23c3c"/>
  <path fill="#edaaaa" stroke-width="0" stroke-dasharray="null" stroke-linejoin="null" stroke-linecap="null" d="m265.44419,194.1281l0,-17.46067l15.82108,17.46067l-15.82108,0z" id="svg_45" transform="rotate(18.7429256439209 273.35470581054693,185.39776611328122) " stroke="#f23c3c"/>
  <path fill="#7f0000" stroke-width="0" stroke-dasharray="null" stroke-linejoin="null" stroke-linecap="null" d="m209.94872,144.18365l1.11496,-5.0625l1.11496,5.0625l-2.22992,0z" id="svg_2" stroke="#000000"/>
  <ellipse fill="#edaaaa" stroke-dasharray="null" stroke-linejoin="null" stroke-linecap="null" cx="305.14527" cy="177.81737" rx="6.65272" ry="12.1302" id="svg_3" stroke-width="0.5" transform="rotate(2.5052490234375 305.1452636718762,177.81736755371213) " stroke="#7f0000"/>
  <ellipse fill="#edaaaa" stroke-dasharray="null" stroke-linejoin="null" stroke-linecap="null" cx="303.36618" cy="181.83963" rx="5.17757" ry="9.40907" stroke-width="0" transform="rotate(2.5052490234375 303.3661804199215,181.83963012695295) " id="svg_6" stroke="#7f0000"/>
  <ellipse fill="#000000" stroke-width="0" stroke-dasharray="null" stroke-linejoin="null" stroke-linecap="null" cx="259.10002" cy="138.075" id="svg_43" rx="47.25" ry="5.625" stroke="#000000"/>
  <ellipse fill="#ff007f" stroke-width="0" stroke-dasharray="null" stroke-linejoin="null" stroke-linecap="null" cx="260.22502" cy="107.32501" id="svg_46" rx="37.87499" ry="32.625" stroke="#e5e58b"/>
  <polygon id="svg_48" fill="#ff007f" points="239.75002097487499,70.91308299471572 247.34112967111363,92.75173197259939 270.4567006818976,93.22279169570683 252.03269285768403,107.19087875552454 258.7277927154716,129.32065865301973 239.75002097487499,116.11476223592099 220.77224923427835,129.32065865301973 227.46734909206594,107.19087875552454 209.04334126785238,93.22279169570683 232.15891227863634,92.75173197259939 239.75002097487499,70.91308299471572 247.34112967111363,92.75173197259939 " stroke="#e5e58b" stroke-width="0"/>
  <polygon fill="#ff007f" points="254.75001525878906,85.9130859375 262.34112548828125,107.7517318725586 285.4566955566406,108.22279357910156 267.03269958496094,122.19087982177734 273.727783203125,144.32066345214844 254.75001525878906,131.11476135253906 235.77224731445312,144.32066345214844 242.46734619140625,122.19087982177734 224.0433349609375,108.22279357910156 247.15890502929688,107.7517318725586 254.75001525878906,85.9130859375 262.34112548828125,107.7517318725586 " stroke="#e5e58b" stroke-width="0" id="svg_49"/>
  <polygon fill="#ff007f" points="283.625,72.4130859375 290.1963806152344,94.2517318725586 310.2066955566406,94.72279357910156 294.2576904296875,108.69088745117188 300.05340576171875,130.82066345214844 283.625,117.61476135253906 267.1966247558594,130.82066345214844 272.9923400878906,108.69088745117188 257.0433349609375,94.72279357910156 277.05364990234375,94.2517318725586 283.625,72.4130859375 290.1963806152344,94.2517318725586 " stroke-width="0" id="svg_50" stroke="#e5e58b"/>
  <polygon id="svg_51" fill="#ff007f" points="270.1250305175781,62.58343505859375 273.72007751464844,78.19351196289062 284.6673278808594,78.53022003173828 275.9419403076172,88.51448822021484 279.11265563964844,104.33265686035156 270.1250305175781,94.89319610595703 261.13739013671875,104.33265686035156 264.30810546875,88.51448822021484 255.5827178955078,78.53022003173828 266.52996826171875,78.19351196289062 270.1250305175781,62.58343505859375 273.72007751464844,78.19351196289062 " stroke-width="0" stroke="#e5e58b"/>
  <ellipse fill="#ff00ff" stroke-width="0" stroke-dasharray="null" stroke-linejoin="null" stroke-linecap="null" cx="258.87502" cy="109.2" id="svg_52" rx="31.125" ry="24.75" stroke="#e5e58b"/>
  <ellipse fill="#bfbfbf" stroke-width="0" stroke-dasharray="null" stroke-linejoin="null" stroke-linecap="null" cx="258.22825" cy="112.60441" rx="19.69283" ry="6.75" id="svg_31" transform="rotate(93.09404754638672 258.2282409667969,112.60440826416014) " stroke="#e5e58b"/>
  <ellipse fill="#ff00ff" stroke-width="0" stroke-dasharray="null" stroke-linejoin="null" stroke-linecap="null" cx="252.37436" cy="114.30473" rx="16.81417" ry="3.65025" id="svg_30" transform="rotate(91.4148178100586 252.37435913085938,114.30472564697267) " stroke="#e5e58b"/>
  <ellipse stroke="#e5e58b" transform="rotate(93.20083618164062 261.9384460449219,115.8091659545898) " id="svg_73" opacity="0.3" fill="#0000ff" stroke-width="0" stroke-dasharray="null" stroke-linejoin="null" stroke-linecap="null" cx="261.93845" cy="115.80918" rx="11.98172" ry="3.00058"/>
  <ellipse stroke="#e5e58b" fill="#ff00ff" stroke-width="0" stroke-dasharray="null" stroke-linejoin="null" stroke-linecap="null" cx="263.58467" cy="117.62049" rx="14.06074" ry="3.62195" transform="rotate(91.4148178100586 263.58465576171875,117.62049865722655) " id="svg_37"/>
  <ellipse stroke="#e5e58b" id="svg_76" fill="#7f7f7f" stroke-width="0" stroke-dasharray="null" stroke-linejoin="null" stroke-linecap="null" cx="258.31245" cy="113.22145" rx="13.5" ry="1.36652"/>
  <ellipse opacity="0.8" id="svg_16" fill="#7f7f7f" stroke-width="0" stroke-dasharray="null" stroke-linejoin="null" stroke-linecap="null" cx="258.5937" cy="99.52442" rx="23.34375" ry="6.75" stroke="#e5e58b"/>
  <ellipse fill="#bfbfbf" stroke-width="0" stroke-dasharray="null" stroke-linejoin="null" stroke-linecap="null" cx="258.5937" cy="98.81251" id="svg_23" rx="23.34375" ry="6.75" stroke="#e5e58b"/>
  <ellipse stroke="#e5e58b" opacity="0.3" fill="#0000ff" stroke-width="0" stroke-dasharray="null" stroke-linejoin="null" stroke-linecap="null" cx="257.93744" cy="129.56251" rx="15.56251" ry="3.375" id="svg_54"/>
  <ellipse fill="#bfbfbf" stroke-width="0" stroke-dasharray="null" stroke-linejoin="null" stroke-linecap="null" cx="257.74995" cy="128.62501" rx="13.5" ry="3.375" id="svg_47" stroke="#e5e58b"/>
  <ellipse fill="#7f7f7f" stroke-width="0" stroke-dasharray="null" stroke-linejoin="null" stroke-linecap="null" cx="259.71869" cy="92.06251" rx="9.84375" ry="6.75" stroke="#e5e58b" id="svg_58"/>
  <ellipse fill="#7f7f7f" stroke-width="0" stroke-dasharray="null" stroke-linejoin="null" stroke-linecap="null" cx="249.03119" cy="94.87501" rx="9.84375" ry="6.75" stroke="#e5e58b" id="svg_59"/>
  <ellipse stroke="#e5e58b" fill="#ffffff" stroke-width="0" stroke-dasharray="null" stroke-linejoin="null" stroke-linecap="null" opacity="0.5" cx="248.50385" cy="97.78419" rx="9.77564" ry="4.2583" id="svg_60"/>
  <ellipse stroke="#e5e58b" fill="#bfbfbf" stroke-width="0" stroke-dasharray="null" stroke-linejoin="null" stroke-linecap="null" cx="249.75154" cy="95.28212" rx="9.84375" ry="6.48303" id="svg_55"/>
  <ellipse stroke="#e5e58b" id="svg_4" fill="#bfbfbf" stroke-width="0" stroke-dasharray="null" stroke-linejoin="null" stroke-linecap="null" cx="260.07429" cy="91.98952" rx="9.84375" ry="5.86011"/>
  <ellipse stroke="#e5e58b" id="svg_12" fill="#ffffff" stroke-width="0" stroke-dasharray="null" stroke-linejoin="null" stroke-linecap="null" opacity="0.5" cx="268.43744" cy="97.60621" rx="9.59766" ry="4.97022"/>
  <ellipse fill="#7f7f7f" stroke-width="0" stroke-dasharray="null" stroke-linejoin="null" stroke-linecap="null" cx="268.71869" cy="95.43751" rx="9.84375" ry="6.75" stroke="#e5e58b" id="svg_62"/>
  <ellipse id="svg_9" stroke="#e5e58b" fill="#bfbfbf" stroke-width="0" stroke-dasharray="null" stroke-linejoin="null" stroke-linecap="null" cx="267.72737" cy="95.37111" rx="9.84375" ry="5.86011"/>
  <ellipse id="svg_63" stroke="#e5e58b" transform="rotate(10.81128978729248 245.32316589355452,104.63864898681649) " fill="#7f7f7f" stroke-width="0" stroke-dasharray="null" stroke-linejoin="null" stroke-linecap="null" cx="245.32317" cy="104.63865" rx="3.87046" ry="1.47722"/>
  <ellipse stroke="#e5e58b" transform="rotate(10.81128978729248 245.85710144042986,103.92672729492189) " id="svg_57" fill="#bfbfbf" stroke-width="0" stroke-dasharray="null" stroke-linejoin="null" stroke-linecap="null" cx="245.85711" cy="103.92674" rx="3.87046" ry="1.47722"/>
  <ellipse id="svg_64" stroke="#e5e58b" transform="rotate(-12.59776496887207 276.11346435546864,103.21482086181636) " fill="#7f7f7f" stroke-width="0" stroke-dasharray="null" stroke-linejoin="null" stroke-linecap="null" cx="276.11345" cy="103.21482" rx="3.87046" ry="1.47722"/>
  <ellipse id="svg_65" stroke="#e5e58b" transform="rotate(-6.947676658630371 275.04559326171886,102.85886383056668) " fill="#bfbfbf" stroke-width="0" stroke-dasharray="null" stroke-linejoin="null" stroke-linecap="null" cx="275.04558" cy="102.85886" rx="3.87046" ry="1.47722"/>
  <ellipse stroke="#e5e58b" fill="#bfbfbf" stroke-width="0" stroke-dasharray="null" stroke-linejoin="null" stroke-linecap="null" cx="258.31245" cy="112.68752" id="svg_42" rx="13.5" ry="1.5"/>
  <ellipse stroke="#e5e58b" ry="0.35596" rx="8.54297" id="svg_66" cy="111.77854" cx="258.07958" opacity="0.8" stroke-linecap="null" stroke-linejoin="null" stroke-dasharray="null" stroke-width="0" fill="#3f3f3f"/>
  <rect stroke="#e5e58b" id="svg_67" height="1.60181" width="3.20361" y="110.17671" x="256.12182" stroke-linecap="null" stroke-linejoin="null" stroke-dasharray="null" stroke-width="0" fill="#bfbfbf"/>
  <ellipse stroke="#e5e58b" id="svg_68" fill="#7f7f7f" stroke-width="0" stroke-dasharray="null" stroke-linejoin="null" stroke-linecap="null" cx="248.27497" cy="96.12587" rx="4.14844" ry="2.26428"/>
  <ellipse stroke="#e5e58b" id="svg_69" fill="#bfbfbf" stroke-width="0" stroke-dasharray="null" stroke-linejoin="null" stroke-linecap="null" cx="250.17341" cy="95.07118" rx="3.51562" ry="2.47522"/>
  <ellipse id="svg_70" stroke="#e5e58b" fill="#7f7f7f" stroke-width="0" stroke-dasharray="null" stroke-linejoin="null" stroke-linecap="null" cx="252.91559" cy="92.75087" rx="4.14844" ry="2.26428"/>
  <ellipse stroke="#e5e58b" id="svg_71" fill="#bfbfbf" stroke-width="0" stroke-dasharray="null" stroke-linejoin="null" stroke-linecap="null" cx="252.91559" cy="93.59462" rx="3.30469" ry="2.26428"/>
  <rect stroke="#e5e58b" id="svg_74" height="0.31146" width="1.42383" y="111.64503" x="259.14746" opacity="0.5" stroke-linecap="null" stroke-linejoin="null" stroke-dasharray="null" stroke-width="0" fill="#b0b0f4"/>
  <rect stroke="#e5e58b" id="svg_75" height="0.71191" width="1.29034" y="110.97761" x="259.14746" opacity="0.5" stroke-linecap="null" stroke-linejoin="null" stroke-dasharray="null" stroke-width="0" fill="#b0b0f4"/>
 </g>
</svg>
