<svg width="640" height="480.0000000000002" xmlns="http://www.w3.org/2000/svg" xmlns:svg="http://www.w3.org/2000/svg">
 <!-- Created with SVG-edit - http://svg-edit.googlecode.com/ -->
 <defs>
  <radialGradient id="svg_107" spreadMethod="repeat" r="2.16863" gradientTransform="translate(0,0.17919381142690266) scale(1,0.4577586206896551)" cx="0.49927" cy="0.33047">
   <stop stop-color="#ffffaa" offset="0.10864"/>
   <stop stop-color="0" stop-opacity="0" offset="0.17505"/>
   <stop stop-color="#ffffaa" offset="0.24536"/>
   <stop stop-color="#ffffaa" offset="0.98364"/>
  </radialGradient>
  <radialGradient id="svg_110" spreadMethod="repeat" r="2.16863" gradientTransform="translate(0,0.2974615802538806) scale(1,0.14051724137931032)" cx="0.50317" cy="0.34609">
   <stop stop-color="#ffffaa" offset="0.10864"/>
   <stop stop-color="0" stop-opacity="0" offset="0.17505"/>
   <stop stop-color="#ffffaa" offset="0.24536"/>
   <stop stop-color="#ffffaa" offset="0.98364"/>
  </radialGradient>
 </defs>
 <g stroke="null">
  <title>Layer 1</title>
  <ellipse stroke="#e5e58b" ry="191.23458" rx="199.97327" cy="146.11564" cx="271.77324" opacity="0.95" stroke-linecap="null" stroke-linejoin="null" stroke-dasharray="null" stroke-width="0" fill="#ffff56" id="svg_101"/>
  <ellipse stroke="#e5e58b" id="svg_103" ry="5" rx="44.39906" cy="81.82307" cx="258.96388" opacity="0.95" stroke-linecap="null" stroke-linejoin="null" stroke-dasharray="null" stroke-width="0" fill="url(#svg_107)" fill-opacity="0.93"/>
  <ellipse ry="16" rx="44" cy="115" cx="258.79998" opacity="0.95" stroke-linecap="null" stroke-linejoin="null" stroke-dasharray="null" stroke-width="0" fill="url(#svg_110)" fill-opacity="0.93" id="svg_108" stroke="#e5e58b"/>
  <ellipse ry="5" rx="50.5" id="svg_77" cy="109" cx="257.29999" opacity="0.95" stroke-linecap="null" stroke-linejoin="null" stroke-dasharray="null" stroke-width="0" fill="url(#svg_107)" fill-opacity="0.93" stroke="#e5e58b"/>
  <path stroke-width="0.1" transform="rotate(3.683162212371826 212.43890380859352,161.20559692382824) " id="svg_7" d="m210.6264,146.45561l3.625,-14.75l0,44.25l-3.625,14.74999l0,-44.24999z" stroke-linecap="null" stroke-linejoin="null" stroke-dasharray="null" fill="#7f0000" stroke="#000000"/>
  <ellipse stroke="#00ffff" ry="69.4948" rx="47.45313" id="svg_41" cy="185.99469" cx="258.21968" stroke-linecap="null" stroke-linejoin="null" stroke-dasharray="null" stroke-width="0" fill="#edaaaa"/>
  <polygon stroke-width="0" points="211.38543701171875,70.31995391845703 213.31634521484375,76.52386474609375 219.19613647460938,76.65768432617188 214.5097198486328,80.62572479248047 216.2127227783203,86.91233825683594 211.38543701171875,83.16082000732422 206.55816650390625,86.91233825683594 208.26116943359375,80.62572479248047 203.57473754882812,76.65768432617188 209.45452880859375,76.52386474609375 211.38543701171875,70.31995391845703 213.31634521484375,76.52386474609375 " fill="#ff007f" id="svg_72" transform="rotate(-45.09101486206055 211.38543701171878,78.61614227294919) " stroke="#e5e58b"/>
  <path id="svg_8" d="m291.0332,159.69409l9.98563,-15.49832l0,46.49496l-9.98563,15.49831l0,-46.49494l0,-0.00001z" stroke-linecap="null" stroke-linejoin="null" stroke-dasharray="null" stroke-width="0" fill="#7f0000" transform="rotate(3.8383307456970215 296.0260009765623,175.1924133300783) " stroke="#000000"/>
  <polygon fill="#7f0000" points="286.41006889087384,157.56276702620465 300.7537883732957,172.91464834425727 323.9623760197801,167.0507531867451 323.9623760197801,148.0747663254469 300.7537883732957,142.21085662771742 286.41006889087384,157.56276702620465 " stroke-width="0" transform="rotate(-117.50167846679688 305.18621826171875,157.5627593994141) " id="svg_5" stroke="#000000"/>
  <polygon fill="#7f0000" points="276.25146484375,160.855224609375 291.35748291015625,173.11886596679688 315.79949951171875,168.4345703125 315.79949951171875,153.27587890625 291.35748291015625,148.59158325195312 276.25146484375,160.855224609375 " stroke-width="0" transform="rotate(-97.08348846435547 296.0254821777344,160.85522460937497) " id="svg_10" stroke="#000000"/>
  <line fill="none" stroke-width="2" stroke-dasharray="null" stroke-linejoin="null" stroke-linecap="null" x1="235" y1="166.6" x2="224" y2="199.6" id="svg_17" stroke="#844343"/>
  <line fill="none" stroke-width="2" stroke-dasharray="null" stroke-linejoin="null" stroke-linecap="null" x1="235.96212" y1="197.29199" x2="225.97488" y2="204.64457" id="svg_18" transform="rotate(37.46174240112305 230.96849060058582,200.96829223632818) " stroke="#6d3939"/>
  <path transform="rotate(-8.165899276733398 254.12499999999983,163.58314514160156) " fill="#7f0000" stroke-width="0" stroke-dasharray="null" stroke-linejoin="null" stroke-linecap="null" d="m240.3125,159.47687c12.05208,0.74705 24.10416,-0.89646 26.27084,5.97642c2.16667,6.87288 1.08334,1.64352 1.08334,1.55387c0,-0.08965 -1.89583,-7.38087 -1.89583,-7.47052c0,-0.08965 -0.8125,0.38847 -4.19792,-0.6574c-3.38542,-1.04587 -8.125,-0.59764 -8.125,-0.68729c0,-0.08965 -8.26042,0.68729 -8.26042,0.59764c0,-0.08965 -4.875,0.68729 -4.875,0.68729l0,-0.00001l-0.00001,0z" id="svg_20" stroke="#000000"/>
  <ellipse fill="#b2b267" stroke-width="2" stroke-dasharray="null" stroke-linejoin="null" stroke-linecap="null" cx="220" cy="169.6" id="svg_22" rx="2" ry="5" stroke="#000000"/>
  <ellipse fill="#b2b267" stroke-width="2" stroke-dasharray="null" stroke-linejoin="null" stroke-linecap="null" cx="253.63794" cy="169.77798" rx="2" ry="5" id="svg_24" stroke="#000000"/>
  <ellipse fill="#ff7f00" stroke-width="0" stroke-dasharray="null" stroke-linejoin="null" stroke-linecap="null" cx="219.26247" cy="169.78174" id="svg_25" rx="0.97888" ry="3.2926" opacity="0.5" stroke="#000000"/>
  <ellipse fill="#ff7f00" stroke-width="0" stroke-dasharray="null" stroke-linejoin="null" stroke-linecap="null" cx="252.54446" cy="170.31567" rx="0.97888" ry="3.2926" opacity="0.5" id="svg_26" stroke="#000000"/>
  <ellipse fill="#00ffff" stroke-width="0" stroke-dasharray="null" stroke-linejoin="null" stroke-linecap="null" cx="251.47659" cy="170.31567" rx="0.97888" ry="3.2926" opacity="0.5" id="svg_27" stroke="#000000"/>
  <ellipse fill="#00ffff" stroke-width="0" stroke-dasharray="null" stroke-linejoin="null" stroke-linecap="null" cx="218.1946" cy="169.95972" rx="0.97888" ry="3.2926" opacity="0.5" id="svg_28" stroke="#000000"/>
  <path id="svg_1" d="m226.42333,212.71499c0,0 2.18065,2.69299 6.29966,1.6158c4.11901,-1.0772 4.3613,-0.96948 4.3613,-1.03411c0,-0.06463 12.59931,3.08078 12.59931,3.01615c0,-0.06463 -24.71403,-1.44344 -24.71403,-1.50808c0,-0.06463 -3.87671,-1.7666 -1.21147,-2.08976c2.66524,-0.32316 2.66524,0 2.66524,0l-0.00001,0z" stroke-width="0" fill="#7f0000" stroke="#000000"/>
  <ellipse ry="0.63281" rx="6.43074" id="svg_11" cy="202.46766" cx="230.78982" opacity="0.5" stroke-linecap="null" stroke-linejoin="null" stroke-dasharray="null" stroke-width="2" fill="none" stroke="#6d3939"/>
  <path id="svg_13" d="m223.7409,217.54924c0,0 1.96207,3.31409 10.65123,1.87318c8.68916,-1.44091 8.68916,-1.44091 8.60958,-1.52204c-0.07958,-0.08113 -3.56426,2.96294 -9.73076,2.81885c-6.1665,-0.14409 -8.68916,-1.00864 -9.53005,-1.585c-0.84089,-0.57636 0,-1.585 0,-1.585l0,0.00001z" stroke-linecap="null" stroke-linejoin="null" stroke-dasharray="null" stroke-width="0" fill="#7f0000" stroke="#7f0000"/>
  <polygon stroke="#a07272" transform="rotate(21.28138542175293 314.60781860351574,167.00312805175784) " stroke-width="2" points="314.60782321304737,156.4167432079758 316.14416964859424,164.33325948599128 320.8224533400005,164.50400192245985 317.09366305679737,169.56743110666508 318.4486740431255,177.58950605143224 314.60782321304737,172.8023612866055 310.76697238296924,177.58950605143224 312.12198336929737,169.56743110666508 308.39319308609424,164.50400192245985 313.0714767775005,164.33325948599128 314.60782321304737,156.4167432079758 316.14416964859424,164.33325948599128 " fill="#a06d6d" id="svg_14"/>
  <path transform="rotate(-89.88261413574219 239.27413940429688,238.6252899169922) " id="svg_15" d="m239.91323,226.57552c0,0 -4.41165,9.55463 -1.17644,17.06183c3.23521,7.50721 3.52932,2.72989 3.49665,2.68437c-0.03267,-0.04552 -2.32021,7.55273 -3.79076,2.77541c-1.47055,-4.77731 -2.79404,-14.33194 -1.76466,-17.74431c1.02938,-3.41237 3.23521,-4.77731 3.23521,-4.77731l0,0.00001z" stroke-linecap="null" stroke-linejoin="null" stroke-dasharray="null" fill="#7f0000" stroke="#965858"/>
  <path transform="rotate(-9.17534351348877 249.3892822265629,215.40428161621094) " id="svg_19" d="m249.90358,207.43326c0,0 -1.9203,4.69247 -0.79461,9.94804c1.1257,5.25557 1.32435,6.00636 1.30964,5.99384c-0.01471,-0.01252 -2.3029,-5.43075 -2.03803,-8.62163c0.26487,-3.19088 1.523,-7.32026 1.523,-7.32026l0,0.00001z" stroke-linecap="null" stroke-linejoin="null" stroke-dasharray="null" stroke-width="0.3" fill="#7f0000" stroke="#7f2323"/>
  <polygon stroke="#000000" id="svg_29" fill="#7f0000" points="294.3554675877094,184.0598907470703 306.7353198826313,189.03675842285156 326.7663562595844,187.13575744628906 326.7663562595844,180.98403930664062 306.7353198826313,179.0830078125 294.3554675877094,184.0598907470703 " stroke-width="0" transform="rotate(-88.54969024658203 310.5609130859375,184.05987548828125) "/>
  <path id="svg_32" transform="rotate(176.8744659423828 310.1693420410156,141.42454528808594) " d="m308.82496,137.91618c0,0 5.01987,2.06535 2.07718,4.37855c-2.94266,2.3132 -3.46197,2.64365 -3.42352,2.63814c0.03845,-0.00551 6.01999,-2.3903 5.3276,-3.79474c-0.69239,-1.40444 -3.98126,-3.22195 -3.98126,-3.22195z" stroke-linecap="null" stroke-linejoin="null" stroke-dasharray="null" stroke-width="0.3" fill="#7f0000" stroke="#7f2323"/>
  <polygon id="svg_33" fill="#7f0000" points="301.20308817079217,161.70800698399322 307.3552821497267,171.56703103184478 317.30972723963146,167.80120766758697 317.30972723963146,155.61477578282134 307.3552821497267,151.84895241856353 301.20308817079217,161.70800698399322 " stroke-width="0" transform="rotate(-97.08348846435547 309.2564086914063,161.70799255371097) " stroke="#000000"/>
  <polygon stroke="#000000" id="svg_34" fill="#965858" points="285.46392325587965,162.16037520284476 299.6765264275085,171.9518638503057 322.67292939850756,168.2118278395635 322.67292939850756,156.10886153096976 299.6765264275085,152.36882552022757 285.46392325587965,162.16037520284476 " stroke-width="0" transform="rotate(-174.4308319091797 304.0684204101563,162.16033935546875) "/>
  <path stroke="#000000" transform="rotate(-5.432056903839111 213.5621948242189,151.18919372558597) " id="svg_38" d="m210.7259,151.18919l2.83629,-11.61348l2.83629,11.61348l-2.83629,11.61348l-2.83629,-11.61348z" stroke-linecap="null" stroke-linejoin="null" stroke-dasharray="null" stroke-width="0" fill="#a07070"/>
  <polygon stroke-width="0" points="309.8717346191406,190.03070068359375 305.5649719238281,205.84347534179688 298.5965270996094,199.80352783203125 298.5965270996094,180.25784301757812 305.5649719238281,174.2178955078125 309.8717346191406,190.03070068359375 " fill="#edaaaa" id="svg_35" stroke="#a07272"/>
  <polygon stroke="#000000" id="svg_40" fill="#7f0000" points="290.37195175886154,190.77398797869682 302.7518040537834,195.24578973650932 322.78284043073654,193.537705630064 322.78284043073654,188.01030084490776 302.7518040537834,186.30220147967339 290.37195175886154,190.77398797869682 " stroke-width="0" transform="rotate(-83.04230499267578 306.577392578125,190.77400207519528) "/>
  <path transform="rotate(88.67416381835938 224.87557983398438,151.29678344726562) " id="svg_44" d="m214.03709,162.70427l0,-22.81499l21.67699,22.81499l-21.67699,0z" stroke-linecap="null" stroke-linejoin="null" stroke-dasharray="null" stroke-width="0" fill="#edaaaa" stroke="#f23c3c"/>
  <path transform="rotate(18.7429256439209 273.35470581054693,185.39776611328122) " id="svg_45" d="m265.44419,194.1281l0,-17.46067l15.82108,17.46067l-15.82108,0z" stroke-linecap="null" stroke-linejoin="null" stroke-dasharray="null" stroke-width="0" fill="#edaaaa" stroke="#f23c3c"/>
  <path stroke="#000000" transform="rotate(-164.60711669921875 213.44126892089844,141.77728271484372) " id="svg_2" d="m211.52781,144.83109l1.91346,-6.1076l1.91346,6.1076l-3.82692,0z" stroke-linecap="null" stroke-linejoin="null" stroke-dasharray="null" stroke-width="0" fill="#7f0000"/>
  <rect stroke="#e5e58b" id="svg_78" height="14.65723" width="105.70899" y="122.71582" x="204.35936" opacity="0.95" stroke-linecap="null" stroke-linejoin="null" stroke-dasharray="null" stroke-width="0" fill="#ffff56"/>
  <ellipse stroke="#ff5656" ry="4.88823" rx="47.07451" id="svg_43" cy="138.81177" cx="259.27551" stroke-linecap="null" stroke-linejoin="null" stroke-dasharray="null" stroke-width="0.2" fill="#3f3f3f"/>
  <ellipse ry="3.99353" rx="43.61426" cy="139.23186" cx="260.83733" stroke-linecap="null" stroke-linejoin="null" stroke-dasharray="null" stroke-width="0" fill="#543a3a" id="svg_53" stroke="#000000"/>
  <rect transform="rotate(6.008937835693359 290.7500305175786,130.125) " id="svg_79" height="8.25" width="25.5" y="126" x="278.00002" opacity="0.95" stroke-linecap="null" stroke-linejoin="null" stroke-dasharray="null" stroke-width="0" fill="#ffff00" stroke="#e5e58b"/>
  <ellipse ry="37.375" rx="41.42284" cy="98.82653" cx="258.50682" stroke-linecap="null" stroke-linejoin="null" stroke-dasharray="null" stroke-width="0" fill="#4af7f7" id="svg_83" opacity="0.5" stroke="#e5e58b"/>
  <ellipse stroke="#e5e58b" ry="33.51389" rx="37.79784" id="svg_46" cy="100.10279" cx="258.48577" stroke-linecap="null" stroke-linejoin="null" stroke-dasharray="null" stroke-width="0" fill="#ff007f"/>
  <polygon stroke="#e5e58b" id="svg_49" stroke-width="0" points="256.35986281186024,98.07957265471381 262.15317944395474,112.67062684911875 279.79433079697674,112.98536496202209 265.73356143301544,122.31786143768372 270.84321344069076,137.10342172083742 256.35986281186024,128.28016201867862 241.87661551806968,137.10342172083742 246.98611990425934,122.31786143768372 232.92543911318944,112.98536496202209 250.56657570406287,112.67062684911875 256.35986281186024,98.07957265471381 262.15317944395474,112.67062684911875 " fill="#ff007f" transform="rotate(33.84178924560547 256.35989379882807,117.59149169921874) "/>
  <polygon transform="rotate(23.39608383178711 291.71459960937506,66.51921844482418) " id="svg_50" stroke-width="0" points="291.7146301269531,57.7236328125 294.25762939453125,64.30098724365234 302.0013732910156,64.44286346435547 295.8293151855469,68.64976501464844 298.07220458984375,75.31480407714844 291.7146301269531,71.33745574951172 285.3570556640625,75.31480407714844 287.59991455078125,68.64976501464844 281.4278564453125,64.44286346435547 289.17156982421875,64.30098724365234 291.7146301269531,57.7236328125 294.25762939453125,64.30098724365234 " fill="#ff007f" stroke="#e5e58b"/>
  <ellipse stroke="#e5e58b" ry="29.44211" rx="31.65625" id="svg_52" cy="101.76581" cx="257.71876" stroke-linecap="null" stroke-linejoin="null" stroke-dasharray="null" stroke-width="0" fill="#ff00ff"/>
  <ellipse stroke="#e5e58b" transform="rotate(93.09404754638672 258.394287109375,109.53269195556639) " id="svg_31" ry="6.75" rx="16.61662" cy="109.5327" cx="258.39429" stroke-linecap="null" stroke-linejoin="null" stroke-dasharray="null" stroke-width="0" fill="#bfbfbf"/>
  <ellipse transform="rotate(91.4148178100586 252.37435913085932,113.77079010009768) " id="svg_30" ry="3.65025" rx="16.81417" cy="113.77079" cx="252.37436" stroke-linecap="null" stroke-linejoin="null" stroke-dasharray="null" stroke-width="0" fill="#ff00ff" stroke="#e5e58b"/>
  <ellipse ry="3.00058" rx="11.98172" cy="115.80918" cx="261.93845" stroke-linecap="null" stroke-linejoin="null" stroke-dasharray="null" stroke-width="0" fill="#0000ff" opacity="0.3" id="svg_73" transform="rotate(93.20083618164062 261.9384460449219,115.8091659545898) " stroke="#e5e58b"/>
  <ellipse id="svg_37" transform="rotate(93.4549560546875 263.76263427734375,114.77284240722658) " ry="3.62195" rx="14.06074" cy="114.77283" cx="263.76265" stroke-linecap="null" stroke-linejoin="null" stroke-dasharray="null" stroke-width="0" fill="#ff00ff" stroke="#e5e58b"/>
  <ellipse ry="1.36652" rx="13.5" cy="113.22145" cx="258.31245" stroke-linecap="null" stroke-linejoin="null" stroke-dasharray="null" stroke-width="0" fill="#7f7f7f" id="svg_76" stroke="#e5e58b"/>
  <ellipse ry="6.75" rx="23.34375" cy="99.52442" cx="258.5937" stroke-linecap="null" stroke-linejoin="null" stroke-dasharray="null" stroke-width="0" fill="#7f7f7f" id="svg_16" opacity="0.8" stroke="#e5e58b"/>
  <ellipse ry="6.75" rx="23.34375" id="svg_23" cy="98.81251" cx="258.5937" stroke-linecap="null" stroke-linejoin="null" stroke-dasharray="null" stroke-width="0" fill="#bfbfbf" stroke="#e5e58b"/>
  <ellipse id="svg_54" ry="3.375" rx="15.56251" cy="125.90138" cx="257.93744" stroke-linecap="null" stroke-linejoin="null" stroke-dasharray="null" stroke-width="0" fill="#0000ff" opacity="0.3" stroke="#e5e58b"/>
  <ellipse stroke="#e5e58b" fill="#7f7f7f" stroke-width="0" stroke-dasharray="null" stroke-linejoin="null" stroke-linecap="null" opacity="0.3" cx="258.18591" cy="140.03933" id="svg_116" rx="39.27539" ry="3.10108"/>
  <ellipse stroke="#e5e58b" id="svg_47" ry="2.66309" rx="13.5" cy="124.20118" cx="257.74995" stroke-linecap="null" stroke-linejoin="null" stroke-dasharray="null" stroke-width="0" fill="#bfbfbf"/>
  <ellipse id="svg_58" ry="6.75" rx="9.84375" cy="92.06251" cx="259.71869" stroke-linecap="null" stroke-linejoin="null" stroke-dasharray="null" stroke-width="0" fill="#7f7f7f" stroke="#e5e58b"/>
  <ellipse id="svg_59" ry="6.75" rx="9.84375" cy="94.87501" cx="249.03119" stroke-linecap="null" stroke-linejoin="null" stroke-dasharray="null" stroke-width="0" fill="#7f7f7f" stroke="#e5e58b"/>
  <ellipse id="svg_60" ry="4.2583" rx="9.77564" cy="97.78419" cx="248.50385" opacity="0.5" stroke-linecap="null" stroke-linejoin="null" stroke-dasharray="null" stroke-width="0" fill="#ffffff" stroke="#e5e58b"/>
  <ellipse id="svg_55" ry="6.48303" rx="9.84375" cy="95.28212" cx="249.75154" stroke-linecap="null" stroke-linejoin="null" stroke-dasharray="null" stroke-width="0" fill="#bfbfbf" stroke="#e5e58b"/>
  <ellipse ry="5.86011" rx="9.84375" cy="91.98952" cx="260.07429" stroke-linecap="null" stroke-linejoin="null" stroke-dasharray="null" stroke-width="0" fill="#bfbfbf" id="svg_4" stroke="#e5e58b"/>
  <ellipse ry="4.97022" rx="9.59766" cy="97.60621" cx="268.43744" opacity="0.5" stroke-linecap="null" stroke-linejoin="null" stroke-dasharray="null" stroke-width="0" fill="#ffffff" id="svg_12" stroke="#e5e58b"/>
  <ellipse id="svg_62" ry="6.75" rx="9.84375" cy="95.43751" cx="268.71869" stroke-linecap="null" stroke-linejoin="null" stroke-dasharray="null" stroke-width="0" fill="#7f7f7f" stroke="#e5e58b"/>
  <ellipse ry="5.86011" rx="9.84375" cy="95.37111" cx="267.72737" stroke-linecap="null" stroke-linejoin="null" stroke-dasharray="null" stroke-width="0" fill="#bfbfbf" id="svg_9" stroke="#e5e58b"/>
  <ellipse ry="1.47722" rx="3.87046" cy="104.63865" cx="245.32317" stroke-linecap="null" stroke-linejoin="null" stroke-dasharray="null" stroke-width="0" fill="#7f7f7f" transform="rotate(10.81128978729248 245.32316589355452,104.63864898681649) " id="svg_63" stroke="#e5e58b"/>
  <ellipse ry="1.47722" rx="3.87046" cy="103.92674" cx="245.85711" stroke-linecap="null" stroke-linejoin="null" stroke-dasharray="null" stroke-width="0" fill="#bfbfbf" id="svg_57" transform="rotate(10.81128978729248 245.85710144042986,103.92672729492189) " stroke="#e5e58b"/>
  <ellipse ry="1.47722" rx="3.87046" cy="103.21482" cx="276.11345" stroke-linecap="null" stroke-linejoin="null" stroke-dasharray="null" stroke-width="0" fill="#7f7f7f" transform="rotate(-12.59776496887207 276.11346435546864,103.21482086181636) " id="svg_64" stroke="#e5e58b"/>
  <ellipse ry="1.47722" rx="3.87046" cy="102.85886" cx="275.04558" stroke-linecap="null" stroke-linejoin="null" stroke-dasharray="null" stroke-width="0" fill="#bfbfbf" transform="rotate(-6.947676658630371 275.04559326171886,102.85886383056668) " id="svg_65" stroke="#e5e58b"/>
  <ellipse ry="1.5" rx="13.5" id="svg_42" cy="112.68752" cx="258.31245" stroke-linecap="null" stroke-linejoin="null" stroke-dasharray="null" stroke-width="0" fill="#bfbfbf" stroke="#e5e58b"/>
  <ellipse fill="#3f3f3f" stroke-width="0" stroke-dasharray="null" stroke-linejoin="null" stroke-linecap="null" opacity="0.8" cx="258.07958" cy="111.77854" id="svg_66" rx="8.54297" ry="0.35596" stroke="#e5e58b"/>
  <rect fill="#bfbfbf" stroke-width="0" stroke-dasharray="null" stroke-linejoin="null" stroke-linecap="null" x="256.12182" y="110.17671" width="3.20361" height="1.60181" id="svg_67" stroke="#e5e58b"/>
  <ellipse ry="2.26428" rx="4.14844" cy="96.12587" cx="248.27497" stroke-linecap="null" stroke-linejoin="null" stroke-dasharray="null" stroke-width="0" fill="#7f7f7f" id="svg_68" stroke="#e5e58b"/>
  <ellipse ry="2.47522" rx="3.51562" cy="95.07118" cx="250.17341" stroke-linecap="null" stroke-linejoin="null" stroke-dasharray="null" stroke-width="0" fill="#bfbfbf" id="svg_69" stroke="#e5e58b"/>
  <ellipse ry="2.26428" rx="4.14844" cy="92.75087" cx="252.91559" stroke-linecap="null" stroke-linejoin="null" stroke-dasharray="null" stroke-width="0" fill="#7f7f7f" id="svg_70" stroke="#e5e58b"/>
  <ellipse ry="2.26428" rx="3.30469" cy="93.59462" cx="252.91559" stroke-linecap="null" stroke-linejoin="null" stroke-dasharray="null" stroke-width="0" fill="#bfbfbf" id="svg_71" stroke="#e5e58b"/>
  <rect fill="#b0b0f4" stroke-width="0" stroke-dasharray="null" stroke-linejoin="null" stroke-linecap="null" opacity="0.5" x="259.14746" y="111.64503" width="1.42383" height="0.31146" id="svg_74" stroke="#e5e58b"/>
  <rect fill="#b0b0f4" stroke-width="0" stroke-dasharray="null" stroke-linejoin="null" stroke-linecap="null" opacity="0.5" x="259.14746" y="110.97761" width="1.29034" height="0.71191" id="svg_75" stroke="#e5e58b"/>
  <polygon transform="rotate(104.73858642578125 212.46908569335938,114.93453216552732) " id="svg_56" stroke-width="0" points="212.4690916159657,111.10129144215455 213.31453267425653,113.96779444970537 215.88903764090767,114.02962740720898 213.83706551005938,115.86305098380956 214.58275071023175,118.76776874246946 212.4690916159657,117.03438751401711 210.35545510111527,118.76776874246946 211.10110643216424,115.86305098380956 209.04913430131595,114.02962740720898 211.6236166885515,113.96779444970537 212.4690916159657,111.10129144215455 213.31453267425653,113.96779444970537 " fill="#ff007f" stroke="#e5e58b"/>
  <polygon id="svg_61" transform="rotate(128.83082580566406 308.3922119140625,126.42349243164061) " stroke-width="0" points="308.3922119140625,121.85750579833984 309.5348815917969,125.27195739746094 313.0144958496094,125.34561157226562 310.2411193847656,127.52950286865234 311.24896240234375,130.98948669433594 308.3922119140625,128.92474365234375 305.5354919433594,130.98948669433594 306.54327392578125,127.52950286865234 303.7698974609375,125.34561157226562 307.2494812011719,125.27195739746094 308.3922119140625,121.85750579833984 309.5348815917969,125.27195739746094 " fill="#ff007f" stroke="#e5e58b"/>
  <polygon id="svg_80" transform="rotate(104.73858642578125 191.09408569335935,100.6845245361328) " stroke-width="0" points="191.09410095214844,95.22879028320312 192.2367706298828,99.30859375 195.7163848876953,99.39659118652344 192.94300842285156,102.00605773925781 193.9508514404297,106.1402587890625 191.09410095214844,103.67318725585938 188.2373809814453,106.1402587890625 189.24517822265625,102.00605773925781 186.4718017578125,99.39659118652344 189.95138549804688,99.30859375 191.09410095214844,95.22879028320312 192.2367706298828,99.30859375 " fill="#f28cbd" stroke="#e5e58b"/>
  <polygon id="svg_81" stroke-width="0" points="261.26043701171875,64.11271667480469 262.60231018066406,66.54563903808594 266.68841552734375,66.59811401367188 263.431640625,68.15422821044922 264.6151428222656,70.61957550048828 261.26043701171875,69.14837646484375 257.90574645996094,70.61957550048828 259.08924865722656,68.15422821044922 255.8324432373047,66.59811401367188 259.91856384277344,66.54563903808594 261.26043701171875,64.11271667480469 262.60231018066406,66.54563903808594 " fill="#f794c2" transform="rotate(-45.09101486206055 261.2604370117188,67.36614990234374) " stroke="#e5e58b"/>
  <polygon transform="rotate(19.80002784729004 320.76464843749983,101.0537490844726) " stroke-width="0" points="320.7646789550781,80.17913818359375 323.42108154296875,95.78921508789062 331.5101013183594,96.12592315673828 325.0628356933594,106.11019134521484 327.4057312011719,121.92835998535156 320.7646789550781,112.48890686035156 314.1236267089844,121.92835998535156 316.46649169921875,106.11019134521484 310.01922607421875,96.12592315673828 318.1082458496094,95.78921508789062 320.7646789550781,80.17913818359375 323.42108154296875,95.78921508789062 " fill="#ff5656" id="svg_82" stroke="#e5e58b"/>
  <polygon transform="rotate(19.80002784729004 319.2646484375,101.05374908447256) " stroke-width="0" points="319.2646789550781,80.17913818359375 321.92108154296875,95.78921508789062 330.0101013183594,96.12592315673828 323.5628356933594,106.11019134521484 325.9057312011719,121.92835998535156 319.2646789550781,112.48890686035156 312.6236267089844,121.92835998535156 314.96649169921875,106.11019134521484 308.51922607421875,96.12592315673828 316.6082458496094,95.78921508789062 319.2646789550781,80.17913818359375 321.92108154296875,95.78921508789062 " fill="#f99dca" id="svg_51" stroke="#e5e58b"/>
  <ellipse stroke="#fcfced" id="svg_100" ry="1.875" rx="7.875" cy="215.92498" cx="232.77503" opacity="0.1" stroke-linecap="null" stroke-linejoin="null" stroke-dasharray="null" stroke-width="5" fill="#ffffff"/>
  <polygon stroke="#000000" id="svg_102" fill="#965858" points="285.5618497070326,148.33222409502565 299.77443515625134,156.22469045747863 322.7708645996107,153.21001720859937 322.7708645996107,143.4543803985544 299.77443515625134,140.439724010641 285.5618497070326,148.33222409502565 " stroke-width="0" transform="rotate(179.45281982421875 304.1663513183594,148.3322143554687) "/>
  <polygon stroke="#000000" id="svg_98" fill="#8c1010" points="285.63508295954455,154.14864456657062 300.3860089471651,163.07686722282062 324.25341510973306,159.66657364371906 324.25341510973306,148.63063919547687 300.3860089471651,145.22036087516437 285.63508295954455,154.14864456657062 " stroke-width="0" transform="rotate(-177.0822296142578 304.9442443847657,154.14862060546875) "/>
  <ellipse stroke="#7f0000" ry="10.97754" rx="5.29395" id="svg_39" cy="180.16112" cx="305.2859" stroke-linecap="null" stroke-linejoin="null" stroke-dasharray="null" fill="#edaaaa"/>
  <ellipse stroke="#7f0000" transform="rotate(2.5052490234375 304.96514892578097,184.18449401855415) " stroke-width="0.5" id="svg_3" ry="8.00914" rx="3.65559" cy="184.18449" cx="304.96514" stroke-linecap="null" stroke-linejoin="null" stroke-dasharray="null" fill="#edaaaa"/>
  <ellipse stroke="#7f0000" id="svg_6" transform="rotate(10.074833869934082 303.13522338867176,185.31808471679693) " stroke-width="0" ry="5.77183" rx="3.01457" cy="185.31809" cx="303.1352" stroke-linecap="null" stroke-linejoin="null" stroke-dasharray="null" fill="#edaaaa"/>
  <path stroke="#000000" fill="#7f0000" stroke-width="0" stroke-dasharray="null" stroke-linejoin="null" stroke-linecap="null" d="m230.90848,160.00367c-11.34813,0.68139 -22.69625,-0.81767 -24.73637,5.4511c-2.04011,6.26877 -1.02006,1.49905 -1.02006,1.41728c0,-0.08177 1.7851,-6.73212 1.7851,-6.81388c0,-0.08177 0.76504,0.35432 3.95272,-0.59962c3.18768,-0.95395 7.65042,-0.54512 7.65042,-0.62688c0,-0.08177 7.77793,0.62688 7.77793,0.54512c0,-0.08177 4.59025,0.62688 4.59025,0.62688l0.00001,0l0,-0.00001z" id="svg_21" transform="rotate(10.332831382751465 217.9027557373046,163.7490081787109) "/>
  <path stroke="#7f2323" id="svg_104" transform="rotate(-134.8605499267578 210.06423950195312,142.91674804687497) " d="m209.41669,140.39407c0,0 2.41787,1.48507 1.00049,3.14836c-1.41736,1.66329 -1.66749,1.9009 -1.64897,1.89693c0.01852,-0.00396 2.89958,-1.71873 2.56609,-2.72858c-0.3335,-1.00985 -1.91761,-2.31672 -1.91761,-2.31672z" stroke-linecap="null" stroke-linejoin="null" stroke-dasharray="null" stroke-width="0.3" fill="#7f0000"/>
 </g>
</svg>
