<svg width="360" height="360.00000000000017" xmlns="http://www.w3.org/2000/svg" xmlns:svg="http://www.w3.org/2000/svg">
 <!-- Created with SVG-edit - http://svg-edit.googlecode.com/ -->
 <g stroke="null">
  <title>Layer 1</title>
  <rect stroke-opacity="0.55" stroke="#ff54ff" id="svg_2" height="316" width="311.00001" y="21" x="23.99999" stroke-linecap="null" stroke-linejoin="null" stroke-dasharray="null" stroke-width="3" fill="#ffff56"/>
  <ellipse stroke="#e5e58b" id="d_svg_103" ry="5" rx="44.39906" cy="96.82307" cx="170.96388" opacity="0.95" stroke-linecap="null" stroke-linejoin="null" stroke-dasharray="null" stroke-width="0" fill="url(#svg_107)" fill-opacity="0.93"/>
  <ellipse ry="16" rx="44" cy="130" cx="170.79998" opacity="0.95" stroke-linecap="null" stroke-linejoin="null" stroke-dasharray="null" stroke-width="0" fill="url(#svg_110)" fill-opacity="0.93" id="d_svg_108" stroke="#e5e58b"/>
  <ellipse ry="5" rx="50.5" id="d_svg_77" cy="124" cx="169.29999" opacity="0.95" stroke-linecap="null" stroke-linejoin="null" stroke-dasharray="null" stroke-width="0" fill="url(#svg_107)" fill-opacity="0.93" stroke="#e5e58b"/>
  <path stroke-width="0.1" transform="rotate(3.683162212371826 124.43890380859267,176.2055969238281) " id="d_svg_7" d="m122.6264,161.45561l3.625,-14.75l0,44.25l-3.625,14.74999l0,-44.24999z" stroke-linecap="null" stroke-linejoin="null" stroke-dasharray="null" fill="#7f0000" stroke="#000000"/>
  <ellipse stroke="#00ffff" ry="69.4948" rx="47.45313" id="d_svg_41" cy="200.99469" cx="170.21968" stroke-linecap="null" stroke-linejoin="null" stroke-dasharray="null" stroke-width="0" fill="#edaaaa"/>
  <polygon stroke-width="0" points="123.38543701171875,85.3199462890625 125.31634521484375,91.52386474609375 131.19613647460938,91.65768432617188 126.50970458984375,95.625732421875 128.21273803710938,101.91233825683594 123.38543701171875,98.16081237792969 118.55816650390625,101.91233825683594 120.26116943359375,95.625732421875 115.57473754882812,91.65768432617188 121.45452880859375,91.52386474609375 123.38543701171875,85.3199462890625 125.31634521484375,91.52386474609375 " fill="#ff007f" id="d_svg_72" transform="rotate(-45.09101486206055 123.38543701171875,93.6161346435547) " stroke="#e5e58b"/>
  <path id="d_svg_8" d="m203.0332,174.69409l9.98563,-15.49832l0,46.49496l-9.98563,15.49831l0,-46.49494l0,-0.00001z" stroke-linecap="null" stroke-linejoin="null" stroke-dasharray="null" stroke-width="0" fill="#7f0000" transform="rotate(3.8383307456970215 208.02600097656224,190.1924133300781) " stroke="#000000"/>
  <polygon fill="#7f0000" points="198.41006469726562,172.56275939941406 212.7537841796875,187.91464233398438 235.96237182617188,182.05075073242188 235.96237182617188,163.07476806640625 212.7537841796875,157.2108612060547 198.41006469726562,172.56275939941406 " stroke-width="0" transform="rotate(-117.50167846679688 217.18621826171875,172.5627593994141) " id="d_svg_5" stroke="#000000"/>
  <polygon fill="#7f0000" points="188.25146484375,175.855224609375 203.35748291015625,188.11886596679688 227.79949951171875,183.4345703125 227.79949951171875,168.27587890625 203.35748291015625,163.59158325195312 188.25146484375,175.855224609375 " stroke-width="0" transform="rotate(-97.08348846435547 208.02548217773438,175.855224609375) " id="d_svg_10" stroke="#000000"/>
  <line fill="none" stroke-width="2" stroke-dasharray="null" stroke-linejoin="null" stroke-linecap="null" x1="147" y1="181.6" x2="136" y2="214.6" id="d_svg_17" stroke="#844343"/>
  <line fill="none" stroke-width="2" stroke-dasharray="null" stroke-linejoin="null" stroke-linecap="null" x1="147.96212" y1="212.29199" x2="137.97488" y2="219.64457" id="d_svg_18" transform="rotate(37.46174240112305 142.96850585937509,215.96829223632807) " stroke="#6d3939"/>
  <path transform="rotate(-8.165899276733398 166.12500000000043,178.58314514160156) " fill="#7f0000" stroke-width="0" stroke-dasharray="null" stroke-linejoin="null" stroke-linecap="null" d="m152.3125,174.47687c12.05208,0.74705 24.10416,-0.89646 26.27084,5.97642c2.16667,6.87288 1.08334,1.64352 1.08334,1.55387c0,-0.08965 -1.89583,-7.38087 -1.89583,-7.47052c0,-0.08965 -0.8125,0.38847 -4.19792,-0.6574c-3.38542,-1.04587 -8.125,-0.59764 -8.125,-0.68729c0,-0.08965 -8.26042,0.68729 -8.26042,0.59764c0,-0.08965 -4.875,0.68729 -4.875,0.68729l0,-0.00001l-0.00001,0z" id="d_svg_20" stroke="#000000"/>
  <ellipse fill="#b2b267" stroke-width="2" stroke-dasharray="null" stroke-linejoin="null" stroke-linecap="null" cx="132" cy="184.6" id="d_svg_22" rx="2" ry="5" stroke="#000000"/>
  <ellipse fill="#b2b267" stroke-width="2" stroke-dasharray="null" stroke-linejoin="null" stroke-linecap="null" cx="165.63794" cy="184.77798" rx="2" ry="5" id="d_svg_24" stroke="#000000"/>
  <ellipse fill="#ff7f00" stroke-width="0" stroke-dasharray="null" stroke-linejoin="null" stroke-linecap="null" cx="131.26247" cy="184.78174" id="d_svg_25" rx="0.97888" ry="3.2926" opacity="0.5" stroke="#000000"/>
  <ellipse fill="#ff7f00" stroke-width="0" stroke-dasharray="null" stroke-linejoin="null" stroke-linecap="null" cx="164.54446" cy="185.31567" rx="0.97888" ry="3.2926" opacity="0.5" id="d_svg_26" stroke="#000000"/>
  <ellipse fill="#00ffff" stroke-width="0" stroke-dasharray="null" stroke-linejoin="null" stroke-linecap="null" cx="163.47659" cy="185.31567" rx="0.97888" ry="3.2926" opacity="0.5" id="d_svg_27" stroke="#000000"/>
  <ellipse fill="#00ffff" stroke-width="0" stroke-dasharray="null" stroke-linejoin="null" stroke-linecap="null" cx="130.1946" cy="184.95972" rx="0.97888" ry="3.2926" opacity="0.5" id="d_svg_28" stroke="#000000"/>
  <path id="d_svg_1" d="m138.42333,227.71499c0,0 2.18065,2.69299 6.29966,1.6158c4.11901,-1.0772 4.3613,-0.96948 4.3613,-1.03411c0,-0.06463 12.59931,3.08078 12.59931,3.01615c0,-0.06463 -24.71403,-1.44344 -24.71403,-1.50808c0,-0.06463 -3.87671,-1.7666 -1.21147,-2.08976c2.66524,-0.32316 2.66524,0 2.66524,0l-0.00001,0z" stroke-width="0" fill="#7f0000" stroke="#000000"/>
  <ellipse ry="0.63281" rx="6.43074" id="d_svg_11" cy="217.46766" cx="142.78982" opacity="0.5" stroke-linecap="null" stroke-linejoin="null" stroke-dasharray="null" stroke-width="2" fill="none" stroke="#6d3939"/>
  <path id="d_svg_13" d="m135.7409,232.54924c0,0 1.96207,3.31409 10.65123,1.87318c8.68916,-1.44091 8.68916,-1.44091 8.60958,-1.52204c-0.07958,-0.08113 -3.56426,2.96294 -9.73076,2.81885c-6.1665,-0.14409 -8.68916,-1.00864 -9.53005,-1.585c-0.84089,-0.57636 0,-1.585 0,-1.585l0,0.00001z" stroke-linecap="null" stroke-linejoin="null" stroke-dasharray="null" stroke-width="0" fill="#7f0000" stroke="#7f0000"/>
  <polygon stroke="#a07272" transform="rotate(21.28138542175293 226.60781860351585,182.00312805175784) " stroke-width="2" points="226.60781860351562,171.416748046875 228.1441650390625,179.333251953125 232.82244873046875,179.50399780273438 229.09365844726562,184.5674285888672 230.44866943359375,192.58950805664062 226.60781860351562,187.8023681640625 222.7669677734375,192.58950805664062 224.12197875976562,184.5674285888672 220.3931884765625,179.50399780273438 225.07147216796875,179.333251953125 226.60781860351562,171.416748046875 228.1441650390625,179.333251953125 " fill="#a06d6d" id="d_svg_14"/>
  <path transform="rotate(-89.88261413574219 151.27413940429685,253.62530517578122) " id="d_svg_15" d="m151.91323,241.57552c0,0 -4.41165,9.55463 -1.17644,17.06183c3.23521,7.50721 3.52932,2.72989 3.49665,2.68437c-0.03267,-0.04552 -2.32021,7.55273 -3.79076,2.77541c-1.47055,-4.77731 -2.79404,-14.33194 -1.76466,-17.74431c1.02938,-3.41237 3.23521,-4.77731 3.23521,-4.77731l0,0.00001z" stroke-linecap="null" stroke-linejoin="null" stroke-dasharray="null" fill="#7f0000" stroke="#965858"/>
  <path transform="rotate(-9.17534351348877 161.38928222656324,230.40426635742188) " id="d_svg_19" d="m161.90358,222.43326c0,0 -1.9203,4.69247 -0.79461,9.94804c1.1257,5.25557 1.32435,6.00636 1.30964,5.99384c-0.01471,-0.01252 -2.3029,-5.43075 -2.03803,-8.62163c0.26487,-3.19088 1.523,-7.32026 1.523,-7.32026l0,0.00001z" stroke-linecap="null" stroke-linejoin="null" stroke-dasharray="null" stroke-width="0.3" fill="#7f0000" stroke="#7f2323"/>
  <polygon stroke="#000000" id="d_svg_29" fill="#7f0000" points="206.35546875,199.05990600585938 218.73532104492188,204.0367431640625 238.766357421875,202.1357421875 238.766357421875,195.98403930664062 218.73532104492188,194.0830078125 206.35546875,199.05990600585938 " stroke-width="0" transform="rotate(-88.54969024658203 222.56091308593753,199.05987548828128) "/>
  <path id="d_svg_32" transform="rotate(176.8744659423828 222.1693420410156,156.4245452880859) " d="m220.82496,152.91618c0,0 5.01987,2.06535 2.07718,4.37855c-2.94266,2.3132 -3.46197,2.64365 -3.42352,2.63814c0.03845,-0.00551 6.01999,-2.3903 5.3276,-3.79474c-0.69239,-1.40444 -3.98126,-3.22195 -3.98126,-3.22195z" stroke-linecap="null" stroke-linejoin="null" stroke-dasharray="null" stroke-width="0.3" fill="#7f0000" stroke="#7f2323"/>
  <polygon id="d_svg_33" fill="#7f0000" points="213.20309448242188,176.7080078125 219.35528564453125,186.56703186035156 229.30972290039062,182.80120849609375 229.30972290039062,170.61477661132812 219.35528564453125,166.8489532470703 213.20309448242188,176.7080078125 " stroke-width="0" transform="rotate(-97.08348846435547 221.25640869140625,176.70799255371094) " stroke="#000000"/>
  <polygon stroke="#000000" id="d_svg_34" fill="#965858" points="197.46392822265625,177.16036987304688 211.676513671875,186.9518585205078 234.67294311523438,183.21182250976562 234.67294311523438,171.10885620117188 211.676513671875,167.3688201904297 197.46392822265625,177.16036987304688 " stroke-width="0" transform="rotate(-174.4308319091797 216.06842041015628,177.16033935546875) "/>
  <path stroke="#000000" transform="rotate(-5.432056903839111 125.56219482421811,166.18919372558574) " id="d_svg_38" d="m122.7259,166.18919l2.83629,-11.61348l2.83629,11.61348l-2.83629,11.61348l-2.83629,-11.61348z" stroke-linecap="null" stroke-linejoin="null" stroke-dasharray="null" stroke-width="0" fill="#a07070"/>
  <polygon stroke-width="0" points="221.87173461914062,205.03070068359375 217.56497192382812,220.84347534179688 210.59652709960938,214.80352783203125 210.59652709960938,195.25784301757812 217.56497192382812,189.2178955078125 221.87173461914062,205.03070068359375 " fill="#edaaaa" id="d_svg_35" stroke="#a07272"/>
  <polygon stroke="#000000" id="d_svg_40" fill="#7f0000" points="202.3719482421875,205.77398681640625 214.75180053710938,210.24578857421875 234.7828369140625,208.5377197265625 234.7828369140625,203.01031494140625 214.75180053710938,201.30218505859375 202.3719482421875,205.77398681640625 " stroke-width="0" transform="rotate(-83.04230499267578 218.577392578125,205.77398681640625) "/>
  <path transform="rotate(88.67416381835938 136.87557983398438,166.29678344726562) " id="d_svg_44" d="m126.03709,177.70427l0,-22.81499l21.67699,22.81499l-21.67699,0z" stroke-linecap="null" stroke-linejoin="null" stroke-dasharray="null" stroke-width="0" fill="#edaaaa" stroke="#f23c3c"/>
  <path transform="rotate(18.7429256439209 185.3547058105469,200.39776611328122) " id="d_svg_45" d="m177.44419,209.1281l0,-17.46067l15.82108,17.46067l-15.82108,0z" stroke-linecap="null" stroke-linejoin="null" stroke-dasharray="null" stroke-width="0" fill="#edaaaa" stroke="#f23c3c"/>
  <path stroke="#000000" transform="rotate(-164.60711669921875 125.4412841796875,156.77728271484378) " id="d_svg_2" d="m123.52781,159.83109l1.91346,-6.1076l1.91346,6.1076l-3.82692,0z" stroke-linecap="null" stroke-linejoin="null" stroke-dasharray="null" stroke-width="0" fill="#7f0000"/>
  <rect stroke="#e5e58b" id="d_svg_78" height="14.65723" width="105.70899" y="137.71582" x="116.35936" opacity="0.95" stroke-linecap="null" stroke-linejoin="null" stroke-dasharray="null" stroke-width="0" fill="#ffff56"/>
  <ellipse stroke="#ff5656" ry="4.88823" rx="47.07451" id="d_svg_43" cy="153.81177" cx="171.27551" stroke-linecap="null" stroke-linejoin="null" stroke-dasharray="null" stroke-width="0.2" fill="#3f3f3f"/>
  <ellipse ry="3.99353" rx="43.61426" cy="154.23186" cx="172.83733" stroke-linecap="null" stroke-linejoin="null" stroke-dasharray="null" stroke-width="0" fill="#543a3a" id="d_svg_53" stroke="#000000"/>
  <rect transform="rotate(6.008937835693359 202.75003051757858,145.12500000000017) " id="d_svg_79" height="8.25" width="25.5" y="141" x="190.00002" opacity="0.95" stroke-linecap="null" stroke-linejoin="null" stroke-dasharray="null" stroke-width="0" fill="#ffff00" stroke="#e5e58b"/>
  <ellipse ry="37.375" rx="41.42284" cy="113.82653" cx="170.50682" stroke-linecap="null" stroke-linejoin="null" stroke-dasharray="null" stroke-width="0" fill="#4af7f7" id="d_svg_83" opacity="0.5" stroke="#e5e58b"/>
  <ellipse stroke="#e5e58b" ry="33.51389" rx="37.79784" id="d_svg_46" cy="115.10279" cx="170.48577" stroke-linecap="null" stroke-linejoin="null" stroke-dasharray="null" stroke-width="0" fill="#ff007f"/>
  <polygon stroke="#e5e58b" id="d_svg_49" stroke-width="0" points="168.35986328125,113.07957458496094 174.15316772460938,127.67062377929688 191.79434204101562,127.98536682128906 177.73355102539062,137.31787109375 182.84320068359375,152.10342407226562 168.35986328125,143.28016662597656 153.87661743164062,152.10342407226562 158.98611450195312,137.31787109375 144.92544555664062,127.98536682128906 162.56658935546875,127.67062377929688 168.35986328125,113.07957458496094 174.15316772460938,127.67062377929688 " fill="#ff007f" transform="rotate(33.84178924560547 168.3598937988281,132.59149169921875) "/>
  <polygon transform="rotate(23.39608383178711 203.71459960937506,81.51921081542972) " id="d_svg_50" stroke-width="0" points="203.71463012695312,72.7236328125 206.25762939453125,79.30099487304688 214.00137329101562,79.44287109375 207.82931518554688,83.64976501464844 210.07220458984375,90.31480407714844 203.71463012695312,86.33746337890625 197.3570556640625,90.31480407714844 199.59991455078125,83.64976501464844 193.4278564453125,79.44287109375 201.17156982421875,79.30099487304688 203.71463012695312,72.7236328125 206.25762939453125,79.30099487304688 " fill="#ff007f" stroke="#e5e58b"/>
  <ellipse stroke="#e5e58b" ry="29.44211" rx="31.65625" id="d_svg_52" cy="116.76581" cx="169.71876" stroke-linecap="null" stroke-linejoin="null" stroke-dasharray="null" stroke-width="0" fill="#ff00ff"/>
  <ellipse stroke="#e5e58b" transform="rotate(93.09404754638672 170.394287109375,124.53268432617183) " id="d_svg_31" ry="6.75" rx="16.61662" cy="124.5327" cx="170.39429" stroke-linecap="null" stroke-linejoin="null" stroke-dasharray="null" stroke-width="0" fill="#bfbfbf"/>
  <ellipse transform="rotate(91.4148178100586 164.37435913085938,128.77078247070312) " id="d_svg_30" ry="3.65025" rx="16.81417" cy="128.77079" cx="164.37436" stroke-linecap="null" stroke-linejoin="null" stroke-dasharray="null" stroke-width="0" fill="#ff00ff" stroke="#e5e58b"/>
  <ellipse ry="3.00058" rx="11.98172" cy="130.80918" cx="173.93845" stroke-linecap="null" stroke-linejoin="null" stroke-dasharray="null" stroke-width="0" fill="#0000ff" opacity="0.3" id="d_svg_73" transform="rotate(93.20083618164062 173.93844604492188,130.8091583251953) " stroke="#e5e58b"/>
  <ellipse id="d_svg_37" transform="rotate(93.4549560546875 175.76263427734375,129.77284240722656) " ry="3.62195" rx="14.06074" cy="129.77283" cx="175.76265" stroke-linecap="null" stroke-linejoin="null" stroke-dasharray="null" stroke-width="0" fill="#ff00ff" stroke="#e5e58b"/>
  <ellipse ry="1.36652" rx="13.5" cy="128.22145" cx="170.31245" stroke-linecap="null" stroke-linejoin="null" stroke-dasharray="null" stroke-width="0" fill="#7f7f7f" id="d_svg_76" stroke="#e5e58b"/>
  <ellipse ry="6.75" rx="23.34375" cy="114.52442" cx="170.5937" stroke-linecap="null" stroke-linejoin="null" stroke-dasharray="null" stroke-width="0" fill="#7f7f7f" id="d_svg_16" opacity="0.8" stroke="#e5e58b"/>
  <ellipse ry="6.75" rx="23.34375" id="d_svg_23" cy="113.81251" cx="170.5937" stroke-linecap="null" stroke-linejoin="null" stroke-dasharray="null" stroke-width="0" fill="#bfbfbf" stroke="#e5e58b"/>
  <ellipse id="d_svg_54" ry="3.375" rx="15.56251" cy="140.90138" cx="169.93744" stroke-linecap="null" stroke-linejoin="null" stroke-dasharray="null" stroke-width="0" fill="#0000ff" opacity="0.3" stroke="#e5e58b"/>
  <ellipse stroke="#e5e58b" fill="#7f7f7f" stroke-width="0" stroke-dasharray="null" stroke-linejoin="null" stroke-linecap="null" opacity="0.3" cx="170.18591" cy="155.03933" id="d_svg_116" rx="39.27539" ry="3.10108"/>
  <ellipse stroke="#e5e58b" id="d_svg_47" ry="2.66309" rx="13.5" cy="139.20118" cx="169.74995" stroke-linecap="null" stroke-linejoin="null" stroke-dasharray="null" stroke-width="0" fill="#bfbfbf"/>
  <ellipse id="d_svg_58" ry="6.75" rx="9.84375" cy="107.06251" cx="171.71869" stroke-linecap="null" stroke-linejoin="null" stroke-dasharray="null" stroke-width="0" fill="#7f7f7f" stroke="#e5e58b"/>
  <ellipse id="d_svg_59" ry="6.75" rx="9.84375" cy="109.87501" cx="161.03119" stroke-linecap="null" stroke-linejoin="null" stroke-dasharray="null" stroke-width="0" fill="#7f7f7f" stroke="#e5e58b"/>
  <ellipse id="d_svg_60" ry="4.2583" rx="9.77564" cy="112.78419" cx="160.50385" opacity="0.5" stroke-linecap="null" stroke-linejoin="null" stroke-dasharray="null" stroke-width="0" fill="#ffffff" stroke="#e5e58b"/>
  <ellipse id="d_svg_55" ry="6.48303" rx="9.84375" cy="110.28212" cx="161.75154" stroke-linecap="null" stroke-linejoin="null" stroke-dasharray="null" stroke-width="0" fill="#bfbfbf" stroke="#e5e58b"/>
  <ellipse ry="5.86011" rx="9.84375" cy="106.98952" cx="172.07429" stroke-linecap="null" stroke-linejoin="null" stroke-dasharray="null" stroke-width="0" fill="#bfbfbf" id="d_svg_4" stroke="#e5e58b"/>
  <ellipse ry="4.97022" rx="9.59766" cy="112.60621" cx="180.43744" opacity="0.5" stroke-linecap="null" stroke-linejoin="null" stroke-dasharray="null" stroke-width="0" fill="#ffffff" id="d_svg_12" stroke="#e5e58b"/>
  <ellipse id="d_svg_62" ry="6.75" rx="9.84375" cy="110.43751" cx="180.71869" stroke-linecap="null" stroke-linejoin="null" stroke-dasharray="null" stroke-width="0" fill="#7f7f7f" stroke="#e5e58b"/>
  <ellipse ry="5.86011" rx="9.84375" cy="110.37111" cx="179.72737" stroke-linecap="null" stroke-linejoin="null" stroke-dasharray="null" stroke-width="0" fill="#bfbfbf" id="d_svg_9" stroke="#e5e58b"/>
  <ellipse ry="1.47722" rx="3.87046" cy="119.63865" cx="157.32317" stroke-linecap="null" stroke-linejoin="null" stroke-dasharray="null" stroke-width="0" fill="#7f7f7f" transform="rotate(10.81128978729248 157.32318115234386,119.63865661621087) " id="d_svg_63" stroke="#e5e58b"/>
  <ellipse ry="1.47722" rx="3.87046" cy="118.92674" cx="157.85711" stroke-linecap="null" stroke-linejoin="null" stroke-dasharray="null" stroke-width="0" fill="#bfbfbf" id="d_svg_57" transform="rotate(10.81128978729248 157.8571166992188,118.9267272949218) " stroke="#e5e58b"/>
  <ellipse ry="1.47722" rx="3.87046" cy="118.21482" cx="188.11345" stroke-linecap="null" stroke-linejoin="null" stroke-dasharray="null" stroke-width="0" fill="#7f7f7f" transform="rotate(-12.59776496887207 188.11346435546872,118.21482849121097) " id="d_svg_64" stroke="#e5e58b"/>
  <ellipse ry="1.47722" rx="3.87046" cy="117.85886" cx="187.04558" stroke-linecap="null" stroke-linejoin="null" stroke-dasharray="null" stroke-width="0" fill="#bfbfbf" transform="rotate(-6.947676658630371 187.04559326171875,117.85887145996114) " id="d_svg_65" stroke="#e5e58b"/>
  <ellipse ry="1.5" rx="13.5" id="d_svg_42" cy="127.68752" cx="170.31245" stroke-linecap="null" stroke-linejoin="null" stroke-dasharray="null" stroke-width="0" fill="#bfbfbf" stroke="#e5e58b"/>
  <ellipse fill="#3f3f3f" stroke-width="0" stroke-dasharray="null" stroke-linejoin="null" stroke-linecap="null" opacity="0.8" cx="170.07958" cy="126.77854" id="d_svg_66" rx="8.54297" ry="0.35596" stroke="#e5e58b"/>
  <rect fill="#bfbfbf" stroke-width="0" stroke-dasharray="null" stroke-linejoin="null" stroke-linecap="null" x="168.12182" y="125.17671" width="3.20361" height="1.60181" id="d_svg_67" stroke="#e5e58b"/>
  <ellipse ry="2.26428" rx="4.14844" cy="111.12587" cx="160.27497" stroke-linecap="null" stroke-linejoin="null" stroke-dasharray="null" stroke-width="0" fill="#7f7f7f" id="d_svg_68" stroke="#e5e58b"/>
  <ellipse ry="2.47522" rx="3.51562" cy="110.07118" cx="162.17341" stroke-linecap="null" stroke-linejoin="null" stroke-dasharray="null" stroke-width="0" fill="#bfbfbf" id="d_svg_69" stroke="#e5e58b"/>
  <ellipse ry="2.26428" rx="4.14844" cy="107.75087" cx="164.91559" stroke-linecap="null" stroke-linejoin="null" stroke-dasharray="null" stroke-width="0" fill="#7f7f7f" id="d_svg_70" stroke="#e5e58b"/>
  <ellipse ry="2.26428" rx="3.30469" cy="108.59462" cx="164.91559" stroke-linecap="null" stroke-linejoin="null" stroke-dasharray="null" stroke-width="0" fill="#bfbfbf" id="d_svg_71" stroke="#e5e58b"/>
  <rect fill="#b0b0f4" stroke-width="0" stroke-dasharray="null" stroke-linejoin="null" stroke-linecap="null" opacity="0.5" x="171.14746" y="126.64503" width="1.42383" height="0.31146" id="d_svg_74" stroke="#e5e58b"/>
  <rect fill="#b0b0f4" stroke-width="0" stroke-dasharray="null" stroke-linejoin="null" stroke-linecap="null" opacity="0.5" x="171.14746" y="125.97761" width="1.29034" height="0.71191" id="d_svg_75" stroke="#e5e58b"/>
  <polygon transform="rotate(104.73858642578125 124.4690856933594,129.93453979492188) " id="d_svg_56" stroke-width="0" points="124.46908569335938,126.10128784179688 125.31451416015625,128.96780395507812 127.8890380859375,129.02963256835938 125.83706665039062,130.86305236816406 126.58273315429688,133.76776123046875 124.46908569335938,132.03439331054688 122.35546875,133.76776123046875 123.10110473632812,130.86305236816406 121.04913330078125,129.02963256835938 123.62362670898438,128.96780395507812 124.46908569335938,126.10128784179688 125.31451416015625,128.96780395507812 " fill="#ff007f" stroke="#e5e58b"/>
  <polygon id="d_svg_61" transform="rotate(128.83082580566406 220.3922119140625,141.42349243164062) " stroke-width="0" points="220.3922119140625,136.85751342773438 221.53488159179688,140.27195739746094 225.01449584960938,140.34561157226562 222.24111938476562,142.52951049804688 223.24896240234375,145.98948669433594 220.3922119140625,143.92474365234375 217.53549194335938,145.98948669433594 218.54327392578125,142.52951049804688 215.7698974609375,140.34561157226562 219.24948120117188,140.27195739746094 220.3922119140625,136.85751342773438 221.53488159179688,140.27195739746094 " fill="#ff007f" stroke="#e5e58b"/>
  <polygon id="d_svg_80" transform="rotate(104.73858642578125 103.09408569335938,115.68452453613281) " stroke-width="0" points="103.09410095214844,110.22879028320312 104.23677062988281,114.30859375 107.71636962890625,114.39659118652344 104.94300842285156,117.00605773925781 105.95085144042969,121.1402587890625 103.09410095214844,118.67318725585938 100.23738098144531,121.1402587890625 101.24517822265625,117.00605773925781 98.4718017578125,114.39659118652344 101.95138549804688,114.30859375 103.09410095214844,110.22879028320312 104.23677062988281,114.30859375 " fill="#f28cbd" stroke="#e5e58b"/>
  <polygon id="d_svg_81" stroke-width="0" points="173.26043701171875,79.11271667480469 174.602294921875,81.54563903808594 178.68841552734375,81.59811401367188 175.431640625,83.15423583984375 176.61514282226562,85.61956787109375 173.26043701171875,84.14837646484375 169.90576171875,85.61956787109375 171.08926391601562,83.15423583984375 167.83245849609375,81.59811401367188 171.9185791015625,81.54563903808594 173.26043701171875,79.11271667480469 174.602294921875,81.54563903808594 " fill="#f794c2" transform="rotate(-45.09101486206055 173.26043701171872,82.36614990234374) " stroke="#e5e58b"/>
  <polygon transform="rotate(19.80002784729004 232.76464843750017,116.05374145507812) " stroke-width="0" points="232.76467895507812,95.17913818359375 235.42108154296875,110.78921508789062 243.51010131835938,111.12591552734375 237.06283569335938,121.11019897460938 239.40573120117188,136.92835998535156 232.76467895507812,127.48890686035156 226.12362670898438,136.92835998535156 228.46649169921875,121.11019897460938 222.01922607421875,111.12591552734375 230.10824584960938,110.78921508789062 232.76467895507812,95.17913818359375 235.42108154296875,110.78921508789062 " fill="#ff5656" id="d_svg_82" stroke="#e5e58b"/>
  <polygon transform="rotate(19.80002784729004 231.2646484375001,116.05374145507812) " stroke-width="0" points="231.26467895507812,95.17913818359375 233.92108154296875,110.78921508789062 242.01010131835938,111.12591552734375 235.56283569335938,121.11019897460938 237.90573120117188,136.92835998535156 231.26467895507812,127.48890686035156 224.62362670898438,136.92835998535156 226.96649169921875,121.11019897460938 220.51922607421875,111.12591552734375 228.60824584960938,110.78921508789062 231.26467895507812,95.17913818359375 233.92108154296875,110.78921508789062 " fill="#f99dca" id="d_svg_51" stroke="#e5e58b"/>
  <ellipse stroke="#fcfced" id="d_svg_100" ry="1.875" rx="7.875" cy="230.92498" cx="144.77503" opacity="0.1" stroke-linecap="null" stroke-linejoin="null" stroke-dasharray="null" stroke-width="5" fill="#ffffff"/>
  <polygon stroke="#000000" id="d_svg_102" fill="#965858" points="197.56185913085938,163.3322296142578 211.77444458007812,171.2246856689453 234.7708740234375,168.21002197265625 234.7708740234375,158.45437622070312 211.77444458007812,155.43972778320312 197.56185913085938,163.3322296142578 " stroke-width="0" transform="rotate(179.45281982421875 216.16635131835935,163.33221435546872) "/>
  <polygon stroke="#000000" id="d_svg_98" fill="#8c1010" points="197.63507080078125,169.14865112304688 212.38601684570312,178.07687377929688 236.25341796875,174.6665802001953 236.25341796875,163.63064575195312 212.38601684570312,160.22036743164062 197.63507080078125,169.14865112304688 " stroke-width="0" transform="rotate(-177.0822296142578 216.94424438476562,169.14862060546875) "/>
  <ellipse stroke="#7f0000" ry="10.97754" rx="5.29395" id="d_svg_39" cy="195.16112" cx="217.2859" stroke-linecap="null" stroke-linejoin="null" stroke-dasharray="null" fill="#edaaaa"/>
  <ellipse stroke="#7f0000" transform="rotate(2.5052490234375 216.96514892578006,199.18447875976588) " stroke-width="0.5" id="d_svg_3" ry="8.00914" rx="3.65559" cy="199.18449" cx="216.96514" stroke-linecap="null" stroke-linejoin="null" stroke-dasharray="null" fill="#edaaaa"/>
  <ellipse stroke="#7f0000" id="d_svg_6" transform="rotate(10.074833869934082 215.13522338867185,200.31808471679685) " stroke-width="0" ry="5.77183" rx="3.01457" cy="200.31809" cx="215.1352" stroke-linecap="null" stroke-linejoin="null" stroke-dasharray="null" fill="#edaaaa"/>
  <path stroke="#000000" fill="#7f0000" stroke-width="0" stroke-dasharray="null" stroke-linejoin="null" stroke-linecap="null" d="m142.90848,175.00367c-11.34813,0.68139 -22.69625,-0.81767 -24.73637,5.4511c-2.04011,6.26877 -1.02006,1.49905 -1.02006,1.41728c0,-0.08177 1.7851,-6.73212 1.7851,-6.81388c0,-0.08177 0.76504,0.35432 3.95272,-0.59962c3.18768,-0.95395 7.65042,-0.54512 7.65042,-0.62688c0,-0.08177 7.77793,0.62688 7.77793,0.54512c0,-0.08177 4.59025,0.62688 4.59025,0.62688l0.00001,0l0,-0.00001l0,0.00001z" id="d_svg_21" transform="rotate(10.332831382751465 129.90274047851574,178.74900817871097) "/>
  <path stroke="#7f2323" id="d_svg_104" transform="rotate(-134.8605499267578 122.06423950195312,157.916748046875) " d="m121.41669,155.39407c0,0 2.41787,1.48507 1.00049,3.14836c-1.41736,1.66329 -1.66749,1.9009 -1.64897,1.89693c0.01852,-0.00396 2.89958,-1.71873 2.56609,-2.72858c-0.3335,-1.00985 -1.91761,-2.31672 -1.91761,-2.31672l0,0.00001z" stroke-linecap="null" stroke-linejoin="null" stroke-dasharray="null" stroke-width="0.3" fill="#7f0000"/>
 </g>
</svg>
