<svg width="640.0000000000001" height="479.99999999999994" xmlns="http://www.w3.org/2000/svg" xmlns:svg="http://www.w3.org/2000/svg">
 <!-- Created with SVG-edit - http://svg-edit.googlecode.com/ -->
 <g stroke="null">
  <title>Layer 1</title>
  <rect fill="#00ffff" stroke-width="null" stroke-dasharray="null" stroke-linejoin="null" stroke-linecap="null" x="0.50001" y="0.59999" width="639.00002" height="87" id="svg_28" stroke="#000000"/>
  <rect stroke="#000000" fill="#007f00" stroke-width="null" stroke-dasharray="null" stroke-linejoin="null" stroke-linecap="null" x="0.59998" y="72.93333" width="638.75002" height="91.33333" id="svg_26"/>
  <rect fill="#00ff00" stroke-width="null" stroke-dasharray="null" stroke-linejoin="null" stroke-linecap="null" x="-0.06669" y="158.85" width="639.00004" height="84.08333" id="svg_25" stroke="#000000"/>
  <rect fill="#aa3b3b" stroke-width="null" stroke-dasharray="null" stroke-linejoin="null" stroke-linecap="null" x="0.26669" y="242.93333" width="638.45829" height="73.33333" id="svg_24" stroke="#000000"/>
  <rect fill="#007fff" stroke-width="null" stroke-dasharray="null" stroke-linejoin="null" stroke-linecap="null" x="0.26667" y="314.93334" width="639.58334" height="40" id="svg_27" stroke="#000000"/>
  <rect fill="#ff7f00" stroke-width="null" stroke-dasharray="null" stroke-linejoin="null" stroke-linecap="null" opacity="0.5" x="0.8" y="410.93334" width="638.45829" height="68" id="svg_23" stroke="#000000"/>
  <path fill="#ff7f00" stroke="#000000" stroke-width="5" stroke-dasharray="null" stroke-linejoin="null" stroke-linecap="null" d="m324.6,249.4c-147,-83 -99,110 -99.6,109.6c-0.6,-0.4 4.6,39.4 4,39c-0.6,-0.4 19.6,-10.6 19,-11c-0.6,-0.4 -83.4,114.4 -2.4,-12.6l79,-125z" id="svg_15" transform="rotate(105.96223449707031 267.3410034179687,331.4366760253907) "/>
  <rect fill="#6ddbdb" stroke-dasharray="null" stroke-linejoin="null" stroke-linecap="null" x="0.80832" y="353.4" width="637.91665" height="59" id="svg_14" stroke="#000000"/>
  <path fill="#ff7f00" stroke-width="5" stroke-dasharray="null" stroke-linejoin="null" stroke-linecap="null" d="m373.25199,372.38112l-134.57144,-194.99999l-134.57144,194.99999l269.14289,0l-0.00001,0z" id="svg_11" stroke="#000000"/>
  <ellipse fill="#ff7f00" stroke-width="5" stroke-dasharray="null" stroke-linejoin="null" stroke-linecap="null" cx="247.6" cy="154.4" id="svg_5" rx="104" ry="73" stroke="#000000"/>
  <path fill="#ffffff" stroke-width="5" stroke-dasharray="null" stroke-linejoin="null" stroke-linecap="null" d="m175.25197,271.3811l57.92857,98.00002l57.92857,-98.00002l-115.85714,0z" id="svg_13" stroke="#000000"/>
  <path fill="#e0e000" stroke-width="5" stroke-dasharray="null" stroke-linejoin="null" stroke-linecap="null" d="m221.45034,220.4c-43.17335,88.1217 -164.92219,115.09772 -43.17335,88.1217c121.74884,-26.97603 88.9371,-87.22249 88.41902,-87.58218c-0.51808,-0.35968 -45.24567,-0.53952 -45.24567,-0.53952z" id="svg_10" stroke="#000000"/>
  <path fill="#ffff00" stroke-width="5" stroke-dasharray="null" stroke-linejoin="null" stroke-linecap="null" d="m217.6,204.4c-50,98 -191,128 -50,98c141,-30 103,-97 102.4,-97.4c-0.6,-0.4 -52.4,-0.6 -52.4,-0.6z" id="svg_6" stroke="#000000"/>
  <ellipse fill="#000000" stroke-width="5" stroke-dasharray="null" stroke-linejoin="null" stroke-linecap="null" cx="284.6" cy="192.4" id="svg_7" rx="4" ry="8" stroke="#000000"/>
  <ellipse fill="#000000" stroke-width="5" stroke-dasharray="null" stroke-linejoin="null" stroke-linecap="null" cx="205.1" cy="193.9" rx="4.5" ry="8.5" id="svg_9" stroke="#000000"/>
  <path fill="#88e8e8" stroke-width="null" stroke-dasharray="null" stroke-linejoin="null" stroke-linecap="null" d="m452.79998,361.89565c0,0 -150.44889,67.15404 -365.05979,14.92311c-214.61091,-52.2309 365.05979,-14.92311 365.05979,-14.92311z" id="svg_22" stroke="#000000"/>
  <path fill="#88e8e8" stroke-width="null" stroke-dasharray="null" stroke-linejoin="null" stroke-linecap="null" d="m392.8,363.37089c0,0 -118.85666,54.02017 -288.40219,12.00447c-169.54554,-42.01567 288.40219,-12.00447 288.40219,-12.00447z" id="svg_21" stroke="#000000"/>
  <path fill="#6ddbdb" stroke-width="null" stroke-dasharray="null" stroke-linejoin="null" stroke-linecap="null" d="m366.13333,359.4034c0,0 -100.87339,33.38132 -244.76631,7.41807c-143.89293,-25.96324 244.76631,-7.41807 244.76631,-7.41807z" id="svg_20" stroke="#000000"/>
  <path fill="#6ddbdb" stroke-width="null" stroke-dasharray="null" stroke-linejoin="null" stroke-linecap="null" d="m338.13333,356.15728c0,0 -83.37615,16.49496 -202.30977,3.66555c-118.93362,-12.82941 202.30977,-3.66555 202.30977,-3.66555z" id="svg_19" stroke="#000000" transform="rotate(-0.5039691925048828 223.7708435058661,358.847351074216) "/>
 </g>
</svg>
