<svg width="800" height="459.9999999999999" xmlns="http://www.w3.org/2000/svg" xmlns:svg="http://www.w3.org/2000/svg" xmlns:xlink="http://www.w3.org/1999/xlink">
 <!-- Created with SVG-edit - http://svg-edit.googlecode.com/ -->
 <defs>
  <linearGradient id="svg_14" x1="0" y1="0" x2="1" y2="0">
   <stop stop-color="0" stop-opacity="0" offset="0"/>
   <stop stop-color="#010175" offset="0.1403"/>
   <stop stop-color="0" stop-opacity="0" offset="1"/>
   <stop stop-color="0" stop-opacity="0" offset="1"/>
  </linearGradient>
  <linearGradient id="svg_135" x1="0" y1="1" x2="1" y2="1">
   <stop stop-color="0" stop-opacity="0" offset="0"/>
   <stop stop-color="#010175" offset="0.1403"/>
   <stop stop-color="0" stop-opacity="0" offset="1"/>
   <stop stop-color="0" stop-opacity="0" offset="1"/>
  </linearGradient>
 </defs>
 <g>
  <title>Layer 1</title>
  <rect transform="rotate(-30.44624900817871 672.6434936523438,102.4583129882812) " fill="url(#svg_14)" stroke-width="0" stroke-dasharray="null" stroke-linejoin="null" stroke-linecap="null" x="480.64353" y="-102.87501" width="384" height="410.66666" id="svg_5" stroke="#000000"/>
  <image x="1.12154" y="-23.98958" width="457.99997" height="110" id="svg_1" xlink:href="http://res.cloudinary.com/kboyle/image/upload/v1533104512/Screen_Shot_2018-07-31_at_11.18.52_PM.png"/>
  <image x="21.12154" y="-3.98958" width="457.99997" height="110" xlink:href="http://res.cloudinary.com/kboyle/image/upload/v1533104512/Screen_Shot_2018-07-31_at_11.18.52_PM.png" id="svg_2"/>
  <image x="61.12154" y="36.01042" width="457.99997" height="110" xlink:href="http://res.cloudinary.com/kboyle/image/upload/v1533104512/Screen_Shot_2018-07-31_at_11.18.52_PM.png" id="svg_4"/>
  <image x="101.12154" y="76.01042" width="457.99997" height="110" xlink:href="http://res.cloudinary.com/kboyle/image/upload/v1533104512/Screen_Shot_2018-07-31_at_11.18.52_PM.png" id="svg_6"/>
  <image x="141.12154" y="116.01042" width="457.99997" height="110" xlink:href="http://res.cloudinary.com/kboyle/image/upload/v1533104512/Screen_Shot_2018-07-31_at_11.18.52_PM.png" id="svg_8"/>
  <image x="181.12154" y="156.01042" width="457.99997" height="110" xlink:href="http://res.cloudinary.com/kboyle/image/upload/v1533104512/Screen_Shot_2018-07-31_at_11.18.52_PM.png" id="svg_10"/>
  <image x="16.12154" y="202.01042" width="457.99997" height="110" xlink:href="http://res.cloudinary.com/kboyle/image/upload/v1533104512/Screen_Shot_2018-07-31_at_11.18.52_PM.png" id="svg_11"/>
  <image x="230.12154" y="201.01042" width="457.99997" height="110" xlink:href="http://res.cloudinary.com/kboyle/image/upload/v1533104512/Screen_Shot_2018-07-31_at_11.18.52_PM.png" id="svg_12"/>
  <image x="272.12154" y="238.01042" width="457.99997" height="110" xlink:href="http://res.cloudinary.com/kboyle/image/upload/v1533104512/Screen_Shot_2018-07-31_at_11.18.52_PM.png" id="svg_15"/>
  <image x="377.78821" y="311.01042" width="457.99997" height="110" xlink:href="http://res.cloudinary.com/kboyle/image/upload/v1533104512/Screen_Shot_2018-07-31_at_11.18.52_PM.png" id="svg_9"/>
  <image x="359.12154" y="279.01042" width="457.99997" height="110" xlink:href="http://res.cloudinary.com/kboyle/image/upload/v1533104512/Screen_Shot_2018-07-31_at_11.18.52_PM.png" id="svg_17"/>
  <image x="401.12154" y="318.01042" width="457.99997" height="110" xlink:href="http://res.cloudinary.com/kboyle/image/upload/v1533104512/Screen_Shot_2018-07-31_at_11.18.52_PM.png" id="svg_18"/>
  <image x="-206.87846" y="171.01042" width="457.99997" height="110" xlink:href="http://res.cloudinary.com/kboyle/image/upload/v1533104512/Screen_Shot_2018-07-31_at_11.18.52_PM.png" id="svg_19" transform="rotate(91.30196380615234 22.12152099609376,226.01040649414062) "/>
  <image x="-175.87846" y="207.01042" width="457.99997" height="110" xlink:href="http://res.cloudinary.com/kboyle/image/upload/v1533104512/Screen_Shot_2018-07-31_at_11.18.52_PM.png" transform="rotate(91.30196380615234 53.12152099609376,262.0104064941406) " id="svg_22"/>
  <image x="-141.54513" y="233.67709" width="457.99997" height="110" xlink:href="http://res.cloudinary.com/kboyle/image/upload/v1533104512/Screen_Shot_2018-07-31_at_11.18.52_PM.png" transform="rotate(91.30196380615234 87.45486450195314,288.6770935058594) " id="svg_24"/>
  <image id="svg_126" x="-300.87846" y="205.17709" width="457.99997" height="66" xlink:href="http://res.cloudinary.com/kboyle/image/upload/v1533104512/Screen_Shot_2018-07-31_at_11.18.52_PM.png"/>
  <image x="-120.21179" y="269.67709" width="457.99997" height="110" xlink:href="http://res.cloudinary.com/kboyle/image/upload/v1533104512/Screen_Shot_2018-07-31_at_11.18.52_PM.png" transform="rotate(91.30196380615234 108.78819274902344,324.6770935058594) " id="svg_26" opacity="0.75"/>
  <image x="-81.54513" y="317.67709" width="457.99997" height="110" xlink:href="http://res.cloudinary.com/kboyle/image/upload/v1533104512/Screen_Shot_2018-07-31_at_11.18.52_PM.png" transform="rotate(91.30196380615234 147.45484924316406,372.67706298828125) " id="svg_27"/>
  <image x="-46.87846" y="331.01042" width="457.99997" height="110" xlink:href="http://res.cloudinary.com/kboyle/image/upload/v1533104512/Screen_Shot_2018-07-31_at_11.18.52_PM.png" transform="rotate(91.30196380615234 182.12152099609378,386.0104064941406) " id="svg_29"/>
  <image x="-26.87846" y="351.01042" width="457.99997" height="110" xlink:href="http://res.cloudinary.com/kboyle/image/upload/v1533104512/Screen_Shot_2018-07-31_at_11.18.52_PM.png" transform="rotate(91.30196380615234 202.12152099609375,406.0104064941407) " id="svg_30"/>
  <image x="-6.87846" y="371.01042" width="457.99997" height="110" xlink:href="http://res.cloudinary.com/kboyle/image/upload/v1533104512/Screen_Shot_2018-07-31_at_11.18.52_PM.png" transform="rotate(91.30196380615234 222.12152099609375,426.0104064941406) " id="svg_31"/>
  <image x="33.12154" y="411.01042" width="457.99997" height="110" xlink:href="http://res.cloudinary.com/kboyle/image/upload/v1533104512/Screen_Shot_2018-07-31_at_11.18.52_PM.png" transform="rotate(91.30196380615234 262.12152099609375,466.0104064941407) " id="svg_33"/>
  <image x="53.12154" y="431.01042" width="457.99997" height="110" xlink:href="http://res.cloudinary.com/kboyle/image/upload/v1533104512/Screen_Shot_2018-07-31_at_11.18.52_PM.png" transform="rotate(91.30196380615234 282.1215209960938,486.01040649414057) " id="svg_34"/>
  <image x="73.12154" y="451.01042" width="457.99997" height="110" xlink:href="http://res.cloudinary.com/kboyle/image/upload/v1533104512/Screen_Shot_2018-07-31_at_11.18.52_PM.png" transform="rotate(91.30196380615234 302.12152099609375,506.0104064941407) " id="svg_35"/>
  <rect stroke="#000000" opacity="0.45" id="svg_136" transform="rotate(-9.199971199035645 405.37164306640653,149.1630249023439) " height="321.4788" width="235.46676" y="-11.57637" x="287.63825" stroke-linecap="null" stroke-linejoin="null" stroke-dasharray="null" stroke-width="0" fill="url(#svg_135)"/>
  <ellipse fill="#002c59" stroke-width="0" stroke-dasharray="null" stroke-linejoin="null" stroke-linecap="null" cx="242.01041" cy="424.7882" id="svg_63" rx="156.00001" ry="158" stroke="#000000"/>
  <rect fill="#bc1212" stroke-width="0" stroke-dasharray="null" stroke-linejoin="null" stroke-linecap="null" x="247.01042" y="343.7882" width="18" height="42" id="svg_56" stroke="#000000"/>
  <image x="-1109.35993" y="-21.58217" width="457.99997" height="110" xlink:href="http://res.cloudinary.com/kboyle/image/upload/v1533104512/Screen_Shot_2018-07-31_at_11.18.52_PM.png" transform="rotate(89.84063720703125 -880.3599853515625,33.41783142089839) " id="svg_36"/>
  <ellipse fill="#bc1212" stroke-width="0" stroke-dasharray="null" stroke-linejoin="null" stroke-linecap="null" cx="257.51041" cy="196.7882" id="svg_45" rx="114.49999" ry="149" stroke="#000000"/>
  <ellipse fill="#ffffff" stroke-width="0" stroke-dasharray="null" stroke-linejoin="null" stroke-linecap="null" cx="240.01042" cy="148.7882" id="svg_46" rx="43" ry="53" stroke="#000000"/>
  <ellipse fill="#ffffff" stroke-width="0" stroke-dasharray="null" stroke-linejoin="null" stroke-linecap="null" cx="337.01042" cy="140.7882" rx="38" ry="53" id="svg_47" stroke="#000000"/>
  <ellipse fill="#000000" stroke="#000000" stroke-width="0" stroke-dasharray="null" stroke-linejoin="null" stroke-linecap="null" cx="248.01042" cy="123.7882" id="svg_48" rx="17" ry="18"/>
  <ellipse fill="#000000" stroke-width="0" stroke-dasharray="null" stroke-linejoin="null" stroke-linecap="null" cx="342.01042" cy="109.2882" rx="11" ry="10.5" id="svg_49" stroke="#000000"/>
  <ellipse fill="#111111" stroke-width="0" stroke-dasharray="null" stroke-linejoin="null" stroke-linecap="null" cx="287.01042" cy="275.7882" id="svg_50" rx="66" ry="52" stroke="#000000"/>
  <rect fill="#ffffff" stroke-width="0" stroke-dasharray="null" stroke-linejoin="null" stroke-linecap="null" x="284.01041" y="225.78821" width="10" height="14" id="svg_51" stroke="#000000"/>
  <rect fill="#ffffff" stroke-width="0" stroke-dasharray="null" stroke-linejoin="null" stroke-linecap="null" x="299.01041" y="226.7882" width="11" height="16" id="svg_52" stroke="#000000"/>
  <rect id="svg_137" stroke="#000000" opacity="0.15" transform="rotate(-3.8309545516967773 -77.52998352050795,147.38406372070315) " height="321.4788" width="202.1235" y="-13.35533" x="-178.59173" stroke-linecap="null" stroke-linejoin="null" stroke-dasharray="null" stroke-width="0" fill="url(#svg_135)"/>
  <rect fill="#ffffff" stroke-width="0" stroke-dasharray="null" stroke-linejoin="null" stroke-linecap="null" x="269.01041" y="226.7882" width="11" height="16" stroke="#000000" id="svg_53"/>
  <rect fill="#ffffff" stroke-width="0" stroke-dasharray="null" stroke-linejoin="null" stroke-linecap="null" x="268.01041" y="306.7882" width="11" height="16" stroke="#000000" id="svg_54"/>
  <rect stroke="#000000" id="svg_138" opacity="0.2" transform="rotate(-27.263290405273438 452.0627441406251,124.80921936035152) " height="487.85596" width="444.9835" y="-119.11877" x="229.57101" stroke-linecap="null" stroke-linejoin="null" stroke-dasharray="null" stroke-width="0" fill="url(#svg_135)"/>
  <rect fill="#ffffff" stroke-width="0" stroke-dasharray="null" stroke-linejoin="null" stroke-linecap="null" x="289.01041" y="307.7882" width="11" height="16" stroke="#000000" id="svg_55"/>
  <ellipse fill="#c9c988" stroke-width="0" stroke-dasharray="null" stroke-linejoin="null" stroke-linecap="null" cx="325.56852" cy="270.02454" rx="10.07434" ry="7.92254" stroke="#000000" id="svg_114"/>
  <ellipse fill="#ffff00" stroke-width="0" stroke-dasharray="null" stroke-linejoin="null" stroke-linecap="null" cx="325.42357" cy="274.13562" id="svg_57" rx="10" ry="10.65258" stroke="#000000"/>
  <ellipse fill="#007fff" stroke="#000000" stroke-width="0" stroke-dasharray="null" stroke-linejoin="null" stroke-linecap="null" cx="258.01042" cy="396.7882" id="svg_64" rx="83" ry="20"/>
  <ellipse fill="#bc1212" stroke-width="0" stroke-dasharray="null" stroke-linejoin="null" stroke-linecap="null" cx="255.01042" cy="382.2882" id="svg_65" rx="12" ry="9.5" stroke="#000000"/>
  <ellipse fill="#002c59" stroke-width="0" stroke-dasharray="null" stroke-linejoin="null" stroke-linecap="null" cx="-17.98959" cy="427.7882" rx="110.00001" ry="158" id="svg_66" stroke="#000000"/>
  <ellipse fill="#002c59" stroke-width="0" stroke-dasharray="null" stroke-linejoin="null" stroke-linecap="null" cx="499.32682" cy="426.7882" rx="110.00001" ry="158" stroke="#000000" id="svg_67"/>
  <rect fill="#007fff" stroke-width="0" stroke-dasharray="null" stroke-linejoin="null" stroke-linecap="null" x="181.01048" y="398.7882" width="153.99999" height="51" id="svg_68" stroke="#000000"/>
  <ellipse fill="#002c59" stroke-width="0" stroke-dasharray="null" stroke-linejoin="null" stroke-linecap="null" cx="706.51041" cy="410.7882" rx="101.50001" ry="158" id="svg_3" stroke="#000000"/>
  <path fill="#006ddb" stroke-width="0" stroke-dasharray="null" stroke-linejoin="null" stroke-linecap="null" d="m146.08013,392.25885l29,0l0,0c16.01626,0 29,10.05396 29,22.45614c0,12.40219 -12.98374,22.45614 -29,22.45614l-29,0l0,-44.91228z" id="svg_16" transform="rotate(-72.07764434814453 175.0801239013671,414.71499633789057) " stroke="#000000"/>
  <path fill="#007fff" stroke-width="0" stroke-dasharray="null" stroke-linejoin="null" stroke-linecap="null" d="m143.81686,393.90554l29,0l0,0c16.01626,0 29,8.98899 29,20.07745c0,11.08848 -12.98374,20.07745 -29,20.07745l-29,0l0,-40.15491l0,0.00001z" transform="rotate(-72.07764434814453 172.81686401367185,413.9830017089844) " id="svg_20" stroke="#000000"/>
  <path fill="#006ddb" stroke-width="0" stroke-dasharray="null" stroke-linejoin="null" stroke-linecap="null" d="m305.08013,386.25885l29,0l0,0c16.01626,0 29,10.05396 29,22.45614c0,12.40219 -12.98374,22.45614 -29,22.45614l-29,0l0,-44.91228z" transform="rotate(-151.0762176513672 334.08013916015625,408.7149963378907) " stroke="#000000" id="svg_23"/>
  <path fill="#007fff" stroke-width="0" stroke-dasharray="null" stroke-linejoin="null" stroke-linecap="null" d="m305.81686,391.90554l29,0l0,0c16.01626,0 29,8.98899 29,20.07746c0,11.08848 -12.98374,20.07745 -29,20.07745l-29,0l0,-40.15491z" transform="rotate(-144.8565673828125 334.8168640136719,411.9830017089844) " stroke="#000000" id="svg_21"/>
  <rect fill="#bc1212" stroke-width="0" stroke-dasharray="null" stroke-linejoin="null" stroke-linecap="null" x="371.31182" y="418.38457" width="12.8681" height="41.96234" id="svg_25" transform="rotate(-58.7284049987793 377.7458801269531,439.36572265624994) " stroke="#bc1212"/>
  <rect fill="#bc1212" stroke-width="0" stroke-dasharray="null" stroke-linejoin="null" stroke-linecap="null" x="400.34878" y="389.21474" width="12.89271" height="63.41468" transform="rotate(30.393266677856445 406.79513549804693,420.92205810546864) " id="svg_28" stroke="#bc1212"/>
  <rect fill="#ff0000" stroke-width="0" stroke-dasharray="null" stroke-linejoin="null" stroke-linecap="null" x="73.5084" y="413.05197" width="85.28951" height="42.2535" id="svg_38" stroke="#000000"/>
  <ellipse fill="#ffff00" stroke-width="0" stroke-dasharray="null" stroke-linejoin="null" stroke-linecap="null" cx="84.91844" cy="408.38923" id="svg_39" rx="7.3693" ry="6.42331" stroke="#000000"/>
  <ellipse fill="#ffff00" stroke="#000000" stroke-width="0" stroke-dasharray="null" stroke-linejoin="null" stroke-linecap="null" cx="107.9372" cy="398.38061" rx="8.6072" ry="7.04225" id="svg_40"/>
  <ellipse fill="#ffff00" stroke="#000000" stroke-width="0" stroke-dasharray="null" stroke-linejoin="null" stroke-linecap="null" cx="104.97542" cy="410.35611" rx="8.6072" ry="7.04225" id="svg_41"/>
  <ellipse fill="#ffff00" stroke="#000000" stroke-width="0" stroke-dasharray="null" stroke-linejoin="null" stroke-linecap="null" cx="120.76547" cy="401.43409" rx="8.6072" ry="7.04225" id="svg_42"/>
  <ellipse fill="#ffff00" stroke="#000000" stroke-width="0" stroke-dasharray="null" stroke-linejoin="null" stroke-linecap="null" cx="139.2361" cy="396.03319" rx="8.6072" ry="7.04225" id="svg_69"/>
  <ellipse fill="#ffff00" stroke="#000000" stroke-width="0" stroke-dasharray="null" stroke-linejoin="null" stroke-linecap="null" cx="128.28149" cy="412.46512" rx="8.6072" ry="7.04225" id="svg_72"/>
  <ellipse fill="#c4c433" stroke-width="0" stroke-dasharray="null" stroke-linejoin="null" stroke-linecap="null" cx="147.05166" cy="404.97201" rx="7.3693" ry="3.94751" id="svg_73" stroke="#000000"/>
  <ellipse fill="#e0e076" stroke="#000000" stroke-width="0" stroke-dasharray="null" stroke-linejoin="null" stroke-linecap="null" cx="94.52513" cy="410.55478" rx="8.6072" ry="7.04225" id="svg_74"/>
  <ellipse fill="#c4c433" stroke-width="0" stroke-dasharray="null" stroke-linejoin="null" stroke-linecap="null" cx="99.08701" cy="408.34949" rx="6.50278" ry="5.68057" id="svg_75" stroke="#000000"/>
  <ellipse fill="#c4c433" stroke-width="0" stroke-dasharray="null" stroke-linejoin="null" stroke-linecap="null" cx="112.62745" cy="406.73564" rx="6.2552" ry="4.44267" id="svg_76" stroke="#000000"/>
  <ellipse fill="#ffffaa" stroke-width="0" stroke-dasharray="null" stroke-linejoin="null" stroke-linecap="null" cx="87.30101" cy="402.24865" rx="6.75035" ry="5.43299" id="svg_77" stroke="#000000"/>
  <ellipse fill="#ffffaa" stroke-width="0" stroke-dasharray="null" stroke-linejoin="null" stroke-linecap="null" cx="126.88465" cy="398.58845" rx="6.87414" ry="6.05194" id="svg_78" stroke="#000000"/>
  <ellipse fill="#ffffaa" stroke="#000000" stroke-width="0" stroke-dasharray="null" stroke-linejoin="null" stroke-linecap="null" cx="99.33" cy="395.25072" rx="8.6072" ry="7.04225" id="svg_79"/>
  <ellipse fill="#ffffaa" stroke-width="0" stroke-dasharray="null" stroke-linejoin="null" stroke-linecap="null" cx="115.80166" cy="411.63832" rx="5.88383" ry="6.17573" id="svg_80" stroke="#000000"/>
  <ellipse fill="#c9c988" stroke-width="0" stroke-dasharray="null" stroke-linejoin="null" stroke-linecap="null" cx="123.39715" cy="401.18651" rx="8.6072" ry="7.04225" id="svg_81" stroke="#000000"/>
  <ellipse fill="#c9c988" stroke="#000000" stroke-width="0" stroke-dasharray="null" stroke-linejoin="null" stroke-linecap="null" cx="136.14595" cy="406.89917" rx="8.6072" ry="7.04225" id="svg_82"/>
  <ellipse fill="#c9c988" stroke="#000000" stroke-width="0" stroke-dasharray="null" stroke-linejoin="null" stroke-linecap="null" cx="118.10934" cy="388.99094" rx="8.6072" ry="7.04225" id="svg_83"/>
  <ellipse fill="#ffff00" stroke="#000000" stroke-width="0" stroke-dasharray="null" stroke-linejoin="null" stroke-linecap="null" cx="109.50214" cy="388.99094" rx="8.6072" ry="7.04225" id="svg_84"/>
  <ellipse fill="#ffff00" stroke-width="0" stroke-dasharray="null" stroke-linejoin="null" stroke-linecap="null" cx="142.10466" cy="409.93584" rx="6.99793" ry="5.43299" id="svg_85" stroke="#000000"/>
  <ellipse fill="#ffff00" stroke="#000000" stroke-width="0" stroke-dasharray="null" stroke-linejoin="null" stroke-linecap="null" cx="94.91331" cy="403.16714" rx="8.6072" ry="7.04225" id="svg_86"/>
  <rect fill="#ffffff" stroke-width="0" stroke-dasharray="null" stroke-linejoin="null" stroke-linecap="null" x="78.20324" y="420.68108" width="13.79108" height="30.90767" id="svg_87" stroke="#000000"/>
  <rect fill="#ffffff" stroke-width="0" stroke-dasharray="null" stroke-linejoin="null" stroke-linecap="null" x="97.91177" y="420.04532" width="16.43192" height="30.46753" id="svg_88" stroke="#000000"/>
  <rect fill="#ffffff" stroke-width="0" stroke-dasharray="null" stroke-linejoin="null" stroke-linecap="null" x="120.06552" y="421.46355" width="15.55164" height="33.54851" id="svg_89" stroke="#000000"/>
  <rect fill="#ffffff" stroke-width="0" stroke-dasharray="null" stroke-linejoin="null" stroke-linecap="null" x="139.13286" y="421.79501" width="16.43192" height="34.4288" id="svg_90" stroke="#000000"/>
  <ellipse fill="#ffff00" stroke="#000000" stroke-width="0" stroke-dasharray="null" stroke-linejoin="null" stroke-linecap="null" cx="123.6325" cy="396.4825" rx="8.6072" ry="7.04225" id="svg_91"/>
  <rect fill="#7f7f7f" stroke-width="0" x="-12.68061" y="451.08328" width="682.66667" height="419.99998" id="svg_43" stroke="#000000"/>
  <ellipse fill="#ffff00" stroke-width="0" stroke-dasharray="null" stroke-linejoin="null" stroke-linecap="null" cx="142.57689" cy="405.30824" rx="7.3693" ry="6.42331" stroke="#000000" id="svg_92"/>
  <ellipse fill="#e0e076" stroke="#000000" stroke-width="0" stroke-dasharray="null" stroke-linejoin="null" stroke-linecap="null" cx="152.18358" cy="407.4738" rx="8.6072" ry="7.04225" id="svg_93"/>
  <ellipse fill="#c4c433" stroke-width="0" stroke-dasharray="null" stroke-linejoin="null" stroke-linecap="null" cx="156.74546" cy="405.2685" rx="6.50278" ry="5.68057" stroke="#000000" id="svg_94"/>
  <rect id="svg_134" transform="rotate(-5.739368438720703 7.87068939208935,139.92514038085935) " height="690.41625" width="443.99391" y="-205.28298" x="-214.12628" stroke-linecap="null" stroke-linejoin="null" stroke-dasharray="null" stroke-width="0" fill="url(#svg_135)" stroke="#000000"/>
  <ellipse fill="#ffffaa" stroke-width="0" stroke-dasharray="null" stroke-linejoin="null" stroke-linecap="null" cx="144.95946" cy="399.16766" rx="6.75035" ry="5.43299" stroke="#000000" id="svg_95"/>
  <ellipse fill="#ffff00" stroke="#000000" stroke-width="0" stroke-dasharray="null" stroke-linejoin="null" stroke-linecap="null" cx="152.57176" cy="400.08616" rx="8.6072" ry="7.04225" id="svg_96"/>
  <ellipse fill="#ffff00" stroke-width="0" stroke-dasharray="null" stroke-linejoin="null" stroke-linecap="null" cx="132.01351" cy="391.66388" rx="7.3693" ry="6.42331" stroke="#000000" id="svg_97"/>
  <ellipse fill="#e0e076" stroke="#000000" stroke-width="0" stroke-dasharray="null" stroke-linejoin="null" stroke-linecap="null" cx="141.6202" cy="393.82943" rx="8.6072" ry="7.04225" id="svg_98"/>
  <ellipse fill="#c4c433" stroke-width="0" stroke-dasharray="null" stroke-linejoin="null" stroke-linecap="null" cx="146.18208" cy="391.62413" rx="6.50278" ry="5.68057" stroke="#000000" id="svg_99"/>
  <ellipse fill="#ffffaa" stroke-width="0" stroke-dasharray="null" stroke-linejoin="null" stroke-linecap="null" cx="134.39608" cy="385.52329" rx="6.75035" ry="5.43299" stroke="#000000" id="svg_100"/>
  <ellipse fill="#ffff00" stroke="#000000" stroke-width="0" stroke-dasharray="null" stroke-linejoin="null" stroke-linecap="null" cx="142.00838" cy="386.44179" rx="8.6072" ry="7.04225" id="svg_101"/>
  <ellipse fill="#ffff00" stroke-width="0" stroke-dasharray="null" stroke-linejoin="null" stroke-linecap="null" cx="72.5945" cy="405.74838" rx="7.3693" ry="6.42331" stroke="#000000" id="svg_102"/>
  <ellipse fill="#e0e076" stroke="#000000" stroke-width="0" stroke-dasharray="null" stroke-linejoin="null" stroke-linecap="null" cx="82.20119" cy="407.91394" rx="8.6072" ry="7.04225" id="svg_103"/>
  <ellipse fill="#c4c433" stroke-width="0" stroke-dasharray="null" stroke-linejoin="null" stroke-linecap="null" cx="86.76306" cy="405.70864" rx="6.50278" ry="5.68057" stroke="#000000" id="svg_104"/>
  <ellipse fill="#ffffaa" stroke-width="0" stroke-dasharray="null" stroke-linejoin="null" stroke-linecap="null" cx="74.97707" cy="399.6078" rx="6.75035" ry="5.43299" stroke="#000000" id="svg_105"/>
  <ellipse fill="#ffff00" stroke="#000000" stroke-width="0" stroke-dasharray="null" stroke-linejoin="null" stroke-linecap="null" cx="82.58936" cy="400.5263" rx="8.6072" ry="7.04225" id="svg_106"/>
  <ellipse fill="#ffff00" stroke-width="0" stroke-dasharray="null" stroke-linejoin="null" stroke-linecap="null" cx="87.11915" cy="389.46317" rx="7.3693" ry="6.42331" stroke="#000000" id="svg_107"/>
  <image id="svg_7" x="-416.21179" y="119.01042" width="457.99997" height="110" xlink:href="http://res.cloudinary.com/kboyle/image/upload/v1533104512/Screen_Shot_2018-07-31_at_11.18.52_PM.png" opacity="0.75"/>
  <ellipse fill="#e0e076" stroke="#000000" stroke-width="0" stroke-dasharray="null" stroke-linejoin="null" stroke-linecap="null" cx="96.72584" cy="391.62873" rx="8.6072" ry="7.04225" id="svg_108"/>
  <rect id="svg_139" opacity="0.45" transform="rotate(46.75770950317383 122.90718841552729,-68.97293090820312) " height="145.59686" width="241.85625" y="-141.77136" x="1.97906" stroke-linecap="null" stroke-linejoin="null" stroke-dasharray="null" stroke-width="0" fill="url(#svg_135)" stroke="#000000"/>
  <ellipse fill="#c4c433" stroke-width="0" stroke-dasharray="null" stroke-linejoin="null" stroke-linecap="null" cx="101.28771" cy="389.42343" rx="6.50278" ry="5.68057" stroke="#000000" id="svg_109"/>
  <ellipse fill="#ffffaa" stroke-width="0" stroke-dasharray="null" stroke-linejoin="null" stroke-linecap="null" cx="89.50171" cy="383.32259" rx="6.75035" ry="5.43299" stroke="#000000" id="svg_110"/>
  <ellipse fill="#ffff00" stroke="#000000" stroke-width="0" stroke-dasharray="null" stroke-linejoin="null" stroke-linecap="null" cx="97.11401" cy="384.24109" rx="8.6072" ry="7.04225" id="svg_111"/>
  <ellipse fill="#c9c988" stroke-width="0" stroke-dasharray="null" stroke-linejoin="null" stroke-linecap="null" cx="334.9582" cy="278.82736" rx="10.07434" ry="7.92254" id="svg_112" stroke="#000000"/>
  <ellipse fill="#ffff00" stroke-width="0" stroke-dasharray="null" stroke-linejoin="null" stroke-linecap="null" cx="331.31558" cy="280.08163" rx="11.76056" ry="8.01174" id="svg_59" stroke="#000000"/>
  <ellipse fill="#c9c988" stroke-width="0" stroke-dasharray="null" stroke-linejoin="null" stroke-linecap="null" cx="319.11312" cy="280.88135" rx="10.07434" ry="9.38967" id="svg_113" stroke="#000000"/>
  <ellipse fill="#ffff00" stroke-width="0" stroke-dasharray="null" stroke-linejoin="null" stroke-linecap="null" cx="319.24986" cy="280.26706" rx="7.65258" ry="8.30516" id="svg_58" stroke="#000000"/>
  <image transform="matrix(-0.7510855197906494,0,0,-0.903030276298523,-592.2378250188558,231.555178354688) " id="svg_13" x="-860.56495" y="160.80461" width="457.99997" height="110" xlink:href="http://res.cloudinary.com/kboyle/image/upload/v1533104512/Screen_Shot_2018-07-31_at_11.18.52_PM.png" opacity="0.7"/>
  <rect fill="#7f7f7f" stroke-width="0" x="-492.8067" y="3.20255" width="494.66667" height="811.99999" stroke="#000000" id="svg_70"/>
  <rect opacity="0.9" stroke="#000000" transform="rotate(-42.333091735839844 638.7792968750001,33.12467956542967) " id="svg_128" height="362.93342" width="371.65464" y="-148.34204" x="452.95199" stroke-linecap="null" stroke-linejoin="null" stroke-dasharray="null" stroke-width="0" fill="url(#svg_14)"/>
  <rect stroke="#000000" id="svg_130" transform="rotate(-1.8700004816055298 631.7189941406248,143.78422546386915) " height="76.71066" width="39.86649" y="105.42891" x="611.78572" stroke-linecap="null" stroke-linejoin="null" stroke-dasharray="null" stroke-width="0" fill="url(#svg_14)"/>
  <rect stroke="#000000" opacity="0.3" transform="rotate(-1.9435755014419556 628.9260253906251,97.77618408203114) " id="svg_132" height="6.91397" width="15.97361" y="94.3192" x="620.93917" stroke-linecap="null" stroke-linejoin="null" stroke-dasharray="null" stroke-width="0" fill="#ff0000"/>
  <text stroke="#000000" transform="rotate(-2.4970924854278564 628.5072021484373,97.42332458496013) matrix(0.1733625826413691,0,0,0.1727104624928127,522.2169123802738,86.09248545577381) " xml:space="preserve" text-anchor="middle" font-family="serif" font-size="24" id="svg_131" y="75.25168" x="613.1239" stroke-linecap="null" stroke-linejoin="null" stroke-dasharray="null" stroke-width="0" fill="#000000">EXIT</text>
  <rect stroke="#000000" id="svg_133" opacity="0.25" transform="rotate(-1.9435755014419556 628.8518066406253,97.75830841064155) " height="8.38063" width="19.32102" y="93.56799" x="619.19122" stroke-linecap="null" stroke-linejoin="null" stroke-dasharray="null" stroke-width="0" fill="#ff0000"/>
  <ellipse ry="28.44444" rx="49.77778" id="svg_141" cy="182.24074" cx="126.80248" opacity="0.15" stroke-linecap="null" stroke-linejoin="null" stroke-dasharray="null" stroke-width="0" stroke="#000000" fill="url(#svg_135)"/>
  <rect id="svg_142" height="448.37662" width="220.64876" y="-52.64667" x="6.85154" opacity="0.15" stroke-linecap="null" stroke-linejoin="null" stroke-dasharray="null" stroke-width="0" fill="url(#svg_135)" transform="rotate(-16.69513702392578 117.17592620849614,171.54164123535156) " stroke="#000000"/>
  <rect fill="#7f7f7f" stroke-width="0" x="-408.14002" y="-210.79747" width="1271.99995" height="214.66667" id="svg_71" stroke="#000000"/>
  <rect fill="#7f7f7f" stroke-width="0" x="668.76851" y="-24.80093" width="494.66667" height="811.99999" id="svg_44" stroke="#000000"/>
  <path fill="#bc1212" stroke-width="0" stroke-dasharray="null" stroke-linejoin="null" stroke-linecap="null" d="m429.32667,399.89087c0,0 -16.04544,-1.66318 -14.81118,-8.64854c1.23426,-6.98536 17.27971,-13.97072 16.85528,-14.19596c-0.42443,-0.22524 12.76707,-0.77267 10.29855,6.87796c-2.46853,7.65063 -9.87412,12.97281 -10.29855,12.74757c-0.42443,-0.22524 -2.0441,3.21896 -2.0441,3.21896l0,0.00001z" id="svg_118" transform="rotate(169.4394073486328 428.2125854492188,388.4157409667969) " stroke="#000000"/>
  <path fill="#bc1212" stroke-width="0" stroke-dasharray="null" stroke-linejoin="null" stroke-linecap="null" d="m438.0279,377.61606c0,0 2.60258,-0.90359 2.35471,-2.36324c-0.24786,-1.45965 -0.61966,-1.9462 -0.51838,-1.9784c0.10128,-0.0322 -2.33206,-2.53956 -2.20813,0.0322c0.12393,2.57176 0.3718,2.64127 0.47308,2.60907c0.10128,-0.0322 -0.10128,1.70037 -0.10128,1.70037z" id="svg_122" transform="rotate(-102.13047790527344 436.5604248046875,380.38037109374994) " stroke="#000000"/>
  <path fill="#bc1212" stroke-width="0" stroke-dasharray="null" stroke-linejoin="null" stroke-linecap="null" d="m425.04881,388.03883c0,0 4.62549,-2.11442 4.18497,-5.53002c-0.44052,-3.4156 -1.10131,-4.55413 -0.92131,-4.62948c0.18,-0.07535 -4.14471,-5.9426 -3.92444,0.07535c0.22026,6.01796 0.66078,6.18061 0.84078,6.10525c0.18,-0.07535 -0.18,3.97889 -0.18,3.97889l0,0.00001z" id="svg_123" stroke="#000000"/>
  <path fill="#bc1212" stroke-width="0" stroke-dasharray="null" stroke-linejoin="null" stroke-linecap="null" d="m429.15229,390.07611c0,0 -5.4357,-2.665 -4.91802,-6.97002c0.51768,-4.30502 1.29422,-5.74002 1.08269,-5.83499c-0.21153,-0.09497 4.87071,-7.49005 4.61185,0.09498c-0.25884,7.58502 -0.77652,7.79002 -0.98805,7.69505c-0.21153,-0.09498 0.21153,5.01498 0.21153,5.01498z" id="svg_127" transform="rotate(50.787654876708984 427.06890869140636,382.0123901367187) " stroke="#000000"/>
  <path fill="#bc1212" stroke-width="0" stroke-dasharray="null" stroke-linejoin="null" stroke-linecap="null" d="m428.68099,389.92979c0,0 4.12579,-2.6438 3.73286,-6.91456c-0.39293,-4.27077 -0.98234,-5.69435 -0.82178,-5.78857c0.16056,-0.09421 -3.69696,-7.43046 -3.50048,0.09422c0.19646,7.52467 0.58939,7.72804 0.74995,7.63383c0.16056,-0.09422 -0.16056,4.97508 -0.16056,4.97508l0.00001,0z" id="svg_140" transform="rotate(9.652420043945312 430.26226806640653,381.9302368164062) " stroke="#000000"/>
  <path fill="#bc1212" stroke-width="0" stroke-dasharray="null" stroke-linejoin="null" stroke-linecap="null" d="m423.42038,391.20661c0,0 4.12753,-3.3639 3.73443,-8.79786c-0.39309,-5.43399 -0.98275,-7.24531 -0.82212,-7.36518c0.16062,-0.11987 -3.69851,-9.45427 -3.50195,0.11987c0.19655,9.57415 0.58964,9.83289 0.75026,9.71302c0.16062,-0.11987 -0.16062,6.33015 -0.16062,6.33015z" transform="rotate(19.56755828857422 425.0023498535158,381.0282287597656) " id="svg_143" stroke="#000000"/>
  <path fill="#ffd4aa" stroke-width="0" stroke-dasharray="null" stroke-linejoin="null" stroke-linecap="null" d="m446.10728,417.06512c0,0 2.65042,-0.76772 2.398,-2.00789c-0.25242,-1.24017 -0.63105,-1.65356 -0.52791,-1.68092c0.10314,-0.02736 -2.37493,-2.1577 -2.24871,0.02736c0.12621,2.18506 0.37863,2.24411 0.48177,2.21675c0.10314,-0.02736 -0.10314,1.4447 -0.10314,1.4447l-0.00001,0z" transform="rotate(-21.13330841064453 447.123107910156,414.74218749999994) " id="svg_145" stroke="#000000" opacity="0.8"/>
  <path fill="#003f7f" stroke-width="0" stroke-dasharray="null" stroke-linejoin="null" stroke-linecap="null" d="m444.71771,414.09939c0,0 1.1439,-1.20978 1.03496,-3.16402c-0.10894,-1.95426 -0.27236,-2.60567 -0.22784,-2.64878c0.04452,-0.04311 -1.025,-3.40009 -0.97053,0.04311c0.05447,3.4432 0.16341,3.53626 0.20793,3.49315c0.04452,-0.04311 -0.04452,2.27655 -0.04452,2.27655l0,-0.00001z" transform="rotate(-15.421323776245117 445.1561279296876,410.4388732910154) " id="svg_146" opacity="0.35" stroke="#000000"/>
  <path fill="#d4ffaa" stroke-width="0" stroke-dasharray="null" stroke-linejoin="null" stroke-linecap="null" d="m438.49288,448.41667c0,0 4.10523,-1.13426 3.71426,-2.96652c-0.39097,-1.83227 -0.97744,-2.44302 -0.81768,-2.48344c0.15976,-0.04042 -3.67853,-3.18786 -3.48303,0.04042c0.19549,3.22828 0.58646,3.31552 0.74621,3.2751c0.15976,-0.04042 -0.15976,2.13444 -0.15976,2.13444z" transform="rotate(71.59198760986328 440.06628417968756,444.9846496582031) " id="svg_147" stroke="#000000" opacity="0.65"/>
  <path fill="#bc1212" stroke-width="0" stroke-dasharray="null" stroke-linejoin="null" stroke-linecap="null" d="m437.84732,391.79545c0,0 3.27687,-2.6438 2.96479,-6.91456c-0.31208,-4.27077 -0.78021,-5.69435 -0.65269,-5.78857c0.12752,-0.09421 -2.93627,-7.43046 -2.78022,0.09422c0.15604,7.52467 0.46812,7.72804 0.59564,7.63383c0.12752,-0.09422 -0.12752,4.97508 -0.12752,4.97508z" stroke="#000000" transform="rotate(11.78167724609375 439.1032714843753,383.7958984375001) " id="svg_148"/>
  <ellipse fill="#002c59" stroke-width="0" stroke-dasharray="null" stroke-linejoin="null" stroke-linecap="null" cx="415.76659" cy="428.21532" rx="5.09375" ry="31.29385" id="svg_149" transform="rotate(28.558467864990234 415.7666015625001,428.2153015136718) " stroke="#000000"/>
  <ellipse fill="#002c59" stroke-width="0" stroke-dasharray="null" stroke-linejoin="null" stroke-linecap="null" cx="401.77613" cy="413.76642" rx="5.09375" ry="27.47983" transform="rotate(31.573299407958984 401.77612304687494,413.7664184570313) " id="svg_150" stroke="#000000"/>
  <path fill="#bc1212" stroke-width="0" stroke-dasharray="null" stroke-linejoin="null" stroke-linecap="null" d="m425.30975,372.52947c0,0 2.60258,-1.073 2.35472,-2.80632c-0.24787,-1.73332 -0.61966,-2.31109 -0.51838,-2.34933c0.10127,-0.03824 -2.33206,-3.0157 -2.20813,0.03824c0.12393,3.05394 0.37179,3.13648 0.47307,3.09824c0.10128,-0.03824 -0.10128,2.01917 -0.10128,2.01917z" transform="rotate(-17.5816650390625 426.30725097656233,369.2828063964844) " id="svg_151" stroke="#000000"/>
  <ellipse fill="#ffff00" stroke-width="0" stroke-dasharray="null" stroke-linejoin="null" stroke-linecap="null" cx="426.17727" cy="383.14443" rx="3.8611" ry="4.0927" id="svg_152" stroke="#000000"/>
  <ellipse fill="#e0e076" stroke-width="0" stroke-dasharray="null" stroke-linejoin="null" stroke-linecap="null" cx="422.81015" cy="380.92057" rx="3.40655" ry="3.60998" id="svg_153" stroke="#000000"/>
  <ellipse fill="#ffff00" stroke-width="0" stroke-dasharray="null" stroke-linejoin="null" stroke-linecap="null" cx="422.49827" cy="385.58587" rx="2.57663" ry="2.92086" id="svg_154" stroke="#000000"/>
  <ellipse fill="#e0e076" stroke-width="0" stroke-dasharray="null" stroke-linejoin="null" stroke-linecap="null" cx="408.57935" cy="349.86311" rx="5.91774" ry="3.87819" id="svg_155" stroke="#000000"/>
  <ellipse fill="#c4c433" stroke-width="0" stroke-dasharray="null" stroke-linejoin="null" stroke-linecap="null" cx="413.45763" cy="349.08162" rx="5.71176" ry="4.57315" id="svg_156" stroke="#000000"/>
  <ellipse fill="#ffff00" stroke-width="0" stroke-dasharray="null" stroke-linejoin="null" stroke-linecap="null" cx="410.70776" cy="346.43055" rx="5.75954" ry="4.6692" id="svg_157" stroke="#000000"/>
  <ellipse fill="#ffff00" stroke-width="0" stroke-dasharray="null" stroke-linejoin="null" stroke-linecap="null" cx="426.83458" cy="428.34517" rx="2.36806" ry="1.93526" id="svg_158" opacity="0.7" stroke="#000000"/>
  <ellipse fill="#ffffaa" stroke-width="0" stroke-dasharray="null" stroke-linejoin="null" stroke-linecap="null" cx="424.51097" cy="430.00136" rx="2.79323" ry="2.49391" opacity="0.7" id="svg_159" stroke="#000000"/>
  <ellipse fill="#ffff00" stroke-width="0" stroke-dasharray="null" stroke-linejoin="null" stroke-linecap="null" cx="429.87547" cy="383.40452" rx="3.8611" ry="4.03639" stroke="#000000" id="svg_160"/>
  <ellipse fill="#e0e076" stroke-width="0" stroke-dasharray="null" stroke-linejoin="null" stroke-linecap="null" cx="430.2636" cy="379.4044" rx="3.51917" ry="3.69445" id="svg_161" stroke="#000000"/>
  <ellipse fill="#b2b267" stroke-width="0" stroke-dasharray="null" stroke-linejoin="null" stroke-linecap="null" cx="430.0746" cy="382.49736" rx="2.33659" ry="2.59634" id="svg_163" stroke="#000000"/>
  <ellipse fill="#ffff00" stroke-width="0" stroke-dasharray="null" stroke-linejoin="null" stroke-linecap="null" cx="426.8065" cy="379.96611" rx="2.63294" ry="3.14611" id="svg_162" stroke="#000000"/>
  <ellipse fill="#ffff00" stroke-width="0" stroke-dasharray="null" stroke-linejoin="null" stroke-linecap="null" cx="424.46153" cy="427.63325" rx="2.36806" ry="1.93526" opacity="0.7" stroke="#000000" id="svg_164"/>
  <path fill="#bc1212" stroke-width="0" stroke-dasharray="null" stroke-linejoin="null" stroke-linecap="null" d="m417.28069,391.37263c0,0 -2.13616,-8.30566 1.86914,-9.72949c4.0053,-1.42383 4.0053,-4.9834 4.0053,-1.42383c0,3.55957 -1.60212,6.88184 -1.64231,6.82463c-0.0402,-0.0572 1.64231,1.71834 1.60212,1.66113c-0.0402,-0.0572 2.71039,1.24373 -0.49384,2.19295c-3.20424,0.94922 -5.34039,0.47461 -5.34039,0.47461l-0.00002,0z" id="svg_165" stroke="#000000"/>
  <path fill="#bc1212" stroke-width="0" stroke-dasharray="null" stroke-linejoin="null" stroke-linecap="null" d="m435.37537,384.8281c0,0 3.74881,-1.64676 3.39178,-4.30691c-0.35703,-2.66016 -0.89258,-3.54687 -0.74669,-3.60556c0.14589,-0.05868 -3.35915,-4.62825 -3.18063,0.05869c0.17851,4.68693 0.53554,4.81361 0.68142,4.75493c0.14589,-0.05869 -0.14589,3.09886 -0.14589,3.09886l0.00001,-0.00001z" transform="rotate(45.58180236816406 436.8121948242187,379.8453674316406) " id="svg_168" stroke="#000000"/>
  <path fill="#bc1212" stroke-width="0" stroke-dasharray="null" stroke-linejoin="null" stroke-linecap="null" d="m426.0763,376.79323c0,0 2.63646,-1.36387 2.38537,-3.56703c-0.25109,-2.20318 -0.62773,-2.93757 -0.52513,-2.98617c0.1026,-0.0486 -2.36242,-3.83318 -2.23687,0.0486c0.12555,3.88178 0.37663,3.98668 0.47923,3.93808c0.1026,-0.0486 -0.1026,2.56652 -0.1026,2.56652z" transform="rotate(10.443912506103516 427.08679199218795,372.66650390624994) " id="svg_169" stroke="#000000"/>
  <path fill="#bc1212" stroke-width="0" stroke-dasharray="null" stroke-linejoin="null" stroke-linecap="null" d="m428.15741,374.48723c0,0 2.60258,-1.073 2.35472,-2.80632c-0.24787,-1.73332 -0.61966,-2.31109 -0.51838,-2.34933c0.10127,-0.03824 -2.33206,-3.0157 -2.20813,0.03824c0.12393,3.05394 0.37179,3.13648 0.47307,3.09824c0.10128,-0.03824 -0.10128,2.01917 -0.10128,2.01917z" transform="rotate(-98.35462188720703 429.1549072265625,371.2405700683593) " id="svg_170" stroke="#000000"/>
  <path fill="#bc1212" stroke-width="0" stroke-dasharray="null" stroke-linejoin="null" stroke-linecap="null" d="m430.16981,378.21706c0,0 2.63647,-1.36387 2.38537,-3.56703c-0.25108,-2.20318 -0.62772,-2.93757 -0.52513,-2.98617c0.1026,-0.0486 -2.36242,-3.83318 -2.23687,0.0486c0.12555,3.88178 0.37663,3.98669 0.47923,3.93808c0.1026,-0.0486 -0.1026,2.56652 -0.1026,2.56652z" transform="rotate(10.443912506103516 431.18029785156233,374.09033203125) " stroke="#000000" id="svg_171"/>
  <path fill="#bc1212" stroke-width="0" stroke-dasharray="null" stroke-linejoin="null" stroke-linecap="null" d="m431.28186,383.22629c0,0 3.74881,-1.64676 3.39178,-4.30691c-0.35703,-2.66016 -0.89258,-3.54687 -0.74669,-3.60556c0.14588,-0.05868 -3.35915,-4.62826 -3.18063,0.05869c0.17851,4.68693 0.53554,4.81361 0.68142,4.75492c0.14589,-0.05868 -0.14588,3.09886 -0.14588,3.09886z" transform="rotate(45.58180236816406 432.71868896484375,378.2435607910157) " stroke="#000000" id="svg_172"/>
 </g>
</svg>
