<svg width="640" height="479.9999999999999" xmlns="http://www.w3.org/2000/svg" xmlns:svg="http://www.w3.org/2000/svg">
 <!-- Created with SVG-edit - http://svg-edit.googlecode.com/ -->
 <g>
  <title>Layer 1</title>
  <rect fill="#d9f9f9" stroke-width="0" stroke-dasharray="null" stroke-linejoin="null" stroke-linecap="null" x="-3.05554" y="1.49999" width="640.50001" height="477.75001" id="svg_57" stroke="#000000"/>
  <circle fill="#ffffff" stroke-width="0" stroke-dasharray="null" stroke-linejoin="null" stroke-linecap="null" cx="190.25001" cy="183.74999" r="157.12877" stroke="#000000" id="svg_56"/>
  <ellipse fill="#000000" stroke="#000000" stroke-width="3" stroke-dasharray="null" stroke-linejoin="null" stroke-linecap="null" cx="252.50002" cy="210" id="svg_8"/>
  <circle fill="#f27100" stroke-width="0" stroke-dasharray="null" stroke-linejoin="null" stroke-linecap="null" cx="190.25001" cy="184.49999" r="157.12877" id="svg_31" stroke="#000000" opacity="0.2"/>
  <polygon id="svg_40" fill="#f9b87a" opacity="0.2"/>
  <polygon id="svg_41" fill="#f9b87a" opacity="0.2"/>
  <circle fill="#ed9038" stroke="#000000" stroke-width="0" stroke-dasharray="null" stroke-linejoin="null" stroke-linecap="null" opacity="0.1" cx="179.91669" cy="184.33333" r="127.35433" id="svg_51"/>
  <circle fill="#ed9038" stroke-width="0" stroke-dasharray="null" stroke-linejoin="null" stroke-linecap="null" opacity="0.15" cx="177.79169" cy="181.08333" r="95.10434" id="svg_52" stroke="#000000"/>
  <circle fill="#ed9038" stroke-width="0" stroke-dasharray="null" stroke-linejoin="null" stroke-linecap="null" opacity="0.15" cx="172.41669" cy="184.29167" r="68.47934" id="svg_53" stroke="#000000"/>
  <circle fill="#fca553" stroke-width="0" stroke-dasharray="null" stroke-linejoin="null" stroke-linecap="null" opacity="0.5" cx="170.41669" cy="183.16667" r="46.72934" id="svg_54" stroke="#000000"/>
  <path fill="#7fff00" stroke-width="0" stroke-dasharray="null" stroke-linejoin="null" stroke-linecap="null" opacity="0.5" d="m234.07157,421.08127l69.52481,-28.3609l69.52497,28.3609l-26.55606,45.88909l-85.93759,0l-26.55613,-45.88909z" id="svg_58" stroke="#000000"/>
  <path fill="#ff0000" stroke-width="0" stroke-dasharray="null" stroke-linejoin="null" stroke-linecap="null" opacity="0.5" d="m458.32157,421.64377l69.52481,-28.3609l69.52497,28.3609l-26.55606,45.8891l-85.93759,0l-26.55613,-45.8891z" stroke="#000000" id="svg_59"/>
  <path fill="#ff00ff" stroke-width="0" stroke-dasharray="null" stroke-linejoin="null" stroke-linecap="null" opacity="0.5" d="m2.44022,421.74118l69.52481,-28.3609l69.52497,28.3609l-26.55606,45.8891l-85.93759,0l-26.55613,-45.8891z" stroke="#000000" id="svg_60"/>
  <rect fill="#007f00" stroke="#000000" stroke-width="0" stroke-dasharray="null" stroke-linejoin="null" stroke-linecap="null" opacity="0.5" x="-0.28514" y="467.48731" width="645.75002" height="12.75" id="svg_61"/>
  <rect stroke="#000000" fill="#605757" stroke-width="0" stroke-dasharray="null" stroke-linejoin="null" stroke-linecap="null" x="70.59351" y="402.77604" width="76.95225" height="7.09884" id="svg_62" transform="rotate(24.075510025024414 109.06963348388666,406.3254699707031) "/>
  <rect stroke="#000000" fill="#605757" stroke-width="0" stroke-dasharray="null" stroke-linejoin="null" stroke-linecap="null" x="-1.98616" y="402.39195" width="82.33235" height="7.16781" transform="rotate(-22.459980010986328 39.18002319335924,405.9758605957031) " id="svg_63"/>
  <rect fill="#605757" stroke-width="0" stroke-dasharray="null" stroke-linejoin="null" stroke-linecap="null" x="227.13408" y="404.6845" width="82.33235" height="6.47191" transform="rotate(-25.763994216918945 268.30026245117176,407.92047119140625) " stroke="#000000" id="svg_64"/>
  <rect fill="#605757" stroke-width="0" stroke-dasharray="null" stroke-linejoin="null" stroke-linecap="null" x="298.12763" y="403.3239" width="79.69128" height="6.47191" transform="rotate(24.075510025024414 337.97326660156284,406.5598754882812) " id="svg_66" stroke="#000000"/>
  <rect fill="#605757" stroke-width="0" stroke-dasharray="null" stroke-linejoin="null" stroke-linecap="null" x="450.63408" y="406.1845" width="82.33235" height="6.47191" transform="rotate(-25.763994216918945 491.80026245117176,409.4204711914063) " stroke="#605757" id="svg_67"/>
  <rect fill="#605757" stroke-width="0" stroke-dasharray="null" stroke-linejoin="null" stroke-linecap="null" x="521.88408" y="404.6845" width="82.33235" height="6.47191" transform="rotate(24.403202056884766 563.0502929687499,407.9204711914062) " stroke="#000000" id="svg_68"/>
  <rect fill="#ff0000" stroke-width="0" stroke-dasharray="null" stroke-linejoin="null" stroke-linecap="null" x="67.06245" y="440.25002" width="12.375" height="23.0625" id="svg_73" stroke="#000000" opacity="0.4"/>
  <rect fill="#ff0000" stroke-width="0" stroke-dasharray="null" stroke-linejoin="null" stroke-linecap="null" x="298.81245" y="440.25002" width="12.375" height="23.0625" stroke="#000000" opacity="0.4" id="svg_74"/>
  <rect fill="#ff0000" stroke-width="0" stroke-dasharray="null" stroke-linejoin="null" stroke-linecap="null" x="523.68745" y="439.12502" width="12.375" height="23.0625" stroke="#000000" opacity="0.4" id="svg_75"/>
  <rect fill="#00ffff" stroke="#000000" stroke-width="0" stroke-dasharray="null" stroke-linejoin="null" stroke-linecap="null" x="34.25002" y="435" width="19.5" height="15" id="svg_77" opacity="0.4"/>
  <rect fill="#00ffff" stroke="#000000" stroke-width="0" stroke-dasharray="null" stroke-linejoin="null" stroke-linecap="null" x="265.25002" y="433.5" width="19.5" height="15" opacity="0.4" id="svg_78"/>
  <rect fill="#00ffff" stroke="#000000" stroke-width="0" stroke-dasharray="null" stroke-linejoin="null" stroke-linecap="null" x="489.12502" y="434.625" width="19.5" height="15" opacity="0.4" id="svg_79"/>
  <rect fill="#7f7f7f" stroke-width="0" stroke-dasharray="null" stroke-linejoin="null" stroke-linecap="null" x="62.89645" y="462.81152" width="20.88281" height="1.42383" id="svg_80" stroke="#000000"/>
  <rect fill="#7f7f7f" stroke-width="0" stroke-dasharray="null" stroke-linejoin="null" stroke-linecap="null" x="62.81735" y="465.18457" width="20.88281" height="1.42383" stroke="#000000" id="svg_81"/>
  <rect fill="#7f7f7f" stroke-width="0" stroke-dasharray="null" stroke-linejoin="null" stroke-linecap="null" x="64.63668" y="467.71582" width="20.88281" height="1.42383" stroke="#000000" id="svg_82"/>
  <rect fill="#565555" stroke-width="0" stroke-dasharray="null" stroke-linejoin="null" stroke-linecap="null" x="63.37106" y="463.76074" width="20.88281" height="1.42383" stroke="#000000" id="svg_83"/>
  <rect fill="#565555" stroke-width="0" stroke-dasharray="null" stroke-linejoin="null" stroke-linecap="null" x="64.32028" y="466.37109" width="20.88281" height="1.42383" stroke="#000000" id="svg_84"/>
  <rect fill="#7f7f7f" stroke-width="0" stroke-dasharray="null" stroke-linejoin="null" stroke-linecap="null" x="293.74118" y="461.82934" width="20.88281" height="1.42383" stroke="#000000" id="svg_85"/>
  <rect fill="#7f7f7f" stroke-width="0" stroke-dasharray="null" stroke-linejoin="null" stroke-linecap="null" x="293.66208" y="464.20239" width="20.88281" height="1.42383" stroke="#000000" id="svg_86"/>
  <rect fill="#7f7f7f" stroke-width="0" stroke-dasharray="null" stroke-linejoin="null" stroke-linecap="null" x="293.70163" y="466.73364" width="20.88281" height="1.42383" stroke="#000000" id="svg_87"/>
  <rect fill="#565555" stroke-width="0" stroke-dasharray="null" stroke-linejoin="null" stroke-linecap="null" x="294.21579" y="462.77856" width="19.63696" height="1.42383" id="svg_88" stroke="#000000"/>
  <rect fill="#565555" stroke-width="0" stroke-dasharray="null" stroke-linejoin="null" stroke-linecap="null" x="294.27511" y="465.56689" width="19.63696" height="1.42383" id="svg_89" stroke="#000000"/>
  <rect fill="#7f7f7f" stroke-width="0" stroke-dasharray="null" stroke-linejoin="null" stroke-linecap="null" x="519.35862" y="461.31524" width="20.88281" height="1.42383" stroke="#000000" id="svg_90"/>
  <rect fill="#7f7f7f" stroke-width="0" stroke-dasharray="null" stroke-linejoin="null" stroke-linecap="null" x="519.27952" y="463.68829" width="20.88281" height="1.42383" stroke="#000000" id="svg_91"/>
  <rect fill="#7f7f7f" stroke-width="0" stroke-dasharray="null" stroke-linejoin="null" stroke-linecap="null" x="521.09886" y="466.21954" width="20.88281" height="1.42383" stroke="#000000" id="svg_92"/>
  <rect fill="#565555" stroke-width="0" stroke-dasharray="null" stroke-linejoin="null" stroke-linecap="null" x="519.83323" y="462.26446" width="20.88281" height="1.42383" stroke="#000000" id="svg_93"/>
  <rect fill="#565555" stroke-width="0" stroke-dasharray="null" stroke-linejoin="null" stroke-linecap="null" x="520.78245" y="464.87482" width="20.88281" height="1.42383" stroke="#000000" id="svg_94"/>
  <rect fill="#00ffff" stroke="#000000" stroke-width="0" stroke-dasharray="null" stroke-linejoin="null" stroke-linecap="null" x="91.13891" y="435.00001" width="19.5" height="15" opacity="0.4" id="svg_96"/>
  <rect id="svg_1" fill="#00ffff" stroke="#000000" stroke-width="0" stroke-dasharray="null" stroke-linejoin="null" stroke-linecap="null" x="265.34052" y="433.8278" width="19.5" height="15" opacity="0.5"/>
  <rect id="svg_2" fill="#00ffff" stroke="#000000" stroke-width="0" stroke-dasharray="null" stroke-linejoin="null" stroke-linecap="null" x="325.25002" y="433.5" width="19.5" height="15" opacity="0.4"/>
  <rect id="svg_3" fill="#00ffff" stroke="#000000" stroke-width="0" stroke-dasharray="null" stroke-linejoin="null" stroke-linecap="null" x="325.5215" y="433.20638" width="19.5" height="15" opacity="0.4"/>
  <rect id="svg_4" fill="#00ffff" stroke="#000000" stroke-width="0" stroke-dasharray="null" stroke-linejoin="null" stroke-linecap="null" x="549.12502" y="435.95833" width="19.5" height="15" opacity="0.4"/>
  <ellipse stroke="#000000" ry="0.53174" rx="0.29443" id="svg_19" cy="452.03176" cx="77.45551" stroke-linecap="null" stroke-linejoin="null" stroke-dasharray="null" stroke-width="0" fill="#ff7f00"/>
  <ellipse id="svg_20" cy="420.00002" cx="90.68745" stroke-linecap="null" stroke-linejoin="null" stroke-dasharray="null" stroke-width="0" stroke="#000000" fill="#ff7f00"/>
  <ellipse stroke="#000000" id="svg_23" ry="0.49219" rx="0.33398" cy="451.42971" cx="309.16596" stroke-linecap="null" stroke-linejoin="null" stroke-dasharray="null" stroke-width="0" fill="#ff7f00"/>
  <ellipse stroke="#000000" id="svg_24" ry="0.38232" rx="0.81299" cy="451.94382" cx="534.24854" stroke-linecap="null" stroke-linejoin="null" stroke-dasharray="null" stroke-width="0" fill="#ff7f00"/>
  <ellipse stroke="#000000" ry="5.96228" rx="6.76318" id="svg_25" cy="464.91977" cx="21.78124" stroke-linecap="null" stroke-linejoin="null" stroke-dasharray="null" stroke-width="0" fill="#22965a"/>
  <ellipse id="svg_26" cy="447.09006" cx="19.05443" stroke-linecap="null" stroke-linejoin="null" stroke-dasharray="null" stroke-width="0" stroke="#000000" fill="#007f3f"/>
  <ellipse id="svg_27" ry="5.96228" rx="6.76318" cy="464.74179" cx="29.58373" stroke-linecap="null" stroke-linejoin="null" stroke-dasharray="null" stroke-width="0" fill="#4c9b6f" stroke="#000000"/>
  <ellipse id="svg_28" ry="5.96228" rx="6.76318" cy="465.12631" cx="38.36181" stroke-linecap="null" stroke-linejoin="null" stroke-dasharray="null" stroke-width="0" fill="#269b5f" stroke="#000000"/>
  <rect opacity="0.4" stroke="#000000" id="svg_29" height="2.21484" width="72.77344" y="467.32034" x="66.21874" stroke-linecap="null" stroke-linejoin="null" stroke-dasharray="null" stroke-width="0" fill="#7f7f7f"/>
  <ellipse stroke="#000000" ry="5.96228" rx="6.76318" cy="467.07602" cx="255.57813" stroke-linecap="null" stroke-linejoin="null" stroke-dasharray="null" stroke-width="0" fill="#22965a" id="svg_6"/>
  <ellipse ry="5.96228" rx="6.76318" cy="466.89804" cx="263.38062" stroke-linecap="null" stroke-linejoin="null" stroke-dasharray="null" stroke-width="0" fill="#4c9b6f" stroke="#000000" id="svg_7"/>
  <ellipse ry="5.96228" rx="6.76318" cy="467.28256" cx="272.1587" stroke-linecap="null" stroke-linejoin="null" stroke-dasharray="null" stroke-width="0" fill="#269b5f" stroke="#000000" id="svg_9"/>
  <ellipse fill="#ffffff" stroke="#000000" stroke-width="0" stroke-dasharray="null" stroke-linejoin="null" stroke-linecap="null" cx="440.88889" cy="236.44445" id="svg_21" rx="10.66667" ry="74.66667"/>
  <ellipse fill="#ffffff" stroke-width="0" stroke-dasharray="null" stroke-linejoin="null" stroke-linecap="null" cx="447.11111" cy="134.22222" id="svg_15" rx="63.11111" ry="100.44445" stroke="#000000"/>
  <ellipse fill="#7fff00" stroke-width="null" stroke-dasharray="null" stroke-linejoin="null" stroke-linecap="null" cx="448.66668" cy="135.00002" id="svg_65" rx="56.66667" ry="99.00001" opacity="0.2" stroke="#f4eded"/>
  <ellipse fill="#7fff00" stroke-width="null" stroke-dasharray="null" stroke-linejoin="null" stroke-linecap="null" cx="454.66668" cy="145.33335" rx="52" ry="84.00001" opacity="0.2" id="svg_71" stroke="#f4eded"/>
  <ellipse stroke-width="0" fill="#96c7f7" stroke-dasharray="null" stroke-linejoin="null" stroke-linecap="null" cx="438.22223" cy="76.44444" id="svg_16" rx="105.77778" ry="8.88889" stroke="#000000"/>
  <path fill="#96c7f7" stroke-width="0" stroke-dasharray="null" stroke-linejoin="null" stroke-linecap="null" d="m418.1688,91.38648l9.02872,-94.31199l30.09573,0l9.02872,94.31199l-48.15317,0z" id="svg_18" transform="rotate(-96.38416290283203 442.245361328125,44.23048400878906) " stroke="#000000"/>
  <path fill="#96c7f7" stroke-width="0" stroke-dasharray="null" stroke-linejoin="null" stroke-linecap="null" d="m365.90722,274.18276l28.66666,205.55554l95.55555,0l28.66665,-205.55554l-152.88886,0z" id="svg_22" stroke="#000000"/>
  <path fill="#f9cccc" stroke-width="0" stroke-dasharray="null" stroke-linejoin="null" stroke-linecap="null" d="m411.48068,448.42915l31.99884,-174.81247l31.99884,174.81247l-63.99767,0l-0.00001,0z" id="svg_32" transform="rotate(-179.98089599609375 443.4795227050781,361.02294921875) " stroke="#000000"/>
  <polygon stroke="#000000" fill="#f2a2a2" points="523.7462768554688,374.5550537109375 462.06732177734375,385.37554931640625 362.26904296875,381.2424621582031 362.26904296875,367.8675842285156 462.06732177734375,363.73455810546875 523.7462768554688,374.5550537109375 " stroke-width="0" transform="rotate(89.11648559570312 443.0076599121093,374.55505371093744) " id="svg_43"/>
  <polygon id="svg_34" fill="#ffffff"/>
  <polygon id="svg_35" fill="#ffffff"/>
  <polygon id="svg_36" fill="#ffffff"/>
  <polygon id="svg_42" fill="#f2a2a2" points="449.6852722167969,290.0625305175781 441.895263671875,300.6145324707031 429.2908020019531,296.5840148925781 429.2908020019531,283.5409851074219 441.895263671875,279.5104675292969 449.6852722167969,290.0625305175781 " stroke-width="0" transform="rotate(162.0925750732422 439.488037109375,290.06249999999994) " stroke="#000000"/>
  <path fill="#f9e8e8" stroke-width="0" stroke-dasharray="null" stroke-linejoin="null" stroke-linecap="null" d="m421.16013,286.41625l3.16406,-16.33329l10.54687,0l3.16406,16.33329l-16.87499,0z" id="svg_38" transform="rotate(-36.16539001464844 429.597625732422,278.24960327148443) " stroke="#000000"/>
  <path fill="#fceaea" stroke-width="0" stroke-dasharray="null" stroke-linejoin="null" stroke-linecap="null" d="m444.07941,287.03721l3.16406,-16.92523l10.54687,0l3.16406,16.92523l-16.87499,0z" transform="rotate(33.21649932861328 452.51690673828136,278.5745849609375) " id="svg_39" stroke="#000000"/>
  <path stroke="#000000" fill="#96c7f7" stroke-width="0" stroke-dasharray="null" stroke-linejoin="null" stroke-linecap="null" d="m278.61996,356.66808l27.01531,-23.75392l90.05105,0l27.01531,23.75392l-144.08167,0z" id="svg_45" transform="rotate(111.09688568115234 350.6607971191406,344.7911376953125) "/>
  <path fill="#96c7f7" stroke-width="0" stroke-dasharray="null" stroke-linejoin="null" stroke-linecap="null" d="m316.15695,420.40827l15.74482,-23.52799l52.48275,0l15.74482,23.52799l-83.9724,0l0.00001,0z" transform="rotate(14.834538459777832 358.1431274414064,408.6442871093749) " id="svg_46" stroke="#000000"/>
  <ellipse fill="#ffffff" stroke-width="null" stroke-dasharray="null" stroke-linejoin="null" stroke-linecap="null" opacity="0.8" cx="399.09055" cy="131.91136" id="svg_102" rx="32.45081" ry="36.84734" transform="rotate(8.746185302734375 399.09051513671886,131.91136169433605) " stroke="#f4eded"/>
  <ellipse fill="#ff0000" stroke-width="null" stroke-dasharray="null" stroke-linejoin="null" stroke-linecap="null" cx="397.58335" cy="134.1852" rx="18.66666" ry="28.25001" opacity="0.2" id="svg_97" stroke="#f4eded"/>
  <ellipse fill="#ffffff" stroke-width="null" stroke-dasharray="null" stroke-linejoin="null" stroke-linecap="null" opacity="0.8" cx="504.93352" cy="133.01542" rx="29.97989" ry="36.84734" transform="rotate(8.746185302734375 504.9335021972657,133.01542663574227) " id="svg_103" stroke="#f4eded"/>
  <ellipse fill="#ff0000" stroke-width="null" stroke-dasharray="null" stroke-linejoin="null" stroke-linecap="null" cx="509.58335" cy="134.1852" rx="18.66666" ry="28.25001" opacity="0.2" stroke="#f4eded" id="svg_101"/>
  <path stroke="#000000" id="svg_11" fill="#96c7f7" stroke-width="0" stroke-dasharray="null" stroke-linejoin="null" stroke-linecap="null" d="m446.48059,332.95783l26.66666,25.5955l88.88888,0l26.66666,-25.5955l-142.2222,0z" transform="rotate(82.38456726074219 517.5916748046875,345.7555847167969) "/>
  <path stroke="#000000" id="svg_12" fill="#96c7f7" stroke-width="0" stroke-dasharray="null" stroke-linejoin="null" stroke-linecap="null" d="m463.38513,393.61652l14.18522,25.5955l47.28409,0l14.18522,-25.5955l-75.65453,0z" transform="rotate(171.9262237548828 501.21240234375,406.41424560546875) "/>
  <path stroke="#000000" transform="rotate(-47.03377151489258 440.91027832031267,273.36752319335943) " id="svg_17" d="m436.04966,278.60474l0,-10.47444l9.72125,10.47444l-9.72125,0z" stroke-linecap="null" stroke-linejoin="null" stroke-dasharray="null" stroke-width="0" fill="#ffffff"/>
 </g>
</svg>
