<svg width="640" height="479.99999999999994" xmlns="http://www.w3.org/2000/svg" xmlns:svg="http://www.w3.org/2000/svg">
 <!-- Created with SVG-edit - http://svg-edit.googlecode.com/ -->
 <g>
  <title>Layer 1</title>
  <rect fill="#d9f9f9" stroke-width="0" stroke-dasharray="null" stroke-linejoin="null" stroke-linecap="null" x="-3.71266" y="1.15844" width="640.50001" height="477.75001" id="svg_57" stroke="#000000"/>
  <circle fill="#ffffff" stroke-width="0" stroke-dasharray="null" stroke-linejoin="null" stroke-linecap="null" cx="190.25001" cy="183.74999" r="157.12877" stroke="#000000" id="svg_56"/>
  <ellipse fill="#000000" stroke="#000000" stroke-width="3" stroke-dasharray="null" stroke-linejoin="null" stroke-linecap="null" cx="252.50002" cy="210" id="svg_8"/>
  <circle fill="#f27100" stroke-width="0" stroke-dasharray="null" stroke-linejoin="null" stroke-linecap="null" cx="190.25001" cy="184.49999" r="157.12877" id="svg_31" stroke="#000000" opacity="0.2"/>
  <polygon id="svg_40" fill="#f9b87a" opacity="0.2"/>
  <polygon id="svg_41" fill="#f9b87a" opacity="0.2"/>
  <circle fill="#ed9038" stroke="#000000" stroke-width="0" stroke-dasharray="null" stroke-linejoin="null" stroke-linecap="null" opacity="0.1" cx="179.91669" cy="184.33333" r="127.35433" id="svg_51"/>
  <circle fill="#ed9038" stroke-width="0" stroke-dasharray="null" stroke-linejoin="null" stroke-linecap="null" opacity="0.15" cx="177.79169" cy="181.08333" r="95.10434" id="svg_52" stroke="#000000"/>
  <circle fill="#ed9038" stroke-width="0" stroke-dasharray="null" stroke-linejoin="null" stroke-linecap="null" opacity="0.15" cx="172.41669" cy="184.29167" r="68.47934" id="svg_53" stroke="#000000"/>
  <circle fill="#fca553" stroke-width="0" stroke-dasharray="null" stroke-linejoin="null" stroke-linecap="null" opacity="0.5" cx="170.41669" cy="183.16667" r="46.72934" id="svg_54" stroke="#000000"/>
  <path fill="#7fff00" stroke-width="0" stroke-dasharray="null" stroke-linejoin="null" stroke-linecap="null" opacity="0.5" d="m234.07157,421.55588l69.52481,-28.3609l69.52497,28.3609l-26.55606,45.88909l-85.93759,0l-26.55613,-45.88909z" id="svg_58" stroke="#000000"/>
  <path fill="#ff0000" stroke-width="0" stroke-dasharray="null" stroke-linejoin="null" stroke-linecap="null" opacity="0.5" d="m458.32157,421.64377l69.52481,-28.3609l69.52497,28.3609l-26.55606,45.8891l-85.93759,0l-26.55613,-45.8891z" stroke="#000000" id="svg_59"/>
  <path fill="#ff00ff" stroke-width="0" stroke-dasharray="null" stroke-linejoin="null" stroke-linecap="null" opacity="0.5" d="m2.44022,421.74118l69.52481,-28.3609l69.52497,28.3609l-26.55606,45.8891l-85.93759,0l-26.55613,-45.8891z" stroke="#000000" id="svg_60"/>
  <rect fill="#007f00" stroke="#000000" stroke-width="0" stroke-dasharray="null" stroke-linejoin="null" stroke-linecap="null" opacity="0.5" x="-0.28514" y="467.48731" width="645.75002" height="12.75" id="svg_61"/>
  <rect stroke="#000000" fill="#605757" stroke-width="0" stroke-dasharray="null" stroke-linejoin="null" stroke-linecap="null" x="70.59351" y="402.77604" width="76.95225" height="7.09884" id="svg_62" transform="rotate(24.075510025024414 109.06963348388666,406.3254699707031) "/>
  <rect stroke="#000000" fill="#605757" stroke-width="0" stroke-dasharray="null" stroke-linejoin="null" stroke-linecap="null" x="-1.98616" y="402.39195" width="82.33235" height="7.16781" transform="rotate(-22.459980010986328 39.18002319335924,405.9758605957031) " id="svg_63"/>
  <rect fill="#605757" stroke-width="0" stroke-dasharray="null" stroke-linejoin="null" stroke-linecap="null" x="227.13408" y="404.6845" width="82.33235" height="6.47191" transform="rotate(-25.763994216918945 268.30026245117176,407.92047119140625) " stroke="#000000" id="svg_64"/>
  <rect fill="#605757" stroke-width="0" stroke-dasharray="null" stroke-linejoin="null" stroke-linecap="null" x="298.12763" y="403.3239" width="79.69128" height="6.47191" transform="rotate(24.075510025024414 337.97326660156284,406.5598754882812) " id="svg_66" stroke="#000000"/>
  <rect fill="#605757" stroke-width="0" stroke-dasharray="null" stroke-linejoin="null" stroke-linecap="null" x="450.63408" y="406.1845" width="82.33235" height="6.47191" transform="rotate(-25.763994216918945 491.80026245117176,409.4204711914063) " stroke="#605757" id="svg_67"/>
  <rect fill="#605757" stroke-width="0" stroke-dasharray="null" stroke-linejoin="null" stroke-linecap="null" x="521.88408" y="404.6845" width="82.33235" height="6.47191" transform="rotate(24.403202056884766 563.0502929687499,407.9204711914062) " stroke="#000000" id="svg_68"/>
  <rect transform="rotate(2.208430290222168 73.24995422363554,451.78124999999994) " fill="#ff0000" stroke-width="0" stroke-dasharray="null" stroke-linejoin="null" stroke-linecap="null" x="67.06245" y="440.25002" width="12.375" height="23.0625" id="svg_73" stroke="#000000" opacity="0.4"/>
  <rect fill="#ff0000" stroke-width="0" stroke-dasharray="null" stroke-linejoin="null" stroke-linecap="null" x="298.81245" y="440.25002" width="12.375" height="23.0625" stroke="#000000" opacity="0.4" id="svg_74"/>
  <rect fill="#ff0000" stroke-width="0" stroke-dasharray="null" stroke-linejoin="null" stroke-linecap="null" x="523.68745" y="439.12502" width="12.375" height="23.0625" stroke="#000000" opacity="0.4" id="svg_75"/>
  <rect fill="#00ffff" stroke="#000000" stroke-width="0" stroke-dasharray="null" stroke-linejoin="null" stroke-linecap="null" x="34.25002" y="435" width="19.5" height="15" id="svg_77" opacity="0.4"/>
  <rect fill="#00ffff" stroke="#000000" stroke-width="0" stroke-dasharray="null" stroke-linejoin="null" stroke-linecap="null" x="265.25002" y="433.5" width="19.5" height="15" opacity="0.4" id="svg_78"/>
  <rect fill="#00ffff" stroke="#000000" stroke-width="0" stroke-dasharray="null" stroke-linejoin="null" stroke-linecap="null" x="489.12502" y="434.625" width="19.5" height="15" opacity="0.4" id="svg_79"/>
  <rect fill="#7f7f7f" stroke-width="0" stroke-dasharray="null" stroke-linejoin="null" stroke-linecap="null" x="62.89645" y="462.81152" width="20.88281" height="1.42383" id="svg_80" stroke="#000000"/>
  <rect fill="#7f7f7f" stroke-width="0" stroke-dasharray="null" stroke-linejoin="null" stroke-linecap="null" x="62.81735" y="465.18457" width="20.88281" height="1.42383" stroke="#000000" id="svg_81"/>
  <rect fill="#7f7f7f" stroke-width="0" stroke-dasharray="null" stroke-linejoin="null" stroke-linecap="null" x="64.63668" y="467.71582" width="20.88281" height="1.42383" stroke="#000000" id="svg_82"/>
  <rect fill="#565555" stroke-width="0" stroke-dasharray="null" stroke-linejoin="null" stroke-linecap="null" x="63.37106" y="463.76074" width="20.88281" height="1.42383" stroke="#000000" id="svg_83"/>
  <rect fill="#565555" stroke-width="0" stroke-dasharray="null" stroke-linejoin="null" stroke-linecap="null" x="64.32028" y="466.37109" width="20.88281" height="1.42383" stroke="#000000" id="svg_84"/>
  <rect fill="#7f7f7f" stroke-width="0" stroke-dasharray="null" stroke-linejoin="null" stroke-linecap="null" x="293.74118" y="461.82934" width="20.88281" height="1.42383" stroke="#000000" id="svg_85"/>
  <rect fill="#7f7f7f" stroke-width="0" stroke-dasharray="null" stroke-linejoin="null" stroke-linecap="null" x="293.66208" y="464.20239" width="20.88281" height="1.42383" stroke="#000000" id="svg_86"/>
  <rect fill="#7f7f7f" stroke-width="0" stroke-dasharray="null" stroke-linejoin="null" stroke-linecap="null" x="293.70163" y="466.73364" width="20.88281" height="1.42383" stroke="#000000" id="svg_87"/>
  <rect fill="#565555" stroke-width="0" stroke-dasharray="null" stroke-linejoin="null" stroke-linecap="null" x="294.21579" y="462.77856" width="19.63696" height="1.42383" id="svg_88" stroke="#000000"/>
  <rect fill="#565555" stroke-width="0" stroke-dasharray="null" stroke-linejoin="null" stroke-linecap="null" x="294.27511" y="465.56689" width="19.63696" height="1.42383" id="svg_89" stroke="#000000"/>
  <rect fill="#7f7f7f" stroke-width="0" stroke-dasharray="null" stroke-linejoin="null" stroke-linecap="null" x="519.35862" y="461.31524" width="20.88281" height="1.42383" stroke="#000000" id="svg_90"/>
  <rect fill="#7f7f7f" stroke-width="0" stroke-dasharray="null" stroke-linejoin="null" stroke-linecap="null" x="519.27952" y="463.68829" width="20.88281" height="1.42383" stroke="#000000" id="svg_91"/>
  <rect fill="#7f7f7f" stroke-width="0" stroke-dasharray="null" stroke-linejoin="null" stroke-linecap="null" x="521.09886" y="466.21954" width="20.88281" height="1.42383" stroke="#000000" id="svg_92"/>
  <rect fill="#565555" stroke-width="0" stroke-dasharray="null" stroke-linejoin="null" stroke-linecap="null" x="519.83323" y="462.26446" width="20.88281" height="1.42383" stroke="#000000" id="svg_93"/>
  <rect fill="#565555" stroke-width="0" stroke-dasharray="null" stroke-linejoin="null" stroke-linecap="null" x="520.78245" y="464.87482" width="20.88281" height="1.42383" stroke="#000000" id="svg_94"/>
  <rect fill="#00ffff" stroke="#000000" stroke-width="0" stroke-dasharray="null" stroke-linejoin="null" stroke-linecap="null" x="91.13891" y="435.00001" width="19.5" height="15" opacity="0.4" id="svg_96"/>
  <rect id="svg_1" fill="#00ffff" stroke="#000000" stroke-width="0" stroke-dasharray="null" stroke-linejoin="null" stroke-linecap="null" x="265.34052" y="433.8278" width="19.5" height="15" opacity="0.5"/>
  <rect id="svg_2" fill="#00ffff" stroke="#000000" stroke-width="0" stroke-dasharray="null" stroke-linejoin="null" stroke-linecap="null" x="325.25002" y="433.5" width="19.5" height="15" opacity="0.4"/>
  <rect id="svg_3" fill="#00ffff" stroke="#000000" stroke-width="0" stroke-dasharray="null" stroke-linejoin="null" stroke-linecap="null" x="325.5215" y="433.20638" width="19.5" height="15" opacity="0.4"/>
  <rect id="svg_4" fill="#00ffff" stroke="#000000" stroke-width="0" stroke-dasharray="null" stroke-linejoin="null" stroke-linecap="null" x="549.12502" y="435.95833" width="19.5" height="15" opacity="0.4"/>
  <ellipse stroke="#000000" ry="0.53174" rx="0.29443" id="svg_19" cy="452.03176" cx="77.45551" stroke-linecap="null" stroke-linejoin="null" stroke-dasharray="null" stroke-width="0" fill="#ff7f00"/>
  <ellipse id="svg_20" cy="420.00002" cx="90.68745" stroke-linecap="null" stroke-linejoin="null" stroke-dasharray="null" stroke-width="0" stroke="#000000" fill="#ff7f00"/>
  <ellipse stroke="#000000" id="svg_23" ry="0.49219" rx="0.33398" cy="451.42971" cx="309.16596" stroke-linecap="null" stroke-linejoin="null" stroke-dasharray="null" stroke-width="0" fill="#ffff00"/>
  <ellipse stroke="#000000" id="svg_24" ry="0.38232" rx="0.81299" cy="451.94382" cx="534.24854" stroke-linecap="null" stroke-linejoin="null" stroke-dasharray="null" stroke-width="0" fill="#ff7f00"/>
  <ellipse stroke="#000000" ry="5.96228" rx="6.76318" id="svg_25" cy="464.91977" cx="21.78124" stroke-linecap="null" stroke-linejoin="null" stroke-dasharray="null" stroke-width="0" fill="#22965a"/>
  <ellipse id="svg_26" cy="447.09006" cx="19.05443" stroke-linecap="null" stroke-linejoin="null" stroke-dasharray="null" stroke-width="0" stroke="#000000" fill="#007f3f"/>
  <ellipse id="svg_27" ry="5.96228" rx="6.76318" cy="464.74179" cx="29.58373" stroke-linecap="null" stroke-linejoin="null" stroke-dasharray="null" stroke-width="0" fill="#4c9b6f" stroke="#000000"/>
  <ellipse id="svg_28" ry="5.96228" rx="6.76318" cy="465.12631" cx="38.36181" stroke-linecap="null" stroke-linejoin="null" stroke-dasharray="null" stroke-width="0" fill="#269b5f" stroke="#000000"/>
  <rect opacity="0.4" stroke="#000000" id="svg_29" height="2.21484" width="72.77344" y="467.32034" x="66.21874" stroke-linecap="null" stroke-linejoin="null" stroke-dasharray="null" stroke-width="0" fill="#7f7f7f"/>
  <ellipse stroke="#000000" ry="5.96228" rx="6.76318" cy="467.07602" cx="255.57813" stroke-linecap="null" stroke-linejoin="null" stroke-dasharray="null" stroke-width="0" fill="#22965a" id="svg_6"/>
  <ellipse ry="5.96228" rx="6.76318" cy="466.89804" cx="263.38062" stroke-linecap="null" stroke-linejoin="null" stroke-dasharray="null" stroke-width="0" fill="#4c9b6f" stroke="#000000" id="svg_7"/>
  <ellipse ry="5.96228" rx="6.76318" cy="467.28256" cx="272.1587" stroke-linecap="null" stroke-linejoin="null" stroke-dasharray="null" stroke-width="0" fill="#269b5f" stroke="#000000" id="svg_9"/>
  <ellipse fill="#ffffff" stroke="#000000" stroke-width="0" stroke-dasharray="null" stroke-linejoin="null" stroke-linecap="null" cx="440.88889" cy="236.44445" id="svg_21" rx="10.66667" ry="74.66667"/>
  <ellipse fill="#ffffff" stroke-width="0" stroke-dasharray="null" stroke-linejoin="null" stroke-linecap="null" cx="447.11111" cy="134.22222" id="svg_15" rx="63.11111" ry="100.44445" stroke="#000000"/>
  <rect fill="#d9fcb5" stroke-width="0" stroke-dasharray="null" stroke-linejoin="null" stroke-linecap="null" x="441.60183" y="234.75" width="5.93628" height="41.60596" id="svg_10" stroke="#f4eded"/>
  <ellipse fill="#7fff00" stroke-width="null" stroke-dasharray="null" stroke-linejoin="null" stroke-linecap="null" cx="448.66668" cy="135.00002" id="svg_65" rx="56.66667" ry="99.00001" opacity="0.2" stroke="#f4eded"/>
  <ellipse fill="#7fff00" stroke-width="null" stroke-dasharray="null" stroke-linejoin="null" stroke-linecap="null" cx="454.66668" cy="145.33335" rx="52" ry="84.00001" opacity="0.2" id="svg_71" stroke="#f4eded"/>
  <ellipse stroke-width="0" fill="#96c7f7" stroke-dasharray="null" stroke-linejoin="null" stroke-linecap="null" cx="438.22223" cy="76.44444" id="svg_16" rx="105.77778" ry="8.88889" stroke="#000000"/>
  <path fill="#96c7f7" stroke-width="0" stroke-dasharray="null" stroke-linejoin="null" stroke-linecap="null" d="m421.5438,91.80836l9.02872,-94.31199l30.09573,0l9.02872,94.31199l-48.15317,0z" id="svg_18" transform="rotate(-96.38416290283203 445.62036132812494,44.65236282348635) " stroke="#000000"/>
  <path fill="#96c7f7" stroke-width="0" stroke-dasharray="null" stroke-linejoin="null" stroke-linecap="null" d="m365.58221,273.8832l28.66666,205.55554l95.55555,0l28.66665,-205.55554l-152.88886,0z" id="svg_22" stroke="#000000"/>
  <path stroke="#000000" fill="#f9cccc" stroke-width="0" stroke-dasharray="null" stroke-linejoin="null" stroke-linecap="null" d="m411.48066,448.42907l31.99884,-174.59486l31.99884,174.59486l-63.99767,0l-0.00001,0z" id="svg_32" transform="rotate(-179.98089599609375 443.4794921875,361.13165283203125) "/>
  <line id="svg_105" stroke="#fcf9f9" transform="rotate(178.48080444335938 462.0804443359375,319.9888305664062) " stroke-width="0.5" y2="373.46148" x2="456.35" y1="266.51617" x1="467.8109" opacity="0.2" stroke-linecap="null" stroke-linejoin="null" stroke-dasharray="null" fill="none"/>
  <line stroke-width="0.5" stroke="#f9f7f7" id="svg_95" y2="379.18362" x2="436.73047" y1="272.23831" x1="418.69531" opacity="0.2" stroke-linecap="null" stroke-linejoin="null" stroke-dasharray="null" fill="none"/>
  <line id="svg_98" stroke-width="0.5" stroke="#f9f4f4" y2="383.86819" x2="440.29004" y1="276.92288" x1="422.25488" opacity="0.2" stroke-linecap="null" stroke-linejoin="null" stroke-dasharray="null" fill="none"/>
  <line id="svg_100" stroke-width="0.5" stroke="#fcf9f9" y2="380.96492" x2="443.69387" y1="274.0196" x1="425.65872" opacity="0.2" stroke-linecap="null" stroke-linejoin="null" stroke-dasharray="null" fill="none"/>
  <line stroke="#fcf9f9" transform="rotate(178.48080444335938 451.3885498046875,322.82330322265625) " id="svg_104" stroke-width="0.5" y2="376.29596" x2="445.6581" y1="269.35065" x1="457.119" opacity="0.2" stroke-linecap="null" stroke-linejoin="null" stroke-dasharray="null" fill="none"/>
  <line id="svg_106" stroke="#fcf9f9" transform="rotate(178.48080444335938 454.94812011718756,326.38287353515625) " stroke-width="0.5" y2="379.85553" x2="449.21767" y1="272.91022" x1="460.67857" opacity="0.2" stroke-linecap="null" stroke-linejoin="null" stroke-dasharray="null" fill="none"/>
  <polygon stroke="#000000" fill="#f2a2a2" points="523.7462768554688,374.5550537109375 462.06732177734375,385.37554931640625 362.26904296875,381.2424621582031 362.26904296875,367.8675842285156 462.06732177734375,363.73455810546875 523.7462768554688,374.5550537109375 " stroke-width="0" transform="rotate(89.11648559570312 443.0076599121093,374.55505371093744) " id="svg_43"/>
  <polygon id="svg_34" fill="#ffffff"/>
  <polygon id="svg_35" fill="#ffffff"/>
  <polygon id="svg_36" fill="#ffffff"/>
  <polygon stroke="#ffaaaa" id="svg_72" fill="#f2a2a2" points="449.2897644042969,291.71624755859375 441.7027587890625,301.93988037109375 429.4267883300781,298.0347900390625 429.4267883300781,285.39764404296875 441.7027587890625,281.4925537109375 449.2897644042969,291.71624755859375 " stroke-width="0.5" transform="rotate(162.0925750732422 439.35827636718744,291.71621704101557) "/>
  <polygon id="svg_42" fill="#f2a2a2" points="449.6852722167969,290.0625305175781 441.895263671875,300.6145324707031 429.2908020019531,296.5840148925781 429.2908020019531,283.5409851074219 441.895263671875,279.5104675292969 449.6852722167969,290.0625305175781 " stroke-width="0.5" transform="rotate(162.0925750732422 439.488037109375,290.06249999999994) " stroke="#ffaaaa"/>
  <path fill="#f9e8e8" stroke-width="0" stroke-dasharray="null" stroke-linejoin="null" stroke-linecap="null" d="m421.16013,286.41625l3.16406,-16.33329l10.54687,0l3.16406,16.33329l-16.87499,0z" id="svg_38" transform="rotate(-36.16539001464844 429.597625732422,278.2496032714844) " stroke="#000000"/>
  <path fill="#fceaea" stroke-width="0" stroke-dasharray="null" stroke-linejoin="null" stroke-linecap="null" d="m444.07941,287.03721l3.16406,-16.92523l10.54687,0l3.16406,16.92523l-16.87499,0z" transform="rotate(33.21649932861328 452.51690673828136,278.5745849609375) " id="svg_39" stroke="#000000"/>
  <path stroke="#000000" fill="#96c7f7" stroke-width="0" stroke-dasharray="null" stroke-linejoin="null" stroke-linecap="null" d="m278.61996,356.66808l27.01531,-23.75392l90.05105,0l27.01531,23.75392l-144.08167,0z" id="svg_45" transform="rotate(111.09688568115234 350.6607971191406,344.7911376953125) "/>
  <path fill="#96c7f7" stroke-width="0" stroke-dasharray="null" stroke-linejoin="null" stroke-linecap="null" d="m316.15695,420.40827l15.74482,-23.52799l52.48275,0l15.74482,23.52799l-83.9724,0l0.00001,0z" transform="rotate(14.834538459777832 358.1431274414064,408.6442871093749) " id="svg_46" stroke="#000000"/>
  <ellipse fill="#ffffff" stroke-width="null" stroke-dasharray="null" stroke-linejoin="null" stroke-linecap="null" opacity="0.8" cx="399.09055" cy="131.91136" id="svg_102" rx="32.45081" ry="36.84734" transform="rotate(8.746185302734375 399.09051513671886,131.91136169433605) " stroke="#f4eded"/>
  <ellipse fill="#ff0000" stroke-width="null" stroke-dasharray="null" stroke-linejoin="null" stroke-linecap="null" cx="397.58335" cy="134.1852" rx="18.66666" ry="28.25001" opacity="0.2" id="svg_97" stroke="#f4eded"/>
  <ellipse fill="#ffffff" stroke-width="null" stroke-dasharray="null" stroke-linejoin="null" stroke-linecap="null" opacity="0.8" cx="504.93352" cy="133.01542" rx="29.97989" ry="36.84734" transform="rotate(8.746185302734375 504.9335021972657,133.01542663574227) " id="svg_103" stroke="#f4eded"/>
  <ellipse fill="#ff0000" stroke-width="null" stroke-dasharray="null" stroke-linejoin="null" stroke-linecap="null" cx="509.58335" cy="134.1852" rx="18.66666" ry="28.25001" opacity="0.2" stroke="#f4eded" id="svg_101"/>
  <path stroke="#000000" id="svg_11" fill="#96c7f7" stroke-width="0" stroke-dasharray="null" stroke-linejoin="null" stroke-linecap="null" d="m446.48059,332.95783l26.66666,25.5955l88.88888,0l26.66666,-25.5955l-142.2222,0z" transform="rotate(82.38456726074219 517.5916748046875,345.7555847167969) "/>
  <path stroke="#000000" id="svg_12" fill="#96c7f7" stroke-width="0" stroke-dasharray="null" stroke-linejoin="null" stroke-linecap="null" d="m463.38513,393.61652l14.18522,25.5955l47.28409,0l14.18522,-25.5955l-75.65453,0z" transform="rotate(171.9262237548828 501.21240234375,406.41424560546875) "/>
  <path stroke="#000000" transform="rotate(-47.03377151489258 440.9102783203125,273.3675231933593) " id="svg_17" d="m436.04966,278.60474l0,-10.47444l9.72125,10.47444l-9.72125,0z" stroke-linecap="null" stroke-linejoin="null" stroke-dasharray="null" stroke-width="0" fill="#ffffff"/>
  <path fill="#aefcd4" stroke-width="0" stroke-dasharray="null" stroke-linejoin="null" stroke-linecap="null" d="m442.49043,278.67541l0,-6.00604l4.40498,6.00604l-4.40498,0z" id="svg_13" transform="rotate(89.81228637695312 444.6929321289063,275.6723937988281) " stroke="#000000"/>
  <path stroke="#000000" transform="rotate(55.79920959472656 437.38006591796875,286.54150390624994) " opacity="0.2" id="svg_5" d="m434.54614,291.38968l0,-9.69634l5.66785,9.69634l-5.66785,0z" stroke-width="0" fill="#f76f6f"/>
  <path stroke="#000000" transform="rotate(-3.7045717239379883 413.00930786132824,47.95710754394486) " id="svg_44" d="m400.51125,60.45515l0,-24.99609l24.99609,24.99609l-24.99609,0z" opacity="0.1" stroke-linecap="null" stroke-linejoin="null" stroke-dasharray="null" stroke-width="0" fill="#0000ff"/>
  <ellipse stroke="#000000" transform="rotate(0.23202238976955414 450.2034301757799,75.92092895507764) " opacity="0.1" id="svg_47" stroke-width="0" fill="#0000ff" stroke-dasharray="null" stroke-linejoin="null" stroke-linecap="null" cx="450.20349" cy="75.92093" rx="93.88148" ry="6.55664"/>
  <rect stroke="#000000" transform="rotate(21.94244956970215 357.16326904296915,357.4451904296875) " id="svg_49" height="77.58205" width="2.07804" y="318.65415" x="356.12424" opacity="0.1" stroke-linecap="null" stroke-linejoin="null" stroke-dasharray="null" stroke-width="0" fill="#0000ff"/>
  <rect stroke="#000000" id="svg_50" transform="rotate(7.1060895919799805 499.19406127929767,414.0574951171877) " height="134.33293" width="1.12688" y="346.89105" x="498.63061" opacity="0.05" stroke-linecap="null" stroke-linejoin="null" stroke-dasharray="null" stroke-width="0" fill="#0000ff"/>
  <rect stroke="#a8a8f7" transform="rotate(0.8303287029266357 486.458251953125,337.9836730957036) " id="svg_55" height="1.37538" width="32.79061" y="337.29597" x="470.06297" opacity="0.05" stroke-linecap="null" stroke-linejoin="null" stroke-dasharray="null" stroke-width="0.5" fill="#0000ff"/>
  <line stroke="#f9f9f9" stroke-width="0.5" id="svg_76" y2="382.20706" x2="432.61718" y1="274.02825" x1="413.88124" opacity="0.2" stroke-linecap="null" stroke-linejoin="null" stroke-dasharray="null" fill="none"/>
  <line id="svg_107" stroke="#fcf9f9" transform="rotate(178.48080444335938 458.50769042968744,327.62872314453125) " stroke-width="0.5" y2="381.10138" x2="452.77724" y1="274.15607" x1="464.23814" opacity="0.2" stroke-linecap="null" stroke-linejoin="null" stroke-dasharray="null" fill="none"/>
  <line stroke="#fcf9f9" id="svg_108" transform="rotate(163.63064575195312 469.44567871093744,293.03271484375006) " stroke-width="0.5" y2="308.65315" x2="463.13902" y1="277.41223" x1="475.75235" opacity="0.2" stroke-linecap="null" stroke-linejoin="null" stroke-dasharray="null" fill="none"/>
  <line stroke-width="0.5" y2="427.75747" x2="426.23282" y1="320.82076" x1="413.69346" opacity="0.2" stroke-linecap="null" stroke-linejoin="null" stroke-dasharray="null" fill="none" id="svg_14" transform="rotate(-4.867252826690674 419.96313476562364,374.2891235351559) " stroke="#f9f9f9"/>
  <line stroke-width="0.5" y2="303.10885" x2="410.5563" y1="276.10216" x1="391.82036" opacity="0.2" stroke-linecap="null" stroke-linejoin="null" stroke-dasharray="null" fill="none" transform="rotate(-131.8517303466797 401.1883544921875,289.60552978515625) " id="svg_30" stroke="#f9f9f9"/>
  <line stroke-width="0.5" y2="303.88009" x2="413.10733" y1="276.8734" x1="394.37139" opacity="0.2" stroke-linecap="null" stroke-linejoin="null" stroke-dasharray="null" fill="none" transform="rotate(-131.8517303466797 403.7393798828125,290.3767700195313) " stroke="#f9f9f9" id="svg_33"/>
  <line stroke-width="0.5" y2="320.5423" x2="406.90471" y1="309.39261" x1="397.66703" opacity="0.2" stroke-linecap="null" stroke-linejoin="null" stroke-dasharray="null" fill="none" transform="rotate(-20.33264923095703 402.28585815429693,314.9674682617187) " id="svg_37" stroke="#7656f7"/>
  <line stroke-width="0.5" y2="319.11848" x2="406.37077" y1="307.96879" x1="397.13309" opacity="0.2" stroke-linecap="null" stroke-linejoin="null" stroke-dasharray="null" fill="none" transform="rotate(-20.33264923095703 401.7519226074218,313.54364013671875) " stroke="#f9f9f9" id="svg_48"/>
  <line stroke-width="0.5" y2="279.86353" x2="419.32513" y1="272.0575" x1="414.4499" opacity="0.2" stroke-linecap="null" stroke-linejoin="null" stroke-dasharray="null" fill="none" transform="rotate(-50.29644775390625 416.8875122070312,275.96051025390625) " id="svg_69" stroke="#f9f9f9"/>
  <line stroke-width="0.5" y2="281.64331" x2="467.95776" y1="273.83729" x1="463.08253" opacity="0.2" stroke-linecap="null" stroke-linejoin="null" stroke-dasharray="null" fill="none" transform="rotate(-50.29644775390625 465.52014160156256,277.74029541015625) " stroke="#f9f9f9" id="svg_70"/>
  <line stroke-width="0.5" y2="320.35364" x2="427.91259" y1="312.54761" x1="423.03736" opacity="0.2" stroke-linecap="null" stroke-linejoin="null" stroke-dasharray="null" fill="none" transform="rotate(-50.29644775390625 425.4749755859376,316.4506225585938) " stroke="#f9f9f9" id="svg_99"/>
  <line stroke-width="0.5" y2="290.76465" x2="422.90375" y1="281.84638" x1="417.2785" opacity="0.2" stroke-linecap="null" stroke-linejoin="null" stroke-dasharray="null" fill="none" transform="rotate(-50.29644775390625 420.0911254882813,286.3055114746094) " id="svg_109" stroke="#f9f9f9"/>
  <line stroke-width="0.5" y2="333.83545" x2="430.20087" y1="324.91718" x1="424.57562" opacity="0.2" stroke-linecap="null" stroke-linejoin="null" stroke-dasharray="null" fill="none" transform="rotate(-50.29644775390625 427.3882446289063,329.3763122558594) " stroke="#f9f9f9" id="svg_110"/>
  <line stroke-width="0.5" y2="305.53687" x2="426.81928" y1="296.6186" x1="421.19403" opacity="0.2" stroke-linecap="null" stroke-linejoin="null" stroke-dasharray="null" fill="none" transform="rotate(-50.29644775390625 424.0066528320312,301.0777282714844) " stroke="#f9f9f9" id="svg_111"/>
  <line stroke-width="0.5" y2="301.79932" x2="428.95502" y1="292.88105" x1="423.32977" opacity="0.2" stroke-linecap="null" stroke-linejoin="null" stroke-dasharray="null" fill="none" transform="rotate(-50.29644775390625 426.14239501953136,297.34017944335943) " stroke="#f9f9f9" id="svg_112"/>
  <line stroke-width="0.5" y2="331.57618" x2="460.20581" y1="323.77015" x1="455.33058" opacity="0.2" stroke-linecap="null" stroke-linejoin="null" stroke-dasharray="null" fill="none" transform="rotate(-50.29644775390625 457.76818847656256,327.6731567382813) " stroke="#f9f9f9" id="svg_113"/>
  <line stroke-width="0.5" y2="301.37196" x2="466.62268" y1="288.63647" x1="457.65443" opacity="0.2" stroke-linecap="null" stroke-linejoin="null" stroke-dasharray="null" fill="none" transform="rotate(-50.29644775390625 462.1385498046876,295.0042114257813) " id="svg_114" stroke="#f9f9f9"/>
  <line stroke-width="0.5" y2="314.73722" x2="464.08587" y1="303.08036" x1="456.18672" opacity="0.2" stroke-linecap="null" stroke-linejoin="null" stroke-dasharray="null" fill="none" transform="rotate(-50.29644775390625 460.13629150390636,308.9087829589845) " id="svg_115" stroke="#f9f9f9"/>
  <line stroke-width="0.5" y2="316.0881" x2="463.69894" y1="308.49266" x1="458.70939" opacity="0.2" stroke-linecap="null" stroke-linejoin="null" stroke-dasharray="null" fill="none" transform="rotate(-50.29644775390625 461.2041625976563,312.29037475585943) " id="svg_116" stroke="#f9f9f9"/>
  <line stroke-width="0.5" y2="334.65649" x2="462.74452" y1="327.80897" x1="458.66515" opacity="0.2" stroke-linecap="null" stroke-linejoin="null" stroke-dasharray="null" fill="none" transform="rotate(-50.29644775390625 460.7048339843751,331.23272705078136) " id="svg_117" stroke="#f9f9f9"/>
  <path fill="#ffffff" stroke-width="0" stroke-dasharray="null" stroke-linejoin="null" stroke-linecap="null" opacity="0.08" d="m446.96076,313.44429l0,-12.16586l-4.19238,12.16586l4.19238,0z" id="svg_118" transform="rotate(173.15847778320312 444.86456298828125,307.3613586425781) " stroke="#000000"/>
  <path fill="#f47373" stroke-width="0" stroke-dasharray="null" stroke-linejoin="null" stroke-linecap="null" opacity="0.1" d="m442.51062,316.75631l0,-16.84861l-1.66113,16.84861l1.66113,0z" stroke="#000000" id="svg_119" transform="rotate(-6.305873870849609 441.68005371093767,308.3320312500002) "/>
  <path fill="#f96b6b" stroke-width="0" stroke-dasharray="null" stroke-linejoin="null" stroke-linecap="null" opacity="0.15" d="m445.24702,303.40734l0,-5.49796l-1.23897,5.49796l1.23897,0z" transform="rotate(-118.02008056640625 444.6275329589844,300.65838623046875) " id="svg_120" stroke="#000000"/>
  <ellipse id="svg_121" ry="5.96228" rx="6.76318" cy="463.12631" cx="597.36181" stroke-linecap="null" stroke-linejoin="null" stroke-dasharray="null" stroke-width="0" fill="#269b5f" stroke="#000000"/>
  <ellipse id="svg_122" ry="5.96228" rx="6.76318" cy="463.12631" cx="589.36181" stroke-linecap="null" stroke-linejoin="null" stroke-dasharray="null" stroke-width="0" fill="#269b5f" stroke="#000000"/>
  <ellipse id="svg_123" ry="5.96228" rx="6.76318" cy="463.12631" cx="606.36181" stroke-linecap="null" stroke-linejoin="null" stroke-dasharray="null" stroke-width="0" fill="#269b5f" stroke="#000000"/>
  <ellipse id="svg_124" ry="5.96228" rx="6.76318" cy="457.12631" cx="593.36181" stroke-linecap="null" stroke-linejoin="null" stroke-dasharray="null" stroke-width="0" fill="#269b5f" stroke="#000000"/>
  <ellipse id="svg_125" ry="5.96228" rx="6.76318" cy="457.12631" cx="601.36181" stroke-linecap="null" stroke-linejoin="null" stroke-dasharray="null" stroke-width="0" fill="#269b5f" stroke="#000000"/>
  <line id="svg_126" y2="440.29925" x2="66.97811" y1="462.44769" x1="66.97811" opacity="0.29" stroke-linecap="null" stroke-linejoin="null" stroke-dasharray="null" stroke="#000000" fill="none"/>
  <line stroke="#000000" stroke-width="0.8" transform="rotate(91.08499908447266 73.00974273681638,439.88134765624994) " id="svg_127" y2="433.53439" x2="73.00973" y1="446.22829" x1="73.00973" opacity="0.29" stroke-linecap="null" stroke-linejoin="null" stroke-dasharray="null" fill="none"/>
  <line id="svg_128" y2="440.61566" x2="79.31795" y1="462.76409" x1="79.31795" opacity="0.29" stroke-linecap="null" stroke-linejoin="null" stroke-dasharray="null" stroke="#000000" fill="none"/>
  <rect id="svg_129" height="7.91016" width="2.53125" y="444.60237" x="69.12967" opacity="0.2" stroke-linecap="null" stroke-linejoin="null" stroke-dasharray="null" stroke-width="0" stroke="#000000" fill="#d9f9f9"/>
  <rect id="svg_130" height="7.91016" width="2.53125" y="444.60237" x="73.87577" opacity="0.2" stroke-linecap="null" stroke-linejoin="null" stroke-dasharray="null" stroke-width="0" stroke="#000000" fill="#d9f9f9"/>
  <rect id="svg_131" height="7.91016" width="2.53125" y="453.46175" x="69.44608" opacity="0.2" stroke-linecap="null" stroke-linejoin="null" stroke-dasharray="null" stroke-width="0" stroke="#000000" fill="#d9f9f9"/>
  <rect id="svg_132" height="7.91016" width="2.53125" y="453.46175" x="73.87577" opacity="0.2" stroke-linecap="null" stroke-linejoin="null" stroke-dasharray="null" stroke-width="0" stroke="#000000" fill="#d9f9f9"/>
  <line id="svg_133" y2="440.39813" x2="298.86434" y1="462.54656" x1="298.86434" opacity="0.29" stroke-linecap="null" stroke-linejoin="null" stroke-dasharray="null" stroke="#000000" fill="none"/>
  <line id="svg_134" stroke="#000000" stroke-width="0.8" transform="rotate(91.08499908447266 304.8959655761718,439.980224609375) " y2="433.63327" x2="304.89596" y1="446.32717" x1="304.89596" opacity="0.29" stroke-linecap="null" stroke-linejoin="null" stroke-dasharray="null" fill="none"/>
  <line id="svg_135" y2="440.71453" x2="311.20418" y1="462.86297" x1="311.20418" opacity="0.29" stroke-linecap="null" stroke-linejoin="null" stroke-dasharray="null" stroke="#000000" fill="none"/>
  <line id="svg_136" y2="439.39137" x2="524.01966" y1="461.53981" x1="524.01966" opacity="0.29" stroke-linecap="null" stroke-linejoin="null" stroke-dasharray="null" stroke="#000000" fill="none"/>
  <line id="svg_137" stroke="#000000" stroke-width="0.8" transform="rotate(91.08499908447266 530.05126953125,438.9734802246093) " y2="432.62652" x2="530.05129" y1="445.32042" x1="530.05129" opacity="0.29" stroke-linecap="null" stroke-linejoin="null" stroke-dasharray="null" fill="none"/>
  <line id="svg_138" y2="439.70778" x2="536.35951" y1="461.85622" x1="536.35951" opacity="0.29" stroke-linecap="null" stroke-linejoin="null" stroke-dasharray="null" stroke="#000000" fill="none"/>
  <rect stroke="#000000" id="svg_143" height="7.91016" width="7.78125" y="442.35237" x="526.62961" opacity="0.2" stroke-linecap="null" stroke-linejoin="null" stroke-dasharray="null" stroke-width="0" fill="#d9f9f9"/>
  <rect id="svg_144" stroke="#000000" height="7.91016" width="7.78125" y="451.35237" x="526.62961" opacity="0.2" stroke-linecap="null" stroke-linejoin="null" stroke-dasharray="null" stroke-width="0" fill="#d9f9f9"/>
  <path stroke="#000000" id="svg_145" transform="rotate(-91.46076965332031 460.94766235351557,39.31911849975588) " d="m441.54476,69.5665l0,-60.49477l38.80581,60.49477l-38.80581,0z" opacity="0.05" stroke-linecap="null" stroke-linejoin="null" stroke-dasharray="null" stroke-width="0" fill="#0000ff"/>
  <path stroke="#000000" id="svg_146" transform="rotate(-46.78553771972656 426.6560668945312,35.95090484619137) " d="m408.62334,54.6978l0,-37.4938l36.06548,37.4938l-36.06548,0z" opacity="0.03" stroke-linecap="null" stroke-linejoin="null" stroke-dasharray="null" stroke-width="0" fill="#0000ff"/>
  <path stroke="#000000" id="svg_147" transform="rotate(37.131507873535156 415.10052490234364,297.2842407226562) " d="m400.26693,315.49457l0,-36.42064l29.66717,36.42064l-29.66717,0z" opacity="0.05" stroke-linecap="null" stroke-linejoin="null" stroke-dasharray="null" stroke-width="0" fill="#0000ff"/>
  <ellipse stroke="#000000" id="svg_148" transform="rotate(79.93048095703125 425.0903930664063,366.61212158203125) " opacity="0.05" stroke-width="0" fill="#0000ff" stroke-dasharray="null" stroke-linejoin="null" stroke-linecap="null" cx="425.09037" cy="366.61212" rx="93.88148" ry="3.11504"/>
  <path stroke="#000000" id="svg_149" transform="rotate(-140.13211059570312 473.7672424316406,302.61761474609375) " d="m460.72832,314.58731l0,-23.93942l26.07787,23.93942l-26.07787,0z" opacity="0.05" stroke-linecap="null" stroke-linejoin="null" stroke-dasharray="null" stroke-width="0" fill="#0000ff"/>
 </g>
</svg>
