<svg width="640" height="479.9999999999999" xmlns="http://www.w3.org/2000/svg" xmlns:svg="http://www.w3.org/2000/svg">
 <!-- Created with SVG-edit - http://svg-edit.googlecode.com/ -->
 <g>
  <title>Layer 1</title>
  <rect stroke="#000000" id="svg_57" height="477.75001" width="640.50001" y="1.15844" x="-3.39625" stroke-linecap="null" stroke-linejoin="null" stroke-dasharray="null" stroke-width="0" fill="#d9f9f9"/>
  <circle id="svg_56" stroke="#000000" r="157.12877" cy="183.74999" cx="190.25001" stroke-linecap="null" stroke-linejoin="null" stroke-dasharray="null" stroke-width="0" fill="#ffffff"/>
  <ellipse id="svg_8" cy="210" cx="252.50002" stroke-linecap="null" stroke-linejoin="null" stroke-dasharray="null" stroke-width="3" stroke="#000000" fill="#000000"/>
  <circle opacity="0.2" stroke="#000000" id="svg_31" r="157.12877" cy="184.49999" cx="190.25001" stroke-linecap="null" stroke-linejoin="null" stroke-dasharray="null" stroke-width="0" fill="#f27100"/>
  <polygon opacity="0.2" fill="#f9b87a" id="svg_40"/>
  <polygon opacity="0.2" fill="#f9b87a" id="svg_41"/>
  <circle id="svg_51" r="127.35433" cy="184.33333" cx="179.91669" opacity="0.1" stroke-linecap="null" stroke-linejoin="null" stroke-dasharray="null" stroke-width="0" stroke="#000000" fill="#ed9038"/>
  <circle stroke="#000000" id="svg_52" r="95.10434" cy="181.08333" cx="177.79169" opacity="0.15" stroke-linecap="null" stroke-linejoin="null" stroke-dasharray="null" stroke-width="0" fill="#ed9038"/>
  <circle stroke="#000000" id="svg_53" r="68.47934" cy="184.29167" cx="172.41669" opacity="0.15" stroke-linecap="null" stroke-linejoin="null" stroke-dasharray="null" stroke-width="0" fill="#ed9038"/>
  <circle stroke="#000000" id="svg_54" r="46.72934" cy="183.16667" cx="170.41669" opacity="0.5" stroke-linecap="null" stroke-linejoin="null" stroke-dasharray="null" stroke-width="0" fill="#fca553"/>
  <path stroke="#000000" id="svg_58" d="m234.07157,421.55588l69.52481,-28.3609l69.52497,28.3609l-26.55606,45.88909l-85.93759,0l-26.55613,-45.88909z" opacity="0.5" stroke-linecap="null" stroke-linejoin="null" stroke-dasharray="null" stroke-width="0" fill="#7fff00"/>
  <path id="svg_59" stroke="#000000" d="m458.32157,421.64377l69.52481,-28.3609l69.52497,28.3609l-26.55606,45.8891l-85.93759,0l-26.55613,-45.8891z" opacity="0.5" stroke-linecap="null" stroke-linejoin="null" stroke-dasharray="null" stroke-width="0" fill="#ff0000"/>
  <path id="svg_60" stroke="#000000" d="m2.44022,421.74118l69.52481,-28.3609l69.52497,28.3609l-26.55606,45.8891l-85.93759,0l-26.55613,-45.8891z" opacity="0.47" stroke-linecap="null" stroke-linejoin="null" stroke-dasharray="null" stroke-width="0" fill="#ff00ff"/>
  <rect stroke="#000000" id="svg_61" height="12.75" width="644.75002" y="467.48731" x="-4.28511" opacity="0.5" stroke-linecap="null" stroke-linejoin="null" stroke-dasharray="null" stroke-width="0" fill="#007f00"/>
  <rect transform="rotate(24.075510025024414 109.06964111328122,406.325439453125) " id="svg_62" height="7.09884" width="76.95225" y="402.77604" x="70.59351" stroke-linecap="null" stroke-linejoin="null" stroke-dasharray="null" stroke-width="0" fill="#605757" stroke="#000000"/>
  <rect id="svg_63" transform="rotate(-22.459980010986328 39.18001556396506,405.97583007812506) " height="7.16781" width="82.33235" y="402.39195" x="-1.98616" stroke-linecap="null" stroke-linejoin="null" stroke-dasharray="null" stroke-width="0" fill="#605757" stroke="#000000"/>
  <rect id="svg_64" stroke="#000000" transform="rotate(-25.763994216918945 268.30026245117176,407.92047119140625) " height="6.47191" width="82.33235" y="404.6845" x="227.13408" stroke-linecap="null" stroke-linejoin="null" stroke-dasharray="null" stroke-width="0" fill="#605757"/>
  <rect stroke="#000000" id="svg_66" transform="rotate(24.075510025024414 337.97326660156284,406.5598754882812) " height="6.47191" width="79.69128" y="403.3239" x="298.12763" stroke-linecap="null" stroke-linejoin="null" stroke-dasharray="null" stroke-width="0" fill="#605757"/>
  <rect id="svg_67" stroke="#605757" transform="rotate(-25.763994216918945 491.80026245117176,409.4204711914063) " height="6.47191" width="82.33235" y="406.1845" x="450.63408" stroke-linecap="null" stroke-linejoin="null" stroke-dasharray="null" stroke-width="0" fill="#605757"/>
  <rect id="svg_68" stroke="#000000" transform="rotate(24.403202056884766 563.0502929687499,407.9204711914062) " height="6.47191" width="82.33235" y="404.6845" x="521.88408" stroke-linecap="null" stroke-linejoin="null" stroke-dasharray="null" stroke-width="0" fill="#605757"/>
  <rect opacity="0.4" stroke="#000000" id="svg_73" height="23.0625" width="12.375" y="440.25002" x="67.06245" stroke-linecap="null" stroke-linejoin="null" stroke-dasharray="null" stroke-width="0" fill="#ff0000" transform="rotate(2.208430290222168 73.24995422363554,451.78124999999994) "/>
  <rect id="svg_74" opacity="0.4" stroke="#000000" height="23.0625" width="12.375" y="440.25002" x="298.81245" stroke-linecap="null" stroke-linejoin="null" stroke-dasharray="null" stroke-width="0" fill="#ff0000"/>
  <rect id="svg_75" opacity="0.4" stroke="#000000" height="23.0625" width="12.375" y="439.12502" x="523.68745" stroke-linecap="null" stroke-linejoin="null" stroke-dasharray="null" stroke-width="0" fill="#ff0000"/>
  <rect opacity="0.4" id="svg_77" height="15" width="19.5" y="435" x="34.25002" stroke-linecap="null" stroke-linejoin="null" stroke-dasharray="null" stroke-width="0" stroke="#000000" fill="#00ffff"/>
  <rect id="svg_78" opacity="0.4" height="15" width="19.5" y="433.5" x="265.25002" stroke-linecap="null" stroke-linejoin="null" stroke-dasharray="null" stroke-width="0" stroke="#000000" fill="#00ffff"/>
  <rect id="svg_79" opacity="0.4" height="15" width="19.5" y="434.625" x="489.12502" stroke-linecap="null" stroke-linejoin="null" stroke-dasharray="null" stroke-width="0" stroke="#000000" fill="#00ffff"/>
  <rect stroke="#000000" id="svg_80" height="1.42383" width="20.88281" y="462.81152" x="62.89645" stroke-linecap="null" stroke-linejoin="null" stroke-dasharray="null" stroke-width="0" fill="#7f7f7f"/>
  <rect id="svg_81" stroke="#000000" height="1.42383" width="20.88281" y="465.18457" x="62.81735" stroke-linecap="null" stroke-linejoin="null" stroke-dasharray="null" stroke-width="0" fill="#7f7f7f"/>
  <rect id="svg_82" stroke="#000000" height="1.42383" width="20.88281" y="467.71582" x="64.63668" stroke-linecap="null" stroke-linejoin="null" stroke-dasharray="null" stroke-width="0" fill="#7f7f7f"/>
  <rect id="svg_83" stroke="#000000" height="1.42383" width="20.88281" y="463.76074" x="63.37106" stroke-linecap="null" stroke-linejoin="null" stroke-dasharray="null" stroke-width="0" fill="#565555"/>
  <rect id="svg_84" stroke="#000000" height="1.42383" width="20.88281" y="466.37109" x="64.32028" stroke-linecap="null" stroke-linejoin="null" stroke-dasharray="null" stroke-width="0" fill="#565555"/>
  <rect id="svg_85" stroke="#000000" height="1.42383" width="20.88281" y="461.82934" x="293.74118" stroke-linecap="null" stroke-linejoin="null" stroke-dasharray="null" stroke-width="0" fill="#7f7f7f"/>
  <rect id="svg_86" stroke="#000000" height="1.42383" width="20.88281" y="464.20239" x="293.66208" stroke-linecap="null" stroke-linejoin="null" stroke-dasharray="null" stroke-width="0" fill="#7f7f7f"/>
  <rect id="svg_87" stroke="#000000" height="1.42383" width="20.88281" y="466.73364" x="293.70163" stroke-linecap="null" stroke-linejoin="null" stroke-dasharray="null" stroke-width="0" fill="#7f7f7f"/>
  <rect stroke="#000000" id="svg_88" height="1.42383" width="19.63696" y="462.77856" x="294.21579" stroke-linecap="null" stroke-linejoin="null" stroke-dasharray="null" stroke-width="0" fill="#565555"/>
  <rect stroke="#000000" id="svg_89" height="1.42383" width="19.63696" y="465.56689" x="294.27511" stroke-linecap="null" stroke-linejoin="null" stroke-dasharray="null" stroke-width="0" fill="#565555"/>
  <rect id="svg_90" stroke="#000000" height="1.42383" width="20.88281" y="461.31524" x="519.35862" stroke-linecap="null" stroke-linejoin="null" stroke-dasharray="null" stroke-width="0" fill="#7f7f7f"/>
  <rect id="svg_91" stroke="#000000" height="1.42383" width="20.88281" y="463.68829" x="519.27952" stroke-linecap="null" stroke-linejoin="null" stroke-dasharray="null" stroke-width="0" fill="#7f7f7f"/>
  <rect id="svg_92" stroke="#000000" height="1.42383" width="20.88281" y="466.21954" x="521.09886" stroke-linecap="null" stroke-linejoin="null" stroke-dasharray="null" stroke-width="0" fill="#7f7f7f"/>
  <rect id="svg_93" stroke="#000000" height="1.42383" width="20.88281" y="462.26446" x="519.83323" stroke-linecap="null" stroke-linejoin="null" stroke-dasharray="null" stroke-width="0" fill="#565555"/>
  <rect id="svg_94" stroke="#000000" height="1.42383" width="20.88281" y="464.87482" x="520.78245" stroke-linecap="null" stroke-linejoin="null" stroke-dasharray="null" stroke-width="0" fill="#565555"/>
  <rect id="svg_96" opacity="0.4" height="15" width="19.5" y="435.00001" x="91.13891" stroke-linecap="null" stroke-linejoin="null" stroke-dasharray="null" stroke-width="0" stroke="#000000" fill="#00ffff"/>
  <rect opacity="0.5" height="15" width="19.5" y="433.8278" x="265.34052" stroke-linecap="null" stroke-linejoin="null" stroke-dasharray="null" stroke-width="0" stroke="#000000" fill="#00ffff" id="svg_1"/>
  <rect opacity="0.4" height="15" width="19.5" y="433.5" x="325.25002" stroke-linecap="null" stroke-linejoin="null" stroke-dasharray="null" stroke-width="0" stroke="#000000" fill="#00ffff" id="svg_2"/>
  <rect opacity="0.4" height="15" width="19.5" y="433.20638" x="325.5215" stroke-linecap="null" stroke-linejoin="null" stroke-dasharray="null" stroke-width="0" stroke="#000000" fill="#00ffff" id="svg_3"/>
  <rect opacity="0.4" height="15" width="19.5" y="435.95833" x="549.12502" stroke-linecap="null" stroke-linejoin="null" stroke-dasharray="null" stroke-width="0" stroke="#000000" fill="#00ffff" id="svg_4"/>
  <ellipse fill="#ff7f00" stroke-width="0" stroke-dasharray="null" stroke-linejoin="null" stroke-linecap="null" cx="77.45551" cy="452.03176" id="svg_19" rx="0.29443" ry="0.53174" stroke="#000000"/>
  <ellipse fill="#ff7f00" stroke="#000000" stroke-width="0" stroke-dasharray="null" stroke-linejoin="null" stroke-linecap="null" cx="90.68745" cy="420.00002" id="svg_20"/>
  <ellipse fill="#ffff00" stroke-width="0" stroke-dasharray="null" stroke-linejoin="null" stroke-linecap="null" cx="309.16596" cy="451.42971" rx="0.33398" ry="0.49219" id="svg_23" stroke="#000000"/>
  <ellipse fill="#ff7f00" stroke-width="0" stroke-dasharray="null" stroke-linejoin="null" stroke-linecap="null" cx="534.24854" cy="451.94382" rx="0.81299" ry="0.38232" id="svg_24" stroke="#000000"/>
  <ellipse fill="#22965a" stroke-width="0" stroke-dasharray="null" stroke-linejoin="null" stroke-linecap="null" cx="21.78124" cy="464.91977" id="svg_25" rx="6.76318" ry="5.96228" stroke="#000000"/>
  <ellipse fill="#007f3f" stroke="#000000" stroke-width="0" stroke-dasharray="null" stroke-linejoin="null" stroke-linecap="null" cx="19.05443" cy="447.09006" id="svg_26"/>
  <ellipse stroke="#000000" fill="#4c9b6f" stroke-width="0" stroke-dasharray="null" stroke-linejoin="null" stroke-linecap="null" cx="29.58373" cy="464.74179" rx="6.76318" ry="5.96228" id="svg_27"/>
  <ellipse stroke="#000000" fill="#269b5f" stroke-width="0" stroke-dasharray="null" stroke-linejoin="null" stroke-linecap="null" cx="38.36181" cy="465.12631" rx="6.76318" ry="5.96228" id="svg_28"/>
  <rect stroke="#000000" fill="#7f7f7f" stroke-width="0" stroke-dasharray="null" stroke-linejoin="null" stroke-linecap="null" x="86.32812" y="468.72656" width="27.21094" height="0.66794" id="svg_29" opacity="0.4"/>
  <ellipse id="svg_6" fill="#22965a" stroke-width="0" stroke-dasharray="null" stroke-linejoin="null" stroke-linecap="null" cx="255.57813" cy="467.07602" rx="6.76318" ry="5.96228" stroke="#000000"/>
  <ellipse id="svg_7" stroke="#000000" fill="#4c9b6f" stroke-width="0" stroke-dasharray="null" stroke-linejoin="null" stroke-linecap="null" cx="263.38062" cy="466.89804" rx="6.76318" ry="5.96228"/>
  <ellipse id="svg_9" stroke="#000000" fill="#269b5f" stroke-width="0" stroke-dasharray="null" stroke-linejoin="null" stroke-linecap="null" cx="272.1587" cy="467.28256" rx="6.76318" ry="5.96228"/>
  <ellipse ry="74.66667" rx="10.66667" id="svg_21" cy="236.44445" cx="440.88889" stroke-linecap="null" stroke-linejoin="null" stroke-dasharray="null" stroke-width="0" stroke="#000000" fill="#ffffff"/>
  <ellipse stroke="#000000" ry="100.44445" rx="63.11111" id="svg_15" cy="134.22222" cx="447.11111" stroke-linecap="null" stroke-linejoin="null" stroke-dasharray="null" stroke-width="0" fill="#ffffff"/>
  <rect stroke="#f4eded" id="svg_10" height="41.60596" width="5.93628" y="234.75" x="441.60183" stroke-linecap="null" stroke-linejoin="null" stroke-dasharray="null" stroke-width="0" fill="#d9fcb5"/>
  <ellipse stroke="#f4eded" opacity="0.2" ry="99.00001" rx="56.66667" id="svg_65" cy="135.00002" cx="448.66668" stroke-linecap="null" stroke-linejoin="null" stroke-dasharray="null" stroke-width="null" fill="#7fff00"/>
  <ellipse stroke="#f4eded" id="svg_71" opacity="0.2" ry="84.00001" rx="52" cy="145.33335" cx="454.66668" stroke-linecap="null" stroke-linejoin="null" stroke-dasharray="null" stroke-width="null" fill="#7fff00"/>
  <ellipse stroke="#000000" ry="8.88889" rx="105.77778" id="svg_16" cy="76.44444" cx="438.22223" stroke-linecap="null" stroke-linejoin="null" stroke-dasharray="null" fill="#96c7f7" stroke-width="0"/>
  <path stroke="#000000" transform="rotate(-96.38416290283203 445.62036132812494,44.65236282348635) " id="svg_18" d="m421.5438,91.80836l9.02872,-94.31199l30.09573,0l9.02872,94.31199l-48.15317,0z" stroke-linecap="null" stroke-linejoin="null" stroke-dasharray="null" stroke-width="0" fill="#96c7f7"/>
  <path stroke="#000000" id="svg_22" d="m366.97624,274.76261l28.66666,205.55554l95.55555,0l28.66665,-205.55554l-152.88886,0z" stroke-linecap="null" stroke-linejoin="null" stroke-dasharray="null" stroke-width="0" fill="#96c7f7"/>
  <path transform="rotate(-179.98089599609375 443.30151367187506,361.6655883789062) " id="svg_32" d="m411.30268,448.96301l31.99884,-174.59486l31.99884,174.59486l-63.99767,0l-0.00001,0z" stroke-linecap="null" stroke-linejoin="null" stroke-dasharray="null" stroke-width="0" fill="#f9cccc" stroke="#000000"/>
  <line fill="none" stroke-dasharray="null" stroke-linejoin="null" stroke-linecap="null" opacity="0.2" x1="467.8109" y1="266.51617" x2="456.35" y2="373.46148" stroke-width="0.5" transform="rotate(178.48080444335938 462.0804443359375,319.98883056640625) " stroke="#fcf9f9" id="svg_105"/>
  <line fill="none" stroke-dasharray="null" stroke-linejoin="null" stroke-linecap="null" opacity="0.2" x1="418.69531" y1="272.23831" x2="436.73047" y2="379.18362" id="svg_95" stroke="#f9f7f7" stroke-width="0.5"/>
  <line fill="none" stroke-dasharray="null" stroke-linejoin="null" stroke-linecap="null" opacity="0.2" x1="422.25488" y1="276.92288" x2="440.29004" y2="383.86819" stroke="#f9f4f4" stroke-width="0.5" id="svg_98"/>
  <line fill="none" stroke-dasharray="null" stroke-linejoin="null" stroke-linecap="null" opacity="0.2" x1="425.65872" y1="274.0196" x2="443.69387" y2="380.96492" stroke="#fcf9f9" stroke-width="0.5" id="svg_100"/>
  <line fill="none" stroke-dasharray="null" stroke-linejoin="null" stroke-linecap="null" opacity="0.2" x1="457.119" y1="269.35065" x2="445.6581" y2="376.29596" stroke-width="0.5" id="svg_104" transform="rotate(178.48080444335938 451.3885498046875,322.82330322265625) " stroke="#fcf9f9"/>
  <line fill="none" stroke-dasharray="null" stroke-linejoin="null" stroke-linecap="null" opacity="0.2" x1="460.67857" y1="272.91022" x2="449.21767" y2="379.85553" stroke-width="0.5" transform="rotate(178.48080444335938 454.94812011718756,326.38287353515625) " stroke="#fcf9f9" id="svg_106"/>
  <rect stroke="#7656f7" transform="rotate(-3.095842123031616 451.153747558596,341.4255065917968) " id="svg_178" height="90.92448" width="0.7191" y="295.96329" x="450.79418" opacity="0.2" stroke-linecap="null" stroke-linejoin="null" stroke-dasharray="null" stroke-width="0" fill="#007fff"/>
  <polygon id="svg_43" transform="rotate(89.11648559570312 443.0076599121093,374.55505371093744) " stroke-width="0" points="523.7462768554688,374.5550537109375 462.06732177734375,385.37554931640625 362.26904296875,381.2424621582031 362.26904296875,367.8675842285156 462.06732177734375,363.73455810546875 523.7462768554688,374.5550537109375 " fill="#f2a2a2" stroke="#000000"/>
  <polygon fill="#ffffff" id="svg_34"/>
  <polygon fill="#ffffff" id="svg_35"/>
  <polygon fill="#ffffff" id="svg_36"/>
  <polygon transform="rotate(162.0925750732422 439.35827636718744,291.71621704101557) " stroke-width="0.5" points="449.2897644042969,291.71624755859375 441.7027587890625,301.93988037109375 429.4267883300781,298.0347900390625 429.4267883300781,285.39764404296875 441.7027587890625,281.4925537109375 449.2897644042969,291.71624755859375 " fill="#f2a2a2" id="svg_72" stroke="#ffaaaa"/>
  <polygon stroke="#ffaaaa" transform="rotate(162.0925750732422 439.488037109375,290.06249999999994) " stroke-width="0.8" points="449.6852722167969,290.0625305175781 441.895263671875,300.6145324707031 429.2908020019531,296.5840148925781 429.2908020019531,283.5409851074219 441.895263671875,279.5104675292969 449.6852722167969,290.0625305175781 " fill="#f2a2a2" id="svg_42"/>
  <path stroke="#000000" transform="rotate(-36.16539001464844 429.597625732422,278.24960327148443) " id="svg_38" d="m421.16013,286.41625l3.16406,-16.33329l10.54687,0l3.16406,16.33329l-16.87499,0z" stroke-linecap="null" stroke-linejoin="null" stroke-dasharray="null" stroke-width="0" fill="#f9e8e8"/>
  <path stroke="#000000" id="svg_182" fill="#f76f6f" stroke-width="0" d="m454.09879,292.15419l0,-17.31302l8.69714,17.31302l-8.69714,0z" opacity="0.15" transform="rotate(45.610191345214844 458.44735717773443,283.4976806640625) "/>
  <path stroke="#000000" id="svg_39" transform="rotate(33.21649932861328 452.51690673828136,278.5745849609375) " d="m444.07941,287.03721l3.16406,-16.92523l10.54687,0l3.16406,16.92523l-16.87499,0z" stroke-linecap="null" stroke-linejoin="null" stroke-dasharray="null" stroke-width="0" fill="#fceaea"/>
  <path transform="rotate(111.09688568115234 350.6607971191406,344.7911376953125) " id="svg_45" d="m278.61996,356.66808l27.01531,-23.75392l90.05105,0l27.01531,23.75392l-144.08167,0z" stroke-linecap="null" stroke-linejoin="null" stroke-dasharray="null" stroke-width="0" fill="#96c7f7" stroke="#000000"/>
  <path stroke="#000000" id="svg_46" transform="rotate(14.834538459777832 358.1431274414064,408.6442871093749) " d="m316.15695,420.40827l15.74482,-23.52799l52.48275,0l15.74482,23.52799l-83.9724,0l0.00001,0z" stroke-linecap="null" stroke-linejoin="null" stroke-dasharray="null" stroke-width="0" fill="#96c7f7"/>
  <ellipse stroke="#f4eded" transform="rotate(8.746185302734375 399.09051513671886,131.91136169433605) " ry="36.84734" rx="32.45081" id="svg_102" cy="131.91136" cx="399.09055" opacity="0.8" stroke-linecap="null" stroke-linejoin="null" stroke-dasharray="null" stroke-width="null" fill="#ffffff"/>
  <ellipse stroke="#f4eded" id="svg_97" opacity="0.2" ry="28.25001" rx="18.66666" cy="134.1852" cx="397.58335" stroke-linecap="null" stroke-linejoin="null" stroke-dasharray="null" stroke-width="null" fill="#ff0000"/>
  <ellipse stroke="#f4eded" id="svg_103" transform="rotate(8.746185302734375 504.9335021972657,133.01542663574227) " ry="36.84734" rx="29.97989" cy="133.01542" cx="504.93352" opacity="0.8" stroke-linecap="null" stroke-linejoin="null" stroke-dasharray="null" stroke-width="null" fill="#ffffff"/>
  <ellipse id="svg_101" stroke="#f4eded" opacity="0.2" ry="28.25001" rx="18.66666" cy="134.1852" cx="509.58335" stroke-linecap="null" stroke-linejoin="null" stroke-dasharray="null" stroke-width="null" fill="#ff0000"/>
  <path transform="rotate(82.38456726074219 517.5916748046875,345.7555847167969) " d="m446.48059,332.95783l26.66666,25.5955l88.88888,0l26.66666,-25.5955l-142.2222,0z" stroke-linecap="null" stroke-linejoin="null" stroke-dasharray="null" stroke-width="0" fill="#96c7f7" id="svg_11" stroke="#000000"/>
  <path transform="rotate(171.9262237548828 501.21240234375,406.41424560546875) " d="m463.38513,393.61652l14.18522,25.5955l47.28409,0l14.18522,-25.5955l-75.65453,0z" stroke-linecap="null" stroke-linejoin="null" stroke-dasharray="null" stroke-width="0" fill="#96c7f7" id="svg_12" stroke="#000000"/>
  <path fill="#ffffff" stroke-width="0" stroke-dasharray="null" stroke-linejoin="null" stroke-linecap="null" d="m436.04966,278.60474l0,-10.47444l9.72125,10.47444l-9.72125,0z" id="svg_17" transform="rotate(-47.03377151489258 440.91027832031267,273.36752319335943) " stroke="#000000"/>
  <path opacity="0.3" stroke="#000000" transform="rotate(89.81228637695312 444.6929321289063,275.6723937988281) " id="svg_13" d="m442.49043,278.67541l0,-6.00604l4.40498,6.00604l-4.40498,0z" stroke-linecap="null" stroke-linejoin="null" stroke-dasharray="null" stroke-width="0" fill="#7fff00"/>
  <path fill="#f76f6f" stroke-width="0" d="m434.54614,291.38968l0,-9.69634l5.66785,9.69634l-5.66785,0z" id="svg_5" opacity="0.2" transform="rotate(55.79920959472656 437.3800659179688,286.54150390624994) " stroke="#000000"/>
  <path fill="#0000ff" stroke-width="0" stroke-dasharray="null" stroke-linejoin="null" stroke-linecap="null" opacity="0.1" d="m400.51125,60.45515l0,-24.99609l24.99609,24.99609l-24.99609,0z" id="svg_44" transform="rotate(-3.7045717239379883 413.00930786132824,47.95710754394486) " stroke="#000000"/>
  <ellipse ry="6.55664" rx="93.88148" cy="75.92093" cx="450.20349" stroke-linecap="null" stroke-linejoin="null" stroke-dasharray="null" fill="#0000ff" stroke-width="0" id="svg_47" opacity="0.1" transform="rotate(0.23202238976955414 450.2034301757799,75.92092895507764) " stroke="#000000"/>
  <rect fill="#0000ff" stroke-width="0" stroke-dasharray="null" stroke-linejoin="null" stroke-linecap="null" opacity="0.1" x="356.12424" y="318.65415" width="2.07804" height="77.58205" id="svg_49" transform="rotate(21.94244956970215 357.16326904296915,357.4451599121094) " stroke="#000000"/>
  <rect fill="#0000ff" stroke-width="0" stroke-dasharray="null" stroke-linejoin="null" stroke-linecap="null" opacity="0.05" x="498.63061" y="346.89105" width="1.12688" height="134.33293" transform="rotate(7.1060895919799805 499.19406127929767,414.0574951171877) " id="svg_50" stroke="#000000"/>
  <rect stroke="#a8a8f7" fill="#0000ff" stroke-width="0.5" stroke-dasharray="null" stroke-linejoin="null" stroke-linecap="null" opacity="0.05" x="479.32327" y="337.36307" width="23.52982" height="1.37538" id="svg_55" transform="rotate(0.8303287029266357 491.088165283205,338.05075073242034) "/>
  <line fill="none" stroke-dasharray="null" stroke-linejoin="null" stroke-linecap="null" opacity="0.2" x1="413.88124" y1="274.02825" x2="432.61718" y2="382.20706" id="svg_76" stroke-width="0.5" stroke="#f9f9f9"/>
  <line fill="none" stroke-dasharray="null" stroke-linejoin="null" stroke-linecap="null" opacity="0.2" x1="464.23814" y1="274.15607" x2="452.77724" y2="381.10138" stroke-width="0.5" transform="rotate(178.48080444335938 458.50769042968744,327.6287231445312) " stroke="#fcf9f9" id="svg_107"/>
  <line fill="none" stroke-dasharray="null" stroke-linejoin="null" stroke-linecap="null" opacity="0.2" x1="475.75235" y1="277.41223" x2="463.13902" y2="308.65315" stroke-width="0.5" transform="rotate(163.63064575195312 469.44567871093744,293.03271484375) " id="svg_108" stroke="#fcf9f9"/>
  <line stroke="#f9f9f9" transform="rotate(-4.867252826690674 420.59423828124903,381.700378417969) " id="svg_14" fill="none" stroke-dasharray="null" stroke-linejoin="null" stroke-linecap="null" opacity="0.2" x1="414.32456" y1="335.67009" x2="426.86392" y2="427.73065" stroke-width="0.5"/>
  <line stroke="#f9f9f9" id="svg_30" transform="rotate(-131.8517303466797 401.52206420898443,292.6756896972657) " fill="none" stroke-dasharray="null" stroke-linejoin="null" stroke-linecap="null" opacity="0.2" x1="394.66361" y1="280.97218" x2="408.38052" y2="304.3792" stroke-width="0.5"/>
  <line id="svg_33" stroke="#f9f9f9" transform="rotate(-131.8517303466797 403.7393798828125,290.3767700195313) " fill="none" stroke-dasharray="null" stroke-linejoin="null" stroke-linecap="null" opacity="0.2" x1="394.37139" y1="276.8734" x2="413.10733" y2="303.88009" stroke-width="0.5"/>
  <line stroke="#8d79f2" id="svg_37" transform="rotate(-20.33264923095703 402.0188903808597,314.1665649414064) " fill="none" stroke-dasharray="null" stroke-linejoin="null" stroke-linecap="null" opacity="0.17" x1="398.54032" y1="309.86838" x2="405.49747" y2="318.46475" stroke-width="0.8"/>
  <line stroke="#f9f9f9" id="svg_48" transform="rotate(-15.986804008483887 402.4526977539061,313.2933349609373) " fill="none" stroke-dasharray="null" stroke-linejoin="null" stroke-linecap="null" opacity="0.2" x1="397.08978" y1="307.72733" x2="407.81564" y2="318.85939" stroke-width="0.5"/>
  <line stroke="#f9f9f9" id="svg_69" transform="rotate(-50.29644775390625 416.8875122070313,275.9605102539063) " fill="none" stroke-dasharray="null" stroke-linejoin="null" stroke-linecap="null" opacity="0.2" x1="414.4499" y1="272.0575" x2="419.32513" y2="279.86353" stroke-width="0.5"/>
  <line id="svg_70" stroke="#f9f9f9" transform="rotate(-50.29644775390625 465.5201416015625,277.7402954101563) " fill="none" stroke-dasharray="null" stroke-linejoin="null" stroke-linecap="null" opacity="0.2" x1="463.08253" y1="273.83729" x2="467.95776" y2="281.64331" stroke-width="0.5"/>
  <line id="svg_99" stroke="#f9f9f9" transform="rotate(-50.29644775390625 425.4749755859376,316.45062255859386) " fill="none" stroke-dasharray="null" stroke-linejoin="null" stroke-linecap="null" opacity="0.2" x1="423.03736" y1="312.54761" x2="427.91259" y2="320.35364" stroke-width="0.5"/>
  <line stroke="#f9f9f9" id="svg_109" transform="rotate(-50.29644775390625 420.09112548828125,286.3055114746093) " fill="none" stroke-dasharray="null" stroke-linejoin="null" stroke-linecap="null" opacity="0.2" x1="417.2785" y1="281.84638" x2="422.90375" y2="290.76465" stroke-width="0.5"/>
  <line id="svg_110" stroke="#f9f9f9" transform="rotate(-50.29644775390625 427.3882446289062,329.3763122558594) " fill="none" stroke-dasharray="null" stroke-linejoin="null" stroke-linecap="null" opacity="0.2" x1="424.57562" y1="324.91718" x2="430.20087" y2="333.83545" stroke-width="0.5"/>
  <line id="svg_111" stroke="#f9f9f9" transform="rotate(-50.29644775390625 424.00665283203136,301.0777282714844) " fill="none" stroke-dasharray="null" stroke-linejoin="null" stroke-linecap="null" opacity="0.2" x1="421.19403" y1="296.6186" x2="426.81928" y2="305.53687" stroke-width="0.5"/>
  <line id="svg_112" stroke="#f9f9f9" transform="rotate(-50.29644775390625 426.14239501953114,297.3401794433593) " fill="none" stroke-dasharray="null" stroke-linejoin="null" stroke-linecap="null" opacity="0.2" x1="423.32977" y1="292.88105" x2="428.95502" y2="301.79932" stroke-width="0.5"/>
  <line id="svg_113" stroke="#f9f9f9" transform="rotate(-50.29644775390625 457.76818847656256,327.67315673828125) " fill="none" stroke-dasharray="null" stroke-linejoin="null" stroke-linecap="null" opacity="0.2" x1="455.33058" y1="323.77015" x2="460.20581" y2="331.57618" stroke-width="0.5"/>
  <line stroke="#f9f9f9" id="svg_114" transform="rotate(-50.29644775390625 462.1385498046875,295.0042114257813) " fill="none" stroke-dasharray="null" stroke-linejoin="null" stroke-linecap="null" opacity="0.2" x1="457.65443" y1="288.63647" x2="466.62268" y2="301.37196" stroke-width="0.5"/>
  <line stroke="#f9f9f9" id="svg_115" transform="rotate(-50.29644775390625 460.1362915039063,308.9087829589844) " fill="none" stroke-dasharray="null" stroke-linejoin="null" stroke-linecap="null" opacity="0.2" x1="456.18672" y1="303.08036" x2="464.08587" y2="314.73722" stroke-width="0.5"/>
  <line stroke="#f9f9f9" id="svg_116" transform="rotate(-50.29644775390625 461.2041625976563,312.2903747558594) " fill="none" stroke-dasharray="null" stroke-linejoin="null" stroke-linecap="null" opacity="0.2" x1="458.70939" y1="308.49266" x2="463.69894" y2="316.0881" stroke-width="0.5"/>
  <line stroke="#f9f9f9" id="svg_117" transform="rotate(-50.29644775390625 460.70483398437517,331.2327270507813) " fill="none" stroke-dasharray="null" stroke-linejoin="null" stroke-linecap="null" opacity="0.2" x1="458.66515" y1="327.80897" x2="462.74452" y2="334.65649" stroke-width="0.5"/>
  <path stroke="#000000" transform="rotate(173.15847778320312 444.86456298828125,307.3613586425781) " id="svg_118" d="m446.96076,313.44429l0,-12.16586l-4.19238,12.16586l4.19238,0z" opacity="0.07" stroke-linecap="null" stroke-linejoin="null" stroke-dasharray="null" stroke-width="0" fill="#ffffff"/>
  <path transform="rotate(-6.305873870849609 441.68005371093767,308.3320312500002) " id="svg_119" stroke="#000000" d="m442.51062,316.75631l0,-16.84861l-1.66113,16.84861l1.66113,0z" opacity="0.1" stroke-linecap="null" stroke-linejoin="null" stroke-dasharray="null" stroke-width="0" fill="#f47373"/>
  <path stroke="#000000" id="svg_120" transform="rotate(-118.02008056640625 444.6275329589844,300.65838623046875) " d="m445.24702,303.40734l0,-5.49796l-1.23897,5.49796l1.23897,0z" opacity="0.15" stroke-linecap="null" stroke-linejoin="null" stroke-dasharray="null" stroke-width="0" fill="#f96b6b"/>
  <ellipse stroke="#000000" fill="#269b5f" stroke-width="0" stroke-dasharray="null" stroke-linejoin="null" stroke-linecap="null" cx="597.36181" cy="463.12631" rx="6.76318" ry="5.96228" id="svg_121"/>
  <ellipse stroke="#000000" fill="#269b5f" stroke-width="0" stroke-dasharray="null" stroke-linejoin="null" stroke-linecap="null" cx="589.36181" cy="463.12631" rx="6.76318" ry="5.96228" id="svg_122"/>
  <ellipse stroke="#000000" fill="#269b5f" stroke-width="0" stroke-dasharray="null" stroke-linejoin="null" stroke-linecap="null" cx="606.36181" cy="463.12631" rx="6.76318" ry="5.96228" id="svg_123"/>
  <ellipse stroke="#000000" fill="#269b5f" stroke-width="0" stroke-dasharray="null" stroke-linejoin="null" stroke-linecap="null" cx="593.36181" cy="457.12631" rx="6.76318" ry="5.96228" id="svg_124"/>
  <ellipse stroke="#000000" fill="#269b5f" stroke-width="0" stroke-dasharray="null" stroke-linejoin="null" stroke-linecap="null" cx="601.36181" cy="457.12631" rx="6.76318" ry="5.96228" id="svg_125"/>
  <line fill="none" stroke="#000000" stroke-dasharray="null" stroke-linejoin="null" stroke-linecap="null" opacity="0.29" x1="66.97811" y1="462.44769" x2="66.97811" y2="440.29925" id="svg_126"/>
  <line fill="none" stroke-dasharray="null" stroke-linejoin="null" stroke-linecap="null" opacity="0.29" x1="73.00973" y1="446.22829" x2="73.00973" y2="433.53439" id="svg_127" transform="rotate(91.08499908447266 73.00974273681638,439.88134765624994) " stroke-width="0.8" stroke="#000000"/>
  <line fill="none" stroke="#000000" stroke-dasharray="null" stroke-linejoin="null" stroke-linecap="null" opacity="0.29" x1="79.31795" y1="462.76409" x2="79.31795" y2="440.61566" id="svg_128"/>
  <rect fill="#d9f9f9" stroke="#000000" stroke-width="0" stroke-dasharray="null" stroke-linejoin="null" stroke-linecap="null" opacity="0.2" x="69.12967" y="444.60237" width="2.53125" height="7.91016" id="svg_129"/>
  <rect fill="#d9f9f9" stroke="#000000" stroke-width="0" stroke-dasharray="null" stroke-linejoin="null" stroke-linecap="null" opacity="0.2" x="73.87577" y="444.60237" width="2.53125" height="7.91016" id="svg_130"/>
  <rect fill="#d9f9f9" stroke="#000000" stroke-width="0" stroke-dasharray="null" stroke-linejoin="null" stroke-linecap="null" opacity="0.2" x="69.44608" y="453.46175" width="2.53125" height="7.91016" id="svg_131"/>
  <rect fill="#d9f9f9" stroke="#000000" stroke-width="0" stroke-dasharray="null" stroke-linejoin="null" stroke-linecap="null" opacity="0.2" x="73.87577" y="453.46175" width="2.53125" height="7.91016" id="svg_132"/>
  <line fill="none" stroke="#000000" stroke-dasharray="null" stroke-linejoin="null" stroke-linecap="null" opacity="0.29" x1="298.86434" y1="462.54656" x2="298.86434" y2="440.39813" id="svg_133"/>
  <line fill="none" stroke-dasharray="null" stroke-linejoin="null" stroke-linecap="null" opacity="0.29" x1="304.89596" y1="446.32717" x2="304.89596" y2="433.63327" transform="rotate(91.08499908447266 304.8959655761718,439.980224609375) " stroke-width="0.8" stroke="#000000" id="svg_134"/>
  <line fill="none" stroke="#000000" stroke-dasharray="null" stroke-linejoin="null" stroke-linecap="null" opacity="0.29" x1="311.20418" y1="462.86297" x2="311.20418" y2="440.71453" id="svg_135"/>
  <line fill="none" stroke="#000000" stroke-dasharray="null" stroke-linejoin="null" stroke-linecap="null" opacity="0.29" x1="524.01966" y1="461.53981" x2="524.01966" y2="439.39137" id="svg_136"/>
  <line fill="none" stroke-dasharray="null" stroke-linejoin="null" stroke-linecap="null" opacity="0.29" x1="530.05129" y1="445.32042" x2="530.05129" y2="432.62652" transform="rotate(91.08499908447266 530.05126953125,438.9734802246093) " stroke-width="0.8" stroke="#000000" id="svg_137"/>
  <line fill="none" stroke="#000000" stroke-dasharray="null" stroke-linejoin="null" stroke-linecap="null" opacity="0.29" x1="536.35951" y1="461.85622" x2="536.35951" y2="439.70778" id="svg_138"/>
  <rect fill="#d9f9f9" stroke-width="0" stroke-dasharray="null" stroke-linejoin="null" stroke-linecap="null" opacity="0.2" x="526.62961" y="442.35237" width="7.78125" height="7.91016" id="svg_143" stroke="#000000"/>
  <rect fill="#d9f9f9" stroke-width="0" stroke-dasharray="null" stroke-linejoin="null" stroke-linecap="null" opacity="0.2" x="526.62961" y="451.35237" width="7.78125" height="7.91016" stroke="#000000" id="svg_144"/>
  <path fill="#0000ff" stroke-width="0" stroke-dasharray="null" stroke-linejoin="null" stroke-linecap="null" opacity="0.05" d="m441.54476,69.5665l0,-60.49477l38.80581,60.49477l-38.80581,0z" transform="rotate(-91.46076965332031 460.94766235351557,39.31911849975588) " id="svg_145" stroke="#000000"/>
  <path fill="#0000ff" stroke-width="0" stroke-dasharray="null" stroke-linejoin="null" stroke-linecap="null" opacity="0.03" d="m408.62334,54.6978l0,-37.4938l36.06548,37.4938l-36.06548,0z" transform="rotate(-46.78553771972656 426.6560668945312,35.95090484619144) " id="svg_146" stroke="#000000"/>
  <ellipse stroke="#000000" ry="1.40161" rx="93.88148" cy="366.31256" cx="426.77739" stroke-linecap="null" stroke-linejoin="null" stroke-dasharray="null" fill="#0000ff" stroke-width="0" opacity="0.05" transform="rotate(79.93048095703125 426.7774047851562,366.31256103515625) " id="svg_148"/>
  <path stroke="#000000" opacity="0.05" transform="rotate(-11.888075828552246 422.0215454101565,399.9683532714845) " id="svg_141" d="m421.53876,460.57463l0.18104,-121.21255l0.60346,0l0.18104,121.21255l-0.96554,0z" stroke-linecap="null" stroke-linejoin="null" stroke-dasharray="null" stroke-width="0" fill="#0000ff"/>
  <path stroke="#000000" id="svg_142" opacity="0.07" transform="rotate(17.48011589050293 401.6688232421875,292.0835571289063) " d="m402.29452,273.8368l-0.23463,36.49352l-0.78213,0l-0.23465,-36.49352l1.25141,0z" stroke-linecap="null" stroke-linejoin="null" stroke-dasharray="null" stroke-width="0" fill="#0000ff"/>
  <line id="svg_147" stroke="#f9f9f9" transform="rotate(-159.46434020996094 481.69396972656244,289.8428344726563) " fill="none" stroke-dasharray="null" stroke-linejoin="null" stroke-linecap="null" opacity="0.2" x1="472.32598" y1="276.33946" x2="491.06192" y2="303.34615" stroke-width="0.5"/>
  <line stroke="#f9f9f9" id="svg_149" transform="rotate(-114.18324279785156 404.3178100585937,322.1682128906249) " fill="none" stroke-dasharray="null" stroke-linejoin="null" stroke-linecap="null" opacity="0.2" x1="400.82131" y1="316.71557" x2="407.81433" y2="327.62083" stroke-width="0.5"/>
  <line stroke="#7656f7" id="svg_150" transform="rotate(-105.26667022705078 404.46612548828125,320.9297485351562) " fill="none" stroke-dasharray="null" stroke-linejoin="null" stroke-linecap="null" opacity="0.14" x1="400.98656" y1="316.58833" x2="407.94572" y2="325.27122" stroke-width="0.8"/>
  <line id="svg_151" stroke="#f9f9f9" transform="rotate(-2.2961769104003906 404.7182617187479,331.1116333007806) " fill="none" stroke-dasharray="null" stroke-linejoin="null" stroke-linecap="null" opacity="0.2" x1="401.22176" y1="325.659" x2="408.21478" y2="336.56425" stroke-width="0.5"/>
  <line id="svg_152" stroke="#9684f4" transform="rotate(-173.17605590820312 404.7330932617188,331.87542724609375) " fill="none" stroke-dasharray="null" stroke-linejoin="null" stroke-linecap="null" opacity="0.16" x1="401.25353" y1="327.53401" x2="408.21268" y2="336.2169" stroke-width="0.8"/>
  <line id="svg_153" stroke="#f9f9f9" transform="rotate(17.384326934814453 466.60168457031284,378.3632812499999) " fill="none" stroke-dasharray="null" stroke-linejoin="null" stroke-linecap="null" opacity="0.2" x1="460.33201" y1="332.33299" x2="472.87137" y2="424.39355" stroke-width="0.5"/>
  <line stroke="#f9f9f9" id="svg_154" transform="rotate(91.37107849121094 480.8485412597657,313.00042724609364) " fill="none" stroke-dasharray="null" stroke-linejoin="null" stroke-linecap="null" opacity="0.2" x1="475.48561" y1="307.4344" x2="486.21147" y2="318.56646" stroke-width="0.5"/>
  <line stroke="#7656f7" id="svg_155" transform="rotate(-93.15660858154297 481.25268554687494,313.91314697265625) " fill="none" stroke-dasharray="null" stroke-linejoin="null" stroke-linecap="null" opacity="0.2" x1="477.5809" y1="309.25739" x2="484.92442" y2="318.56895"/>
  <line id="svg_156" stroke="#f9f9f9" transform="rotate(91.37107849121094 480.84854125976557,311.53210449218744) " fill="none" stroke-dasharray="null" stroke-linejoin="null" stroke-linecap="null" opacity="0.2" x1="475.48561" y1="305.96608" x2="486.21147" y2="317.09814" stroke-width="0.5"/>
  <line stroke="#f9f9f9" id="svg_157" transform="rotate(2.9205098152160645 478.9130249023424,320.8759765625001) " fill="none" stroke-dasharray="null" stroke-linejoin="null" stroke-linecap="null" opacity="0.2" x1="474.47509" y1="316.31719" x2="483.35096" y2="325.43477" stroke-width="0.5"/>
  <line stroke="#f9f9f9" id="svg_158" transform="rotate(84.34866333007812 478.5125732421875,330.5535583496095) " fill="none" stroke-dasharray="null" stroke-linejoin="null" stroke-linecap="null" opacity="0.2" x1="474.41225" y1="326.14267" x2="482.6129" y2="334.96445" stroke-width="0.5"/>
  <line id="svg_159" stroke="#7656f7" transform="rotate(-99.8902816772461 478.93896484375,331.88897705078125) " fill="none" stroke-dasharray="null" stroke-linejoin="null" stroke-linecap="null" opacity="0.2" x1="475.26718" y1="327.23322" x2="482.6107" y2="336.54478"/>
  <line stroke="#7656f7" id="svg_160" transform="rotate(-159.26116943359375 482.913818359375,291.60653686523443) " fill="none" stroke-dasharray="null" stroke-linejoin="null" stroke-linecap="null" opacity="0.18" x1="472.92799" y1="277.73538" x2="492.89969" y2="305.47769" stroke-width="0.5"/>
  <line stroke="#7656f7" id="svg_161" transform="rotate(-132.5753173828125 463.4878845214845,400.5491333007813) " fill="none" stroke-dasharray="null" stroke-linejoin="null" stroke-linecap="null" opacity="0.2" x1="424.22499" y1="349.51594" x2="502.75076" y2="451.58231" stroke-width="0.6"/>
  <path stroke="#000000" transform="rotate(87.4184341430664 385.2815246582032,277.0018920898438) " id="svg_162" d="m382.65373,293.66367l0.98542,-33.32356l3.28475,0l0.98542,33.32356l-5.2556,0z" opacity="0.1" stroke-linecap="null" stroke-linejoin="null" stroke-dasharray="null" stroke-width="0" fill="#d9f9f9"/>
  <path stroke="#000000" id="svg_163" transform="rotate(22.389284133911133 340.6741943359376,344.5489807128905) " d="m337.28435,412.71437l1.2712,-136.33081l4.23732,0l1.27119,136.33081l-6.7797,0z" opacity="0.1" stroke-linecap="null" stroke-linejoin="null" stroke-dasharray="null" stroke-width="0" fill="#d9f9f9"/>
  <rect id="svg_164" stroke="#a8a8f7" fill="#0000ff" stroke-width="0.5" stroke-dasharray="null" stroke-linejoin="null" stroke-linecap="null" opacity="0.05" x="463.71389" y="455.90995" width="23.52982" height="1.37538" transform="rotate(0.8303287029266357 475.47879028320193,456.59762573242034) "/>
  <rect id="svg_165" stroke="#a8a8f7" fill="#0000ff" stroke-width="0.5" stroke-dasharray="null" stroke-linejoin="null" stroke-linecap="null" opacity="0.05" x="399.87014" y="455.34745" width="23.52982" height="1.37538" transform="rotate(0.8303287029266357 411.6350402832024,456.0351257324216) "/>
  <path stroke="#000000" id="svg_166" transform="rotate(-6.305873870849609 439.30776977539165,337.4910278320316) " d="m443.3913,373.5721l0,-72.16213l-8.16706,72.16213l8.16706,0z" opacity="0.07" stroke-linecap="null" stroke-linejoin="null" stroke-dasharray="null" stroke-width="0" fill="#f47373"/>
  <path stroke="#000000" id="svg_167" transform="rotate(173.47271728515625 447.1435852050782,406.5571899414063) " d="m451.40914,439.71048l0,-66.30657l-8.53112,66.30657l8.53112,0z" opacity="0.07" stroke-linecap="null" stroke-linejoin="null" stroke-dasharray="null" stroke-width="0" fill="#f47373"/>
  <path stroke="#000000" id="svg_168" transform="rotate(178.72740173339844 439.834716796875,335.1278686523438) " d="m441.12341,301.72276l0,66.81022l-2.57739,-66.81022l2.57739,0z" opacity="0.06" stroke-linecap="null" stroke-linejoin="null" stroke-dasharray="null" stroke-width="0" fill="#ffffff"/>
  <path stroke="#000000" id="svg_169" transform="rotate(-9.245911598205566 386.0385437011717,397.1659545898438) " d="m384.32398,472.44396l0.64297,-150.55598l2.14322,0l0.64297,150.55598l-3.42916,0z" opacity="0.1" stroke-linecap="null" stroke-linejoin="null" stroke-dasharray="null" stroke-width="0" fill="#d9f9f9"/>
  <path stroke="#a8a8f7" transform="rotate(-31.15165138244629 404.7982177734375,316.87811279296875) " id="svg_171" d="m402.4846,320.13416l2.31363,-6.51209l2.31363,6.51209l-4.62726,0z" opacity="0.03" stroke-linecap="null" stroke-linejoin="null" stroke-dasharray="null" stroke-width="0.5" fill="#0000ff"/>
  <path stroke="#a8a8f7" id="svg_172" transform="rotate(-148.59585571289062 402.08148193359375,315.1394653320313) " d="m394.35577,315.86621l7.72572,-1.45347l7.72571,1.45347l-15.45143,0z" opacity="0.03" stroke-linecap="null" stroke-linejoin="null" stroke-dasharray="null" stroke-width="0.5" fill="#0000ff"/>
  <path stroke="#a8a8f7" id="svg_173" transform="rotate(-125.43049621582031 405.2622375488281,333.4346618652344) " d="m397.53651,333.88656l7.72572,-0.90379l7.72571,0.90379l-15.45143,0z" opacity="0.03" stroke-linecap="null" stroke-linejoin="null" stroke-dasharray="null" stroke-width="0.5" fill="#0000ff"/>
  <path stroke="#000000" id="svg_174" d="m436.42685,478.36441l8.69865,-5.34374l8.69865,5.34374l-17.39731,0z" opacity="0.4" stroke-linecap="null" stroke-linejoin="null" stroke-dasharray="null" stroke-width="0" fill="#619fd8"/>
  <path stroke="#a8a8f7" id="svg_175" transform="rotate(139.0411376953125 484.03976440429693,313.78683471679693) " d="m474.88665,315.12728l9.15313,-2.68089l9.15312,2.68089l-18.30625,0z" opacity="0.03" stroke-linecap="null" stroke-linejoin="null" stroke-dasharray="null" stroke-width="0.5" fill="#0000ff"/>
  <rect stroke="#a8a8f7" id="svg_176" fill="#0000ff" stroke-width="0.5" stroke-dasharray="null" stroke-linejoin="null" stroke-linecap="null" opacity="0.05" x="465.29096" y="458.44804" width="18.15606" height="1.37538" transform="rotate(0.8303287029266357 474.36898803711364,459.13571166992216) "/>
  <rect id="svg_177" stroke="#a8a8f7" fill="#0000ff" stroke-width="0.5" stroke-dasharray="null" stroke-linejoin="null" stroke-linecap="null" opacity="0.05" x="401.6933" y="458.44804" width="18.15606" height="1.37538" transform="rotate(0.8303287029266357 410.7713317871239,459.13571166992176) "/>
  <path stroke="#000000" transform="rotate(-156.0874786376953 515.51953125,396.5578308105469) " id="svg_179" d="m522.16404,398.81524l-6.64453,-4.51481l-6.64453,4.51481l13.28907,0z" opacity="0.13" stroke-linecap="null" stroke-linejoin="null" stroke-dasharray="null" stroke-width="0" fill="#007fff"/>
  <path stroke="#000000" id="svg_181" d="m336.98832,395.45248l5.02153,-4.27147l5.02153,4.27147l-10.04306,0z" opacity="0.13" stroke-linecap="null" stroke-linejoin="null" stroke-dasharray="null" stroke-width="0" fill="#007fff"/>
  <rect stroke="#000000" id="svg_183" fill="#8585f7" stroke-width="0" stroke-dasharray="null" stroke-linejoin="null" stroke-linecap="null" opacity="0.09" x="528.41271" y="282.95393" width="1.33434" height="126.26205" transform="rotate(-8.062235832214355 529.0798950195311,346.0849609374996) "/>
  <path id="svg_184" stroke="#000000" transform="rotate(21.17076301574707 516.5676269531244,393.23556518554693) " d="m523.21214,395.49297l-6.64453,-4.51481l-6.64454,4.51481l13.28907,0z" opacity="0.06" stroke-linecap="null" stroke-linejoin="null" stroke-dasharray="null" stroke-width="0" fill="#ffffff"/>
  <rect id="svg_185" stroke="#a8a8f7" fill="#0000ff" stroke-width="0.5" stroke-dasharray="null" stroke-linejoin="null" stroke-linecap="null" opacity="0.05" x="499.57327" y="320.80448" width="23.52982" height="1.37538" transform="rotate(-83.4063720703125 511.3381958007813,321.49215698242193) "/>
  <rect stroke="#a8a8f7" id="svg_186" fill="#0000ff" stroke-width="0.5" stroke-dasharray="null" stroke-linejoin="null" stroke-linecap="null" opacity="0.05" x="503.75146" y="324.84504" width="17.55787" height="0.48145" transform="rotate(-83.4063720703125 512.5303955078125,325.08578491210943) "/>
  <rect stroke="#a8a8f7" id="svg_187" fill="#0000ff" stroke-width="0.5" stroke-dasharray="null" stroke-linejoin="null" stroke-linecap="null" opacity="0.05" x="505.53078" y="327.00765" width="13.88243" height="1.37538" transform="rotate(-83.4063720703125 512.4719848632812,327.6953430175781) "/>
  <path stroke="#000000" id="svg_188" transform="rotate(-88.88990020751953 496.65298461914057,277.3427429199218) " d="m494.02518,295.26684l0.98542,-35.8482l3.28475,0l0.98542,35.8482l-5.25559,0z" opacity="0.1" stroke-linecap="null" stroke-linejoin="null" stroke-dasharray="null" stroke-width="0" fill="#d9f9f9"/>
  <path stroke="#000000" transform="rotate(-58.89896011352539 516.5841064453126,276.11169433593756) " id="svg_189" d="m513.96849,278.05386l2.61559,-3.88432l2.61559,3.88432l-5.23118,0z" opacity="0.2" stroke-linecap="null" stroke-linejoin="null" stroke-dasharray="null" stroke-width="0" fill="#d9f9f9"/>
  <rect stroke="#a8a8f7" id="svg_190" fill="#0000ff" stroke-width="0.5" stroke-dasharray="null" stroke-linejoin="null" stroke-linecap="null" opacity="0.05" x="509.91806" y="330.72987" width="8.43011" height="1.05008" transform="rotate(-83.4063720703125 514.1331176757811,331.25491333007807) "/>
 </g>
</svg>
