<svg width="640" height="480" xmlns="http://www.w3.org/2000/svg" xmlns:svg="http://www.w3.org/2000/svg">
 <!-- Created with SVG-edit - http://svg-edit.googlecode.com/ -->
 <g>
  <title>Layer 1</title>
  <polygon stroke="#000000" transform="rotate(-29.485511779785156 123.58477783203122,328.83334350585943) " id="svg_1" fill="#7f7f7f" points="256.19817114258694,328.8333481212463 154.8905827219805,461.56153936248626 -9.028605373383499,410.86385739980284 -9.028605373383499,246.8027749649551 154.8905827219805,196.10514091057266 256.19817114258694,328.8333481212463 " stroke-width="0"/>
  <rect stroke="#000000" id="svg_2" height="101" width="643.99996" y="381" x="0.00001" stroke-linecap="null" stroke-linejoin="null" stroke-dasharray="null" stroke-width="0" fill="#7f7f7f"/>
  <polygon id="svg_3" transform="rotate(-0.8470982313156128 259.4181213378904,324.9999999999989) " fill="#7f7f7f" points="377.0442199707031,325 287.1858825683594,448.67938232421875 141.79202270507812,401.43804931640625 141.79202270507812,248.56192016601562 287.1858825683594,201.32061767578125 377.0442199707031,325 " stroke="#000000" stroke-width="0"/>
  <polygon id="svg_4" transform="rotate(-29.496423721313477 409.41815185546864,338) " fill="#7f7f7f" points="527.0442199707031,338 437.1858825683594,461.67938232421875 291.7920227050781,414.43804931640625 291.7920227050781,261.5619201660156 437.1858825683594,214.32061767578125 527.0442199707031,338 " stroke="#000000" stroke-width="0"/>
  <rect stroke="#000000" id="svg_6" height="12.66667" width="143" y="381" x="498" stroke-linecap="null" stroke-linejoin="null" stroke-dasharray="null" stroke-width="0" fill="#000000"/>
  <ellipse stroke="#000000" ry="4.39258" rx="2.82471" id="svg_7" cy="288.1709" cx="541.49268" stroke-linecap="null" stroke-linejoin="null" stroke-dasharray="null" stroke-width="0" fill="#000000"/>
  <rect id="svg_8" height="4.03418" width="0.94922" y="291.12304" x="539.85836" stroke-linecap="null" stroke-linejoin="null" stroke-dasharray="null" stroke-width="0" stroke="#000000" fill="#000000"/>
  <path stroke="#000000" transform="rotate(164.76931762695312 542.0817260742186,301.1610107421875) " id="svg_9" d="m538.8828,308.29445l3.19897,-14.26686l3.19897,14.26686l-6.39794,0z" stroke-linecap="null" stroke-linejoin="null" stroke-dasharray="null" stroke-width="0" fill="#000000"/>
  <ellipse stroke="#000000" transform="rotate(51.953041076660156 535.4114379882811,292.75119018554693) " ry="0.89641" rx="5.25869" id="svg_10" cy="292.7512" cx="535.41148" stroke-linecap="null" stroke-linejoin="null" stroke-dasharray="null" stroke-width="0" fill="#000000"/>
  <ellipse id="svg_11" stroke="#000000" transform="rotate(59.390716552734375 530.6654052734376,286.10668945312494) " ry="0.89641" rx="5.25869" cy="286.10667" cx="530.66538" stroke-linecap="null" stroke-linejoin="null" stroke-dasharray="null" stroke-width="0" fill="#000000"/>
  <ellipse stroke="#000000" id="svg_13" transform="rotate(-31.323375701904297 550.2746582031252,306.67791748046875) " ry="1.20183" rx="7.66496" cy="306.6779" cx="550.27464" stroke-linecap="null" stroke-linejoin="null" stroke-dasharray="null" stroke-width="0" fill="#000000"/>
  <ellipse id="svg_14" stroke="#000000" transform="rotate(-74.5367660522461 554.7802734375,308.16116333007807) " ry="0.89641" rx="5.25869" cy="308.16117" cx="554.78023" stroke-linecap="null" stroke-linejoin="null" stroke-dasharray="null" stroke-width="0" fill="#000000"/>
  <ellipse stroke="#000000" id="svg_15" transform="rotate(-6.138131618499756 549.893676757812,308.39669799804597) " ry="0.89641" rx="5.65685" cy="308.39668" cx="549.8936" stroke-linecap="null" stroke-linejoin="null" stroke-dasharray="null" stroke-width="0" fill="#000000"/>
  <ellipse id="svg_16" stroke="#000000" transform="rotate(103.84188079833984 554.1326293945312,312.93322753906256) " ry="0.89641" rx="5.25869" cy="312.93322" cx="554.13259" stroke-linecap="null" stroke-linejoin="null" stroke-dasharray="null" stroke-width="0" fill="#000000"/>
  <path stroke="#000000" id="svg_17" transform="rotate(-28.50351333618164 544.5506591796875,306.15060424804693) " d="m541.35169,309.99859l3.19898,-7.69592l3.19897,7.69592l-6.39795,0z" stroke-linecap="null" stroke-linejoin="null" stroke-dasharray="null" stroke-width="0" fill="#000000"/>
  <ellipse stroke="#000000" ry="10.22223" rx="70.66667" id="svg_18" cy="390.22223" cx="568" stroke-linecap="null" stroke-linejoin="null" stroke-dasharray="null" stroke-width="0" fill="#000000"/>
  <path stroke="#000000" transform="rotate(21.239717483520508 362.731170654297,244.8189086914061) " id="svg_19" d="m339.33667,273.26562l23.39451,-56.89346l23.39451,56.89346l-46.78901,0z" stroke-linecap="null" stroke-linejoin="null" stroke-dasharray="null" stroke-width="0" fill="#595757"/>
  <path stroke="#000000" id="svg_20" transform="rotate(34.396053314208984 35.674182891845504,274.2140502929688) " d="m8.42897,365.63672l27.24521,-182.84533l27.24522,182.84533l-54.49043,0z" stroke-linecap="null" stroke-linejoin="null" stroke-dasharray="null" stroke-width="0" fill="#595757"/>
  <path stroke="#000000" id="svg_21" transform="rotate(59.66236877441406 238.49658203125006,227.66818237304682) " d="m219.42059,277.53426l19.076,-99.73215l19.07599,99.73215l-38.15199,0z" stroke-linecap="null" stroke-linejoin="null" stroke-dasharray="null" stroke-width="0" fill="#bfbfbf"/>
  <path stroke="#000000" id="svg_22" transform="rotate(-57.45939254760742 128.2719268798828,228.89540100097656) " d="m106.69604,277.28908l21.57589,-96.78737l21.57588,96.78737l-43.15177,0z" stroke-linecap="null" stroke-linejoin="null" stroke-dasharray="null" stroke-width="0" fill="#6d6b6b"/>
  <ellipse stroke="#000000" ry="29" rx="29" id="svg_23" cy="55" cx="58" stroke-linecap="null" stroke-linejoin="null" stroke-dasharray="null" stroke-width="0" fill="#000000"/>
  <ellipse stroke="#000000" id="svg_24" ry="32.5" rx="29" cy="54.5" cx="75" stroke-linecap="null" stroke-linejoin="null" stroke-dasharray="null" stroke-width="0" fill="#ffffff"/>
  <ellipse stroke="#000000" ry="0.69684" rx="0.76358" id="svg_25" cy="82.30316" cx="232.23642" stroke-linecap="null" stroke-linejoin="null" stroke-dasharray="null" stroke-width="0" fill="#000000"/>
  <ellipse id="svg_26" stroke="#000000" ry="0.69684" rx="0.76358" cy="14.90863" cx="96.81454" stroke-linecap="null" stroke-linejoin="null" stroke-dasharray="null" stroke-width="0" fill="#000000"/>
  <ellipse id="svg_27" stroke="#000000" ry="0.69684" rx="0.76358" cy="150.0141" cx="44.29111" stroke-linecap="null" stroke-linejoin="null" stroke-dasharray="null" stroke-width="0" fill="#8e8787"/>
  <ellipse id="svg_28" stroke="#000000" ry="0.69684" rx="0.76358" cy="81.67035" cx="342.02939" stroke-linecap="null" stroke-linejoin="null" stroke-dasharray="null" stroke-width="0" fill="#000000"/>
  <ellipse stroke="#000000" id="svg_29" ry="0.1629" rx="0.40762" cy="16.54999" cx="394.17709" stroke-linecap="null" stroke-linejoin="null" stroke-dasharray="null" stroke-width="0" fill="#1e1c1c"/>
  <ellipse id="svg_30" stroke="#000000" ry="0.69684" rx="0.76358" cy="106.03363" cx="255.96689" stroke-linecap="null" stroke-linejoin="null" stroke-dasharray="null" stroke-width="0" fill="#000000"/>
  <ellipse id="svg_31" stroke="#000000" ry="0.69684" rx="0.76358" cy="9.52972" cx="250.58798" stroke-linecap="null" stroke-linejoin="null" stroke-dasharray="null" stroke-width="0" fill="#000000"/>
  <ellipse id="svg_32" stroke="#000000" ry="0.69684" rx="0.76358" cy="185.4516" cx="231.2872" stroke-linecap="null" stroke-linejoin="null" stroke-dasharray="null" stroke-width="0" fill="#000000"/>
  <ellipse stroke="#000000" id="svg_33" ry="0.34088" rx="0.5856" cy="37.65033" cx="311.79282" stroke-linecap="null" stroke-linejoin="null" stroke-dasharray="null" stroke-width="0" fill="#6b6464"/>
  <ellipse stroke="#000000" id="svg_34" ry="0.49661" rx="0.36313" cy="134.71042" cx="348.44156" stroke-linecap="null" stroke-linejoin="null" stroke-dasharray="null" stroke-width="0" fill="#827e7e"/>
  <ellipse id="svg_35" stroke="#000000" ry="0.69684" rx="0.76358" cy="186.71722" cx="20.87704" stroke-linecap="null" stroke-linejoin="null" stroke-dasharray="null" stroke-width="0" fill="#382727"/>
  <ellipse stroke="#000000" id="svg_36" ry="0.49661" rx="0.29639" cy="134.71042" cx="284.91064" stroke-linecap="null" stroke-linejoin="null" stroke-dasharray="null" stroke-width="0" fill="#493f3f"/>
  <ellipse id="svg_37" stroke="#000000" ry="0.69684" rx="0.76358" cy="94.3266" cx="150.92001" stroke-linecap="null" stroke-linejoin="null" stroke-dasharray="null" stroke-width="0" fill="#3f2323"/>
  <ellipse stroke="#000000" id="svg_38" ry="0.49661" rx="0.42987" cy="171.41354" cx="342.99591" stroke-linecap="null" stroke-linejoin="null" stroke-dasharray="null" stroke-width="0" fill="#665b5b"/>
  <ellipse stroke="#000000" ry="3.79688" rx="2.37305" id="svg_39" cy="369.55081" cx="608.69727" stroke-linecap="null" stroke-linejoin="null" stroke-dasharray="null" stroke-width="0" fill="#000000"/>
  <path transform="rotate(175.9371795654297 609.047607421875,378.53369140625) " id="svg_40" d="m603.62351,383.27977l5.42411,-9.49219l5.42411,9.49219l-10.84822,0z" stroke-linecap="null" stroke-linejoin="null" stroke-dasharray="null" stroke-width="0" stroke="#000000" fill="#000000"/>
 </g>
</svg>
