<svg width="640" height="480" xmlns="http://www.w3.org/2000/svg" xmlns:svg="http://www.w3.org/2000/svg">
 <!-- Created with SVG-edit - http://svg-edit.googlecode.com/ -->
 <g>
  <title>Layer 1</title>
  <ellipse stroke="#000000" ry="202.50001" rx="302.49999" id="svg_1" cy="223.49999" cx="330.49998" stroke-width="5" fill="#000000"/>
  <ellipse stroke="#000000" ry="124.5" rx="119" id="svg_9" cy="236.5" cx="437.00001" stroke-linecap="null" stroke-linejoin="null" stroke-dasharray="null" stroke-width="5" fill="#bfbfbf"/>
  <polygon stroke="#000000" transform="rotate(89.08616638183594 433.3511657714844,127.03610229492185) " stroke-width="5" points="483.8788146972656,127.0361099243164 445.27911376953125,235.0717315673828 382.8235168457031,193.8057861328125 382.8235168457031,60.26641082763672 445.27911376953125,19.00047492980957 483.8788146972656,127.0361099243164 " fill="#bfbfbf" id="svg_3"/>
  <polygon stroke="#000000" stroke-width="0" points="481.3307800292969,103 438.1112976074219,140.40579223632812 368.18072509765625,126.11805725097656 368.18072509765625,79.88194274902344 438.1112976074219,65.59420394897461 481.3307800292969,103 " fill="#bfbfbf" id="svg_12"/>
  <polygon stroke="#000000" stroke-width="5" points="553.1201782226562,149.5 466.37335205078125,164.5480499267578 326.0142517089844,158.80020141601562 326.0142517089844,140.19979858398438 466.37335205078125,134.4519500732422 553.1201782226562,149.5 " fill="#3f3f3f" id="svg_4"/>
  <polygon fill="#bfbfbf" id="svg_5"/>
  <ellipse stroke="#000000" ry="14" rx="198.99999" id="svg_7" cy="167" cx="434.99999" stroke-linecap="null" stroke-linejoin="null" stroke-dasharray="null" stroke-width="5" fill="#bcbaba"/>
  <polygon fill="#bfbfbf" id="svg_14"/>
  <polygon fill="#bfbfbf" id="svg_15"/>
  <polygon fill="#bfbfbf" id="svg_16"/>
  <path transform="rotate(-46.5463752746582 442.16000366210926,224.99499511718753) " id="svg_18" d="m425.15999,241.995l0,-34l34,34l-34,0z" stroke-linecap="null" stroke-linejoin="null" stroke-dasharray="null" stroke-width="0" stroke="#000000" fill="#ffffff"/>
  <path transform="rotate(-41.21868133544922 338.16000366210943,222.99499511718756) " id="svg_21" d="m321.15999,239.995l0,-34l34,34l-34,0z" stroke-linecap="null" stroke-linejoin="null" stroke-dasharray="null" stroke-width="0" stroke="#000000" fill="#ffffff"/>
  <path stroke="#000000" id="svg_23" transform="rotate(-43.01569747924805 337.66000366210943,224.49499511718756) " d="m323.05367,239.5607l0,-30.13139l29.21267,30.13139l-29.21267,0z" stroke-linecap="null" stroke-linejoin="null" stroke-dasharray="null" stroke-width="0" fill="#e5dcdc"/>
  <ellipse id="svg_30" ry="7" rx="4" cy="219" cx="433" stroke-linecap="null" stroke-linejoin="null" stroke-dasharray="null" stroke-width="0" stroke="#000000" fill="#3a3838"/>
  <path id="svg_22" transform="rotate(146.5264129638672 442.1600036621094,217.99499511718753) " d="m425.15999,234.995l0,-34l34,34l-34,0z" stroke-linecap="null" stroke-linejoin="null" stroke-dasharray="null" stroke-width="0" stroke="#000000" fill="#ffffff"/>
  <path stroke="#000000" id="svg_24" transform="rotate(-47.55284118652344 445.12396240234375,227.8085327148437) " d="m429.68908,242.87423l0,-30.13139l30.86972,30.13139l-30.86972,0z" stroke-linecap="null" stroke-linejoin="null" stroke-dasharray="null" stroke-width="0" fill="#e5dcdc"/>
  <path stroke="#605f5f" id="svg_32" transform="rotate(-54.612571716308594 403.1787109375,317.30401611328125) " d="m393.40814,329.82721l0,-25.04643l19.54113,25.04643l-19.54113,0z" stroke-linecap="null" stroke-linejoin="null" stroke-dasharray="null" fill="#e8e1e1"/>
  <path stroke="#000000" id="svg_28" transform="rotate(-55.79496383666992 402.38333129882807,316.2501831054687) " d="m392.93852,329.40908l0,-26.31783l18.88964,26.31783l-18.88964,0z" stroke-linecap="null" stroke-linejoin="null" stroke-dasharray="null" stroke-width="0" fill="#edeaea"/>
  <path id="svg_35" stroke="#827f7f" transform="rotate(-143.87612915039062 391.3832702636719,314.87518310546875) " d="m412.59203,333.57434l0,-37.39832l-42.41752,37.39832l42.41752,0z" stroke-linecap="null" stroke-linejoin="null" stroke-dasharray="null" fill="#ede6e6"/>
  <path stroke="#000000" id="svg_31" transform="rotate(-143.87612915039062 389.3676452636718,314.31268310546875) " d="m410.57641,333.01184l0,-37.39833l-42.41753,37.39833l42.41753,0z" stroke-linecap="null" stroke-linejoin="null" stroke-dasharray="null" stroke-width="0" fill="#f7f4f4"/>
  <ellipse stroke="#000000" ry="4.5" rx="4" id="svg_29" cy="218.5" cx="337" stroke-linecap="null" stroke-linejoin="null" stroke-dasharray="null" stroke-width="0" fill="#3a3838"/>
  <path transform="rotate(125.01193237304688 338.1600036621094,215.99499511718753) " id="svg_20" d="m321.15999,232.995l0,-34l34,34l-34,0z" stroke-linecap="null" stroke-linejoin="null" stroke-dasharray="null" stroke-width="0" stroke="#000000" fill="#ffffff"/>
  <path stroke="#000000" transform="rotate(-101.47140502929688 474.93310546875,339.875) " id="svg_34" d="m436.76884,428.21454l0,-176.67906l76.32858,176.67906l-76.32858,0z" stroke-linecap="null" stroke-linejoin="null" stroke-dasharray="null" stroke-width="5" fill="#bfbfbf"/>
  <polygon stroke-width="0" stroke="#000000" points="547,198.18960571289062 552.833251953125,214.97119140625 570.5960693359375,215.33316040039062 556.4384155273438,226.0667266845703 561.5831909179688,243.072021484375 547,232.92416381835938 532.4168090820312,243.072021484375 537.5615539550781,226.0667266845703 523.4039001464844,215.33316040039062 541.1667175292969,214.97119140625 547,198.18960571289062 552.833251953125,214.97119140625 " fill="#bfbfbf" id="svg_36"/>
  <polygon transform="rotate(-87.96953582763672 533,248.63081359863284) " id="svg_37" stroke-width="0" stroke="#000000" points="533,226.18960571289062 538.833251953125,242.97119140625 556.5960693359375,243.33316040039062 542.4384155273438,254.0667266845703 547.5831909179688,271.072021484375 533,260.9241638183594 518.4168090820312,271.072021484375 523.5615234375,254.0667266845703 509.40386962890625,243.33316040039062 527.166748046875,242.97119140625 533,226.18960571289062 538.833251953125,242.97119140625 " fill="#bfbfbf"/>
  <polygon stroke-width="2" stroke="#726f6f" points="485,258.6250406108248 490.0255543589231,273.0829178400332 505.32879441261935,273.3947742946705 493.13151776504776,282.6420902821318 497.5638858973077,297.29270539991705 485,288.5499837556701 472.4361141026923,297.29270539991705 476.86848223495224,282.6420902821318 464.67120558738065,273.3947742946705 479.9744456410769,273.0829178400332 485,258.6250406108248 490.0255543589231,273.0829178400332 " fill="#bfbfbf" id="svg_38"/>
  <ellipse stroke="#726f6f" ry="24.5" rx="21" id="svg_39" cy="276.5" cx="478" stroke-linecap="null" stroke-linejoin="null" stroke-dasharray="null" stroke-width="0" fill="#bfbfbf"/>
 </g>
</svg>
