<svg width="640.0000000000001" height="480.00000000000006" xmlns="http://www.w3.org/2000/svg" xmlns:svg="http://www.w3.org/2000/svg">
 <!-- Created with SVG-edit - http://svg-edit.googlecode.com/ -->
 <g>
  <title>Layer 1</title>
  <rect id="svg_77" stroke="#ff7f00" height="14.22222" width="268.44445" y="276.97779" x="3.55555" stroke-linecap="null" stroke-linejoin="null" stroke-dasharray="null" fill="#ead5d5"/>
  <rect stroke="#ffffff" id="svg_60" height="481.77779" width="641.77777" y="0.7787" x="-2.28992" opacity="0.29" stroke-linecap="null" stroke-linejoin="null" stroke-dasharray="null" stroke-width="null" fill="#ff00ff"/>
  <rect stroke="#ff7f00" id="svg_79" transform="rotate(89.99995422363281 269.33334350585943,140.08892822265625) " height="3.55553" width="268.44445" y="138.31117" x="135.11111" stroke-linecap="null" stroke-linejoin="null" stroke-dasharray="null" fill="#ead5d5"/>
  <rect stroke="#ff7f00" id="svg_70" height="264.88889" width="252.44442" y="8.53334" x="12.44445" opacity="0.3" stroke-linecap="null" stroke-linejoin="null" stroke-dasharray="null" stroke-width="5" fill="#00ffff"/>
  <rect stroke="#ff7f00" id="svg_71" height="14.22222" width="248.88889" y="136.53334" x="14.22222" stroke-linecap="null" stroke-linejoin="null" stroke-dasharray="null" fill="#ffffff"/>
  <rect id="svg_80" transform="rotate(89.99995422363281 271.1111145019531,141.86669921875003) " stroke="#ff7f00" height="7.11111" width="268.44445" y="138.31114" x="136.88888" stroke-linecap="null" stroke-linejoin="null" stroke-dasharray="null" fill="#ead5d5"/>
  <rect stroke="#ff7f00" id="svg_76" height="14.22222" width="268.44445" y="269.86668" x="3.55555" stroke-linecap="null" stroke-linejoin="null" stroke-dasharray="null" fill="#ead5d5"/>
  <rect stroke="#ff7f00" id="svg_53" height="263.11112" width="252.44442" y="9.75556" x="12.88889" opacity="0.3" stroke-linecap="null" stroke-linejoin="null" stroke-dasharray="null" stroke-width="5" fill="#00ffff"/>
  <rect stroke="#ff7f00" id="svg_73" height="144" width="247.11109" y="12.31112" x="17.22223" opacity="0.3" stroke-linecap="null" stroke-linejoin="null" stroke-dasharray="null" stroke-width="0" fill="#00ffff"/>
  <rect stroke="#ff7f00" id="svg_75" height="10.66667" width="248.88889" y="164.97778" x="14.22222" stroke-linecap="null" stroke-linejoin="null" stroke-dasharray="null" fill="#ead5d5"/>
  <rect id="svg_72" stroke="#ff7f00" height="14.22222" width="248.88889" y="133.2" x="14.22222" stroke-linecap="null" stroke-linejoin="null" stroke-dasharray="null" fill="#ead5d5"/>
  <rect id="svg_50" height="120" width="17.33333" y="358.4" x="324.53333" stroke-linecap="null" stroke-linejoin="null" stroke-dasharray="null" stroke-width="null" stroke="#000000" fill="#ffd4aa"/>
  <rect stroke="#000000" id="svg_51" height="120" width="6.66667" y="358.4" x="341.86666" stroke-linecap="null" stroke-linejoin="null" stroke-dasharray="null" stroke-width="null" fill="#db975c"/>
  <ellipse id="svg_49" stroke="#000000" ry="8" rx="118.66667" cy="350.4" cx="331.2" stroke-linecap="null" stroke-linejoin="null" stroke-dasharray="null" fill="#ffd4aa"/>
  <ellipse stroke="#000000" ry="8" rx="118.66667" id="svg_47" cy="346.4" cx="332.53333" stroke-linecap="null" stroke-linejoin="null" stroke-dasharray="null" fill="#ffd4aa"/>
  <ellipse stroke="#000000" opacity="0.3" id="svg_52" ry="4.38889" rx="47.50002" cy="345.23891" cx="396.22233" stroke-linecap="null" stroke-linejoin="null" stroke-dasharray="null" fill="#7f0000"/>
  <ellipse stroke="#000000" ry="59.5" rx="63.5" id="svg_7" cy="288.35001" cx="334" stroke-linecap="null" stroke-linejoin="null" stroke-dasharray="null" fill="#007fff"/>
  <path stroke="#000000" id="svg_33" transform="rotate(-16.23678970336914 341.02526855468756,179.02879333496088) " d="m332.86935,230.00535c0,0 17.10293,-100.96261 17.02356,-101.78696c-0.07937,-0.82434 -9.2667,-0.17739 -14.51196,41.41211c-5.24526,41.58949 -2.5116,60.37485 -2.5116,60.37485z" stroke-linecap="null" stroke-linejoin="null" stroke-dasharray="null" stroke-width="0" fill="#77ba27"/>
  <path transform="rotate(29.57079315185547 371.4082031249999,176.99328613281253) " stroke="#000000" id="svg_35" d="m356.30002,237.45c32.25,-67.39102 12.75,-115.81272 27.75,-120.30546c15,-4.49273 -44.25,16.47336 -21.75,44.42816c22.5,27.95479 15.75,37.93865 15.69998,37.63913c-0.05002,-0.29952 -18.69998,11.28176 -18.75,10.98224c-0.05002,-0.29952 5.30002,15.2753 5.25,14.97578c-0.05002,-0.29952 -8.19998,12.28014 -8.19998,12.28014z" stroke-linecap="null" stroke-linejoin="null" stroke-dasharray="null" stroke-width="0" fill="#4a870d"/>
  <ellipse stroke="#000000" id="svg_38" ry="2.5" rx="32.5" cy="227.35" cx="335.75" stroke-linecap="null" stroke-linejoin="null" stroke-dasharray="null" stroke-width="0" fill="#0000ff"/>
  <ellipse id="svg_9" stroke="#000000" ry="4" rx="32.5" cy="226.59999" cx="337.5" stroke-linecap="null" stroke-linejoin="null" stroke-dasharray="null" stroke-width="null" fill="#0000ff"/>
  <ellipse stroke="#000000" ry="8" rx="57" id="svg_5" cy="230.6" cx="335" stroke-linecap="null" stroke-linejoin="null" stroke-dasharray="null" stroke-width="null" fill="#007fff"/>
  <ellipse id="svg_6" stroke="#000000" ry="8" rx="57" cy="228.6" cx="336" stroke-linecap="null" stroke-linejoin="null" stroke-dasharray="null" stroke-width="null" fill="#007fff"/>
  <path transform="rotate(-2.541611671447754 256.4999999999986,173.4080047607417) " id="svg_10" d="m314,223.6c-46,-136 -115,-83 -115,-83.6c0,-0.6 40,-22.4 56,-15.4c16,7 59,99 59,99z" stroke-linecap="null" stroke-linejoin="null" stroke-dasharray="null" stroke-width="0" stroke="#000000" fill="#00ff00"/>
  <path transform="rotate(26.90650177001953 278.74999999999994,188.4080047607422) " stroke="#000000" id="svg_11" d="m336.25,211.1c-46,-61.48614 -115,-37.52463 -115,-37.79589c0,-0.27126 40,-10.12713 56,-6.9624c16,3.16473 59,44.75829 59,44.75829z" stroke-linecap="null" stroke-linejoin="null" stroke-dasharray="null" stroke-width="0" fill="#00ff00"/>
  <path transform="rotate(64.63497161865234 332,182.4080047607422) " stroke="#000000" id="svg_12" d="m380,195.6c-38.4,-35.74498 -96,-21.81495 -96,-21.97265c0,-0.1577 33.3913,-5.8874 46.74783,-4.04759c13.35652,1.83982 49.25217,26.02025 49.25217,26.02025z" stroke-linecap="null" stroke-linejoin="null" stroke-dasharray="null" stroke-width="0" fill="#00ff00"/>
  <path id="svg_32" stroke="#000000" transform="rotate(-7.222388744354248 316.8089904785158,181.51266479492173) " d="m328.59363,235.7435c0,0 -24.71241,-107.40792 -24.59773,-108.28489c0.11468,-0.87697 13.38966,-0.18871 20.96866,44.0558c7.579,44.2445 3.62907,64.22909 3.62907,64.22909z" stroke-linecap="null" stroke-linejoin="null" stroke-dasharray="null" stroke-width="0" fill="#a4f948"/>
  <path id="svg_26" d="m330.80002,232.2c32.25,-101.25 12.75,-174 27.75,-180.75c15,-6.75 -44.25,24.75 -21.75,66.75c22.5,42 15.75,57 15.69998,56.55c-0.05002,-0.45 -18.69998,16.95 -18.75,16.5c-0.05002,-0.45 5.30002,22.95 5.25,22.5c-0.05002,-0.45 -8.19998,18.45 -8.19998,18.45z" stroke-linecap="null" stroke-linejoin="null" stroke-dasharray="null" stroke-width="0" stroke="#000000" fill="#4a870d"/>
  <path stroke="#000000" transform="rotate(7.901434421539307 387.7500000000006,186.03302001953114) " id="svg_13" d="m361.75024,226.75397c20.79981,-110.33733 51.99952,-67.33822 51.99952,-67.82501c0,-0.48678 -18.08679,-18.17321 -25.3215,-12.49408c-7.23472,5.67913 -26.67801,80.31909 -26.67801,80.31909z" stroke-linecap="null" stroke-linejoin="null" stroke-dasharray="null" stroke-width="0" fill="#00ff00"/>
  <path stroke="#000000" transform="rotate(-91.81956481933594 351.07934570312494,180.90548706054685) " id="svg_14" d="m401.57809,194.09748c-40.39899,-35.74498 -100.99747,-21.81495 -100.99747,-21.97265c0,-0.1577 35.12955,-5.8874 49.18138,-4.04759c14.05182,1.83981 51.81609,26.02024 51.81609,26.02024z" stroke-linecap="null" stroke-linejoin="null" stroke-dasharray="null" stroke-width="0" fill="#00ff00"/>
  <path stroke="#000000" transform="rotate(0.13949932157993317 348.91271972656733,195.441802978508) " id="svg_16" d="m350.67349,229.63713c2.02856,-76.32113 -3.29642,-51.55467 -3.29642,-51.85794c0,-0.30326 -4.56427,32.14585 -0.25357,16.98272c4.3107,-15.16314 7.09997,-57.61993 4.3107,-15.16314c-2.78927,42.45679 -0.76071,50.03836 -0.76071,50.03836z" stroke-linecap="null" stroke-linejoin="null" stroke-dasharray="null" stroke-width="0" fill="#02e502"/>
  <path stroke="#000000" id="svg_24" d="m329.94451,230.59998c0,0 -28.94451,-186.13973 -28.94451,-187.88479c0,-1.74506 9.98087,-9.88867 19.96173,68.63902c9.98087,78.5277 8.98278,119.24576 8.98278,119.24576z" stroke-linecap="null" stroke-linejoin="null" stroke-dasharray="null" stroke-width="0" fill="#5db505"/>
  <ellipse stroke="#000000" ry="4.375" rx="32.5" id="svg_8" cy="229.22499" cx="334.25" stroke-linecap="null" stroke-linejoin="null" stroke-dasharray="null" stroke-width="0" fill="#0000ff"/>
  <path id="svg_31" stroke="#000000" transform="rotate(-7.222388744354248 298.8089904785156,177.76266479492213) " d="m310.59363,231.9935c0,0 -24.71241,-107.40792 -24.59773,-108.28489c0.11468,-0.87697 13.38966,-0.18871 20.96866,44.0558c7.579,44.2445 3.62907,64.22909 3.62907,64.22909z" stroke-linecap="null" stroke-linejoin="null" stroke-dasharray="null" stroke-width="0" fill="#80b24a"/>
  <path stroke="#000000" id="svg_17" transform="rotate(0.13949932157993317 322.9151611328151,170.45642089843875) " d="m324.64529,229.65167c1.9933,-132.1189 -3.2391,-89.24588 -3.2391,-89.77085c0,-0.52499 -4.48492,55.64742 -0.24916,29.39863c4.23575,-26.24879 6.97653,-99.7454 4.23575,-26.24879c-2.74078,73.49661 -0.74748,86.621 -0.74748,86.621z" stroke-linecap="null" stroke-linejoin="null" stroke-dasharray="null" stroke-width="0" fill="#049b04"/>
  <path transform="rotate(-37.73622131347656 317.4861145019531,187.8626098632813) " stroke="#000000" id="svg_25" d="m300.50478,227.84998c0,0 33.99522,-78.77495 33.99522,-79.51347c0,-0.73852 -11.72249,-4.18492 -23.44498,29.04826c-11.72249,33.23319 -10.55024,50.4652 -10.55024,50.4652z" stroke-linecap="null" stroke-linejoin="null" stroke-dasharray="null" stroke-width="0" fill="#4a870d"/>
  <path id="svg_19" stroke="#000000" transform="rotate(0.13949932157993317 317.91271972656733,195.4418029785145) " d="m319.67349,229.63713c2.02857,-76.32113 -3.29641,-51.55467 -3.29641,-51.85793c0,-0.30327 -4.56427,32.14585 -0.25357,16.98271c4.31069,-15.16314 7.09997,-57.61993 4.31069,-15.16314c-2.78927,42.45679 -0.76071,50.03836 -0.76071,50.03836z" stroke-linecap="null" stroke-linejoin="null" stroke-dasharray="null" stroke-width="0" fill="#02e502"/>
  <path stroke="#000000" id="svg_36" transform="rotate(-20.734590530395508 315.97753906249994,114.87933349609366) " d="m304.03425,187.5425c0,0 25.04515,-143.91445 24.92893,-145.08948c-0.11622,-1.17505 -13.56994,-0.25285 -21.25099,59.02978c-7.68105,59.28261 -3.67794,86.05971 -3.67794,86.05971z" stroke-linecap="null" stroke-linejoin="null" stroke-dasharray="null" stroke-width="0" fill="#84dd16"/>
  <path stroke="#000000" id="svg_18" transform="rotate(-19.05544662475586 327.7698364257814,157.2018127441407) " d="m329.53059,235.38726c2.02857,-174.50344 -3.29641,-117.87649 -3.29641,-118.56988c0,-0.69341 -4.56427,73.49945 -0.25357,38.82989c4.31069,-34.66956 7.09997,-131.74433 4.31069,-34.66956c-2.78927,97.07477 -0.76071,114.40955 -0.76071,114.40955z" stroke-linecap="null" stroke-linejoin="null" stroke-dasharray="null" stroke-width="0" fill="#75ea75"/>
  <path id="svg_37" stroke="#000000" transform="rotate(-17.220073699951172 365.6036682128905,189.7135925292968) " d="m331.81653,217.71855c0,0 67.63907,-55.16963 67.63907,-55.68684c0,-0.51722 -23.32382,-2.93089 -46.64763,20.3438c-23.32381,23.27468 -20.99144,35.34304 -20.99144,35.34304z" stroke-linecap="null" stroke-linejoin="null" stroke-dasharray="null" stroke-width="0" fill="#70c41d"/>
  <path stroke="#000000" id="svg_27" transform="rotate(-17.220073699951172 367.8536682128904,191.9636077880859) " d="m334.06653,219.96855c0,0 67.63907,-55.16963 67.63907,-55.68684c0,-0.51721 -23.32382,-2.93089 -46.64763,20.3438c-23.32381,23.27468 -20.99144,35.34304 -20.99144,35.34304z" stroke-linecap="null" stroke-linejoin="null" stroke-dasharray="null" stroke-width="0" fill="#60b709"/>
  <path transform="rotate(-9.067158699035645 355.73611450195307,197.11262512207017) " id="svg_21" d="m341.25,229.6c0,0 29,-64 29,-64.6c0,-0.6 -10,-3.4 -20,23.6c-10,27 -9,41 -9,41z" stroke-linecap="null" stroke-linejoin="null" stroke-dasharray="null" stroke-width="0" stroke="#000000" fill="#5db505"/>
  <path stroke="#000000" transform="rotate(-64.2537841796875 294.81207275390625,117.95510864257812) " id="svg_22" d="m280.04971,141.51403c0,0 29.55306,-46.41097 29.55306,-46.84607c0,-0.4351 -10.19071,-2.46558 -20.38142,17.11404c-10.19071,19.57963 -9.17164,29.73203 -9.17164,29.73203z" stroke-linecap="null" stroke-linejoin="null" stroke-dasharray="null" stroke-width="0" fill="#66c904"/>
  <path stroke="#000000" id="svg_23" d="m315.69451,226.1c0,0 -28.94451,-64 -28.94451,-64.6c0,-0.6 9.98087,-3.4 19.96173,23.6c9.98087,27 8.98278,41 8.98278,41z" stroke-linecap="null" stroke-linejoin="null" stroke-dasharray="null" stroke-width="0" fill="#5db505"/>
  <path stroke="#000000" id="svg_28" transform="rotate(0.13949932157993317 349.5335388183596,157.57684326172196) " d="m351.29429,230.13731c2.02857,-161.94894 -3.29641,-109.39598 -3.29641,-110.03947c0,-0.64352 -4.56427,68.2116 -0.25357,36.03631c4.31069,-32.17529 7.09997,-122.26609 4.31069,-32.17529c-2.78927,90.09081 -0.76071,106.17846 -0.76071,106.17846z" stroke-linecap="null" stroke-linejoin="null" stroke-dasharray="null" stroke-width="0" fill="#75ea75"/>
  <path stroke="#000000" transform="rotate(-28.881362915039062 316.5912475585937,157.8547668457031) " id="svg_29" d="m298.82269,231.29617c8.75026,-93.75 44.54676,-117.75 33.41007,-135c-11.13669,-17.25 -19.88695,-10.5 -19.83389,-10.95c0.05306,-0.45 8.6972,65.7 8.75026,65.25c0.05306,-0.45 -19.94,37.95 -19.88695,37.5c0.05306,-0.45 -2.43949,43.2 -2.43949,43.2z" stroke-linecap="null" stroke-linejoin="null" stroke-dasharray="null" stroke-width="0" fill="#5ea814"/>
  <path stroke="#000000" transform="rotate(8.7293119430542 338.8965148925782,181.56449890136733) " id="svg_30" d="m350.68115,233.57139c0,0 -24.71242,-103.00326 -24.59773,-103.84427c0.11468,-0.84101 13.38966,-0.18097 20.96866,42.24913c7.579,42.43009 3.62907,61.59514 3.62907,61.59514z" stroke-linecap="null" stroke-linejoin="null" stroke-dasharray="null" stroke-width="0" fill="#60af0a"/>
  <path stroke="#000000" id="svg_34" d="m341.02042,230.70374c1.69602,-113.16425 -7.41864,-71.30758 -7.39142,-71.80161c0.02722,-0.49401 4.90622,-17.41056 6.14469,-11.23401c1.23847,6.17657 1.24673,83.03562 1.24673,83.03562z" stroke-linecap="null" stroke-linejoin="null" stroke-dasharray="null" stroke-width="0" fill="#00ff00"/>
  <ellipse stroke="#000000" opacity="0.5" transform="rotate(27.543115615844727 293.8614196777344,265.47949218749994) " id="svg_40" ry="20.05122" rx="13.65909" cy="265.4795" cx="293.86139" stroke-linecap="null" stroke-linejoin="null" stroke-dasharray="null" stroke-width="0" fill="#ffffff"/>
  <ellipse stroke="#000000" transform="rotate(19.440032958984375 303.09155273437517,265.45730590820307) " id="svg_41" ry="21.37499" rx="19.23538" cy="265.45731" cx="303.09158" stroke-linecap="null" stroke-linejoin="null" stroke-dasharray="null" stroke-width="0" fill="#007fff"/>
  <ellipse stroke="#000000" id="svg_42" transform="rotate(-33.025146484375 301.38381958007795,299.095947265625) " ry="33.93197" rx="11.28929" cy="299.09596" cx="301.38386" stroke-linecap="null" stroke-linejoin="null" stroke-dasharray="null" stroke-width="0" fill="#007fff"/>
  <line stroke="#ffffff" id="svg_56" y2="74.31111" x2="32" y1="26.31111" x1="96.00001" opacity="0.3" stroke-linecap="null" stroke-linejoin="null" stroke-dasharray="null" fill="none"/>
  <line stroke="#ffffff" id="svg_58" y2="68.97778" x2="16" y1="13.86667" x1="87.11112" opacity="0.3" stroke-linecap="null" stroke-linejoin="null" stroke-dasharray="null" fill="none"/>
  <rect stroke="#ffffff" id="svg_59" height="184.88889" width="117.33332" y="60.08889" x="503.11112" stroke-linecap="null" stroke-linejoin="null" stroke-dasharray="null" fill="#ffff00"/>
  <rect stroke="#ffffff" id="svg_61" height="85.33333" width="117.33332" y="161.00035" x="502.17709" stroke-linecap="null" stroke-linejoin="null" stroke-dasharray="null" fill="#ffff00"/>
  <rect stroke="#ffffff" id="svg_62" height="71.11111" width="117.33333" y="166.75556" x="503.11111" stroke-linecap="null" stroke-linejoin="null" stroke-dasharray="null" stroke-width="null" fill="#ffffff"/>
  <rect stroke="#ffffff" opacity="0.3" id="svg_63" height="97.77778" width="115.55555" y="61.86667" x="503.11111" stroke-linecap="null" stroke-linejoin="null" stroke-dasharray="null" stroke-width="null" fill="#ff0000"/>
  <text stroke="#ffffff" transform="matrix(1,0,0,0.6249219896635623,0,58.379906720880626) " xml:space="preserve" text-anchor="middle" font-family="serif" font-size="24" id="svg_65" y="189.63073" x="558.22222" opacity="0.3" stroke-linecap="null" stroke-linejoin="null" stroke-dasharray="null" stroke-width="0" fill="#000000">Janyar</text>
  <rect stroke="#ff7f00" id="svg_74" height="14.22222" width="248.33336" y="157.86667" x="14.22221" stroke-linecap="null" stroke-linejoin="null" stroke-dasharray="null" fill="#fcd4d4"/>
  <rect stroke="#ff7f00" transform="rotate(89.99995422363281 8.000000953674304,139.31112670898438) " id="svg_78" height="7.11111" width="262.88888" y="135.75557" x="-123.44443" stroke-linecap="null" stroke-linejoin="null" stroke-dasharray="null" fill="#ead5d5"/>
  <rect stroke="#ff7f00" id="svg_82" height="1.77778" width="271.99999" y="8.53334" x="1.77779" stroke-linecap="null" stroke-linejoin="null" stroke-dasharray="null" fill="#ead5d5"/>
  <rect stroke="#ff7f00" transform="rotate(-38.375694274902344 41.99159240722656,33.52023696899413) " id="svg_84" height="1.77778" width="53.4786" y="32.63134" x="15.25229" opacity="0.8" stroke-linecap="null" stroke-linejoin="null" stroke-dasharray="null" stroke-width="0" fill="#ffffff"/>
  <rect stroke="#ff7f00" id="svg_85" transform="rotate(-38.375694274902344 30.352973937988263,23.713802337646477) " height="0.373" width="30.67596" y="23.5273" x="15.01499" opacity="0.8" stroke-linecap="null" stroke-linejoin="null" stroke-dasharray="null" stroke-width="0" fill="#ffffff"/>
  <rect stroke="#ff7f00" id="svg_86" transform="rotate(-38.375694274902344 36.12934112548829,27.931398391723633) " height="1.84748" width="40.05169" y="27.00767" x="16.1035" opacity="0.8" stroke-linecap="null" stroke-linejoin="null" stroke-dasharray="null" stroke-width="0" fill="#ffffff"/>
  <rect stroke="#110101" id="svg_125" height="80.25" width="102" y="68.025" x="510.61253" opacity="0.3" stroke-linecap="null" stroke-linejoin="null" stroke-dasharray="null" stroke-width="0.3" fill="#ffffff"/>
  <ellipse ry="18" rx="18.5625" id="svg_126" cy="102.86251" cx="543.94996" opacity="0.6" stroke-linecap="null" stroke-linejoin="null" stroke-dasharray="null" stroke-width="0.3" stroke="#110101" fill="#ffffff"/>
 </g>
</svg>
