<svg width="640.0000000000001" height="480.00000000000006" xmlns="http://www.w3.org/2000/svg" xmlns:svg="http://www.w3.org/2000/svg" xmlns:se="http://svg-edit.googlecode.com">
 <!-- Created with SVG-edit - http://svg-edit.googlecode.com/ -->
 <g stroke="null">
  <title>Layer 1</title>
  <polyline opacity="0.5" se:connector="svg_20 svg_90" fill="none" stroke-width="5" stroke="#000000" points="615.44 205.135 593.9 205.271 572.36 205.407" id="asvg_99"/>
  <polyline opacity="0.5" se:connector="svg_20 svg_62" fill="none" stroke-width="5" stroke="#000000" points="554.174 180.927 551.655 173.841 549.136 166.756" id="asvg_91"/>
  <rect stroke="#ff7f00" fill="#ead5d5" stroke-dasharray="null" stroke-linejoin="null" stroke-linecap="null" x="3.55555" y="276.97779" width="268.44445" height="14.22222" id="asvg_77"/>
  <rect stroke="#ffffff" fill="#ff00ff" stroke-width="null" stroke-dasharray="null" stroke-linejoin="null" stroke-linecap="null" opacity="0.29" x="-1.41492" y="0.2162" width="641.77777" height="481.77779" id="asvg_60"/>
  <line stroke="#00ff00" id="asvg_94" y2="71.39999" x2="547.4" y1="110.39999" x1="535.4" opacity="0.9" stroke-linecap="null" stroke-linejoin="null" stroke-dasharray="null" fill="none"/>
  <rect stroke="#ff7f00" fill="#ead5d5" stroke-dasharray="null" stroke-linejoin="null" stroke-linecap="null" x="135.11111" y="138.31117" width="268.44445" height="3.55553" transform="rotate(89.99995422363281 269.33334350585943,140.08892822265625) " id="asvg_79"/>
  <rect stroke="#ff7f00" fill="#00ffff" stroke-width="5" stroke-dasharray="null" stroke-linejoin="null" stroke-linecap="null" opacity="0.3" x="12.44445" y="8.53334" width="252.44442" height="264.88889" id="asvg_70"/>
  <rect stroke="#ff7f00" fill="#ffffff" stroke-dasharray="null" stroke-linejoin="null" stroke-linecap="null" x="14.22222" y="136.53334" width="248.88889" height="14.22222" id="asvg_71"/>
  <rect stroke="#ff7f00" fill="#ead5d5" stroke-dasharray="null" stroke-linejoin="null" stroke-linecap="null" x="136.88888" y="138.31114" width="268.44445" height="7.11111" transform="rotate(89.99995422363281 271.1111145019531,141.86669921875003) " id="asvg_80"/>
  <rect stroke="#ff7f00" fill="#ead5d5" stroke-dasharray="null" stroke-linejoin="null" stroke-linecap="null" x="3.55555" y="269.86668" width="268.44445" height="14.22222" id="asvg_76"/>
  <rect stroke="#ff7f00" fill="#00ffff" stroke-width="5" stroke-dasharray="null" stroke-linejoin="null" stroke-linecap="null" opacity="0.3" x="12.88889" y="9.75556" width="252.44442" height="263.11112" id="asvg_53"/>
  <rect stroke="#ff7f00" fill="#00ffff" stroke-width="0" stroke-dasharray="null" stroke-linejoin="null" stroke-linecap="null" opacity="0.3" x="17.22223" y="12.31112" width="247.11109" height="144" id="asvg_73"/>
  <rect stroke="#ff7f00" fill="#ead5d5" stroke-dasharray="null" stroke-linejoin="null" stroke-linecap="null" x="14.22222" y="164.97778" width="248.88889" height="10.66667" id="asvg_75"/>
  <rect stroke="#ff7f00" fill="#ead5d5" stroke-dasharray="null" stroke-linejoin="null" stroke-linecap="null" x="14.22222" y="133.2" width="248.88889" height="14.22222" id="asvg_72"/>
  <rect stroke="#000000" fill="#ffd4aa" stroke-width="null" stroke-dasharray="null" stroke-linejoin="null" stroke-linecap="null" x="324.53333" y="358.4" width="17.33333" height="120" id="asvg_50"/>
  <rect stroke="#000000" fill="#db975c" stroke-width="null" stroke-dasharray="null" stroke-linejoin="null" stroke-linecap="null" x="341.86666" y="358.4" width="6.66667" height="120" id="asvg_51"/>
  <ellipse stroke="#000000" fill="#ffd4aa" stroke-dasharray="null" stroke-linejoin="null" stroke-linecap="null" cx="331.2" cy="350.4" rx="118.66667" ry="8" id="asvg_49"/>
  <ellipse stroke="#000000" fill="#ffd4aa" stroke-dasharray="null" stroke-linejoin="null" stroke-linecap="null" cx="332.53333" cy="346.4" id="asvg_47" rx="118.66667" ry="8"/>
  <ellipse stroke="#000000" fill="#7f0000" stroke-dasharray="null" stroke-linejoin="null" stroke-linecap="null" cx="396.22233" cy="345.23891" rx="47.50002" ry="4.38889" id="asvg_52" opacity="0.3"/>
  <ellipse stroke="#000000" fill="#007fff" stroke-dasharray="null" stroke-linejoin="null" stroke-linecap="null" cx="334" cy="288.35001" id="asvg_7" rx="63.5" ry="59.5"/>
  <path stroke="#000000" fill="#77ba27" stroke-width="0" stroke-dasharray="null" stroke-linejoin="null" stroke-linecap="null" d="m332.86935,230.00535c0,0 17.10293,-100.96261 17.02356,-101.78696c-0.07937,-0.82434 -9.2667,-0.17739 -14.51196,41.41211c-5.24526,41.58949 -2.5116,60.37485 -2.5116,60.37485z" transform="rotate(-16.23678970336914 341.02526855468756,179.02879333496088) " id="asvg_33"/>
  <path stroke="#000000" fill="#4a870d" stroke-width="0" stroke-dasharray="null" stroke-linejoin="null" stroke-linecap="null" d="m356.30002,237.45c32.25,-67.39102 12.75,-115.81272 27.75,-120.30546c15,-4.49273 -44.25,16.47336 -21.75,44.42816c22.5,27.95479 15.75,37.93865 15.69998,37.63913c-0.05002,-0.29952 -18.69998,11.28176 -18.75,10.98224c-0.05002,-0.29952 5.30002,15.2753 5.25,14.97578c-0.05002,-0.29952 -8.19998,12.28014 -8.19998,12.28014l0,0.00001z" id="asvg_35" transform="rotate(29.57079315185547 371.4082031249999,176.99328613281253) "/>
  <ellipse stroke="#000000" fill="#0000ff" stroke-width="0" stroke-dasharray="null" stroke-linejoin="null" stroke-linecap="null" cx="335.75" cy="227.35" rx="32.5" ry="2.5" id="asvg_38"/>
  <ellipse stroke="#000000" fill="#0000ff" stroke-width="null" stroke-dasharray="null" stroke-linejoin="null" stroke-linecap="null" cx="337.5" cy="226.59999" rx="32.5" ry="4" id="asvg_9"/>
  <ellipse stroke="#000000" ry="54" rx="47.25" id="asvg_120" cy="287.85" cx="348.95004" opacity="0.3" stroke-linecap="null" stroke-linejoin="null" stroke-dasharray="null" stroke-width="null" fill="#7f0000"/>
  <ellipse stroke="#000000" stroke-width="0" id="asvg_121" fill="#007fff" stroke-dasharray="null" stroke-linejoin="null" stroke-linecap="null" cx="338.04167" cy="289.19723" rx="41.01389" ry="56.40278"/>
  <ellipse stroke="#000000" fill="#007fff" stroke-width="null" stroke-dasharray="null" stroke-linejoin="null" stroke-linecap="null" cx="335" cy="230.6" id="asvg_5" rx="57" ry="8"/>
  <ellipse stroke="#000000" fill="#007fff" stroke-width="null" stroke-dasharray="null" stroke-linejoin="null" stroke-linecap="null" cx="336" cy="228.6" rx="57" ry="8" id="asvg_6"/>
  <path stroke="#000000" fill="#00ff00" stroke-width="0" stroke-dasharray="null" stroke-linejoin="null" stroke-linecap="null" d="m314,223.6c-46,-136 -115,-83 -115,-83.6c0,-0.6 40,-22.4 56,-15.4c16,7 59,99 59,99z" id="asvg_10" transform="rotate(-2.541611671447754 256.4999999999986,173.4080047607417) "/>
  <path stroke="#000000" fill="#00ff00" stroke-width="0" stroke-dasharray="null" stroke-linejoin="null" stroke-linecap="null" d="m336.25,211.1c-46,-61.48614 -115,-37.52463 -115,-37.79589c0,-0.27126 40,-10.12713 56,-6.9624c16,3.16473 59,44.75829 59,44.75829z" id="asvg_11" transform="rotate(26.90650177001953 278.74999999999994,188.4080047607422) "/>
  <path stroke="#000000" fill="#00ff00" stroke-width="0" stroke-dasharray="null" stroke-linejoin="null" stroke-linecap="null" d="m380,195.6c-38.4,-35.74498 -96,-21.81495 -96,-21.97265c0,-0.1577 33.3913,-5.8874 46.74783,-4.04759c13.35652,1.83982 49.25217,26.02025 49.25217,26.02025l0,-0.00001z" id="asvg_12" transform="rotate(64.63497161865234 332,182.4080047607422) "/>
  <path stroke="#000000" fill="#a4f948" stroke-width="0" stroke-dasharray="null" stroke-linejoin="null" stroke-linecap="null" d="m328.59363,235.7435c0,0 -24.71241,-107.40792 -24.59773,-108.28489c0.11468,-0.87697 13.38966,-0.18871 20.96866,44.0558c7.579,44.2445 3.62907,64.22909 3.62907,64.22909z" transform="rotate(-7.222388744354248 316.8089904785158,181.51266479492173) " id="asvg_32"/>
  <path stroke="#000000" fill="#4a870d" stroke-width="0" stroke-dasharray="null" stroke-linejoin="null" stroke-linecap="null" d="m330.80002,232.2c32.25,-101.25 12.75,-174 27.75,-180.75c15,-6.75 -44.25,24.75 -21.75,66.75c22.5,42 15.75,57 15.69998,56.55c-0.05002,-0.45 -18.69998,16.95 -18.75,16.5c-0.05002,-0.45 5.30002,22.95 5.25,22.5c-0.05002,-0.45 -8.19998,18.45 -8.19998,18.45z" id="asvg_26"/>
  <path stroke="#000000" fill="#00ff00" stroke-width="0" stroke-dasharray="null" stroke-linejoin="null" stroke-linecap="null" d="m361.75024,226.75397c20.79981,-110.33733 51.99952,-67.33822 51.99952,-67.82501c0,-0.48678 -18.08679,-18.17321 -25.3215,-12.49408c-7.23472,5.67913 -26.67801,80.31909 -26.67801,80.31909l-0.00001,0z" id="asvg_13" transform="rotate(7.901434421539307 387.7500000000006,186.03302001953114) "/>
  <path stroke="#000000" fill="#00ff00" stroke-width="0" stroke-dasharray="null" stroke-linejoin="null" stroke-linecap="null" d="m401.57809,194.09748c-40.39899,-35.74498 -100.99747,-21.81495 -100.99747,-21.97265c0,-0.1577 35.12955,-5.8874 49.18138,-4.04759c14.05182,1.83981 51.81609,26.02024 51.81609,26.02024z" id="asvg_14" transform="rotate(-91.81956481933594 351.07934570312494,180.90548706054685) "/>
  <path stroke="#000000" fill="#02e502" stroke-width="0" stroke-dasharray="null" stroke-linejoin="null" stroke-linecap="null" d="m350.67349,229.63713c2.02856,-76.32113 -3.29642,-51.55467 -3.29642,-51.85794c0,-0.30326 -4.56427,32.14585 -0.25357,16.98272c4.3107,-15.16314 7.09997,-57.61993 4.3107,-15.16314c-2.78927,42.45679 -0.76071,50.03836 -0.76071,50.03836z" id="asvg_16" transform="rotate(0.13949932157993317 348.91271972656733,195.441802978508) "/>
  <path stroke="#000000" fill="#5db505" stroke-width="0" stroke-dasharray="null" stroke-linejoin="null" stroke-linecap="null" d="m329.94451,230.59998c0,0 -28.94451,-186.13973 -28.94451,-187.88479c0,-1.74506 9.98087,-9.88867 19.96173,68.63902c9.98087,78.5277 8.98278,119.24576 8.98278,119.24576l0,0.00001z" id="asvg_24"/>
  <ellipse stroke="#000000" fill="#0000ff" stroke-width="0" stroke-dasharray="null" stroke-linejoin="null" stroke-linecap="null" cx="334.25" cy="229.22499" id="asvg_8" rx="32.5" ry="4.375"/>
  <path stroke="#000000" fill="#80b24a" stroke-width="0" stroke-dasharray="null" stroke-linejoin="null" stroke-linecap="null" d="m310.59363,231.9935c0,0 -24.71241,-107.40792 -24.59773,-108.28489c0.11468,-0.87697 13.38966,-0.18871 20.96866,44.0558c7.579,44.2445 3.62907,64.22909 3.62907,64.22909z" transform="rotate(-7.222388744354248 298.8089904785156,177.76266479492213) " id="asvg_31"/>
  <path stroke="#000000" fill="#049b04" stroke-width="0" stroke-dasharray="null" stroke-linejoin="null" stroke-linecap="null" d="m324.64529,229.65167c1.9933,-132.1189 -3.2391,-89.24588 -3.2391,-89.77085c0,-0.52499 -4.48492,55.64742 -0.24916,29.39863c4.23575,-26.24879 6.97653,-99.7454 4.23575,-26.24879c-2.74078,73.49661 -0.74748,86.621 -0.74748,86.621l-0.00001,0.00001z" transform="rotate(0.13949932157993317 322.9151611328151,170.45642089843875) " id="asvg_17"/>
  <path stroke="#000000" fill="#4a870d" stroke-width="0" stroke-dasharray="null" stroke-linejoin="null" stroke-linecap="null" d="m300.50478,227.84998c0,0 33.99522,-78.77495 33.99522,-79.51347c0,-0.73852 -11.72249,-4.18492 -23.44498,29.04826c-11.72249,33.23319 -10.55024,50.4652 -10.55024,50.4652l0,0.00001z" id="asvg_25" transform="rotate(-37.73622131347656 317.4861145019531,187.8626098632813) "/>
  <path stroke="#000000" fill="#02e502" stroke-width="0" stroke-dasharray="null" stroke-linejoin="null" stroke-linecap="null" d="m319.67349,229.63713c2.02857,-76.32113 -3.29641,-51.55467 -3.29641,-51.85793c0,-0.30327 -4.56427,32.14585 -0.25357,16.98271c4.31069,-15.16314 7.09997,-57.61993 4.31069,-15.16314c-2.78927,42.45679 -0.76071,50.03836 -0.76071,50.03836z" transform="rotate(0.13949932157993317 317.91271972656733,195.4418029785145) " id="asvg_19"/>
  <path stroke="#000000" fill="#84dd16" stroke-width="0" stroke-dasharray="null" stroke-linejoin="null" stroke-linecap="null" d="m304.03425,187.5425c0,0 25.04515,-143.91445 24.92893,-145.08948c-0.11622,-1.17505 -13.56994,-0.25285 -21.25099,59.02978c-7.68105,59.28261 -3.67794,86.05971 -3.67794,86.05971l0,-0.00001z" transform="rotate(-20.734590530395508 315.97753906249994,114.87933349609366) " id="asvg_36"/>
  <path stroke="#000000" fill="#75ea75" stroke-width="0" stroke-dasharray="null" stroke-linejoin="null" stroke-linecap="null" d="m329.53059,235.38726c2.02857,-174.50344 -3.29641,-117.87649 -3.29641,-118.56988c0,-0.69341 -4.56427,73.49945 -0.25357,38.82989c4.31069,-34.66956 7.09997,-131.74433 4.31069,-34.66956c-2.78927,97.07477 -0.76071,114.40955 -0.76071,114.40955z" transform="rotate(-19.05544662475586 327.7698364257814,157.2018127441407) " id="asvg_18"/>
  <path stroke="#000000" fill="#70c41d" stroke-width="0" stroke-dasharray="null" stroke-linejoin="null" stroke-linecap="null" d="m331.81653,217.71855c0,0 67.63907,-55.16963 67.63907,-55.68684c0,-0.51722 -23.32382,-2.93089 -46.64763,20.3438c-23.32381,23.27468 -20.99144,35.34304 -20.99144,35.34304z" transform="rotate(-17.220073699951172 365.6036682128905,189.7135925292968) " id="asvg_37"/>
  <path stroke="#000000" fill="#60b709" stroke-width="0" stroke-dasharray="null" stroke-linejoin="null" stroke-linecap="null" d="m334.06653,219.96855c0,0 67.63907,-55.16963 67.63907,-55.68684c0,-0.51721 -23.32382,-2.93089 -46.64763,20.3438c-23.32381,23.27468 -20.99144,35.34304 -20.99144,35.34304z" transform="rotate(-17.220073699951172 367.8536682128904,191.9636077880859) " id="asvg_27"/>
  <path stroke="#000000" fill="#5db505" stroke-width="0" stroke-dasharray="null" stroke-linejoin="null" stroke-linecap="null" d="m341.25,229.6c0,0 29,-64 29,-64.6c0,-0.6 -10,-3.4 -20,23.6c-10,27 -9,41 -9,41z" id="asvg_21" transform="rotate(-9.067158699035645 355.73611450195307,197.11262512207017) "/>
  <path stroke="#000000" fill="#66c904" stroke-width="0" stroke-dasharray="null" stroke-linejoin="null" stroke-linecap="null" d="m280.04971,141.51403c0,0 29.55306,-46.41097 29.55306,-46.84607c0,-0.4351 -10.19071,-2.46558 -20.38142,17.11404c-10.19071,19.57963 -9.17164,29.73203 -9.17164,29.73203z" id="asvg_22" transform="rotate(-64.2537841796875 294.81207275390625,117.95510864257812) "/>
  <path stroke="#000000" fill="#5db505" stroke-width="0" stroke-dasharray="null" stroke-linejoin="null" stroke-linecap="null" d="m315.69451,226.1c0,0 -28.94451,-64 -28.94451,-64.6c0,-0.6 9.98087,-3.4 19.96173,23.6c9.98087,27 8.98278,41 8.98278,41z" id="asvg_23"/>
  <path stroke="#000000" fill="#75ea75" stroke-width="0" stroke-dasharray="null" stroke-linejoin="null" stroke-linecap="null" d="m351.29429,230.13731c2.02857,-161.94894 -3.29641,-109.39598 -3.29641,-110.03947c0,-0.64352 -4.56427,68.2116 -0.25357,36.03631c4.31069,-32.17529 7.09997,-122.26609 4.31069,-32.17529c-2.78927,90.09081 -0.76071,106.17846 -0.76071,106.17846l0,-0.00001z" transform="rotate(0.13949932157993317 349.5335388183596,157.57684326172196) " id="asvg_28"/>
  <path stroke="#000000" fill="#5ea814" stroke-width="0" stroke-dasharray="null" stroke-linejoin="null" stroke-linecap="null" d="m298.82269,231.29617c8.75026,-93.75 44.54676,-117.75 33.41007,-135c-11.13669,-17.25 -19.88695,-10.5 -19.83389,-10.95c0.05306,-0.45 8.6972,65.7 8.75026,65.25c0.05306,-0.45 -19.94,37.95 -19.88695,37.5c0.05306,-0.45 -2.43949,43.2 -2.43949,43.2z" id="asvg_29" transform="rotate(-28.881362915039062 316.5912475585937,157.8547668457031) "/>
  <path stroke="#000000" fill="#60af0a" stroke-width="0" stroke-dasharray="null" stroke-linejoin="null" stroke-linecap="null" d="m350.68115,233.57139c0,0 -24.71242,-103.00326 -24.59773,-103.84427c0.11468,-0.84101 13.38966,-0.18097 20.96866,42.24913c7.579,42.43009 3.62907,61.59514 3.62907,61.59514z" id="asvg_30" transform="rotate(8.7293119430542 338.8965148925782,181.56449890136733) "/>
  <path stroke="#000000" fill="#00ff00" stroke-width="0" stroke-dasharray="null" stroke-linejoin="null" stroke-linecap="null" d="m341.02042,230.70374c1.69602,-113.16425 -7.41864,-71.30758 -7.39142,-71.80161c0.02722,-0.49401 4.90622,-17.41056 6.14469,-11.23401c1.23847,6.17657 1.24673,83.03562 1.24673,83.03562z" id="asvg_34"/>
  <ellipse stroke="#000000" fill="#ffffff" stroke-width="0" stroke-dasharray="null" stroke-linejoin="null" stroke-linecap="null" cx="293.86139" cy="265.4795" rx="13.65909" ry="20.05122" id="asvg_40" transform="rotate(27.543115615844727 293.8614196777344,265.47949218749994) " opacity="0.5"/>
  <ellipse stroke="#000000" fill="#007fff" stroke-width="0" stroke-dasharray="null" stroke-linejoin="null" stroke-linecap="null" cx="303.09158" cy="265.45731" rx="19.23538" ry="21.37499" id="asvg_41" transform="rotate(19.440032958984375 303.09155273437517,265.45730590820307) "/>
  <ellipse stroke="#000000" fill="#007fff" stroke-width="0" stroke-dasharray="null" stroke-linejoin="null" stroke-linecap="null" cx="301.38386" cy="299.09596" rx="11.28929" ry="33.93197" transform="rotate(-33.025146484375 301.38381958007795,299.095947265625) " id="asvg_42"/>
  <line stroke="#ffffff" fill="none" stroke-dasharray="null" stroke-linejoin="null" stroke-linecap="null" opacity="0.3" x1="96.00001" y1="26.31111" x2="32" y2="74.31111" id="asvg_56"/>
  <line stroke="#ffffff" fill="none" stroke-dasharray="null" stroke-linejoin="null" stroke-linecap="null" opacity="0.3" x1="87.11112" y1="13.86667" x2="16" y2="68.97778" id="asvg_58"/>
  <rect stroke="#ffffff" fill="#ffff00" stroke-dasharray="null" stroke-linejoin="null" stroke-linecap="null" x="503.11112" y="60.08889" width="117.33332" height="184.88889" id="asvg_59"/>
  <rect stroke="#ffffff" fill="#ffff00" stroke-dasharray="null" stroke-linejoin="null" stroke-linecap="null" x="503.67709" y="159.50035" width="117.33332" height="85.33333" id="asvg_61"/>
  <rect stroke="#ffffff" opacity="0.9" fill="#ffffff" stroke-width="null" stroke-dasharray="null" stroke-linejoin="null" stroke-linecap="null" x="503.11111" y="166.75556" width="117.33333" height="71.11111" id="asvg_62"/>
  <rect stroke="#ffffff" fill="#ff0000" stroke-width="null" stroke-dasharray="null" stroke-linejoin="null" stroke-linecap="null" x="504.11111" y="61.86667" width="115.55555" height="97.77778" id="asvg_63" opacity="0.3"/>
  <path fill="#ff7f00" stroke="#ffffff" stroke-width="null" stroke-dasharray="null" stroke-linejoin="null" stroke-linecap="null" opacity="0.35" d="m556.89943,148.38798l10.28571,-17.99999l10.28571,17.99999l-20.57141,0l-0.00001,0z" id="asvg_104" transform="rotate(42.81217956542969 567.1851196289061,139.38796997070315) "/>
  <text stroke="#ffffff" fill="#000000" stroke-width="0" stroke-dasharray="null" stroke-linejoin="null" stroke-linecap="null" opacity="0.3" x="564.55034" y="189.12442" id="asvg_65" font-size="24" font-family="serif" text-anchor="middle" xml:space="preserve" transform="matrix(1,0,0,0.6249219896635623,0,58.379906720880626) ">Janwar</text>
  <rect stroke="#ff7f00" fill="#fcd4d4" stroke-dasharray="null" stroke-linejoin="null" stroke-linecap="null" x="14.22221" y="157.86667" width="248.33336" height="14.22222" id="asvg_74"/>
  <rect stroke="#ff7f00" fill="#ead5d5" stroke-dasharray="null" stroke-linejoin="null" stroke-linecap="null" x="-123.44443" y="135.75557" width="262.88888" height="7.11111" id="asvg_78" transform="rotate(89.99995422363281 8.000000953674304,139.31112670898438) "/>
  <rect stroke="#ff7f00" fill="#ead5d5" stroke-dasharray="null" stroke-linejoin="null" stroke-linecap="null" x="1.77779" y="8.53334" width="271.99999" height="1.77778" id="asvg_82"/>
  <rect stroke="#ff7f00" fill="#ffffff" stroke-width="0" stroke-dasharray="null" stroke-linejoin="null" stroke-linecap="null" opacity="0.8" x="15.25229" y="32.63134" width="53.4786" height="1.77778" id="asvg_84" transform="rotate(-38.375694274902344 41.99159240722656,33.52023696899413) "/>
  <rect stroke="#ff7f00" fill="#ffffff" stroke-width="0" stroke-dasharray="null" stroke-linejoin="null" stroke-linecap="null" opacity="0.8" x="15.01499" y="23.5273" width="30.67596" height="0.373" transform="rotate(-38.375694274902344 30.352973937988263,23.713802337646477) " id="asvg_85"/>
  <rect stroke="#ff7f00" fill="#ffffff" stroke-width="0" stroke-dasharray="null" stroke-linejoin="null" stroke-linecap="null" opacity="0.8" x="16.1035" y="27.00767" width="40.05169" height="1.84748" transform="rotate(-38.375694274902344 36.12934112548829,27.931398391723633) " id="asvg_86"/>
  <rect stroke="#110101" fill="#cff7f7" stroke-width="0.3" stroke-dasharray="null" stroke-linejoin="null" stroke-linecap="null" x="506.83396" y="67.90123" width="110.8125" height="88.27148" id="asvg_125"/>
  <rect stroke="#ffffff" fill="#a9f9f9" stroke-width="0" stroke-dasharray="null" stroke-linejoin="null" stroke-linecap="null" x="507.80001" y="68.41035" width="109.18652" height="40.38966" id="asvg_95"/>
  <ellipse stroke="#ff7f00" ry="1.61719" rx="1.61719" id="asvg_43" cy="64.08281" cx="564.38285" opacity="0.9" stroke-linecap="null" stroke-linejoin="null" stroke-dasharray="null" stroke-width="null" fill="#ff00ff"/>
  <ellipse stroke="#ffffff" id="asvg_44" ry="1.61719" rx="1.40625" cy="62.81718" cx="565.15629" opacity="0.9" stroke-linecap="null" stroke-linejoin="null" stroke-dasharray="null" stroke-width="0.2" fill="#ff00ff"/>
  <ellipse stroke="#ffffff" ry="12.58447" rx="18.85067" id="asvg_48" cy="116.71813" cx="540.78112" opacity="0.5" stroke-linecap="null" stroke-linejoin="null" stroke-dasharray="null" stroke-width="0.2" fill="#7f7f7f"/>
  <ellipse stroke="#050000" id="asvg_54" ry="1.91553" rx="9.60067" cy="105.73236" cx="571.06336" opacity="0.9" stroke-linecap="null" stroke-linejoin="null" stroke-dasharray="null" stroke-width="0" fill="#ffff00"/>
  <ellipse stroke="#ffffff" id="asvg_55" ry="7.24886" rx="9.16589" cy="104.37348" cx="555.28041" opacity="0.5" stroke-linecap="null" stroke-linejoin="null" stroke-dasharray="null" stroke-width="0.2" fill="#7f7f7f"/>
  <path fill="#ff7f00" stroke-width="0" stroke-dasharray="null" stroke-linejoin="null" stroke-linecap="null" opacity="0.35" d="m556.97885,147.66223l4.95757,-8.74198l4.95758,8.74198l-9.91514,0l-0.00001,0z" transform="rotate(35.6644172668457 561.9364013671875,143.29122924804693) " id="asvg_107" stroke="#110101"/>
  <ellipse stroke="#ffffff" ry="6.40723" rx="10.85669" id="asvg_67" cy="136.83791" cx="577.05267" opacity="0.5" stroke-linecap="null" stroke-linejoin="null" stroke-dasharray="null" stroke-width="null" fill="#ff7f00"/>
  <ellipse stroke="#ffffff" id="asvg_68" ry="6.40723" rx="10.85669" cy="142.17727" cx="574.02703" opacity="0.5" stroke-linecap="null" stroke-linejoin="null" stroke-dasharray="null" stroke-width="null" fill="#00ff7f"/>
  <ellipse stroke="#ffffff" id="asvg_69" ry="6.40723" rx="10.85669" cy="138.97366" cx="588.44329" opacity="0.5" stroke-linecap="null" stroke-linejoin="null" stroke-dasharray="null" stroke-width="null" fill="#00ff7f"/>
  <path fill="#ff7f00" stroke-width="0" stroke-dasharray="null" stroke-linejoin="null" stroke-linecap="null" opacity="0.35" d="m553.75091,153.7843l3.96382,-7.65602l3.96382,7.65602l-7.92764,0z" transform="rotate(82.35702514648438 557.7147216796875,149.9562835693359) " id="asvg_109" stroke="#110101"/>
  <path fill="#ff7f00" stroke-width="0" stroke-dasharray="null" stroke-linejoin="null" stroke-linecap="null" opacity="0.35" d="m600.8985,152.31019l5.06525,-8.21172l5.06525,8.21172l-10.1305,0z" transform="rotate(15.111757278442383 605.9637451171874,148.20433044433622) " id="asvg_108" stroke="#110101"/>
  <path fill="#ff7f00" stroke-width="0" stroke-dasharray="null" stroke-linejoin="null" stroke-linecap="null" opacity="0.35" d="m586.63275,151.65166l7.96968,-3.49621l7.96968,3.49621l-15.93937,0l0.00001,0z" transform="rotate(48.69874572753906 594.6024169921874,149.903549194336) " id="asvg_110" stroke="#110101"/>
  <ellipse stroke="#ffffff" id="asvg_81" ry="6.40723" rx="10.85669" cy="142.71121" cx="584.88372" opacity="0.5" stroke-linecap="null" stroke-linejoin="null" stroke-dasharray="null" stroke-width="null" fill="#007f7f"/>
  <ellipse stroke="#ffffff" ry="5.69531" rx="11.03467" id="asvg_83" cy="142.17727" cx="599.47796" opacity="0.5" stroke-linecap="null" stroke-linejoin="null" stroke-dasharray="null" stroke-width="null" fill="#7f007f"/>
  <path stroke="#ffffff" transform="rotate(-13.59280776977539 536.9876098632814,114.90070343017554) " id="asvg_89" d="m555.80929,114.72485c-10.54014,19.98057 -36.89048,3.99611 -37.59315,3.19689c-0.70268,-0.79922 5.97274,-15.18524 20.02626,-12.52116c14.05352,2.66408 17.56689,9.32427 17.56689,9.32427z" opacity="0.5" stroke-linecap="null" stroke-linejoin="null" stroke-dasharray="null" stroke-width="0.2" fill="#ff7f00"/>
  <path fill="#00ff7f" stroke-width="0" stroke-dasharray="null" stroke-linejoin="null" stroke-linecap="null" d="m521.59193,146.91545l1.18651,-10.01948l1.18651,10.01948l-2.37303,0l0.00001,0z" id="asvg_3" stroke="#110101" opacity="0.3"/>
  <path fill="#00ff7f" stroke-width="0" stroke-dasharray="null" stroke-linejoin="null" stroke-linecap="null" d="m507.46514,116.09502l1.54265,-10.01949l1.54265,10.01949l-3.0853,0z" id="asvg_45" transform="rotate(-0.766175389289856 509.00781249999443,111.08528137206842) " stroke="#110101" opacity="0.5"/>
  <path fill="#2ac173" stroke-width="0" stroke-dasharray="null" stroke-linejoin="null" stroke-linecap="null" d="m512.67644,112.34333l1.29785,-22.01206l1.29786,22.01206l-2.59571,0z" id="asvg_46" transform="rotate(6.225758075714111 513.9743041992189,101.33730316162097) " stroke="#110101" opacity="0.45"/>
  <path fill="#51db93" stroke-width="0" stroke-dasharray="null" stroke-linejoin="null" stroke-linecap="null" d="m510.16826,113.00806l1.63509,-13.79397l1.63509,13.79397l-3.27019,0l0.00001,0z" transform="rotate(-0.16882900893688202 511.8033752441343,106.11108398436843) " id="asvg_57" stroke="#110101"/>
  <path fill="#00ff7f" stroke-width="0" stroke-dasharray="null" stroke-linejoin="null" stroke-linecap="null" d="m545.88985,145.72825l1.41828,-7.38003l1.41828,7.38003l-2.83657,0l0.00001,0z" transform="rotate(-16.126562118530273 547.30810546875,142.03823852539034) " id="asvg_66" stroke="#110101" opacity="0.4"/>
  <path fill="#00ff7f" stroke-width="0" stroke-dasharray="null" stroke-linejoin="null" stroke-linecap="null" d="m547.4846,145.85623l1.55095,-10.01949l1.55094,10.01949l-3.10189,0z" transform="rotate(-2.8073766231536865 549.0355224609377,140.84649658203034) " id="asvg_87" stroke="#110101" opacity="0.35"/>
  <path fill="#00ff7f" stroke-width="0" stroke-dasharray="null" stroke-linejoin="null" stroke-linecap="null" d="m507.91162,154.28725l2.08138,-10.01949l2.08137,10.01949l-4.16275,0z" transform="rotate(1.6321067810058594 509.9929809570312,149.27749633789128) " id="asvg_88" stroke="#110101" opacity="0.5"/>
  <path fill="#00ff7f" stroke-width="0" stroke-dasharray="null" stroke-linejoin="null" stroke-linecap="null" d="m518.23551,145.46166l1.54265,-14.05648l1.54266,14.05648l-3.08531,0z" transform="rotate(-0.766175389289856 519.7781982421839,138.43341064452443) " id="asvg_92" stroke="#110101" opacity="0.45"/>
  <path fill="#00ff7f" stroke-width="0" stroke-dasharray="null" stroke-linejoin="null" stroke-linecap="null" d="m516.33707,143.32592l1.54265,-14.05648l1.54266,14.05648l-3.08531,0z" transform="rotate(-0.766175389289856 517.8797607421868,136.29766845702912) " stroke="#110101" id="asvg_93" opacity="0.4"/>
  <ellipse fill="#ffffff" stroke-width="0" stroke-dasharray="null" stroke-linejoin="null" stroke-linecap="null" cx="535.00621" cy="85.93126" id="asvg_96" rx="20.53125" ry="3.65625" stroke="#ffffff"/>
  <ellipse fill="#ffffff" stroke-width="0" stroke-dasharray="null" stroke-linejoin="null" stroke-linecap="null" cx="541.19372" cy="81.43126" rx="9.28125" ry="3.65625" id="asvg_97" stroke="#ffffff"/>
  <ellipse fill="#ffffff" stroke-width="0" stroke-dasharray="null" stroke-linejoin="null" stroke-linecap="null" cx="530.78747" cy="80.86876" rx="6.75" ry="5.34375" id="asvg_98" stroke="#ffffff"/>
  <polygon id="asvg_101" fill="#7f3f00" opacity="0.3"/>
  <path fill="#28c976" stroke-width="0" stroke-dasharray="null" stroke-linejoin="null" stroke-linecap="null" d="m516.59197,113.94514l1.29785,-22.01206l1.29786,22.01206l-2.59571,0z" transform="rotate(6.225758075714111 517.889831542969,102.93910217285172) " stroke="#110101" id="asvg_102" opacity="0.5"/>
  <path fill="#06dd6e" stroke-width="0" stroke-dasharray="null" stroke-linejoin="null" stroke-linecap="null" d="m513.35428,120.73189l1.29785,-19.35813l1.29786,19.35813l-2.59571,0z" transform="rotate(6.225758075714111 514.6521606445312,111.05282592773446) " id="asvg_103" stroke="#110101" opacity="0.5"/>
  <path fill="#ff7f00" stroke-width="0" stroke-dasharray="null" stroke-linejoin="null" stroke-linecap="null" opacity="0.35" d="m608.00439,141.98779l5.41085,-2.54709l5.41085,2.54709l-10.8217,0z" transform="rotate(38.212955474853516 613.4152221679689,140.7142639160156) " id="asvg_111" stroke="#110101"/>
  <path fill="#ff7f00" stroke-width="0" stroke-dasharray="null" stroke-linejoin="null" stroke-linecap="null" opacity="0.35" d="m561.22761,153.19496l5.06525,-8.21173l5.06525,8.21173l-10.1305,0z" transform="rotate(82.35702514648438 566.2928466796875,149.08909606933588) " stroke="#110101" id="asvg_112"/>
  <path fill="#ff7f00" stroke-width="0" stroke-dasharray="null" stroke-linejoin="null" stroke-linecap="null" opacity="0.35" d="m595.94923,157.04584l3.68432,-12.98809l3.68432,12.98809l-7.36864,0z" transform="rotate(83.32929229736328 599.633544921875,150.5518035888672) " id="asvg_113" stroke="#110101"/>
  <path fill="#ff7f00" stroke-width="0" stroke-dasharray="null" stroke-linejoin="null" stroke-linecap="null" opacity="0.35" d="m570.68908,152.24497l3.26784,-6.45237l3.26784,6.45237l-6.53568,0z" transform="rotate(82.35702514648438 573.9569091796875,149.0187835693359) " id="asvg_114" stroke="#110101"/>
  <path fill="#ff7f00" stroke-width="0" stroke-dasharray="null" stroke-linejoin="null" stroke-linecap="null" opacity="0.35" d="m581.75179,157.04568l3.40542,-13.42832l3.40542,13.42832l-6.81084,0z" transform="rotate(82.35702514648438 585.1572265625,150.3315124511719) " id="asvg_115" stroke="#110101"/>
  <path fill="#ff7f00" stroke-width="0" stroke-dasharray="null" stroke-linejoin="null" stroke-linecap="null" opacity="0.35" d="m572.78234,155.55341l3.00268,-4.91293l3.00268,4.91293l-6.00537,0l0.00001,0z" transform="rotate(101.30621337890625 575.7850341796875,153.09693908691406) " id="asvg_116" stroke="#110101"/>
  <path fill="#ff7f00" stroke-width="0" stroke-dasharray="null" stroke-linejoin="null" stroke-linecap="null" opacity="0.35" d="m607.22378,148.87885l5.06525,-4.95343l5.06525,4.95343l-10.1305,0z" transform="rotate(15.111757278442383 612.2890014648439,146.40214538574216) " id="asvg_117" stroke="#110101"/>
  <rect stroke="#0c0b0b" id="asvg_20" height="49" width="105" y="180.96719" x="510.4" opacity="0.5" stroke-linecap="null" stroke-linejoin="null" stroke-dasharray="null" stroke-width="0.08" fill="#ffffff"/>
  <rect id="asvg_90" stroke="#0c0b0b" height="48" width="23.00001" y="181.33437" x="572.43516" opacity="0.5" stroke-linecap="null" stroke-linejoin="null" stroke-dasharray="null" stroke-width="0.15" fill="#ffffff"/>
  <line id="asvg_100" y2="192.99612" x2="615.37344" y1="193.62893" x1="510.32656" opacity="0.5" stroke-linecap="null" stroke-linejoin="null" stroke-dasharray="null" stroke-width="0.2" stroke="#0c0b0b" fill="none"/>
  <rect id="asvg_118" stroke="#0c0b0b" height="48" width="23.00001" y="181.33437" x="524.025" opacity="0.5" stroke-linecap="null" stroke-linejoin="null" stroke-dasharray="null" stroke-width="0.15" fill="#ffffff"/>
  <line id="asvg_105" y2="204.70315" x2="616.32266" y1="205.33596" x1="511.27578" opacity="0.5" stroke-linecap="null" stroke-linejoin="null" stroke-dasharray="null" stroke-width="0.2" stroke="#0c0b0b" fill="none"/>
  <line id="asvg_119" y2="217.04299" x2="615.68985" y1="217.6758" x1="510.64297" opacity="0.5" stroke-linecap="null" stroke-linejoin="null" stroke-dasharray="null" stroke-width="0.2" stroke="#0c0b0b" fill="none"/>
 </g>
</svg>
