<svg width="640" height="480.0000000000001" xmlns="http://www.w3.org/2000/svg" xmlns:svg="http://www.w3.org/2000/svg">
 <!-- Created with SVG-edit - http://svg-edit.googlecode.com/ -->
 <g stroke="null">
  <title>Layer 1</title>
  <rect stroke="#000000" id="svg_26" height="482" width="635" y="1.01042" x="1.89933" stroke-linecap="null" stroke-linejoin="null" stroke-dasharray="null" stroke-width="0" fill="#ffaaaa"/>
  <rect fill="#4bf4f4" stroke-width="0" stroke-dasharray="null" stroke-linejoin="null" stroke-linecap="null" x="2.13333" y="-1.65929" width="634.66667" height="264.88883" id="svg_25" stroke="#000000"/>
  <path stroke="#000000" id="svg_93" d="m341.07996,262.67738l12.74074,-90.07407l12.74074,90.07407l-25.48147,0l-0.00001,0z" opacity="0.4" stroke-linecap="null" stroke-linejoin="null" stroke-dasharray="null" stroke-width="0" fill="#007f00"/>
  <path stroke="#000000" id="svg_88" d="m-13.43857,271.75146l25.77778,-78.22222l25.77777,78.22222l-51.55555,0z" opacity="0.4" stroke-linecap="null" stroke-linejoin="null" stroke-dasharray="null" stroke-width="0" fill="#007f00"/>
  <path stroke="#000000" id="svg_82" d="m452.33923,273.52924l42.66666,-65.77778l42.66666,65.77778l-85.33333,0l0.00001,0z" opacity="0.4" stroke-linecap="null" stroke-linejoin="null" stroke-dasharray="null" stroke-width="0" fill="#007f00"/>
  <path stroke="#000000" id="svg_83" d="m351.00589,273.52924l25.77778,-58.66667l25.77777,58.66667l-51.55556,0l0.00001,0z" opacity="0.4" stroke-linecap="null" stroke-linejoin="null" stroke-dasharray="null" stroke-width="0" fill="#007f00"/>
  <path id="svg_84" stroke="#000000" d="m308.33923,262.86258l25.77778,-58.66667l25.77777,58.66667l-51.55555,0z" opacity="0.4" stroke-linecap="null" stroke-linejoin="null" stroke-dasharray="null" stroke-width="0" fill="#007f00"/>
  <rect fill="#00ff7f" stroke-width="0" stroke-dasharray="null" stroke-linejoin="null" stroke-linecap="null" x="1.03703" y="253.0823" width="635.80248" height="36.32102" id="svg_24" stroke="#000000"/>
  <ellipse fill="#ffffff" stroke-width="0" stroke-dasharray="null" stroke-linejoin="null" stroke-linecap="null" cx="59.02223" cy="69.33333" id="svg_68" rx="55.11111" ry="24.88889" stroke="#00bfbf"/>
  <ellipse stroke="#00bfbf" fill="#ffffff" stroke-width="0" stroke-dasharray="null" stroke-linejoin="null" stroke-linecap="null" cx="119.45992" cy="59.05708" rx="89.25601" ry="29.31034" id="svg_70" transform="rotate(-1.3971754312515259 119.4599151611328,59.057079315186) "/>
  <path id="svg_89" stroke="#000000" d="m4.33921,259.30701l25.77778,-78.22222l25.77777,78.22222l-51.55555,0z" opacity="0.4" stroke-linecap="null" stroke-linejoin="null" stroke-dasharray="null" stroke-width="0" fill="#007f00"/>
  <ellipse fill="#00ff7f" stroke-width="0" stroke-dasharray="null" stroke-linejoin="null" stroke-linecap="null" cx="36.81667" cy="250.95" rx="32" ry="24" id="svg_36" stroke="#000000"/>
  <ellipse fill="#00ff7f" stroke-width="0" stroke-dasharray="null" stroke-linejoin="null" stroke-linecap="null" cx="78.4" cy="248.53333" rx="32" ry="24" id="svg_50" stroke="#000000"/>
  <rect stroke="#000000" fill="#ffff00" stroke-width="0" stroke-dasharray="null" stroke-linejoin="null" stroke-linecap="null" x="1.35734" y="293.61238" width="635.80248" height="25.00004" id="svg_18"/>
  <rect fill="#003f7f" stroke-width="0" stroke-dasharray="null" stroke-linejoin="null" stroke-linecap="null" x="400.94088" y="300.03478" width="49.79682" height="5.5746" transform="rotate(4.131002426147461 425.8392639160163,302.8220520019531) " opacity="0.5" id="svg_95" stroke="#003f7f"/>
  <rect fill="#003f7f" stroke-width="0" stroke-dasharray="null" stroke-linejoin="null" stroke-linecap="null" x="385.68748" y="297.3207" width="18.84279" height="5.65313" transform="rotate(7.575130939483643 395.10885620117267,300.1472778320314) " id="svg_92" opacity="0.5" stroke="#003f7f"/>
  <rect fill="#e5e5e5" stroke-width="0" stroke-dasharray="null" stroke-linejoin="null" stroke-linecap="null" x="374.65663" y="281.52297" width="29.34699" height="9.6406" transform="rotate(27.33866310119629 389.3301391601563,286.34329223632807) " id="svg_94" stroke="#00bfbf"/>
  <rect fill="#ffffff" stroke-width="0" stroke-dasharray="null" stroke-linejoin="null" stroke-linecap="null" x="374.95697" y="281.22263" width="29.34699" height="9.6406" id="svg_71" transform="rotate(27.33866310119629 389.6304626464846,286.0429382324219) " stroke="#00bfbf"/>
  <rect stroke="#00bfbf" fill="#00ffff" stroke-width="0" stroke-dasharray="null" stroke-linejoin="null" stroke-linecap="null" x="-0.86667" y="320.7111" width="639.72918" height="56.29626" id="svg_17"/>
  <rect stroke="#000000" fill="#ffff00" stroke-width="0" stroke-dasharray="null" stroke-linejoin="null" stroke-linecap="null" x="0.69752" y="377.79014" width="638.80246" height="100.37041" id="svg_15"/>
  <ellipse fill="#00ff7f" stroke-width="0" stroke-dasharray="null" stroke-linejoin="null" stroke-linecap="null" cx="307.73333" cy="243.2" rx="32" ry="24" id="svg_52" stroke="#000000"/>
  <ellipse fill="#00ff7f" stroke-width="0" stroke-dasharray="null" stroke-linejoin="null" stroke-linecap="null" cx="290.4" cy="212.53333" rx="32" ry="24" id="svg_53" stroke="#000000"/>
  <path fill="#00ffff" stroke-dasharray="null" stroke-linejoin="null" stroke-linecap="null" d="m-26.49217,322.9883c161.31966,1.14611 228.58579,-14.51745 252.99208,-4.20242c24.4063,10.31503 19.04882,19.48394 53.5748,14.51745c34.52598,-4.9665 53.57479,-21.77618 79.17164,-12.22523c25.59685,9.55096 41.66929,8.78688 63.69448,8.40484c22.0252,-0.38204 -20.83464,0 -21.35057,-0.07641" opacity="0.1" transform="rotate(-0.7194118499755859 201.36882019043435,324.9723815917963) " id="svg_62" stroke="#00bfbf"/>
  <ellipse rx="3" id="svg_7" cy="222" cx="181.2" stroke-linecap="null" stroke-linejoin="null" stroke-dasharray="null" stroke-width="4" fill="#000000" stroke="#000000"/>
  <ellipse fill="#00ff7f" stroke-width="0" stroke-dasharray="null" stroke-linejoin="null" stroke-linecap="null" cx="551.73333" cy="215.2" id="svg_30" rx="32" ry="24" stroke="#000000"/>
  <ellipse fill="#00ff7f" stroke-width="0" stroke-dasharray="null" stroke-linejoin="null" stroke-linecap="null" cx="421.06667" cy="219.2" rx="32" ry="24" id="svg_33" stroke="#000000"/>
  <path id="svg_99" stroke="#000000" d="m441.07996,252.19591l25.77778,-58.66667l25.77777,58.66667l-51.55555,0z" opacity="0.4" stroke-linecap="null" stroke-linejoin="null" stroke-dasharray="null" stroke-width="0" fill="#007f00"/>
  <ellipse fill="#00ff7f" stroke-width="0" stroke-dasharray="null" stroke-linejoin="null" stroke-linecap="null" cx="409.39999" cy="249.2" rx="32" ry="24" id="svg_37" stroke="#000000"/>
  <ellipse fill="#00ff7f" stroke-width="0" stroke-dasharray="null" stroke-linejoin="null" stroke-linecap="null" cx="525.73333" cy="247.2" rx="40.66667" ry="24" id="svg_38" stroke="#000000"/>
  <ellipse fill="#00ff7f" stroke-width="0" stroke-dasharray="null" stroke-linejoin="null" stroke-linecap="null" cx="451.73334" cy="248.53333" rx="20" ry="24" id="svg_46" stroke="#000000"/>
  <ellipse fill="#00ff7f" stroke-width="0" stroke-dasharray="null" stroke-linejoin="null" stroke-linecap="null" cx="575.06667" cy="245.86667" rx="40.66667" ry="24" id="svg_49" stroke="#000000"/>
  <ellipse fill="#00ff7f" stroke-width="0" stroke-dasharray="null" stroke-linejoin="null" stroke-linecap="null" cx="54.39999" cy="220.53333" rx="32" ry="24" id="svg_51" stroke="#000000"/>
  <ellipse fill="#ffffff" stroke-width="null" stroke-dasharray="null" stroke-linejoin="null" stroke-linecap="null" opacity="0.25" cx="610.13333" cy="19.55556" id="svg_64" rx="53.33333" ry="55.11111" stroke="#00bfbf"/>
  <ellipse fill="#ffffff" stroke-width="null" stroke-dasharray="null" stroke-linejoin="null" stroke-linecap="null" opacity="0.25" cx="601.24444" cy="34.66667" rx="69.33333" ry="66.66667" id="svg_65" stroke="#00bfbf"/>
  <ellipse fill="#ffffff" stroke-width="null" stroke-dasharray="null" stroke-linejoin="null" stroke-linecap="null" opacity="0.25" cx="603.91112" cy="37.33333" rx="111.11113" ry="115.55556" id="svg_66" stroke="#00bfbf"/>
  <ellipse fill="#ffffff" stroke-width="null" stroke-dasharray="null" stroke-linejoin="null" stroke-linecap="null" opacity="0.25" cx="597.68889" cy="51.55555" rx="126.22223" ry="128" id="svg_67" stroke="#00bfbf"/>
  <ellipse fill="#ffffff" stroke-width="0" stroke-dasharray="null" stroke-linejoin="null" stroke-linecap="null" cx="86.57778" cy="36.44445" rx="55.11111" ry="24.88889" id="svg_69" stroke="#00bfbf"/>
  <rect fill="#ffffff" stroke-width="0" stroke-dasharray="null" stroke-linejoin="null" stroke-linecap="null" x="400.77855" y="293.37437" width="51.06341" height="8.87065" transform="rotate(11.27048397064209 426.3102416992193,297.8096923828123) " id="svg_72" stroke="#00bfbf"/>
  <ellipse opacity="0.7" fill="#003f7f" stroke-width="0" stroke-dasharray="null" stroke-linejoin="null" stroke-linecap="null" cx="381.22909" cy="308.12534" rx="3.62142" ry="5.28367" transform="rotate(-90.74791717529297 381.22909545898443,308.12533569335943) " id="svg_74" stroke="#000000"/>
  <rect fill="#ffffff" stroke-width="0" stroke-dasharray="null" stroke-linejoin="null" stroke-linecap="null" x="402.64605" y="297.3258" width="1.57146" height="5.67538" id="svg_96" transform="rotate(-1.6601945161819458 403.43179321289233,300.16348266601574) " stroke="#000000"/>
  <rect fill="#ffffff" stroke-width="0" stroke-dasharray="null" stroke-linejoin="null" stroke-linecap="null" x="439.90289" y="301.83459" width="1.57146" height="5.67538" transform="rotate(-1.6601945161819458 440.6886291503904,304.6722717285172) " id="svg_97" stroke="#000000"/>
  <ellipse fill="#ffffff" stroke-width="0" stroke-dasharray="null" stroke-linejoin="null" stroke-linecap="null" cx="382.65225" cy="297.83798" rx="3.85178" ry="6.23232" transform="rotate(89.7175064086914 382.65225219726557,297.8379821777344) " id="svg_98" stroke="#000000"/>
  <rect id="svg_1" fill="#ffffff" stroke-width="0" stroke-dasharray="null" stroke-linejoin="null" stroke-linecap="null" x="381.78759" y="298.74927" width="1.57146" height="7.35644" transform="rotate(-1.6601945161819458 382.57333374023546,302.4274902343747) " stroke="#000000"/>
  <rect id="svg_10" fill="#ffffff" stroke-width="0" stroke-dasharray="null" stroke-linejoin="null" stroke-linecap="null" x="380.65283" y="304.93219" width="0.51952" height="3.79837" transform="rotate(33.23659133911133 380.91259765624994,306.83135986328125) " stroke="#000000"/>
  <rect id="svg_12" fill="#ffffff" stroke-width="0" stroke-dasharray="null" stroke-linejoin="null" stroke-linecap="null" x="382.28278" y="305.40878" width="0.84935" height="4.48592" transform="rotate(-1.6601945161819458 382.70745849609193,307.6517028808586) " stroke="#000000"/>
  <rect id="svg_16" fill="#ffffff" stroke-width="0" stroke-dasharray="null" stroke-linejoin="null" stroke-linecap="null" x="384.00029" y="303.72579" width="0.56304" height="5.32789" transform="rotate(-25.189538955688477 384.2817993164062,306.38973999023426) " stroke="#000000"/>
  <path d="m46.10002,253.5c0.00025,1.575 0.33703,2.31764 1.01387,2.77499c0.76476,0.51675 1.42816,1.24823 2.11113,1.72501c0.72141,0.5036 1.41708,1.21683 2.20737,1.49661c0.83769,0.29657 1.80891,-0.03082 2.69262,0.00339c0.82686,0.03201 1.55643,0.64224 2.475,0.75c0.89486,0.10495 1.72257,0.21463 2.5105,0.4855c0.91369,0.31409 1.81326,0.06036 2.7395,0.3895c0.73632,0.26163 1.49995,0.61295 2.43213,0.625c0.87584,0.01135 1.65845,0.28168 2.51888,0.53699c0.86509,0.25671 1.96841,0.53857 2.612,0.08502c0.7113,-0.50128 1.05193,-1.45514 1.6975,-1.89365c0.77283,-0.52493 1.62218,-1.09995 2.29287,-1.54623c0.76847,-0.51135 1.31963,-1.03613 2.12875,-1.59976l0.7895,-0.35025l0.50137,-0.77411l0.402,-0.45801" id="svg_73" opacity="0.4" stroke-linecap="null" stroke-linejoin="null" stroke-dasharray="null" stroke-width="0" stroke="#000000" fill="none"/>
  <ellipse fill="#00ff7f" stroke-width="0" stroke-dasharray="null" stroke-linejoin="null" stroke-linecap="null" cx="271.4" cy="242.53333" rx="32" ry="24" stroke="#000000" id="svg_2"/>
  <ellipse fill="#00ff7f" stroke-width="0" stroke-dasharray="null" stroke-linejoin="null" stroke-linecap="null" cx="166.4" cy="250.53333" rx="32" ry="24" stroke="#000000" id="svg_3"/>
  <ellipse fill="#00ff7f" stroke-width="0" stroke-dasharray="null" stroke-linejoin="null" stroke-linecap="null" cx="190.4" cy="251.53333" rx="32" ry="24" stroke="#000000" id="svg_4"/>
  <ellipse fill="#00ff7f" stroke-width="0" stroke-dasharray="null" stroke-linejoin="null" stroke-linecap="null" cx="188.4" cy="215.53333" rx="32" ry="24" stroke="#000000" id="svg_5" transform="rotate(90.13841247558594 188.3999938964844,215.53332519531247) "/>
  <ellipse fill="#00ff7f" stroke-width="0" stroke-dasharray="null" stroke-linejoin="null" stroke-linecap="null" cx="167.4" cy="215.53333" rx="32" ry="24" stroke="#000000" transform="rotate(90.13841247558594 167.3999938964844,215.5333251953125) " id="svg_6"/>
  <ellipse id="svg_21" ry="10" rx="80" cy="330.48786" cx="457.94793" stroke-linecap="null" stroke-linejoin="null" stroke-dasharray="null" stroke-width="0" stroke="#e1f4f4" fill="#00ffff"/>
  <rect stroke="#00bfbf" opacity="0.2" id="svg_22" fill="#000000" stroke-width="0" stroke-dasharray="null" stroke-linejoin="null" stroke-linecap="null" x="0.63333" y="320.71109" width="634.66667" height="1.69861"/>
 </g>
</svg>
