<svg width="640" height="480.0000000000001" xmlns="http://www.w3.org/2000/svg" xmlns:svg="http://www.w3.org/2000/svg">
 <!-- Created with SVG-edit - http://svg-edit.googlecode.com/ -->
 <g stroke="null">
  <title>Layer 1</title>
  <rect stroke="#000000" id="svg_25" height="264.88883" width="634.66667" y="-1.65929" x="2.13333" stroke-linecap="null" stroke-linejoin="null" stroke-dasharray="null" stroke-width="0" fill="#4bf4f4"/>
  <path fill="#007f00" stroke-width="0" stroke-dasharray="null" stroke-linejoin="null" stroke-linecap="null" opacity="0.4" d="m341.07996,262.67738l12.74074,-90.07407l12.74074,90.07407l-25.48147,0l-0.00001,0z" id="svg_93" stroke="#000000"/>
  <path fill="#007f00" stroke-width="0" stroke-dasharray="null" stroke-linejoin="null" stroke-linecap="null" opacity="0.4" d="m-13.43857,271.75146l25.77778,-78.22222l25.77777,78.22222l-51.55555,0z" id="svg_88" stroke="#000000"/>
  <path fill="#007f00" stroke-width="0" stroke-dasharray="null" stroke-linejoin="null" stroke-linecap="null" opacity="0.4" d="m452.33923,273.52924l42.66666,-65.77778l42.66666,65.77778l-85.33333,0l0.00001,0z" id="svg_82" stroke="#000000"/>
  <path fill="#007f00" stroke-width="0" stroke-dasharray="null" stroke-linejoin="null" stroke-linecap="null" opacity="0.4" d="m351.00589,273.52924l25.77778,-58.66667l25.77777,58.66667l-51.55556,0l0.00001,0z" id="svg_83" stroke="#000000"/>
  <path fill="#007f00" stroke-width="0" stroke-dasharray="null" stroke-linejoin="null" stroke-linecap="null" opacity="0.4" d="m308.33923,262.86258l25.77778,-58.66667l25.77777,58.66667l-51.55555,0z" stroke="#000000" id="svg_84"/>
  <rect stroke="#000000" id="svg_24" height="36.32102" width="635.80248" y="253.0823" x="1.03703" stroke-linecap="null" stroke-linejoin="null" stroke-dasharray="null" stroke-width="0" fill="#00ff7f"/>
  <ellipse stroke="#00bfbf" ry="24.88889" rx="55.11111" id="svg_68" cy="69.33333" cx="59.02223" stroke-linecap="null" stroke-linejoin="null" stroke-dasharray="null" stroke-width="0" fill="#ffffff"/>
  <ellipse transform="rotate(-1.3971754312515259 119.4599151611328,59.057079315186) " id="svg_70" ry="29.31034" rx="89.25601" cy="59.05708" cx="119.45992" stroke-linecap="null" stroke-linejoin="null" stroke-dasharray="null" stroke-width="0" fill="#ffffff" stroke="#00bfbf"/>
  <path fill="#007f00" stroke-width="0" stroke-dasharray="null" stroke-linejoin="null" stroke-linecap="null" opacity="0.4" d="m4.33921,259.30701l25.77778,-78.22222l25.77777,78.22222l-51.55555,0z" stroke="#000000" id="svg_89"/>
  <ellipse stroke="#000000" id="svg_36" ry="24" rx="32" cy="250.95" cx="36.81667" stroke-linecap="null" stroke-linejoin="null" stroke-dasharray="null" stroke-width="0" fill="#00ff7f"/>
  <ellipse stroke="#000000" id="svg_50" ry="24" rx="32" cy="248.53333" cx="78.4" stroke-linecap="null" stroke-linejoin="null" stroke-dasharray="null" stroke-width="0" fill="#00ff7f"/>
  <rect stroke="#000000" id="svg_18" height="28.00004" width="635.80248" y="293.61238" x="4.35734" stroke-linecap="null" stroke-linejoin="null" stroke-dasharray="null" stroke-width="0" fill="#ffff00"/>
  <rect stroke="#003f7f" id="svg_95" opacity="0.5" transform="rotate(4.131002426147461 425.8392639160163,302.8220520019531) " height="5.5746" width="49.79682" y="300.03478" x="400.94088" stroke-linecap="null" stroke-linejoin="null" stroke-dasharray="null" stroke-width="0" fill="#003f7f"/>
  <rect stroke="#003f7f" opacity="0.5" id="svg_92" transform="rotate(7.575130939483643 395.10885620117267,300.1472778320314) " height="5.65313" width="18.84279" y="297.3207" x="385.68748" stroke-linecap="null" stroke-linejoin="null" stroke-dasharray="null" stroke-width="0" fill="#003f7f"/>
  <rect stroke="#00bfbf" id="svg_94" transform="rotate(27.33866310119629 389.3301391601563,286.34329223632807) " height="9.6406" width="29.34699" y="281.52297" x="374.65663" stroke-linecap="null" stroke-linejoin="null" stroke-dasharray="null" stroke-width="0" fill="#e5e5e5"/>
  <rect stroke="#00bfbf" transform="rotate(27.33866310119629 389.6304626464846,286.0429382324219) " id="svg_71" height="9.6406" width="29.34699" y="281.22263" x="374.95697" stroke-linecap="null" stroke-linejoin="null" stroke-dasharray="null" stroke-width="0" fill="#ffffff"/>
  <path stroke="#00bfbf" transform="rotate(0.25867342948913574 388.98684692384154,352.7950439453079) " opacity="0.3" id="svg_58" d="m100.40002,348.9c204.31197,2.25 289.50479,-28.5 320.41546,-8.25c30.91067,20.25 24.1254,38.25 67.85269,28.5c43.72729,-9.75 67.85269,-42.75 100.27119,-24c32.41851,18.75 52.77431,17.25 80.6693,16.5c27.89499,-0.75 -26.38716,0 -27.04058,-0.15" stroke-linecap="null" stroke-linejoin="null" stroke-dasharray="null" fill="#007fff"/>
  <rect stroke="#00bfbf" id="svg_17" height="56.29626" width="634.66667" y="323.7111" x="2.13333" stroke-linecap="null" stroke-linejoin="null" stroke-dasharray="null" stroke-width="0" fill="#00ffff"/>
  <rect stroke="#000000" id="svg_15" height="94.3704" width="635.80248" y="379.79014" x="2.69752" stroke-linecap="null" stroke-linejoin="null" stroke-dasharray="null" stroke-width="0" fill="#ffff00"/>
  <ellipse stroke="#000000" id="svg_52" ry="24" rx="32" cy="243.2" cx="307.73333" stroke-linecap="null" stroke-linejoin="null" stroke-dasharray="null" stroke-width="0" fill="#00ff7f"/>
  <ellipse stroke="#000000" id="svg_53" ry="24" rx="32" cy="212.53333" cx="290.4" stroke-linecap="null" stroke-linejoin="null" stroke-dasharray="null" stroke-width="0" fill="#00ff7f"/>
  <path stroke="#00bfbf" id="svg_62" transform="rotate(-0.7194118499755859 201.36882019043435,324.9723815917963) " opacity="0.1" d="m-26.49217,322.9883c161.31966,1.14611 228.58579,-14.51745 252.99208,-4.20242c24.4063,10.31503 19.04882,19.48394 53.5748,14.51745c34.52598,-4.9665 53.57479,-21.77618 79.17164,-12.22523c25.59685,9.55096 41.66929,8.78688 63.69448,8.40484c22.0252,-0.38204 -20.83464,0 -21.35057,-0.07641" stroke-linecap="null" stroke-linejoin="null" stroke-dasharray="null" fill="#00ffff"/>
  <ellipse stroke="#e1f4f4" ry="12.5" rx="38" id="svg_13" cy="358.1" cx="541" opacity="0.55" stroke-linecap="null" stroke-linejoin="null" stroke-dasharray="null" stroke-width="null" fill="#007fff"/>
  <ellipse stroke="#e1f2f2" id="svg_11" ry="9.5" rx="29.5" cy="356.1" cx="538.5" opacity="0.3" stroke-linecap="null" stroke-linejoin="null" stroke-dasharray="null" stroke-width="null" fill="#007fff"/>
  <ellipse stroke="#e6f7f7" ry="5" rx="22" id="svg_8" cy="354.6" cx="540" opacity="0.4" stroke-linecap="null" stroke-linejoin="null" stroke-dasharray="null" stroke-width="null" fill="#007fff"/>
  <ellipse stroke="#000000" fill="#000000" stroke-width="4" stroke-dasharray="null" stroke-linejoin="null" stroke-linecap="null" cx="181.2" cy="222" id="svg_7" rx="3"/>
  <ellipse stroke="#000000" ry="24" rx="32" id="svg_30" cy="215.2" cx="551.73333" stroke-linecap="null" stroke-linejoin="null" stroke-dasharray="null" stroke-width="0" fill="#00ff7f"/>
  <ellipse stroke="#000000" id="svg_33" ry="24" rx="32" cy="219.2" cx="421.06667" stroke-linecap="null" stroke-linejoin="null" stroke-dasharray="null" stroke-width="0" fill="#00ff7f"/>
  <path fill="#007f00" stroke-width="0" stroke-dasharray="null" stroke-linejoin="null" stroke-linecap="null" opacity="0.4" d="m441.07996,252.19591l25.77778,-58.66667l25.77777,58.66667l-51.55555,0z" stroke="#000000" id="svg_99"/>
  <ellipse stroke="#000000" id="svg_37" ry="24" rx="32" cy="249.2" cx="409.39999" stroke-linecap="null" stroke-linejoin="null" stroke-dasharray="null" stroke-width="0" fill="#00ff7f"/>
  <ellipse stroke="#000000" id="svg_38" ry="24" rx="40.66667" cy="247.2" cx="525.73333" stroke-linecap="null" stroke-linejoin="null" stroke-dasharray="null" stroke-width="0" fill="#00ff7f"/>
  <ellipse stroke="#000000" id="svg_46" ry="24" rx="20" cy="248.53333" cx="451.73334" stroke-linecap="null" stroke-linejoin="null" stroke-dasharray="null" stroke-width="0" fill="#00ff7f"/>
  <ellipse stroke="#000000" id="svg_49" ry="24" rx="40.66667" cy="245.86667" cx="575.06667" stroke-linecap="null" stroke-linejoin="null" stroke-dasharray="null" stroke-width="0" fill="#00ff7f"/>
  <ellipse stroke="#000000" id="svg_51" ry="24" rx="32" cy="220.53333" cx="54.39999" stroke-linecap="null" stroke-linejoin="null" stroke-dasharray="null" stroke-width="0" fill="#00ff7f"/>
  <ellipse stroke="#00bfbf" ry="55.11111" rx="53.33333" id="svg_64" cy="19.55556" cx="610.13333" opacity="0.25" stroke-linecap="null" stroke-linejoin="null" stroke-dasharray="null" stroke-width="null" fill="#ffffff"/>
  <ellipse stroke="#00bfbf" id="svg_65" ry="66.66667" rx="69.33333" cy="34.66667" cx="601.24444" opacity="0.25" stroke-linecap="null" stroke-linejoin="null" stroke-dasharray="null" stroke-width="null" fill="#ffffff"/>
  <ellipse stroke="#00bfbf" id="svg_66" ry="115.55556" rx="111.11113" cy="37.33333" cx="603.91112" opacity="0.25" stroke-linecap="null" stroke-linejoin="null" stroke-dasharray="null" stroke-width="null" fill="#ffffff"/>
  <ellipse stroke="#00bfbf" id="svg_67" ry="128" rx="126.22223" cy="51.55555" cx="597.68889" opacity="0.25" stroke-linecap="null" stroke-linejoin="null" stroke-dasharray="null" stroke-width="null" fill="#ffffff"/>
  <ellipse stroke="#00bfbf" id="svg_69" ry="24.88889" rx="55.11111" cy="36.44445" cx="86.57778" stroke-linecap="null" stroke-linejoin="null" stroke-dasharray="null" stroke-width="0" fill="#ffffff"/>
  <rect stroke="#00bfbf" id="svg_72" transform="rotate(11.27048397064209 426.3102416992193,297.8096923828123) " height="8.87065" width="51.06341" y="293.37437" x="400.77855" stroke-linecap="null" stroke-linejoin="null" stroke-dasharray="null" stroke-width="0" fill="#ffffff"/>
  <ellipse stroke="#000000" id="svg_74" transform="rotate(-90.74791717529297 381.22909545898443,308.12533569335943) " ry="5.28367" rx="3.62142" cy="308.12534" cx="381.22909" stroke-linecap="null" stroke-linejoin="null" stroke-dasharray="null" stroke-width="0" fill="#003f7f" opacity="0.7"/>
  <rect stroke="#000000" transform="rotate(-1.6601945161819458 403.43179321289233,300.16348266601574) " id="svg_96" height="5.67538" width="1.57146" y="297.3258" x="402.64605" stroke-linecap="null" stroke-linejoin="null" stroke-dasharray="null" stroke-width="0" fill="#ffffff"/>
  <rect stroke="#000000" id="svg_97" transform="rotate(-1.6601945161819458 440.6886291503904,304.6722717285172) " height="5.67538" width="1.57146" y="301.83459" x="439.90289" stroke-linecap="null" stroke-linejoin="null" stroke-dasharray="null" stroke-width="0" fill="#ffffff"/>
  <ellipse stroke="#000000" id="svg_98" transform="rotate(89.7175064086914 382.65225219726557,297.8379821777344) " ry="6.23232" rx="3.85178" cy="297.83798" cx="382.65225" stroke-linecap="null" stroke-linejoin="null" stroke-dasharray="null" stroke-width="0" fill="#ffffff"/>
  <rect stroke="#000000" transform="rotate(-1.6601945161819458 382.57333374023546,302.4274902343747) " height="7.35644" width="1.57146" y="298.74927" x="381.78759" stroke-linecap="null" stroke-linejoin="null" stroke-dasharray="null" stroke-width="0" fill="#ffffff" id="svg_1"/>
  <rect stroke="#000000" transform="rotate(33.23659133911133 380.91259765624994,306.83135986328125) " height="3.79837" width="0.51952" y="304.93219" x="380.65283" stroke-linecap="null" stroke-linejoin="null" stroke-dasharray="null" stroke-width="0" fill="#ffffff" id="svg_10"/>
  <rect stroke="#000000" transform="rotate(-1.6601945161819458 382.70745849609193,307.6517028808586) " height="4.48592" width="0.84935" y="305.40878" x="382.28278" stroke-linecap="null" stroke-linejoin="null" stroke-dasharray="null" stroke-width="0" fill="#ffffff" id="svg_12"/>
  <rect stroke="#000000" transform="rotate(-25.189538955688477 384.2817993164062,306.38973999023426) " height="5.32789" width="0.56304" y="303.72579" x="384.00029" stroke-linecap="null" stroke-linejoin="null" stroke-dasharray="null" stroke-width="0" fill="#ffffff" id="svg_16"/>
  <ellipse stroke="#7f0000" ry="16" rx="9" id="svg_54" cy="319.4" cx="543.2" stroke-linecap="null" stroke-linejoin="null" stroke-dasharray="null" stroke-width="0" fill="#ffaaaa"/>
  <path stroke="#7f0000" transform="rotate(-18.29665756225586 546.5540161132812,339.73797607421875) " id="svg_55" d="m531.55399,354.73802l0,-30.00003l30.00003,30.00003l-30.00003,0z" stroke-linecap="null" stroke-linejoin="null" stroke-dasharray="null" stroke-width="0" fill="#ffaaaa"/>
  <rect stroke="#7f0000" transform="rotate(-23.532371520996094 521.859436035156,319.76605224609364) " id="svg_56" height="26" width="4.83367" y="306.76605" x="519.44259" stroke-linecap="null" stroke-linejoin="null" stroke-dasharray="null" stroke-width="0" fill="#ffaaaa"/>
  <rect stroke="#7f0000" id="svg_85" transform="rotate(22.33064842224121 569.1093749999999,348.26605224609364) " height="11.2327" width="4.41297" y="342.6497" x="566.90294" stroke-linecap="null" stroke-linejoin="null" stroke-dasharray="null" stroke-width="0" fill="#ffaaaa"/>
  <rect stroke="#7f0000" id="svg_86" transform="rotate(22.33064842224121 519.2344360351562,302.1410827636718) " height="14.98645" width="3.68191" y="294.64785" x="517.39346" stroke-linecap="null" stroke-linejoin="null" stroke-dasharray="null" stroke-width="0" fill="#ffaaaa"/>
  <circle stroke="#000000" id="svg_75" r="13.437" cy="269.95" cx="562.15001" stroke-linecap="null" stroke-linejoin="null" stroke-dasharray="null" stroke-width="0" fill="#ff5656"/>
  <rect stroke="#7f0000" id="svg_87" transform="rotate(22.33064842224121 521.9566040039062,294.9730529785155) " height="4.08699" width="3.48273" y="292.92953" x="520.21522" stroke-linecap="null" stroke-linejoin="null" stroke-dasharray="null" stroke-width="0" fill="#ffaaaa"/>
  <path stroke="#7f0000" transform="rotate(-170.5989990234375 523.4649047851562,290.3027648925782) " id="svg_101" d="m519.83606,294.63099l3.62887,-8.65643l3.62887,8.65643l-7.25774,0z" stroke-linecap="null" stroke-linejoin="null" stroke-dasharray="null" stroke-width="0" fill="#ffaaaa"/>
  <path id="svg_102" stroke="#7f0000" transform="rotate(-170.5989990234375 572.1123657226561,341.0859680175782) " d="m568.48352,345.41419l3.62887,-8.65642l3.62887,8.65642l-7.25774,0z" stroke-linecap="null" stroke-linejoin="null" stroke-dasharray="null" stroke-width="0" fill="#ffaaaa"/>
  <path fill="none" stroke="#000000" stroke-width="0" stroke-dasharray="null" stroke-linejoin="null" stroke-linecap="null" opacity="0.4" id="svg_73" d="m46.10002,253.5c0.00025,1.575 0.33703,2.31764 1.01387,2.77499c0.76476,0.51675 1.42816,1.24823 2.11113,1.72501c0.72141,0.5036 1.41708,1.21683 2.20737,1.49661c0.83769,0.29657 1.80891,-0.03082 2.69262,0.00339c0.82686,0.03201 1.55643,0.64224 2.475,0.75c0.89486,0.10495 1.72257,0.21463 2.5105,0.4855c0.91369,0.31409 1.81326,0.06036 2.7395,0.3895c0.73632,0.26163 1.49995,0.61295 2.43213,0.625c0.87584,0.01135 1.65845,0.28168 2.51888,0.53699c0.86509,0.25671 1.96841,0.53857 2.612,0.08502c0.7113,-0.50128 1.05193,-1.45514 1.6975,-1.89365c0.77283,-0.52493 1.62218,-1.09995 2.29287,-1.54623c0.76847,-0.51135 1.31963,-1.03613 2.12875,-1.59976l0.7895,-0.35025l0.50137,-0.77411l0.402,-0.45801"/>
  <ellipse id="svg_2" stroke="#000000" ry="24" rx="32" cy="242.53333" cx="271.4" stroke-linecap="null" stroke-linejoin="null" stroke-dasharray="null" stroke-width="0" fill="#00ff7f"/>
  <ellipse id="svg_3" stroke="#000000" ry="24" rx="32" cy="250.53333" cx="166.4" stroke-linecap="null" stroke-linejoin="null" stroke-dasharray="null" stroke-width="0" fill="#00ff7f"/>
  <ellipse id="svg_4" stroke="#000000" ry="24" rx="32" cy="251.53333" cx="190.4" stroke-linecap="null" stroke-linejoin="null" stroke-dasharray="null" stroke-width="0" fill="#00ff7f"/>
  <ellipse transform="rotate(90.13841247558594 188.3999938964844,215.53332519531247) " id="svg_5" stroke="#000000" ry="24" rx="32" cy="215.53333" cx="188.4" stroke-linecap="null" stroke-linejoin="null" stroke-dasharray="null" stroke-width="0" fill="#00ff7f"/>
  <ellipse id="svg_6" transform="rotate(90.13841247558594 167.3999938964844,215.5333251953125) " stroke="#000000" ry="24" rx="32" cy="215.53333" cx="167.4" stroke-linecap="null" stroke-linejoin="null" stroke-dasharray="null" stroke-width="0" fill="#00ff7f"/>
 </g>
</svg>
