<svg width="640" height="480.0000000000001" xmlns="http://www.w3.org/2000/svg" xmlns:svg="http://www.w3.org/2000/svg">
 <!-- Created with SVG-edit - http://svg-edit.googlecode.com/ -->

 <g>
  <title>Layer 1</title>
  <rect stroke="#ff7f00" id="svg_59" height="254.85417" width="228.83334" y="64.19445" x="143.96527" opacity="0.3" stroke-linecap="null" stroke-linejoin="null" stroke-dasharray="null" stroke-width="20" fill="#ffaaff"/>
  <rect stroke="#e5e58b" transform="rotate(-0.6733999848365784 258.29327392578205,72.31543731689439) " id="svg_9" height="22.38441" width="228.71192" y="61.12323" x="143.93732" opacity="0.2" stroke-linecap="null" stroke-linejoin="null" stroke-dasharray="null" stroke-width="0" fill="#ff0000"/>
  <rect stroke="#e5e58b" id="svg_65" transform="rotate(-0.6733999848365784 258.80596923828114,64.20191955566025) " height="4.47329" width="228.71192" y="61.96527" x="144.45" opacity="0.2" stroke-linecap="null" stroke-linejoin="null" stroke-dasharray="null" stroke-width="0" fill="#ff0000"/>
  <rect stroke="#e5e58b" id="svg_64" height="4.59027" width="228.71192" y="309.64722" x="145.2506" opacity="0.2" stroke-linecap="null" stroke-linejoin="null" stroke-dasharray="null" stroke-width="0" fill="#ff0000"/>
  <rect id="svg_61" stroke="#e5e58b" transform="rotate(-0.6733999848365784 258.9459533691315,201.28677368163898) " height="22.36874" width="228.71192" y="190.10241" x="144.59001" opacity="0.2" stroke-linecap="null" stroke-linejoin="null" stroke-dasharray="null" stroke-width="0" fill="#ff0000"/>
  <rect id="svg_62" stroke="#e5e58b" transform="rotate(-0.6733999848365784 258.9459533691379,188.91177368164054) " height="22.36874" width="228.71192" y="177.72741" x="144.59001" opacity="0.2" stroke-linecap="null" stroke-linejoin="null" stroke-dasharray="null" stroke-width="0" fill="#ff0000"/>
  <rect id="svg_63" stroke="#e5e58b" transform="rotate(-0.6733999848365784 258.9459533691411,168.6617736816391) " height="22.36874" width="228.71192" y="157.47741" x="144.59001" opacity="0.2" stroke-linecap="null" stroke-linejoin="null" stroke-dasharray="null" stroke-width="0" fill="#ff0000"/>
  <rect id="svg_60" stroke="#e5e58b" transform="rotate(-0.6733999848365784 259.50845336913426,150.09927368164108) " height="22.36874" width="228.71192" y="138.91491" x="145.15251" opacity="0.2" stroke-linecap="null" stroke-linejoin="null" stroke-dasharray="null" stroke-width="0" fill="#ff0000"/>
  <rect stroke="#e5e58b" id="svg_53" height="19.21528" width="228.71192" y="296.14721" x="144.6881" opacity="0.2" stroke-linecap="null" stroke-linejoin="null" stroke-dasharray="null" stroke-width="0" fill="#ff0000"/>
  <rect stroke="#e5e58b" id="svg_46" transform="rotate(-0.6733999848365784 258.94342041015426,92.77294921875244) " height="27.86696" width="228.71192" y="78.83947" x="144.58747" opacity="0.2" stroke-linecap="null" stroke-linejoin="null" stroke-dasharray="null" stroke-width="0" fill="#ff0000"/>
  <rect stroke="#e5e58b" id="svg_47" transform="rotate(-0.6733999848365784 258.89746093749983,114.97378540039041) " height="29.47936" width="228.71192" y="100.2341" x="144.54151" opacity="0.2" stroke-linecap="null" stroke-linejoin="null" stroke-dasharray="null" stroke-width="0" fill="#ff0000"/>
  <rect id="svg_48" stroke="#e5e58b" transform="rotate(-0.6733999848365784 258.9459533691411,130.97427368164003) " height="22.36874" width="228.71192" y="119.78991" x="144.59001" opacity="0.2" stroke-linecap="null" stroke-linejoin="null" stroke-dasharray="null" stroke-width="0" fill="#ff0000"/>
  <rect id="svg_52" stroke="#e5e58b" transform="rotate(-0.6733999848365784 258.29318237304074,219.66178894042818) " height="22.36874" width="228.71192" y="208.47741" x="143.93723" opacity="0.2" stroke-linecap="null" stroke-linejoin="null" stroke-dasharray="null" stroke-width="0" fill="#ff0000"/>
  <rect stroke="#e5e58b" id="svg_51" transform="rotate(-0.6733999848365784 258.8934631347618,240.28730773925912) " height="31.2988" width="228.71192" y="224.63793" x="144.53753" opacity="0.2" stroke-linecap="null" stroke-linejoin="null" stroke-dasharray="null" stroke-width="0" fill="#ff0000"/>
  <rect id="svg_50" stroke="#e5e58b" transform="rotate(-0.6733999848365784 258.94598388672046,264.3076171875024) " height="22.36874" width="228.71192" y="253.12324" x="144.59001" opacity="0.2" stroke-linecap="null" stroke-linejoin="null" stroke-dasharray="null" stroke-width="0" fill="#ff0000"/>
  <rect stroke="#e5e58b" id="svg_43" transform="rotate(-0.20428501069545746 258.3104553222461,282.80502319336995) " height="34.79142" width="228.71192" y="265.4093" x="143.9545" opacity="0.2" stroke-linecap="null" stroke-linejoin="null" stroke-dasharray="null" stroke-width="0" fill="#ff0000"/>
  <ellipse stroke="#f9f9cc" ry="95.9948" rx="82.45313" id="svg_41" cy="189.91212" cx="257.63961" stroke-linecap="null" stroke-linejoin="null" stroke-dasharray="null" stroke-width="63" fill="#edaaaa"/>
  <path transform="rotate(3.683162212371826 209.27500915527222,166.61325073242205) " stroke="#000000" id="svg_7" d="m207.46251,151.86326l3.625,-14.75l0,44.25l-3.625,14.74999l0,-44.24999z" stroke-linecap="null" stroke-linejoin="null" stroke-dasharray="null" fill="#7f0000"/>
  <path stroke="#000000" id="svg_8" d="m291.0332,159.69409l9.98563,-15.49832l0,46.49496l-9.98563,15.49831l0,-46.49494l0,-0.00001z" stroke-linecap="null" stroke-linejoin="null" stroke-dasharray="null" stroke-width="0" fill="#7f0000" transform="rotate(3.8383307456970215 296.0260314941408,175.19241333007838) "/>
  <polygon stroke="#000000" fill="#7f0000" points="283.4898492007791,137.16421503485094 298.5958672671853,157.96881377515297 323.0378838687478,150.02215897575502 323.0378838687478,124.30625507424179 298.5958672671853,116.35960027484384 283.4898492007791,137.16421503485094 " stroke-width="0" transform="rotate(-124.56478118896484 303.26385498046875,137.16421508789065) " id="svg_5"/>
  <polygon fill="#7f0000" points="294.93304443359375,152.80453491210938 310.0390625,169.5338134765625 334.4810791015625,163.14378356933594 334.4810791015625,142.4652557373047 310.0390625,136.07522583007812 294.93304443359375,152.80453491210938 " stroke-width="0" transform="rotate(-97.08348846435547 314.7070617675781,152.8045196533203) " id="svg_10" stroke="#000000"/>
  <line fill="none" stroke="#844343" stroke-width="2" stroke-dasharray="null" stroke-linejoin="null" stroke-linecap="null" x1="235" y1="166.6" x2="224" y2="199.6" id="svg_17"/>
  <line stroke="#6d3939" fill="none" stroke-width="2" stroke-dasharray="null" stroke-linejoin="null" stroke-linecap="null" x1="235.96212" y1="197.29199" x2="225.97488" y2="204.64457" id="svg_18" transform="rotate(37.46174240112305 230.96849060058582,200.96829223632818) "/>
  <path transform="rotate(-8.165899276733398 254.12499999999983,163.58314514160156) " stroke="#000000" fill="#7f0000" stroke-width="0" stroke-dasharray="null" stroke-linejoin="null" stroke-linecap="null" d="m240.3125,159.47687c12.05208,0.74705 24.10416,-0.89646 26.27084,5.97642c2.16667,6.87288 1.08334,1.64352 1.08334,1.55387c0,-0.08965 -1.89583,-7.38087 -1.89583,-7.47052c0,-0.08965 -0.8125,0.38847 -4.19792,-0.6574c-3.38542,-1.04587 -8.125,-0.59764 -8.125,-0.68729c0,-0.08965 -8.26042,0.68729 -8.26042,0.59764c0,-0.08965 -4.875,0.68729 -4.875,0.68729l0,-0.00001l-0.00001,0z" id="svg_20"/>
  <ellipse fill="#b2b267" stroke="#000000" stroke-width="2" stroke-dasharray="null" stroke-linejoin="null" stroke-linecap="null" cx="220" cy="169.6" id="svg_22" rx="2" ry="5"/>
  <ellipse fill="#b2b267" stroke="#000000" stroke-width="2" stroke-dasharray="null" stroke-linejoin="null" stroke-linecap="null" cx="253.63794" cy="169.77798" rx="2" ry="5" id="svg_24"/>
  <ellipse fill="#ff7f00" stroke-width="0" stroke-dasharray="null" stroke-linejoin="null" stroke-linecap="null" cx="219.26247" cy="169.78174" id="svg_25" rx="0.97888" ry="3.2926" opacity="0.5" stroke="#000000"/>
  <ellipse fill="#ff7f00" stroke-width="0" stroke-dasharray="null" stroke-linejoin="null" stroke-linecap="null" cx="252.54446" cy="170.31567" rx="0.97888" ry="3.2926" opacity="0.5" stroke="#000000" id="svg_26"/>
  <ellipse fill="#00ffff" stroke-width="0" stroke-dasharray="null" stroke-linejoin="null" stroke-linecap="null" cx="251.47659" cy="170.31567" rx="0.97888" ry="3.2926" opacity="0.5" stroke="#000000" id="svg_27"/>
  <ellipse fill="#00ffff" stroke-width="0" stroke-dasharray="null" stroke-linejoin="null" stroke-linecap="null" cx="218.1946" cy="169.95972" rx="0.97888" ry="3.2926" opacity="0.5" stroke="#000000" id="svg_28"/>
  <path stroke="#000000" id="svg_1" d="m226.42333,212.71499c0,0 2.18065,2.69299 6.29966,1.6158c4.11901,-1.0772 4.3613,-0.96948 4.3613,-1.03411c0,-0.06463 12.59931,3.08078 12.59931,3.01615c0,-0.06463 -24.71403,-1.44344 -24.71403,-1.50808c0,-0.06463 -3.87671,-1.7666 -1.21147,-2.08976c2.66524,-0.32316 2.66524,0 2.66524,0l-0.00001,0z" stroke-width="0" fill="#7f0000"/>
  <ellipse stroke="#6d3939" ry="0.63281" rx="6.43074" id="svg_11" cy="202.46766" cx="230.78982" opacity="0.5" stroke-linecap="null" stroke-linejoin="null" stroke-dasharray="null" stroke-width="2" fill="none"/>
  <path stroke="#7f0000" id="svg_13" d="m223.7409,217.54924c0,0 1.96207,3.31409 10.65123,1.87318c8.68916,-1.44091 8.68916,-1.44091 8.60958,-1.52204c-0.07958,-0.08113 -3.56426,2.96294 -9.73076,2.81885c-6.1665,-0.14409 -8.68916,-1.00864 -9.53005,-1.585c-0.84089,-0.57636 0,-1.585 0,-1.585l0,0.00001z" stroke-linecap="null" stroke-linejoin="null" stroke-dasharray="null" stroke-width="0" fill="#7f0000"/>
  <polygon stroke="#a07272" transform="rotate(21.28138542175293 322.1593322753908,174.85090637207026) " stroke-width="2" points="322.1593338583974,165.16875723261498 323.6956802939443,172.40909030541067 328.37396398535054,172.56525368001482 324.6451737021474,177.1961845605815 326.00018468847554,184.53305523191054 322.1593338583974,180.1547989588939 318.3184830283193,184.53305523191054 319.6734940146474,177.1961845605815 315.9447037314443,172.56525368001482 320.62298742285054,172.40909030541067 322.1593338583974,165.16875723261498 323.6956802939443,172.40909030541067 " fill="#a06d6d" id="svg_14"/>
  <path stroke="#965858" transform="rotate(-89.88261413574219 237.02413940429688,238.6252899169922) " id="svg_15" d="m237.66323,226.57552c0,0 -4.41165,9.55463 -1.17644,17.06183c3.23521,7.50721 3.52932,2.72989 3.49665,2.68437c-0.03267,-0.04552 -2.32021,7.55273 -3.79076,2.77541c-1.47055,-4.77731 -2.79404,-14.33194 -1.76466,-17.74431c1.02938,-3.41237 3.23521,-4.77731 3.23521,-4.77731l0,0.00001z" stroke-linecap="null" stroke-linejoin="null" stroke-dasharray="null" fill="#7f0000"/>
  <path stroke="#7f2323" transform="rotate(-9.17534351348877 249.3892822265629,215.40428161621094) " id="svg_19" d="m249.90358,207.43326c0,0 -1.9203,4.69247 -0.79461,9.94804c1.1257,5.25557 1.32435,6.00636 1.30964,5.99384c-0.01471,-0.01252 -2.3029,-5.43075 -2.03803,-8.62163c0.26487,-3.19088 1.523,-7.32026 1.523,-7.32026l0,0.00001z" stroke-linecap="null" stroke-linejoin="null" stroke-dasharray="null" stroke-width="0.3" fill="#7f0000"/>
  <polygon stroke="#000000" id="svg_23" fill="#7f0000" points="303.1998593487002,160.07284992105318 315.4545818581097,169.93187396890474 335.2831117662423,166.16605060464693 335.2831117662423,153.9796187198813 315.4545818581097,150.2137953556235 303.1998593487002,160.07284992105318 " stroke-width="0" transform="rotate(-97.08348846435547 319.2414855957031,160.07283020019528) "/>
  <polygon stroke="#000000" id="svg_29" fill="#7f0000" points="302.20489501953125,185.9061279296875 314.5847473144531,188.8889617919922 334.61578369140625,187.74961853027344 334.61578369140625,184.06265258789062 314.5847473144531,182.9232940673828 302.20489501953125,185.9061279296875 " stroke-width="0" transform="rotate(-83.04230499267578 318.41033935546875,185.9061279296875) "/>
  <path id="svg_30" stroke="#7f2323" transform="rotate(-179.77725219726562 282.5767822265625,110.77926635742188) " d="m283.09108,102.80826c0,0 -1.92031,4.69247 -0.79461,9.94804c1.12569,5.25557 1.32435,6.00636 1.30964,5.99384c-0.01471,-0.01252 -2.3029,-5.43074 -2.03803,-8.62163c0.26487,-3.19088 1.523,-7.32025 1.523,-7.32025z" stroke-linecap="null" stroke-linejoin="null" stroke-dasharray="null" stroke-width="0.3" fill="#7f0000"/>
  <path stroke="#7f2323" id="svg_31" transform="rotate(176.8744659423828 285.5268249511719,107.30459594726561) " d="m286.30097,104.98088c0,0 -2.89062,1.36795 -1.19612,2.90006c1.69449,1.53211 1.99353,1.75098 1.97138,1.74733c-0.02214,-0.00365 -3.46653,-1.58317 -3.06782,-2.51338c0.39871,-0.93021 2.29255,-2.134 2.29255,-2.134l0.00001,-0.00001z" stroke-linecap="null" stroke-linejoin="null" stroke-dasharray="null" stroke-width="0.3" fill="#7f0000"/>
  <path stroke="#7f2323" id="svg_32" transform="rotate(176.8744659423828 290.1725158691406,108.75950622558592) " d="m288.98123,105.25112c0,0 4.4481,2.06535 1.84059,4.37855c-2.60749,2.3132 -3.06765,2.64365 -3.03358,2.63814c0.03407,-0.00551 5.33431,-2.3903 4.72078,-3.79474c-0.61353,-1.40444 -3.52779,-3.22195 -3.52779,-3.22195z" stroke-linecap="null" stroke-linejoin="null" stroke-dasharray="null" stroke-width="0.3" fill="#7f0000"/>
  <polygon stroke="#000000" id="svg_33" fill="#7f0000" points="301.20308817079217,161.70800698399322 307.3552821497267,171.56703103184478 317.30972723963146,167.80120766758697 317.30972723963146,155.61477578282134 307.3552821497267,151.84895241856353 301.20308817079217,161.70800698399322 " stroke-width="0" transform="rotate(-97.08348846435547 309.2564086914063,161.70799255371097) "/>
  <polygon stroke="#000000" id="svg_34" fill="#a07070" points="292.6643421197567,164.94882089262336 307.3065538067657,177.54530221586555 330.998091312931,172.73387033109992 330.998091312931,157.1637256777796 307.3065538067657,152.35229379301398 292.6643421197567,164.94882089262336 " stroke-width="0" transform="rotate(178.85549926757812 311.83120727539057,164.94879150390622) "/>
  <polygon stroke="#a07272" id="svg_36" transform="rotate(14.279905319213867 323.1924438476559,170.34385681152344) " stroke-width="2" points="323.19245712662416,159.13697843664409 324.3918996812878,167.5175021182847 328.04428719782084,167.69825773351909 325.1331796249393,173.05845670812846 326.1910516005788,181.55072050207377 323.19245712662416,176.48298673742534 320.1938626526695,181.55072050207377 321.251734628309,173.05845670812846 318.3406270554275,167.69825773351909 321.99301457196054,167.5175021182847 323.19245712662416,159.13697843664409 324.3918996812878,167.5175021182847 " fill="#a06d6d"/>
  <polygon stroke="#000000" id="svg_37" fill="#a07070" points="292.1016540527344,156.5056915283203 306.529052734375,169.1021728515625 329.8730163574219,164.29074096679688 329.8730163574219,148.72059631347656 306.529052734375,143.90916442871094 292.1016540527344,156.5056915283203 " stroke-width="0" transform="rotate(178.85549926757812 310.98733520507807,156.50567626953125) "/>
  <path stroke="#000000" transform="rotate(8.145116806030273 209.84251403808605,153.82452392578125) " id="svg_38" d="m208.11699,153.82452l1.72553,-13.28996l1.72553,13.28996l-1.72553,13.28996l-1.72553,-13.28996z" stroke-linecap="null" stroke-linejoin="null" stroke-dasharray="null" stroke-width="0" fill="#a07070"/>
  <path stroke="#000000" fill="#7f0000" stroke-width="0" stroke-dasharray="null" stroke-linejoin="null" stroke-linecap="null" d="m230.96891,159.41666c-11.34813,0.72789 -22.69625,-0.87347 -24.73637,5.8231c-2.04011,6.69657 -1.02006,1.60135 -1.02006,1.514c0,-0.08735 1.7851,-7.19153 1.7851,-7.27887c0,-0.08735 0.76504,0.3785 3.95272,-0.64054c3.18768,-1.01905 7.65042,-0.58232 7.65042,-0.66966c0,-0.08735 7.77793,0.66966 7.77793,0.58232c0,-0.08735 4.59025,0.66966 4.59025,0.66966l0.00001,0l0,-0.00001z" id="svg_21" transform="rotate(10.332831382751465 217.963195800781,163.41758728027358) "/>
  <polygon id="svg_40" stroke="#000000" fill="#7f0000" points="298.82989501953125,187.5936279296875 311.2097473144531,190.5764617919922 331.24078369140625,189.43711853027344 331.24078369140625,185.75015258789062 311.2097473144531,184.6107940673828 298.82989501953125,187.5936279296875 " stroke-width="0" transform="rotate(-83.04230499267578 315.03533935546875,187.59362792968753) "/>
  <ellipse stroke="#7f0000" ry="12.10254" rx="7.91895" id="svg_39" cy="175.28612" cx="306.4109" stroke-linecap="null" stroke-linejoin="null" stroke-dasharray="null" fill="#edaaaa"/>
  <polygon stroke="#a07272" stroke-width="0" points="310.6217346191406,184.03070068359375 306.3149719238281,199.84347534179688 299.3465270996094,193.80352783203125 299.3465270996094,174.25784301757812 306.3149719238281,168.2178955078125 310.6217346191406,184.03070068359375 " fill="#edaaaa" id="svg_35"/>
  <path stroke="#f23c3c" transform="rotate(88.67416381835938 224.15161132812503,147.92117309570312) " id="svg_44" d="m214.43781,159.32868l0,-22.81499l19.42759,22.81499l-19.42759,0z" stroke-linecap="null" stroke-linejoin="null" stroke-dasharray="null" stroke-width="0" fill="#edaaaa"/>
  <polygon stroke="#000000" id="svg_4" fill="#7f0000" points="308.93331549605256,122.22904599296912 268.34156523070607,142.35358059990273 202.66283498356395,134.66667569267616 202.66283498356395,109.79137814628943 268.34156523070607,102.10448849785193 308.93331549605256,122.22904599296912 " stroke-width="0" transform="rotate(-7.542283535003662 255.79808044433565,122.22903442382807) "/>
  <path stroke="#f23c3c" transform="rotate(18.7429256439209 273.35470581054693,185.39776611328122) " id="svg_45" d="m265.44419,194.1281l0,-17.46067l15.82108,17.46067l-15.82108,0z" stroke-linecap="null" stroke-linejoin="null" stroke-dasharray="null" stroke-width="0" fill="#edaaaa"/>
  <path stroke="#000000" id="svg_2" d="m209.94872,144.18365l1.11496,-5.0625l1.11496,5.0625l-2.22992,0z" stroke-linecap="null" stroke-linejoin="null" stroke-dasharray="null" stroke-width="0" fill="#7f0000"/>
  <ellipse stroke="#7f0000" transform="rotate(2.5052490234375 305.1452636718762,177.81736755371213) " stroke-width="0.5" id="svg_3" ry="12.1302" rx="6.65272" cy="177.81737" cx="305.14527" stroke-linecap="null" stroke-linejoin="null" stroke-dasharray="null" fill="#edaaaa"/>
  <ellipse stroke="#7f0000" id="svg_6" transform="rotate(2.5052490234375 303.3661804199215,181.83963012695295) " stroke-width="0" ry="9.40907" rx="5.17757" cy="181.83963" cx="303.36618" stroke-linecap="null" stroke-linejoin="null" stroke-dasharray="null" fill="#edaaaa"/>
  <rect stroke="#e5e58b" id="svg_66" height="268.44444" width="243.55556" y="56.61111" x="137.16667" opacity="0.1" stroke-linecap="null" stroke-linejoin="null" stroke-dasharray="null" stroke-width="0" fill="#ff00ff"/>
 </g>
</svg>
