<svg width="639.9999999999999" height="479.99999999999994" xmlns="http://www.w3.org/2000/svg" xmlns:svg="http://www.w3.org/2000/svg">
 <!-- Created with SVG-edit - http://svg-edit.googlecode.com/ -->
 <defs>
  <linearGradient id="svg_52">
   <stop stop-color="#000000" offset="0.15942"/>
   <stop stop-color="#ffffff" offset="0.72583"/>
  </linearGradient>
  <linearGradient id="svg_64">
   <stop stop-color="#00ff00" offset="0.06177"/>
   <stop stop-color="#ff00ff" offset="0.88208"/>
   <stop stop-color="#ff00ff" offset="1"/>
  </linearGradient>
  <linearGradient id="svg_72">
   <stop stop-color="#000000" offset="0"/>
   <stop stop-color="#ffffff" offset="1"/>
  </linearGradient>
 </defs>
 <g stroke="null">
  <title>Layer 1</title>
  <polygon id="svg_35" fill="#bfbfbf" points="152.12864685058594,186.8656005859375 132.02796507961284,257.23919677734375 99.50437756329757,230.35887145996094 99.50437756329757,143.37234497070312 132.02796507961284,116.4920425415039 152.12864685058594,186.8656005859375 " stroke="#000000"/>
  <rect fill="#7f7f7f" stroke-width="null" stroke-dasharray="null" stroke-linejoin="null" stroke-linecap="null" x="332.08039" y="399.28295" width="25.93972" height="25.57867" id="svg_22" transform="rotate(-8.63525676727295 345.050231933594,412.07229614257807) " stroke="#000000"/>
  <path fill="#7f7f7f" stroke-width="null" stroke-dasharray="null" stroke-linejoin="null" stroke-linecap="null" d="m131.599991,116.400002l355.000015,0l0,141l-355.000015,0l0,-141z" id="svg_1" stroke="#0f0e0e"/>
  <polygon id="svg_25" fill="#7f7f7f" points="388.6078944206238,337.4358973503113 327.2573390007019,422.04191541671753 227.99008131027222,389.72529554367065 227.99008131027222,285.1464991569519 327.2573390007019,252.8298487663269 388.6078944206238,337.4358973503113 " stroke-width="null" transform="rotate(-54.59344482421875 308.29898071289057,337.43588256835943) " stroke="#000000"/>
  <ellipse fill="#bfbfbf" stroke-width="null" stroke-dasharray="null" stroke-linejoin="null" stroke-linecap="null" cx="267.92276" cy="312.37823" rx="1.92308" ry="1.28205" id="svg_67" stroke="#000000"/>
  <ellipse fill="#bfbfbf" stroke-width="null" stroke-dasharray="null" stroke-linejoin="null" stroke-linecap="null" cx="251.36461" cy="312.96376" rx="1.92308" ry="1.28205" stroke="#000000" id="svg_76"/>
  <ellipse fill="#3f3f3f" stroke-width="null" stroke-dasharray="null" stroke-linejoin="null" stroke-linecap="null" cx="348.71793" cy="286.92309" id="svg_66" rx="3.84615" ry="5.12821" stroke="#000000"/>
  <ellipse fill="#3f3f3f" stroke="#000000" stroke-width="null" stroke-dasharray="null" stroke-linejoin="null" stroke-linecap="null" cx="258.97433" cy="286.92309" id="svg_65" rx="3.84615" ry="5.12821"/>
  <rect fill="url(#svg_52)" stroke-width="null" stroke-dasharray="null" stroke-linejoin="null" stroke-linecap="null" x="269.22177" y="349.60412" width="6.51726" height="15.45138" id="svg_51" transform="rotate(-89.04518127441406 272.48040771484375,357.3298034667969) " stroke="#000000"/>
  <ellipse fill="#7f7f7f" stroke="#000000" stroke-width="null" stroke-dasharray="null" stroke-linejoin="null" stroke-linecap="null" cx="412.82049" cy="317.69232" id="svg_42" rx="16.66667" ry="15.38462"/>
  <ellipse fill="#ff0000" stroke-width="null" stroke-dasharray="null" stroke-linejoin="null" stroke-linecap="null" cx="188.6" cy="172.4" id="svg_2" rx="24" ry="38" stroke="#000000"/>
  <ellipse fill="#ff0000" stroke-width="null" stroke-dasharray="null" stroke-linejoin="null" stroke-linecap="null" cx="423.49999" cy="181.4" rx="30.5" ry="45" id="svg_4" stroke="#000000"/>
  <rect fill="#3f3f3f" stroke-width="null" stroke-dasharray="null" stroke-linejoin="null" stroke-linecap="null" x="267.5" y="210.4" width="13" height="18" id="svg_11" stroke="#000000"/>
  <rect fill="#3f3f3f" stroke-width="null" stroke-dasharray="null" stroke-linejoin="null" stroke-linecap="null" x="232" y="210.4" width="159" height="17" id="svg_5" stroke="#000000"/>
  <rect fill="#ffff00" stroke-width="null" stroke-dasharray="null" stroke-linejoin="null" stroke-linecap="null" x="268.98178" y="210.41215" width="13" height="17" id="svg_9" stroke="#000000"/>
  <rect fill="#0000ff" stroke-width="null" stroke-dasharray="null" stroke-linejoin="null" stroke-linecap="null" x="288.47571" y="209.91215" width="13" height="17" id="svg_14" stroke="#000000"/>
  <rect fill="#7f00ff" stroke-width="null" stroke-dasharray="null" stroke-linejoin="null" stroke-linecap="null" x="323.5" y="209.4" width="13" height="18" id="svg_15" stroke="#000000"/>
  <rect fill="#ff00ff" stroke-width="null" stroke-dasharray="null" stroke-linejoin="null" stroke-linecap="null" x="306.5" y="209.4" width="13" height="18" id="svg_10" stroke="#000000"/>
  <rect fill="#ff7f00" stroke-width="null" stroke-dasharray="null" stroke-linejoin="null" stroke-linecap="null" x="235" y="210.4" width="13" height="18" id="svg_6" stroke="#000000"/>
  <rect fill="#00ff00" stroke-width="null" stroke-dasharray="null" stroke-linejoin="null" stroke-linecap="null" x="252.5" y="210.4" width="13" height="18" id="svg_12" stroke="#000000"/>
  <rect fill="#ff7f00" stroke-width="null" stroke-dasharray="null" stroke-linejoin="null" stroke-linecap="null" x="341.5" y="210.4" width="13" height="18" id="svg_16" stroke="#000000"/>
  <rect fill="#0000ff" stroke-width="null" stroke-dasharray="null" stroke-linejoin="null" stroke-linecap="null" x="359.5" y="210.9" width="13" height="17" id="svg_17" stroke="#000000"/>
  <rect fill="#ffff00" stroke-width="null" stroke-dasharray="null" stroke-linejoin="null" stroke-linecap="null" x="376.5" y="210.9" width="13" height="17" id="svg_18" stroke="#000000"/>
  <polygon id="svg_23" fill="#ff0000"/>
  <polygon id="svg_24" fill="#ff0000"/>
  <rect fill="#7f7f7f" stroke-width="null" stroke-dasharray="null" stroke-linejoin="null" stroke-linecap="null" x="205.60001" y="293" width="30" height="28" id="svg_26" transform="rotate(18.886079788208008 220.6000061035149,307.00000000000006) " stroke="#000000"/>
  <rect fill="#7f7f7f" stroke-width="null" stroke-dasharray="null" stroke-linejoin="null" stroke-linecap="null" x="373.6" y="294" width="32" height="31" id="svg_27" transform="rotate(-20.11259651184082 389.6000061035156,309.49999999999994) " stroke="#000000"/>
  <ellipse fill="#7f7f7f" stroke-width="null" stroke-dasharray="null" stroke-linejoin="null" stroke-linecap="null" cx="201.92309" cy="319.6154" rx="1.92307" ry="3.20513" id="svg_69" stroke="url(#svg_72)" opacity="0.5"/>
  <rect fill="#7f7f7f" stroke-width="null" stroke-dasharray="null" stroke-linejoin="null" stroke-linecap="null" x="127.6" y="319" width="84" height="19" id="svg_28" stroke="#000000"/>
  <ellipse fill="#7f7f7f" stroke-width="null" stroke-dasharray="null" stroke-linejoin="null" stroke-linecap="null" cx="203.24103" cy="319" id="svg_29" rx="16.35897" ry="15" stroke="#000000"/>
  <ellipse fill="#7f7f7f" stroke-width="null" stroke-dasharray="null" stroke-linejoin="null" stroke-linecap="null" cx="199.6" cy="311" id="svg_30" transform="rotate(-32.4712028503418 199.60000610351554,310.99999999999994) " stroke="#000000"/>
  <path fill="#7f7f7f" stroke-width="null" stroke-dasharray="null" stroke-linejoin="null" stroke-linecap="null" d="m111.6,316c0,0 -21,-42 -15,-17c6,25 15,17 15,17z" id="svg_33" stroke="#000000"/>
  <path fill="#7f7f7f" stroke-width="null" stroke-dasharray="null" stroke-linejoin="null" stroke-linecap="null" d="m84.24148,320.83673c-33,-6 -25,4 -12,2l12,-2z" id="svg_37" transform="rotate(-22.248985290527344 72.59998321533233,321.00000000000006) " stroke="#000000"/>
  <path fill="#7f7f7f" stroke-width="null" stroke-dasharray="null" stroke-linejoin="null" stroke-linecap="null" d="m102.6,318c-33,-6 -25,4 -12,2l12,-2z" id="svg_36" transform="rotate(9.763099670410156 90.95850372314449,318.16326904296875) " stroke="#000000"/>
  <path fill="#7f7f7f" stroke-width="null" stroke-dasharray="null" stroke-linejoin="null" stroke-linecap="null" d="m102.08292,336.98069c-27.66278,-6 -20.95665,4 -10.05919,2l10.05919,-2z" transform="rotate(-19.70992088317871 92.32424926757787,337.14395141601557) " id="svg_40" stroke="#000000"/>
  <ellipse fill="#7f7f7f" stroke-width="null" stroke-dasharray="null" stroke-linejoin="null" stroke-linecap="null" cx="112.6" cy="327" id="svg_31" rx="12" ry="12" stroke="#000000"/>
  <path fill="#7f7f7f" stroke-width="null" stroke-dasharray="null" stroke-linejoin="null" stroke-linecap="null" d="m100.24148,329.68168c-33,-11.69827 -25,7.79884 -12,3.89942l12,-3.89942z" id="svg_38" transform="rotate(-15.642210960388184 88.59998321533196,330) " stroke="#000000"/>
  <path fill="#7f7f7f" stroke-width="null" stroke-dasharray="null" stroke-linejoin="null" stroke-linecap="null" d="m82.28661,336.11648c-30.46783,-8.55996 -23.08169,5.70664 -11.07921,2.85332l11.07921,-2.85332z" transform="rotate(-36.54976272583008 71.53839111328134,336.3493957519531) " id="svg_39" stroke="#000000"/>
  <path fill="#7f7f7f" stroke-width="null" stroke-dasharray="null" stroke-linejoin="null" stroke-linecap="null" d="m85.86154,345.70923c-27.66278,-1.96785 -20.95666,1.3119 -10.0592,0.65595l10.0592,-0.65595z" transform="rotate(-44.41059875488281 76.10285949707034,345.7627868652344) " id="svg_41" stroke="#000000"/>
  <rect fill="#7f7f7f" stroke="#000000" stroke-width="null" stroke-dasharray="null" stroke-linejoin="null" stroke-linecap="null" x="419.23075" y="324.10258" width="58.97436" height="16.66667" id="svg_45" transform="rotate(-156.61474609375 448.71795654296875,332.4359436035157) "/>
  <path fill="#7f7f7f" stroke-width="null" stroke-dasharray="null" stroke-linejoin="null" stroke-linecap="null" d="m507.24411,372.19769c0,0 -17.2488,-25.02988 -12.32057,-10.13114c4.92823,14.89874 12.32057,10.13114 12.32057,10.13114z" id="svg_50" transform="rotate(-5.355936050415039 500.6410827636728,365.12820434570244) " stroke="#000000"/>
  <ellipse fill="#7f7f7f" stroke="#000000" stroke-width="null" stroke-dasharray="null" stroke-linejoin="null" stroke-linecap="null" cx="484.61536" cy="349.7436" id="svg_46" rx="11.53846" ry="14.10256" transform="rotate(3.270447254180908 484.6153869628918,349.7435913085935) "/>
  <path fill="#7f7f7f" stroke-width="null" stroke-dasharray="null" stroke-linejoin="null" stroke-linecap="null" d="m513.16729,346.22151c0,0 -21,-42 -15,-17c6,25 15,17 15,17z" stroke="#000000" id="svg_48" transform="rotate(88.09085845947266 505.1282348632813,334.3589782714844) "/>
  <path fill="#7f7f7f" stroke-width="null" stroke-dasharray="null" stroke-linejoin="null" stroke-linecap="null" d="m514.44934,366.73434c0,0 -21,-42 -15,-17c6,25 15,17 15,17z" stroke="#000000" id="svg_49" transform="rotate(147.65260314941406 506.4102783203125,354.871826171875) "/>
  <path fill="#7f7f7f" stroke-width="null" stroke-dasharray="null" stroke-linejoin="null" stroke-linecap="null" d="m487.37038,370.79846c0,0 -17.2488,-25.02988 -12.32057,-10.13114c4.92823,14.89873 12.32057,10.13114 12.32057,10.13114z" transform="rotate(48.53171157836914 480.76733398437494,363.72900390625) " stroke="#000000" id="svg_54"/>
  <rect fill="#000000" stroke-width="null" stroke-dasharray="null" stroke-linejoin="null" stroke-linecap="null" x="321.79483" y="306.15386" width="19.23076" height="26.92308" id="svg_56" stroke="#000000"/>
  <rect fill="url(#svg_52)" stroke-width="null" stroke-dasharray="null" stroke-linejoin="null" stroke-linecap="null" x="268.53623" y="365.09483" width="6.51726" height="15.45138" transform="rotate(-89.04518127441406 271.7948608398438,372.82049560546886) " stroke="#000000" id="svg_60"/>
  <rect fill="url(#svg_52)" stroke-width="null" stroke-dasharray="null" stroke-linejoin="null" stroke-linecap="null" x="268.53623" y="380.47943" width="6.51726" height="15.45138" transform="rotate(-89.04518127441406 271.7948608398437,388.2051086425781) " stroke="#000000" id="svg_61"/>
  <path fill="url(#svg_64)" stroke-width="null" stroke-dasharray="null" stroke-linejoin="null" stroke-linecap="null" d="m330.84871,317.21957c3.43579,-9.86261 16.89734,0 0,12.6805c-16.89734,-12.6805 -3.43579,-22.54311 0,-12.6805z" id="svg_62" stroke="#000000"/>
  <ellipse fill="#3f3f3f" stroke="#000000" stroke-width="null" stroke-dasharray="null" stroke-linejoin="null" stroke-linecap="null" cx="257.69233" cy="285.64103" rx="3.84615" ry="5.12821" id="svg_68"/>
  <rect fill="#ffffff" stroke-width="null" stroke-dasharray="null" stroke-linejoin="null" stroke-linecap="null" opacity="0.5" x="253.84613" y="316.41027" width="29.48718" height="11.53846" id="svg_70" stroke="#000000"/>
  <text fill="#000000" stroke-width="0" stroke-dasharray="null" stroke-linejoin="null" stroke-linecap="null" opacity="0.5" x="260.25639" y="322.82053" id="svg_71" font-size="24" font-family="serif" text-anchor="middle" xml:space="preserve" transform="matrix(0.27092512535027286,0,0,0.46400904655456543,198.06937590454402,176.31589910760522) " stroke="#000000">1499a612</text>
  <ellipse fill="#3f3f3f" stroke-width="null" stroke-dasharray="null" stroke-linejoin="null" stroke-linecap="null" cx="347.34819" cy="286.09314" rx="3.84615" ry="5.12821" stroke="#000000" id="svg_73"/>
  <ellipse fill="#7f7f7f" stroke-width="null" stroke-dasharray="null" stroke-linejoin="null" stroke-linecap="null" cx="402.51013" cy="314.93929" rx="1.92307" ry="3.20513" stroke="url(#svg_72)" opacity="0.5" id="svg_74"/>
  <ellipse fill="#7f7f7f" stroke-width="null" stroke-dasharray="null" stroke-linejoin="null" stroke-linecap="null" cx="202.61133" cy="318.98787" rx="1.92307" ry="3.20513" stroke="url(#svg_72)" opacity="0.5" id="svg_75"/>
  <ellipse fill="#bfbfbf" stroke-width="null" stroke-dasharray="null" stroke-linejoin="null" stroke-linecap="null" cx="284.9467" cy="312.96375" rx="1.92308" ry="1.28205" id="svg_77" stroke="#000000"/>
  <ellipse fill="#7f7f7f" stroke-width="null" stroke-dasharray="null" stroke-linejoin="null" stroke-linecap="null" cx="234.40223" cy="427.59494" id="svg_19" rx="14.76793" ry="16.1744" stroke="#000000"/>
  <ellipse fill="#3f3f3f" stroke="#000000" stroke-width="null" stroke-dasharray="null" stroke-linejoin="null" stroke-linecap="null" opacity="0.75" cx="235.10547" cy="410.01407" id="svg_20" ry="14.0647"/>
  <rect fill="#7f7f7f" stroke="#000000" stroke-width="null" stroke-dasharray="null" stroke-linejoin="null" stroke-linecap="null" x="195.72431" y="440.9564" width="40.78762" height="7.03235" id="svg_21"/>
  <rect fill="#7f7f7f" stroke-width="null" stroke-dasharray="null" stroke-linejoin="null" stroke-linecap="null" x="224.20403" y="398.78686" width="41.52613" height="23.02754" id="svg_13" transform="rotate(-140.96287536621094 244.96710205078125,410.3006591796875) " stroke="#000000"/>
  <ellipse fill="#7f7f7f" stroke="#000000" stroke-width="null" stroke-dasharray="null" stroke-linejoin="null" stroke-linecap="null" cx="347.62305" cy="429.70464" id="svg_32" rx="12.65823" ry="12.65823"/>
  <polygon id="svg_44" fill="#7f7f7f" points="361.6588315963745,451.50494384765625 352.19087505340576,473.75115966796875 336.87141704559326,465.2538146972656 336.87141704559326,437.7559814453125 352.19087505340576,429.2586669921875 361.6588315963745,451.50494384765625 " stroke-width="null" transform="rotate(85.36442565917969 349.26513671874994,451.5049133300781) " stroke="#000000"/>
  <rect fill="#7f7f7f" stroke="#000000" stroke-width="null" stroke-dasharray="null" stroke-linejoin="null" stroke-linecap="null" x="325.11953" y="457.83404" width="25.31646" height="11.25176" id="svg_47" transform="rotate(26.56503677368164 337.777770996094,463.4599304199218) "/>
  <rect fill="#7f7f7f" stroke="#000000" stroke-width="null" stroke-dasharray="null" stroke-linejoin="null" stroke-linecap="null" x="351.84246" y="457.83404" width="23.90999" height="8.43882" id="svg_53" transform="rotate(-28.926406860351562 363.7974548339842,462.05349731445307) "/>
  <polygon id="svg_57" fill="#bfbfbf"/>
  <polygon id="svg_58" fill="#bfbfbf"/>
  <polygon id="svg_59" fill="#bfbfbf"/>
  <polygon id="svg_63" fill="#bfbfbf"/>
  <ellipse stroke="#000000" transform="rotate(20.674423217773438 175.27896118164065,156.58074951171875) " ry="15.640582" rx="6" id="svg_7" cy="156.580748" cx="175.278964" stroke-linecap="null" stroke-linejoin="null" stroke-dasharray="null" stroke-width="0" fill="#f77171"/>
  <ellipse transform="rotate(17.447187423706055 182.80000305175773,161.3999938964844) " ry="17" rx="10" id="svg_55" cy="161.4" cx="182.8" stroke-linecap="null" stroke-linejoin="null" stroke-dasharray="null" stroke-width="0" stroke="#000000" fill="#ff0000"/>
  <ellipse stroke="#000000" id="svg_78" transform="rotate(20.674423217773438 406.1228637695315,162.64448547363273) " ry="20.203848" rx="6" cy="162.644484" cx="406.122845" stroke-linecap="null" stroke-linejoin="null" stroke-dasharray="null" stroke-width="0" fill="#f99090"/>
  <ellipse stroke="#000000" id="svg_79" transform="rotate(17.447187423706055 411.4760437011719,168.61248779296884) " ry="25.231603" rx="10" cy="168.612475" cx="411.476073" stroke-linecap="null" stroke-linejoin="null" stroke-dasharray="null" stroke-width="0" fill="#ff0000"/>
 </g>
</svg>
