<svg width="639.9999999999999" height="479.9999999999998" xmlns="http://www.w3.org/2000/svg" xmlns:svg="http://www.w3.org/2000/svg">
 <!-- Created with SVG-edit - http://svg-edit.googlecode.com/ -->
 <defs>
  <linearGradient id="svg_52">
   <stop offset="0.15942" stop-color="#000000"/>
   <stop offset="0.72583" stop-color="#ffffff"/>
  </linearGradient>
  <linearGradient id="svg_64">
   <stop offset="0.06177" stop-color="#00ff00"/>
   <stop offset="0.88208" stop-color="#ff00ff"/>
   <stop offset="1" stop-color="#ff00ff"/>
  </linearGradient>
  <linearGradient id="svg_72">
   <stop offset="0" stop-color="#000000"/>
   <stop offset="1" stop-color="#ffffff"/>
  </linearGradient>
  <pattern id="gridpattern" patternUnits="userSpaceOnUse" x="0" y="0" width="100" height="100">
   <image id="svg_8" x="0" y="0" width="100" height="100"/>
  </pattern>
  <linearGradient id="svg_81" x1="0" y1="0" x2="1" y2="0">
   <stop stop-color="#727272" offset="0.8313"/>
   <stop stop-color="#8d8d8d" offset="1"/>
  </linearGradient>
  <linearGradient y2="0" x2="1" y1="0" x1="0" id="svg_34">
   <stop offset="0.8313" stop-color="#727272"/>
   <stop offset="1" stop-color="#8d8d8d"/>
  </linearGradient>
  <linearGradient y2="0" x2="1" y1="0" x1="0" id="svg_89">
   <stop offset="0.8938" stop-color="#3f3f3f"/>
   <stop offset="0.95239" stop-color="#c0c0c0"/>
  </linearGradient>
 </defs>
 <g stroke="null">
  <title>Layer 1</title>
  <rect fill="url(#svg_81)" x="294.66667" y="249.3333" width="10.66667" height="41.33333" id="svg_3" stroke="#000000"/>
  <polygon stroke="#000000" points="152.12864685058594,186.8656005859375 132.02796507961284,257.23919677734375 99.50437756329757,230.35887145996094 99.50437756329757,143.37234497070312 132.02796507961284,116.4920425415039 152.12864685058594,186.8656005859375 " fill="#bfbfbf" id="svg_35"/>
  <rect stroke="#000000" transform="rotate(-8.63525676727295 345.050231933594,412.07229614257807) " id="svg_22" height="25.57867" width="25.93972" y="399.28295" x="332.08039" stroke-linecap="null" stroke-linejoin="null" stroke-dasharray="null" stroke-width="null" fill="#7f7f7f"/>
  <rect stroke="#000000" id="svg_84" height="15" width="1.5" y="256.95" x="295.13751" stroke-linecap="null" stroke-linejoin="null" stroke-dasharray="null" stroke-width="0" fill="#bfbfbf"/>
  <rect stroke="#0f0e0e" id="svg_87" height="19.23077" width="2.21894" y="254.3195" x="302.45558" stroke-linecap="null" stroke-linejoin="null" stroke-dasharray="null" stroke-width="0" fill="url(#svg_89)"/>
  <path stroke="#0f0e0e" id="svg_1" d="m131.59999,116.4l355.00002,0l0,141l-355.00002,0l0,-141z" stroke-linecap="null" stroke-linejoin="null" stroke-dasharray="null" stroke-width="null" fill="#7f7f7f"/>
  <polygon stroke="#000000" transform="rotate(-54.59344482421875 308.29898071289057,337.43588256835943) " stroke-width="null" points="388.6078944206238,337.4358973503113 327.2573390007019,422.04191541671753 227.99008131027222,389.72529554367065 227.99008131027222,285.1464991569519 327.2573390007019,252.8298487663269 388.6078944206238,337.4358973503113 " fill="#7f7f7f" id="svg_25"/>
  <ellipse stroke="#000000" id="svg_67" ry="1.28205" rx="1.92308" cy="312.37823" cx="267.92276" stroke-linecap="null" stroke-linejoin="null" stroke-dasharray="null" stroke-width="null" fill="#bfbfbf"/>
  <ellipse id="svg_76" stroke="#000000" ry="1.28205" rx="1.92308" cy="312.96376" cx="251.36461" stroke-linecap="null" stroke-linejoin="null" stroke-dasharray="null" stroke-width="null" fill="#bfbfbf"/>
  <ellipse stroke="#000000" ry="5.12821" rx="3.84615" id="svg_66" cy="286.92309" cx="348.71793" stroke-linecap="null" stroke-linejoin="null" stroke-dasharray="null" stroke-width="null" fill="#3f3f3f"/>
  <ellipse ry="5.12821" rx="3.84615" id="svg_65" cy="286.92309" cx="258.97433" stroke-linecap="null" stroke-linejoin="null" stroke-dasharray="null" stroke-width="null" stroke="#000000" fill="#3f3f3f"/>
  <rect stroke="#000000" transform="rotate(-89.04518127441406 272.48040771484375,357.3298034667969) " id="svg_51" height="15.45138" width="6.51726" y="349.60412" x="269.22177" stroke-linecap="null" stroke-linejoin="null" stroke-dasharray="null" stroke-width="null" fill="url(#svg_52)"/>
  <ellipse ry="15.38462" rx="16.66667" id="svg_42" cy="317.69232" cx="412.82049" stroke-linecap="null" stroke-linejoin="null" stroke-dasharray="null" stroke-width="null" stroke="#000000" fill="#7f7f7f"/>
  <ellipse stroke="#000000" ry="38" rx="24" id="svg_2" cy="172.4" cx="188.6" stroke-linecap="null" stroke-linejoin="null" stroke-dasharray="null" stroke-width="null" fill="#ff0000"/>
  <ellipse stroke="#000000" id="svg_4" ry="45" rx="30.5" cy="181.4" cx="423.49999" stroke-linecap="null" stroke-linejoin="null" stroke-dasharray="null" stroke-width="null" fill="#ff0000"/>
  <rect stroke="#000000" id="svg_11" height="18" width="13" y="210.4" x="267.5" stroke-linecap="null" stroke-linejoin="null" stroke-dasharray="null" stroke-width="null" fill="#3f3f3f"/>
  <rect stroke="#000000" id="svg_5" height="17" width="159" y="210.4" x="232" stroke-linecap="null" stroke-linejoin="null" stroke-dasharray="null" stroke-width="null" fill="#3f3f3f"/>
  <rect stroke="#000000" id="svg_9" height="17" width="13" y="210.41215" x="268.98178" stroke-linecap="null" stroke-linejoin="null" stroke-dasharray="null" stroke-width="null" fill="#ffff00"/>
  <rect stroke="#000000" id="svg_14" height="17" width="13" y="209.91215" x="288.47571" stroke-linecap="null" stroke-linejoin="null" stroke-dasharray="null" stroke-width="null" fill="#0000ff"/>
  <rect stroke="#000000" id="svg_15" height="18" width="13" y="209.4" x="323.5" stroke-linecap="null" stroke-linejoin="null" stroke-dasharray="null" stroke-width="null" fill="#7f00ff"/>
  <rect stroke="#000000" id="svg_10" height="18" width="13" y="209.4" x="306.5" stroke-linecap="null" stroke-linejoin="null" stroke-dasharray="null" stroke-width="null" fill="#ff00ff"/>
  <rect stroke="#000000" id="svg_6" height="18" width="13" y="210.4" x="235" stroke-linecap="null" stroke-linejoin="null" stroke-dasharray="null" stroke-width="null" fill="#ff7f00"/>
  <rect stroke="#000000" id="svg_12" height="18" width="13" y="210.4" x="252.5" stroke-linecap="null" stroke-linejoin="null" stroke-dasharray="null" stroke-width="null" fill="#00ff00"/>
  <rect stroke="#000000" id="svg_16" height="18" width="13" y="210.4" x="341.5" stroke-linecap="null" stroke-linejoin="null" stroke-dasharray="null" stroke-width="null" fill="#ff7f00"/>
  <rect stroke="#000000" id="svg_17" height="17" width="13" y="210.9" x="359.5" stroke-linecap="null" stroke-linejoin="null" stroke-dasharray="null" stroke-width="null" fill="#0000ff"/>
  <rect stroke="#000000" id="svg_18" height="17" width="13" y="210.9" x="376.5" stroke-linecap="null" stroke-linejoin="null" stroke-dasharray="null" stroke-width="null" fill="#ffff00"/>
  <polygon fill="#ff0000" id="svg_23"/>
  <polygon fill="#ff0000" id="svg_24"/>
  <rect stroke="#000000" transform="rotate(18.886079788208008 220.6000061035149,307.00000000000006) " id="svg_26" height="28" width="30" y="293" x="205.60001" stroke-linecap="null" stroke-linejoin="null" stroke-dasharray="null" stroke-width="null" fill="#7f7f7f"/>
  <rect stroke="#000000" transform="rotate(-20.11259651184082 389.6000061035156,309.49999999999994) " id="svg_27" height="31" width="32" y="294" x="373.6" stroke-linecap="null" stroke-linejoin="null" stroke-dasharray="null" stroke-width="null" fill="#7f7f7f"/>
  <ellipse opacity="0.5" stroke="url(#svg_72)" id="svg_69" ry="3.20513" rx="1.92307" cy="319.6154" cx="201.92309" stroke-linecap="null" stroke-linejoin="null" stroke-dasharray="null" stroke-width="null" fill="#7f7f7f"/>
  <rect stroke="#000000" id="svg_28" height="19" width="84" y="319" x="127.6" stroke-linecap="null" stroke-linejoin="null" stroke-dasharray="null" stroke-width="null" fill="#7f7f7f"/>
  <ellipse stroke="#000000" ry="15" rx="16.35897" id="svg_29" cy="319" cx="203.24103" stroke-linecap="null" stroke-linejoin="null" stroke-dasharray="null" stroke-width="null" fill="#7f7f7f"/>
  <ellipse stroke="#000000" transform="rotate(-32.4712028503418 199.60000610351554,310.99999999999994) " id="svg_30" cy="311" cx="199.6" stroke-linecap="null" stroke-linejoin="null" stroke-dasharray="null" stroke-width="null" fill="#7f7f7f"/>
  <path stroke="#000000" id="svg_33" d="m111.6,316c0,0 -21,-42 -15,-17c6,25 15,17 15,17z" stroke-linecap="null" stroke-linejoin="null" stroke-dasharray="null" stroke-width="null" fill="#7f7f7f"/>
  <path stroke="#000000" transform="rotate(-22.248985290527344 72.59998321533233,321.00000000000006) " id="svg_37" d="m84.24148,320.83673c-33,-6 -25,4 -12,2l12,-2z" stroke-linecap="null" stroke-linejoin="null" stroke-dasharray="null" stroke-width="null" fill="#7f7f7f"/>
  <path stroke="#000000" transform="rotate(9.763099670410156 90.95850372314449,318.16326904296875) " id="svg_36" d="m102.6,318c-33,-6 -25,4 -12,2l12,-2z" stroke-linecap="null" stroke-linejoin="null" stroke-dasharray="null" stroke-width="null" fill="#7f7f7f"/>
  <path stroke="#000000" id="svg_40" transform="rotate(-19.70992088317871 92.32424926757787,337.14395141601557) " d="m102.08292,336.98069c-27.66278,-6 -20.95665,4 -10.05919,2l10.05919,-2z" stroke-linecap="null" stroke-linejoin="null" stroke-dasharray="null" stroke-width="null" fill="#7f7f7f"/>
  <ellipse stroke="#000000" ry="12" rx="12" id="svg_31" cy="327" cx="112.6" stroke-linecap="null" stroke-linejoin="null" stroke-dasharray="null" stroke-width="null" fill="#7f7f7f"/>
  <path stroke="#000000" transform="rotate(-15.642210960388184 88.59998321533196,330) " id="svg_38" d="m100.24148,329.68168c-33,-11.69827 -25,7.79884 -12,3.89942l12,-3.89942z" stroke-linecap="null" stroke-linejoin="null" stroke-dasharray="null" stroke-width="null" fill="#7f7f7f"/>
  <path stroke="#000000" id="svg_39" transform="rotate(-36.54976272583008 71.53839111328134,336.3493957519531) " d="m82.28661,336.11648c-30.46783,-8.55996 -23.08169,5.70664 -11.07921,2.85332l11.07921,-2.85332z" stroke-linecap="null" stroke-linejoin="null" stroke-dasharray="null" stroke-width="null" fill="#7f7f7f"/>
  <path stroke="#000000" id="svg_41" transform="rotate(-44.41059875488281 76.10285949707034,345.7627868652344) " d="m85.86154,345.70923c-27.66278,-1.96785 -20.95666,1.3119 -10.0592,0.65595l10.0592,-0.65595z" stroke-linecap="null" stroke-linejoin="null" stroke-dasharray="null" stroke-width="null" fill="#7f7f7f"/>
  <rect transform="rotate(-156.61474609375 448.71795654296875,332.4359436035157) " id="svg_45" height="16.66667" width="58.97436" y="324.10258" x="419.23075" stroke-linecap="null" stroke-linejoin="null" stroke-dasharray="null" stroke-width="null" stroke="#000000" fill="#7f7f7f"/>
  <path stroke="#000000" transform="rotate(-5.355936050415039 500.6410827636728,365.12820434570244) " id="svg_50" d="m507.24411,372.19769c0,0 -17.2488,-25.02988 -12.32057,-10.13114c4.92823,14.89874 12.32057,10.13114 12.32057,10.13114z" stroke-linecap="null" stroke-linejoin="null" stroke-dasharray="null" stroke-width="null" fill="#7f7f7f"/>
  <ellipse transform="rotate(3.270447254180908 484.6153869628918,349.7435913085935) " ry="14.10256" rx="11.53846" id="svg_46" cy="349.7436" cx="484.61536" stroke-linecap="null" stroke-linejoin="null" stroke-dasharray="null" stroke-width="null" stroke="#000000" fill="#7f7f7f"/>
  <path transform="rotate(88.09085845947266 505.1282348632813,334.3589782714844) " id="svg_48" stroke="#000000" d="m513.16729,346.22151c0,0 -21,-42 -15,-17c6,25 15,17 15,17z" stroke-linecap="null" stroke-linejoin="null" stroke-dasharray="null" stroke-width="null" fill="#7f7f7f"/>
  <path transform="rotate(147.65260314941406 506.4102783203125,354.871826171875) " id="svg_49" stroke="#000000" d="m514.44934,366.73434c0,0 -21,-42 -15,-17c6,25 15,17 15,17z" stroke-linecap="null" stroke-linejoin="null" stroke-dasharray="null" stroke-width="null" fill="#7f7f7f"/>
  <path id="svg_54" stroke="#000000" transform="rotate(48.53171157836914 480.76733398437494,363.72900390625) " d="m487.37038,370.79846c0,0 -17.2488,-25.02988 -12.32057,-10.13114c4.92823,14.89873 12.32057,10.13114 12.32057,10.13114z" stroke-linecap="null" stroke-linejoin="null" stroke-dasharray="null" stroke-width="null" fill="#7f7f7f"/>
  <rect stroke="#000000" id="svg_56" height="26.92308" width="19.23076" y="306.15386" x="321.79483" stroke-linecap="null" stroke-linejoin="null" stroke-dasharray="null" stroke-width="null" fill="#000000"/>
  <rect id="svg_60" stroke="#000000" transform="rotate(-89.04518127441406 271.7948608398438,372.82049560546886) " height="15.45138" width="6.51726" y="365.09483" x="268.53623" stroke-linecap="null" stroke-linejoin="null" stroke-dasharray="null" stroke-width="null" fill="url(#svg_52)"/>
  <rect id="svg_61" stroke="#000000" transform="rotate(-89.04518127441406 271.7948608398437,388.2051086425781) " height="15.45138" width="6.51726" y="380.47943" x="268.53623" stroke-linecap="null" stroke-linejoin="null" stroke-dasharray="null" stroke-width="null" fill="url(#svg_52)"/>
  <path stroke="#000000" id="svg_62" d="m330.84871,317.21957c3.43579,-9.86261 16.89734,0 0,12.6805c-16.89734,-12.6805 -3.43579,-22.54311 0,-12.6805z" stroke-linecap="null" stroke-linejoin="null" stroke-dasharray="null" stroke-width="null" fill="url(#svg_64)"/>
  <ellipse id="svg_68" ry="5.12821" rx="3.84615" cy="285.64103" cx="257.69233" stroke-linecap="null" stroke-linejoin="null" stroke-dasharray="null" stroke-width="null" stroke="#000000" fill="#3f3f3f"/>
  <rect stroke="#000000" id="svg_70" height="11.53846" width="29.48718" y="316.41027" x="253.84613" opacity="0.5" stroke-linecap="null" stroke-linejoin="null" stroke-dasharray="null" stroke-width="null" fill="#ffffff"/>
  <text stroke="#000000" transform="matrix(0.27092512535027286,0,0,0.46400904655456543,198.06937590454402,176.31589910760522) " xml:space="preserve" text-anchor="middle" font-family="serif" font-size="24" id="svg_71" y="322.82053" x="260.25639" opacity="0.5" stroke-linecap="null" stroke-linejoin="null" stroke-dasharray="null" stroke-width="0" fill="#000000">1499a612</text>
  <ellipse id="svg_73" stroke="#000000" ry="5.12821" rx="3.84615" cy="286.09314" cx="347.34819" stroke-linecap="null" stroke-linejoin="null" stroke-dasharray="null" stroke-width="null" fill="#3f3f3f"/>
  <ellipse id="svg_74" opacity="0.5" stroke="url(#svg_72)" ry="3.20513" rx="1.92307" cy="314.93929" cx="402.51013" stroke-linecap="null" stroke-linejoin="null" stroke-dasharray="null" stroke-width="null" fill="#7f7f7f"/>
  <ellipse id="svg_75" opacity="0.5" stroke="url(#svg_72)" ry="3.20513" rx="1.92307" cy="318.98787" cx="202.61133" stroke-linecap="null" stroke-linejoin="null" stroke-dasharray="null" stroke-width="null" fill="#7f7f7f"/>
  <ellipse stroke="#000000" id="svg_77" ry="1.28205" rx="1.92308" cy="312.96375" cx="284.9467" stroke-linecap="null" stroke-linejoin="null" stroke-dasharray="null" stroke-width="null" fill="#bfbfbf"/>
  <ellipse stroke="#000000" ry="16.1744" rx="14.76793" id="svg_19" cy="427.59494" cx="233.15364" stroke-linecap="null" stroke-linejoin="null" stroke-dasharray="null" stroke-width="null" fill="#7f7f7f"/>
  <ellipse ry="14.0647" id="svg_20" cy="410.01407" cx="235.10547" opacity="0.75" stroke-linecap="null" stroke-linejoin="null" stroke-dasharray="null" stroke-width="null" stroke="#000000" fill="#3f3f3f"/>
  <rect id="svg_21" height="7.03235" width="40.78762" y="440.9564" x="195.72431" stroke-linecap="null" stroke-linejoin="null" stroke-dasharray="null" stroke-width="null" stroke="#000000" fill="#7f7f7f"/>
  <rect stroke="#000000" transform="rotate(-140.96287536621094 244.96710205078125,410.3006591796875) " id="svg_13" height="23.02754" width="41.52613" y="398.78686" x="224.20403" stroke-linecap="null" stroke-linejoin="null" stroke-dasharray="null" stroke-width="null" fill="#7f7f7f"/>
  <ellipse ry="12.65823" rx="12.65823" id="svg_32" cy="429.70464" cx="347.62305" stroke-linecap="null" stroke-linejoin="null" stroke-dasharray="null" stroke-width="null" stroke="#000000" fill="#7f7f7f"/>
  <polygon stroke="#000000" transform="rotate(85.36442565917969 349.26513671874994,451.5049133300781) " stroke-width="null" points="361.6588315963745,451.50494384765625 352.19087505340576,473.75115966796875 336.87141704559326,465.2538146972656 336.87141704559326,437.7559814453125 352.19087505340576,429.2586669921875 361.6588315963745,451.50494384765625 " fill="#7f7f7f" id="svg_44"/>
  <rect transform="rotate(26.56503677368164 337.777770996094,463.4599304199218) " id="svg_47" height="11.25176" width="25.31646" y="457.83404" x="325.11953" stroke-linecap="null" stroke-linejoin="null" stroke-dasharray="null" stroke-width="null" stroke="#000000" fill="#7f7f7f"/>
  <rect transform="rotate(-28.926406860351562 363.7974548339842,462.05349731445307) " id="svg_53" height="8.43882" width="23.90999" y="457.83404" x="351.84246" stroke-linecap="null" stroke-linejoin="null" stroke-dasharray="null" stroke-width="null" stroke="#000000" fill="#7f7f7f"/>
  <polygon fill="#bfbfbf" id="svg_57"/>
  <polygon fill="#bfbfbf" id="svg_58"/>
  <polygon fill="#bfbfbf" id="svg_59"/>
  <polygon fill="#bfbfbf" id="svg_63"/>
  <ellipse fill="#f77171" stroke-width="0" stroke-dasharray="null" stroke-linejoin="null" stroke-linecap="null" cx="175.27896" cy="156.58075" id="svg_7" rx="6" ry="15.64058" transform="rotate(20.674423217773438 175.27896118164065,156.58074951171875) " stroke="#000000"/>
  <ellipse fill="#ff0000" stroke="#000000" stroke-width="0" stroke-dasharray="null" stroke-linejoin="null" stroke-linecap="null" cx="182.8" cy="161.4" id="svg_55" rx="10" ry="17" transform="rotate(17.447187423706055 182.80000305175773,161.3999938964844) "/>
  <ellipse fill="#f99090" stroke-width="0" stroke-dasharray="null" stroke-linejoin="null" stroke-linecap="null" cx="406.12284" cy="162.64448" rx="6" ry="20.20385" transform="rotate(20.674423217773438 406.1228637695315,162.64448547363273) " id="svg_78" stroke="#000000"/>
  <ellipse fill="#ff0000" stroke-width="0" stroke-dasharray="null" stroke-linejoin="null" stroke-linecap="null" cx="411.47607" cy="168.61247" rx="10" ry="25.2316" transform="rotate(17.447187423706055 411.4760437011719,168.61248779296884) " id="svg_79" stroke="#000000"/>
  <polygon stroke="#000000" transform="rotate(168.23336791992188 206.4620666503906,455.5316467285157) " points="236.79272294291457,455.53168519462065 213.62212387806483,464.37274964774565 176.13139189275478,460.9957660051675 176.13139189275478,450.06757386649565 213.62212387806483,446.6905597063394 236.79272294291457,455.53168519462065 " fill="url(#svg_34)" id="svg_43"/>
  <line stroke="#000000" id="svg_80" y2="462.4" x2="207.6" y1="458.4" x1="183.6" stroke-linecap="null" stroke-linejoin="null" stroke-dasharray="null" fill="none"/>
  <line id="svg_82" y2="453.4" x2="236.6" y1="462.4" x1="193.6" stroke-linecap="null" stroke-linejoin="null" stroke-dasharray="null" stroke-width="null" stroke="#000000" fill="none"/>
  <ellipse stroke="url(#svg_72)" id="svg_85" opacity="0.5" ry="3.20513" rx="2.54736" cy="430.11239" cx="226.95884" stroke-linecap="null" stroke-linejoin="null" stroke-dasharray="null" stroke-width="null" fill="#7f7f7f"/>
  <ellipse id="svg_86" stroke="url(#svg_72)" opacity="0.5" ry="3.20513" rx="3.79595" cy="427.61521" cx="348.07208" stroke-linecap="null" stroke-linejoin="null" stroke-dasharray="null" stroke-width="null" fill="#7f7f7f"/>
 </g>
</svg>
