<svg width="1800.0000000000002" height="1800.0000000000002" xmlns="http://www.w3.org/2000/svg" xmlns:svg="http://www.w3.org/2000/svg" xmlns:xlink="http://www.w3.org/1999/xlink">
 <!-- Created with SVG-edit - http://svg-edit.googlecode.com/ -->
 <defs>
  <radialGradient id="svg_67" spreadMethod="pad" cx="0.5" cy="0.5" r="0.5">
   <stop stop-color="#ff7f00" offset="0.23405"/>
   <stop stop-color="#0080ff" offset="0.24967"/>
   <stop stop-color="#ff7f00" offset="0.82389"/>
   <stop stop-color="#ff7f00" offset="0.92546"/>
   <stop stop-color="#0080ff" offset="0.9528"/>
  </radialGradient>
 </defs>
 <g stroke="null">
  <title>Layer 1</title>
  <ellipse ry="409.76387" rx="300.07871" id="svg_65" cy="656.01287" cx="1641.61474" stroke-linecap="null" stroke-linejoin="null" stroke-dasharray="null" stroke-width="0" fill="#000000" stroke="#e5e58b"/>
  <ellipse id="svg_79" ry="64.29171" rx="60.95825" cy="884.48505" cx="1468.13077" stroke-linecap="null" stroke-linejoin="null" stroke-dasharray="null" stroke-width="0" fill="url(#svg_67)" stroke="#e5e58b" opacity="0.5"/>
  <rect fill="#ffffff" stroke-width="0" stroke-dasharray="null" stroke-linejoin="null" stroke-linecap="null" x="301.28531" y="642.66037" width="21.32405" height="16.3184" id="d_svg_84" stroke="#e5e58b"/>
  <ellipse id="d_svg_103" ry="5" rx="44.39906" cy="342.5627" cx="585.87886" opacity="0.95" stroke-linecap="null" stroke-linejoin="null" stroke-dasharray="null" stroke-width="0" fill="url(#svg_107)" fill-opacity="0.93" stroke="#e5e58b"/>
  <ellipse ry="16" rx="44" cy="375.73963" cx="585.71496" opacity="0.95" stroke-linecap="null" stroke-linejoin="null" stroke-dasharray="null" stroke-width="0" fill="url(#svg_110)" fill-opacity="0.93" id="d_svg_108" stroke="#e5e58b"/>
  <ellipse ry="5" rx="50.5" id="d_svg_77" cy="369.73963" cx="584.21497" opacity="0.95" stroke-linecap="null" stroke-linejoin="null" stroke-dasharray="null" stroke-width="0" fill="url(#svg_107)" fill-opacity="0.93" stroke="#e5e58b"/>
  <ellipse ry="211.83439" rx="191.41517" cy="891.42329" cx="571.28589" stroke-linecap="null" stroke-linejoin="null" stroke-dasharray="null" stroke-width="0" fill="#0000ff" id="d_svg_83" opacity="0.5" stroke="#e5e58b"/>
  <ellipse ry="47.0629" rx="62.15894" id="d_svg_46" cy="911.84679" cx="1002.63539" stroke-linecap="null" stroke-linejoin="null" stroke-dasharray="null" stroke-width="0" fill="#ff4fa4" opacity="0.8" stroke="#e5e58b"/>
  <rect fill="#ffffff" stroke-width="0" stroke-dasharray="null" stroke-linejoin="null" stroke-linecap="null" x="-338.14111" y="-255.85694" width="21.32405" height="16.3184" id="d_svg_86" stroke="#e5e58b"/>
  <ellipse opacity="0.5" id="svg_8" ry="24.10542" rx="24.93535" cy="932.52165" cx="626.53669" stroke-linecap="null" stroke-linejoin="null" stroke-dasharray="null" stroke-width="0" fill="#fc3f3f" stroke="#e5e58b"/>
  <rect id="svg_9" height="1011.35797" width="21.06997" y="742.48563" x="420.9566" opacity="0.5" stroke-linecap="null" stroke-linejoin="null" stroke-dasharray="null" stroke-width="0" fill="#007fff" stroke="#e5e58b"/>
  <rect id="svg_10" height="598.38681" width="12.64199" y="1142.81486" x="490.96598" opacity="0.5" stroke-linecap="null" stroke-linejoin="null" stroke-dasharray="null" stroke-width="0" fill="#007fff" stroke="#e5e58b"/>
  <ellipse ry="76.69254" rx="85.86265" cy="910.6616" cx="1002.63544" stroke-linecap="null" stroke-linejoin="null" stroke-dasharray="null" stroke-width="0" fill="#ff4fa4" id="svg_11" opacity="0.2" stroke="#e5e58b"/>
  <ellipse ry="96.84069" rx="109.56639" cy="916.58756" cx="997.8947" stroke-linecap="null" stroke-linejoin="null" stroke-dasharray="null" stroke-width="0" fill="#ff4fa4" opacity="0.2" id="svg_12" stroke="#e5e58b"/>
  <image transform="rotate(-1.0307034254074097 993.846496582037,810.2620849609343) " x="225.84562" y="-213.73816" width="1536" height="2048" id="svg_6" xlink:href="http://res.cloudinary.com/kboyle/image/upload/v1529113593/trippyself.png"/>
  <ellipse opacity="0.7" ry="29.44211" rx="31.65625" id="d_svg_52" cy="794.93209" cx="730.16752" stroke-linecap="null" stroke-linejoin="null" stroke-dasharray="null" stroke-width="0" fill="#ffaaaa" stroke="#e5e58b"/>
  <ellipse opacity="0.5" id="svg_3" ry="23.7468" rx="26.43555" cy="712.30248" cx="961.86565" stroke-linecap="null" stroke-linejoin="null" stroke-dasharray="null" stroke-width="0" fill="#7f00ff" stroke="#e5e58b"/>
  <ellipse id="svg_4" opacity="0.5" ry="22.56568" rx="17.29932" cy="913.1858" cx="783.8635" stroke-linecap="null" stroke-linejoin="null" stroke-dasharray="null" stroke-width="0" fill="#00ffff" stroke="#e5e58b"/>
  <ellipse ry="98.02761" rx="115.97294" cy="235.25815" cx="1225.50364" stroke-linecap="null" stroke-linejoin="null" stroke-dasharray="null" stroke-width="0" fill="#ffff00" opacity="0.5" id="svg_17" stroke="#e5e58b"/>
  <ellipse ry="92.15533" rx="124.01077" cy="1496.1172" cx="491.62283" stroke-linecap="null" stroke-linejoin="null" stroke-dasharray="null" stroke-width="0" fill="#ff007f" opacity="0.5" id="svg_16" stroke="#e5e58b"/>
  <ellipse ry="83.98097" rx="92.38636" cy="1525.20774" cx="1215.6126" stroke-linecap="null" stroke-linejoin="null" stroke-dasharray="null" stroke-width="0" fill="#00ff00" opacity="0.5" id="svg_18" stroke="#e5e58b"/>
  <rect id="svg_1" height="375.67352" width="5.83526" y="1372.42556" x="558.61852" opacity="0.5" stroke-linecap="null" stroke-linejoin="null" stroke-dasharray="null" stroke-width="0" fill="#007fff" stroke="#e5e58b"/>
  <rect id="svg_5" height="12.21662" width="346.1812" y="1656.87011" x="305.77884" opacity="0.5" stroke-linecap="null" stroke-linejoin="null" stroke-dasharray="null" stroke-width="0" fill="#007fff" stroke="#e5e58b"/>
  <rect id="svg_7" height="12.21662" width="270.32935" y="1599.98123" x="334.22328" opacity="0.5" stroke-linecap="null" stroke-linejoin="null" stroke-dasharray="null" stroke-width="0" fill="#007fff" stroke="#e5e58b"/>
  <rect id="svg_13" height="12.21662" width="270.32935" y="1543.09234" x="334.22328" opacity="0.5" stroke-linecap="null" stroke-linejoin="null" stroke-dasharray="null" stroke-width="0" fill="#007fff" stroke="#e5e58b"/>
  <rect id="svg_14" height="5.89566" width="169.19354" y="1416.67253" x="394.27266" opacity="0.5" stroke-linecap="null" stroke-linejoin="null" stroke-dasharray="null" stroke-width="0" fill="#007fff" stroke="#e5e58b"/>
  <rect id="svg_15" height="5.89566" width="169.19354" y="1484.22809" x="410.27266" opacity="0.5" stroke-linecap="null" stroke-linejoin="null" stroke-dasharray="null" stroke-width="0" fill="#007fff" stroke="#e5e58b"/>
  <rect id="svg_19" height="5.89566" width="146.08243" y="1311.78364" x="399.606" opacity="0.5" stroke-linecap="null" stroke-linejoin="null" stroke-dasharray="null" stroke-width="0" fill="#007fff" stroke="#e5e58b"/>
  <rect id="svg_20" height="5.89566" width="146.08243" y="1372.22809" x="415.606" opacity="0.5" stroke-linecap="null" stroke-linejoin="null" stroke-dasharray="null" stroke-width="0" fill="#007fff" stroke="#e5e58b"/>
  <ellipse id="svg_21" ry="23.53651" rx="26.60857" cy="1701.20772" cx="534.72368" stroke-linecap="null" stroke-linejoin="null" stroke-dasharray="null" stroke-width="0" fill="#00ff00" opacity="0.5" stroke="#e5e58b"/>
  <ellipse id="svg_22" ry="23.53651" rx="26.60857" cy="1283.42994" cx="387.16812" stroke-linecap="null" stroke-linejoin="null" stroke-dasharray="null" stroke-width="0" fill="#00ff00" opacity="0.5" stroke="#e5e58b"/>
  <rect id="svg_23" height="1011.35797" width="21.06997" y="805.69551" x="484.16648" opacity="0.5" stroke-linecap="null" stroke-linejoin="null" stroke-dasharray="null" stroke-width="0" fill="#007fff" stroke="#e5e58b"/>
  <rect id="svg_24" height="598.38681" width="12.64199" y="1206.02474" x="554.17586" opacity="0.5" stroke-linecap="null" stroke-linejoin="null" stroke-dasharray="null" stroke-width="0" fill="#007fff" stroke="#e5e58b"/>
  <rect id="svg_25" height="375.67352" width="5.83526" y="1435.63544" x="621.8284" opacity="0.5" stroke-linecap="null" stroke-linejoin="null" stroke-dasharray="null" stroke-width="0" fill="#007fff" stroke="#e5e58b"/>
  <rect id="svg_26" height="12.21662" width="346.1812" y="1720.07999" x="368.98872" opacity="0.5" stroke-linecap="null" stroke-linejoin="null" stroke-dasharray="null" stroke-width="0" fill="#007fff" stroke="#e5e58b"/>
  <rect id="svg_27" height="12.21662" width="270.32935" y="1663.19111" x="397.43316" opacity="0.5" stroke-linecap="null" stroke-linejoin="null" stroke-dasharray="null" stroke-width="0" fill="#007fff" stroke="#e5e58b"/>
  <rect id="svg_28" height="12.21662" width="270.32935" y="1606.30222" x="397.43316" opacity="0.5" stroke-linecap="null" stroke-linejoin="null" stroke-dasharray="null" stroke-width="0" fill="#007fff" stroke="#e5e58b"/>
  <rect id="svg_29" height="5.89566" width="169.19354" y="1547.43797" x="473.48254" opacity="0.5" stroke-linecap="null" stroke-linejoin="null" stroke-dasharray="null" stroke-width="0" fill="#007fff" stroke="#e5e58b"/>
  <rect id="svg_30" height="5.89566" width="146.08243" y="1374.99352" x="462.81588" opacity="0.5" stroke-linecap="null" stroke-linejoin="null" stroke-dasharray="null" stroke-width="0" fill="#007fff" stroke="#e5e58b"/>
  <rect id="svg_31" height="5.89566" width="146.08243" y="1435.43797" x="478.81588" opacity="0.5" stroke-linecap="null" stroke-linejoin="null" stroke-dasharray="null" stroke-width="0" fill="#007fff" stroke="#e5e58b"/>
  <ellipse fill="#ff007f" stroke-width="0" stroke-dasharray="null" stroke-linejoin="null" stroke-linecap="null" opacity="0.5" cx="802.72467" cy="650.38092" id="svg_2" rx="104.34375" ry="84.375" stroke="#e5e58b"/>
  <ellipse opacity="0.5" ry="10.8093" rx="12.09182" cy="527.23997" cx="977.89692" stroke-linecap="null" stroke-linejoin="null" stroke-dasharray="null" stroke-width="0" fill="#aaffaa" id="svg_32" stroke="#e5e58b"/>
  <polygon id="svg_35" fill="#aaffaa" points="1132.0185546875,892.8245849609375 977.9300537109375,1025.9775390625 728.6089477539062,975.1176147460938 728.6089477539062,810.5315551757812 977.9300537109375,759.671630859375 1132.0185546875,892.8245849609375 " stroke-width="0" transform="rotate(-91.76566314697266 930.3137207031249,892.8245849609374) " stroke="#e5e58b"/>
  <polygon id="svg_37" fill="#aaffaa" stroke="null"/>
  <polygon fill="#aaffaa" points="1376.0501708984375,872.677734375 1279.4263916015625,974.8931884765625 1123.0853271484375,935.850341796875 1123.0853271484375,809.505126953125 1279.4263916015625,770.4622802734375 1376.0501708984375,872.677734375 " stroke-width="0" id="svg_40" transform="rotate(-29.923580169677734 1249.5677490234375,872.6777343749997) " stroke="#e5e58b"/>
  <path fill="#ff0000" stroke-width="0" stroke-dasharray="null" stroke-linejoin="null" stroke-linecap="null" opacity="0.1" d="m1185.0438,856.24479l11.13189,-100.95174l11.13189,100.95174l-22.26378,0z" transform="rotate(41.03022766113281 1196.17578125,805.7689208984375) " id="svg_50" stroke="#e5e58b"/>
  <polygon fill="#aaffaa" points="1191.2269287109375,864.1370849609375 1120.2874755859375,966.3525390625 1005.5047607421875,927.3096923828125 1005.5047607421875,800.9644775390625 1120.2874755859375,761.921630859375 1191.2269287109375,864.1370849609375 " stroke-width="0" id="svg_39" stroke="#e5e58b"/>
  <polygon fill="#aaffaa" points="929.7845458984375,859.455078125 831.8626708984375,961.6705322265625 673.4212646484375,922.627685546875 673.4212646484375,796.282470703125 831.8626708984375,757.2396240234375 929.7845458984375,859.455078125 " stroke-width="0" transform="rotate(-29.923580169677734 801.6029052734373,859.4550781249999) " id="svg_41" stroke="#e5e58b"/>
  <polygon fill="#aaffaa" points="870.7220458984375,966.330078125 772.8001708984375,1068.5455322265625 614.3587646484375,1029.502685546875 614.3587646484375,903.157470703125 772.8001708984375,864.1146240234375 870.7220458984375,966.330078125 " stroke-width="0" transform="rotate(-29.923580169677734 742.5404052734377,966.330078125) " id="svg_43" stroke="#e5e58b"/>
  <ellipse opacity="0.5" ry="11.09055" rx="11.24805" cy="696.83372" cx="1357.86562" stroke-linecap="null" stroke-linejoin="null" stroke-dasharray="null" stroke-width="0" fill="#ff7f00" id="svg_44" stroke="#e5e58b"/>
  <ellipse fill="#00ff00" stroke-width="0" stroke-dasharray="null" stroke-linejoin="null" stroke-linecap="null" cx="1224.69338" cy="631.44343" id="svg_45" rx="27.5625" ry="29.25" opacity="0.2" stroke="#e5e58b"/>
  <ellipse fill="#007fff" stroke-width="0" stroke-dasharray="null" stroke-linejoin="null" stroke-linecap="null" cx="1223.84965" cy="630.88093" rx="22.21875" ry="23.0625" opacity="0.2" id="svg_46" stroke="#e5e58b"/>
  <path fill="#ff0000" stroke-width="0" stroke-dasharray="null" stroke-linejoin="null" stroke-linecap="null" opacity="0.18" d="m870.33408,794.07001l35.45406,-104.45178l35.45406,104.45178l-70.90812,0z" id="svg_47" transform="rotate(19.338035583496094 905.7881469726561,741.8441162109375) " stroke="#e5e58b"/>
  <path fill="#ff0000" stroke-width="0" stroke-dasharray="null" stroke-linejoin="null" stroke-linecap="null" opacity="0.2" d="m715.92904,857.32314l35.45406,-109.58691l35.45406,109.58691l-70.90812,0z" transform="rotate(28.489543914794922 751.3830566406242,802.5296630859376) " id="svg_48" stroke="#e5e58b"/>
  <path fill="#ff0000" stroke-width="0" stroke-dasharray="null" stroke-linejoin="null" stroke-linecap="null" opacity="0.14" d="m1063.77067,835.03591l7.04728,-104.23065l7.04728,104.23065l-14.09456,0z" transform="rotate(66.70663452148438 1070.81787109375,782.9205322265625) " id="svg_49" stroke="#e5e58b"/>
  <path fill="#ff7f00" stroke-width="0" stroke-dasharray="null" stroke-linejoin="null" stroke-linecap="null" opacity="0.1" d="m752.51091,892.28009l102.75544,-104.45178l102.75544,104.45178l-205.51088,0z" transform="rotate(-159.6562042236328 855.266357421875,840.05419921875) " id="svg_51" stroke="#e5e58b"/>
  <path fill="#ff7f00" stroke-width="0" stroke-dasharray="null" stroke-linejoin="null" stroke-linecap="null" opacity="0.15" d="m1012.37348,910.9812l-13.13617,-243.7637l-13.13617,243.7637l26.27233,0l0.00001,0z" transform="rotate(-38.27446746826172 999.2373046875,789.0993652343751) " id="svg_52" stroke="#e5e58b"/>
  <path fill="#ff7f00" stroke-width="0" stroke-dasharray="null" stroke-linejoin="null" stroke-linecap="null" opacity="0.2" d="m1153.71311,876.97519l-6.15263,-133.58243l-6.15263,133.58243l12.30526,0z" transform="rotate(-33.752037048339844 1147.5605468750007,810.1840209960936) " id="svg_53" stroke="#e5e58b"/>
  <rect fill="#7f00ff" stroke-width="0" stroke-dasharray="null" stroke-linejoin="null" stroke-linecap="null" opacity="0.2" x="990.30716" y="669.1469" width="1.57815" height="196.41648" id="svg_56" transform="rotate(-42.17154312133789 991.0962524414061,767.3552246093749) " stroke="#e5e58b"/>
  <rect fill="#7f00ff" stroke-width="0" stroke-dasharray="null" stroke-linejoin="null" stroke-linecap="null" opacity="0.2" x="865.48043" y="692.76739" width="3.00621" height="187.37366" transform="rotate(-71.2131576538086 866.9835205078125,786.4542236328125) " id="svg_57" stroke="#e5e58b"/>
  <rect fill="#7f00ff" stroke-width="0" stroke-dasharray="null" stroke-linejoin="null" stroke-linecap="null" opacity="0.2" x="1145.10688" y="752.73467" width="0.51236" height="92.3807" transform="rotate(-35.534217834472656 1145.362915039063,798.9249877929689) " id="svg_58" stroke="#e5e58b"/>
  <rect id="svg_33" height="3.35724" width="270.32935" y="749.26947" x="1221.5809" opacity="0.5" stroke-linecap="null" stroke-linejoin="null" stroke-dasharray="null" stroke-width="0" fill="#ff007f" stroke="#e5e58b"/>
  <rect id="svg_38" height="5.89566" width="146.08243" y="460.22811" x="1208.49487" opacity="0.5" stroke-linecap="null" stroke-linejoin="null" stroke-dasharray="null" stroke-width="0" fill="#007fff" stroke="#e5e58b"/>
  <rect id="svg_55" height="598.38681" width="4.20447" y="354.46921" x="1371.50221" opacity="0.5" stroke-linecap="null" stroke-linejoin="null" stroke-dasharray="null" stroke-width="0" fill="#ff007f" stroke="#e5e58b"/>
  <rect id="svg_59" height="375.67352" width="5.83526" y="584.07991" x="1430.71727" opacity="0.5" stroke-linecap="null" stroke-linejoin="null" stroke-dasharray="null" stroke-width="0" fill="#007fff" stroke="#e5e58b"/>
  <rect id="svg_60" height="2.52064" width="169.19354" y="708.25745" x="1282.93391" opacity="0.5" stroke-linecap="null" stroke-linejoin="null" stroke-dasharray="null" stroke-width="0" fill="#007fff" stroke="#e5e58b"/>
  <rect id="svg_61" height="2.52064" width="146.08243" y="671.93799" x="1324.01725" opacity="0.5" stroke-linecap="null" stroke-linejoin="null" stroke-dasharray="null" stroke-width="0" fill="#ffff00" stroke="#e5e58b"/>
  <polygon fill="#aaffaa" points="1473.1595458984375,928.080078125 1375.2376708984375,1030.2955322265625 1216.7962646484375,991.252685546875 1216.7962646484375,864.907470703125 1375.2376708984375,825.8646240234375 1473.1595458984375,928.080078125 " stroke-width="0" transform="rotate(-29.923580169677734 1344.977905273437,928.0800781250002) " id="svg_42" stroke="#e5e58b"/>
  <polygon id="svg_63" fill="#aaffaa" points="1371.2552664395348,974.0035695911598 1216.7835867520348,1093.8662410389902 966.8424856778162,1048.082798372207 966.8424856778162,899.9243408101125 1216.7835867520348,854.1408265705783 1371.2552664395348,974.0035695911598 " stroke-width="0" transform="rotate(-29.923580169677734 1169.0488281249995,974.0035400390624) " stroke="#e5e58b"/>
  <ellipse id="svg_73" ry="10.29167" rx="8.29167" cy="752.38093" cx="1602.4643" stroke-linecap="null" stroke-linejoin="null" stroke-dasharray="null" stroke-width="0" fill="#ffffff" stroke="#e5e58b"/>
  <rect fill="#aaffaa" stroke-width="0" stroke-dasharray="null" stroke-linejoin="null" stroke-linecap="null" x="691.71766" y="926.53247" width="1110.66671" height="253.33332" id="svg_64" stroke="#e5e58b"/>
  <ellipse fill="#7f0000" stroke-width="0" stroke-dasharray="null" stroke-linejoin="null" stroke-linecap="null" cx="1130.60653" cy="733.56947" id="svg_76" rx="151.33333" ry="191.33332" stroke="#e5e58b"/>
  <ellipse fill="#ffaaaa" stroke="#e5e58b" stroke-width="0" stroke-dasharray="null" stroke-linejoin="null" stroke-linecap="null" cx="1129.93988" cy="690.23617" id="svg_68" rx="121.33333" ry="138.66667"/>
  <rect fill="#ffaaaa" stroke="#e5e58b" stroke-width="0" stroke-dasharray="null" stroke-linejoin="null" stroke-linecap="null" x="1100.60654" y="806.23617" width="38.66667" height="57.33333" id="svg_69"/>
  <path fill="#007f00" stroke-width="0" stroke-dasharray="null" stroke-linejoin="null" stroke-linecap="null" d="m1203.86215,896.28068c0,20.37317 -36.26495,36.88889 -81.00003,36.88889m81.00003,-36.88889l0,0c0,20.37317 -36.26495,36.88889 -81.00003,36.88889c-44.73506,0 -81,-16.51569 -81,-36.88889m0,0l0,0c0,-20.37315 36.26494,-36.88888 81,-36.88888c44.73508,0 81.00003,16.51573 81.00003,36.88888l0,147.55563c0,20.37315 -36.26495,36.88883 -81.00003,36.88883c-44.73506,0 -81,-16.51568 -81,-36.88883l0,-147.55563z" id="svg_70" stroke="#e5e58b"/>
  <path fill="#7f0000" stroke-width="0" stroke-dasharray="null" stroke-linejoin="null" stroke-linecap="null" d="m1117.97125,554.44593c0,0 -6.05936,61.64804 9.69498,35.61887c15.75435,-26.02918 16.56226,-42.46866 16.3785,-43.39629c-0.18377,-0.92763 -26.07348,7.77741 -26.07348,7.77741l0,0.00001z" id="svg_77" stroke="#e5e58b"/>
  <path fill="#7f0000" stroke-width="0" stroke-dasharray="null" stroke-linejoin="null" stroke-linecap="null" d="m1111.4156,768.85237c0,0 -4.06253,84.21978 6.50004,48.66032c10.56257,-35.55947 11.10424,-58.01808 10.98104,-59.28535c-0.12321,-1.26727 -17.48109,10.62503 -17.48109,10.62503l0.00001,0z" id="svg_78" transform="rotate(-94.00365447998047 1119.77880859375,792.2014770507812) " stroke="#e5e58b" opacity="0.5"/>
  <path fill="#7f0000" stroke-width="0" stroke-dasharray="null" stroke-linejoin="null" stroke-linecap="null" d="m1103.30458,551.07522c0,0 -6.05937,66.59216 9.69498,38.47547c15.75434,-28.1167 16.56226,-45.87461 16.3785,-46.87663c-0.18377,-1.00202 -26.07348,8.40116 -26.07348,8.40116z" id="svg_80" stroke="#e5e58b"/>
  <path fill="#7f0000" stroke-width="0" stroke-dasharray="null" stroke-linejoin="null" stroke-linecap="null" d="m1020.60654,620.95622c0,0 44,6.30581 61.33333,-13.87277c17.33333,-20.17858 21.33333,-36.57367 20.72679,-37.42763c-0.60654,-0.85396 0.60654,-16.80229 0,-17.65626c-0.60654,-0.85396 -82.06012,68.95666 -82.06012,68.95666z" id="svg_81" stroke="#e5e58b"/>
  <ellipse fill="#7f0000" stroke-width="0" stroke-dasharray="null" stroke-linejoin="null" stroke-linecap="null" cx="1059.66069" cy="596.68179" id="svg_82" rx="67.85496" ry="22.66667" transform="rotate(-41.00911331176758 1059.6607666015625,596.6817626953125) " stroke="#e5e58b"/>
  <ellipse fill="#7f0000" stroke-width="0" stroke-dasharray="null" stroke-linejoin="null" stroke-linecap="null" cx="1184.99403" cy="591.34845" rx="67.85496" ry="22.66667" transform="rotate(32.78897476196289 1184.9940185546875,591.3483886718748) " stroke="#e5e58b" id="svg_83"/>
  <ellipse fill="#ffffff" stroke="#e5e58b" stroke-width="0" stroke-dasharray="null" stroke-linejoin="null" stroke-linecap="null" opacity="0.5" cx="1051.27321" cy="715.5695" id="svg_84" rx="22.66667" ry="33.33333"/>
  <ellipse fill="#ffffff" stroke="#e5e58b" stroke-width="0" stroke-dasharray="null" stroke-linejoin="null" stroke-linecap="null" opacity="0.5" cx="1152.60654" cy="715.5695" rx="22.66667" ry="33.33333" id="svg_85"/>
  <ellipse stroke="#e5e58b" id="svg_34" fill="#ffaaaa" stroke-width="0" stroke-dasharray="null" stroke-linejoin="null" stroke-linecap="null" cx="1119.35652" cy="865.86119" rx="24.33332" ry="11.875"/>
  <path stroke="#e5e58b" id="svg_36" d="m1121.61719,685.25787l1.88281,59.49213c0,0 -2.2671,7.25787 -6.87864,7.25787c-4.61153,0 4.99583,-66.75 4.99583,-66.75z" stroke-linecap="null" stroke-linejoin="null" stroke-dasharray="null" stroke-width="0" fill="#f79494"/>
  <path stroke="#e5e58b" transform="rotate(71.32505798339844 1120.1966552734375,762.8078002929689) " id="svg_54" d="m1121.24562,755.7145l0.90485,12.64406c0,0 -1.08953,1.54254 -3.30576,1.54254c-2.21622,0 2.40091,-14.1866 2.40091,-14.1866z" stroke-linecap="null" stroke-linejoin="null" stroke-dasharray="null" stroke-width="0" fill="#f79494"/>
  <ellipse ry="7.5" rx="5.25" id="svg_62" cy="732.92454" cx="1042.92454" stroke-linecap="null" stroke-linejoin="null" stroke-dasharray="null" stroke-width="0" stroke="#e5e58b" fill="#007fff"/>
  <ellipse id="svg_66" ry="7.5" rx="5.25" cy="731.42454" cx="1142.67454" stroke-linecap="null" stroke-linejoin="null" stroke-dasharray="null" stroke-width="0" stroke="#e5e58b" fill="#007fff"/>
  <ellipse stroke="#111108" opacity="0.05" fill="none" stroke-width="6" stroke-dasharray="null" stroke-linejoin="null" stroke-linecap="null" cx="1133.31485" cy="952.8195" id="svg_71" rx="32.95833" ry="31.75"/>
  <ellipse stroke="#e5e58b" id="svg_74" fill="#007f00" stroke-width="0" stroke-dasharray="null" stroke-linejoin="null" stroke-linecap="null" cx="1145.23155" cy="944.23616" rx="44.95833" ry="43"/>
  <ellipse id="svg_75" stroke="#111108" opacity="0.01" fill="none" stroke-width="6" stroke-dasharray="null" stroke-linejoin="null" stroke-linecap="null" cx="1065.81485" cy="952.0695" rx="32.95833" ry="31.75"/>
  <ellipse stroke="#e5e58b" fill="#007f00" stroke-width="0" stroke-dasharray="null" stroke-linejoin="null" stroke-linecap="null" cx="1068.35653" cy="950.61117" rx="33.33332" ry="33.625" id="svg_72"/>
 </g>
</svg>
