<svg width="640" height="480.00000000000017" xmlns="http://www.w3.org/2000/svg" xmlns:svg="http://www.w3.org/2000/svg">
 <!-- Created with SVG-edit - http://svg-edit.googlecode.com/ -->
 <g stroke="null">
  <title>Layer 1</title>
  <polygon transform="rotate(21.28138542175293 384.3526000976561,257.47186279296886) " stroke-width="0" points="384.3526077270508,246.885498046875 385.88895416259766,254.802001953125 390.5672378540039,254.97274780273438 386.8384475708008,260.0361785888672 388.1934585571289,268.0582580566406 384.3526077270508,263.2711181640625 380.51175689697266,268.0582580566406 381.8667678833008,260.0361785888672 378.13797760009766,254.97274780273438 382.8162612915039,254.802001953125 384.3526077270508,246.885498046875 385.88895416259766,254.802001953125 " fill="#bfbfbf" id="svg_14" stroke="#a07272"/>
  <polygon id="svg_40" fill="#470000" points="362.0827407836914,273.3708801269531 374.4625930786133,278.6427001953125 394.4936294555664,276.62904357910156 394.4936294555664,270.11277770996094 374.4625930786133,268.0990905761719 362.0827407836914,273.3708801269531 " stroke-width="0" transform="rotate(-83.04230499267578 378.2881774902344,273.37091064453125) " stroke="#000000"/>
  <polygon fill="#470000" points="348.6441116333008,228.92184448242188 365.5080032348633,240.39234924316406 392.7942581176758,236.010986328125 392.7942581176758,221.83261108398438 365.5080032348633,217.45127868652344 348.6441116333008,228.92184448242188 " stroke-width="0" transform="rotate(-177.0822296142578 370.7191772460938,228.92181396484378) " id="svg_31" stroke="#000000"/>
  <path stroke-width="0.1" transform="rotate(0.8789452314376831 289.09826660156045,249.3836517334002) " id="svg_7" d="m287.86517,233.96812l2.46619,-15.41554l0,46.24661l-2.46619,15.41553l0,-46.2466z" stroke-linecap="null" stroke-linejoin="null" stroke-dasharray="null" fill="#470000" stroke="#000000"/>
  <path id="svg_8" d="m358.94986,249.69409l9.98563,-15.49832l0,46.49496l-9.98563,15.49831l0,-46.49494l0,-0.00001z" stroke-linecap="null" stroke-linejoin="null" stroke-dasharray="null" stroke-width="0" fill="#470000" transform="rotate(3.8383307456970215 363.9426574707028,265.1924133300783) " stroke="#000000"/>
  <polygon fill="#470000" points="357.1392288208008,237.06275939941406 371.48294830322266,252.41464233398438 394.69153594970703,246.55075073242188 394.69153594970703,227.57476806640625 371.48294830322266,221.7108612060547 357.1392288208008,237.06275939941406 " stroke-width="0" transform="rotate(-117.50167846679688 375.9153747558594,237.06274414062503) " id="svg_5" stroke="#000000"/>
  <polygon fill="#470000" points="350.35562896728516,245.417724609375 365.4616470336914,257.6813659667969 389.9036636352539,252.9970703125 389.9036636352539,237.83837890625 365.4616470336914,233.15408325195312 350.35562896728516,245.417724609375 " stroke-width="0" transform="rotate(-97.08348846435547 370.129638671875,245.417724609375) " id="svg_10" stroke="#000000"/>
  <line fill="none" stroke-width="2" stroke-dasharray="null" stroke-linejoin="null" stroke-linecap="null" x1="309.66666" y1="250.6" x2="298.66666" y2="283.6" id="svg_17" stroke="#844343"/>
  <line fill="none" stroke-width="2" stroke-dasharray="null" stroke-linejoin="null" stroke-linecap="null" x1="310.62878" y1="281.29199" x2="300.64154" y2="288.64457" id="svg_18" transform="rotate(37.46174240112305 305.6351623535156,284.9682922363281) " stroke="#6d3939"/>
  <path transform="rotate(-0.34185606241226196 328.4752502441311,242.94252014160918) " fill="#470000" stroke-width="0" stroke-dasharray="null" stroke-linejoin="null" stroke-linecap="null" d="m314.66275,238.83624c12.05208,0.74705 24.10416,-0.89646 26.27084,5.97642c2.16667,6.87288 1.08334,1.64352 1.08334,1.55387c0,-0.08965 -1.89583,-7.38087 -1.89583,-7.47052c0,-0.08965 -0.8125,0.38847 -4.19792,-0.6574c-3.38542,-1.04587 -8.125,-0.59764 -8.125,-0.68729c0,-0.08965 -8.26042,0.68729 -8.26042,0.59764c0,-0.08965 -4.875,0.68729 -4.875,0.68729l0,-0.00001l-0.00001,0z" id="svg_20" stroke="#000000"/>
  <ellipse fill="#b2b267" stroke-width="2" stroke-dasharray="null" stroke-linejoin="null" stroke-linecap="null" cx="294.66666" cy="253.6" id="svg_22" rx="2" ry="5" stroke="#000000"/>
  <ellipse fill="#b2b267" stroke-width="2" stroke-dasharray="null" stroke-linejoin="null" stroke-linecap="null" cx="328.3046" cy="253.77798" rx="2" ry="5" id="svg_24" stroke="#000000"/>
  <ellipse fill="#ff7f00" stroke-width="0" stroke-dasharray="null" stroke-linejoin="null" stroke-linecap="null" cx="293.92913" cy="253.78174" id="svg_25" rx="0.97888" ry="3.2926" opacity="0.5" stroke="#000000"/>
  <ellipse fill="#ff7f00" stroke-width="0" stroke-dasharray="null" stroke-linejoin="null" stroke-linecap="null" cx="327.21112" cy="254.31567" rx="0.97888" ry="3.2926" opacity="0.5" id="svg_26" stroke="#000000"/>
  <ellipse fill="#00ffff" stroke-width="0" stroke-dasharray="null" stroke-linejoin="null" stroke-linecap="null" cx="326.89325" cy="252.06567" rx="0.97888" ry="3.2926" opacity="0.5" id="svg_27" stroke="#000000"/>
  <ellipse fill="#00ffff" stroke-width="0" stroke-dasharray="null" stroke-linejoin="null" stroke-linecap="null" cx="293.61126" cy="252.45972" rx="0.97888" ry="3.2926" opacity="0.5" id="svg_28" stroke="#000000"/>
  <path id="svg_1" d="m301.08999,296.71499c0,0 2.18065,2.69299 6.29966,1.6158c4.11901,-1.0772 4.3613,-0.96948 4.3613,-1.03411c0,-0.06463 12.59931,3.08078 12.59931,3.01615c0,-0.06463 -24.71403,-1.44344 -24.71403,-1.50808c0,-0.06463 -3.87671,-1.7666 -1.21147,-2.08976c2.66524,-0.32316 2.66524,0 2.66524,0l-0.00001,0z" stroke-width="0" fill="#7f0000" stroke="#000000"/>
  <ellipse ry="0.63281" rx="6.43074" id="svg_11" cy="286.46766" cx="305.45648" opacity="0.5" stroke-linecap="null" stroke-linejoin="null" stroke-dasharray="null" stroke-width="2" fill="none" stroke="#6d3939"/>
  <path id="svg_13" d="m298.40756,301.54924c0,0 1.96207,3.31409 10.65123,1.87318c8.68916,-1.44091 8.68916,-1.44091 8.60958,-1.52204c-0.07958,-0.08113 -3.56426,2.96294 -9.73076,2.81885c-6.1665,-0.14409 -8.68916,-1.00864 -9.53005,-1.585c-0.84089,-0.57636 0,-1.585 0,-1.585l0,0.00001z" stroke-linecap="null" stroke-linejoin="null" stroke-dasharray="null" stroke-width="0" fill="#7f0000" stroke="#7f0000"/>
  <path transform="rotate(-89.88261413574219 311.24786376953125,323.45782470703125) " id="svg_15" d="m311.88696,311.40809c0,0 -4.41165,9.55463 -1.17644,17.06183c3.23521,7.50721 3.52932,2.72989 3.49665,2.68437c-0.03267,-0.04552 -2.32021,7.55273 -3.79076,2.77541c-1.47055,-4.77731 -2.79404,-14.33194 -1.76466,-17.74431c1.02938,-3.41237 3.23521,-4.77731 3.23521,-4.77731l0,0.00001z" stroke-linecap="null" stroke-linejoin="null" stroke-dasharray="null" fill="#7f0000" stroke="#965858"/>
  <path transform="rotate(-29.315793991088867 324.05596923828136,299.4042663574219) " id="svg_19" d="m324.57024,291.43326c0,0 -1.9203,4.69247 -0.79461,9.94804c1.1257,5.25557 1.32435,6.00636 1.30964,5.99384c-0.01471,-0.01252 -2.3029,-5.43075 -2.03803,-8.62163c0.26487,-3.19088 1.523,-7.32026 1.523,-7.32026l0,0.00001z" stroke-linecap="null" stroke-linejoin="null" stroke-dasharray="null" stroke-width="0.3" fill="#7f0000" stroke="#7f2323"/>
  <polygon id="svg_29" fill="#470000" points="360.66129302978516,262.06581115722656 374.9756851196289,267.9706573486328 398.13684844970703,265.71519470214844 398.13684844970703,258.4164581298828 374.9756851196289,256.1609649658203 360.66129302978516,262.06581115722656 " stroke-width="0" transform="rotate(-89.2098159790039 379.3990783691408,262.0657958984376) " stroke="#000000"/>
  <polygon stroke="#000000" id="svg_34" fill="#bfbfbf" points="358.90207865014213,246.85405277864527 375.3675357241625,252.00303959505152 402.0092393248085,250.0362884964187 402.0092393248085,243.67180180208277 375.3675357241625,241.70505070344996 358.90207865014213,246.85405277864527 " stroke-width="0" transform="rotate(-174.4308319091797 380.4556579589844,246.8540496826172) "/>
  <path stroke="#000000" id="svg_12" transform="rotate(104.53217315673828 288.3803100585937,237.11419677734378) " d="m281.56658,237.11419l6.81373,-1.30105l6.81373,1.30105l-6.81373,1.30105l-6.81373,-1.30105z" stroke-linecap="null" stroke-linejoin="null" stroke-dasharray="null" stroke-width="0" fill="#bfbfbf"/>
  <path stroke="#000000" transform="rotate(5.983978271484375 289.164764404297,242.28703308105455) " id="svg_38" d="m287.75713,242.28703l1.40763,-11.61348l1.40763,11.61348l-1.40763,11.61348l-1.40763,-11.61348z" stroke-linecap="null" stroke-linejoin="null" stroke-dasharray="null" stroke-width="0" fill="#bfbfbf"/>
  <path transform="rotate(76.5416259765625 310.355224609375,202.99603271484378) " id="svg_2" d="m308.44178,206.04984l1.91346,-6.1076l1.91346,6.1076l-3.82692,0z" stroke-linecap="null" stroke-linejoin="null" stroke-dasharray="null" stroke-width="0" fill="#470000" stroke="#000000"/>
  <rect fill="#b0b0f4" stroke-width="0" stroke-dasharray="null" stroke-linejoin="null" stroke-linecap="null" opacity="0.5" x="259.14746" y="110.97761" width="1.29034" height="0.71191" id="svg_75" stroke="#e5e58b"/>
  <ellipse id="svg_100" ry="1.875" rx="7.875" cy="299.92498" cx="307.44169" opacity="0.1" stroke-linecap="null" stroke-linejoin="null" stroke-dasharray="null" stroke-width="5" fill="#ffffff" stroke="#fcfced"/>
  <path stroke="#000000" fill="#470000" stroke-width="0" stroke-dasharray="null" stroke-linejoin="null" stroke-linecap="null" d="m304.30261,238.91563c-9.17298,0.68139 -18.34596,-0.81767 -19.99504,5.4511c-1.64907,6.26877 -0.82454,1.49905 -0.82454,1.41728c0,-0.08177 1.44294,-6.73212 1.44294,-6.81388c0,-0.08177 0.6184,0.35432 3.19508,-0.59962c2.57668,-0.95395 6.18403,-0.54512 6.18403,-0.62688c0,-0.08177 6.2871,0.62688 6.2871,0.54512c0,-0.08177 3.71042,0.62688 3.71042,0.62688l0.00001,0l0,-0.00001l0,0.00001z" id="svg_21" transform="rotate(4.2650065422058105 293.789764404297,242.66094970703165) "/>
  <path id="svg_104" transform="rotate(-134.8605499267578 284.73089599609375,226.91673278808597) " d="m284.08335,224.39407c0,0 2.41787,1.48507 1.00049,3.14836c-1.41736,1.66329 -1.66749,1.9009 -1.64897,1.89693c0.01852,-0.00396 2.89958,-1.71873 2.56609,-2.72858c-0.3335,-1.00985 -1.91761,-2.31672 -1.91761,-2.31672l0,0.00001z" stroke-linecap="null" stroke-linejoin="null" stroke-dasharray="null" stroke-width="0" fill="#470000" stroke="#7f2323"/>
  <path fill="#470000" stroke-width="0" stroke-dasharray="null" stroke-linejoin="null" stroke-linecap="null" d="m318.19572,234.99145c-8.10242,0 -31.59945,5.44674 -29.97897,-13.61685c1.62048,-19.06359 8.10242,-24.51033 17.01509,-19.06359c8.91267,5.44674 4.05121,9.53179 0,17.7019c-4.05121,8.17011 12.96388,14.97853 12.96388,14.97853l0,0.00001z" id="svg_16" transform="rotate(49.919246673583984 303.16635131835926,218.01042175292972) " stroke="#a07272"/>
  <path fill="#470000" stroke-width="0" stroke-dasharray="null" stroke-linejoin="null" stroke-linecap="null" d="m296.6816,206.43727l-5.75445,13.36139c0,0 9.65716,-9.82491 32.39635,0.37075c22.73919,10.19566 14.31727,25.0257 35.37208,11.12253c21.05481,-13.90317 34.52988,-2.78063 34.13684,-3.15138c-0.39305,-0.37075 -28.24149,-42.26564 -57.71822,-34.85061c-29.47673,7.41502 -44.63619,16.6838 -45.02924,16.31305c-0.39305,-0.37075 9.08834,0.39384 6.59664,-3.16573z" id="svg_23" stroke="#a07272"/>
  <path transform="rotate(176.8744659423828 360.50457763671875,196.82843017578122) " d="m359.1602,193.32005c0,0 5.01987,2.06535 2.07718,4.37855c-2.94266,2.3132 -3.46197,2.64365 -3.42352,2.63814c0.03845,-0.00551 6.01999,-2.3903 5.3276,-3.79474c-0.69239,-1.40444 -3.98126,-3.22195 -3.98126,-3.22195z" stroke-linecap="null" stroke-linejoin="null" stroke-dasharray="null" stroke-width="0" fill="#470000" id="svg_30" stroke="#7f2323"/>
  <polygon fill="#bfbfbf" points="357.13677966594696,242.0142822265625 372.6115416288376,247.16326904296875 397.6502684354782,245.19651794433594 397.6502684354782,238.83203125 372.6115416288376,236.8652801513672 357.13677966594696,242.0142822265625 " stroke-width="0" transform="rotate(-174.4308319091797 377.3935241699219,242.0142822265625) " stroke="#000000" id="svg_44"/>
  <polygon id="svg_46" fill="#a06d6d"/>
  <polygon stroke="#000000" fill="#bfbfbf" points="358.529489682864,251.65349421685744 372.7888623114053,256.8024810332637 395.8610481287109,254.83572993463088 395.8610481287109,248.47124324029494 372.7888623114053,246.50449214166213 358.529489682864,251.65349421685744 " stroke-width="0" transform="rotate(-174.4308319091797 377.1952819824219,251.6534881591797) " id="svg_4"/>
  <ellipse fill="#ffffff" stroke-width="0" stroke-dasharray="null" stroke-linejoin="null" stroke-linecap="null" cx="372.42249" cy="261.03714" id="svg_9" rx="5.0625" ry="10.96875" stroke="#000000"/>
  <rect fill="none" stroke="#fcfcfc" stroke-width="6" stroke-dasharray="null" stroke-linejoin="null" stroke-linecap="null" x="270.38083" y="45.88088" width="14.625" height="15.1875" id="svg_60"/>
  <rect fill="none" stroke="#fcfcfc" stroke-width="6" stroke-dasharray="null" stroke-linejoin="null" stroke-linecap="null" x="270.94333" y="50.38088" width="10.6875" height="2.25" id="svg_61"/>
  <rect fill="none" stroke="#fcfcfc" stroke-width="6" stroke-dasharray="null" stroke-linejoin="null" stroke-linecap="null" x="427.88083" y="51.50588" width="10.6875" height="2.25" id="svg_62"/>
  <path id="svg_3" transform="rotate(-165.84754943847656 359.25872802734375,198.60821533203125) " d="m357.91435,195.09984c0,0 5.01987,2.06535 2.07718,4.37855c-2.94266,2.3132 -3.46197,2.64365 -3.42352,2.63814c0.03845,-0.00551 6.01999,-2.3903 5.3276,-3.79474c-0.69239,-1.40444 -3.98126,-3.22195 -3.98126,-3.22195z" stroke-linecap="null" stroke-linejoin="null" stroke-dasharray="null" stroke-width="0" fill="#470000" stroke="#7f2323"/>
  <path id="svg_6" transform="rotate(-165.84754943847656 362.81829833984375,202.16778564453125) " d="m361.47392,198.65941c0,0 5.01987,2.06535 2.07718,4.37855c-2.94266,2.3132 -3.46197,2.64365 -3.42352,2.63814c0.03845,-0.00551 6.01999,-2.3903 5.3276,-3.79474c-0.69239,-1.40444 -3.98126,-3.22195 -3.98126,-3.22195z" stroke-linecap="null" stroke-linejoin="null" stroke-dasharray="null" stroke-width="0" fill="#470000" stroke="#7f2323"/>
  <path id="svg_33" transform="rotate(-134.8605499267578 287.40057373046875,226.9167327880859) " d="m286.75303,224.39407c0,0 2.41787,1.48507 1.00049,3.14836c-1.41736,1.66329 -1.66749,1.9009 -1.64897,1.89693c0.01852,-0.00396 2.89958,-1.71873 2.56609,-2.72858c-0.3335,-1.00985 -1.91761,-2.31672 -1.91761,-2.31672l0,0.00001z" stroke-linecap="null" stroke-linejoin="null" stroke-dasharray="null" stroke-width="0" fill="#470000" stroke="#7f2323"/>
  <rect fill="none" stroke="#fcfcfc" stroke-width="38" stroke-dasharray="null" stroke-linejoin="null" stroke-linecap="null" x="421.01043" y="154.01042" width="20" height="6" id="svg_37"/>
  <rect id="svg_39" fill="none" stroke="#fcfcfc" stroke-width="38" stroke-dasharray="null" stroke-linejoin="null" stroke-linecap="null" x="428.13461" y="58.64204" width="20" height="6"/>
  <path id="svg_32" d="m371.07863,256.96537c0,0 0,-4.74609 1.42383,-3.55957c1.42383,1.18653 1.66113,2.84766 1.48973,2.64596c-0.17141,-0.2017 1.12062,3.04936 0.94922,2.84765c-0.17141,-0.2017 -0.06591,2.57475 -0.23731,2.37305c-0.1714,-0.2017 -0.77781,2.33745 -0.94922,2.13574c-0.1714,-0.2017 -0.77781,3.04936 -0.94922,2.84766c-0.1714,-0.2017 -0.3032,1.62553 -0.47461,1.42383" stroke-linecap="null" stroke-linejoin="null" stroke-dasharray="null" stroke-width="0.1" stroke="#965858" fill="none"/>
 </g>
</svg>
