<svg width="640" height="480.00000000000017" xmlns="http://www.w3.org/2000/svg" xmlns:svg="http://www.w3.org/2000/svg">
 <!-- Created with SVG-edit - http://svg-edit.googlecode.com/ -->
 <g stroke="null">
  <title>Layer 1</title>
  <ellipse fill="#f9c5c5" stroke-width="0" stroke-dasharray="null" stroke-linejoin="null" stroke-linecap="null" cx="257.25935" cy="179.64112" rx="46.49641" ry="60.03177" transform="rotate(-7.321904182434082 257.2593383789067,179.6411285400391) " id="svg_43" stroke="#a07272"/>
  <ellipse fill="#f9c5c5" stroke-width="0" stroke-dasharray="null" stroke-linejoin="null" stroke-linecap="null" cx="255.54037" cy="198.26841" id="svg_41" rx="42.50063" ry="55.3773" transform="rotate(-7.321904182434082 255.54034423828105,198.26841735839864) " stroke="#a07272"/>
  <polygon id="svg_40" fill="#7f0000" points="287.41607368231456,189.37088755895024 299.79592597723644,194.6427037289534 319.82696235418956,192.6290399084694 319.82696235418956,186.1127711866659 299.79592597723644,184.0990893775645 287.41607368231456,189.37088755895024 " stroke-width="0" transform="rotate(-83.04230499267578 303.6215209960938,189.3708953857422) " stroke="#000000"/>
  <polygon fill="#8c1010" points="273.9774475097656,144.92184448242188 290.8413391113281,156.39234924316406 318.1275939941406,152.010986328125 318.1275939941406,137.83261108398438 290.8413391113281,133.45127868652344 273.9774475097656,144.92184448242188 " stroke-width="0" transform="rotate(-177.0822296142578 296.05252075195307,144.92181396484378) " id="svg_31" stroke="#000000"/>
  <path stroke-width="0.1" transform="rotate(3.683162212371826 213.9389038085922,161.20559692382844) " id="svg_7" d="m212.1264,146.45561l3.625,-14.75l0,44.25l-3.625,14.74999l0,-44.24999z" stroke-linecap="null" stroke-linejoin="null" stroke-dasharray="null" fill="#7f0000" stroke="#000000"/>
  <path id="svg_8" d="m284.2832,165.69409l9.98563,-15.49832l0,46.49496l-9.98563,15.49831l0,-46.49494l0,-0.00001z" stroke-linecap="null" stroke-linejoin="null" stroke-dasharray="null" stroke-width="0" fill="#7f0000" transform="rotate(3.8383307456970215 289.27600097656284,181.19241333007818) " stroke="#000000"/>
  <polygon fill="#7f0000" points="286.41006889087384,157.56276702620465 300.7537883732957,172.91464834425727 323.9623760197801,167.0507531867451 323.9623760197801,148.0747663254469 300.7537883732957,142.21085662771742 286.41006889087384,157.56276702620465 " stroke-width="0" transform="rotate(-117.50167846679688 305.18621826171875,157.5627593994141) " id="svg_5" stroke="#000000"/>
  <polygon fill="#7f0000" points="276.25146484375,160.855224609375 291.35748291015625,173.11886596679688 315.79949951171875,168.4345703125 315.79949951171875,153.27587890625 291.35748291015625,148.59158325195312 276.25146484375,160.855224609375 " stroke-width="0" transform="rotate(-97.08348846435547 296.0254821777344,160.85522460937497) " id="svg_10" stroke="#000000"/>
  <line fill="none" stroke-width="2" stroke-dasharray="null" stroke-linejoin="null" stroke-linecap="null" x1="235" y1="166.6" x2="224" y2="199.6" id="svg_17" stroke="#844343"/>
  <line fill="none" stroke-width="2" stroke-dasharray="null" stroke-linejoin="null" stroke-linecap="null" x1="235.96212" y1="197.29199" x2="225.97488" y2="204.64457" id="svg_18" transform="rotate(37.46174240112305 230.96849060058582,200.96829223632818) " stroke="#6d3939"/>
  <path transform="rotate(-8.165899276733398 254.12499999999983,163.58314514160156) " fill="#7f0000" stroke-width="0" stroke-dasharray="null" stroke-linejoin="null" stroke-linecap="null" d="m240.3125,159.47687c12.05208,0.74705 24.10416,-0.89646 26.27084,5.97642c2.16667,6.87288 1.08334,1.64352 1.08334,1.55387c0,-0.08965 -1.89583,-7.38087 -1.89583,-7.47052c0,-0.08965 -0.8125,0.38847 -4.19792,-0.6574c-3.38542,-1.04587 -8.125,-0.59764 -8.125,-0.68729c0,-0.08965 -8.26042,0.68729 -8.26042,0.59764c0,-0.08965 -4.875,0.68729 -4.875,0.68729l0,-0.00001l-0.00001,0z" id="svg_20" stroke="#000000"/>
  <ellipse fill="#b2b267" stroke-width="2" stroke-dasharray="null" stroke-linejoin="null" stroke-linecap="null" cx="220" cy="169.6" id="svg_22" rx="2" ry="5" stroke="#000000"/>
  <ellipse fill="#b2b267" stroke-width="2" stroke-dasharray="null" stroke-linejoin="null" stroke-linecap="null" cx="253.63794" cy="169.77798" rx="2" ry="5" id="svg_24" stroke="#000000"/>
  <ellipse fill="#ff7f00" stroke-width="0" stroke-dasharray="null" stroke-linejoin="null" stroke-linecap="null" cx="219.26247" cy="169.78174" id="svg_25" rx="0.97888" ry="3.2926" opacity="0.5" stroke="#000000"/>
  <ellipse fill="#ff7f00" stroke-width="0" stroke-dasharray="null" stroke-linejoin="null" stroke-linecap="null" cx="252.54446" cy="170.31567" rx="0.97888" ry="3.2926" opacity="0.5" id="svg_26" stroke="#000000"/>
  <ellipse fill="#00ffff" stroke-width="0" stroke-dasharray="null" stroke-linejoin="null" stroke-linecap="null" cx="252.22659" cy="168.06567" rx="0.97888" ry="3.2926" opacity="0.5" id="svg_27" stroke="#000000"/>
  <ellipse fill="#00ffff" stroke-width="0" stroke-dasharray="null" stroke-linejoin="null" stroke-linecap="null" cx="218.9446" cy="168.45972" rx="0.97888" ry="3.2926" opacity="0.5" id="svg_28" stroke="#000000"/>
  <path id="svg_1" d="m226.42333,212.71499c0,0 2.18065,2.69299 6.29966,1.6158c4.11901,-1.0772 4.3613,-0.96948 4.3613,-1.03411c0,-0.06463 12.59931,3.08078 12.59931,3.01615c0,-0.06463 -24.71403,-1.44344 -24.71403,-1.50808c0,-0.06463 -3.87671,-1.7666 -1.21147,-2.08976c2.66524,-0.32316 2.66524,0 2.66524,0l-0.00001,0z" stroke-width="0" fill="#7f0000" stroke="#000000"/>
  <ellipse ry="0.63281" rx="6.43074" id="svg_11" cy="202.46766" cx="230.78982" opacity="0.5" stroke-linecap="null" stroke-linejoin="null" stroke-dasharray="null" stroke-width="2" fill="none" stroke="#6d3939"/>
  <path id="svg_13" d="m223.7409,217.54924c0,0 1.96207,3.31409 10.65123,1.87318c8.68916,-1.44091 8.68916,-1.44091 8.60958,-1.52204c-0.07958,-0.08113 -3.56426,2.96294 -9.73076,2.81885c-6.1665,-0.14409 -8.68916,-1.00864 -9.53005,-1.585c-0.84089,-0.57636 0,-1.585 0,-1.585l0,0.00001z" stroke-linecap="null" stroke-linejoin="null" stroke-dasharray="null" stroke-width="0" fill="#7f0000" stroke="#7f0000"/>
  <polygon transform="rotate(21.28138542175293 312.4984436035157,167.8468780517578) " stroke-width="2" points="312.4984436035156,157.260498046875 314.0347900390625,165.177001953125 318.71307373046875,165.34774780273438 314.9842834472656,170.4111785888672 316.33929443359375,178.43325805664062 312.4984436035156,173.6461181640625 308.6575927734375,178.43325805664062 310.0126037597656,170.4111785888672 306.2838134765625,165.34774780273438 310.96209716796875,165.177001953125 312.4984436035156,157.260498046875 314.0347900390625,165.177001953125 " fill="#a06d6d" id="svg_14" stroke="#a07272"/>
  <path transform="rotate(-89.88261413574219 239.27413940429688,238.6252899169922) " id="svg_15" d="m239.91323,226.57552c0,0 -4.41165,9.55463 -1.17644,17.06183c3.23521,7.50721 3.52932,2.72989 3.49665,2.68437c-0.03267,-0.04552 -2.32021,7.55273 -3.79076,2.77541c-1.47055,-4.77731 -2.79404,-14.33194 -1.76466,-17.74431c1.02938,-3.41237 3.23521,-4.77731 3.23521,-4.77731l0,0.00001z" stroke-linecap="null" stroke-linejoin="null" stroke-dasharray="null" fill="#7f0000" stroke="#965858"/>
  <path transform="rotate(-29.315793991088867 249.38929748535162,215.40426635742188) " id="svg_19" d="m249.90358,207.43326c0,0 -1.9203,4.69247 -0.79461,9.94804c1.1257,5.25557 1.32435,6.00636 1.30964,5.99384c-0.01471,-0.01252 -2.3029,-5.43075 -2.03803,-8.62163c0.26487,-3.19088 1.523,-7.32026 1.523,-7.32026l0,0.00001z" stroke-linecap="null" stroke-linejoin="null" stroke-dasharray="null" stroke-width="0.3" fill="#7f0000" stroke="#7f2323"/>
  <polygon id="svg_29" fill="#7f0000" points="292.6781482359128,185.94763280906196 303.555162396069,192.41103684689156 321.15455814802215,189.94222663436963 321.15455814802215,181.9530652204791 303.555162396069,179.48421565286995 292.6781482359128,185.94763280906196 " stroke-width="0" transform="rotate(-89.2098159790039 306.9163513183594,185.94763183593747) " stroke="#000000"/>
  <path id="svg_32" transform="rotate(176.8744659423828 283.91934204101557,109.17456054687499) " d="m282.57496,105.66618c0,0 5.01987,2.06535 2.07718,4.37855c-2.94266,2.3132 -3.46197,2.64365 -3.42352,2.63814c0.03845,-0.00551 6.01999,-2.3903 5.3276,-3.79474c-0.69239,-1.40444 -3.98126,-3.22195 -3.98126,-3.22195z" stroke-linecap="null" stroke-linejoin="null" stroke-dasharray="null" stroke-width="0.3" fill="#7f0000" stroke="#7f2323"/>
  <polygon id="svg_102" fill="#965858" points="277.3116114509686,154.2731757023148 296.0339014900311,162.1683267817798 326.3272059333905,159.15262924923536 326.3272059333905,149.3936664360599 296.0339014900311,146.3779874766269 277.3116114509686,154.2731757023148 " stroke-width="0" transform="rotate(179.45281982421875 301.81939697265625,154.27316284179685) " stroke="#000000"/>
  <polygon id="svg_34" fill="#965858" points="282.90137207888097,160.05875591119747 299.23150094256766,165.20774272760372 325.6542424564998,163.2409916289709 325.6542424564998,156.87650493463497 299.23150094256766,154.90975383600215 282.90137207888097,160.05875591119747 " stroke-width="0" transform="rotate(-174.4308319091797 304.2778015136719,160.05874633789062) " stroke="#000000"/>
  <path transform="rotate(-5.432056903839111 213.5621948242189,151.18919372558597) " id="svg_38" d="m210.7259,151.18919l2.83629,-11.61348l2.83629,11.61348l-2.83629,11.61348l-2.83629,-11.61348z" stroke-linecap="null" stroke-linejoin="null" stroke-dasharray="null" stroke-width="0" fill="#a07070" stroke="#000000"/>
  <polygon stroke-width="0" points="300.8717346191406,190.78070068359375 298.5703125,206.59347534179688 294.8465270996094,200.55352783203125 294.8465270996094,181.00784301757812 298.5703125,174.9678955078125 300.8717346191406,190.78070068359375 " fill="#ffaaaa" id="svg_35" stroke="#a07272"/>
  <path transform="rotate(-164.60711669921875 213.44126892089844,141.77728271484372) " id="svg_2" d="m211.52781,144.83109l1.91346,-6.1076l1.91346,6.1076l-3.82692,0z" stroke-linecap="null" stroke-linejoin="null" stroke-dasharray="null" stroke-width="0" fill="#7f0000" stroke="#000000"/>
  <rect fill="#b0b0f4" stroke-width="0" stroke-dasharray="null" stroke-linejoin="null" stroke-linecap="null" opacity="0.5" x="259.14746" y="110.97761" width="1.29034" height="0.71191" id="svg_75" stroke="#e5e58b"/>
  <ellipse id="svg_100" ry="1.875" rx="7.875" cy="215.92498" cx="232.77503" opacity="0.1" stroke-linecap="null" stroke-linejoin="null" stroke-dasharray="null" stroke-width="5" fill="#ffffff" stroke="#fcfced"/>
  <ellipse ry="10.97754" rx="5.29395" id="svg_39" cy="181.66112" cx="300.0359" stroke-linecap="null" stroke-linejoin="null" stroke-dasharray="null" fill="#f9c5c5" stroke="#7f0000"/>
  <ellipse transform="rotate(2.5052490234375 298.96514892577983,185.68447875976688) " stroke-width="0.5" id="svg_3" ry="8.00914" rx="3.65559" cy="185.68449" cx="298.96514" stroke-linecap="null" stroke-linejoin="null" stroke-dasharray="null" fill="#f9c5c5" stroke="#7f0000"/>
  <ellipse id="svg_6" transform="rotate(10.074833869934082 297.8851928710937,186.81808471679696) " stroke-width="0" ry="5.77183" rx="3.01457" cy="186.81809" cx="297.8852" stroke-linecap="null" stroke-linejoin="null" stroke-dasharray="null" fill="#f9c5c5" stroke="#7f0000"/>
  <path fill="#7f0000" stroke-width="0" stroke-dasharray="null" stroke-linejoin="null" stroke-linecap="null" d="m230.90848,160.00367c-11.34813,0.68139 -22.69625,-0.81767 -24.73637,5.4511c-2.04011,6.26877 -1.02006,1.49905 -1.02006,1.41728c0,-0.08177 1.7851,-6.73212 1.7851,-6.81388c0,-0.08177 0.76504,0.35432 3.95272,-0.59962c3.18768,-0.95395 7.65042,-0.54512 7.65042,-0.62688c0,-0.08177 7.77793,0.62688 7.77793,0.54512c0,-0.08177 4.59025,0.62688 4.59025,0.62688l0.00001,0l0,-0.00001l0,0.00001z" id="svg_21" transform="rotate(10.332831382751465 217.9027557373046,163.7490081787109) " stroke="#000000"/>
  <path id="svg_104" transform="rotate(-134.8605499267578 210.06423950195312,142.91674804687497) " d="m209.41669,140.39407c0,0 2.41787,1.48507 1.00049,3.14836c-1.41736,1.66329 -1.66749,1.9009 -1.64897,1.89693c0.01852,-0.00396 2.89958,-1.71873 2.56609,-2.72858c-0.3335,-1.00985 -1.91761,-2.31672 -1.91761,-2.31672l0,0.00001z" stroke-linecap="null" stroke-linejoin="null" stroke-dasharray="null" stroke-width="0.3" fill="#7f0000" stroke="#7f2323"/>
  <path fill="#7f0000" stroke-width="0" stroke-dasharray="null" stroke-linejoin="null" stroke-linecap="null" d="m241.27906,150.42895c-8.10242,0 -31.59945,5.44674 -29.97897,-13.61685c1.62048,-19.06359 8.10242,-24.51033 17.01509,-19.06359c8.91267,5.44674 4.05121,9.53179 0,17.7019c-4.05121,8.17011 12.96388,14.97853 12.96388,14.97853l0,0.00001z" id="svg_16" transform="rotate(49.919246673583984 226.24966430664062,133.4479217529297) " stroke="#a07272"/>
  <path fill="#7f0000" stroke-width="0" stroke-dasharray="null" stroke-linejoin="null" stroke-linecap="null" d="m222.54888,116.64308l-6.28839,18.16681c0,0 9.65716,-9.82491 32.39635,0.37075c22.73919,10.19566 14.31727,25.0257 35.37208,11.12253c21.05481,-13.90317 34.52988,-2.78063 34.13684,-3.15138c-0.39305,-0.37075 -28.24149,-42.26564 -57.71822,-34.85061c-29.47673,7.41502 -44.63619,16.6838 -45.02924,16.31305c-0.39305,-0.37075 7.13058,-7.97115 7.13058,-7.97115z" id="svg_23" stroke="#a07272"/>
  <path transform="rotate(176.8744659423828 285.8379211425781,112.82843017578124) " d="m284.49354,109.32005c0,0 5.01987,2.06535 2.07718,4.37855c-2.94266,2.3132 -3.46197,2.64365 -3.42352,2.63814c0.03845,-0.00551 6.01999,-2.3903 5.3276,-3.79474c-0.69239,-1.40444 -3.98126,-3.22195 -3.98126,-3.22195z" stroke-linecap="null" stroke-linejoin="null" stroke-dasharray="null" stroke-width="0.3" fill="#7f0000" id="svg_30" stroke="#7f2323"/>
  <rect fill="#ffffff" stroke-width="0" stroke-dasharray="null" stroke-linejoin="null" stroke-linecap="null" x="209.01177" y="115.35948" width="14.55469" height="8.49967" id="svg_37" transform="rotate(-30.810562133789062 216.28910827636722,119.6093215942383) " stroke="#a07272"/>
  <polygon fill="#965858" points="282.9066467285156,164.4500732421875 298.38140869140625,169.59906005859375 323.4201354980469,167.63230895996094 323.4201354980469,161.267822265625 298.38140869140625,159.3010711669922 282.9066467285156,164.4500732421875 " stroke-width="0" transform="rotate(-174.4308319091797 303.1633911132813,164.4500732421875) " stroke="#000000" id="svg_44"/>
  <polygon id="svg_46" fill="#a06d6d"/>
 </g>
</svg>
