<svg width="640.0000000000001" height="480" xmlns="http://www.w3.org/2000/svg" xmlns:svg="http://www.w3.org/2000/svg">
 <!-- Created with SVG-edit - http://svg-edit.googlecode.com/ -->
 <g>
  <title>Layer 1</title>
  <ellipse stroke="#000000" id="svg_23" transform="rotate(84.80557250976562 395.9139404296875,380.0532836914062) " ry="21.06376" rx="47.67258" cy="380.05325" cx="395.91393" stroke-linecap="null" stroke-linejoin="null" stroke-dasharray="null" stroke-width="0" fill="#ffd4aa"/>
  <ellipse stroke="#000000" id="svg_19" ry="122" rx="192" cy="337.99999" cx="414.99998" stroke-linecap="null" stroke-linejoin="null" stroke-dasharray="null" stroke-width="0" fill="#f7b374"/>
  <ellipse stroke="#000000" opacity="0.3" id="svg_27" ry="71" rx="147" cy="350.99999" cx="418.99998" stroke-linecap="null" stroke-linejoin="null" stroke-dasharray="null" stroke-width="0" fill="#a55f21"/>
  <ellipse stroke="#000000" id="svg_14" ry="37.5" rx="78.5" cy="367.5" cx="471.49999" stroke-linecap="null" stroke-linejoin="null" stroke-dasharray="null" stroke-width="0" fill="#f9c798"/>
  <ellipse stroke="#000000" id="svg_26" transform="rotate(84.80557250976562 464.2827453613282,363.1106262207031) " ry="79.73093" rx="38.3474" cy="363.11064" cx="464.28276" stroke-linecap="null" stroke-linejoin="null" stroke-dasharray="null" stroke-width="0" fill="#ffd4aa"/>
  <ellipse stroke="#000000" transform="rotate(84.80557250976562 431.41806030273443,379.09832763671875) " id="svg_17" ry="20.56581" rx="47.67258" cy="379.09835" cx="431.41805" stroke-linecap="null" stroke-linejoin="null" stroke-dasharray="null" stroke-width="0" fill="#ffd4aa"/>
  <ellipse id="svg_13" stroke="#000000" ry="58" rx="77.5" cy="341" cx="369.5" stroke-linecap="null" stroke-linejoin="null" stroke-dasharray="null" stroke-width="0" fill="#fcb26c"/>
  <path stroke="#000000" id="svg_12" d="m381.09807,288c1.08981,0 32.69439,-18 8.7185,-47c-23.97588,-29 -13.07775,2 -13.07775,2c0,0 4.35925,45 4.35925,45z" stroke-linecap="null" stroke-linejoin="null" stroke-dasharray="null" stroke-width="0" fill="#ffd4aa"/>
  <path id="svg_11" d="m318,295c-1,0 -30,-18 -8,-47c22,-29 12,2 12,2c0,0 -4,45 -4,45z" stroke-linecap="null" stroke-linejoin="null" stroke-dasharray="null" stroke-width="0" stroke="#000000" fill="#ffd4aa"/>
  <ellipse stroke="#000000" ry="58" rx="77.5" id="svg_1" cy="335" cx="365.5" stroke-linecap="null" stroke-linejoin="null" stroke-dasharray="null" stroke-width="0" fill="#ffd4aa"/>
  <ellipse id="svg_2" cy="504" cx="477" stroke-linecap="null" stroke-linejoin="null" stroke-dasharray="null" stroke-width="0" stroke="#000000" fill="#ffd4aa"/>
  <ellipse stroke="#000000" ry="14" rx="10" id="svg_5" cy="319" cx="319" stroke-linecap="null" stroke-linejoin="null" stroke-dasharray="null" stroke-width="0" fill="#000000"/>
  <ellipse id="svg_7" stroke="#000000" ry="14" rx="10" cy="307" cx="370" stroke-linecap="null" stroke-linejoin="null" stroke-dasharray="null" stroke-width="0" fill="#000000"/>
  <ellipse stroke="#000000" id="svg_8" ry="9" rx="10" cy="361" cx="344" stroke-linecap="null" stroke-linejoin="null" stroke-dasharray="null" stroke-width="0" fill="#000000"/>
  <path stroke="#000000" id="svg_16" d="m346,387.19265c0,0 7.24561,1.40806 11.38597,1.40806c4.14035,0 18.63158,4.9282 31.05263,-3.52014c12.42105,-8.44834 16.5614,-14.08056 16.5614,-14.08056" stroke-linecap="null" stroke-linejoin="null" stroke-dasharray="null" stroke-width="0" fill="#3f3f3f"/>
  <ellipse stroke="#000000" id="svg_18" transform="rotate(84.80557250976562 319.4754333496094,314.72949218749994) " ry="16.94434" rx="13.35953" cy="314.72948" cx="319.47544" stroke-linecap="null" stroke-linejoin="null" stroke-dasharray="null" stroke-width="0" fill="#ffd4aa"/>
  <ellipse stroke="#000000" id="svg_22" transform="rotate(84.80557250976562 367.8852844238281,304.2376708984375) " ry="16.94434" rx="11.91096" cy="304.23769" cx="367.8853" stroke-linecap="null" stroke-linejoin="null" stroke-dasharray="null" stroke-width="0" fill="#ffd4aa"/>
  <rect stroke="#000000" id="svg_9" height="7" width="68" y="300" x="266" stroke-linecap="null" stroke-linejoin="null" stroke-dasharray="null" stroke-width="0" fill="#f29a4d"/>
  <rect stroke="#000000" transform="rotate(-33.023868560791016 377.3708190917968,289.10894775390625) " id="svg_10" height="10.96934" width="68" y="283.6243" x="343.37083" stroke-linecap="null" stroke-linejoin="null" stroke-dasharray="null" stroke-width="0" fill="#ea8f3f"/>
  <ellipse stroke="#000000" id="svg_24" transform="rotate(84.80557250976562 515.291015625,385.70080566406244) " ry="17.30652" rx="32.32677" cy="385.70081" cx="515.29103" stroke-linecap="null" stroke-linejoin="null" stroke-dasharray="null" stroke-width="0" fill="#ffd4aa"/>
 </g>
</svg>
