<svg width="640.0000000000002" height="480" xmlns="http://www.w3.org/2000/svg" xmlns:svg="http://www.w3.org/2000/svg">
 <!-- Created with SVG-edit - http://svg-edit.googlecode.com/ -->
 <g>
  <title>Layer 1</title>
  <rect stroke="#000000" id="svg_63" height="41.02975" width="639.73153" y="274.36908" x="0.26371" opacity="0.5" stroke-linecap="null" stroke-linejoin="null" stroke-dasharray="null" stroke-width="0" fill="#7f00ff"/>
  <rect stroke="#000000" id="svg_61" height="188.25396" width="641.9942" y="290.05693" x="-0.94304" stroke-linecap="null" stroke-linejoin="null" stroke-dasharray="null" stroke-width="0" fill="#ffaaaa"/>
  <ellipse stroke="#000000" id="svg_64" ry="75.99242" rx="186.11706" cy="379.37735" cx="412.76454" stroke-linecap="null" stroke-linejoin="null" stroke-dasharray="null" stroke-width="0" fill="#3f3f3f" opacity="0.1"/>
  <rect stroke="#000000" id="svg_62" height="288.94266" width="641.3154" y="1.64222" x="-0.26426" opacity="0.5" stroke-linecap="null" stroke-linejoin="null" stroke-dasharray="null" stroke-width="0" fill="#ff0000"/>
  <ellipse stroke="#000000" id="svg_19" ry="112.94933" rx="192" cy="336.84391" cx="398.99998" stroke-linecap="null" stroke-linejoin="null" stroke-dasharray="null" stroke-width="0" fill="#b56363"/>
  <ellipse stroke="#000000" opacity="0.3" id="svg_27" ry="67.83227" rx="147" cy="359.48414" cx="406.36717" stroke-linecap="null" stroke-linejoin="null" stroke-dasharray="null" stroke-width="0" fill="#7f0000"/>
  <ellipse stroke="#000000" id="svg_23" transform="rotate(85.10135650634766 458.5011596679688,369.7027282714843) " ry="65.51511" rx="37.8372" cy="369.70274" cx="458.50114" stroke-linecap="null" stroke-linejoin="null" stroke-dasharray="null" stroke-width="0" fill="#fcc18a"/>
  <ellipse id="svg_14" ry="35.0083" rx="76.72461" cy="362.39795" cx="465.69042" stroke-linecap="null" stroke-linejoin="null" stroke-dasharray="null" stroke-width="0" fill="#f9c798" stroke="#000000"/>
  <ellipse stroke="#000000" id="svg_39" transform="rotate(123.01770782470703 406.6541137695312,367.2914123535157) " ry="17.97881" rx="40.29597" cy="367.29142" cx="406.65408" stroke-linecap="null" stroke-linejoin="null" stroke-dasharray="null" stroke-width="0" fill="#ffc289"/>
  <ellipse id="svg_26" transform="rotate(84.80557250976562 461.29833984375,366.0950012207031) " ry="78.66147" rx="37.45619" cy="366.09501" cx="461.29833" stroke-linecap="null" stroke-linejoin="null" stroke-dasharray="null" stroke-width="0" fill="#ffd4aa" stroke="#000000"/>
  <ellipse stroke="#000000" transform="rotate(125.36216735839844 407.53460693359375,365.86505126953125) " id="svg_17" ry="14.59045" rx="41.85164" cy="365.86504" cx="407.53462" stroke-linecap="null" stroke-linejoin="null" stroke-dasharray="null" stroke-width="0" fill="#ffd4aa"/>
  <ellipse stroke="#000000" opacity="0.35" transform="rotate(178.5669403076172 451.8698425292969,395.5708312988281) " ry="9.37131" rx="38.19114" cy="395.57082" cx="451.86985" stroke-linecap="null" stroke-linejoin="null" stroke-dasharray="null" stroke-width="0" fill="#ffffff" id="svg_31"/>
  <ellipse stroke="#000000" id="svg_15" transform="rotate(149.19082641601562 403.2561645507812,408.58605957031244) " ry="3.05036" rx="8.76472" cy="408.58603" cx="403.25617" stroke-linecap="null" stroke-linejoin="null" stroke-dasharray="null" stroke-width="0" fill="#ffc38c"/>
  <ellipse stroke="#000000" transform="rotate(170.69322204589844 410.90148925781256,406.0088806152343) " ry="2.8655" rx="3.55268" cy="406.00888" cx="410.90152" stroke-linecap="null" stroke-linejoin="null" stroke-dasharray="null" stroke-width="0" fill="#fcbb7e" id="svg_30"/>
  <ellipse stroke="#000000" id="svg_43" transform="rotate(158.07814025878906 398.7613525390625,408.8023986816407) " ry="4.29793" rx="10.19966" cy="408.8024" cx="398.76133" stroke-linecap="null" stroke-linejoin="null" stroke-dasharray="null" stroke-width="0" fill="#ffd4aa"/>
  <ellipse stroke="#000000" transform="rotate(151.1343536376953 410.3373718261719,405.3262939453125) " ry="2.9402" rx="2.94536" cy="405.32631" cx="410.3374" stroke-linecap="null" stroke-linejoin="null" stroke-dasharray="null" stroke-width="0" fill="#ffd4aa" id="svg_4"/>
  <ellipse stroke="#000000" id="svg_46" transform="rotate(88.03111267089844 451.91543579101574,393.85293579101557) " ry="34.8128" rx="9.72429" cy="393.85294" cx="451.91546" stroke-linecap="null" stroke-linejoin="null" stroke-dasharray="null" stroke-width="0" fill="#ffd4aa"/>
  <ellipse stroke="#000000" transform="rotate(140.93325805664062 403.71878051757807,399.28762817382807) " ry="8.57366" rx="18.44162" cy="399.28763" cx="403.71878" stroke-linecap="null" stroke-linejoin="null" stroke-dasharray="null" stroke-width="0" fill="#fcae6a" id="svg_32"/>
  <ellipse stroke="#000000" id="svg_40" transform="rotate(139.69158935546875 402.9735107421875,399.53302001953125) " ry="7.67757" rx="20.66435" cy="399.53302" cx="402.97352" stroke-linecap="null" stroke-linejoin="null" stroke-dasharray="null" stroke-width="0" fill="#ffd4aa"/>
  <ellipse id="svg_13" stroke="#000000" ry="58" rx="77.5" cy="341" cx="369.5" stroke-linecap="null" stroke-linejoin="null" stroke-dasharray="null" stroke-width="0" fill="#fcb26c"/>
  <path stroke="#000000" id="svg_12" d="m381.09807,288c1.08981,0 32.69439,-18 8.7185,-47c-23.97588,-29 -13.07775,2 -13.07775,2c0,0 4.35925,45 4.35925,45z" stroke-linecap="null" stroke-linejoin="null" stroke-dasharray="null" stroke-width="0" fill="#ffd4aa"/>
  <path id="svg_11" d="m318,295c-1,0 -30,-18 -8,-47c22,-29 12,2 12,2c0,0 -4,45 -4,45z" stroke-linecap="null" stroke-linejoin="null" stroke-dasharray="null" stroke-width="0" stroke="#000000" fill="#ffd4aa"/>
  <ellipse stroke="#000000" ry="58" rx="77.5" id="svg_1" cy="335" cx="365.5" stroke-linecap="null" stroke-linejoin="null" stroke-dasharray="null" stroke-width="0" fill="#ffd4aa"/>
  <ellipse id="svg_2" cy="504" cx="477" stroke-linecap="null" stroke-linejoin="null" stroke-dasharray="null" stroke-width="0" stroke="#000000" fill="#ffd4aa"/>
  <ellipse stroke="#000000" ry="14" rx="10" id="svg_5" cy="319" cx="319" stroke-linecap="null" stroke-linejoin="null" stroke-dasharray="null" stroke-width="0" fill="#000000"/>
  <ellipse id="svg_7" stroke="#000000" ry="14" rx="10" cy="307" cx="370" stroke-linecap="null" stroke-linejoin="null" stroke-dasharray="null" stroke-width="0" fill="#000000"/>
  <path stroke="#000000" id="svg_16" d="m346,387.19265c0,0 7.24561,1.40806 11.38597,1.40806c4.14035,0 18.63158,4.9282 31.05263,-3.52014c12.42105,-8.44834 16.5614,-14.08056 16.5614,-14.08056" stroke-linecap="null" stroke-linejoin="null" stroke-dasharray="null" stroke-width="0" fill="#3f3f3f"/>
  <ellipse stroke="#000000" id="svg_18" transform="rotate(84.80557250976562 319.4754333496094,314.72949218749994) " ry="16.94434" rx="13.35953" cy="314.72948" cx="319.47544" stroke-linecap="null" stroke-linejoin="null" stroke-dasharray="null" stroke-width="0" fill="#ffd4aa"/>
  <ellipse stroke="#000000" id="svg_22" transform="rotate(84.80557250976562 367.8852844238281,304.2376708984375) " ry="16.94434" rx="11.91096" cy="304.23769" cx="367.8853" stroke-linecap="null" stroke-linejoin="null" stroke-dasharray="null" stroke-width="0" fill="#ffd4aa"/>
  <rect stroke="#000000" id="svg_9" height="7" width="68" y="300" x="266" stroke-linecap="null" stroke-linejoin="null" stroke-dasharray="null" stroke-width="0" fill="#f29a4d"/>
  <rect stroke="#000000" transform="rotate(-33.023868560791016 377.3708190917968,289.10894775390625) " id="svg_10" height="10.96934" width="68" y="283.6243" x="343.37083" stroke-linecap="null" stroke-linejoin="null" stroke-dasharray="null" stroke-width="0" fill="#ea8f3f"/>
  <ellipse transform="rotate(161.51718139648438 497.1849670410156,419.0560302734375) " ry="7.39286" rx="15.84926" cy="419.05605" cx="497.18498" stroke-linecap="null" stroke-linejoin="null" stroke-dasharray="null" stroke-width="0" fill="#ffd4aa" stroke="#000000" id="svg_6"/>
  <ellipse opacity="0.3" ry="21.17626" rx="29.01494" cy="376.5246" cx="507.74452" stroke-linecap="null" stroke-linejoin="null" stroke-dasharray="null" stroke-width="0" fill="#a55f21" id="svg_3" transform="rotate(-37.80662155151367 507.7445373535156,376.5245971679688) " stroke="#000000"/>
  <ellipse id="svg_24" transform="rotate(128.07162475585938 511.7095031738281,379.61199951171875) " ry="22.28599" rx="29.33966" cy="379.612" cx="511.7095" stroke-linecap="null" stroke-linejoin="null" stroke-dasharray="null" stroke-width="0" fill="#ffd4aa" stroke="#000000"/>
  <rect fill="#ffd4aa" stroke-width="0" stroke-dasharray="null" stroke-linejoin="null" stroke-linecap="null" x="496.18626" y="400.62038" width="14.30093" height="16.5" id="svg_20" transform="rotate(-9.24426555633545 503.3367309570305,408.87036132812483) " stroke="#000000"/>
  <path fill="#f9ad66" stroke-width="0" stroke-dasharray="null" stroke-linejoin="null" stroke-linecap="null" d="m535.18773,359.48211c6.97343,10.22729 3.61425,40.35112 -2.75823,59.92977c-6.37248,19.57866 -10.73211,21.79038 -11.493,22.26791c-0.76089,0.47753 9.41678,-28.62975 11.58811,-37.07128c2.17133,-8.44153 1.42667,-14.08707 1.33156,-25.07022c-0.09511,-10.98314 -0.57067,-17.9073 -0.64993,-18.08372c-0.07927,-0.17641 -4.99194,-12.19975 1.98149,-1.97246z" transform="rotate(12.268467903137207 529.9810180664056,398.5249938964842) " id="svg_28" stroke="#000000"/>
  <path fill="#f9c798" stroke-width="0" stroke-dasharray="null" stroke-linejoin="null" stroke-linecap="null" d="m534.0029,359.30432c6.37344,10.89572 4.38432,40.10449 -3.34592,59.56348c-7.73023,19.45898 -9.76067,22.69707 -11.30691,22.06933c-1.54624,-0.62775 11.07615,-28.71386 11.42228,-36.78222c0.34613,-8.06836 1.73065,-14.00098 1.61527,-24.917c-0.11538,-10.91601 -0.69226,-17.79785 -0.78842,-17.97318c-0.09616,-0.17534 -3.96975,-12.85613 2.40369,-1.96041l0.00001,0z" id="svg_21" transform="rotate(11.047143936157227 528.5123291015634,397.9488220214844) " stroke="#000000"/>
  <path fill="#f9c798" stroke-width="0" stroke-dasharray="null" stroke-linejoin="null" stroke-linecap="null" d="m535.3973,361.15641c6.83343,11.76423 4.73785,40.10449 -3.61572,59.56347c-8.35356,19.45899 3.07607,-15.48417 5.30557,-18.58031c2.22949,-3.09614 -5.55493,11.93578 -5.18089,3.86742c0.37404,-8.06835 1.8702,-14.00097 1.74552,-24.91699c-0.12468,-10.91601 -0.74808,-17.79785 -0.85199,-17.97319c-0.10391,-0.17533 -4.23592,-13.72463 2.59751,-1.9604z" transform="rotate(14.205410957336426 534.1260986328126,391.4712219238279) " stroke="#000000" id="svg_25"/>
  <path fill="#fcddbf" stroke-width="0" stroke-dasharray="null" stroke-linejoin="null" stroke-linecap="null" d="m530.81078,370.64965c0,0 3.30501,33.34705 -1.56301,50.31625c-4.86801,16.96918 -7.428,20.70813 -6.47373,20.54137c0.95428,-0.16676 6.36594,-26.15434 6.52764,-32.97009c0.16169,-6.81574 0.80845,-11.82732 0.75455,-21.04863c-0.0539,-9.2213 -0.33402,-15.16062 -0.3683,-15.18285c-0.03427,-0.02225 1.12285,-1.65605 1.12285,-1.65605z" transform="rotate(16.70698356628418 527.2416992187495,406.08108520507824) " id="svg_29" stroke="#000000"/>
  <ellipse fill="#e5a970" stroke-width="0" stroke-dasharray="null" stroke-linejoin="null" stroke-linecap="null" cx="462.6719" cy="367.25522" id="svg_33" rx="4" ry="3.75" stroke="#000000"/>
  <ellipse fill="#e5aa77" stroke="#000000" stroke-width="0" stroke-dasharray="null" stroke-linejoin="null" stroke-linecap="null" cx="461.67189" cy="339.50522" rx="6.5" ry="5.5" id="svg_34"/>
  <ellipse fill="#efb47c" stroke-width="0" stroke-dasharray="null" stroke-linejoin="null" stroke-linecap="null" cx="500.67189" cy="337.75522" rx="4.5" ry="3.75" id="svg_36" stroke="#000000" opacity="0.85"/>
  <polygon stroke="#000000" id="svg_41" transform="rotate(134.0460968017578 413.1043701171875,406.09423828124994) " stroke-width="0" points="414.64012145996094,406.0941619873047 413.46690368652344,408.38340759277344 411.56858825683594,407.50901794433594 411.56858825683594,404.6793670654297 413.46690368652344,403.80503845214844 414.64012145996094,406.0941619873047 " fill="#fccea6"/>
  <polygon id="svg_35" stroke="#000000" transform="rotate(142.57708740234375 411.69482421874994,407.78698730468756) " stroke-width="0" points="412.93817138671875,407.78692626953125 411.98834228515625,409.8352355957031 410.4515075683594,409.0528869628906 410.4515075683594,406.52105712890625 411.98834228515625,405.7387390136719 412.93817138671875,407.78692626953125 " fill="#fccea6"/>
  <polygon stroke="#000000" id="svg_37" transform="rotate(142.57708740234375 409.56463623046875,408.04284667968756) " stroke-width="0" points="411.02540407763416,408.04278443879184 409.9094672512144,410.3835422260486 408.103868271595,409.48949334817326 408.103868271595,406.5961801536355 409.9094672512144,405.70216615050185 411.02540407763416,408.04278443879184 " fill="#fccea6"/>
  <ellipse opacity="0.5" transform="rotate(-19.98118019104004 410.71899414062483,409.5110473632813) " ry="0.60185" rx="0.41179" id="svg_38" cy="409.51105" cx="410.71899" stroke-linecap="null" stroke-linejoin="null" stroke-dasharray="null" stroke-width="0" stroke="#000000" fill="#bfbfbf"/>
  <ellipse id="svg_44" opacity="0.5" transform="rotate(-19.98118019104004 412.58789062499994,409.1942749023435) " ry="0.60185" rx="0.41179" cy="409.19429" cx="412.5879" stroke-linecap="null" stroke-linejoin="null" stroke-dasharray="null" stroke-width="0" stroke="#000000" fill="#bfbfbf"/>
  <ellipse id="svg_45" opacity="0.5" transform="rotate(-19.98118019104004 414.20339965820347,407.92721557617176) " ry="0.60185" rx="0.41179" cy="407.92723" cx="414.20339" stroke-linecap="null" stroke-linejoin="null" stroke-dasharray="null" stroke-width="0" stroke="#000000" fill="#bfbfbf"/>
  <polygon id="svg_49" stroke="#000000" stroke-width="0" points="524.06884765625,334.86803817749023 525.1106872558594,338.2986717224121 528.283203125,338.37270736694336 525.7545776367188,340.566951751709 526.6734619140625,344.04333114624023 524.06884765625,341.968807220459 521.4642333984375,344.04333114624023 522.3831176757812,340.566951751709 519.8544921875,338.37270736694336 523.0270080566406,338.2986717224121 524.06884765625,334.86803817749023 525.1106872558594,338.2986717224121 " strokeWidth="0" strokecolor="#000000" fill="#ffd4aa" orient="point" r2="716.68525" r="1791.71312" point="5" shape="star" cy="388.63588" cx="426.3898"/>
  <polygon stroke="#000000" transform="rotate(-25.65329933166504 455.37561035156244,328.61196899414057) " id="svg_50" stroke-width="0" points="455.3756191730499,325.9101128578186 456.45511746406555,327.93055963516235 459.7421658039093,327.97413873672485 457.12223172187805,329.2664361000061 458.0742886066437,331.3137993812561 455.3756191730499,330.09202814102173 452.6769497394562,331.3137993812561 453.6290066242218,329.2664361000061 451.00907254219055,327.97413873672485 454.29618191719055,327.93055963516235 455.3756191730499,325.9101128578186 456.45511746406555,327.93055963516235 " strokeWidth="0" strokecolor="#000000" fill="#ffd4aa" orient="point" r2="716.68525" r="1791.71312" point="5" shape="star" cy="388.63588" cx="426.3898"/>
  <polygon transform="rotate(-60.79908752441406 428.7430725097656,302.7625122070312) " id="svg_51" stroke="#000000" stroke-width="0" points="428.74307000637054,298.17486572265625 429.78494012355804,301.6054992675781 432.95742547512054,301.6795349121094 430.4287999868393,303.873779296875 431.34768426418304,307.35015869140625 428.74307000637054,305.275634765625 426.13845574855804,307.35015869140625 427.0573400259018,303.873779296875 424.52871453762054,301.6795349121094 427.7012609243393,301.6054992675781 428.74307000637054,298.17486572265625 429.78494012355804,301.6054992675781 " strokeWidth="0" strokecolor="#000000" fill="#ffd4aa" orient="point" r2="716.68525" r="1791.71312" point="5" shape="star" cy="388.63588" cx="426.3898"/>
  <polygon stroke="#000000" id="svg_53" transform="rotate(-78.40170288085938 449.9786682128906,391.2848815917969) " stroke-width="0" points="449.9786835136342,380.2798093041602 450.9913727807011,388.5094235619727 454.0749538350806,388.68694431392584 451.61719939574823,393.95061618892584 452.5103291459468,402.28997165767584 449.9786835136342,397.3134701928321 447.44703788132165,402.28997165767584 448.3401676315202,393.95061618892584 445.88241319218787,388.68694431392584 448.966071781922,388.5094235619727 449.9786835136342,380.2798093041602 450.9913727807011,388.5094235619727 " strokeWidth="0" strokecolor="#000000" fill="#ffd4aa" orient="point" r2="716.68525" r="1791.71312" point="5" shape="star" cy="388.63588" cx="426.3898"/>
  <ellipse stroke="#000000" id="svg_8" ry="9" rx="10" cy="361" cx="344" stroke-linecap="null" stroke-linejoin="null" stroke-dasharray="null" stroke-width="0" fill="#000000"/>
  <ellipse stroke="#000000" ry="14.04693" rx="10.87307" id="svg_56" cy="328.1559" cx="319.04129" opacity="0.3" stroke-linecap="null" stroke-linejoin="null" stroke-dasharray="null" stroke-width="0" fill="#ff7f00"/>
  <rect stroke="#000000" id="svg_58" transform="rotate(178.0926971435547 335.65997314453125,338.5863342285156) " opacity="0.3" height="20.48765" width="1.31348" y="328.34251" x="335.00325" stroke-linecap="null" stroke-linejoin="null" stroke-dasharray="null" stroke-width="0" fill="#ff7f00"/>
  <ellipse stroke="#000000" id="svg_66" ry="3.50221" rx="15.51193" cy="417.29118" cx="166.31761" stroke-linecap="null" stroke-linejoin="null" stroke-dasharray="null" stroke-width="0" fill="#3f3f3f" opacity="0.15"/>
  <ellipse stroke="#000000" ry="19.00641" rx="19.91147" id="svg_65" cy="400.43852" cx="161.69761" stroke-linecap="null" stroke-linejoin="null" stroke-dasharray="null" stroke-width="0" fill="#ffff00"/>
  <path id="svg_67" d="m171.76883,403.22185c0,0 -32.44916,-9.06834 -19.26426,-5.13077c13.18489,3.93757 17.94578,4.5819 20.61855,3.81825c2.67278,-0.76365 7.11746,-1.08581 7.88111,-2.61311c0.76365,-1.5273 0.73979,6.47313 -13.76957,1.89122c-14.50935,-4.5819 -13.85906,-5.43503 -16.71678,-6.79529l-2.45325,-3.90437l-3.19657,-0.79685z" stroke-linecap="null" stroke-linejoin="null" stroke-dasharray="null" stroke-width="0" stroke="#000000" fill="#ffffff"/>
  <path stroke="#000000" id="svg_68" d="m147.7497,413.05981c0,0 -4.12747,-1.3898 6.87912,-3.05755c11.00658,-1.66775 16.16593,-1.66775 18.57361,-1.3898c2.40769,0.27796 4.81538,0.27796 5.50329,0.83388c0.68791,0.55592 2.40769,-1.94572 -10.66263,-0.27796c-13.07032,1.66775 -15.82197,0.27796 -16.50988,1.94571l-0.90398,1.7143l-2.87954,0.23141z" stroke-linecap="null" stroke-linejoin="null" stroke-dasharray="null" stroke-width="0" fill="#ffffff"/>
  <ellipse stroke="#000000" id="svg_69" ry="18.7752" rx="19.83929" cy="400.49077" cx="163.00846" stroke-linecap="null" stroke-linejoin="null" stroke-dasharray="null" stroke-width="0" fill="#3f3f3f" opacity="0.1"/>
  <rect stroke="#000000" id="svg_79" height="39.37041" width="25.79441" y="228.74993" x="68.74991" opacity="0.25" stroke-linecap="null" stroke-linejoin="null" stroke-dasharray="null" stroke-width="0" fill="#3f3f3f"/>
  <rect id="svg_70" height="38.01281" width="24.43681" y="228.07113" x="67.39231" opacity="0.75" stroke-linecap="null" stroke-linejoin="null" stroke-dasharray="null" stroke-width="0" stroke="#000000" fill="#ffffff"/>
  <polygon transform="rotate(-18.125473022460938 79.62896728515634,238.75708007812503) " stroke="#000000" opacity="0.75" stroke-width="0" points="84.10157233476639,238.7570583820343 80.68480902910233,243.6063015460968 75.15636664628983,241.754052400589 75.15636664628983,235.76007962226868 80.68480902910233,233.90783047676086 84.10157233476639,238.7570583820343 " strokeWidth="0" strokecolor="#000000" fill="#ffaaaa" edge="431.63674" orient="x" sides="5" shape="regularPoly" id="svg_71" cy="237.22966" cx="74.11148"/>
  <polygon id="svg_72" transform="rotate(-18.125473022460938 80.26322937011703,252.89205932617182) " stroke="#000000" opacity="0.75" stroke-width="0" points="84.73583441972733,252.89205121994019 81.31907111406326,257.7412943840027 75.79062873125076,255.88904523849487 75.79062873125076,249.89507246017456 81.31907111406326,248.04282331466675 84.73583441972733,252.89205121994019 " strokeWidth="0" strokecolor="#000000" fill="#ffaaaa" edge="431.63674" orient="x" sides="5" shape="regularPoly" cy="237.22966" cx="74.11148"/>
  <rect id="svg_73" height="1.90279" width="0.81548" y="237.57307" x="77.2509" opacity="0.75" stroke-linecap="null" stroke-linejoin="null" stroke-dasharray="null" stroke-width="0" stroke="#000000" fill="#000000"/>
  <rect id="svg_74" height="1.90279" width="0.81548" y="237.57307" x="80.241" opacity="0.75" stroke-linecap="null" stroke-linejoin="null" stroke-dasharray="null" stroke-width="0" stroke="#000000" fill="#000000"/>
  <rect id="svg_75" height="1.90279" width="0.81548" y="250.80197" x="77.88517" opacity="0.75" stroke-linecap="null" stroke-linejoin="null" stroke-dasharray="null" stroke-width="0" stroke="#000000" fill="#000000"/>
  <rect id="svg_76" height="1.90279" width="0.81548" y="250.89258" x="80.69404" opacity="0.75" stroke-linecap="null" stroke-linejoin="null" stroke-dasharray="null" stroke-width="0" stroke="#000000" fill="#000000"/>
  <ellipse ry="0.54365" rx="0.45304" id="svg_77" cy="241.11688" cx="79.18389" opacity="0.75" stroke-linecap="null" stroke-linejoin="null" stroke-dasharray="null" stroke-width="0" stroke="#000000" fill="#000000"/>
  <ellipse ry="0.63426" rx="0.45304" id="svg_78" cy="255.25187" cx="79.72755" opacity="0.75" stroke-linecap="null" stroke-linejoin="null" stroke-dasharray="null" stroke-width="0" stroke="#000000" fill="#000000"/>
 </g>
</svg>
