<svg width="640.0000000000001" height="480" xmlns="http://www.w3.org/2000/svg" xmlns:svg="http://www.w3.org/2000/svg">
 <!-- Created with SVG-edit - http://svg-edit.googlecode.com/ -->
 <g>
  <title>Layer 1</title>
  <ellipse opacity="0.4" fill="#ff0000" stroke-width="0" stroke-dasharray="null" stroke-linejoin="null" stroke-linecap="null" cx="398.99998" cy="328.99999" rx="192" ry="122" id="svg_19" stroke="#000000"/>
  <ellipse fill="#a55f21" stroke-width="0" stroke-dasharray="null" stroke-linejoin="null" stroke-linecap="null" cx="406.36717" cy="356.3164" rx="147" ry="71" id="svg_27" opacity="0.3" stroke="#000000"/>
  <ellipse fill="#fcc18a" stroke-width="0" stroke-dasharray="null" stroke-linejoin="null" stroke-linecap="null" cx="-104.75274" cy="376.38658" rx="47.67258" ry="21.06376" transform="rotate(85.10135650634766 -104.75275421142574,376.38659667968744) " id="svg_23" stroke="#000000"/>
  <ellipse stroke="#000000" fill="#f9c798" stroke-width="0" stroke-dasharray="null" stroke-linejoin="null" stroke-linecap="null" cx="465.69042" cy="362.39795" rx="76.72461" ry="35.0083" id="svg_14"/>
  <ellipse stroke="#000000" fill="#ffd4aa" stroke-width="0" stroke-dasharray="null" stroke-linejoin="null" stroke-linecap="null" cx="461.29833" cy="366.09501" rx="37.45619" ry="78.66147" transform="rotate(84.80557250976562 461.29833984375,366.09503173828125) " id="svg_26"/>
  <ellipse stroke="#000000" id="svg_31" fill="#ffc289" stroke-width="0" stroke-dasharray="null" stroke-linejoin="null" stroke-linecap="null" cx="429.41855" cy="378.99981" rx="40.29597" ry="12.3987" transform="rotate(119.72900390625 429.4185791015625,378.9997863769532) "/>
  <ellipse stroke="#000000" id="svg_32" fill="#ffc38c" stroke-width="0" stroke-dasharray="null" stroke-linejoin="null" stroke-linecap="null" cx="431.90486" cy="389.82486" rx="15.32852" ry="13.36719" transform="rotate(125.36216735839844 431.9048767089845,389.8248596191406) "/>
  <ellipse stroke="#000000" fill="#ffd4aa" stroke-width="0" stroke-dasharray="null" stroke-linejoin="null" stroke-linecap="null" cx="438.86886" cy="374.55736" rx="47.67258" ry="14.59045" id="svg_17" transform="rotate(125.36216735839844 438.8688659667969,374.557373046875) "/>
  <ellipse fill="#fcb26c" stroke-width="0" stroke-dasharray="null" stroke-linejoin="null" stroke-linecap="null" cx="369.5" cy="341" rx="77.5" ry="58" stroke="#000000" id="svg_13"/>
  <path fill="#ffd4aa" stroke-width="0" stroke-dasharray="null" stroke-linejoin="null" stroke-linecap="null" d="m381.09807,288c1.08981,0 32.69439,-18 8.7185,-47c-23.97588,-29 -13.07775,2 -13.07775,2c0,0 4.35925,45 4.35925,45z" id="svg_12" stroke="#000000"/>
  <path fill="#ffd4aa" stroke="#000000" stroke-width="0" stroke-dasharray="null" stroke-linejoin="null" stroke-linecap="null" d="m318,295c-1,0 -30,-18 -8,-47c22,-29 12,2 12,2c0,0 -4,45 -4,45z" id="svg_11"/>
  <ellipse fill="#ffd4aa" stroke-width="0" stroke-dasharray="null" stroke-linejoin="null" stroke-linecap="null" cx="365.5" cy="335" id="svg_1" rx="77.5" ry="58" stroke="#000000"/>
  <ellipse fill="#ffd4aa" stroke="#000000" stroke-width="0" stroke-dasharray="null" stroke-linejoin="null" stroke-linecap="null" cx="477" cy="504" id="svg_2"/>
  <ellipse fill="#000000" stroke-width="0" stroke-dasharray="null" stroke-linejoin="null" stroke-linecap="null" cx="319" cy="319" id="svg_5" rx="10" ry="14" stroke="#000000"/>
  <ellipse fill="#000000" stroke-width="0" stroke-dasharray="null" stroke-linejoin="null" stroke-linecap="null" cx="370" cy="307" rx="10" ry="14" stroke="#000000" id="svg_7"/>
  <ellipse fill="#000000" stroke-width="0" stroke-dasharray="null" stroke-linejoin="null" stroke-linecap="null" cx="344" cy="361" rx="10" ry="9" id="svg_8" stroke="#000000"/>
  <path fill="#3f3f3f" stroke-width="0" stroke-dasharray="null" stroke-linejoin="null" stroke-linecap="null" d="m346,387.19265c0,0 7.24561,1.40806 11.38597,1.40806c4.14035,0 18.63158,4.9282 31.05263,-3.52014c12.42105,-8.44834 16.5614,-14.08056 16.5614,-14.08056" id="svg_16" stroke="#000000"/>
  <ellipse fill="#ffd4aa" stroke-width="0" stroke-dasharray="null" stroke-linejoin="null" stroke-linecap="null" cx="319.47544" cy="314.72948" rx="13.35953" ry="16.94434" transform="rotate(84.80557250976562 319.4754333496094,314.72949218749994) " id="svg_18" stroke="#000000"/>
  <ellipse fill="#ffd4aa" stroke-width="0" stroke-dasharray="null" stroke-linejoin="null" stroke-linecap="null" cx="367.8853" cy="304.23769" rx="11.91096" ry="16.94434" transform="rotate(84.80557250976562 367.8852844238281,304.2376708984375) " id="svg_22" stroke="#000000"/>
  <rect fill="#f29a4d" stroke-width="0" stroke-dasharray="null" stroke-linejoin="null" stroke-linecap="null" x="266" y="300" width="68" height="7" id="svg_9" stroke="#000000"/>
  <rect fill="#ea8f3f" stroke-width="0" stroke-dasharray="null" stroke-linejoin="null" stroke-linecap="null" x="343.37083" y="283.6243" width="68" height="10.96934" id="svg_10" transform="rotate(-33.023868560791016 377.3708190917968,289.10894775390625) " stroke="#000000"/>
  <ellipse stroke="#000000" id="svg_30" fill="#fcbb7e" stroke-width="0" stroke-dasharray="null" stroke-linejoin="null" stroke-linecap="null" cx="426.09601" cy="408.61045" rx="12.92025" ry="5.15771" transform="rotate(169.3376007080078 426.0959777832031,408.61047363281244) "/>
  <ellipse stroke="#000000" id="svg_4" fill="#ffd4aa" stroke-width="0" stroke-dasharray="null" stroke-linejoin="null" stroke-linecap="null" cx="425.97314" cy="409.78266" rx="15.60294" ry="5.24185" transform="rotate(169.3376007080078 425.9731140136719,409.78265380859375) "/>
  <ellipse id="svg_6" stroke="#000000" fill="#ffd4aa" stroke-width="0" stroke-dasharray="null" stroke-linejoin="null" stroke-linecap="null" cx="497.18498" cy="419.05605" rx="15.84926" ry="7.39286" transform="rotate(161.51718139648438 497.1849670410156,419.0560302734375) "/>
  <ellipse stroke="#000000" transform="rotate(-37.80662155151367 507.7445373535156,376.52462768554676) " id="svg_3" fill="#a55f21" stroke-width="0" stroke-dasharray="null" stroke-linejoin="null" stroke-linecap="null" cx="507.74452" cy="376.5246" rx="29.01494" ry="21.17626" opacity="0.3"/>
  <ellipse stroke="#000000" fill="#ffd4aa" stroke-width="0" stroke-dasharray="null" stroke-linejoin="null" stroke-linecap="null" cx="511.7095" cy="379.612" rx="29.33966" ry="22.28599" transform="rotate(128.07162475585938 511.7095031738281,379.61199951171875) " id="svg_24"/>
  <rect stroke="#000000" transform="rotate(-9.24426555633545 503.3367309570305,408.8703918457031) " id="svg_20" height="16.5" width="14.30093" y="400.62038" x="496.18626" stroke-linecap="null" stroke-linejoin="null" stroke-dasharray="null" stroke-width="0" fill="#ffd4aa"/>
  <path stroke="#000000" id="svg_28" transform="rotate(12.268467903137207 530.3134155273435,398.59143066406256) " d="m535.1812,359.55425c6.97343,10.22729 3.61425,40.35112 -2.75823,59.92977c-6.37248,19.57866 -10.05157,21.77899 -10.81246,22.25652c-0.76089,0.47753 8.73624,-28.61836 10.90757,-37.05989c2.17133,-8.44153 1.42667,-14.08707 1.33156,-25.07022c-0.09511,-10.98314 -0.57067,-17.9073 -0.64993,-18.08372c-0.07927,-0.17641 -4.99194,-12.19975 1.98149,-1.97246z" stroke-linecap="null" stroke-linejoin="null" stroke-dasharray="null" stroke-width="0" fill="#f9ad66"/>
  <path stroke="#000000" transform="rotate(11.047143936157227 528.5581665039074,397.9245605468753) " id="svg_21" d="m534.00839,359.31265c6.37344,10.89572 4.38432,40.10449 -3.34592,59.56348c-7.73023,19.45898 -10.38389,21.59472 -11.30691,22.06933c-0.92301,0.47461 11.07615,-28.71386 11.42228,-36.78222c0.34613,-8.06836 1.73065,-14.00098 1.61527,-24.917c-0.11538,-10.91601 -0.69226,-17.79785 -0.78842,-17.97318c-0.09616,-0.17534 -3.96975,-12.85613 2.40369,-1.96041z" stroke-linecap="null" stroke-linejoin="null" stroke-dasharray="null" stroke-width="0" fill="#f9c798"/>
  <path id="svg_25" stroke="#000000" transform="rotate(14.205410957336426 533.8845825195314,392.5966186523435) " d="m535.11374,361.13156c6.83343,11.76423 4.73785,40.10449 -3.61572,59.56347c-8.35356,19.45899 3.82922,-1.63001 3.69672,-4.26593c-0.13251,-2.63592 -3.94608,-2.3786 -3.57204,-10.44696c0.37404,-8.06835 1.8702,-14.00097 1.74552,-24.91699c-0.12468,-10.91601 -0.74808,-17.79785 -0.85199,-17.97319c-0.10391,-0.17533 -4.23592,-13.72463 2.59751,-1.9604z" stroke-linecap="null" stroke-linejoin="null" stroke-dasharray="null" stroke-width="0" fill="#f9c798"/>
  <path stroke="#000000" id="svg_29" transform="rotate(16.70698356628418 528.3685302734378,406.23916625976545) " d="m530.81291,370.98026c0,0 3.30501,33.34705 -1.56301,50.31625c-4.86801,16.96918 -4.88374,20.36259 -3.92947,20.19583c0.95428,-0.16676 3.82168,-25.8088 3.98338,-32.62455c0.16169,-6.81574 0.80845,-11.82732 0.75455,-21.04863c-0.0539,-9.2213 -0.33402,-15.16062 -0.3683,-15.18285c-0.03427,-0.02225 1.12285,-1.65605 1.12285,-1.65605z" stroke-linecap="null" stroke-linejoin="null" stroke-dasharray="null" stroke-width="0" fill="#fcddbf"/>
  <ellipse stroke="#000000" ry="3.75" rx="4" id="svg_33" cy="367.25522" cx="462.6719" stroke-linecap="null" stroke-linejoin="null" stroke-dasharray="null" stroke-width="0" fill="#edc5a3"/>
  <ellipse id="svg_34" ry="5.5" rx="6.5" cy="339.50522" cx="461.67189" stroke-linecap="null" stroke-linejoin="null" stroke-dasharray="null" stroke-width="0" stroke="#000000" fill="#f2c8a4"/>
  <ellipse opacity="0.85" stroke="#000000" id="svg_36" ry="3.75" rx="4.5" cy="337.75522" cx="500.67189" stroke-linecap="null" stroke-linejoin="null" stroke-dasharray="null" stroke-width="0" fill="#eac8ad"/>
 </g>
</svg>
