<svg width="640" height="480" xmlns="http://www.w3.org/2000/svg" xmlns:svg="http://www.w3.org/2000/svg">
 <!-- Created with SVG-edit - http://svg-edit.googlecode.com/ -->
 <g>
  <title>Layer 1</title>
  <ellipse fill="#e87a7a" stroke-width="0" cx="327.88889" cy="322.05556" rx="80" ry="78.5" id="svg_4" stroke="#000000"/>
  <ellipse fill="#FF0000" stroke-width="0" cx="322.99999" cy="380" rx="252.99999" ry="8" id="svg_3" stroke="#000000"/>
  <ellipse fill="#FF0000" stroke-width="0" cx="306.5" cy="387" id="svg_1" rx="241.49998" ry="8" stroke="#000000"/>
  <ellipse fill="#FF0000" stroke-width="0" cx="315" cy="373" rx="222" ry="8" stroke="#000000" id="svg_5"/>
  <ellipse fill="#FF0000" stroke-width="0" cx="318.99999" cy="364.84375" rx="146.00001" ry="7.15625" id="svg_6" stroke="#000000"/>
  <ellipse fill="#ffffff" stroke-width="0" cx="326.99999" cy="361.5" rx="77.00001" ry="2.5" id="svg_8" stroke="#000000"/>
  <ellipse fill="#ffffff" stroke-width="0" cx="330" cy="365.5" rx="93" ry="2.5" id="svg_9" stroke="#000000"/>
  <ellipse fill="#ffffff" stroke-width="0" cx="327.5" cy="370.5" rx="117.50001" ry="2.5" id="svg_10" stroke="#000000"/>
  <ellipse fill="#ffffff" stroke-width="0" cx="330.50001" cy="375.5" rx="146.5" ry="2.5" id="svg_11" stroke="#000000"/>
  <ellipse fill="#ffffff" stroke-width="0" cx="331.49999" cy="379.5" rx="156.50001" ry="2.5" id="svg_13" stroke="#000000"/>
  <ellipse fill="#ffffff" stroke-width="0" cx="327.99998" cy="383.5" rx="178.00002" ry="2.5" id="svg_14" stroke="#000000"/>
  <ellipse fill="#ffffff" stroke-width="0" cx="325.875" cy="360" rx="42.875" ry="2.5" id="svg_15" stroke="#000000"/>
  <ellipse id="svg_2" fill="#FF0000" stroke-width="0" cx="324.5" cy="398" rx="241.49998" ry="8" stroke="#000000"/>
  <ellipse stroke="#000000" id="svg_7" fill="#ffffff" stroke-width="0" cx="330.49998" cy="388.5" rx="150.50002" ry="2.5"/>
  <ellipse stroke="#000000" id="svg_17" fill="#ffffff" stroke-width="0" cx="330.49999" cy="392.5" rx="120.50001" ry="2.5"/>
  <ellipse id="svg_18" stroke="#000000" fill="#ffffff" stroke-width="0" cx="326.49999" cy="397.5" rx="120.50001" ry="2.5"/>
 </g>
</svg>
