<svg width="1800.0000000000005" height="1800.0000000000005" xmlns="http://www.w3.org/2000/svg" xmlns:svg="http://www.w3.org/2000/svg">
 <!-- Created with SVG-edit - http://svg-edit.googlecode.com/ -->
 <g>
  <title>Layer 1</title>
  <ellipse id="svg_30" transform="rotate(-7.926567077636719 726.3593750000039,1387.7312011718755) " stroke="#000000" ry="52.67492" rx="100.08227" cy="1387.73115" cx="726.35939" stroke-linecap="null" stroke-linejoin="null" stroke-dasharray="null" stroke-width="0" fill="#ff0000"/>
  <ellipse id="svg_29" transform="rotate(-7.926567077636719 731.6926879882823,1355.7312011718748) " stroke="#000000" ry="52.67492" rx="100.08227" cy="1355.73115" cx="731.69273" stroke-linecap="null" stroke-linejoin="null" stroke-dasharray="null" stroke-width="0" fill="#7f007f"/>
  <ellipse id="svg_28" transform="rotate(-7.926567077636719 730.3593749999997,1335.7312011718748) " stroke="#000000" ry="52.67492" rx="100.08227" cy="1335.73115" cx="730.3594" stroke-linecap="null" stroke-linejoin="null" stroke-dasharray="null" stroke-width="0" fill="#ff00ff"/>
  <ellipse transform="rotate(-7.926567077636719 755.6927490234382,1301.0645751953118) " id="svg_27" stroke="#000000" ry="52.67492" rx="100.08227" cy="1301.06448" cx="755.69273" stroke-linecap="null" stroke-linejoin="null" stroke-dasharray="null" stroke-width="0" fill="#7f00ff"/>
  <ellipse id="svg_26" stroke="#000000" ry="52.67492" rx="100.08227" cy="1285.06448" cx="734.3594" stroke-linecap="null" stroke-linejoin="null" stroke-dasharray="null" stroke-width="0" fill="#ff007f"/>
  <ellipse id="svg_23" stroke="#000000" ry="52.67492" rx="100.08227" cy="1263.73115" cx="711.69273" stroke-linecap="null" stroke-linejoin="null" stroke-dasharray="null" stroke-width="0" fill="#007fff"/>
  <ellipse id="svg_22" stroke="#000000" ry="52.67492" rx="100.08227" cy="1245.06448" cx="720.58162" stroke-linecap="null" stroke-linejoin="null" stroke-dasharray="null" stroke-width="0" fill="#ffaaff"/>
  <ellipse id="svg_21" stroke="#000000" ry="52.67492" rx="100.08227" cy="1225.95336" cx="727.69273" stroke-linecap="null" stroke-linejoin="null" stroke-dasharray="null" stroke-width="0" fill="#ff007f"/>
  <ellipse id="svg_20" stroke="#000000" ry="52.67492" rx="100.08227" cy="1210.84225" cx="736.58162" stroke-linecap="null" stroke-linejoin="null" stroke-dasharray="null" stroke-width="0" fill="#ff00ff"/>
  <ellipse id="svg_19" stroke="#000000" ry="52.67492" rx="100.08227" cy="1195.28669" cx="741.91495" stroke-linecap="null" stroke-linejoin="null" stroke-dasharray="null" stroke-width="0" fill="#7f00ff"/>
  <ellipse id="svg_18" stroke="#000000" ry="52.67492" rx="100.08227" cy="1176.62003" cx="750.80384" stroke-linecap="null" stroke-linejoin="null" stroke-dasharray="null" stroke-width="0" fill="#007fff"/>
  <ellipse id="svg_17" stroke="#000000" ry="52.67492" rx="100.08227" cy="1157.06447" cx="759.69272" stroke-linecap="null" stroke-linejoin="null" stroke-dasharray="null" stroke-width="0" fill="#00ff7f"/>
  <ellipse id="svg_16" stroke="#000000" ry="52.67492" rx="100.08227" cy="1134.44718" cx="767.84087" stroke-linecap="null" stroke-linejoin="null" stroke-dasharray="null" stroke-width="0" fill="#aa72e5"/>
  <ellipse id="svg_15" stroke="#000000" ry="52.67492" rx="100.08227" cy="1112.32373" cx="775.98902" stroke-linecap="null" stroke-linejoin="null" stroke-dasharray="null" stroke-width="0" fill="#ce4c8b"/>
  <ellipse id="svg_14" stroke="#000000" ry="52.67492" rx="100.08227" cy="1084.37311" cx="786.80383" stroke-linecap="null" stroke-linejoin="null" stroke-dasharray="null" stroke-width="0" fill="#57c1c1"/>
  <ellipse id="svg_13" stroke="#000000" ry="52.67492" rx="100.08227" cy="1056.42249" cx="797.61864" stroke-linecap="null" stroke-linejoin="null" stroke-dasharray="null" stroke-width="0" fill="#ffaaff"/>
  <ellipse id="svg_12" stroke="#000000" ry="52.67492" rx="100.08227" cy="1032.9657" cx="807.59395" stroke-linecap="null" stroke-linejoin="null" stroke-dasharray="null" stroke-width="0" fill="#007fff"/>
  <ellipse id="svg_4" stroke="#000000" ry="52.67492" rx="100.08227" cy="1007.68175" cx="822.90259" stroke-linecap="null" stroke-linejoin="null" stroke-dasharray="null" stroke-width="0" fill="#ff00ff"/>
  <ellipse stroke="#000000" id="svg_1" ry="52.67492" rx="100.08227" cy="988.71878" cx="835.54457" stroke-linecap="null" stroke-linejoin="null" stroke-dasharray="null" stroke-width="0" fill="#7f00ff"/>
  <ellipse id="svg_11" stroke="#000000" ry="52.67492" rx="103.24276" cy="964.76817" cx="851.34704" stroke-linecap="null" stroke-linejoin="null" stroke-dasharray="null" stroke-width="0" fill="#ff007f"/>
  <ellipse stroke="#000000" ry="43.19344" rx="103.24276" id="svg_10" cy="949.67352" cx="860.82853" stroke-linecap="null" stroke-linejoin="null" stroke-dasharray="null" stroke-width="0" fill="#00ffff"/>
  <path stroke="#000000" transform="rotate(178.08489990234375 824.9769897460939,747.5056762695312) " id="svg_5" d="m859.15535,933.7331c0,0 63.9616,-232.77178 -47.1296,-352.91206c-111.0912,-120.14028 47.1296,352.91206 47.1296,352.91206z" stroke-linecap="null" stroke-linejoin="null" stroke-dasharray="null" stroke-width="0" fill="#00ff7f"/>
  <path stroke="#000000" id="svg_6" transform="rotate(41.0879020690918 963.8370361328127,780.6812744140626) " d="m990.16121,979.68321c0,0 49.26309,-248.73913 -36.29912,-377.12062c-85.56221,-128.38149 36.29912,377.12062 36.29912,377.12062z" stroke-linecap="null" stroke-linejoin="null" stroke-dasharray="null" stroke-width="0" fill="#62af62"/>
  <path stroke="#000000" id="svg_7" transform="rotate(60.95863723754883 1014.8945922851561,812.8546142578126) " d="m1043.19043,1014.02423c0,0 52.95304,-251.44853 -39.01803,-381.22842c-91.97107,-129.77989 39.01803,381.22842 39.01803,381.22842z" stroke-linecap="null" stroke-linejoin="null" stroke-dasharray="null" stroke-width="0" fill="#40c980"/>
  <path id="svg_8" stroke="#000000" transform="rotate(11.97071361541748 879.5572509765608,721.6853637695312) " d="m905.88138,920.68733c0,0 49.26309,-248.73912 -36.29912,-377.12062c-85.56221,-128.38149 36.29912,377.12062 36.29912,377.12062z" stroke-linecap="null" stroke-linejoin="null" stroke-dasharray="null" stroke-width="0" fill="#00ff00"/>
  <path id="svg_9" stroke="#000000" transform="rotate(30.03179931640625 934.3391113281249,734.3273315429688) " d="m960.66328,933.32931c0,0 49.26309,-248.73912 -36.29912,-377.12062c-85.56221,-128.38149 36.29912,377.12062 36.29912,377.12062z" stroke-linecap="null" stroke-linejoin="null" stroke-dasharray="null" stroke-width="0" fill="#92c958"/>
  <rect stroke="#000000" transform="rotate(10.506392478942871 636.9541625976581,1193.6402587890625) " id="svg_24" height="597.32554" width="147.55556" y="894.9775" x="563.1764" stroke-linecap="null" stroke-linejoin="null" stroke-dasharray="null" stroke-width="0" fill="#ffffff"/>
  <rect stroke="#000000" id="svg_25" transform="rotate(30.5388240814209 882.9868774414061,1224.3267822265625) " height="587.68207" width="147.55556" y="930.48577" x="809.20914" stroke-linecap="null" stroke-linejoin="null" stroke-dasharray="null" stroke-width="0" fill="#ffffff"/>
 </g>
</svg>
