<svg width="1800.0000000000005" height="1800.0000000000005" xmlns="http://www.w3.org/2000/svg" xmlns:svg="http://www.w3.org/2000/svg">
 <!-- Created with SVG-edit - http://svg-edit.googlecode.com/ -->

 <g>
  <title>Layer 1</title>
  <ellipse stroke="#000000" transform="rotate(20.40032386779785 803.5567016601545,1180.5340576171877) " ry="368.27816" rx="395.78182" id="svg_2" cy="1180.53413" cx="803.55678" stroke-linecap="null" stroke-linejoin="null" stroke-dasharray="null" stroke-width="11" fill="#d4ffaa"/>
  <ellipse fill="#ff0000" stroke-width="0" stroke-dasharray="null" stroke-linejoin="null" stroke-linecap="null" cx="726.35939" cy="1387.73115" rx="100.08227" ry="52.67492" stroke="#000000" transform="rotate(-7.926567077636719 726.3593750000039,1387.7312011718755) " id="svg_30"/>
  <ellipse fill="#7f007f" stroke-width="0" stroke-dasharray="null" stroke-linejoin="null" stroke-linecap="null" cx="731.69273" cy="1355.73115" rx="100.08227" ry="52.67492" stroke="#000000" transform="rotate(-7.926567077636719 731.6926879882823,1355.7312011718748) " id="svg_29"/>
  <ellipse fill="#ff00ff" stroke-width="0" stroke-dasharray="null" stroke-linejoin="null" stroke-linecap="null" cx="730.3594" cy="1335.73115" rx="100.08227" ry="52.67492" stroke="#000000" transform="rotate(-7.926567077636719 730.3593749999997,1335.7310791015627) " id="svg_28"/>
  <ellipse fill="#7f00ff" stroke-width="0" stroke-dasharray="null" stroke-linejoin="null" stroke-linecap="null" cx="755.69273" cy="1301.06448" rx="100.08227" ry="52.67492" stroke="#000000" id="svg_27" transform="rotate(-7.926567077636719 755.6927490234382,1301.0645751953118) "/>
  <ellipse fill="#ff007f" stroke-width="0" stroke-dasharray="null" stroke-linejoin="null" stroke-linecap="null" cx="734.3594" cy="1285.06448" rx="100.08227" ry="52.67492" stroke="#000000" id="svg_26"/>
  <ellipse fill="#007fff" stroke-width="0" stroke-dasharray="null" stroke-linejoin="null" stroke-linecap="null" cx="711.69273" cy="1263.73115" rx="100.08227" ry="52.67492" stroke="#000000" id="svg_23"/>
  <ellipse fill="#ffaaff" stroke-width="0" stroke-dasharray="null" stroke-linejoin="null" stroke-linecap="null" cx="720.58162" cy="1245.06448" rx="100.08227" ry="52.67492" stroke="#000000" id="svg_22"/>
  <ellipse fill="#ff007f" stroke-width="0" stroke-dasharray="null" stroke-linejoin="null" stroke-linecap="null" cx="727.69273" cy="1225.95336" rx="100.08227" ry="52.67492" stroke="#000000" id="svg_21"/>
  <ellipse fill="#ff00ff" stroke-width="0" stroke-dasharray="null" stroke-linejoin="null" stroke-linecap="null" cx="736.58162" cy="1210.84225" rx="100.08227" ry="52.67492" stroke="#000000" id="svg_20"/>
  <ellipse fill="#7f00ff" stroke-width="0" stroke-dasharray="null" stroke-linejoin="null" stroke-linecap="null" cx="741.91495" cy="1195.28669" rx="100.08227" ry="52.67492" stroke="#000000" id="svg_19"/>
  <ellipse fill="#007fff" stroke-width="0" stroke-dasharray="null" stroke-linejoin="null" stroke-linecap="null" cx="750.80384" cy="1176.62003" rx="100.08227" ry="52.67492" stroke="#000000" id="svg_18"/>
  <ellipse fill="#00ff7f" stroke-width="0" stroke-dasharray="null" stroke-linejoin="null" stroke-linecap="null" cx="759.69272" cy="1157.06447" rx="100.08227" ry="52.67492" stroke="#000000" id="svg_17"/>
  <ellipse fill="#aa72e5" stroke-width="0" stroke-dasharray="null" stroke-linejoin="null" stroke-linecap="null" cx="767.84087" cy="1134.44718" rx="100.08227" ry="52.67492" stroke="#000000" id="svg_16"/>
  <ellipse fill="#ce4c8b" stroke-width="0" stroke-dasharray="null" stroke-linejoin="null" stroke-linecap="null" cx="775.98902" cy="1112.32373" rx="100.08227" ry="52.67492" stroke="#000000" id="svg_15"/>
  <ellipse fill="#57c1c1" stroke-width="0" stroke-dasharray="null" stroke-linejoin="null" stroke-linecap="null" cx="786.80383" cy="1084.37311" rx="100.08227" ry="52.67492" stroke="#000000" id="svg_14"/>
  <ellipse fill="#ffaaff" stroke-width="0" stroke-dasharray="null" stroke-linejoin="null" stroke-linecap="null" cx="797.61864" cy="1056.42249" rx="100.08227" ry="52.67492" stroke="#000000" id="svg_13"/>
  <ellipse fill="#007fff" stroke-width="0" stroke-dasharray="null" stroke-linejoin="null" stroke-linecap="null" cx="807.59395" cy="1032.9657" rx="100.08227" ry="52.67492" stroke="#000000" id="svg_12"/>
  <ellipse fill="#ff00ff" stroke-width="0" stroke-dasharray="null" stroke-linejoin="null" stroke-linecap="null" cx="822.90259" cy="1007.68175" rx="100.08227" ry="52.67492" stroke="#000000" id="svg_4"/>
  <ellipse fill="#7f00ff" stroke-width="0" stroke-dasharray="null" stroke-linejoin="null" stroke-linecap="null" cx="835.54457" cy="988.71878" rx="100.08227" ry="52.67492" id="svg_1" stroke="#000000"/>
  <ellipse fill="#ff007f" stroke-width="0" stroke-dasharray="null" stroke-linejoin="null" stroke-linecap="null" cx="851.34704" cy="964.76817" rx="103.24276" ry="52.67492" stroke="#000000" id="svg_11"/>
  <ellipse fill="#00ffff" stroke-width="0" stroke-dasharray="null" stroke-linejoin="null" stroke-linecap="null" cx="860.82853" cy="949.67352" id="svg_10" rx="103.24276" ry="43.19344" stroke="#000000"/>
  <path fill="#00ff7f" stroke-dasharray="null" stroke-linejoin="null" stroke-linecap="null" d="m840.19239,933.7331c0,0 63.9616,-232.77178 -47.1296,-352.91206c-111.0912,-120.14028 47.1296,352.91206 47.1296,352.91206z" id="svg_5" transform="rotate(178.08489990234375 806.0140380859376,747.5056762695312) " stroke="#56ff56"/>
  <path fill="#62af62" stroke-dasharray="null" stroke-linejoin="null" stroke-linecap="null" d="m990.16121,979.68321c0,0 49.26309,-248.73913 -36.29912,-377.12062c-85.56221,-128.38149 36.29912,377.12062 36.29912,377.12062z" transform="rotate(41.0879020690918 963.8370361328127,780.6812744140626) " id="svg_6" stroke="#007f3f"/>
  <path fill="#40c980" stroke-dasharray="null" stroke-linejoin="null" stroke-linecap="null" d="m1043.19043,1025.87608c0,0 52.95304,-251.44853 -39.01803,-381.22842c-91.97107,-129.77989 39.01803,381.22842 39.01803,381.22842z" transform="rotate(60.95863723754883 1014.8945922851564,824.7064819335936) " id="svg_7" stroke="#56ff56"/>
  <path fill="#39a039" stroke-dasharray="null" stroke-linejoin="null" stroke-linecap="null" d="m891.65916,946.7614c0,0 49.26309,-248.73912 -36.29912,-377.12062c-85.56221,-128.38149 36.29912,377.12062 36.29912,377.12062z" transform="rotate(11.97071361541748 865.3350830078108,747.7594604492193) " stroke="#00ff7f" id="svg_8"/>
  <path fill="#92c958" stroke-dasharray="null" stroke-linejoin="null" stroke-linecap="null" d="m960.66328,949.9219c0,0 49.26309,-248.73912 -36.29912,-377.12062c-85.56221,-128.38149 36.29912,377.12062 36.29912,377.12062z" transform="rotate(30.03179931640625 934.3391113281249,750.919921875) " stroke="#00bf5f" id="svg_9"/>
  <rect stroke="#000000" fill="#d4ffaa" stroke-width="0" stroke-dasharray="null" stroke-linejoin="null" stroke-linecap="null" x="618.63713" y="904.1456" width="113.38428" height="545.55634" id="svg_24" transform="rotate(10.506392478942871 675.3292236328132,1176.923828125) "/>
  <rect fill="#d4ffaa" stroke-width="0" stroke-dasharray="null" stroke-linejoin="null" stroke-linecap="null" x="809.20914" y="930.48577" width="147.55556" height="587.68207" transform="rotate(30.5388240814209 882.986938476562,1224.3269042968752) " id="svg_25" stroke="#000000"/>
 </g>
</svg>
