<svg width="640" height="479.99999999999994" xmlns="http://www.w3.org/2000/svg" xmlns:svg="http://www.w3.org/2000/svg">
 <!-- Created with SVG-edit - http://svg-edit.googlecode.com/ -->
 <defs>
  <radialGradient id="svg_16" spreadMethod="pad" cx="0.5" cy="0.5" r="0.5">
   <stop stop-color="#7fff00" offset="0.77997"/>
   <stop stop-color="#8000ff" offset="1"/>
   <stop stop-color="#8000ff" offset="1"/>
  </radialGradient>
  <radialGradient id="svg_59" spreadMethod="repeat" cx="0.5" cy="0.5" r="0.5" gradientTransform="translate(0,0.2770474137931035) scale(1,0.445905172413793)">
   <stop stop-color="#0027ff" offset="0"/>
   <stop stop-color="#ffd800" offset="0.86591"/>
   <stop stop-color="#0027ff" offset="0.99872"/>
  </radialGradient>
 </defs>
 <g>
  <title>Layer 1</title>
  <ellipse fill="url(#svg_59)" stroke-width="0" stroke-dasharray="null" stroke-linejoin="null" stroke-linecap="null" cx="306.75002" cy="467.87501" id="svg_55" rx="361.24998" ry="35.375" stroke="#000000"/>
  <ellipse ry="50.47918" rx="79.13267" cy="87.83733" cx="297.73673" stroke-width="2" fill="#3f3f3f" id="svg_12" transform="rotate(1.0681591033935547 297.73672485351534,87.83732604980614) " stroke="#000000"/>
  <ellipse stroke="#000000" ry="150.00001" rx="47.25" id="svg_1" cy="103.99999" cx="296.25003" stroke-width="2" fill="#3f3f3f" transform="rotate(-89.6767578125 296.2500305175781,104.00000000000001) "/>
  <ellipse ry="54.95045" rx="14.83951" cy="127.862" cx="297.61868" stroke-width="2" fill="#3f3f3f" transform="rotate(-89.18395233154297 297.6186828613281,127.86200714111327) " id="svg_15" stroke="#000000"/>
  <ellipse ry="7.49998" rx="32.75" cy="131.75003" cx="297.75003" stroke-width="2" fill="url(#svg_16)" id="svg_5" stroke="#000000"/>
  <ellipse fill="url(#svg_16)" stroke-width="2" stroke-dasharray="null" stroke-linejoin="null" stroke-linecap="null" cx="299" cy="208" id="svg_17" rx="61" ry="6" fill-opacity="0.4" stroke="#000000"/>
  <ellipse fill="url(#svg_16)" stroke-width="2" stroke-dasharray="null" stroke-linejoin="null" stroke-linecap="null" cx="298.5" cy="171.5" rx="39.5" ry="5.5" fill-opacity="0.4" id="svg_26" stroke="#000000"/>
  <ellipse fill="url(#svg_16)" stroke-width="2" stroke-dasharray="null" stroke-linejoin="null" stroke-linecap="null" cx="294" cy="248" rx="107" ry="6" fill-opacity="0.4" id="svg_35" stroke="#000000"/>
  <ellipse fill="url(#svg_16)" stroke-width="2" stroke-dasharray="null" stroke-linejoin="null" stroke-linecap="null" cx="298" cy="285" rx="131.00001" ry="6" fill-opacity="0.4" id="svg_36" stroke="#000000"/>
  <ellipse fill="url(#svg_16)" stroke-width="2" stroke-dasharray="null" stroke-linejoin="null" stroke-linecap="null" cx="299" cy="331" rx="107" ry="6" fill-opacity="0.4" stroke="#000000" id="svg_37"/>
  <ellipse fill="url(#svg_16)" stroke-width="2" stroke-dasharray="null" stroke-linejoin="null" stroke-linecap="null" cx="299" cy="361" rx="61" ry="6" fill-opacity="0.4" stroke="#000000" id="svg_38"/>
  <ellipse fill="url(#svg_16)" stroke-width="2" stroke-dasharray="null" stroke-linejoin="null" stroke-linecap="null" cx="300.5" cy="399.5" rx="39.5" ry="5.5" fill-opacity="0.4" stroke="#000000" id="svg_39"/>
  <polygon id="svg_44" fill="#00ffff"/>
  <path fill="#ff7f00" stroke-dasharray="null" stroke-linejoin="null" stroke-linecap="null" d="m275.23553,437.47565l10.82143,-13.50003l10.82143,13.50003l-21.64286,0z" stroke="#000000" id="svg_53"/>
  <path fill="#ff7f00" stroke-dasharray="null" stroke-linejoin="null" stroke-linecap="null" d="m296.98553,438.22565l10.82143,-13.50003l10.82143,13.50003l-21.64286,0z" id="svg_54" stroke="#000000"/>
  <path fill="#ffff00" stroke-dasharray="null" stroke-linejoin="null" stroke-linecap="null" opacity="0.25" d="m285.60376,436.23502l0,-11.25001l8.25,11.25001l-8.25,0z" stroke-width="0" id="svg_64" stroke="#000000"/>
  <path fill="#ff7f00" stroke-dasharray="null" stroke-linejoin="null" stroke-linecap="null" d="m285.73553,443.10065l10.82143,-13.50003l10.82143,13.50003l-21.64286,0z" id="svg_48" stroke="#000000"/>
  <path fill="#ffff00" stroke-dasharray="null" stroke-linejoin="null" stroke-linecap="null" opacity="0.25" d="m295.35376,442.23502l0,-11.25l8.25,11.25l-8.25,0z" id="svg_62" stroke="#000000" stroke-width="0"/>
  <path fill="#ffff00" stroke-dasharray="null" stroke-linejoin="null" stroke-linecap="null" opacity="0.25" d="m307.35376,436.23502l0,-11.25001l8.25,11.25001l-8.25,0z" stroke="#000000" stroke-width="0" id="svg_65"/>
 </g>
</svg>
