<svg width="640" height="480.0000000000001" xmlns="http://www.w3.org/2000/svg" xmlns:svg="http://www.w3.org/2000/svg">
 <!-- Created with SVG-edit - http://svg-edit.googlecode.com/ -->
 <g stroke="null">
  <title>Layer 1</title>
  <rect stroke="#000000" id="xsvg_25" height="264.88883" width="634.66667" y="-1.65929" x="2.13333" stroke-linecap="null" stroke-linejoin="null" stroke-dasharray="null" stroke-width="0" fill="#4bf4f4"/>
  <path fill="#007f00" stroke-width="0" stroke-dasharray="null" stroke-linejoin="null" stroke-linecap="null" opacity="0.4" d="m341.07996,262.67738l12.74074,-90.07407l12.74074,90.07407l-25.48147,0l-0.00001,0z" id="xsvg_93" stroke="#000000"/>
  <path fill="#007f00" stroke-width="0" stroke-dasharray="null" stroke-linejoin="null" stroke-linecap="null" opacity="0.4" d="m-13.43857,271.75146l25.77778,-78.22222l25.77777,78.22222l-51.55555,0z" id="xsvg_88" stroke="#000000"/>
  <path fill="#007f00" stroke-width="0" stroke-dasharray="null" stroke-linejoin="null" stroke-linecap="null" opacity="0.4" d="m452.33923,273.52924l42.66666,-65.77778l42.66666,65.77778l-85.33333,0l0.00001,0z" id="xsvg_82" stroke="#000000"/>
  <path fill="#007f00" stroke-width="0" stroke-dasharray="null" stroke-linejoin="null" stroke-linecap="null" opacity="0.4" d="m351.00589,273.52924l25.77778,-58.66667l25.77777,58.66667l-51.55556,0l0.00001,0z" id="xsvg_83" stroke="#000000"/>
  <path fill="#007f00" stroke-width="0" stroke-dasharray="null" stroke-linejoin="null" stroke-linecap="null" opacity="0.4" d="m308.33923,262.86258l25.77778,-58.66667l25.77777,58.66667l-51.55555,0z" stroke="#000000" id="xsvg_84"/>
  <rect stroke="#000000" id="xsvg_24" height="36.32102" width="635.80248" y="253.0823" x="1.03703" stroke-linecap="null" stroke-linejoin="null" stroke-dasharray="null" stroke-width="0" fill="#00ff7f"/>
  <ellipse stroke="#00bfbf" ry="24.88889" rx="55.11111" id="xsvg_68" cy="69.33333" cx="59.02223" stroke-linecap="null" stroke-linejoin="null" stroke-dasharray="null" stroke-width="0" fill="#ffffff"/>
  <ellipse transform="rotate(-1.3971754312515259 119.4599151611328,59.057079315186) " id="xsvg_70" ry="29.31034" rx="89.25601" cy="59.05708" cx="119.45992" stroke-linecap="null" stroke-linejoin="null" stroke-dasharray="null" stroke-width="0" fill="#ffffff" stroke="#00bfbf"/>
  <path fill="#007f00" stroke-width="0" stroke-dasharray="null" stroke-linejoin="null" stroke-linecap="null" opacity="0.4" d="m4.33921,259.30701l25.77778,-78.22222l25.77777,78.22222l-51.55555,0z" stroke="#000000" id="xsvg_89"/>
  <ellipse stroke="#000000" id="xsvg_36" ry="24" rx="32" cy="250.95" cx="36.81667" stroke-linecap="null" stroke-linejoin="null" stroke-dasharray="null" stroke-width="0" fill="#00ff7f"/>
  <ellipse stroke="#000000" id="xsvg_50" ry="24" rx="32" cy="248.53333" cx="78.4" stroke-linecap="null" stroke-linejoin="null" stroke-dasharray="null" stroke-width="0" fill="#00ff7f"/>
  <rect stroke="#000000" id="xsvg_18" height="28.00004" width="635.80248" y="293.61238" x="4.35734" stroke-linecap="null" stroke-linejoin="null" stroke-dasharray="null" stroke-width="0" fill="#ffff00"/>
  <rect stroke="#003f7f" id="xsvg_95" opacity="0.5" transform="rotate(4.131002426147461 425.8392639160163,302.8220520019531) " height="5.5746" width="49.79682" y="300.03478" x="400.94088" stroke-linecap="null" stroke-linejoin="null" stroke-dasharray="null" stroke-width="0" fill="#003f7f"/>
  <rect stroke="#003f7f" opacity="0.5" id="xsvg_92" transform="rotate(7.575130939483643 395.10885620117267,300.1472778320314) " height="5.65313" width="18.84279" y="297.3207" x="385.68748" stroke-linecap="null" stroke-linejoin="null" stroke-dasharray="null" stroke-width="0" fill="#003f7f"/>
  <rect stroke="#00bfbf" id="xsvg_94" transform="rotate(27.33866310119629 389.3301391601563,286.34329223632807) " height="9.6406" width="29.34699" y="281.52297" x="374.65663" stroke-linecap="null" stroke-linejoin="null" stroke-dasharray="null" stroke-width="0" fill="#e5e5e5"/>
  <rect stroke="#00bfbf" transform="rotate(27.33866310119629 389.6304626464846,286.0429382324219) " id="xsvg_71" height="9.6406" width="29.34699" y="281.22263" x="374.95697" stroke-linecap="null" stroke-linejoin="null" stroke-dasharray="null" stroke-width="0" fill="#ffffff"/>
  <path stroke="#00bfbf" transform="rotate(0.25867342948913574 388.98684692384154,352.7950439453079) " opacity="0.3" id="xsvg_58" d="m100.40002,348.9c204.31197,2.25 289.50479,-28.5 320.41546,-8.25c30.91067,20.25 24.1254,38.25 67.85269,28.5c43.72729,-9.75 67.85269,-42.75 100.27119,-24c32.41851,18.75 52.77431,17.25 80.6693,16.5c27.89499,-0.75 -26.38716,0 -27.04058,-0.15" stroke-linecap="null" stroke-linejoin="null" stroke-dasharray="null" fill="#007fff"/>
  <rect stroke="#00bfbf" id="xsvg_17" height="56.29626" width="634.66667" y="320.7111" x="2.13333" stroke-linecap="null" stroke-linejoin="null" stroke-dasharray="null" stroke-width="0" fill="#00ffff"/>
  <rect stroke="#000000" id="xsvg_15" height="94.3704" width="635.80248" y="379.79014" x="2.69752" stroke-linecap="null" stroke-linejoin="null" stroke-dasharray="null" stroke-width="0" fill="#ffff00"/>
  <path stroke="#00bfbf" transform="rotate(-178.44100952148438 233.54000854492185,342.26364135742193) " id="xsvg_59" opacity="0.25" d="m-55.04681,347.40687c204.31197,-2.97103 289.50479,37.63298 320.41545,10.89376c30.91067,-26.73923 24.1254,-50.50743 67.85269,-37.63298c43.72729,12.87444 67.85268,56.44948 100.27119,31.69093c32.4185,-24.75854 52.77431,-22.77786 80.6693,-21.78752c27.895,0.99034 -26.38715,0 -27.04058,0.19807" stroke-linecap="null" stroke-linejoin="null" stroke-dasharray="null" fill="#007fff"/>
  <polygon stroke="#000000" opacity="0.55" stroke-width="0" points="253.74530029296875,419.5277404785156 156.3557281467656,472.68304443359375 -1.2238869161744788,452.3795471191406 -1.2238869161744788,386.6759948730469 156.3557281467656,366.37249755859375 253.74530029296875,419.5277404785156 " fill="#007fff" id="xsvg_14"/>
  <ellipse stroke="#000000" id="xsvg_52" ry="24" rx="32" cy="243.2" cx="307.73333" stroke-linecap="null" stroke-linejoin="null" stroke-dasharray="null" stroke-width="0" fill="#00ff7f"/>
  <ellipse stroke="#000000" id="xsvg_53" ry="24" rx="32" cy="212.53333" cx="290.4" stroke-linecap="null" stroke-linejoin="null" stroke-dasharray="null" stroke-width="0" fill="#00ff7f"/>
  <path stroke="#000000" fill="#ff7f00" stroke-width="0" stroke-dasharray="null" stroke-linejoin="null" stroke-linecap="null" d="m145.01482,142.20987c0,-45.30387 31.04971,-82 69.38269,-82c38.33298,0 69.38269,36.69613 69.38269,82c0,45.30387 -31.04971,82 -69.38269,82c-38.33298,0 -69.38269,-36.69613 -69.38269,-82z" id="xsvg_6"/>
  <ellipse stroke="#7f0000" fill="#ff7f00" stroke-dasharray="null" stroke-linejoin="null" stroke-linecap="null" cx="258.67951" cy="98.35956" rx="24.02355" ry="14.66667" transform="rotate(-3.247354030609131 258.67950439453114,98.35955810546886) " id="xsvg_42"/>
  <path stroke="#00bfbf" id="xsvg_62" transform="rotate(-2.2128734588623047 374.36883544921756,331.9724121093757) " opacity="0.3" d="m146.50783,329.9883c161.31966,1.14611 228.58579,-14.51745 252.99208,-4.20242c24.4063,10.31503 19.04882,19.48394 53.5748,14.51745c34.52598,-4.9665 53.57479,-21.77618 79.17164,-12.22523c25.59685,9.55096 41.66929,8.78688 63.69448,8.40484c22.0252,-0.38204 -20.83464,0 -21.35057,-0.07641" stroke-linecap="null" stroke-linejoin="null" stroke-dasharray="null" fill="#007fff"/>
  <path stroke="#00bfbf" id="xsvg_60" transform="rotate(-178.44100952148438 189.6355285644531,357.12490844726557) " opacity="0.25" d="m-66.28472,362.26814c181.18489,-2.97102 256.73431,37.63299 284.14604,10.89376c27.41174,-26.73922 21.39453,-50.50742 60.17211,-37.63298c38.77758,12.87444 60.1721,56.44947 88.921,31.69093c28.74889,-24.75854 46.80053,-22.77786 71.53794,-21.78752c24.73743,0.99035 -23.40026,0 -23.97972,0.19807" stroke-linecap="null" stroke-linejoin="null" stroke-dasharray="null" fill="#007fff"/>
  <path stroke="#00bfbf" id="xsvg_63" transform="rotate(-178.44100952148438 336.29904174804693,359.9068603515625) " opacity="0.25" d="m-21.87813,365.05009c253.58012,-2.97102 359.3165,37.63299 397.68102,10.89376c38.36453,-26.73922 29.94303,-50.50742 84.21481,-37.63298c54.27177,12.87444 84.2148,56.44947 124.45076,31.69093c40.23596,-24.75854 65.50041,-22.77786 100.12205,-21.78752c34.62164,0.99035 -32.7502,0 -33.5612,0.19807" stroke-linecap="null" stroke-linejoin="null" stroke-dasharray="null" fill="#007fff"/>
  <path stroke="#00bfbf" id="xsvg_61" transform="rotate(-2.994277000427246 454.4036254882812,343.60864257812443) " opacity="0.3" d="m226.54265,340.78373c161.31966,1.63182 228.58579,-20.66977 252.99208,-5.98335c24.4063,14.68642 19.04882,27.74101 53.5748,20.66977c34.52598,-7.07124 53.57479,-31.00466 79.17164,-17.40612c25.59684,13.59853 41.66928,12.51065 63.69448,11.96671c22.0252,-0.54394 -20.83464,0 -21.35057,-0.10879" stroke-linecap="null" stroke-linejoin="null" stroke-dasharray="null" fill="#007fff"/>
  <ellipse stroke="#7f0000" fill="#ff7f00" stroke-width="0" stroke-dasharray="null" stroke-linejoin="null" stroke-linecap="null" cx="213.21543" cy="289.36728" id="xsvg_19" rx="115.49999" ry="135"/>
  <ellipse stroke="#000000" fill="#000000" stroke-width="4" stroke-dasharray="null" stroke-linejoin="null" stroke-linecap="null" cx="181.2" cy="222" id="xsvg_7" rx="3"/>
  <ellipse stroke="#7f0000" fill="#ff7f00" stroke-width="0" stroke-dasharray="null" stroke-linejoin="null" stroke-linecap="null" cx="255.36971" cy="112.10763" id="xsvg_35" rx="27.276" ry="15.99786" transform="rotate(-3.247354030609131 255.3696899414063,112.10763549804726) "/>
  <ellipse stroke="#bf5f00" fill="#e07d26" stroke-width="0.5" stroke-dasharray="null" stroke-linejoin="null" stroke-linecap="null" cx="223.7" cy="136.4" rx="36.5" ry="22" id="xsvg_48"/>
  <ellipse stroke="#bf5f00" fill="#ff7f00" stroke-width="0.5" stroke-dasharray="null" stroke-linejoin="null" stroke-linecap="null" cx="225.2" cy="143.4" id="xsvg_45" rx="52" ry="22"/>
  <ellipse stroke="#000000" fill="#ffffff" stroke-width="0.5" stroke-dasharray="null" stroke-linejoin="null" stroke-linecap="null" cx="243.79166" cy="241.21667" rx="14.66667" ry="88" id="xsvg_22"/>
  <path stroke="#000000" fill="#ce6402" stroke-width="0" stroke-dasharray="null" stroke-linejoin="null" stroke-linecap="null" d="m179.84822,140.79999c40.72159,7.76149 57.60615,52.21363 25.82345,29.63476c-31.78271,-22.57886 -25.82345,-29.63476 -25.82345,-29.63476z" id="xsvg_27" transform="rotate(112.03437805175781 200.81932067871088,158.7841033935547) "/>
  <ellipse stroke="#000000" fill="#ffffff" stroke-width="0.5" stroke-dasharray="null" stroke-linejoin="null" stroke-linecap="null" cx="202" cy="245.8" rx="14.66667" ry="88" id="xsvg_21"/>
  <ellipse stroke="#000000" fill="#ff7f00" stroke-dasharray="null" stroke-linejoin="null" stroke-linecap="null" cx="208" cy="254.13333" id="xsvg_20" rx="14.66667" ry="88" transform="rotate(2.632431983947754 208.00000000000168,254.1333312988283) "/>
  <ellipse stroke="#bf0000" fill="#ff7f00" stroke-width="0" stroke-dasharray="null" stroke-linejoin="null" stroke-linecap="null" cx="226.2" cy="148.4" rx="58" ry="22" id="xsvg_47"/>
  <ellipse stroke="#000000" fill="#ff7f00" stroke-dasharray="null" stroke-linejoin="null" stroke-linecap="null" cx="234.29241" cy="250.14996" rx="14.29204" ry="88" transform="rotate(-2.544801950454712 234.29240417480494,250.1499633789061) " id="xsvg_23"/>
  <ellipse stroke="#7f0000" ry="124.40625" rx="25.25" id="xsvg_8" cy="291.21771" cx="219.97406" stroke-linecap="null" stroke-linejoin="null" stroke-dasharray="null" stroke-width="0" fill="#ff7f00"/>
  <path stroke="#000000" fill="#ce6402" stroke-width="0.1" stroke-dasharray="null" stroke-linejoin="null" stroke-linecap="null" d="m173.455,135.00037c48.35108,9.52402 68.39908,64.07068 30.66166,36.36443c-37.73743,-27.70624 -30.66166,-36.36443 -30.66166,-36.36443z" id="xsvg_29" transform="rotate(112.8814926147461 198.3551788330078,157.0684661865234) "/>
  <ellipse stroke="#000000" fill="#7f0000" stroke-width="0" stroke-dasharray="null" stroke-linejoin="null" stroke-linecap="null" cx="222.5687" cy="163.03127" id="xsvg_39" rx="18.28125" ry="12.96875"/>
  <path stroke="#000000" fill="#ce6402" stroke-width="0.1" stroke-dasharray="null" stroke-linejoin="null" stroke-linecap="null" d="m231.51489,141.79999c40.72159,7.76149 57.60615,52.21363 25.82345,29.63476c-31.78271,-22.57886 -25.82345,-29.63476 -25.82345,-29.63476z" id="xsvg_28" transform="rotate(-6.348382472991943 252.48599243164094,159.78411865234384) "/>
  <path stroke="#000000" fill="#ce6402" stroke-width="0.1" stroke-dasharray="null" stroke-linejoin="null" stroke-linecap="null" d="m181.27293,141.81085c44.10414,8.26031 62.39123,55.56932 27.96848,31.53934c-34.42275,-24.02997 -27.96848,-31.53934 -27.96848,-31.53934z" transform="rotate(101.98526763916016 203.98599243164062,160.9507904052734) " id="xsvg_34"/>
  <path stroke="#000000" transform="rotate(-3.0945866107940674 245.48599243164102,164.78410339355474) " fill="#ce6402" stroke-width="0.1" stroke-dasharray="null" stroke-linejoin="null" stroke-linecap="null" d="m223.48415,145.85543c42.72308,8.16913 60.43753,54.95598 27.09268,31.19123c-33.34485,-23.76474 -27.09268,-31.19123 -27.09268,-31.19123z" id="xsvg_26"/>
  <ellipse stroke="#7f0000" fill="#ff7f00" stroke-dasharray="null" stroke-linejoin="null" stroke-linecap="null" cx="171.33333" cy="102.8" rx="30" ry="10" id="xsvg_40"/>
  <ellipse stroke="#7f0000" fill="#ff7f00" stroke-width="0" stroke-dasharray="null" stroke-linejoin="null" stroke-linecap="null" cx="172.66667" cy="106.13333" rx="30" ry="10.66667" id="xsvg_41"/>
  <ellipse stroke="#7f0000" fill="#000000" stroke-width="0" stroke-dasharray="null" stroke-linejoin="null" stroke-linecap="null" cx="175.33336" cy="115.46667" id="xsvg_31" rx="7.33331" ry="6.66667"/>
  <ellipse stroke="#7f0000" fill="#000000" stroke-width="0" stroke-dasharray="null" stroke-linejoin="null" stroke-linecap="null" cx="269.33333" cy="114.80001" rx="5.33333" ry="6" id="xsvg_32"/>
  <ellipse stroke="#000000" fill="#6b0000" stroke-width="0" stroke-dasharray="null" stroke-linejoin="null" stroke-linecap="null" cx="226.08568" cy="128.80293" id="xsvg_43" rx="5.06361" ry="3.04462" transform="rotate(34.39031982421875 226.08566284179685,128.80293273925784) "/>
  <ellipse stroke="#000000" fill="#6b0000" stroke-width="0" stroke-dasharray="null" stroke-linejoin="null" stroke-linecap="null" cx="221.85796" cy="129.04183" rx="5.00648" ry="2.60772" transform="rotate(-45.61294174194336 221.85795593261722,129.0418243408203) " id="xsvg_44"/>
  <path stroke="#000000" id="xsvg_2" fill="#ce6402" stroke-width="0.1" stroke-dasharray="null" stroke-linejoin="null" stroke-linecap="null" d="m171.8492,126.47323c48.9786,9.82476 69.28679,66.09382 31.0596,37.5127c-38.2272,-28.58111 -31.0596,-37.5127 -31.0596,-37.5127z" transform="rotate(120.4815673828125 197.07254028320312,149.23815917968753) "/>
  <path stroke="#000000" id="xsvg_3" fill="#ce6402" stroke-width="0.1" stroke-dasharray="null" stroke-linejoin="null" stroke-linecap="null" d="m228.86662,129.23573c46.03214,8.84833 65.11862,59.52509 29.19111,33.7845c-35.92752,-25.74058 -29.19111,-33.7845 -29.19111,-33.7845z" transform="rotate(-14.57502269744873 252.5725860595702,149.73815917968764) "/>
  <path stroke="#000000" transform="rotate(129.64988708496094 225.61898803710935,151.79998779296875) " id="xsvg_4" d="m214.19883,163.74762l0,-23.89525l22.84033,23.89525l-22.84033,0z" stroke-linecap="null" stroke-linejoin="null" stroke-dasharray="null" stroke-width="0" fill="#ce6402"/>
  <ellipse ry="103.00001" rx="33.00001" id="xsvg_5" cy="317.2" cx="126.73333" stroke-linecap="null" stroke-linejoin="null" stroke-dasharray="null" stroke-width="0" fill="#ff7f00" stroke="#7f0000"/>
  <ellipse stroke="#7f0000" ry="17.33333" rx="52" id="xsvg_9" cy="410.19998" cx="89.06667" stroke-linecap="null" stroke-linejoin="null" stroke-dasharray="null" stroke-width="0" fill="#ff7f00"/>
  <ellipse stroke="#000000" transform="rotate(9.18881893157959 318.66314697265597,424.26406860351557) " ry="21.24778" rx="41.98705" id="xsvg_11" cy="424.26406" cx="318.66316" stroke-linecap="null" stroke-linejoin="null" stroke-dasharray="null" stroke-width="0" fill="#ff7f00"/>
  <ellipse stroke="#000000" ry="81.33333" rx="28.66667" id="xsvg_13" cy="353.33333" cx="294.00002" stroke-linecap="null" stroke-linejoin="null" stroke-dasharray="null" stroke-width="0" fill="#ff7f00"/>
  <ellipse stroke="#000000" ry="24" rx="32" id="xsvg_30" cy="215.2" cx="551.73333" stroke-linecap="null" stroke-linejoin="null" stroke-dasharray="null" stroke-width="0" fill="#00ff7f"/>
  <ellipse stroke="#000000" id="xsvg_33" ry="24" rx="32" cy="219.2" cx="421.06667" stroke-linecap="null" stroke-linejoin="null" stroke-dasharray="null" stroke-width="0" fill="#00ff7f"/>
  <path fill="#007f00" stroke-width="0" stroke-dasharray="null" stroke-linejoin="null" stroke-linecap="null" opacity="0.4" d="m441.07996,252.19591l25.77778,-58.66667l25.77777,58.66667l-51.55555,0z" stroke="#000000" id="xsvg_99"/>
  <ellipse stroke="#000000" id="xsvg_37" ry="24" rx="32" cy="249.2" cx="409.39999" stroke-linecap="null" stroke-linejoin="null" stroke-dasharray="null" stroke-width="0" fill="#00ff7f"/>
  <ellipse stroke="#000000" id="xsvg_38" ry="24" rx="40.66667" cy="247.2" cx="525.73333" stroke-linecap="null" stroke-linejoin="null" stroke-dasharray="null" stroke-width="0" fill="#00ff7f"/>
  <ellipse stroke="#000000" id="xsvg_46" ry="24" rx="20" cy="248.53333" cx="451.73334" stroke-linecap="null" stroke-linejoin="null" stroke-dasharray="null" stroke-width="0" fill="#00ff7f"/>
  <ellipse stroke="#000000" id="xsvg_49" ry="24" rx="40.66667" cy="245.86667" cx="575.06667" stroke-linecap="null" stroke-linejoin="null" stroke-dasharray="null" stroke-width="0" fill="#00ff7f"/>
  <ellipse stroke="#000000" id="xsvg_51" ry="24" rx="32" cy="220.53333" cx="54.39999" stroke-linecap="null" stroke-linejoin="null" stroke-dasharray="null" stroke-width="0" fill="#00ff7f"/>
  <ellipse stroke="#00bfbf" ry="55.11111" rx="53.33333" id="xsvg_64" cy="19.55556" cx="610.13333" opacity="0.25" stroke-linecap="null" stroke-linejoin="null" stroke-dasharray="null" stroke-width="null" fill="#ffffff"/>
  <ellipse stroke="#00bfbf" id="xsvg_65" ry="66.66667" rx="69.33333" cy="34.66667" cx="601.24444" opacity="0.25" stroke-linecap="null" stroke-linejoin="null" stroke-dasharray="null" stroke-width="null" fill="#ffffff"/>
  <ellipse stroke="#00bfbf" id="xsvg_66" ry="115.55556" rx="111.11113" cy="37.33333" cx="603.91112" opacity="0.25" stroke-linecap="null" stroke-linejoin="null" stroke-dasharray="null" stroke-width="null" fill="#ffffff"/>
  <ellipse stroke="#00bfbf" id="xsvg_67" ry="128" rx="126.22223" cy="51.55555" cx="597.68889" opacity="0.25" stroke-linecap="null" stroke-linejoin="null" stroke-dasharray="null" stroke-width="null" fill="#ffffff"/>
  <ellipse stroke="#00bfbf" id="xsvg_69" ry="24.88889" rx="55.11111" cy="36.44445" cx="86.57778" stroke-linecap="null" stroke-linejoin="null" stroke-dasharray="null" stroke-width="0" fill="#ffffff"/>
  <rect stroke="#00bfbf" id="xsvg_72" transform="rotate(11.27048397064209 426.3102416992193,297.8096923828123) " height="8.87065" width="51.06341" y="293.37437" x="400.77855" stroke-linecap="null" stroke-linejoin="null" stroke-dasharray="null" stroke-width="0" fill="#ffffff"/>
  <ellipse stroke="#000000" id="xsvg_74" transform="rotate(-90.74791717529297 381.22909545898443,308.12533569335943) " ry="5.28367" rx="3.62142" cy="308.12534" cx="381.22909" stroke-linecap="null" stroke-linejoin="null" stroke-dasharray="null" stroke-width="0" fill="#003f7f" opacity="0.7"/>
  <rect stroke="#000000" transform="rotate(-1.6601945161819458 403.43179321289233,300.16348266601574) " id="xsvg_96" height="5.67538" width="1.57146" y="297.3258" x="402.64605" stroke-linecap="null" stroke-linejoin="null" stroke-dasharray="null" stroke-width="0" fill="#ffffff"/>
  <rect stroke="#000000" id="xsvg_97" transform="rotate(-1.6601945161819458 440.6886291503904,304.6722717285172) " height="5.67538" width="1.57146" y="301.83459" x="439.90289" stroke-linecap="null" stroke-linejoin="null" stroke-dasharray="null" stroke-width="0" fill="#ffffff"/>
  <ellipse stroke="#000000" id="xsvg_98" transform="rotate(89.7175064086914 382.65225219726557,297.8379821777344) " ry="6.23232" rx="3.85178" cy="297.83798" cx="382.65225" stroke-linecap="null" stroke-linejoin="null" stroke-dasharray="null" stroke-width="0" fill="#ffffff"/>
  <rect stroke="#000000" transform="rotate(-1.6601945161819458 382.57333374023546,302.4274902343747) " height="7.35644" width="1.57146" y="298.74927" x="381.78759" stroke-linecap="null" stroke-linejoin="null" stroke-dasharray="null" stroke-width="0" fill="#ffffff" id="xsvg_1"/>
  <rect stroke="#000000" transform="rotate(33.23659133911133 380.91259765624994,306.83135986328125) " height="3.79837" width="0.51952" y="304.93219" x="380.65283" stroke-linecap="null" stroke-linejoin="null" stroke-dasharray="null" stroke-width="0" fill="#ffffff" id="xsvg_10"/>
  <rect stroke="#000000" transform="rotate(-1.6601945161819458 382.70745849609193,307.6517028808586) " height="4.48592" width="0.84935" y="305.40878" x="382.28278" stroke-linecap="null" stroke-linejoin="null" stroke-dasharray="null" stroke-width="0" fill="#ffffff" id="xsvg_12"/>
  <rect stroke="#000000" transform="rotate(-25.189538955688477 384.2817993164062,306.38973999023426) " height="5.32789" width="0.56304" y="303.72579" x="384.00029" stroke-linecap="null" stroke-linejoin="null" stroke-dasharray="null" stroke-width="0" fill="#ffffff" id="xsvg_16"/>
  <ellipse stroke="#7f0000" ry="16" rx="9" id="xsvg_54" cy="319.4" cx="543.2" stroke-linecap="null" stroke-linejoin="null" stroke-dasharray="null" stroke-width="0" fill="#ffaaaa"/>
  <path stroke="#7f0000" transform="rotate(-18.29665756225586 541.553955078125,337.7380065917969) " id="xsvg_55" d="m526.55399,352.73802l0,-30.00003l30.00003,30.00003l-30.00003,0z" stroke-linecap="null" stroke-linejoin="null" stroke-dasharray="null" stroke-width="0" fill="#ffaaaa"/>
  <rect stroke="#7f0000" transform="rotate(-23.532371520996094 521.859436035156,319.76605224609364) " id="xsvg_56" height="26" width="4.83367" y="306.76605" x="519.44259" stroke-linecap="null" stroke-linejoin="null" stroke-dasharray="null" stroke-width="0" fill="#ffaaaa"/>
  <rect stroke="#7f0000" id="xsvg_85" transform="rotate(22.33064842224121 569.1093749999999,348.26605224609364) " height="11.2327" width="4.41297" y="342.6497" x="566.90294" stroke-linecap="null" stroke-linejoin="null" stroke-dasharray="null" stroke-width="0" fill="#ffaaaa"/>
  <rect stroke="#7f0000" id="xsvg_86" transform="rotate(22.33064842224121 519.2344360351562,302.1410827636718) " height="14.98645" width="3.68191" y="294.64785" x="517.39346" stroke-linecap="null" stroke-linejoin="null" stroke-dasharray="null" stroke-width="0" fill="#ffaaaa"/>
  <circle stroke="#000000" id="xsvg_75" r="13.437" cy="269.95" cx="562.15001" stroke-linecap="null" stroke-linejoin="null" stroke-dasharray="null" stroke-width="0" fill="#ff5656"/>
  <rect stroke="#7f0000" id="xsvg_87" transform="rotate(22.33064842224121 521.9566040039062,294.9730529785155) " height="4.08699" width="3.48273" y="292.92953" x="520.21522" stroke-linecap="null" stroke-linejoin="null" stroke-dasharray="null" stroke-width="0" fill="#ffaaaa"/>
  <path stroke="#7f0000" transform="rotate(-170.5989990234375 523.4649047851562,290.3027648925782) " id="xsvg_101" d="m519.83606,294.63099l3.62887,-8.65643l3.62887,8.65643l-7.25774,0z" stroke-linecap="null" stroke-linejoin="null" stroke-dasharray="null" stroke-width="0" fill="#ffaaaa"/>
  <path id="xsvg_102" stroke="#7f0000" transform="rotate(-170.5989990234375 572.1123657226561,341.0859680175782) " d="m568.48352,345.41419l3.62887,-8.65642l3.62887,8.65642l-7.25774,0z" stroke-linecap="null" stroke-linejoin="null" stroke-dasharray="null" stroke-width="0" fill="#ffaaaa"/>
  <path fill="none" stroke="#000000" stroke-width="0" stroke-dasharray="null" stroke-linejoin="null" stroke-linecap="null" opacity="0.4" id="xsvg_73" d="m46.10002,253.5c0.00025,1.575 0.33703,2.31764 1.01387,2.77499c0.76476,0.51675 1.42816,1.24823 2.11113,1.72501c0.72141,0.5036 1.41708,1.21683 2.20737,1.49661c0.83769,0.29657 1.80891,-0.03082 2.69262,0.00339c0.82686,0.03201 1.55643,0.64224 2.475,0.75c0.89486,0.10495 1.72257,0.21463 2.5105,0.4855c0.91369,0.31409 1.81326,0.06036 2.7395,0.3895c0.73632,0.26163 1.49995,0.61295 2.43213,0.625c0.87584,0.01135 1.65845,0.28168 2.51888,0.53699c0.86509,0.25671 1.96841,0.53857 2.612,0.08502c0.7113,-0.50128 1.05193,-1.45514 1.6975,-1.89365c0.77283,-0.52493 1.62218,-1.09995 2.29287,-1.54623c0.76847,-0.51135 1.31963,-1.03613 2.12875,-1.59976l0.7895,-0.35025l0.50137,-0.77411l0.402,-0.45801"/>
 </g>
</svg>
