<svg width="640" height="480" xmlns="http://www.w3.org/2000/svg" xmlns:svg="http://www.w3.org/2000/svg">
 <!-- Created with SVG-edit - http://svg-edit.googlecode.com/ -->
 <g>
  <title>Layer 1</title>
  <polygon id="svg_41" transform="rotate(-17.358171463012695 588.5667114257812,251.00000000000026) " stroke-width="0" stroke="#000000" points="622.3511962890625,251 596.5421752929688,286.52313232421875 554.7822265625,272.9544982910156 554.7822265625,229.04550170898438 596.5421752929688,215.4768829345703 622.3511962890625,251 " fill="#ff007f"/>
  <polygon transform="rotate(-26.06640625 41.566726684570455,251.00000000000003) " stroke-width="0" stroke="#000000" points="75.35122680664062,251 49.54216384887695,286.52313232421875 7.782224655151367,272.9544982910156 7.782224655151367,229.04550170898438 49.54216384887695,215.4768829345703 75.35122680664062,251 " fill="#ff007f" id="svg_39"/>
  <rect stroke="#000000" id="svg_22" height="63" width="153" y="223" x="51" stroke-linecap="null" stroke-linejoin="null" stroke-dasharray="null" fill="#ff007f"/>
  <rect stroke="#000000" id="svg_17" height="96" width="201" y="185" x="363" stroke-linecap="null" stroke-linejoin="null" stroke-dasharray="null" stroke-width="null" fill="#ff007f"/>
  <polygon id="svg_19" transform="rotate(-14.606425285339355 521.0176391601564,211.99999999999983) " stroke-width="0" stroke="#000000" points="596.9615478515625,212 538.945556640625,291.8521728515625 445.0736999511719,261.3513488769531 445.0736999511719,162.64865112304688 538.945556640625,132.14784240722656 596.9615478515625,212 " fill="#ff007f"/>
  <path transform="rotate(-113.92172241210938 397.2149353027344,232.7250213623047) " stroke="#000000" id="svg_16" d="m364.21494,263.72506l0,-62.00008l66,62.00008l-66,0z" stroke-linecap="null" stroke-linejoin="null" stroke-dasharray="null" stroke-width="0" fill="#ff007f"/>
  <polygon id="svg_15" transform="rotate(-18.44471549987793 345.01763916015614,211.99999999999997) " stroke-width="0" stroke="#000000" points="420.9615478515625,212 362.945556640625,291.8521728515625 269.0736999511719,261.3513488769531 269.0736999511719,162.64865112304688 362.945556640625,132.14784240722656 420.9615478515625,212 " fill="#ff007f"/>
  <path stroke="#000000" transform="rotate(0.632830798625946 232.26986694336335,196.63711547851614) " id="svg_8" d="m19.85683,196.78352c28.86292,-60.87051 64.0396,-86.85182 91.09859,-53.44728c27.05899,33.40455 38.78455,33.40455 38.78455,33.40455c0,0 17.13736,7.42323 36.98061,0c19.84326,-7.42323 -7.21573,-97.24435 53.21601,-47.50869c60.43174,49.73566 70.35336,54.93192 89.29466,49.73566c18.94129,-5.19626 16.23539,-90.56344 60.43174,-46.02404c44.19634,44.5394 25.25505,275.40194 55.01994,46.02404" stroke-linecap="null" stroke-linejoin="null" stroke-dasharray="null" stroke-width="null" fill="#00ffff"/>
  <polygon stroke="#000000" id="svg_13" transform="rotate(-43.78843307495117 348.51763916015625,177.50001525878906) " stroke-width="0" points="424.47650146484375,177.5 366.4490966796875,256.6452331542969 272.55877685546875,226.4144287109375 272.55877685546875,128.5855712890625 366.4490966796875,98.35479736328125 424.47650146484375,177.5 " fill="#ff007f"/>
  <polygon id="svg_14" transform="rotate(-18.44471549987793 246.01762390136724,209) " stroke-width="0" stroke="#000000" points="321.9615478515625,209 263.945556640625,288.8521728515625 170.07369995117188,258.3513488769531 170.07369995117188,159.64865112304688 263.945556640625,129.14784240722656 321.9615478515625,209 " fill="#ff007f"/>
  <polygon id="svg_20" transform="rotate(-63.20335388183594 199.01762390136722,178.00000000000003) " stroke-width="0" stroke="#000000" points="274.9615478515625,178 216.945556640625,257.8521728515625 123.07369995117188,227.35134887695312 123.07369995117188,128.64865112304688 216.945556640625,98.14784240722656 274.9615478515625,178 " fill="#ff007f"/>
  <polygon id="svg_21" transform="rotate(-98.9227066040039 91.01762390136719,192) " stroke-width="0" stroke="#000000" points="166.9615478515625,192 108.945556640625,271.8521728515625 15.073699951171875,241.35134887695312 15.073699951171875,142.64865112304688 108.945556640625,112.14784240722656 166.9615478515625,192 " fill="#ff007f"/>
  <polygon stroke="#000000" id="svg_106" transform="rotate(-97.34906005859375 89.69770812988278,197.0444641113281) " stroke-width="0" points="169.07570209404804,197.04451400430997 108.43635883232929,271.4034816794744 10.319713973015325,243.00084962239515 10.319713973015325,151.08807654389756 108.43635883232929,122.68545176127026 169.07570209404804,197.04451400430997 " fill="#ce2979"/>
  <path id="svg_93" d="m136,276l0,-133l133,133l-133,0z" stroke-linecap="null" stroke-linejoin="null" stroke-dasharray="null" stroke-width="0" stroke="#000000" fill="#ff00ff"/>
  <path stroke="#000000" transform="rotate(166.76475524902344 205.33497619628906,193.01498413085938) " id="svg_94" d="m160.02253,264.23294l0,-142.43589l90.62489,142.43589l-90.62489,0z" stroke-linecap="null" stroke-linejoin="null" stroke-dasharray="null" stroke-width="0" fill="#1d991d"/>
  <path stroke="#000000" id="svg_97" transform="rotate(165.4650421142578 205.22509765625003,174.29913330078125) " d="m171.40402,220.82752l0,-93.05678l67.64215,93.05678l-67.64215,0z" stroke-linecap="null" stroke-linejoin="null" stroke-dasharray="null" stroke-width="0" fill="#3da56f"/>
  <path stroke="#000000" id="svg_98" d="m146,267l0,-77l77,77l-77,0z" stroke-linecap="null" stroke-linejoin="null" stroke-dasharray="null" stroke-width="0" fill="#7f00ff"/>
  <path stroke="#000000" id="svg_99" transform="rotate(-151.79684448242188 75.3349838256836,189.51498413085938) " d="m47.04572,249.66672l0,-120.30344l56.57853,120.30344l-56.57853,0z" stroke-linecap="null" stroke-linejoin="null" stroke-dasharray="null" stroke-width="0" fill="#1d991d"/>
  <path stroke="#000000" id="svg_100" transform="rotate(-139.81192016601562 85.22509765625,165.29913330078125) " d="m62.37447,190.38808l0,-50.17791l45.70126,50.17791l-45.70126,0z" stroke-linecap="null" stroke-linejoin="null" stroke-dasharray="null" stroke-width="0" fill="#3da56f"/>
  <path stroke="#000000" transform="rotate(-90.56170654296875 92.99999999999999,228.5) " id="svg_101" d="m53.69311,264.8217l0,-72.6434l78.61377,72.6434l-78.61377,0z" stroke-linecap="null" stroke-linejoin="null" stroke-dasharray="null" stroke-width="0" fill="#641ab2"/>
  <path stroke="#000000" id="svg_102" transform="rotate(-85.8150863647461 103.5189208984375,228.57455444335938) " d="m69.28601,248.00981l0,-38.87051l68.46582,38.87051l-68.46582,0z" stroke-linecap="null" stroke-linejoin="null" stroke-dasharray="null" stroke-width="0" fill="#bf3bbf"/>
  <polygon stroke="#000000" transform="rotate(-43.48143005371094 324.17788696289057,140.44784545898438) " stroke-width="0" points="359.4957275390625,140.44786071777344 332.51531982421875,175.51318359375 288.86004638671875,162.11941528320312 288.86004638671875,118.77628326416016 332.51531982421875,105.38249969482422 359.4957275390625,140.44786071777344 " fill="#ce2979" id="svg_103"/>
  <path transform="rotate(-113.73051452636719 297.6716918945312,229.6591491699218) " id="svg_105" d="m259.83017,255.45106l0,-51.5838l75.68305,51.5838l-75.68305,0z" stroke-linecap="null" stroke-linejoin="null" stroke-dasharray="null" stroke-width="0" fill="#ce2979" stroke="#000000"/>
  <polygon stroke="#000000" id="svg_108" transform="rotate(-72.29132843017578 456.06896972656256,224.21881103515625) " stroke-width="0" points="515.3601965796004,224.21881760905882 470.0657789102877,239.86589707683225 396.77773220696304,233.88922776530882 396.77773220696304,214.5483769352307 470.0657789102877,208.57172288249632 515.3601965796004,224.21881760905882 " fill="#ce2979"/>
  <polygon stroke="#000000" id="svg_107" transform="rotate(47.8167839050293 33.4564056396484,261.86651611328125) " stroke-width="0" points="64.9476814582805,261.86657925390796 40.890529663846905,285.654936793396 1.9651298835734679,276.5685798608913 1.9651298835734679,247.16445892351408 40.890529663846905,238.07810199100936 64.9476814582805,261.86657925390796 " fill="#ce2979"/>
  <ellipse ry="9.5" rx="294.49998" id="svg_1" cy="285.5" cx="318.49997" fill="#007fff" stroke="#000000"/>
  <path transform="rotate(-30.16181182861328 319.7179870605468,154.1517028808594) " d="m291.63906,175.8838l0,-43.4642l56.15784,43.4642l-56.15784,0z" stroke-linecap="null" stroke-linejoin="null" stroke-dasharray="null" stroke-width="0" fill="#ed80b4" id="svg_2" stroke="#000000"/>
  <path transform="rotate(-4.605790138244629 506.2179870605465,180.6517028808588) " d="m476.12195,206.86229l0,-52.42119l60.19206,52.42119l-60.19206,0z" stroke-linecap="null" stroke-linejoin="null" stroke-dasharray="null" stroke-width="0" fill="#ed80b4" id="svg_3" stroke="#000000"/>
  <polygon stroke="#000000" transform="rotate(-14.595355033874512 519.1778564453123,167.4478454589842) " stroke-width="0" points="554.4957275390625,167.44786071777344 527.5153198242188,202.51318359375 483.86004638671875,189.11941528320312 483.86004638671875,145.77627563476562 527.5153198242188,132.38250732421875 554.4957275390625,167.44786071777344 " fill="#ce2979" id="svg_4"/>
  <path transform="rotate(-95.77244567871094 480.93310546875006,154.5369873046875) " d="m462.22651,191.45756l0,-73.84112l37.41325,73.84112l-37.41325,0z" stroke-linecap="null" stroke-linejoin="null" stroke-dasharray="null" stroke-width="0" fill="#238c23" id="svg_6" stroke="#000000"/>
  <path transform="rotate(-8.418610572814941 500.22644042968693,183.3141174316408) " d="m484.41274,202.22229l0,-37.81633l31.62745,37.81633l-31.62745,0z" stroke-linecap="null" stroke-linejoin="null" stroke-dasharray="null" stroke-width="0" fill="#238c23" id="svg_18" stroke="#000000"/>
  <path transform="rotate(-95.26133728027344 484.0841064453125,156.12461853027344) " d="m472.32187,180.49674l0,-48.74422l23.5245,48.74422l-23.5245,0z" stroke-linecap="null" stroke-linejoin="null" stroke-dasharray="null" stroke-width="0" fill="#3da56f" id="svg_23" stroke="#000000"/>
  <path transform="rotate(-141.4828643798828 564.5325317382811,230.33117675781253) " d="m518.79263,255.02533l0,-49.38829l91.4798,49.38829l-91.4798,0z" stroke-linecap="null" stroke-linejoin="null" stroke-dasharray="null" stroke-width="0" fill="#ed2a88" id="svg_24" stroke="#000000"/>
  <path transform="rotate(84.21366119384766 531.1336669921875,234.12783813476557) " d="m502.07639,243.36579l0,-18.47589l58.11459,18.47589l-58.11459,0z" stroke-linecap="null" stroke-linejoin="null" stroke-dasharray="null" stroke-width="0" fill="#ce2979" id="svg_25" stroke="#000000"/>
  <path transform="rotate(-15.120302200317383 496.99310302734375,185.18962097167963) " d="m489.69206,197.23363l0,-24.08802l14.60206,24.08802l-14.60206,0z" stroke-linecap="null" stroke-linejoin="null" stroke-dasharray="null" stroke-width="0" fill="#3da56f" id="svg_26" stroke="#000000"/>
  <path transform="rotate(-95.77244567871094 499.43310546875006,151.53697204589844) " d="m484.63422,167.45803l0,-31.8421l29.59778,31.8421l-29.59778,0z" stroke-linecap="null" stroke-linejoin="null" stroke-dasharray="null" stroke-width="0" fill="#1f771f" id="svg_27" stroke="#000000"/>
  <path transform="rotate(-19.632776260375977 601.2179565429688,227.6517028808592) " d="m588.0756,247.26419l0,-39.22495l26.28477,39.22495l-26.28477,0z" stroke-linecap="null" stroke-linejoin="null" stroke-dasharray="null" stroke-width="0" fill="#ed80b4" id="svg_30" stroke="#000000"/>
 </g>
</svg>
