<svg width="640" height="460" xmlns="http://www.w3.org/2000/svg" xmlns:svg="http://www.w3.org/2000/svg">
 <!-- Created with SVG-edit - http://svg-edit.googlecode.com/ -->
 <g>
  <title>Layer 1</title>
  <ellipse ry="182.49999" rx="190" id="svg_1" cy="269.95485" cx="335.67709" stroke-width="0" fill="#FF0000" stroke="#000000"/>
  <path fill="#ffffaa" stroke-width="0" stroke-dasharray="null" stroke-linejoin="null" stroke-linecap="null" d="m219.91237,373.45487c0,0 -2.68603,-25 30.88937,-24c33.5754,1 29.54635,4 48.34857,17c18.80223,13 2.68604,4 36.26144,-10c33.5754,-14 38.94746,-34 71.17985,-1c32.23238,33 48.34857,50 51.03461,33c2.68603,-17 8.05809,-36 2.68603,-40" stroke="#000000" id="svg_6" transform="rotate(179.2418212890625 341.23602294921875,366.33111572265625) "/>
  <path fill="#ffffaa" stroke-width="0" stroke-dasharray="null" stroke-linejoin="null" stroke-linecap="null" d="m230.91237,193.45487c0,0 -2.68603,-25 30.88937,-24c33.5754,1 29.54635,4 48.34858,17c18.80222,13 2.68603,4 36.26143,-10c33.5754,-14 38.94746,-34 71.17985,-1c32.23238,33 48.34858,50 51.03461,33c2.68603,-17 8.0581,-36 2.68603,-40" id="svg_5" stroke="#000000"/>
  <rect fill="#ffffaa" stroke-width="0" stroke-dasharray="null" stroke-linejoin="null" stroke-linecap="null" x="240.92675" y="180.4729" width="224" height="191.94945" id="svg_7" transform="rotate(-5.525489807128906 352.92675781250057,276.4476013183592) " stroke="#000000"/>
  <path stroke="#000000" transform="rotate(-3.975496768951416 264.4511718750005,276.70288085937506) " opacity="0.5" id="svg_4" d="m234.10774,185.33713c0,0 22.999,-25.8482 36.58931,-10.33928c13.59032,15.50892 13.59032,14.47499 20.90818,38.25533c7.31786,23.78034 9.40868,19.64463 6.27245,63.0696c-3.13623,43.42497 -7.31786,44.4589 -17.77195,70.30709c-10.45409,25.8482 -15.68113,32.05176 -16.62129,31.58146c-0.94016,-0.4703 -33.55834,8.74173 -33.55834,3.57209c0,-5.16964 -3.13623,2.06786 10.45409,-23.78034c13.59032,-25.8482 18.81736,-35.15355 22.999,-45.49283c4.18164,-10.33928 9.40868,-13.44106 9.40868,-22.74641c0,-9.30535 -1.04541,2.06786 -3.13623,-28.94998c-2.09082,-31.01784 -1.04541,-10.33928 -13.59032,-29.98391c-12.54491,-19.64463 -20.90818,-35.15355 -21.84834,-35.62385c-0.94016,-0.4703 -0.10525,-9.86898 -0.10525,-9.86898z" stroke-linecap="null" stroke-linejoin="null" stroke-dasharray="null" stroke-width="0" fill="#ffd4aa"/>
  <ellipse fill="#ffffff" stroke-width="0" stroke-dasharray="null" stroke-linejoin="null" stroke-linecap="null" cx="333.25453" cy="86.70108" id="svg_9" rx="62" ry="5.69761" transform="rotate(-5.079608917236328 333.2545166015619,86.70107269287085) " stroke="#000000"/>
  <path stroke="#000000" id="svg_8" transform="rotate(0.8535829186439514 436.9822998046956,278.1233520507808) " opacity="0.5" d="m473.6572,187.64184c0,0 -27.79797,-25.59803 -44.22404,-10.23922c-16.42608,15.35882 -16.42608,14.3349 -25.27088,37.88509c-8.84482,23.55019 -11.37191,19.45451 -7.58127,62.45921c3.79064,43.0047 8.84481,44.02863 21.48025,69.62667c12.63544,25.59803 18.95317,31.74156 20.0895,31.27581c1.13632,-0.46576 40.56061,8.65712 40.56061,3.53751c0,-5.11961 3.79064,2.04785 -12.63543,-23.55019c-16.42608,-25.59803 -22.7438,-34.81332 -27.79797,-45.05254c-5.05418,-10.23922 -11.3719,-13.31098 -11.3719,-22.52628c0,-9.21529 1.26355,2.04785 3.79062,-28.66979c2.52709,-30.71765 1.26355,-10.23922 16.42608,-29.69373c15.16253,-19.45451 25.27088,-34.81333 26.40722,-35.27908c1.13632,-0.46575 0.12721,-9.77347 0.12721,-9.77347z" stroke-linecap="null" stroke-linejoin="null" stroke-dasharray="null" stroke-width="0" fill="#ffd4aa"/>
  <path id="svg_10" stroke="#000000" fill="#3f3f3f" stroke-width="0" stroke-dasharray="null" stroke-linejoin="null" stroke-linecap="null" d="m320.79084,95.22627c0,0 1.01823,-14.1378 3.39409,-16.06569c2.37586,-1.92788 6.44876,-8.99678 6.75401,-9.28909c0.30523,-0.29231 -3.35992,-4.20608 -3.05468,-4.49839c0.30523,-0.29231 -10.82692,7.36121 -11.50573,14.43011c-0.67882,7.0689 0.67881,10.28204 0.67881,14.1378c0,3.85576 3.7335,1.28525 3.7335,1.28525l0,0.00001z" transform="rotate(141.4326934814453 323.57275390625,80.71530151367188) "/>
  <path stroke="#000000" fill="#7f0000" stroke-width="0" stroke-dasharray="null" stroke-linejoin="null" stroke-linecap="null" d="m319.04084,96.22627c0,0 1.01823,-14.1378 3.39409,-16.06569c2.37587,-1.92788 6.44876,-8.99678 6.75401,-9.28909c0.30523,-0.29231 -3.35991,-4.20608 -3.05468,-4.49839c0.30523,-0.29231 -10.82692,7.36121 -11.50573,14.43011c-0.67881,7.0689 0.67881,10.28204 0.67881,14.1378c0,3.85576 3.7335,1.28525 3.7335,1.28525l0,0.00001z" id="svg_12" transform="rotate(141.4326934814453 321.82275390624994,81.71530151367185) "/>
  <path stroke="#000000" transform="rotate(10.840646743774414 434.0640563964849,263.24783325195284) " id="svg_11" d="m411.83183,152.37597c7.43931,1.62991 -57.38738,166.93477 -41.17386,182.11215c16.21352,15.17739 30.36484,39.71115 29.43591,39.69898c-0.92893,-0.01217 100.91232,-2.32281 99.98338,-2.33498c-0.92893,-0.01217 -58.52064,-58.36239 -59.44957,-58.37456c-0.92894,-0.01217 -20.6891,-18.66768 -9.88009,-31.51009c10.80902,-12.8424 10.80902,-31.52225 9.88009,-31.53442c-0.92894,-0.01217 -20.6891,-71.20479 -21.61803,-71.21696c-0.92893,-0.01217 -14.61714,-28.47004 -7.17783,-26.84012z" opacity="0.2" stroke-linecap="null" stroke-linejoin="null" stroke-dasharray="null" stroke-width="0" fill="#ffd4aa"/>
  <ellipse fill="#ffffff" stroke="#000000" stroke-width="0" stroke-dasharray="null" stroke-linejoin="null" stroke-linecap="null" cx="512.89932" cy="274.45487" rx="99" ry="117" id="svg_3"/>
  <path stroke="#000000" id="svg_13" transform="rotate(-17.301237106323242 222.70108032226585,252.60574340820315) " d="m258.81811,183.72521c0,0 74.7281,75.60936 51.20805,85.03563c-23.52005,9.42627 -35.528,52.733 -34.18046,52.72545c1.34755,-0.00756 -146.38787,-1.44264 -145.04031,-1.45019c1.34755,-0.00756 84.89263,-36.24735 86.24018,-36.25491c1.34756,-0.00756 30.01252,-11.59401 14.33249,-19.57009c-15.68004,-7.97608 -15.68004,-19.57765 -14.33249,-19.5852c1.34756,-0.00756 30.01252,-44.22343 31.36007,-44.23099c1.34754,-0.00756 10.41247,-16.66969 10.41247,-16.66969z" opacity="0.025" stroke-linecap="null" stroke-linejoin="null" stroke-dasharray="null" stroke-width="0" fill="#7f0000"/>
  <ellipse fill="#ffffff" stroke="#000000" stroke-width="0" stroke-dasharray="null" stroke-linejoin="null" stroke-linecap="null" cx="180.89932" cy="286.45487" id="svg_2" rx="99" ry="117"/>
 </g>
</svg>
