<svg width="640" height="459.99999999999994" xmlns="http://www.w3.org/2000/svg" xmlns:svg="http://www.w3.org/2000/svg">
 <!-- Created with SVG-edit - http://svg-edit.googlecode.com/ -->
 <g>
  <title>Layer 1</title>
  <ellipse id="svg_17" stroke="#000000" fill="#7f0202" stroke-width="0" cx="342.7882" cy="268.17707" rx="190" ry="182.49999"/>
  <ellipse opacity="0.5" id="svg_18" stroke="#000000" fill="#ff0000" stroke-width="0" cx="339.23265" cy="269.95485" rx="190" ry="182.49999"/>
  <ellipse stroke="#000000" fill="#FF0000" stroke-width="0" cx="333.01042" cy="268.17706" id="svg_1" rx="192.66667" ry="184.27778"/>
  <path transform="rotate(179.2418212890625 341.23602294921875,366.33111572265625) " id="svg_6" stroke="#000000" d="m219.91237,373.45487c0,0 -2.68603,-25 30.88937,-24c33.5754,1 29.54635,4 48.34857,17c18.80223,13 2.68604,4 36.26144,-10c33.5754,-14 38.94746,-34 71.17985,-1c32.23238,33 48.34857,50 51.03461,33c2.68603,-17 8.05809,-36 2.68603,-40" stroke-linecap="null" stroke-linejoin="null" stroke-dasharray="null" stroke-width="0" fill="#ffffaa"/>
  <path stroke="#000000" id="svg_5" d="m243.35681,193.45487c0,0 -2.68603,-25 30.88937,-24c33.5754,1 29.54635,4 48.34858,17c18.80222,13 2.68603,4 36.26143,-10c33.5754,-14 38.94746,-34 71.17985,-1c32.23238,33 48.34858,50 51.03461,33c2.68603,-17 8.0581,-36 2.68603,-40" stroke-linecap="null" stroke-linejoin="null" stroke-dasharray="null" stroke-width="0" fill="#ffffaa"/>
  <rect stroke="#000000" transform="rotate(-5.525489807128906 352.92675781250057,276.4476013183592) " id="svg_7" height="191.94945" width="224" y="180.4729" x="240.92675" stroke-linecap="null" stroke-linejoin="null" stroke-dasharray="null" stroke-width="0" fill="#ffffaa"/>
  <path fill="#ffd4aa" stroke-width="0" stroke-dasharray="null" stroke-linejoin="null" stroke-linecap="null" d="m234.10774,185.33713c0,0 22.999,-25.8482 36.58931,-10.33928c13.59032,15.50892 13.59032,14.47499 20.90818,38.25533c7.31786,23.78034 9.40868,19.64463 6.27245,63.0696c-3.13623,43.42497 -7.31786,44.4589 -17.77195,70.30709c-10.45409,25.8482 -15.68113,32.05176 -16.62129,31.58146c-0.94016,-0.4703 -33.55834,8.74173 -33.55834,3.57209c0,-5.16964 -3.13623,2.06786 10.45409,-23.78034c13.59032,-25.8482 18.81736,-35.15355 22.999,-45.49283c4.18164,-10.33928 9.40868,-13.44106 9.40868,-22.74641c0,-9.30535 -1.04541,2.06786 -3.13623,-28.94998c-2.09082,-31.01784 -1.04541,-10.33928 -13.59032,-29.98391c-12.54491,-19.64463 -20.90818,-35.15355 -21.84834,-35.62385c-0.94016,-0.4703 -0.10525,-9.86898 -0.10525,-9.86898l0.00001,0.00001z" id="svg_4" opacity="0.5" transform="rotate(-3.975496768951416 264.4511718750005,276.70288085937506) " stroke="#000000"/>
  <ellipse stroke="#000000" transform="rotate(-5.079608917236328 333.2545166015619,86.70107269287085) " ry="5.69761" rx="62" id="svg_9" cy="86.70108" cx="333.25453" stroke-linecap="null" stroke-linejoin="null" stroke-dasharray="null" stroke-width="0" fill="#ffffff"/>
  <path fill="#ffd4aa" stroke-width="0" stroke-dasharray="null" stroke-linejoin="null" stroke-linecap="null" d="m473.6572,187.64184c0,0 -27.79797,-25.59803 -44.22404,-10.23922c-16.42608,15.35882 -16.42608,14.3349 -25.27088,37.88509c-8.84482,23.55019 -11.37191,19.45451 -7.58127,62.45921c3.79064,43.0047 8.84481,44.02863 21.48025,69.62667c12.63544,25.59803 18.95317,31.74156 20.0895,31.27581c1.13632,-0.46576 40.56061,8.65712 40.56061,3.53751c0,-5.11961 3.79064,2.04785 -12.63543,-23.55019c-16.42608,-25.59803 -22.7438,-34.81332 -27.79797,-45.05254c-5.05418,-10.23922 -11.3719,-13.31098 -11.3719,-22.52628c0,-9.21529 1.26355,2.04785 3.79062,-28.66979c2.52709,-30.71765 1.26355,-10.23922 16.42608,-29.69373c15.16253,-19.45451 25.27088,-34.81333 26.40722,-35.27908c1.13632,-0.46575 0.12721,-9.77347 0.12721,-9.77347l0,0.00001z" opacity="0.5" transform="rotate(0.8535829186439514 436.9822998046956,278.1233520507808) " id="svg_8" stroke="#000000"/>
  <path transform="rotate(141.4326934814453 323.57275390625,80.71530151367188) " d="m320.79084,95.22627c0,0 1.01823,-14.1378 3.39409,-16.06569c2.37586,-1.92788 6.44876,-8.99678 6.75401,-9.28909c0.30523,-0.29231 -3.35992,-4.20608 -3.05468,-4.49839c0.30523,-0.29231 -10.82692,7.36121 -11.50573,14.43011c-0.67882,7.0689 0.67881,10.28204 0.67881,14.1378c0,3.85576 3.7335,1.28525 3.7335,1.28525l0,0.00001z" stroke-linecap="null" stroke-linejoin="null" stroke-dasharray="null" stroke-width="0" fill="#3f3f3f" stroke="#000000" id="svg_10"/>
  <path transform="rotate(141.4326934814453 321.82275390624994,81.71530151367185) " id="svg_12" d="m319.04084,96.22627c0,0 1.01823,-14.1378 3.39409,-16.06569c2.37587,-1.92788 6.44876,-8.99678 6.75401,-9.28909c0.30523,-0.29231 -3.35991,-4.20608 -3.05468,-4.49839c0.30523,-0.29231 -10.82692,7.36121 -11.50573,14.43011c-0.67881,7.0689 0.67881,10.28204 0.67881,14.1378c0,3.85576 3.7335,1.28525 3.7335,1.28525l0,0.00001z" stroke-linecap="null" stroke-linejoin="null" stroke-dasharray="null" stroke-width="0" fill="#7f0000" stroke="#000000"/>
  <path fill="#ffd4aa" stroke-width="0" stroke-dasharray="null" stroke-linejoin="null" stroke-linecap="null" opacity="0.2" d="m411.83183,147.04264c7.43931,1.62991 -57.38738,166.93477 -41.17386,182.11215c16.21352,15.17739 30.36484,39.71115 29.43591,39.69898c-0.92893,-0.01217 100.91232,-2.32281 99.98338,-2.33498c-0.92893,-0.01217 -58.52064,-58.36239 -59.44957,-58.37456c-0.92894,-0.01217 -20.6891,-18.66768 -9.88009,-31.51009c10.80902,-12.8424 10.80902,-31.52225 9.88009,-31.53442c-0.92894,-0.01217 -20.6891,-71.20479 -21.61803,-71.21696c-0.92893,-0.01217 -14.61714,-28.47004 -7.17783,-26.84012z" id="svg_11" transform="rotate(10.840646743774414 434.06408691406267,257.91448974609364) " stroke="#000000"/>
  <ellipse id="svg_3" ry="117" rx="99" cy="274.45487" cx="512.89932" stroke-linecap="null" stroke-linejoin="null" stroke-dasharray="null" stroke-width="0" stroke="#000000" fill="#ffffff"/>
  <path stroke="#000000" fill="#7f0000" stroke-width="0" stroke-dasharray="null" stroke-linejoin="null" stroke-linecap="null" opacity="0.025" d="m259.87321,190.66029c0,0 74.7281,71.71498 51.20805,80.65574c-23.52005,8.94076 -35.528,50.0169 -34.18046,50.00974c1.34755,-0.00717 -146.38787,-1.36833 -145.04031,-1.3755c1.34755,-0.00717 84.89263,-34.38037 86.24018,-34.38754c1.34756,-0.00717 30.01252,-10.99684 14.33249,-18.5621c-15.68004,-7.56526 -15.68004,-18.56927 -14.33249,-18.57643c1.34756,-0.00717 30.01252,-41.94563 31.36007,-41.9528c1.34754,-0.00717 10.41247,-15.81109 10.41247,-15.81109l0,-0.00001z" transform="rotate(-17.301237106323242 223.75613403320304,255.9930267333984) " id="svg_13"/>
  <ellipse ry="117" rx="99" id="svg_2" cy="286.45487" cx="180.89932" stroke-linecap="null" stroke-linejoin="null" stroke-dasharray="null" stroke-width="0" stroke="#000000" fill="#ffffff"/>
  <path id="svg_14" d="m315.64199,198.58643l29.2469,84.08024l-17.77778,76.44444l12.44444,21.33334l35.55556,0l-28.44444,-44.44445l12.44444,-32l12.44444,-28.44444l-28.44444,-48l12.44444,-44.44445" opacity="0.04" stroke-linecap="null" stroke-linejoin="null" stroke-dasharray="null" stroke-width="0" stroke="#000000" fill="#ff7f00"/>
  <path id="svg_15" d="m299.64199,175.47532l29.2469,84.08024l-17.77778,76.44444l12.44444,21.33334l35.55556,0l-28.44444,-44.44445l12.44444,-32l12.44444,-28.44444l-28.44444,-48l12.44444,-44.44445" opacity="0.02" stroke-linecap="null" stroke-linejoin="null" stroke-dasharray="null" stroke-width="0" stroke="#000000" fill="#ff0000"/>
  <rect stroke="#000000" transform="rotate(41.01637649536133 137.41009521484372,112.60252380371095) " id="svg_16" height="25.16853" width="11.90176" y="100.01826" x="131.45922" stroke-linecap="null" stroke-linejoin="null" stroke-dasharray="null" stroke-width="0" fill="#ffffff"/>
  <path stroke="#000000" transform="rotate(-1.8846783638000488 344.02716064453324,273.0270080566399) " id="svg_19" d="m344.39163,344.52898c0,0 1.23386,-14.93845 0.95967,-54.4814c-0.27419,-39.54295 0.31989,-25.48324 -0.36559,-57.1176c-0.68548,-31.63436 -1.91934,-38.66422 -1.95536,-38.99069c-0.03602,-0.32647 -0.32957,11.74999 -0.36559,11.42352c-0.03602,-0.32647 0.5844,9.1138 0.54838,8.78732c-0.03602,-0.32647 0.7215,-26.91423 0.31021,27.56717c-0.41129,54.4814 -0.54838,69.41985 -0.77687,76.44971c-0.22849,7.02986 0.36559,27.2407 0.32957,26.91423c-0.03602,-0.32647 0.7215,7.35633 0.68548,7.02986c-0.03602,-0.32647 0.6301,-7.58212 0.6301,-7.58212z" opacity="0.3" stroke-linecap="null" stroke-linejoin="null" stroke-dasharray="null" stroke-width="0" fill="#ff7f00"/>
  <path stroke="#000000" id="svg_20" transform="rotate(-1.8846783638000488 369.819702148434,266.0061950683585) " d="m369.56509,302.85277c0,0 -0.86197,-7.69812 -0.67042,-28.0755c0.19155,-20.37738 -0.22347,-13.13209 0.2554,-29.434c0.47888,-16.30191 1.34085,-19.92455 1.36601,-20.09279c0.02516,-0.16824 0.23023,6.05504 0.25539,5.8868c0.02516,-0.16824 -0.40826,4.69655 -0.3831,4.52831c0.02516,-0.16824 -0.50403,-13.86951 -0.21671,14.20599c0.28733,28.0755 0.3831,35.77362 0.54273,39.39627c0.15962,3.62265 -0.2554,14.03775 -0.23024,13.86951c0.02516,-0.16824 -0.50404,3.79088 -0.47888,3.62265c0.02516,-0.16824 -0.44019,-3.90724 -0.44019,-3.90724z" opacity="0.3" stroke-linecap="null" stroke-linejoin="null" stroke-dasharray="null" stroke-width="0" fill="#ff7f00"/>
  <path stroke="#000000" id="svg_21" transform="rotate(-1.8846783638000488 317.05352783203057,268.9728698730466) " d="m317.41797,308.84375c0,0 1.23386,-8.32997 0.95967,-30.37989c-0.27419,-22.04992 0.31989,-14.20995 -0.36559,-31.84988c-0.68548,-17.63993 -1.91934,-21.55992 -1.95536,-21.74197c-0.03602,-0.18205 -0.32956,6.55202 -0.36558,6.36998c-0.03602,-0.18205 0.5844,5.08203 0.54838,4.89998c-0.03602,-0.18205 0.72149,-15.00789 0.31021,15.372c-0.41129,30.37989 -0.54838,38.70985 -0.77688,42.62984c-0.22849,3.91999 0.36559,15.18994 0.32957,15.0079c-0.03602,-0.18205 0.7215,4.10203 0.68548,3.91999c-0.03602,-0.18205 0.6301,-4.22794 0.6301,-4.22794z" opacity="0.3" stroke-linecap="null" stroke-linejoin="null" stroke-dasharray="null" stroke-width="0" fill="#ff7f00"/>
  <ellipse stroke="#000000" transform="rotate(-12.219684600830078 68.91591644287091,313.99020385742193) " id="svg_22" fill="#ff0000" stroke-width="0" cx="68.91592" cy="313.99019" rx="35.96753" ry="48.76794"/>
  <ellipse stroke="#000000" ry="23" rx="23.5" id="svg_24" cy="377.67709" cx="82.62159" opacity="0.3" stroke-linecap="null" stroke-linejoin="null" stroke-dasharray="null" stroke-width="0" fill="#000000"/>
  <ellipse stroke="#000000" ry="17" rx="8" id="svg_25" cy="337.67709" cx="57.12154" stroke-linecap="null" stroke-linejoin="null" stroke-dasharray="null" stroke-width="0" fill="#ffffff"/>
  <ellipse id="svg_27" stroke="#000000" ry="17" rx="8" cy="330.67709" cx="92.12154" stroke-linecap="null" stroke-linejoin="null" stroke-dasharray="null" stroke-width="0" fill="#ffffff"/>
 </g>
</svg>
