<svg width="640" height="480" xmlns="http://www.w3.org/2000/svg" xmlns:svg="http://www.w3.org/2000/svg">
 <!-- Created with SVG-edit - http://svg-edit.googlecode.com/ -->
 <g>
  <title>Layer 1</title>
  <rect stroke="#000000" id="svg_30" height="275.66667" width="645.00008" y="66.25" x="-2.75007" stroke-linecap="null" stroke-linejoin="null" stroke-dasharray="null" stroke-width="0" fill="#00ffff"/>
  <rect stroke="#000000" id="svg_1" height="89.29167" width="635.06251" y="260.39584" x="5.68745" stroke-width="0" fill="#f29d9d"/>
  <rect stroke="#000000" id="svg_2" height="98.10417" width="4.49999" y="260.58334" x="110.93745" stroke-linecap="null" stroke-linejoin="null" stroke-dasharray="null" stroke-width="0" fill="#00ffff"/>
  <rect stroke="#000000" id="svg_3" height="92.77083" width="5.83333" y="270.97917" x="123.87495" stroke-linecap="null" stroke-linejoin="null" stroke-dasharray="null" stroke-width="0" fill="#00ffff"/>
  <rect stroke="#000000" id="svg_4" height="91.4375" width="4.49999" y="270.0625" x="137.37495" stroke-linecap="null" stroke-linejoin="null" stroke-dasharray="null" stroke-width="0" fill="#00ffff"/>
  <rect stroke="#000000" id="svg_5" height="90.10417" width="4.49999" y="271.95834" x="451.24995" stroke-linecap="null" stroke-linejoin="null" stroke-dasharray="null" stroke-width="0" fill="#00ffff"/>
  <rect id="svg_6" height="104.10417" width="2.49999" y="263.58334" x="438.87495" stroke-linecap="null" stroke-linejoin="null" stroke-dasharray="null" stroke-width="0" fill="#00ffff" stroke="#000000"/>
  <rect stroke="#000000" id="svg_7" height="94.10417" width="6.16666" y="271.33334" x="407.39577" stroke-linecap="null" stroke-linejoin="null" stroke-dasharray="null" stroke-width="0" fill="#00ffff"/>
  <rect stroke="#000000" id="svg_9" height="104.77084" width="4.49999" y="258.97917" x="149.74995" stroke-linecap="null" stroke-linejoin="null" stroke-dasharray="null" stroke-width="0" fill="#00ffff"/>
  <rect stroke="#000000" id="svg_10" height="104.77084" width="4.49999" y="261.22917" x="163.81245" stroke-linecap="null" stroke-linejoin="null" stroke-dasharray="null" stroke-width="0" fill="#00ffff"/>
  <rect stroke="#000000" id="svg_11" height="115.4375" width="4.49999" y="252.81251" x="176.74995" stroke-linecap="null" stroke-linejoin="null" stroke-dasharray="null" stroke-width="0" fill="#00ffff"/>
  <circle stroke="#000000" id="svg_12" r="65.4794" cy="214.60418" cx="314.98954" stroke-linecap="null" stroke-linejoin="null" stroke-dasharray="null" stroke-width="0" fill="#00ffff"/>
  <rect stroke="#000000" id="svg_13" height="100.77084" width="4.49999" y="260.16667" x="191.93745" stroke-linecap="null" stroke-linejoin="null" stroke-dasharray="null" stroke-width="0" fill="#00ffff"/>
  <rect stroke="#000000" id="svg_14" height="106.10417" width="0.5" y="252.58334" x="176.81245" stroke-linecap="null" stroke-linejoin="null" stroke-dasharray="null" stroke-width="0" fill="#00ffff"/>
  <rect stroke="#000000" id="svg_15" height="90.10417" width="4.49999" y="273.08334" x="226.24995" stroke-linecap="null" stroke-linejoin="null" stroke-dasharray="null" stroke-width="0" fill="#00ffff"/>
  <rect stroke="#000000" id="svg_16" height="96.77083" width="6.16666" y="271.47917" x="239.77081" stroke-linecap="null" stroke-linejoin="null" stroke-dasharray="null" stroke-width="0" fill="#00ffff"/>
  <rect stroke="#000000" id="svg_17" height="102.10417" width="2.16666" y="262.77084" x="266.83327" stroke-linecap="null" stroke-linejoin="null" stroke-dasharray="null" stroke-width="0" fill="#00ffff"/>
  <rect stroke="#000000" id="svg_18" height="106.10417" width="1.83333" y="262.20834" x="289.95828" stroke-linecap="null" stroke-linejoin="null" stroke-dasharray="null" stroke-width="0" fill="#00ffff"/>
  <rect stroke="#000000" id="svg_19" height="103.4375" width="4.49999" y="265.37501" x="323.56245" stroke-linecap="null" stroke-linejoin="null" stroke-dasharray="null" stroke-width="0" fill="#00ffff"/>
  <rect id="svg_20" height="97.77084" width="5.49999" y="264.85417" x="360.68745" stroke-linecap="null" stroke-linejoin="null" stroke-dasharray="null" stroke-width="0" fill="#00ffff" stroke="#000000"/>
  <rect stroke="#000000" id="svg_21" height="90.10417" width="4.49999" y="273.08334" x="385.99995" stroke-linecap="null" stroke-linejoin="null" stroke-dasharray="null" stroke-width="0" fill="#00ffff"/>
  <circle id="svg_24" stroke="#000000" r="65.4794" cy="221.93752" cx="223.32287" stroke-linecap="null" stroke-linejoin="null" stroke-dasharray="null" stroke-width="0" fill="#00ffff"/>
  <circle stroke="#000000" id="svg_26" r="65.47942" cy="215.77084" cx="133.48954" stroke-linecap="null" stroke-linejoin="null" stroke-dasharray="null" stroke-width="0" fill="#00ffff"/>
  <circle id="svg_27" stroke="#000000" r="65.4794" cy="219.27085" cx="403.48954" stroke-linecap="null" stroke-linejoin="null" stroke-dasharray="null" stroke-width="0" fill="#00ffff"/>
  <rect stroke="#000000" id="svg_33" height="120.77084" width="5.83332" y="261.29167" x="471.24995" stroke-linecap="null" stroke-linejoin="null" stroke-dasharray="null" stroke-width="0" fill="#00ffff"/>
  <rect stroke="#000000" id="svg_34" height="135.4375" width="4.49999" y="266.62501" x="491.24995" stroke-linecap="null" stroke-linejoin="null" stroke-dasharray="null" stroke-width="0" fill="#00ffff"/>
  <rect stroke="#000000" id="svg_35" height="139.4375" width="3.16666" y="282.62501" x="511.24994" stroke-linecap="null" stroke-linejoin="null" stroke-dasharray="null" stroke-width="0" fill="#00ffff"/>
  <rect stroke="#000000" id="svg_36" height="89.43751" width="2.83333" y="270.62501" x="531.24994" stroke-linecap="null" stroke-linejoin="null" stroke-dasharray="null" stroke-width="0" fill="#00ffff"/>
  <rect stroke="#000000" id="svg_37" height="97.43751" width="2.83333" y="268.62501" x="554.24994" stroke-linecap="null" stroke-linejoin="null" stroke-dasharray="null" stroke-width="0" fill="#00ffff"/>
  <rect stroke="#000000" id="svg_38" height="101.43751" width="4.16666" y="274.62502" x="581.24995" stroke-linecap="null" stroke-linejoin="null" stroke-dasharray="null" stroke-width="0" fill="#00ffff"/>
  <rect stroke="#000000" id="svg_39" height="104.10418" width="4.16666" y="275.95835" x="601.24995" stroke-linecap="null" stroke-linejoin="null" stroke-dasharray="null" stroke-width="0" fill="#00ffff"/>
  <rect stroke="#000000" id="svg_40" height="81.77085" width="4.49999" y="274.29168" x="623.24995" stroke-linecap="null" stroke-linejoin="null" stroke-dasharray="null" stroke-width="0" fill="#00ffff"/>
  <rect stroke="#000000" id="svg_41" height="129.10417" width="4.49999" y="257.91668" x="17.93745" stroke-linecap="null" stroke-linejoin="null" stroke-dasharray="null" stroke-width="0" fill="#00ffff"/>
  <rect id="svg_42" stroke="#000000" height="222.4375" width="4.49999" y="141.72463" x="36.93745" stroke-linecap="null" stroke-linejoin="null" stroke-dasharray="null" stroke-width="0" fill="#00ffff"/>
  <rect id="svg_43" stroke="#000000" height="222.4375" width="4.49999" y="135.25002" x="55.93745" stroke-linecap="null" stroke-linejoin="null" stroke-dasharray="null" stroke-width="0" fill="#00ffff"/>
  <rect id="svg_44" stroke="#000000" height="222.4375" width="4.49999" y="131.25002" x="75.93745" stroke-linecap="null" stroke-linejoin="null" stroke-dasharray="null" stroke-width="0" fill="#00ffff"/>
  <rect stroke="#000000" id="svg_45" height="122.43749" width="4.49999" y="242.25002" x="95.93745" stroke-linecap="null" stroke-linejoin="null" stroke-dasharray="null" stroke-width="0" fill="#00ffff"/>
  <circle stroke="#000000" id="svg_46" r="65.47942" cy="220.43751" cx="38.6562" stroke-linecap="null" stroke-linejoin="null" stroke-dasharray="null" stroke-width="0" fill="#00ffff"/>
  <circle id="svg_47" stroke="#000000" r="65.4794" cy="225.60419" cx="496.98954" stroke-linecap="null" stroke-linejoin="null" stroke-dasharray="null" stroke-width="0" fill="#00ffff"/>
  <circle id="svg_48" stroke="#000000" r="65.4794" cy="233.27085" cx="599.98954" stroke-linecap="null" stroke-linejoin="null" stroke-dasharray="null" stroke-width="0" fill="#00ffff"/>
  <rect id="svg_51" height="102.90659" width="4.49999" y="241.5" x="210.60411" stroke-linecap="null" stroke-linejoin="null" stroke-dasharray="null" stroke-width="0" fill="#00ffff" stroke="#000000"/>
  <rect id="svg_52" stroke="#000000" height="96.77083" width="6.16666" y="264.81251" x="251.77081" stroke-linecap="null" stroke-linejoin="null" stroke-dasharray="null" stroke-width="0" fill="#00ffff"/>
  <rect id="svg_53" stroke="#000000" height="96.77083" width="6.16666" y="266.14584" x="303.77081" stroke-linecap="null" stroke-linejoin="null" stroke-dasharray="null" stroke-width="0" fill="#00ffff"/>
  <rect height="97.77084" width="5.49999" y="268.85417" x="340.68745" stroke-linecap="null" stroke-linejoin="null" stroke-dasharray="null" stroke-width="0" fill="#00ffff" stroke="#000000" id="svg_8"/>
  <rect height="104.10417" width="2.49999" y="264.58334" x="423.87495" stroke-linecap="null" stroke-linejoin="null" stroke-dasharray="null" stroke-width="0" fill="#00ffff" stroke="#000000" id="svg_22"/>
  <rect height="90.10417" width="3.49999" y="265.95834" x="545.24995" stroke-linecap="null" stroke-linejoin="null" stroke-dasharray="null" stroke-width="0" fill="#00ffff" id="svg_25" stroke="#000000"/>
  <rect height="59.10416" width="3.49999" y="284.95834" x="568.24995" stroke-linecap="null" stroke-linejoin="null" stroke-dasharray="null" stroke-width="0" fill="#00ffff" id="svg_28" stroke="#000000"/>
  <rect height="59.10416" width="3.49999" y="292.95834" x="612.24995" stroke-linecap="null" stroke-linejoin="null" stroke-dasharray="null" stroke-width="0" fill="#00ffff" stroke="#000000" id="svg_29"/>
  <rect id="svg_49" height="146" width="642" y="347.79688" x="1.13574" stroke-linecap="null" stroke-linejoin="null" stroke-dasharray="null" stroke-width="0" stroke="#000000" fill="#00ff00"/>
  <rect fill="#ffaaaa" stroke-width="0" stroke-dasharray="null" stroke-linejoin="null" stroke-linecap="null" x="13.25004" y="303" width="615.74999" height="4.5" id="svg_54" stroke="#000000"/>
  <rect fill="#ffaaaa" stroke-width="0" stroke-dasharray="null" stroke-linejoin="null" stroke-linecap="null" x="17.75004" y="329.25" width="613.49999" height="3.75" id="svg_55" stroke="#000000"/>
  <path fill="#007f00" stroke-width="0" stroke-dasharray="null" stroke-linejoin="null" stroke-linecap="null" d="m62.80539,383.08909c116.71847,48.62419 238.74232,63.43937 477.48464,71.0369c238.74232,7.59753 53.05385,-11.39629 -37.13769,-22.03283c-90.19155,-10.63655 -249.35309,-20.13346 -244.04771,-33.80901c5.30539,-13.67556 74.27539,-20.89321 -26.52692,-23.55235c-100.80232,-2.65913 -238.74232,-15.95481 -244.04771,-2.65913c-5.30538,13.29568 74.27539,11.01642 74.27539,11.01642z" stroke="#000000" id="svg_79"/>
  <path fill="#ffff00" stroke-width="0" stroke-dasharray="null" stroke-linejoin="null" stroke-linecap="null" d="m57.55539,383.83909c116.71847,48.62419 238.74232,63.43938 477.48464,71.03691c238.74232,7.59753 53.05385,-11.3963 -37.13769,-22.03284c-90.19154,-10.63654 -249.35309,-20.13345 -244.04771,-33.80901c5.30538,-13.67555 74.27539,-20.89321 -26.52692,-23.55234c-100.80231,-2.65914 -238.74232,-15.95481 -244.04771,-2.65914c-5.30538,13.29568 74.27539,11.01642 74.27539,11.01642z" id="svg_77" stroke="#000000"/>
  <rect stroke="#000000" fill="#ffffff" stroke-width="0" stroke-dasharray="null" stroke-linejoin="null" stroke-linecap="null" x="631" y="-1.00003" width="48" height="499.00002" id="svg_50"/>
  <path fill="#05aa05" stroke-width="0" stroke-dasharray="null" stroke-linejoin="null" stroke-linecap="null" d="m35.4784,392.33824c97.41354,47.1773 199.25497,61.55164 398.50995,68.92309c199.25498,7.37146 44.27889,-11.05718 -30.99521,-21.37721c-75.2741,-10.32004 -208.11075,-19.53436 -203.68287,-32.80298c4.42789,-13.26861 61.99044,-20.27149 -22.13945,-22.8515c-84.12987,-2.58001 -199.25497,-15.48006 -203.68286,-2.58001c-4.42789,12.90004 61.99044,10.68861 61.99044,10.68861z" stroke="#000000" id="svg_80"/>
  <path fill="#00ff00" stroke-width="0" stroke-dasharray="null" stroke-linejoin="null" stroke-linecap="null" d="m33.2284,395.33824c97.41355,47.1773 199.25498,61.55164 398.50996,68.92309c199.25498,7.37146 44.27889,-11.05718 -30.99521,-21.37721c-75.2741,-10.32004 -208.11075,-19.53436 -203.68287,-32.80298c4.42789,-13.26861 61.99044,-20.27149 -22.13945,-22.8515c-84.12988,-2.58001 -199.25498,-15.48006 -203.68286,-2.58001c-4.42789,12.90004 61.99043,10.68861 61.99043,10.68861z" id="svg_78" stroke="#000000"/>
  <rect fill="#ffffff" stroke-width="0" stroke-dasharray="null" stroke-linejoin="null" stroke-linecap="null" x="-28" y="1.00001" width="38.66666" height="493.99994" id="svg_32" stroke="#000000"/>
  <path transform="rotate(3.869993209838867 35.56042098999345,351.937530517578) " id="svg_23" d="m35.84373,365.22659c0,0 -4.11328,-26.57813 -4.11328,-26.57813c0,0 6.96094,12.02344 7.59375,15.50391c0.63281,3.48047 -3.48047,11.07422 -3.48047,11.07422z" stroke-linecap="null" stroke-linejoin="null" stroke-dasharray="null" stroke-width="0" stroke="#000000" fill="#00ff00"/>
  <path stroke="#000000" id="svg_31" d="m33.73436,357.21097c0,0 -4.11328,-14.76563 -4.11328,-14.76563c0,0 6.96094,6.67969 7.59375,8.61328c0.63281,1.93359 -3.48047,6.15234 -3.48047,6.15234l0,0.00001z" stroke-linecap="null" stroke-linejoin="null" stroke-dasharray="null" stroke-width="0" fill="#00ff00"/>
  <path transform="rotate(35.48173522949219 36.03502655029315,354.04690551757807) " id="svg_56" d="m36.31834,367.33596c0,0 -4.11328,-26.57813 -4.11328,-26.57813c0,0 6.96094,12.02344 7.59375,15.50391c0.63281,3.48047 -3.48047,11.07422 -3.48047,11.07422z" stroke-linecap="null" stroke-linejoin="null" stroke-dasharray="null" stroke-width="0" stroke="#000000" fill="#00ff00"/>
  <path transform="rotate(40.65438461303711 33.688346862792955,352.5439758300781) " id="svg_57" d="m33.97166,365.83304c0,0 -4.11328,-26.57813 -4.11328,-26.57813c0,0 6.96094,12.02344 7.59375,15.50391c0.63281,3.48047 -3.48047,11.07422 -3.48047,11.07422z" stroke-linecap="null" stroke-linejoin="null" stroke-dasharray="null" stroke-width="0" stroke="#000000" fill="#00ff00"/>
  <path id="svg_81" transform="rotate(3.869993209838867 423.36901855468983,356.36721801757835) " d="m423.65232,369.65628c0,0 -4.11328,-26.57813 -4.11328,-26.57813c0,0 6.96094,12.02344 7.59375,15.50391c0.63281,3.48047 -3.48047,11.07422 -3.48047,11.07422z" stroke-linecap="null" stroke-linejoin="null" stroke-dasharray="null" stroke-width="0" stroke="#000000" fill="#00ff00"/>
  <path id="svg_82" stroke="#000000" d="m337.06249,393.28128c0,0 -4.11328,-14.76563 -4.11328,-14.76563c0,0 6.96093,6.67969 7.59374,8.61328c0.63281,1.9336 -3.48046,6.15235 -3.48046,6.15235z" stroke-linecap="null" stroke-linejoin="null" stroke-dasharray="null" stroke-width="0" fill="#00ff00"/>
  <path id="svg_83" transform="rotate(40.65438461303711 426.2430419921875,353.8096008300781) " d="m426.52635,367.09866c0,0 -4.11328,-26.57813 -4.11328,-26.57813c0,0 6.96094,12.02344 7.59375,15.50391c0.63281,3.48047 -3.48047,11.07422 -3.48047,11.07422z" stroke-linecap="null" stroke-linejoin="null" stroke-dasharray="null" stroke-width="0" stroke="#000000" fill="#00ff00"/>
  <path id="svg_84" transform="rotate(3.869993209838867 428.32604980468835,350.9883117675779) " d="m428.60936,364.27737c0,0 -4.11328,-26.57813 -4.11328,-26.57813c0,0 6.96094,12.02344 7.59375,15.50391c0.63281,3.48047 -3.48047,11.07422 -3.48047,11.07422z" stroke-linecap="null" stroke-linejoin="null" stroke-dasharray="null" stroke-width="0" stroke="#000000" fill="#00ff00"/>
  <path id="svg_85" stroke="#000000" d="m424.91796,354.67972c0,0 -4.11328,-14.76563 -4.11328,-14.76563c0,0 6.96093,6.67969 7.59374,8.61328c0.63281,1.9336 -3.48046,6.15235 -3.48046,6.15235z" stroke-linecap="null" stroke-linejoin="null" stroke-dasharray="null" stroke-width="0" fill="#00ff00"/>
  <path id="svg_86" transform="rotate(40.65438461303711 424.8719482421875,350.0127258300781) " d="m425.15526,363.30179c0,0 -4.11328,-26.57813 -4.11328,-26.57813c0,0 6.96094,12.02344 7.59375,15.50391c0.63281,3.48047 -3.48047,11.07422 -3.48047,11.07422z" stroke-linecap="null" stroke-linejoin="null" stroke-dasharray="null" stroke-width="0" stroke="#000000" fill="#00ff00"/>
  <path id="svg_87" transform="rotate(3.869993209838867 213.0379638671905,424.15725708007824) " d="m213.32127,437.44632c0,0 -4.11328,-26.57813 -4.11328,-26.57813c0,0 6.96094,12.02344 7.59375,15.50391c0.63281,3.48047 -3.48047,11.07422 -3.48047,11.07422z" stroke-linecap="null" stroke-linejoin="null" stroke-dasharray="null" stroke-width="0" stroke="#000000" fill="#00ff00"/>
  <path id="svg_88" stroke="#000000" d="m210.49999,426.34574c0,0 -4.11328,-14.76563 -4.11328,-14.76563c0,0 6.96093,6.67969 7.59374,8.61328c0.63281,1.9336 -3.48046,6.15235 -3.48046,6.15235z" stroke-linecap="null" stroke-linejoin="null" stroke-dasharray="null" stroke-width="0" fill="#00ff00"/>
  <path id="svg_89" transform="rotate(40.65438461303711 209.74206542968767,422.8652648925782) " d="m210.02537,436.15433c0,0 -4.11328,-26.57813 -4.11328,-26.57813c0,0 6.96094,12.02344 7.59375,15.50391c0.63281,3.48047 -3.48047,11.07422 -3.48047,11.07422z" stroke-linecap="null" stroke-linejoin="null" stroke-dasharray="null" stroke-width="0" stroke="#000000" fill="#00ff00"/>
  <path id="svg_90" transform="rotate(41.98979949951172 211.61413574218747,424.3945617675782) " d="m211.89744,437.68362c0,0 -4.11328,-26.57813 -4.11328,-26.57813c0,0 6.96094,12.02344 7.59375,15.50391c0.63281,3.48047 -3.48047,11.07422 -3.48047,11.07422z" stroke-linecap="null" stroke-linejoin="null" stroke-dasharray="null" stroke-width="0" stroke="#000000" fill="#00ff00"/>
  <ellipse stroke="#000000" ry="57" rx="58" id="svg_91" cy="146" cx="90" stroke-linecap="null" stroke-linejoin="null" stroke-dasharray="null" stroke-width="0" fill="#ffffaa"/>
 </g>
</svg>
