<svg width="1800.0000000000005" height="1800.0000000000005" xmlns="http://www.w3.org/2000/svg" xmlns:svg="http://www.w3.org/2000/svg" xmlns:xlink="http://www.w3.org/1999/xlink">
 <!-- Created with SVG-edit - http://svg-edit.googlecode.com/ -->
 <defs>
  <radialGradient r="0.5" cy="0.5" cx="0.5" spreadMethod="pad" id="svg_67">
   <stop offset="0.23405" stop-color="#ff7f00"/>
   <stop offset="0.24967" stop-color="#0080ff"/>
   <stop offset="0.82389" stop-color="#ff7f00"/>
   <stop offset="0.92546" stop-color="#ff7f00"/>
   <stop offset="0.9528" stop-color="#0080ff"/>
  </radialGradient>
  <radialGradient r="0.5" cy="0.5" cx="0.5" spreadMethod="pad" id="svg_90">
   <stop offset="0.12467" stop-color="#e5e58b"/>
   <stop offset="0.4528" stop-color="#1a1a74"/>
   <stop offset="1" stop-color="#e5e58b"/>
  </radialGradient>
 </defs>
 <g stroke="null">
  <title>Layer 1</title>
  <image xlink:href="http://res.cloudinary.com/kboyle/image/upload/v1529113593/trippyself.png" id="svg_6" height="2411.65421" width="2701.64471" y="107.71774" x="-698.91576" transform="rotate(-1.0307034254074097 651.9066772461123,1313.5447998046866) "/>
  <ellipse opacity="0.99" stroke="url(#svg_90)" fill="#000000" stroke-width="16" stroke-dasharray="null" stroke-linejoin="null" stroke-linecap="null" cx="1286.14791" cy="990.62375" id="svg_65" rx="300.07871" ry="409.76387"/>
  <ellipse opacity="0.5" stroke="#e5e58b" fill="url(#svg_67)" stroke-width="0" stroke-dasharray="null" stroke-linejoin="null" stroke-linecap="null" cx="943.72293" cy="1206.62131" rx="60.95825" ry="64.29171" id="svg_79"/>
  <rect stroke="#e5e58b" id="d_svg_84" height="16.3184" width="21.32405" y="245.6087" x="938.06632" stroke-linecap="null" stroke-linejoin="null" stroke-dasharray="null" stroke-width="0" fill="#ffffff"/>
  <ellipse stroke="#e5e58b" fill-opacity="0.93" fill="url(#svg_107)" stroke-width="0" stroke-dasharray="null" stroke-linejoin="null" stroke-linecap="null" opacity="0.95" cx="61.47102" cy="664.69896" rx="44.39906" ry="5" id="d_svg_103"/>
  <ellipse stroke="#e5e58b" id="d_svg_108" fill-opacity="0.93" fill="url(#svg_110)" stroke-width="0" stroke-dasharray="null" stroke-linejoin="null" stroke-linecap="null" opacity="0.95" cx="61.30712" cy="697.87589" rx="44" ry="16"/>
  <ellipse stroke="#e5e58b" fill-opacity="0.93" fill="url(#svg_107)" stroke-width="0" stroke-dasharray="null" stroke-linejoin="null" stroke-linecap="null" opacity="0.95" cx="59.80713" cy="691.87589" id="d_svg_77" rx="50.5" ry="5"/>
  <ellipse stroke="#e5e58b" opacity="0.5" id="d_svg_83" fill="#0000ff" stroke-width="0" stroke-dasharray="null" stroke-linejoin="null" stroke-linecap="null" cx="984.06689" cy="361.63087" rx="138.08184" ry="140.72327"/>
  <ellipse stroke="#e5e58b" opacity="0.8" fill="#ff4fa4" stroke-width="0" stroke-dasharray="null" stroke-linejoin="null" stroke-linecap="null" cx="478.22755" cy="1233.98305" id="d_svg_46" rx="62.15894" ry="47.0629"/>
  <rect stroke="#e5e58b" id="d_svg_86" height="16.3184" width="21.32405" y="-255.85694" x="-338.14111" stroke-linecap="null" stroke-linejoin="null" stroke-dasharray="null" stroke-width="0" fill="#ffffff"/>
  <ellipse stroke="#e5e58b" fill="#fc3f3f" stroke-width="0" stroke-dasharray="null" stroke-linejoin="null" stroke-linecap="null" cx="1206.42881" cy="547.32184" rx="24.93535" ry="24.10542" id="svg_8" opacity="0.5"/>
  <rect stroke="#e5e58b" fill="#007fff" stroke-width="0" stroke-dasharray="null" stroke-linejoin="null" stroke-linecap="null" opacity="0.5" x="1057.73761" y="345.43396" width="21.06997" height="1011.35797" id="svg_9"/>
  <rect stroke="#e5e58b" fill="#007fff" stroke-width="0" stroke-dasharray="null" stroke-linejoin="null" stroke-linecap="null" opacity="0.5" x="1127.74699" y="745.76319" width="12.64199" height="598.38681" id="svg_10"/>
  <ellipse stroke="#e5e58b" opacity="0.2" id="svg_11" fill="#ff4fa4" stroke-width="0" stroke-dasharray="null" stroke-linejoin="null" stroke-linecap="null" cx="478.2276" cy="1232.79786" rx="85.86265" ry="76.69254"/>
  <ellipse stroke="#e5e58b" id="svg_12" opacity="0.2" fill="#ff4fa4" stroke-width="0" stroke-dasharray="null" stroke-linejoin="null" stroke-linecap="null" cx="473.48686" cy="1238.72382" rx="109.56639" ry="96.84069"/>
  <ellipse stroke="#e5e58b" fill="#ffaaaa" stroke-width="0" stroke-dasharray="null" stroke-linejoin="null" stroke-linecap="null" cx="205.75968" cy="1117.06835" id="d_svg_52" rx="31.65625" ry="29.44211" opacity="0.7"/>
  <ellipse stroke="#e5e58b" fill="#7f00ff" stroke-width="0" stroke-dasharray="null" stroke-linejoin="null" stroke-linecap="null" cx="437.45781" cy="1034.43874" rx="26.43555" ry="23.7468" id="svg_3" opacity="0.5"/>
  <ellipse stroke="#e5e58b" fill="#00ffff" stroke-width="0" stroke-dasharray="null" stroke-linejoin="null" stroke-linecap="null" cx="259.45566" cy="1235.32206" rx="17.29932" ry="22.56568" opacity="0.5" id="svg_4"/>
  <ellipse id="svg_17" opacity="0.5" fill="#ffff00" stroke-width="0" stroke-dasharray="null" stroke-linejoin="null" stroke-linecap="null" cx="687.04916" cy="551.77576" rx="79.45168" ry="58.69701" stroke="#e5e58b"/>
  <ellipse stroke="#e5e58b" id="svg_16" opacity="0.5" fill="#ff007f" stroke-width="0" stroke-dasharray="null" stroke-linejoin="null" stroke-linecap="null" cx="1349.32839" cy="989.46881" rx="68.67742" ry="67.80966"/>
  <ellipse id="svg_18" opacity="0.5" fill="#00ff00" stroke-width="0" stroke-dasharray="null" stroke-linejoin="null" stroke-linecap="null" cx="1328.92218" cy="764.81635" rx="39.00913" ry="39.03173" stroke="#e5e58b"/>
  <rect stroke="#e5e58b" fill="#007fff" stroke-width="0" stroke-dasharray="null" stroke-linejoin="null" stroke-linecap="null" opacity="0.5" x="1195.39953" y="975.37389" width="5.83526" height="375.67352" id="svg_1"/>
  <rect stroke="#e5e58b" fill="#007fff" stroke-width="0" stroke-dasharray="null" stroke-linejoin="null" stroke-linecap="null" opacity="0.5" x="942.55985" y="1259.81844" width="346.1812" height="12.21662" id="svg_5"/>
  <rect stroke="#e5e58b" fill="#007fff" stroke-width="0" stroke-dasharray="null" stroke-linejoin="null" stroke-linecap="null" opacity="0.5" x="971.00429" y="1202.92956" width="270.32935" height="12.21662" id="svg_7"/>
  <rect stroke="#e5e58b" fill="#007fff" stroke-width="0" stroke-dasharray="null" stroke-linejoin="null" stroke-linecap="null" opacity="0.5" x="971.00429" y="1146.04067" width="270.32935" height="12.21662" id="svg_13"/>
  <rect stroke="#e5e58b" fill="#007fff" stroke-width="0" stroke-dasharray="null" stroke-linejoin="null" stroke-linecap="null" opacity="0.5" x="1031.05367" y="1019.62086" width="169.19354" height="5.89566" id="svg_14"/>
  <rect stroke="#e5e58b" fill="#007fff" stroke-width="0" stroke-dasharray="null" stroke-linejoin="null" stroke-linecap="null" opacity="0.5" x="1047.05367" y="1087.17642" width="169.19354" height="5.89566" id="svg_15"/>
  <rect stroke="#e5e58b" fill="#007fff" stroke-width="0" stroke-dasharray="null" stroke-linejoin="null" stroke-linecap="null" opacity="0.5" x="1036.38701" y="914.73197" width="146.08243" height="5.89566" id="svg_19"/>
  <rect stroke="#e5e58b" fill="#007fff" stroke-width="0" stroke-dasharray="null" stroke-linejoin="null" stroke-linecap="null" opacity="0.5" x="1052.38701" y="975.17642" width="146.08243" height="5.89566" id="svg_20"/>
  <ellipse stroke="#e5e58b" opacity="0.5" fill="#00ff00" stroke-width="0" stroke-dasharray="null" stroke-linejoin="null" stroke-linecap="null" cx="1171.50469" cy="1304.15605" rx="26.60857" ry="23.53651" id="svg_21"/>
  <ellipse stroke="#e5e58b" opacity="0.5" fill="#00ff00" stroke-width="0" stroke-dasharray="null" stroke-linejoin="null" stroke-linecap="null" cx="1023.94913" cy="886.37827" rx="26.60857" ry="23.53651" id="svg_22"/>
  <rect stroke="#e5e58b" fill="#007fff" stroke-width="0" stroke-dasharray="null" stroke-linejoin="null" stroke-linecap="null" opacity="0.5" x="1120.94749" y="408.64384" width="21.06997" height="1011.35797" id="svg_23"/>
  <rect stroke="#e5e58b" fill="#007fff" stroke-width="0" stroke-dasharray="null" stroke-linejoin="null" stroke-linecap="null" opacity="0.5" x="1190.95687" y="808.97307" width="12.64199" height="598.38681" id="svg_24"/>
  <rect stroke="#e5e58b" fill="#007fff" stroke-width="0" stroke-dasharray="null" stroke-linejoin="null" stroke-linecap="null" opacity="0.5" x="1258.60941" y="1038.58377" width="5.83526" height="375.67352" id="svg_25"/>
  <rect stroke="#e5e58b" fill="#007fff" stroke-width="0" stroke-dasharray="null" stroke-linejoin="null" stroke-linecap="null" opacity="0.5" x="1005.76973" y="1323.02832" width="346.1812" height="12.21662" id="svg_26"/>
  <rect stroke="#e5e58b" fill="#007fff" stroke-width="0" stroke-dasharray="null" stroke-linejoin="null" stroke-linecap="null" opacity="0.5" x="1034.21417" y="1266.13944" width="270.32935" height="12.21662" id="svg_27"/>
  <rect stroke="#e5e58b" fill="#007fff" stroke-width="0" stroke-dasharray="null" stroke-linejoin="null" stroke-linecap="null" opacity="0.5" x="1034.21417" y="1209.25055" width="270.32935" height="12.21662" id="svg_28"/>
  <rect stroke="#e5e58b" fill="#007fff" stroke-width="0" stroke-dasharray="null" stroke-linejoin="null" stroke-linecap="null" opacity="0.5" x="1110.26355" y="1150.3863" width="169.19354" height="5.89566" id="svg_29"/>
  <rect stroke="#e5e58b" fill="#007fff" stroke-width="0" stroke-dasharray="null" stroke-linejoin="null" stroke-linecap="null" opacity="0.5" x="1099.59689" y="977.94185" width="146.08243" height="5.89566" id="svg_30"/>
  <rect stroke="#e5e58b" fill="#007fff" stroke-width="0" stroke-dasharray="null" stroke-linejoin="null" stroke-linecap="null" opacity="0.5" x="1115.59689" y="1038.3863" width="146.08243" height="5.89566" id="svg_31"/>
  <ellipse stroke="#e5e58b" ry="84.375" rx="104.34375" id="svg_2" cy="972.51718" cx="278.31683" opacity="0.5" stroke-linecap="null" stroke-linejoin="null" stroke-dasharray="null" stroke-width="0" fill="#ff007f"/>
  <ellipse stroke="#e5e58b" id="svg_32" fill="#aaffaa" stroke-width="0" stroke-dasharray="null" stroke-linejoin="null" stroke-linecap="null" cx="453.48908" cy="849.37623" rx="12.09182" ry="10.8093" opacity="0.5"/>
  <polygon stroke="#e5e58b" transform="rotate(-91.76566314697266 405.9058837890624,1214.9608154296875) " stroke-width="0" points="607.6107177734375,1214.9608459472656 453.522216796875,1348.1138000488281 204.20111083984375,1297.2538757324219 204.20111083984375,1132.6678161621094 453.522216796875,1081.8078918457031 607.6107177734375,1214.9608459472656 " fill="#aaffaa" id="svg_35"/>
  <polygon stroke="null" fill="#aaffaa" id="svg_37"/>
  <polygon stroke="#e5e58b" id="svg_40" stroke-width="0" points="851.642333984375,1194.8139953613281 755.0185546875,1297.0294494628906 598.677490234375,1257.9866027832031 598.677490234375,1131.6413879394531 755.0185546875,1092.5985412597656 851.642333984375,1194.8139953613281 " fill="#aaffaa"/>
  <path stroke="#e5e58b" id="svg_50" transform="rotate(41.03022766113281 671.7679443359375,1127.9051513671875) " d="m660.63596,1178.38105l11.13189,-100.95174l11.13189,100.95174l-22.26378,0z" opacity="0.1" stroke-linecap="null" stroke-linejoin="null" stroke-dasharray="null" stroke-width="0" fill="#ff0000"/>
  <polygon stroke="#e5e58b" id="svg_39" stroke-width="0" points="666.819091796875,1186.2733459472656 595.879638671875,1288.4888000488281 481.096923828125,1249.4459533691406 481.096923828125,1123.1007385253906 595.879638671875,1084.0578918457031 666.819091796875,1186.2733459472656 " fill="#aaffaa"/>
  <polygon stroke="#e5e58b" id="svg_41" transform="rotate(-29.923580169677734 277.8680725097654,1181.97900390625) " stroke-width="0" points="406.0497097969055,1181.9791259765625 308.1278347969055,1284.194580078125 149.68642854690552,1245.151611328125 149.68642854690552,1118.806396484375 308.1278347969055,1079.763671875 406.0497097969055,1181.9791259765625 " fill="#aaffaa"/>
  <ellipse stroke="#e5e58b" id="svg_44" fill="#ff7f00" stroke-width="0" stroke-dasharray="null" stroke-linejoin="null" stroke-linecap="null" cx="833.45778" cy="1018.96998" rx="11.24805" ry="11.09055" opacity="0.5"/>
  <ellipse stroke="#e5e58b" opacity="0.2" ry="29.25" rx="27.5625" id="svg_45" cy="953.57969" cx="700.28554" stroke-linecap="null" stroke-linejoin="null" stroke-dasharray="null" stroke-width="0" fill="#00ff00"/>
  <ellipse stroke="#e5e58b" id="svg_46" opacity="0.2" ry="23.0625" rx="22.21875" cy="953.01719" cx="699.44181" stroke-linecap="null" stroke-linejoin="null" stroke-dasharray="null" stroke-width="0" fill="#007fff"/>
  <path stroke="#e5e58b" transform="rotate(19.338035583496094 381.3803100585944,1063.9803466796873) " id="svg_47" d="m345.92624,1116.20627l35.45406,-104.45178l35.45406,104.45178l-70.90812,0z" opacity="0.18" stroke-linecap="null" stroke-linejoin="null" stroke-dasharray="null" stroke-width="0" fill="#ff0000"/>
  <path stroke="#e5e58b" id="svg_48" transform="rotate(28.489543914794922 226.97521972656136,1124.6658935546877) " d="m191.5212,1179.4594l35.45406,-109.58691l35.45406,109.58691l-70.90812,0z" opacity="0.2" stroke-linecap="null" stroke-linejoin="null" stroke-dasharray="null" stroke-width="0" fill="#ff0000"/>
  <path stroke="#e5e58b" id="svg_49" d="m539.36283,1157.17217l7.04728,-104.23065l7.04728,104.23065l-14.09456,0z" opacity="0.14" stroke-linecap="null" stroke-linejoin="null" stroke-dasharray="null" stroke-width="0" fill="#ff0000"/>
  <path stroke="#e5e58b" id="svg_51" transform="rotate(-159.6562042236328 330.8585205078125,1162.1904296875002) " d="m228.10307,1214.41635l102.75544,-104.45178l102.75544,104.45178l-205.51088,0z" opacity="0.1" stroke-linecap="null" stroke-linejoin="null" stroke-dasharray="null" stroke-width="0" fill="#ff7f00"/>
  <path stroke="#e5e58b" id="svg_52" transform="rotate(-38.27446746826172 474.8294677734376,1111.235595703125) " d="m487.96564,1233.11746l-13.13617,-243.7637l-13.13617,243.7637l26.27233,0l0.00001,0z" opacity="0.15" stroke-linecap="null" stroke-linejoin="null" stroke-dasharray="null" stroke-width="0" fill="#ff7f00"/>
  <path stroke="#e5e58b" id="svg_53" d="m629.30527,1199.11145l-6.15263,-133.58243l-6.15263,133.58243l12.30526,0z" opacity="0.2" stroke-linecap="null" stroke-linejoin="null" stroke-dasharray="null" stroke-width="0" fill="#ff7f00"/>
  <rect stroke="#e5e58b" transform="rotate(-42.17154312133789 466.6884155273434,1089.4914550781248) " id="svg_56" height="196.41648" width="1.57815" y="991.28316" x="465.89932" opacity="0.2" stroke-linecap="null" stroke-linejoin="null" stroke-dasharray="null" stroke-width="0" fill="#7f00ff"/>
  <rect stroke="#e5e58b" id="svg_57" transform="rotate(-71.2131576538086 342.57568359375006,1108.5904541015625) " height="187.37366" width="3.00621" y="1014.90365" x="341.07259" opacity="0.2" stroke-linecap="null" stroke-linejoin="null" stroke-dasharray="null" stroke-width="0" fill="#7f00ff"/>
  <rect stroke="#e5e58b" id="svg_58" height="92.3807" width="0.51236" y="1074.87093" x="620.69904" opacity="0.2" stroke-linecap="null" stroke-linejoin="null" stroke-dasharray="null" stroke-width="0" fill="#7f00ff"/>
  <rect stroke="#e5e58b" fill="#ff007f" stroke-width="0" stroke-dasharray="null" stroke-linejoin="null" stroke-linecap="null" opacity="0.5" x="697.17306" y="1071.40573" width="270.32935" height="3.35724" id="svg_33"/>
  <rect stroke="#e5e58b" fill="#007fff" stroke-width="0" stroke-dasharray="null" stroke-linejoin="null" stroke-linecap="null" opacity="0.5" x="1027.79073" y="706.51252" width="146.08243" height="5.89566" id="svg_38"/>
  <rect stroke="#e5e58b" fill="#ff007f" stroke-width="0" stroke-dasharray="null" stroke-linejoin="null" stroke-linecap="null" opacity="0.5" x="847.09437" y="676.60547" width="4.20447" height="598.38681" id="svg_55"/>
  <polygon transform="rotate(-124.33613586425781 937.0323486328125,1248.347900390625) " stroke-width="0" points="1076.516185760498,1248.347936630249 969.9601554870605,1350.5633907318115 797.548412322998,1311.520544052124 797.548412322998,1185.175329208374 969.9601554870605,1146.1324825286865 1076.516185760498,1248.347936630249 " fill="#ff7f00" stroke="#e5e58b" id="svg_88"/>
  <rect stroke="#e5e58b" fill="#007fff" stroke-width="0" stroke-dasharray="null" stroke-linejoin="null" stroke-linecap="null" opacity="0.5" x="906.30943" y="906.21617" width="5.83526" height="375.67352" id="svg_59"/>
  <rect stroke="#e5e58b" fill="#007fff" stroke-width="0" stroke-dasharray="null" stroke-linejoin="null" stroke-linecap="null" opacity="0.5" x="758.52607" y="1030.39371" width="169.19354" height="2.52064" id="svg_60"/>
  <rect stroke="#e5e58b" fill="#ffff00" stroke-width="0" stroke-dasharray="null" stroke-linejoin="null" stroke-linecap="null" opacity="0.5" x="799.60941" y="994.07425" width="146.08243" height="2.52064" id="svg_61"/>
  <polygon stroke="#e5e58b" id="svg_42" transform="rotate(-29.923580169677734 820.5700683593748,1250.21630859375) " stroke-width="0" points="948.751708984375,1250.2163391113281 850.829833984375,1352.4317932128906 692.388427734375,1313.3889465332031 692.388427734375,1187.0437316894531 850.829833984375,1148.0008850097656 948.751708984375,1250.2163391113281 " fill="#aaffaa"/>
  <path stroke="#e5e58b" id="svg_153" transform="rotate(111.46981048583984 780.1838378906251,1184.5477294921875) " d="m681.1934,1285.25326l98.99053,-201.41095l98.99053,201.41095l-197.98106,0z" opacity="0.2" stroke-linecap="null" stroke-linejoin="null" stroke-dasharray="null" stroke-width="0" fill="#ffffff"/>
  <polygon stroke="#e5e58b" stroke-width="0" points="846.847412109375,1296.1398010253906 692.375732421875,1416.0024719238281 442.43463134765625,1370.2190246582031 442.43463134765625,1222.0605773925781 692.375732421875,1176.2770690917969 846.847412109375,1296.1398010253906 " fill="#aaffaa" id="svg_63"/>
  <ellipse stroke="#e5e58b" fill="#ffffff" stroke-width="0" stroke-dasharray="null" stroke-linejoin="null" stroke-linecap="null" cx="1078.05646" cy="1074.51719" rx="8.29167" ry="10.29167" id="svg_73"/>
  <polygon id="svg_43" transform="rotate(-124.33613586425781 949.5755615234374,1255.952880859375) " stroke-width="0" points="1089.0594034194946,1255.952862739563 982.5033731460571,1358.1683168411255 810.0916299819946,1319.125470161438 810.0916299819946,1192.780255317688 982.5033731460571,1153.7374086380005 1089.0594034194946,1255.952862739563 " fill="#aaffaa" stroke="#e5e58b"/>
  <rect stroke="#e5e58b" id="svg_64" height="253.33332" width="1110.66671" y="1248.66873" x="167.30982" stroke-linecap="null" stroke-linejoin="null" stroke-dasharray="null" stroke-width="0" fill="#aaffaa"/>
  <polygon stroke="#e5e58b" opacity="0.2" stroke-width="0" points="1048.46826171875,1230.675043396419 715.5250244140625,1315.0761627019965 176.81155395507812,1282.8378225596389 176.81155395507812,1178.512264233199 715.5250244140625,1146.2738037109375 1048.46826171875,1230.675043396419 " fill="#ff7f00" id="svg_154"/>
  <path stroke="#e5e58b" id="svg_152" transform="rotate(-101.1519546508789 481.3724365234374,1203.4533691406248) " d="m377.49227,1434.00478l103.88019,-461.10292l103.88019,461.10292l-207.76038,0z" opacity="0.1" stroke-linecap="null" stroke-linejoin="null" stroke-dasharray="null" stroke-width="0" fill="#00ff00"/>
  <ellipse stroke="#e5e58b" ry="191.33332" rx="151.33333" id="svg_76" cy="1032.37942" cx="625.6206" stroke-linecap="null" stroke-linejoin="null" stroke-dasharray="null" stroke-width="0" fill="#dd5858"/>
  <ellipse id="svg_83" stroke="#e5e58b" ry="22.66667" rx="67.85496" cy="976.69459" cx="647.94422" stroke-linecap="null" stroke-linejoin="null" stroke-dasharray="null" stroke-width="0" fill="#b25907"/>
  <ellipse ry="33.33333" rx="22.66667" id="svg_84" cy="1037.70576" cx="526.86537" opacity="0.8" stroke-linecap="null" stroke-linejoin="null" stroke-dasharray="null" stroke-width="0" stroke="#e5e58b" fill="#ffffff"/>
  <ellipse id="svg_85" ry="33.33333" rx="22.66667" cy="1037.70576" cx="628.1987" opacity="0.85" stroke-linecap="null" stroke-linejoin="null" stroke-dasharray="null" stroke-width="0" stroke="#e5e58b" fill="#ffffff"/>
  <ellipse ry="11.875" rx="24.33332" cy="1132.88635" cx="570.05978" stroke-linecap="null" stroke-linejoin="null" stroke-dasharray="null" stroke-width="0" fill="#7f0000" id="svg_34" stroke="#e5e58b" opacity="0.6"/>
  <ellipse fill="#007fff" stroke="#e5e58b" stroke-width="0" stroke-dasharray="null" stroke-linejoin="null" stroke-linecap="null" cx="518.5167" cy="1055.0608" id="svg_62" rx="5.25" ry="7.5"/>
  <ellipse fill="#007fff" stroke="#e5e58b" stroke-width="0" stroke-dasharray="null" stroke-linejoin="null" stroke-linecap="null" cx="618.2667" cy="1053.5608" rx="5.25" ry="7.5" id="svg_66"/>
  <rect stroke="#e5e58b" id="svg_86" height="1792.81936" width="322.37037" y="8.30364" x="-140.82489" stroke-linecap="null" stroke-linejoin="null" stroke-dasharray="null" stroke-width="0" fill="#ffffff"/>
  <ellipse id="svg_89" stroke="#e5e58b" opacity="0.8" fill="#ff4fa4" stroke-width="0" stroke-dasharray="null" stroke-linejoin="null" stroke-linecap="null" cx="680.49908" cy="544.29309" rx="62.15894" ry="47.0629"/>
  <ellipse id="svg_91" stroke="#e5e58b" opacity="0.2" fill="#ff4fa4" stroke-width="0" stroke-dasharray="null" stroke-linejoin="null" stroke-linecap="null" cx="978.28795" cy="374.5482" rx="85.86265" ry="76.69254"/>
  <ellipse id="svg_92" stroke="#e5e58b" opacity="0.2" fill="#ff4fa4" stroke-width="0" stroke-dasharray="null" stroke-linejoin="null" stroke-linecap="null" cx="979.16586" cy="369.23686" rx="109.56639" ry="96.84069"/>
  <path id="svg_95" stroke="#e5e58b" transform="rotate(41.03022766113281 1059.4553222656248,1191.1148681640625) " d="m1048.32326,1241.59093l11.13189,-100.95174l11.13189,100.95174l-22.26378,0z" opacity="0.1" stroke-linecap="null" stroke-linejoin="null" stroke-dasharray="null" stroke-width="0" fill="#ff0000"/>
  <ellipse id="svg_97" stroke="#e5e58b" opacity="0.2" ry="29.25" rx="27.5625" cy="1016.78957" cx="1087.97284" stroke-linecap="null" stroke-linejoin="null" stroke-dasharray="null" stroke-width="0" fill="#00ff00"/>
  <ellipse id="svg_98" stroke="#e5e58b" opacity="0.2" ry="23.0625" rx="22.21875" cy="1016.22707" cx="1087.12911" stroke-linecap="null" stroke-linejoin="null" stroke-dasharray="null" stroke-width="0" fill="#007fff"/>
  <path id="svg_99" stroke="#e5e58b" d="m927.05013,1220.38205l7.04728,-104.23065l7.04728,104.23065l-14.09456,0z" opacity="0.14" stroke-linecap="null" stroke-linejoin="null" stroke-dasharray="null" stroke-width="0" fill="#ff0000"/>
  <path id="svg_100" stroke="#e5e58b" transform="rotate(-38.27446746826172 862.5168457031252,1174.4454345703127) " d="m875.65294,1296.32734l-13.13617,-243.7637l-13.13617,243.7637l26.27233,0l0.00001,0z" opacity="0.15" stroke-linecap="null" stroke-linejoin="null" stroke-dasharray="null" stroke-width="0" fill="#ff7f00"/>
  <path id="svg_101" stroke="#e5e58b" d="m1016.99257,1262.32133l-6.15263,-133.58243l-6.15263,133.58243l12.30526,0z" opacity="0.2" stroke-linecap="null" stroke-linejoin="null" stroke-dasharray="null" stroke-width="0" fill="#ff7f00"/>
  <rect id="svg_102" stroke="#e5e58b" transform="rotate(-42.17154312133789 854.3757324218745,1152.7012939453125) " height="196.41648" width="1.57815" y="1054.49304" x="853.58662" opacity="0.2" stroke-linecap="null" stroke-linejoin="null" stroke-dasharray="null" stroke-width="0" fill="#7f00ff"/>
  <rect id="svg_103" stroke="#e5e58b" height="92.3807" width="0.51236" y="1138.08081" x="1008.38634" opacity="0.2" stroke-linecap="null" stroke-linejoin="null" stroke-dasharray="null" stroke-width="0" fill="#7f00ff"/>
  <rect id="svg_104" stroke="#e5e58b" fill="#ff007f" stroke-width="0" stroke-dasharray="null" stroke-linejoin="null" stroke-linecap="null" opacity="0.5" x="1084.86036" y="1134.61561" width="270.32935" height="3.35724"/>
  <ellipse id="svg_108" stroke="#e5e58b" ry="191.33332" rx="151.33333" cy="1118.91561" cx="993.88599" stroke-linecap="null" stroke-linejoin="null" stroke-dasharray="null" stroke-width="0" fill="#7f0000"/>
  <ellipse id="svg_109" ry="138.66667" rx="121.33333" cy="1077.36009" cx="989.00535" stroke-linecap="null" stroke-linejoin="null" stroke-dasharray="null" stroke-width="0" stroke="#e5e58b" fill="#aad4ff"/>
  <rect id="svg_110" height="57.33333" width="38.66667" y="1191.58231" x="963.886" stroke-linecap="null" stroke-linejoin="null" stroke-dasharray="null" stroke-width="0" stroke="#e5e58b" fill="#aad4ff"/>
  <polygon stroke="#e5e58b" id="svg_158" opacity="0.1" stroke-width="0" points="1267.5792642831802,1379.3664140701294 869.4473062753677,1473.2489824295044 225.25600683689117,1437.3888750076294 225.25600683689117,1321.3437089920044 869.4473062753677,1285.483723640442 1267.5792642831802,1379.3664140701294 " fill="#0000ff"/>
  <path stroke="#e5e58b" id="svg_111" d="m1067.14161,1284.96016c0,22.21412 -36.26495,40.22222 -81.00003,40.22222m81.00003,-40.22222l0,0c0,22.21412 -36.26495,40.22222 -81.00003,40.22222c-44.73506,0 -81,-18.00807 -81,-40.22222m0,0l0,0c0,-22.2141 36.26494,-40.22221 81,-40.22221c44.73508,0 81.00003,18.00812 81.00003,40.22221l0,160.88897c0,22.2141 -36.26495,40.22216 -81.00003,40.22216c-44.73506,0 -81,-18.00806 -81,-40.22216l0,-160.88897z" stroke-linecap="null" stroke-linejoin="null" stroke-dasharray="null" stroke-width="0" fill="#007f00"/>
  <path id="svg_112" stroke="#e5e58b" d="m981.25071,939.79207c0,0 -6.05936,61.64804 9.69498,35.61887c15.75435,-26.02918 16.56226,-42.46866 16.3785,-43.39629c-0.18377,-0.92763 -26.07348,7.77741 -26.07348,7.77741l0,0.00001z" stroke-linecap="null" stroke-linejoin="null" stroke-dasharray="null" stroke-width="0" fill="#7f0000"/>
  <path transform="rotate(-99.37155151367188 983.0581054687498,1186.4365234374998) " id="svg_113" opacity="0.5" stroke="#e5e58b" d="m974.69506,1163.0874c0,0 -4.06253,84.21978 6.50004,48.66032c10.56257,-35.55947 11.10424,-58.01808 10.98104,-59.28535c-0.12321,-1.26727 -17.48109,10.62503 -17.48109,10.62503l0.00001,0z" stroke-linecap="null" stroke-linejoin="null" stroke-dasharray="null" stroke-width="0" fill="#7f0000"/>
  <path stroke="#e5e58b" transform="rotate(-109.21694946289062 1019.3291015625002,950.0117797851565) " id="svg_114" d="m994.54643,929.15103c0,0 -12.03869,75.24473 19.26188,43.47473c31.30055,-31.77001 32.90571,-51.83527 32.54062,-52.96748c-0.36511,-1.13222 -51.8025,9.49275 -51.8025,9.49275z" stroke-linecap="null" stroke-linejoin="null" stroke-dasharray="null" stroke-width="0" fill="#7f0000"/>
  <path id="svg_115" stroke="#e5e58b" d="m883.886,1006.30236c0,0 44,6.30581 61.33333,-13.87277c17.33333,-20.17858 21.33333,-36.57367 20.72679,-37.42763c-0.60654,-0.85396 0.60654,-16.80229 0,-17.65626c-0.60654,-0.85396 -82.06012,68.95666 -82.06012,68.95666z" stroke-linecap="null" stroke-linejoin="null" stroke-dasharray="null" stroke-width="0" fill="#7f0000"/>
  <ellipse stroke="#e5e58b" transform="rotate(-34.09395980834961 928.1403808593748,985.1948852539064) " id="svg_116" ry="25.28258" rx="67.85496" cy="985.19494" cx="928.14042" stroke-linecap="null" stroke-linejoin="null" stroke-dasharray="null" stroke-width="0" fill="#7f0000"/>
  <ellipse stroke="#e5e58b" transform="rotate(25.468769073486328 1035.8115234375002,986.0623168945311) " id="svg_117" ry="33.04269" rx="67.85496" cy="986.06228" cx="1035.81155" stroke-linecap="null" stroke-linejoin="null" stroke-dasharray="null" stroke-width="0" fill="#7f0000"/>
  <ellipse id="svg_118" ry="33.33333" rx="22.66667" cy="1100.91564" cx="914.55267" opacity="0.5" stroke-linecap="null" stroke-linejoin="null" stroke-dasharray="null" stroke-width="0" stroke="#e5e58b" fill="#ffffff"/>
  <ellipse id="svg_119" ry="33.33333" rx="22.66667" cy="1100.91564" cx="1015.886" opacity="0.5" stroke-linecap="null" stroke-linejoin="null" stroke-dasharray="null" stroke-width="0" stroke="#e5e58b" fill="#ffffff"/>
  <ellipse id="svg_120" ry="11.875" rx="24.33332" cy="1251.20733" cx="982.63598" stroke-linecap="null" stroke-linejoin="null" stroke-dasharray="null" stroke-width="0" fill="#aad4ff" stroke="#e5e58b"/>
  <path id="svg_122" fill="#0000ff" stroke-width="0" stroke-dasharray="null" stroke-linejoin="null" stroke-linecap="null" d="m968.02988,1147.34652l3.77184,12.64406c0,0 -4.54167,1.54254 -13.77995,1.54254c-9.23824,0 10.00811,-14.1866 10.00811,-14.1866z" transform="rotate(51.59599304199219 963.6572265625,1154.4398193359375) " opacity="0.45" stroke="#e5e58b"/>
  <ellipse id="svg_123" fill="#007fff" stroke="#e5e58b" stroke-width="0" stroke-dasharray="null" stroke-linejoin="null" stroke-linecap="null" cx="906.204" cy="1118.27068" rx="5.25" ry="7.5"/>
  <ellipse id="svg_124" fill="#007fff" stroke="#e5e58b" stroke-width="0" stroke-dasharray="null" stroke-linejoin="null" stroke-linecap="null" cx="1005.954" cy="1116.77068" rx="5.25" ry="7.5"/>
  <ellipse id="svg_125" ry="31.75" rx="32.95833" cy="1338.16564" cx="996.59431" stroke-linecap="null" stroke-linejoin="null" stroke-dasharray="null" stroke-width="6" fill="none" opacity="0.05" stroke="#111108"/>
  <ellipse id="svg_126" ry="43" rx="44.95833" cy="1329.5823" cx="1008.51101" stroke-linecap="null" stroke-linejoin="null" stroke-dasharray="null" stroke-width="0" fill="#007f00" stroke="#e5e58b"/>
  <ellipse id="svg_127" ry="31.75" rx="32.95833" cy="1337.41564" cx="929.09431" stroke-linecap="null" stroke-linejoin="null" stroke-dasharray="null" stroke-width="6" fill="none" opacity="0.01" stroke="#111108"/>
  <path id="svg_129" stroke="#e5e58b" transform="rotate(-147.9931640625 953.99560546875,950.0119018554689) " d="m929.2131,929.15103c0,0 -12.03869,75.24473 19.26188,43.47473c31.30055,-31.77 32.90571,-51.83526 32.54062,-52.96748c-0.36511,-1.13222 -51.8025,9.49275 -51.8025,9.49275z" stroke-linecap="null" stroke-linejoin="null" stroke-dasharray="null" stroke-width="0" fill="#7f0000"/>
  <path stroke="#f9f9e5" transform="rotate(34.74989700317383 602.5626220703125,1192.121337890625) " id="svg_130" d="m559.74769,1221.09122c0,0 77.42869,7.22402 85.17156,-43.34409c7.74287,-50.56811 -85.17156,43.34409 -85.17156,43.34409z" stroke-linecap="null" stroke-linejoin="null" stroke-dasharray="null" stroke-width="0" fill="#ffffff"/>
  <rect stroke="#e5e58b" id="svg_131" height="1.3407" width="89.73608" y="1198.61929" x="558.62739" stroke-linecap="null" stroke-linejoin="null" stroke-dasharray="null" stroke-width="0" fill="#000000"/>
  <rect stroke="#e5e58b" id="svg_132" height="2.60633" width="87.20484" y="1199.56841" x="562.42427" stroke-linecap="null" stroke-linejoin="null" stroke-dasharray="null" stroke-width="0" fill="#000000"/>
  <rect stroke="#e5e58b" id="svg_133" height="14.47967" width="2.23218" y="1186.6715" x="578.45549" stroke-linecap="null" stroke-linejoin="null" stroke-dasharray="null" stroke-width="0" fill="#000000"/>
  <rect stroke="#e5e58b" id="svg_134" height="14.47967" width="2.23218" y="1187.86681" x="568.75238" stroke-linecap="null" stroke-linejoin="null" stroke-dasharray="null" stroke-width="0" fill="#000000"/>
  <rect stroke="#e5e58b" id="svg_135" height="8.85465" width="2.23218" y="1189.55432" x="560.87738" stroke-linecap="null" stroke-linejoin="null" stroke-dasharray="null" stroke-width="0" fill="#000000"/>
  <rect id="svg_136" stroke="#e5e58b" height="14.47967" width="2.23218" y="1186.109" x="589.70549" stroke-linecap="null" stroke-linejoin="null" stroke-dasharray="null" stroke-width="0" fill="#000000"/>
  <rect id="svg_137" stroke="#e5e58b" height="14.47967" width="2.23218" y="1185.5465" x="601.51799" stroke-linecap="null" stroke-linejoin="null" stroke-dasharray="null" stroke-width="0" fill="#000000"/>
  <rect id="svg_138" stroke="#e5e58b" height="14.47967" width="2.23218" y="1185.5465" x="612.76799" stroke-linecap="null" stroke-linejoin="null" stroke-dasharray="null" stroke-width="0" fill="#000000"/>
  <rect id="svg_139" stroke="#e5e58b" height="14.47967" width="2.23218" y="1184.4215" x="626.26799" stroke-linecap="null" stroke-linejoin="null" stroke-dasharray="null" stroke-width="0" fill="#000000"/>
  <rect id="svg_140" stroke="#e5e58b" height="14.47967" width="2.23218" y="1184.984" x="638.64299" stroke-linecap="null" stroke-linejoin="null" stroke-dasharray="null" stroke-width="0" fill="#000000"/>
  <rect stroke="#e5e58b" id="svg_141" height="10.72343" width="2.79467" y="1202.20228" x="583.81353" stroke-linecap="null" stroke-linejoin="null" stroke-dasharray="null" stroke-width="0" fill="#000000"/>
  <rect stroke="#e5e58b" id="svg_142" height="5.78451" width="2.79467" y="1201.40137" x="572.73437" stroke-linecap="null" stroke-linejoin="null" stroke-dasharray="null" stroke-width="0" fill="#000000"/>
  <rect stroke="#e5e58b" id="svg_143" height="14.59448" width="2.79467" y="1203.27016" x="609.17547" stroke-linecap="null" stroke-linejoin="null" stroke-dasharray="null" stroke-width="0" fill="#000000"/>
  <rect stroke="#e5e58b" id="svg_144" height="12.59221" width="2.79467" y="1203.13666" x="596.76147" stroke-linecap="null" stroke-linejoin="null" stroke-dasharray="null" stroke-width="0" fill="#000000"/>
  <rect stroke="#e5e58b" id="svg_145" height="15.39528" width="2.79467" y="1202.33567" x="621.45598" stroke-linecap="null" stroke-linejoin="null" stroke-dasharray="null" stroke-width="0" fill="#000000"/>
  <rect stroke="#e5e58b" id="svg_146" height="11.9247" width="2.79467" y="1202.06871" x="632.66863" stroke-linecap="null" stroke-linejoin="null" stroke-dasharray="null" stroke-width="0" fill="#000000"/>
  <ellipse id="svg_147" stroke="#e5e58b" ry="22.66667" rx="67.85496" cy="982.22545" cx="647.15409" stroke-linecap="null" stroke-linejoin="null" stroke-dasharray="null" stroke-width="0" fill="#dd5858"/>
  <path id="svg_148" stroke="#e5e58b" transform="rotate(-159.6562042236328 345.5251770019531,1320.8570556640623) " d="m242.76974,1373.08302l102.75544,-104.45178l102.75544,104.45178l-205.51088,0z" opacity="0.1" stroke-linecap="null" stroke-linejoin="null" stroke-dasharray="null" stroke-width="0" fill="#ff7f00"/>
  <path stroke="#e5e58b" id="svg_149" transform="rotate(-9.727869987487793 263.65579223632614,1155.79833984375) " d="m236.23125,1224.56392l27.42453,-137.53112l27.42453,137.53112l-54.84906,0z" opacity="0.25" stroke-linecap="null" stroke-linejoin="null" stroke-dasharray="null" stroke-width="0" fill="#ffffff"/>
  <path stroke="#e5e58b" id="svg_150" transform="rotate(-153.59921264648438 792.3467407226562,1299.34228515625) " d="m668.41543,1352.03513l123.93131,-105.38585l123.93131,105.38585l-247.86263,0l0.00001,0z" opacity="0.1" stroke-linecap="null" stroke-linejoin="null" stroke-dasharray="null" stroke-width="0" fill="#ff7f00"/>
  <path stroke="#e5e58b" id="svg_151" transform="rotate(-30.216379165649414 424.76205444335994,1069.2675781250002) " d="m404.03707,1121.47543l20.72496,-104.41562l20.72496,104.41562l-41.44992,0z" opacity="0.25" stroke-linecap="null" stroke-linejoin="null" stroke-dasharray="null" stroke-width="0" fill="#ffffff"/>
  <polygon opacity="0.2" fill="#ff7f00" id="svg_155"/>
  <polygon opacity="0.2" fill="#ff7f00" id="svg_156"/>
  <path stroke="#e5e58b" transform="rotate(-179.72850036621094 1192.1339111328125,1272.1939697265623) " id="svg_157" d="m1106.75736,1285.76958l35.95028,-35.76726l119.83429,0c11.98343,11.92242 2.9851,32.46075 14.96852,44.38317l-170.7531,-8.61591l0.00001,0z" opacity="0.2" stroke-linecap="null" stroke-linejoin="null" stroke-dasharray="null" stroke-width="0" fill="#007f00"/>
  <ellipse ry="31.02334" rx="34.85322" id="svg_160" cy="560.68402" cx="302.92532" opacity="0.5" stroke-linecap="null" stroke-linejoin="null" stroke-dasharray="null" stroke-width="7" fill="#00ffff" stroke="#c9c91a"/>
  <ellipse stroke="#e5e58b" id="svg_161" ry="22.66667" rx="63.11423" cy="974.91681" cx="511.05534" stroke-linecap="null" stroke-linejoin="null" stroke-dasharray="null" stroke-width="0" fill="#b25907"/>
  <ellipse stroke="#e5e58b" ry="22.66667" rx="67.85496" id="svg_82" cy="981.2378" cx="508.38865" stroke-linecap="null" stroke-linejoin="null" stroke-dasharray="null" stroke-width="0" fill="#dd5858"/>
  <rect fill="#dd5858" stroke-width="0" stroke-dasharray="null" stroke-linejoin="null" stroke-linecap="null" x="645.90392" y="1213.73942" width="25.28397" height="53.7284" id="svg_36" stroke="#e5e58b"/>
  <path fill="#00007f" stroke="#e5e58b" stroke-width="0" stroke-dasharray="null" stroke-linejoin="null" stroke-linecap="null" d="m564.39416,1257.8799l99.55561,0l0,0c54.98306,0 99.55561,44.57257 99.55561,99.55561c0,54.98306 -44.57256,99.55561 -99.55561,99.55561l-99.55561,0l0,-199.11123l0,0.00001z" id="svg_54" transform="rotate(-90.51203155517578 663.9497680664062,1357.435546875) "/>
  <ellipse fill="#00ffff" stroke-width="0" stroke-dasharray="null" stroke-linejoin="null" stroke-linecap="null" cx="575.72236" cy="937.99391" id="svg_68" rx="12.44445" ry="10.66666" opacity="0.5" stroke="#f9f9e5"/>
  <ellipse fill="#00ffff" stroke-width="0" stroke-dasharray="null" stroke-linejoin="null" stroke-linecap="null" cx="597.05569" cy="868.66058" rx="12.44445" ry="10.66666" opacity="0.5" stroke="#f9f9e5" id="svg_69"/>
  <ellipse fill="#00ffff" stroke-width="0" stroke-dasharray="null" stroke-linejoin="null" stroke-linecap="null" cx="749.94458" cy="1055.32725" rx="12.44445" ry="10.66666" opacity="0.5" stroke="#f9f9e5" id="svg_70"/>
  <ellipse ry="11.875" rx="24.33332" cy="1127.55301" cx="570.05979" stroke-linecap="null" stroke-linejoin="null" stroke-dasharray="null" stroke-width="0" fill="#dd5858" id="svg_71" stroke="#e5e58b"/>
  <ellipse fill="#ff00ff" stroke="#e5e58b" stroke-width="0" stroke-dasharray="null" stroke-linejoin="null" stroke-linecap="null" opacity="0.45" cx="965.72332" cy="1049.53583" id="svg_72" rx="11.39063" ry="10.54688"/>
  <ellipse fill="#ff00ff" stroke-width="0" stroke-dasharray="null" stroke-linejoin="null" stroke-linecap="null" opacity="0.45" cx="966.77801" cy="1019.16081" rx="6.96094" ry="6.75" id="svg_74" stroke="#e5e58b"/>
  <ellipse fill="#ff00ff" stroke="#e5e58b" stroke-width="0" stroke-dasharray="null" stroke-linejoin="null" stroke-linecap="null" opacity="0.45" cx="1091.94554" cy="1109.98027" rx="11.39063" ry="10.54688" id="svg_75"/>
  <path fill="#ffffff" stroke="#e5e58b" stroke-width="0" stroke-dasharray="null" stroke-linejoin="null" stroke-linecap="null" opacity="0.45" d="m964.59121,1140.67455l11.15879,-5.92455l-11.15879,5.92455z" id="svg_77"/>
  <path fill="#dd5858" stroke-width="0" stroke-dasharray="null" stroke-linejoin="null" stroke-linecap="null" d="m643.5114,1283.45499l15.74974,-25.5937l15.74974,25.5937l-31.49948,0z" id="svg_78" transform="rotate(178.8484649658203 659.2611083984375,1270.6580810546875) " stroke="#e5e58b"/>
  <rect fill="#dd5858" stroke-width="0" stroke-dasharray="null" stroke-linejoin="null" stroke-linecap="null" x="645.90392" y="1254.23949" width="25.28397" height="7.97839" id="svg_81" stroke="#e5e58b"/>
  <rect fill="#007fff" stroke-width="0" stroke-dasharray="null" stroke-linejoin="null" stroke-linecap="null" x="630.6563" y="1258.23529" width="21" height="26.73399" id="svg_93" transform="rotate(-25.463829040527344 641.1563110351566,1271.6022949218748) " stroke="#e5e58b"/>
  <rect fill="#007fff" stroke-width="0" stroke-dasharray="null" stroke-linejoin="null" stroke-linecap="null" x="667.4063" y="1258.23529" width="21" height="26.73399" transform="rotate(27.80965805053711 677.9063110351549,1271.6022949218755) " stroke="#e5e58b" id="svg_94"/>
  <path fill="#ffffff" stroke-width="0" stroke-dasharray="null" stroke-linejoin="null" stroke-linecap="null" d="m1416.46114,770.28719l1.89263,-2.16691l0,1.08344l0.75884,0l0,-1.7326l1.51328,0l0,-0.86882l-0.9463,0l1.89262,-2.16692l1.89265,2.16692l-0.94632,0l0,0.86882l1.51328,0l0,1.7326l0.75885,0l0,-1.08344l1.89265,2.16691l-1.89265,2.16694l0,-1.08347l-0.75885,0l0,1.7326l-1.51328,0l0,0.86882l0.94632,0l-1.89265,2.16694l-1.89262,-2.16694l0.9463,0l0,-0.86882l-1.51328,0l0,-1.7326l-0.75884,0l0,1.08347l-1.89263,-2.16694z" id="svg_105" stroke="#f9f9e5" opacity="0.75"/>
  <path fill="#ffffff" stroke-width="0" stroke-dasharray="null" stroke-linejoin="null" stroke-linecap="null" d="m1106.96115,732.78719l1.47605,-2.16691l0,1.08344l0.59181,0l0,-1.7326l1.18019,0l0,-0.86882l-0.73801,0l1.47604,-2.16692l1.47606,2.16692l-0.73803,0l0,0.86882l1.18019,0l0,1.7326l0.59182,0l0,-1.08344l1.47606,2.16691l-1.47606,2.16695l0,-1.08348l-0.59182,0l0,1.7326l-1.18019,0l0,0.86882l0.73803,0l-1.47606,2.16695l-1.47604,-2.16695l0.73801,0l0,-0.86882l-1.18019,0l0,-1.7326l-0.59181,0l0,1.08348l-1.47605,-2.16695z" id="svg_106" stroke="#f9f9e5"/>
  <path fill="#ff0000" stroke-width="0" stroke-dasharray="null" stroke-linejoin="null" stroke-linecap="null" d="m1496.46114,1053.28719l1.89264,-2.16691l0,1.08344l0.75884,0l0,-1.7326l1.51328,0l0,-0.86882l-0.9463,0l1.89263,-2.16692l1.89265,2.16692l-0.94633,0l0,0.86882l1.51328,0l0,1.7326l0.75885,0l0,-1.08344l1.89265,2.16691l-1.89265,2.16695l0,-1.08348l-0.75885,0l0,1.7326l-1.51328,0l0,0.86882l0.94633,0l-1.89265,2.16695l-1.89263,-2.16695l0.9463,0l0,-0.86882l-1.51328,0l0,-1.7326l-0.75884,0l0,1.08348l-1.89264,-2.16695z" stroke="#f9f9e5" id="svg_107" opacity="0.25"/>
  <path fill="#ffffff" stroke-width="0" stroke-dasharray="null" stroke-linejoin="null" stroke-linecap="null" d="m1254.46114,634.28719l1.89264,-2.16691l0,1.08344l0.75884,0l0,-1.7326l1.51328,0l0,-0.86882l-0.9463,0l1.89263,-2.16692l1.89265,2.16692l-0.94633,0l0,0.86882l1.51328,0l0,1.7326l0.75885,0l0,-1.08344l1.89265,2.16691l-1.89265,2.16695l0,-1.08348l-0.75885,0l0,1.7326l-1.51328,0l0,0.86882l0.94633,0l-1.89265,2.16695l-1.89263,-2.16695l0.9463,0l0,-0.86882l-1.51328,0l0,-1.7326l-0.75884,0l0,1.08348l-1.89264,-2.16695z" stroke="#f9f9e5" id="svg_121"/>
  <path fill="#ffffff" stroke-width="0" stroke-dasharray="null" stroke-linejoin="null" stroke-linecap="null" d="m1496.46114,850.28719l1.89264,-2.16691l0,1.08344l0.75884,0l0,-1.7326l1.51328,0l0,-0.86882l-0.9463,0l1.89263,-2.16692l1.89265,2.16692l-0.94633,0l0,0.86882l1.51328,0l0,1.7326l0.75885,0l0,-1.08344l1.89265,2.16691l-1.89265,2.16695l0,-1.08348l-0.75885,0l0,1.7326l-1.51328,0l0,0.86882l0.94633,0l-1.89265,2.16695l-1.89263,-2.16695l0.9463,0l0,-0.86882l-1.51328,0l0,-1.7326l-0.75884,0l0,1.08348l-1.89264,-2.16695z" stroke="#f9f9e5" id="svg_162" opacity="0.55"/>
  <path fill="#ffffff" stroke-width="0" stroke-dasharray="null" stroke-linejoin="null" stroke-linecap="null" d="m1340.71116,910.78719l0.9206,-1.61147l0,0.80572l0.36911,0l0,-1.28848l0.73608,0l0,-0.64612l-0.46029,0l0.92059,-1.61147l0.9206,1.61147l-0.4603,0l0,0.64612l0.73608,0l0,1.28848l0.36911,0l0,-0.80572l0.9206,1.61147l-0.9206,1.6115l0,-0.80575l-0.36911,0l0,1.28848l-0.73608,0l0,0.64612l0.4603,0l-0.9206,1.6115l-0.92059,-1.6115l0.46029,0l0,-0.64612l-0.73608,0l0,-1.28848l-0.36911,0l0,0.80575l-0.9206,-1.6115z" id="svg_163" stroke="#f9f9e5" opacity="0.95"/>
  <path fill="#ffff00" stroke-width="0" stroke-dasharray="null" stroke-linejoin="null" stroke-linecap="null" d="m1100.47288,961.28719l0.77957,-2.16691l0,1.08344l0.31256,0l0,-1.7326l0.62331,0l0,-0.86882l-0.38978,0l0.77956,-2.16692l0.77957,2.16692l-0.38979,0l0,0.86882l0.62331,0l0,1.7326l0.31257,0l0,-1.08344l0.77957,2.16691l-0.77957,2.16695l0,-1.08348l-0.31257,0l0,1.7326l-0.62331,0l0,0.86882l0.38979,0l-0.77957,2.16695l-0.77956,-2.16695l0.38978,0l0,-0.86882l-0.62331,0l0,-1.7326l-0.31256,0l0,1.08348l-0.77957,-2.16695z" id="svg_164" stroke="#f9f9e5" opacity="0.65"/>
  <path fill="#ffffff" stroke-width="0" stroke-dasharray="null" stroke-linejoin="null" stroke-linecap="null" d="m1477.71116,1088.78719l0.9206,-1.61146l0,0.80572l0.36911,0l0,-1.28848l0.73607,0l0,-0.64612l-0.46029,0l0.9206,-1.61147l0.9206,1.61147l-0.4603,0l0,0.64612l0.73607,0l0,1.28848l0.36912,0l0,-0.80572l0.9206,1.61146l-0.9206,1.6115l0,-0.80575l-0.36912,0l0,1.28848l-0.73607,0l0,0.64612l0.4603,0l-0.9206,1.61149l-0.9206,-1.61149l0.46029,0l0,-0.64612l-0.73607,0l0,-1.28848l-0.36911,0l0,0.80575l-0.9206,-1.6115z" stroke="#f9f9e5" opacity="0.95" id="svg_165"/>
  <path fill="#ffffff" stroke-width="0" stroke-dasharray="null" stroke-linejoin="null" stroke-linecap="null" opacity="0.4" d="m1149.97159,1124.68114l4.12497,-5.62494l4.12497,5.62494l-4.12497,5.62494l-4.12497,-5.62494z" id="svg_166" stroke="#f9f9e5"/>
  <path stroke="#f9f9e5" fill="#ffffff" stroke-width="0" stroke-dasharray="null" stroke-linejoin="null" stroke-linecap="null" opacity="0.9" d="m1414.22157,1230.51448l2.12498,-5.62495l2.12498,5.62495l-2.12498,5.62494l-2.12498,-5.62494z" id="svg_167"/>
  <path fill="#ffffff" stroke-width="0" stroke-dasharray="null" stroke-linejoin="null" stroke-linecap="null" opacity="0.7" d="m1548.22159,992.51447l4.12497,-5.62495l4.12496,5.62495l-4.12496,5.62494l-4.12497,-5.62494z" stroke="#f9f9e5" id="svg_168"/>
  <path stroke="#f9f9e5" fill="#ffffff" stroke-width="0" stroke-dasharray="null" stroke-linejoin="null" stroke-linecap="null" opacity="0.7" d="m1167.97158,845.68113l2.99998,-8.62493l2.99997,8.62493l-2.99997,8.62491l-2.99998,-8.62491z" id="svg_169"/>
  <path fill="#ffffff" stroke-width="0" stroke-dasharray="null" stroke-linejoin="null" stroke-linecap="null" opacity="0.4" d="m1303.72159,739.93114l4.12497,-5.62495l4.12496,5.62495l-4.12496,5.62494l-4.12497,-5.62494z" stroke="#f9f9e5" id="svg_170"/>
  <path stroke="#f9f9e5" fill="#ffffff" stroke-width="0" stroke-dasharray="null" stroke-linejoin="null" stroke-linecap="null" opacity="0.4" d="m1256.97157,953.18114l2.12498,-5.62495l2.12498,5.62495l-2.12498,5.62494l-2.12498,-5.62494z" id="svg_171"/>
  <path stroke="#f9f9e5" fill="#ffff00" stroke-width="0" stroke-dasharray="null" stroke-linejoin="null" stroke-linecap="null" opacity="0.4" d="m1305.74937,1301.79222l3.12496,-9.62496l3.12496,9.62496l-3.12496,9.62494l-3.12496,-9.62494z" id="svg_172"/>
  <path fill="#ffffff" stroke-width="0" stroke-dasharray="null" stroke-linejoin="null" stroke-linecap="null" opacity="0.7" d="m914.19117,1297.50019c0,0 1.30641,99.36539 0,143.08616c-1.30641,43.72077 -1.30641,-31.79692 -0.81877,-32.55604c0.48764,-0.75912 0.81877,-110.53012 0.81877,-110.53012z" id="svg_173" transform="rotate(179.92222595214844 913.9222412109375,1375.8492431640623) " stroke="#f9f9e5"/>
  <rect fill="#000000" stroke-width="0" stroke-dasharray="null" stroke-linejoin="null" stroke-linecap="null" opacity="0.5" x="723.67908" y="1342.58647" width="2.6574" height="107.25924" id="svg_174" stroke="#e5e58b"/>
  <rect fill="#000000" stroke-width="0" stroke-dasharray="null" stroke-linejoin="null" stroke-linecap="null" opacity="0.5" x="591.84575" y="1341.75314" width="1.9074" height="107.25924" id="svg_175" stroke="#e5e58b"/>
  <ellipse id="svg_128" ry="33.625" rx="33.33332" cy="1335.95731" cx="931.63599" stroke-linecap="null" stroke-linejoin="null" stroke-dasharray="null" stroke-width="0" fill="#007f00" stroke="#e5e58b"/>
  <path stroke="#f9f9e5" id="svg_80" fill="#ffffff" stroke-width="0" stroke-dasharray="null" stroke-linejoin="null" stroke-linecap="null" opacity="0.7" d="m1030.85614,1296.32606c0,0 1.68901,69.0461 0,99.42638c-1.68901,30.38028 -1.68901,-22.09475 -1.05856,-22.62224c0.63045,-0.52749 1.05856,-76.80414 1.05856,-76.80414z" transform="rotate(179.92222595214844 1030.50830078125,1350.7685546875) "/>
  <rect id="svg_87" height="517.73563" width="1978.00078" y="1455.69277" x="-155.80797" stroke-linecap="null" stroke-linejoin="null" stroke-dasharray="null" stroke-width="0" fill="#ffffff" stroke="#f9f9e5"/>
 </g>
</svg>
