<svg width="1800.0000000000005" height="1800.0000000000005" xmlns="http://www.w3.org/2000/svg" xmlns:svg="http://www.w3.org/2000/svg" xmlns:xlink="http://www.w3.org/1999/xlink">
 <!-- Created with SVG-edit - http://svg-edit.googlecode.com/ -->
 <defs>
  <radialGradient id="svg_67" spreadMethod="pad" cx="0.5" cy="0.5" r="0.5">
   <stop stop-color="#ff7f00" offset="0.23405"/>
   <stop stop-color="#0080ff" offset="0.24967"/>
   <stop stop-color="#ff7f00" offset="0.82389"/>
   <stop stop-color="#ff7f00" offset="0.92546"/>
   <stop stop-color="#0080ff" offset="0.9528"/>
  </radialGradient>
  <radialGradient id="svg_90" spreadMethod="pad" cx="0.5" cy="0.5" r="0.5">
   <stop stop-color="#e5e58b" offset="0.12467"/>
   <stop stop-color="#1a1a74" offset="0.4528"/>
   <stop stop-color="#e5e58b" offset="1"/>
  </radialGradient>
 </defs>
 <g stroke="null">
  <title>Layer 1</title>
  <image transform="rotate(-1.0307034254074097 651.9066772461123,1313.5447998046866) " x="-698.91576" y="107.71774" width="2701.64471" height="2411.65421" id="svg_6" xlink:href="http://res.cloudinary.com/kboyle/image/upload/v1529113593/trippyself.png"/>
  <ellipse ry="409.76387" rx="300.07871" id="svg_65" cy="990.62375" cx="1286.14791" stroke-linecap="null" stroke-linejoin="null" stroke-dasharray="null" stroke-width="16" fill="#000000" stroke="url(#svg_90)" opacity="0.99"/>
  <ellipse id="svg_79" ry="64.29171" rx="60.95825" cy="1206.62131" cx="943.72293" stroke-linecap="null" stroke-linejoin="null" stroke-dasharray="null" stroke-width="0" fill="url(#svg_67)" stroke="#e5e58b" opacity="0.5"/>
  <rect fill="#ffffff" stroke-width="0" stroke-dasharray="null" stroke-linejoin="null" stroke-linecap="null" x="938.06632" y="245.6087" width="21.32405" height="16.3184" id="d_svg_84" stroke="#e5e58b"/>
  <ellipse id="d_svg_103" ry="5" rx="44.39906" cy="664.69896" cx="61.47102" opacity="0.95" stroke-linecap="null" stroke-linejoin="null" stroke-dasharray="null" stroke-width="0" fill="url(#svg_107)" fill-opacity="0.93" stroke="#e5e58b"/>
  <ellipse ry="16" rx="44" cy="697.87589" cx="61.30712" opacity="0.95" stroke-linecap="null" stroke-linejoin="null" stroke-dasharray="null" stroke-width="0" fill="url(#svg_110)" fill-opacity="0.93" id="d_svg_108" stroke="#e5e58b"/>
  <ellipse ry="5" rx="50.5" id="d_svg_77" cy="691.87589" cx="59.80713" opacity="0.95" stroke-linecap="null" stroke-linejoin="null" stroke-dasharray="null" stroke-width="0" fill="url(#svg_107)" fill-opacity="0.93" stroke="#e5e58b"/>
  <ellipse ry="140.72327" rx="138.08184" cy="361.63087" cx="984.06689" stroke-linecap="null" stroke-linejoin="null" stroke-dasharray="null" stroke-width="0" fill="#0000ff" id="d_svg_83" opacity="0.5" stroke="#e5e58b"/>
  <ellipse ry="47.0629" rx="62.15894" id="d_svg_46" cy="1233.98305" cx="478.22755" stroke-linecap="null" stroke-linejoin="null" stroke-dasharray="null" stroke-width="0" fill="#ff4fa4" opacity="0.8" stroke="#e5e58b"/>
  <rect fill="#ffffff" stroke-width="0" stroke-dasharray="null" stroke-linejoin="null" stroke-linecap="null" x="-338.14111" y="-255.85694" width="21.32405" height="16.3184" id="d_svg_86" stroke="#e5e58b"/>
  <ellipse opacity="0.5" id="svg_8" ry="24.10542" rx="24.93535" cy="547.32184" cx="1206.42881" stroke-linecap="null" stroke-linejoin="null" stroke-dasharray="null" stroke-width="0" fill="#fc3f3f" stroke="#e5e58b"/>
  <rect id="svg_9" height="1011.35797" width="21.06997" y="345.43396" x="1057.73761" opacity="0.5" stroke-linecap="null" stroke-linejoin="null" stroke-dasharray="null" stroke-width="0" fill="#007fff" stroke="#e5e58b"/>
  <rect id="svg_10" height="598.38681" width="12.64199" y="745.76319" x="1127.74699" opacity="0.5" stroke-linecap="null" stroke-linejoin="null" stroke-dasharray="null" stroke-width="0" fill="#007fff" stroke="#e5e58b"/>
  <ellipse ry="76.69254" rx="85.86265" cy="1232.79786" cx="478.2276" stroke-linecap="null" stroke-linejoin="null" stroke-dasharray="null" stroke-width="0" fill="#ff4fa4" id="svg_11" opacity="0.2" stroke="#e5e58b"/>
  <ellipse ry="96.84069" rx="109.56639" cy="1238.72382" cx="473.48686" stroke-linecap="null" stroke-linejoin="null" stroke-dasharray="null" stroke-width="0" fill="#ff4fa4" opacity="0.2" id="svg_12" stroke="#e5e58b"/>
  <ellipse opacity="0.7" ry="29.44211" rx="31.65625" id="d_svg_52" cy="1117.06835" cx="205.75968" stroke-linecap="null" stroke-linejoin="null" stroke-dasharray="null" stroke-width="0" fill="#ffaaaa" stroke="#e5e58b"/>
  <ellipse opacity="0.5" id="svg_3" ry="23.7468" rx="26.43555" cy="1034.43874" cx="437.45781" stroke-linecap="null" stroke-linejoin="null" stroke-dasharray="null" stroke-width="0" fill="#7f00ff" stroke="#e5e58b"/>
  <ellipse id="svg_4" opacity="0.5" ry="22.56568" rx="17.29932" cy="1235.32206" cx="259.45566" stroke-linecap="null" stroke-linejoin="null" stroke-dasharray="null" stroke-width="0" fill="#00ffff" stroke="#e5e58b"/>
  <ellipse stroke="#e5e58b" ry="58.69701" rx="79.45168" cy="551.77576" cx="687.04916" stroke-linecap="null" stroke-linejoin="null" stroke-dasharray="null" stroke-width="0" fill="#ffff00" opacity="0.5" id="svg_17"/>
  <ellipse ry="92.15533" rx="124.01077" cy="1082.20956" cx="1325.05679" stroke-linecap="null" stroke-linejoin="null" stroke-dasharray="null" stroke-width="0" fill="#ff007f" opacity="0.5" id="svg_16" stroke="#e5e58b"/>
  <ellipse stroke="#e5e58b" ry="39.03173" rx="39.00913" cy="764.81635" cx="1328.92218" stroke-linecap="null" stroke-linejoin="null" stroke-dasharray="null" stroke-width="0" fill="#00ff00" opacity="0.5" id="svg_18"/>
  <rect id="svg_1" height="375.67352" width="5.83526" y="975.37389" x="1195.39953" opacity="0.5" stroke-linecap="null" stroke-linejoin="null" stroke-dasharray="null" stroke-width="0" fill="#007fff" stroke="#e5e58b"/>
  <rect id="svg_5" height="12.21662" width="346.1812" y="1259.81844" x="942.55985" opacity="0.5" stroke-linecap="null" stroke-linejoin="null" stroke-dasharray="null" stroke-width="0" fill="#007fff" stroke="#e5e58b"/>
  <rect id="svg_7" height="12.21662" width="270.32935" y="1202.92956" x="971.00429" opacity="0.5" stroke-linecap="null" stroke-linejoin="null" stroke-dasharray="null" stroke-width="0" fill="#007fff" stroke="#e5e58b"/>
  <rect id="svg_13" height="12.21662" width="270.32935" y="1146.04067" x="971.00429" opacity="0.5" stroke-linecap="null" stroke-linejoin="null" stroke-dasharray="null" stroke-width="0" fill="#007fff" stroke="#e5e58b"/>
  <rect id="svg_14" height="5.89566" width="169.19354" y="1019.62086" x="1031.05367" opacity="0.5" stroke-linecap="null" stroke-linejoin="null" stroke-dasharray="null" stroke-width="0" fill="#007fff" stroke="#e5e58b"/>
  <rect id="svg_15" height="5.89566" width="169.19354" y="1087.17642" x="1047.05367" opacity="0.5" stroke-linecap="null" stroke-linejoin="null" stroke-dasharray="null" stroke-width="0" fill="#007fff" stroke="#e5e58b"/>
  <rect id="svg_19" height="5.89566" width="146.08243" y="914.73197" x="1036.38701" opacity="0.5" stroke-linecap="null" stroke-linejoin="null" stroke-dasharray="null" stroke-width="0" fill="#007fff" stroke="#e5e58b"/>
  <rect id="svg_20" height="5.89566" width="146.08243" y="975.17642" x="1052.38701" opacity="0.5" stroke-linecap="null" stroke-linejoin="null" stroke-dasharray="null" stroke-width="0" fill="#007fff" stroke="#e5e58b"/>
  <ellipse id="svg_21" ry="23.53651" rx="26.60857" cy="1304.15605" cx="1171.50469" stroke-linecap="null" stroke-linejoin="null" stroke-dasharray="null" stroke-width="0" fill="#00ff00" opacity="0.5" stroke="#e5e58b"/>
  <ellipse id="svg_22" ry="23.53651" rx="26.60857" cy="886.37827" cx="1023.94913" stroke-linecap="null" stroke-linejoin="null" stroke-dasharray="null" stroke-width="0" fill="#00ff00" opacity="0.5" stroke="#e5e58b"/>
  <rect id="svg_23" height="1011.35797" width="21.06997" y="408.64384" x="1120.94749" opacity="0.5" stroke-linecap="null" stroke-linejoin="null" stroke-dasharray="null" stroke-width="0" fill="#007fff" stroke="#e5e58b"/>
  <rect id="svg_24" height="598.38681" width="12.64199" y="808.97307" x="1190.95687" opacity="0.5" stroke-linecap="null" stroke-linejoin="null" stroke-dasharray="null" stroke-width="0" fill="#007fff" stroke="#e5e58b"/>
  <rect id="svg_25" height="375.67352" width="5.83526" y="1038.58377" x="1258.60941" opacity="0.5" stroke-linecap="null" stroke-linejoin="null" stroke-dasharray="null" stroke-width="0" fill="#007fff" stroke="#e5e58b"/>
  <rect id="svg_26" height="12.21662" width="346.1812" y="1323.02832" x="1005.76973" opacity="0.5" stroke-linecap="null" stroke-linejoin="null" stroke-dasharray="null" stroke-width="0" fill="#007fff" stroke="#e5e58b"/>
  <rect id="svg_27" height="12.21662" width="270.32935" y="1266.13944" x="1034.21417" opacity="0.5" stroke-linecap="null" stroke-linejoin="null" stroke-dasharray="null" stroke-width="0" fill="#007fff" stroke="#e5e58b"/>
  <rect id="svg_28" height="12.21662" width="270.32935" y="1209.25055" x="1034.21417" opacity="0.5" stroke-linecap="null" stroke-linejoin="null" stroke-dasharray="null" stroke-width="0" fill="#007fff" stroke="#e5e58b"/>
  <rect id="svg_29" height="5.89566" width="169.19354" y="1150.3863" x="1110.26355" opacity="0.5" stroke-linecap="null" stroke-linejoin="null" stroke-dasharray="null" stroke-width="0" fill="#007fff" stroke="#e5e58b"/>
  <rect id="svg_30" height="5.89566" width="146.08243" y="977.94185" x="1099.59689" opacity="0.5" stroke-linecap="null" stroke-linejoin="null" stroke-dasharray="null" stroke-width="0" fill="#007fff" stroke="#e5e58b"/>
  <rect id="svg_31" height="5.89566" width="146.08243" y="1038.3863" x="1115.59689" opacity="0.5" stroke-linecap="null" stroke-linejoin="null" stroke-dasharray="null" stroke-width="0" fill="#007fff" stroke="#e5e58b"/>
  <ellipse fill="#ff007f" stroke-width="0" stroke-dasharray="null" stroke-linejoin="null" stroke-linecap="null" opacity="0.5" cx="278.31683" cy="972.51718" id="svg_2" rx="104.34375" ry="84.375" stroke="#e5e58b"/>
  <ellipse opacity="0.5" ry="10.8093" rx="12.09182" cy="849.37623" cx="453.48908" stroke-linecap="null" stroke-linejoin="null" stroke-dasharray="null" stroke-width="0" fill="#aaffaa" id="svg_32" stroke="#e5e58b"/>
  <polygon id="svg_35" fill="#aaffaa" points="607.6107177734375,1214.9608459472656 453.522216796875,1348.1138000488281 204.20111083984375,1297.2538757324219 204.20111083984375,1132.6678161621094 453.522216796875,1081.8078918457031 607.6107177734375,1214.9608459472656 " stroke-width="0" transform="rotate(-91.76566314697266 405.9058837890624,1214.9608154296875) " stroke="#e5e58b"/>
  <polygon id="svg_37" fill="#aaffaa" stroke="null"/>
  <polygon fill="#aaffaa" points="851.642333984375,1194.8139953613281 755.0185546875,1297.0294494628906 598.677490234375,1257.9866027832031 598.677490234375,1131.6413879394531 755.0185546875,1092.5985412597656 851.642333984375,1194.8139953613281 " stroke-width="0" id="svg_40" stroke="#e5e58b"/>
  <path fill="#ff0000" stroke-width="0" stroke-dasharray="null" stroke-linejoin="null" stroke-linecap="null" opacity="0.1" d="m660.63596,1178.38105l11.13189,-100.95174l11.13189,100.95174l-22.26378,0z" transform="rotate(41.03022766113281 671.7679443359375,1127.9051513671875) " id="svg_50" stroke="#e5e58b"/>
  <polygon fill="#aaffaa" points="666.819091796875,1186.2733459472656 595.879638671875,1288.4888000488281 481.096923828125,1249.4459533691406 481.096923828125,1123.1007385253906 595.879638671875,1084.0578918457031 666.819091796875,1186.2733459472656 " stroke-width="0" id="svg_39" stroke="#e5e58b"/>
  <polygon fill="#aaffaa" points="406.0497097969055,1181.9791259765625 308.1278347969055,1284.194580078125 149.68642854690552,1245.151611328125 149.68642854690552,1118.806396484375 308.1278347969055,1079.763671875 406.0497097969055,1181.9791259765625 " stroke-width="0" transform="rotate(-29.923580169677734 277.8680725097654,1181.97900390625) " id="svg_41" stroke="#e5e58b"/>
  <ellipse opacity="0.5" ry="11.09055" rx="11.24805" cy="1018.96998" cx="833.45778" stroke-linecap="null" stroke-linejoin="null" stroke-dasharray="null" stroke-width="0" fill="#ff7f00" id="svg_44" stroke="#e5e58b"/>
  <ellipse fill="#00ff00" stroke-width="0" stroke-dasharray="null" stroke-linejoin="null" stroke-linecap="null" cx="700.28554" cy="953.57969" id="svg_45" rx="27.5625" ry="29.25" opacity="0.2" stroke="#e5e58b"/>
  <ellipse fill="#007fff" stroke-width="0" stroke-dasharray="null" stroke-linejoin="null" stroke-linecap="null" cx="699.44181" cy="953.01719" rx="22.21875" ry="23.0625" opacity="0.2" id="svg_46" stroke="#e5e58b"/>
  <path fill="#ff0000" stroke-width="0" stroke-dasharray="null" stroke-linejoin="null" stroke-linecap="null" opacity="0.18" d="m345.92624,1116.20627l35.45406,-104.45178l35.45406,104.45178l-70.90812,0z" id="svg_47" transform="rotate(19.338035583496094 381.3803100585944,1063.9803466796873) " stroke="#e5e58b"/>
  <path fill="#ff0000" stroke-width="0" stroke-dasharray="null" stroke-linejoin="null" stroke-linecap="null" opacity="0.2" d="m191.5212,1179.4594l35.45406,-109.58691l35.45406,109.58691l-70.90812,0z" transform="rotate(28.489543914794922 226.97521972656136,1124.6658935546877) " id="svg_48" stroke="#e5e58b"/>
  <path fill="#ff0000" stroke-width="0" stroke-dasharray="null" stroke-linejoin="null" stroke-linecap="null" opacity="0.14" d="m539.36283,1157.17217l7.04728,-104.23065l7.04728,104.23065l-14.09456,0z" id="svg_49" stroke="#e5e58b"/>
  <path fill="#ff7f00" stroke-width="0" stroke-dasharray="null" stroke-linejoin="null" stroke-linecap="null" opacity="0.1" d="m228.10307,1214.41635l102.75544,-104.45178l102.75544,104.45178l-205.51088,0z" transform="rotate(-159.6562042236328 330.8585205078125,1162.1904296875002) " id="svg_51" stroke="#e5e58b"/>
  <path fill="#ff7f00" stroke-width="0" stroke-dasharray="null" stroke-linejoin="null" stroke-linecap="null" opacity="0.15" d="m487.96564,1233.11746l-13.13617,-243.7637l-13.13617,243.7637l26.27233,0l0.00001,0z" transform="rotate(-38.27446746826172 474.8294677734376,1111.235595703125) " id="svg_52" stroke="#e5e58b"/>
  <path fill="#ff7f00" stroke-width="0" stroke-dasharray="null" stroke-linejoin="null" stroke-linecap="null" opacity="0.2" d="m629.30527,1199.11145l-6.15263,-133.58243l-6.15263,133.58243l12.30526,0z" id="svg_53" stroke="#e5e58b"/>
  <rect fill="#7f00ff" stroke-width="0" stroke-dasharray="null" stroke-linejoin="null" stroke-linecap="null" opacity="0.2" x="465.89932" y="991.28316" width="1.57815" height="196.41648" id="svg_56" transform="rotate(-42.17154312133789 466.6884155273434,1089.4914550781248) " stroke="#e5e58b"/>
  <rect fill="#7f00ff" stroke-width="0" stroke-dasharray="null" stroke-linejoin="null" stroke-linecap="null" opacity="0.2" x="341.07259" y="1014.90365" width="3.00621" height="187.37366" transform="rotate(-71.2131576538086 342.57568359375006,1108.5904541015625) " id="svg_57" stroke="#e5e58b"/>
  <rect fill="#7f00ff" stroke-width="0" stroke-dasharray="null" stroke-linejoin="null" stroke-linecap="null" opacity="0.2" x="620.69904" y="1074.87093" width="0.51236" height="92.3807" id="svg_58" stroke="#e5e58b"/>
  <rect id="svg_33" height="3.35724" width="270.32935" y="1071.40573" x="697.17306" opacity="0.5" stroke-linecap="null" stroke-linejoin="null" stroke-dasharray="null" stroke-width="0" fill="#ff007f" stroke="#e5e58b"/>
  <rect id="svg_38" height="5.89566" width="146.08243" y="782.36437" x="684.08703" opacity="0.5" stroke-linecap="null" stroke-linejoin="null" stroke-dasharray="null" stroke-width="0" fill="#007fff" stroke="#e5e58b"/>
  <rect id="svg_55" height="598.38681" width="4.20447" y="676.60547" x="847.09437" opacity="0.5" stroke-linecap="null" stroke-linejoin="null" stroke-dasharray="null" stroke-width="0" fill="#ff007f" stroke="#e5e58b"/>
  <polygon id="svg_88" stroke="#e5e58b" fill="#ff7f00" points="1076.516185760498,1248.347936630249 969.9601554870605,1350.5633907318115 797.548412322998,1311.520544052124 797.548412322998,1185.175329208374 969.9601554870605,1146.1324825286865 1076.516185760498,1248.347936630249 " stroke-width="0" transform="rotate(-124.33613586425781 937.0323486328125,1248.347900390625) "/>
  <rect id="svg_59" height="375.67352" width="5.83526" y="906.21617" x="906.30943" opacity="0.5" stroke-linecap="null" stroke-linejoin="null" stroke-dasharray="null" stroke-width="0" fill="#007fff" stroke="#e5e58b"/>
  <rect id="svg_60" height="2.52064" width="169.19354" y="1030.39371" x="758.52607" opacity="0.5" stroke-linecap="null" stroke-linejoin="null" stroke-dasharray="null" stroke-width="0" fill="#007fff" stroke="#e5e58b"/>
  <rect id="svg_61" height="2.52064" width="146.08243" y="994.07425" x="799.60941" opacity="0.5" stroke-linecap="null" stroke-linejoin="null" stroke-dasharray="null" stroke-width="0" fill="#ffff00" stroke="#e5e58b"/>
  <polygon fill="#aaffaa" points="948.751708984375,1250.2163391113281 850.829833984375,1352.4317932128906 692.388427734375,1313.3889465332031 692.388427734375,1187.0437316894531 850.829833984375,1148.0008850097656 948.751708984375,1250.2163391113281 " stroke-width="0" transform="rotate(-29.923580169677734 820.5700683593748,1250.21630859375) " id="svg_42" stroke="#e5e58b"/>
  <path fill="#ffffff" stroke-width="0" stroke-dasharray="null" stroke-linejoin="null" stroke-linecap="null" opacity="0.2" d="m681.1934,1285.25326l98.99053,-201.41095l98.99053,201.41095l-197.98106,0z" transform="rotate(111.46981048583984 780.1838378906251,1184.5477294921875) " id="svg_153" stroke="#e5e58b"/>
  <polygon id="svg_63" fill="#aaffaa" points="846.847412109375,1296.1398010253906 692.375732421875,1416.0024719238281 442.43463134765625,1370.2190246582031 442.43463134765625,1222.0605773925781 692.375732421875,1176.2770690917969 846.847412109375,1296.1398010253906 " stroke-width="0" stroke="#e5e58b"/>
  <ellipse id="svg_73" ry="10.29167" rx="8.29167" cy="1074.51719" cx="1078.05646" stroke-linecap="null" stroke-linejoin="null" stroke-dasharray="null" stroke-width="0" fill="#ffffff" stroke="#e5e58b"/>
  <polygon stroke="#e5e58b" fill="#aaffaa" points="1089.0594034194946,1255.952862739563 982.5033731460571,1358.1683168411255 810.0916299819946,1319.125470161438 810.0916299819946,1192.780255317688 982.5033731460571,1153.7374086380005 1089.0594034194946,1255.952862739563 " stroke-width="0" transform="rotate(-124.33613586425781 949.5755615234374,1255.952880859375) " id="svg_43"/>
  <rect fill="#aaffaa" stroke-width="0" stroke-dasharray="null" stroke-linejoin="null" stroke-linecap="null" x="167.30982" y="1248.66873" width="1110.66671" height="253.33332" id="svg_64" stroke="#e5e58b"/>
  <polygon id="svg_154" fill="#ff7f00" points="1048.46826171875,1230.675043396419 715.5250244140625,1315.0761627019965 176.81155395507812,1282.8378225596389 176.81155395507812,1178.512264233199 715.5250244140625,1146.2738037109375 1048.46826171875,1230.675043396419 " stroke-width="0" opacity="0.2" stroke="#e5e58b"/>
  <path fill="#00ff00" stroke-width="0" stroke-dasharray="null" stroke-linejoin="null" stroke-linecap="null" opacity="0.1" d="m377.49227,1434.00478l103.88019,-461.10292l103.88019,461.10292l-207.76038,0z" transform="rotate(-101.1519546508789 481.3724365234374,1203.4533691406248) " id="svg_152" stroke="#e5e58b"/>
  <ellipse fill="#dd5858" stroke-width="0" stroke-dasharray="null" stroke-linejoin="null" stroke-linecap="null" cx="625.6206" cy="1032.37942" id="svg_76" rx="151.33333" ry="191.33332" stroke="#e5e58b"/>
  <ellipse fill="#b25907" stroke-width="0" stroke-dasharray="null" stroke-linejoin="null" stroke-linecap="null" cx="647.94422" cy="976.69459" rx="67.85496" ry="22.66667" stroke="#e5e58b" id="svg_83"/>
  <ellipse fill="#ffffff" stroke="#e5e58b" stroke-width="0" stroke-dasharray="null" stroke-linejoin="null" stroke-linecap="null" opacity="0.8" cx="526.86537" cy="1037.70576" id="svg_84" rx="22.66667" ry="33.33333"/>
  <ellipse fill="#ffffff" stroke="#e5e58b" stroke-width="0" stroke-dasharray="null" stroke-linejoin="null" stroke-linecap="null" opacity="0.85" cx="628.1987" cy="1037.70576" rx="22.66667" ry="33.33333" id="svg_85"/>
  <ellipse opacity="0.6" stroke="#e5e58b" id="svg_34" fill="#7f0000" stroke-width="0" stroke-dasharray="null" stroke-linejoin="null" stroke-linecap="null" cx="570.05978" cy="1132.88635" rx="24.33332" ry="11.875"/>
  <ellipse ry="7.5" rx="5.25" id="svg_62" cy="1055.0608" cx="518.5167" stroke-linecap="null" stroke-linejoin="null" stroke-dasharray="null" stroke-width="0" stroke="#e5e58b" fill="#007fff"/>
  <ellipse id="svg_66" ry="7.5" rx="5.25" cy="1053.5608" cx="618.2667" stroke-linecap="null" stroke-linejoin="null" stroke-dasharray="null" stroke-width="0" stroke="#e5e58b" fill="#007fff"/>
  <rect fill="#ffffff" stroke-width="0" stroke-dasharray="null" stroke-linejoin="null" stroke-linecap="null" x="-140.82489" y="8.30364" width="322.37037" height="1792.81936" id="svg_86" stroke="#e5e58b"/>
  <rect stroke="#f9f9e5" fill="#ffffff" stroke-width="0" stroke-dasharray="null" stroke-linejoin="null" stroke-linecap="null" x="-155.80797" y="1455.69277" width="1978.00078" height="517.73563" id="svg_87"/>
  <ellipse ry="47.0629" rx="62.15894" cy="544.29309" cx="680.49908" stroke-linecap="null" stroke-linejoin="null" stroke-dasharray="null" stroke-width="0" fill="#ff4fa4" opacity="0.8" stroke="#e5e58b" id="svg_89"/>
  <ellipse ry="76.69254" rx="85.86265" cy="374.5482" cx="978.28795" stroke-linecap="null" stroke-linejoin="null" stroke-dasharray="null" stroke-width="0" fill="#ff4fa4" opacity="0.2" stroke="#e5e58b" id="svg_91"/>
  <ellipse ry="96.84069" rx="109.56639" cy="369.23686" cx="979.16586" stroke-linecap="null" stroke-linejoin="null" stroke-dasharray="null" stroke-width="0" fill="#ff4fa4" opacity="0.2" stroke="#e5e58b" id="svg_92"/>
  <path fill="#ff0000" stroke-width="0" stroke-dasharray="null" stroke-linejoin="null" stroke-linecap="null" opacity="0.1" d="m1048.32326,1241.59093l11.13189,-100.95174l11.13189,100.95174l-22.26378,0z" transform="rotate(41.03022766113281 1059.4553222656248,1191.1148681640625) " stroke="#e5e58b" id="svg_95"/>
  <ellipse fill="#00ff00" stroke-width="0" stroke-dasharray="null" stroke-linejoin="null" stroke-linecap="null" cx="1087.97284" cy="1016.78957" rx="27.5625" ry="29.25" opacity="0.2" stroke="#e5e58b" id="svg_97"/>
  <ellipse fill="#007fff" stroke-width="0" stroke-dasharray="null" stroke-linejoin="null" stroke-linecap="null" cx="1087.12911" cy="1016.22707" rx="22.21875" ry="23.0625" opacity="0.2" stroke="#e5e58b" id="svg_98"/>
  <path fill="#ff0000" stroke-width="0" stroke-dasharray="null" stroke-linejoin="null" stroke-linecap="null" opacity="0.14" d="m927.05013,1220.38205l7.04728,-104.23065l7.04728,104.23065l-14.09456,0z" stroke="#e5e58b" id="svg_99"/>
  <path fill="#ff7f00" stroke-width="0" stroke-dasharray="null" stroke-linejoin="null" stroke-linecap="null" opacity="0.15" d="m875.65294,1296.32734l-13.13617,-243.7637l-13.13617,243.7637l26.27233,0l0.00001,0z" transform="rotate(-38.27446746826172 862.5168457031252,1174.4454345703127) " stroke="#e5e58b" id="svg_100"/>
  <path fill="#ff7f00" stroke-width="0" stroke-dasharray="null" stroke-linejoin="null" stroke-linecap="null" opacity="0.2" d="m1016.99257,1262.32133l-6.15263,-133.58243l-6.15263,133.58243l12.30526,0z" stroke="#e5e58b" id="svg_101"/>
  <rect fill="#7f00ff" stroke-width="0" stroke-dasharray="null" stroke-linejoin="null" stroke-linecap="null" opacity="0.2" x="853.58662" y="1054.49304" width="1.57815" height="196.41648" transform="rotate(-42.17154312133789 854.3757324218745,1152.7012939453125) " stroke="#e5e58b" id="svg_102"/>
  <rect fill="#7f00ff" stroke-width="0" stroke-dasharray="null" stroke-linejoin="null" stroke-linecap="null" opacity="0.2" x="1008.38634" y="1138.08081" width="0.51236" height="92.3807" stroke="#e5e58b" id="svg_103"/>
  <rect height="3.35724" width="270.32935" y="1134.61561" x="1084.86036" opacity="0.5" stroke-linecap="null" stroke-linejoin="null" stroke-dasharray="null" stroke-width="0" fill="#ff007f" stroke="#e5e58b" id="svg_104"/>
  <ellipse fill="#7f0000" stroke-width="0" stroke-dasharray="null" stroke-linejoin="null" stroke-linecap="null" cx="993.88599" cy="1118.91561" rx="151.33333" ry="191.33332" stroke="#e5e58b" id="svg_108"/>
  <ellipse fill="#aad4ff" stroke="#e5e58b" stroke-width="0" stroke-dasharray="null" stroke-linejoin="null" stroke-linecap="null" cx="989.00535" cy="1077.36009" rx="121.33333" ry="138.66667" id="svg_109"/>
  <rect fill="#aad4ff" stroke="#e5e58b" stroke-width="0" stroke-dasharray="null" stroke-linejoin="null" stroke-linecap="null" x="963.886" y="1191.58231" width="38.66667" height="57.33333" id="svg_110"/>
  <polygon fill="#0000ff" points="1267.5792642831802,1379.3664140701294 869.4473062753677,1473.2489824295044 225.25600683689117,1437.3888750076294 225.25600683689117,1321.3437089920044 869.4473062753677,1285.483723640442 1267.5792642831802,1379.3664140701294 " stroke-width="0" opacity="0.1" id="svg_158" stroke="#e5e58b"/>
  <path fill="#007f00" stroke-width="0" stroke-dasharray="null" stroke-linejoin="null" stroke-linecap="null" d="m1067.14161,1281.62682c0,20.37317 -36.26495,36.88889 -81.00003,36.88889m81.00003,-36.88889l0,0c0,20.37317 -36.26495,36.88889 -81.00003,36.88889c-44.73506,0 -81,-16.51569 -81,-36.88889m0,0l0,0c0,-20.37315 36.26494,-36.88888 81,-36.88888c44.73508,0 81.00003,16.51573 81.00003,36.88888l0,147.55563c0,20.37315 -36.26495,36.88883 -81.00003,36.88883c-44.73506,0 -81,-16.51568 -81,-36.88883l0,-147.55563z" stroke="#e5e58b" id="svg_111"/>
  <path fill="#7f0000" stroke-width="0" stroke-dasharray="null" stroke-linejoin="null" stroke-linecap="null" d="m981.25071,939.79207c0,0 -6.05936,61.64804 9.69498,35.61887c15.75435,-26.02918 16.56226,-42.46866 16.3785,-43.39629c-0.18377,-0.92763 -26.07348,7.77741 -26.07348,7.77741l0,0.00001z" stroke="#e5e58b" id="svg_112"/>
  <path fill="#7f0000" stroke-width="0" stroke-dasharray="null" stroke-linejoin="null" stroke-linecap="null" d="m974.69506,1163.0874c0,0 -4.06253,84.21978 6.50004,48.66032c10.56257,-35.55947 11.10424,-58.01808 10.98104,-59.28535c-0.12321,-1.26727 -17.48109,10.62503 -17.48109,10.62503l0.00001,0z" stroke="#e5e58b" opacity="0.5" id="svg_113" transform="rotate(-99.37155151367188 983.0581054687498,1186.4365234374998) "/>
  <path fill="#7f0000" stroke-width="0" stroke-dasharray="null" stroke-linejoin="null" stroke-linecap="null" d="m994.54643,929.15103c0,0 -12.03869,75.24473 19.26188,43.47473c31.30055,-31.77001 32.90571,-51.83527 32.54062,-52.96748c-0.36511,-1.13222 -51.8025,9.49275 -51.8025,9.49275z" id="svg_114" transform="rotate(-109.21694946289062 1019.3291015625002,950.0117797851565) " stroke="#e5e58b"/>
  <path fill="#7f0000" stroke-width="0" stroke-dasharray="null" stroke-linejoin="null" stroke-linecap="null" d="m883.886,1006.30236c0,0 44,6.30581 61.33333,-13.87277c17.33333,-20.17858 21.33333,-36.57367 20.72679,-37.42763c-0.60654,-0.85396 0.60654,-16.80229 0,-17.65626c-0.60654,-0.85396 -82.06012,68.95666 -82.06012,68.95666z" stroke="#e5e58b" id="svg_115"/>
  <ellipse fill="#7f0000" stroke-width="0" stroke-dasharray="null" stroke-linejoin="null" stroke-linecap="null" cx="928.14042" cy="985.19494" rx="67.85496" ry="25.28258" id="svg_116" transform="rotate(-34.09395980834961 928.1403808593748,985.1948852539064) " stroke="#e5e58b"/>
  <ellipse fill="#7f0000" stroke-width="0" stroke-dasharray="null" stroke-linejoin="null" stroke-linecap="null" cx="1035.81155" cy="986.06228" rx="67.85496" ry="33.04269" id="svg_117" transform="rotate(25.468769073486328 1035.8115234375002,986.0623168945311) " stroke="#e5e58b"/>
  <ellipse fill="#ffffff" stroke="#e5e58b" stroke-width="0" stroke-dasharray="null" stroke-linejoin="null" stroke-linecap="null" opacity="0.5" cx="914.55267" cy="1100.91564" rx="22.66667" ry="33.33333" id="svg_118"/>
  <ellipse fill="#ffffff" stroke="#e5e58b" stroke-width="0" stroke-dasharray="null" stroke-linejoin="null" stroke-linecap="null" opacity="0.5" cx="1015.886" cy="1100.91564" rx="22.66667" ry="33.33333" id="svg_119"/>
  <ellipse stroke="#e5e58b" fill="#aad4ff" stroke-width="0" stroke-dasharray="null" stroke-linejoin="null" stroke-linecap="null" cx="982.63598" cy="1251.20733" rx="24.33332" ry="11.875" id="svg_120"/>
  <path stroke="#e5e58b" opacity="0.45" transform="rotate(51.59599304199219 963.6572265625,1154.4398193359375) " d="m968.02988,1147.34652l3.77184,12.64406c0,0 -4.54167,1.54254 -13.77995,1.54254c-9.23824,0 10.00811,-14.1866 10.00811,-14.1866z" stroke-linecap="null" stroke-linejoin="null" stroke-dasharray="null" stroke-width="0" fill="#0000ff" id="svg_122"/>
  <ellipse ry="7.5" rx="5.25" cy="1118.27068" cx="906.204" stroke-linecap="null" stroke-linejoin="null" stroke-dasharray="null" stroke-width="0" stroke="#e5e58b" fill="#007fff" id="svg_123"/>
  <ellipse ry="7.5" rx="5.25" cy="1116.77068" cx="1005.954" stroke-linecap="null" stroke-linejoin="null" stroke-dasharray="null" stroke-width="0" stroke="#e5e58b" fill="#007fff" id="svg_124"/>
  <ellipse stroke="#111108" opacity="0.05" fill="none" stroke-width="6" stroke-dasharray="null" stroke-linejoin="null" stroke-linecap="null" cx="996.59431" cy="1338.16564" rx="32.95833" ry="31.75" id="svg_125"/>
  <ellipse stroke="#e5e58b" fill="#007f00" stroke-width="0" stroke-dasharray="null" stroke-linejoin="null" stroke-linecap="null" cx="1008.51101" cy="1329.5823" rx="44.95833" ry="43" id="svg_126"/>
  <ellipse stroke="#111108" opacity="0.01" fill="none" stroke-width="6" stroke-dasharray="null" stroke-linejoin="null" stroke-linecap="null" cx="929.09431" cy="1337.41564" rx="32.95833" ry="31.75" id="svg_127"/>
  <path fill="#7f0000" stroke-width="0" stroke-dasharray="null" stroke-linejoin="null" stroke-linecap="null" d="m929.2131,929.15103c0,0 -12.03869,75.24473 19.26188,43.47473c31.30055,-31.77 32.90571,-51.83526 32.54062,-52.96748c-0.36511,-1.13222 -51.8025,9.49275 -51.8025,9.49275z" transform="rotate(-147.9931640625 953.99560546875,950.0119018554689) " stroke="#e5e58b" id="svg_129"/>
  <path fill="#ffffff" stroke-width="0" stroke-dasharray="null" stroke-linejoin="null" stroke-linecap="null" d="m559.74769,1221.09122c0,0 77.42869,7.22402 85.17156,-43.34409c7.74287,-50.56811 -85.17156,43.34409 -85.17156,43.34409z" id="svg_130" transform="rotate(34.74989700317383 602.5626220703125,1192.121337890625) " stroke="#f9f9e5"/>
  <rect fill="#000000" stroke-width="0" stroke-dasharray="null" stroke-linejoin="null" stroke-linecap="null" x="558.62739" y="1198.61929" width="89.73608" height="1.3407" id="svg_131" stroke="#e5e58b"/>
  <rect fill="#000000" stroke-width="0" stroke-dasharray="null" stroke-linejoin="null" stroke-linecap="null" x="562.42427" y="1199.56841" width="87.20484" height="2.60633" id="svg_132" stroke="#e5e58b"/>
  <rect fill="#000000" stroke-width="0" stroke-dasharray="null" stroke-linejoin="null" stroke-linecap="null" x="578.45549" y="1186.6715" width="2.23218" height="14.47967" id="svg_133" stroke="#e5e58b"/>
  <rect fill="#000000" stroke-width="0" stroke-dasharray="null" stroke-linejoin="null" stroke-linecap="null" x="568.75238" y="1187.86681" width="2.23218" height="14.47967" id="svg_134" stroke="#e5e58b"/>
  <rect fill="#000000" stroke-width="0" stroke-dasharray="null" stroke-linejoin="null" stroke-linecap="null" x="560.87738" y="1189.55432" width="2.23218" height="8.85465" id="svg_135" stroke="#e5e58b"/>
  <rect fill="#000000" stroke-width="0" stroke-dasharray="null" stroke-linejoin="null" stroke-linecap="null" x="589.70549" y="1186.109" width="2.23218" height="14.47967" stroke="#e5e58b" id="svg_136"/>
  <rect fill="#000000" stroke-width="0" stroke-dasharray="null" stroke-linejoin="null" stroke-linecap="null" x="601.51799" y="1185.5465" width="2.23218" height="14.47967" stroke="#e5e58b" id="svg_137"/>
  <rect fill="#000000" stroke-width="0" stroke-dasharray="null" stroke-linejoin="null" stroke-linecap="null" x="612.76799" y="1185.5465" width="2.23218" height="14.47967" stroke="#e5e58b" id="svg_138"/>
  <rect fill="#000000" stroke-width="0" stroke-dasharray="null" stroke-linejoin="null" stroke-linecap="null" x="626.26799" y="1184.4215" width="2.23218" height="14.47967" stroke="#e5e58b" id="svg_139"/>
  <rect fill="#000000" stroke-width="0" stroke-dasharray="null" stroke-linejoin="null" stroke-linecap="null" x="638.64299" y="1184.984" width="2.23218" height="14.47967" stroke="#e5e58b" id="svg_140"/>
  <rect fill="#000000" stroke-width="0" stroke-dasharray="null" stroke-linejoin="null" stroke-linecap="null" x="583.81353" y="1202.20228" width="2.79467" height="10.72343" id="svg_141" stroke="#e5e58b"/>
  <rect fill="#000000" stroke-width="0" stroke-dasharray="null" stroke-linejoin="null" stroke-linecap="null" x="572.73437" y="1201.40137" width="2.79467" height="5.78451" id="svg_142" stroke="#e5e58b"/>
  <rect fill="#000000" stroke-width="0" stroke-dasharray="null" stroke-linejoin="null" stroke-linecap="null" x="609.17547" y="1203.27016" width="2.79467" height="14.59448" id="svg_143" stroke="#e5e58b"/>
  <rect fill="#000000" stroke-width="0" stroke-dasharray="null" stroke-linejoin="null" stroke-linecap="null" x="596.76147" y="1203.13666" width="2.79467" height="12.59221" id="svg_144" stroke="#e5e58b"/>
  <rect fill="#000000" stroke-width="0" stroke-dasharray="null" stroke-linejoin="null" stroke-linecap="null" x="621.45598" y="1202.33567" width="2.79467" height="15.39528" id="svg_145" stroke="#e5e58b"/>
  <rect fill="#000000" stroke-width="0" stroke-dasharray="null" stroke-linejoin="null" stroke-linecap="null" x="632.66863" y="1202.06871" width="2.79467" height="11.9247" id="svg_146" stroke="#e5e58b"/>
  <ellipse fill="#dd5858" stroke-width="0" stroke-dasharray="null" stroke-linejoin="null" stroke-linecap="null" cx="647.15409" cy="982.22545" rx="67.85496" ry="22.66667" stroke="#e5e58b" id="svg_147"/>
  <path fill="#ff7f00" stroke-width="0" stroke-dasharray="null" stroke-linejoin="null" stroke-linecap="null" opacity="0.1" d="m242.76974,1373.08302l102.75544,-104.45178l102.75544,104.45178l-205.51088,0z" transform="rotate(-159.6562042236328 345.5251770019531,1320.8570556640623) " stroke="#e5e58b" id="svg_148"/>
  <path fill="#ffffff" stroke-width="0" stroke-dasharray="null" stroke-linejoin="null" stroke-linecap="null" opacity="0.25" d="m236.23125,1224.56392l27.42453,-137.53112l27.42453,137.53112l-54.84906,0z" transform="rotate(-9.727869987487793 263.65579223632614,1155.79833984375) " id="svg_149" stroke="#e5e58b"/>
  <path fill="#ff7f00" stroke-width="0" stroke-dasharray="null" stroke-linejoin="null" stroke-linecap="null" opacity="0.1" d="m668.41543,1352.03513l123.93131,-105.38585l123.93131,105.38585l-247.86263,0l0.00001,0z" transform="rotate(-153.59921264648438 792.3467407226562,1299.34228515625) " id="svg_150" stroke="#e5e58b"/>
  <path fill="#ffffff" stroke-width="0" stroke-dasharray="null" stroke-linejoin="null" stroke-linecap="null" opacity="0.25" d="m404.03707,1121.47543l20.72496,-104.41562l20.72496,104.41562l-41.44992,0z" transform="rotate(-30.216379165649414 424.76205444335994,1069.2675781250002) " id="svg_151" stroke="#e5e58b"/>
  <polygon id="svg_155" fill="#ff7f00" opacity="0.2"/>
  <polygon id="svg_156" fill="#ff7f00" opacity="0.2"/>
  <path fill="#007f00" stroke-width="0" stroke-dasharray="null" stroke-linejoin="null" stroke-linecap="null" opacity="0.2" d="m1106.75736,1285.76958l35.95028,-35.76726l119.83429,0c11.98343,11.92242 2.9851,32.46075 14.96852,44.38317l-170.7531,-8.61591l0.00001,0z" id="svg_157" transform="rotate(-179.72850036621094 1192.1339111328125,1272.1939697265623) " stroke="#e5e58b"/>
  <ellipse stroke="#c9c91a" fill="#00ffff" stroke-width="7" stroke-dasharray="null" stroke-linejoin="null" stroke-linecap="null" opacity="0.5" cx="302.92532" cy="560.68402" id="svg_160" rx="34.85322" ry="31.02334"/>
  <ellipse fill="#b25907" stroke-width="0" stroke-dasharray="null" stroke-linejoin="null" stroke-linecap="null" cx="511.05534" cy="974.91681" rx="63.11423" ry="22.66667" id="svg_161" stroke="#e5e58b"/>
  <ellipse fill="#dd5858" stroke-width="0" stroke-dasharray="null" stroke-linejoin="null" stroke-linecap="null" cx="508.38865" cy="981.2378" id="svg_82" rx="67.85496" ry="22.66667" stroke="#e5e58b"/>
  <rect stroke="#e5e58b" id="svg_36" height="53.7284" width="25.28397" y="1213.73942" x="645.90392" stroke-linecap="null" stroke-linejoin="null" stroke-dasharray="null" stroke-width="0" fill="#dd5858"/>
  <path transform="rotate(-90.51203155517578 663.9497680664062,1357.435546875) " id="svg_54" d="m564.39416,1257.8799l99.55561,0l0,0c54.98306,0 99.55561,44.57257 99.55561,99.55561c0,54.98306 -44.57256,99.55561 -99.55561,99.55561l-99.55561,0l0,-199.11123l0,0.00001z" stroke-linecap="null" stroke-linejoin="null" stroke-dasharray="null" stroke-width="0" stroke="#e5e58b" fill="#00007f"/>
  <ellipse stroke="#f9f9e5" opacity="0.5" ry="10.66666" rx="12.44445" id="svg_68" cy="937.99391" cx="575.72236" stroke-linecap="null" stroke-linejoin="null" stroke-dasharray="null" stroke-width="0" fill="#00ffff"/>
  <ellipse id="svg_69" stroke="#f9f9e5" opacity="0.5" ry="10.66666" rx="12.44445" cy="868.66058" cx="597.05569" stroke-linecap="null" stroke-linejoin="null" stroke-dasharray="null" stroke-width="0" fill="#00ffff"/>
  <ellipse id="svg_70" stroke="#f9f9e5" opacity="0.5" ry="10.66666" rx="12.44445" cy="1055.32725" cx="749.94458" stroke-linecap="null" stroke-linejoin="null" stroke-dasharray="null" stroke-width="0" fill="#00ffff"/>
  <ellipse stroke="#e5e58b" id="svg_71" fill="#dd5858" stroke-width="0" stroke-dasharray="null" stroke-linejoin="null" stroke-linecap="null" cx="570.05979" cy="1127.55301" rx="24.33332" ry="11.875"/>
  <ellipse ry="10.54688" rx="11.39063" id="svg_72" cy="1049.53583" cx="965.72332" opacity="0.45" stroke-linecap="null" stroke-linejoin="null" stroke-dasharray="null" stroke-width="0" stroke="#e5e58b" fill="#ff00ff"/>
  <ellipse stroke="#e5e58b" id="svg_74" ry="6.75" rx="6.96094" cy="1019.16081" cx="966.77801" opacity="0.45" stroke-linecap="null" stroke-linejoin="null" stroke-dasharray="null" stroke-width="0" fill="#ff00ff"/>
  <ellipse id="svg_75" ry="10.54688" rx="11.39063" cy="1109.98027" cx="1091.94554" opacity="0.45" stroke-linecap="null" stroke-linejoin="null" stroke-dasharray="null" stroke-width="0" stroke="#e5e58b" fill="#ff00ff"/>
  <path id="svg_77" d="m964.59121,1140.67455l11.15879,-5.92455l-11.15879,5.92455z" opacity="0.45" stroke-linecap="null" stroke-linejoin="null" stroke-dasharray="null" stroke-width="0" stroke="#e5e58b" fill="#ffffff"/>
  <path stroke="#e5e58b" transform="rotate(178.8484649658203 659.2611083984375,1270.6580810546875) " id="svg_78" d="m643.5114,1283.45499l15.74974,-25.5937l15.74974,25.5937l-31.49948,0z" stroke-linecap="null" stroke-linejoin="null" stroke-dasharray="null" stroke-width="0" fill="#dd5858"/>
  <rect stroke="#e5e58b" id="svg_81" height="7.97839" width="25.28397" y="1254.23949" x="645.90392" stroke-linecap="null" stroke-linejoin="null" stroke-dasharray="null" stroke-width="0" fill="#dd5858"/>
  <rect stroke="#e5e58b" transform="rotate(-25.463829040527344 641.1563110351566,1271.6022949218748) " id="svg_93" height="26.73399" width="21" y="1258.23529" x="630.6563" stroke-linecap="null" stroke-linejoin="null" stroke-dasharray="null" stroke-width="0" fill="#007fff"/>
  <rect id="svg_94" stroke="#e5e58b" transform="rotate(27.80965805053711 677.9063110351549,1271.6022949218755) " height="26.73399" width="21" y="1258.23529" x="667.4063" stroke-linecap="null" stroke-linejoin="null" stroke-dasharray="null" stroke-width="0" fill="#007fff"/>
  <path opacity="0.75" stroke="#f9f9e5" id="svg_105" d="m1416.46114,770.28719l1.89263,-2.16691l0,1.08344l0.75884,0l0,-1.7326l1.51328,0l0,-0.86882l-0.9463,0l1.89262,-2.16692l1.89265,2.16692l-0.94632,0l0,0.86882l1.51328,0l0,1.7326l0.75885,0l0,-1.08344l1.89265,2.16691l-1.89265,2.16694l0,-1.08347l-0.75885,0l0,1.7326l-1.51328,0l0,0.86882l0.94632,0l-1.89265,2.16694l-1.89262,-2.16694l0.9463,0l0,-0.86882l-1.51328,0l0,-1.7326l-0.75884,0l0,1.08347l-1.89263,-2.16694z" stroke-linecap="null" stroke-linejoin="null" stroke-dasharray="null" stroke-width="0" fill="#ffffff"/>
  <path stroke="#f9f9e5" id="svg_106" d="m1106.96115,732.78719l1.47605,-2.16691l0,1.08344l0.59181,0l0,-1.7326l1.18019,0l0,-0.86882l-0.73801,0l1.47604,-2.16692l1.47606,2.16692l-0.73803,0l0,0.86882l1.18019,0l0,1.7326l0.59182,0l0,-1.08344l1.47606,2.16691l-1.47606,2.16695l0,-1.08348l-0.59182,0l0,1.7326l-1.18019,0l0,0.86882l0.73803,0l-1.47606,2.16695l-1.47604,-2.16695l0.73801,0l0,-0.86882l-1.18019,0l0,-1.7326l-0.59181,0l0,1.08348l-1.47605,-2.16695z" stroke-linecap="null" stroke-linejoin="null" stroke-dasharray="null" stroke-width="0" fill="#ffffff"/>
  <path opacity="0.25" id="svg_107" stroke="#f9f9e5" d="m1496.46114,1053.28719l1.89264,-2.16691l0,1.08344l0.75884,0l0,-1.7326l1.51328,0l0,-0.86882l-0.9463,0l1.89263,-2.16692l1.89265,2.16692l-0.94633,0l0,0.86882l1.51328,0l0,1.7326l0.75885,0l0,-1.08344l1.89265,2.16691l-1.89265,2.16695l0,-1.08348l-0.75885,0l0,1.7326l-1.51328,0l0,0.86882l0.94633,0l-1.89265,2.16695l-1.89263,-2.16695l0.9463,0l0,-0.86882l-1.51328,0l0,-1.7326l-0.75884,0l0,1.08348l-1.89264,-2.16695z" stroke-linecap="null" stroke-linejoin="null" stroke-dasharray="null" stroke-width="0" fill="#ff0000"/>
  <path id="svg_121" stroke="#f9f9e5" d="m1254.46114,634.28719l1.89264,-2.16691l0,1.08344l0.75884,0l0,-1.7326l1.51328,0l0,-0.86882l-0.9463,0l1.89263,-2.16692l1.89265,2.16692l-0.94633,0l0,0.86882l1.51328,0l0,1.7326l0.75885,0l0,-1.08344l1.89265,2.16691l-1.89265,2.16695l0,-1.08348l-0.75885,0l0,1.7326l-1.51328,0l0,0.86882l0.94633,0l-1.89265,2.16695l-1.89263,-2.16695l0.9463,0l0,-0.86882l-1.51328,0l0,-1.7326l-0.75884,0l0,1.08348l-1.89264,-2.16695z" stroke-linecap="null" stroke-linejoin="null" stroke-dasharray="null" stroke-width="0" fill="#ffffff"/>
  <path opacity="0.55" id="svg_162" stroke="#f9f9e5" d="m1496.46114,850.28719l1.89264,-2.16691l0,1.08344l0.75884,0l0,-1.7326l1.51328,0l0,-0.86882l-0.9463,0l1.89263,-2.16692l1.89265,2.16692l-0.94633,0l0,0.86882l1.51328,0l0,1.7326l0.75885,0l0,-1.08344l1.89265,2.16691l-1.89265,2.16695l0,-1.08348l-0.75885,0l0,1.7326l-1.51328,0l0,0.86882l0.94633,0l-1.89265,2.16695l-1.89263,-2.16695l0.9463,0l0,-0.86882l-1.51328,0l0,-1.7326l-0.75884,0l0,1.08348l-1.89264,-2.16695z" stroke-linecap="null" stroke-linejoin="null" stroke-dasharray="null" stroke-width="0" fill="#ffffff"/>
  <path opacity="0.95" stroke="#f9f9e5" id="svg_163" d="m1340.71116,910.78719l0.9206,-1.61147l0,0.80572l0.36911,0l0,-1.28848l0.73608,0l0,-0.64612l-0.46029,0l0.92059,-1.61147l0.9206,1.61147l-0.4603,0l0,0.64612l0.73608,0l0,1.28848l0.36911,0l0,-0.80572l0.9206,1.61147l-0.9206,1.6115l0,-0.80575l-0.36911,0l0,1.28848l-0.73608,0l0,0.64612l0.4603,0l-0.9206,1.6115l-0.92059,-1.6115l0.46029,0l0,-0.64612l-0.73608,0l0,-1.28848l-0.36911,0l0,0.80575l-0.9206,-1.6115z" stroke-linecap="null" stroke-linejoin="null" stroke-dasharray="null" stroke-width="0" fill="#ffffff"/>
  <path opacity="0.65" stroke="#f9f9e5" id="svg_164" d="m1100.47288,961.28719l0.77957,-2.16691l0,1.08344l0.31256,0l0,-1.7326l0.62331,0l0,-0.86882l-0.38978,0l0.77956,-2.16692l0.77957,2.16692l-0.38979,0l0,0.86882l0.62331,0l0,1.7326l0.31257,0l0,-1.08344l0.77957,2.16691l-0.77957,2.16695l0,-1.08348l-0.31257,0l0,1.7326l-0.62331,0l0,0.86882l0.38979,0l-0.77957,2.16695l-0.77956,-2.16695l0.38978,0l0,-0.86882l-0.62331,0l0,-1.7326l-0.31256,0l0,1.08348l-0.77957,-2.16695z" stroke-linecap="null" stroke-linejoin="null" stroke-dasharray="null" stroke-width="0" fill="#ffff00"/>
  <path id="svg_165" opacity="0.95" stroke="#f9f9e5" d="m1477.71116,1088.78719l0.9206,-1.61146l0,0.80572l0.36911,0l0,-1.28848l0.73607,0l0,-0.64612l-0.46029,0l0.9206,-1.61147l0.9206,1.61147l-0.4603,0l0,0.64612l0.73607,0l0,1.28848l0.36912,0l0,-0.80572l0.9206,1.61146l-0.9206,1.6115l0,-0.80575l-0.36912,0l0,1.28848l-0.73607,0l0,0.64612l0.4603,0l-0.9206,1.61149l-0.9206,-1.61149l0.46029,0l0,-0.64612l-0.73607,0l0,-1.28848l-0.36911,0l0,0.80575l-0.9206,-1.6115z" stroke-linecap="null" stroke-linejoin="null" stroke-dasharray="null" stroke-width="0" fill="#ffffff"/>
  <path stroke="#f9f9e5" id="svg_166" d="m1149.97159,1124.68114l4.12497,-5.62494l4.12497,5.62494l-4.12497,5.62494l-4.12497,-5.62494z" opacity="0.4" stroke-linecap="null" stroke-linejoin="null" stroke-dasharray="null" stroke-width="0" fill="#ffffff"/>
  <path id="svg_167" stroke="#f9f9e5" d="m1410.22159,1230.51448l4.12497,-5.62495l4.12496,5.62495l-4.12496,5.62494l-4.12497,-5.62494z" opacity="0.4" stroke-linecap="null" stroke-linejoin="null" stroke-dasharray="null" stroke-width="0" fill="#ffffff"/>
  <path id="svg_168" stroke="#f9f9e5" d="m1548.22159,992.51447l4.12497,-5.62495l4.12496,5.62495l-4.12496,5.62494l-4.12497,-5.62494z" opacity="0.7" stroke-linecap="null" stroke-linejoin="null" stroke-dasharray="null" stroke-width="0" fill="#ffffff"/>
  <path id="svg_169" stroke="#f9f9e5" d="m1302.22159,873.43114l4.12497,-5.62495l4.12496,5.62495l-4.12496,5.62494l-4.12497,-5.62494z" opacity="0.4" stroke-linecap="null" stroke-linejoin="null" stroke-dasharray="null" stroke-width="0" fill="#ffffff"/>
  <path id="svg_170" stroke="#f9f9e5" d="m1303.72159,739.93114l4.12497,-5.62495l4.12496,5.62495l-4.12496,5.62494l-4.12497,-5.62494z" opacity="0.4" stroke-linecap="null" stroke-linejoin="null" stroke-dasharray="null" stroke-width="0" fill="#ffffff"/>
  <path id="svg_171" stroke="#f9f9e5" d="m1281.97159,1018.18114l4.12497,-5.62495l4.12496,5.62495l-4.12496,5.62494l-4.12497,-5.62494z" opacity="0.4" stroke-linecap="null" stroke-linejoin="null" stroke-dasharray="null" stroke-width="0" fill="#ffffff"/>
  <path id="svg_172" stroke="#f9f9e5" d="m1383.74937,1323.79225l4.12497,-5.62495l4.12496,5.62495l-4.12496,5.62494l-4.12497,-5.62494z" opacity="0.4" stroke-linecap="null" stroke-linejoin="null" stroke-dasharray="null" stroke-width="0" fill="#ffffff"/>
  <path stroke="#f9f9e5" transform="rotate(179.92222595214844 909.9222412109375,1365.1826171874998) " id="svg_173" d="m910.19117,1286.83352c0,0 1.30641,99.36539 0,143.08616c-1.30641,43.72077 -1.30641,-31.79692 -0.81877,-32.55604c0.48764,-0.75912 0.81877,-110.53012 0.81877,-110.53012z" opacity="0.7" stroke-linecap="null" stroke-linejoin="null" stroke-dasharray="null" stroke-width="0" fill="#ffffff"/>
  <rect stroke="#e5e58b" id="svg_174" height="107.25924" width="2.6574" y="1342.58647" x="723.67908" opacity="0.5" stroke-linecap="null" stroke-linejoin="null" stroke-dasharray="null" stroke-width="0" fill="#000000"/>
  <rect stroke="#e5e58b" id="svg_175" height="107.25924" width="1.9074" y="1341.75314" x="591.84575" opacity="0.5" stroke-linecap="null" stroke-linejoin="null" stroke-dasharray="null" stroke-width="0" fill="#000000"/>
  <ellipse stroke="#e5e58b" fill="#007f00" stroke-width="0" stroke-dasharray="null" stroke-linejoin="null" stroke-linecap="null" cx="931.63599" cy="1335.95731" rx="33.33332" ry="33.625" id="svg_128"/>
 </g>
</svg>
