<svg width="640" height="480.0000000000002" xmlns="http://www.w3.org/2000/svg" xmlns:svg="http://www.w3.org/2000/svg" xmlns:xlink="http://www.w3.org/1999/xlink">
 <!-- Created with SVG-edit - http://svg-edit.googlecode.com/ -->
 <g stroke="null">
  <title>Layer 1</title>
  <image xlink:href="https://fthmb.tqn.com/a7-oKjWsmE8sn4zZ3sr2nPwBMd4=/768x0/filters:no_upscale():max_bytes(150000):strip_icc():format(webp)/JavaScript-58acbb8a3df78c345bad32c2.jpg" id="svg_36" height="111.74999" width="161.58328" y="49.69082" x="270.38036"/>
  <polygon stroke="#a07272" id="svg_14" fill="#bfbfbf" points="384.3526077270508,246.885498046875 385.88895416259766,254.802001953125 390.5672378540039,254.97274780273438 386.8384475708008,260.0361785888672 388.1934585571289,268.0582580566406 384.3526077270508,263.2711181640625 380.51175689697266,268.0582580566406 381.8667678833008,260.0361785888672 378.13797760009766,254.97274780273438 382.8162612915039,254.802001953125 384.3526077270508,246.885498046875 385.88895416259766,254.802001953125 " stroke-width="0" transform="rotate(21.28138542175293 384.3526000976561,257.47186279296886) "/>
  <polygon stroke="#000000" transform="rotate(-83.04230499267578 378.2881774902344,273.37091064453125) " stroke-width="0" points="362.0827407836914,273.3708801269531 374.4625930786133,278.6427001953125 394.4936294555664,276.62904357910156 394.4936294555664,270.11277770996094 374.4625930786133,268.0990905761719 362.0827407836914,273.3708801269531 " fill="#470000" id="svg_40"/>
  <polygon stroke="#000000" id="svg_31" transform="rotate(-177.0822296142578 370.7191772460938,228.92181396484378) " stroke-width="0" points="348.6441116333008,228.92184448242188 365.5080032348633,240.39234924316406 392.7942581176758,236.010986328125 392.7942581176758,221.83261108398438 365.5080032348633,217.45127868652344 348.6441116333008,228.92184448242188 " fill="#470000"/>
  <path stroke="#000000" fill="#470000" stroke-dasharray="null" stroke-linejoin="null" stroke-linecap="null" d="m287.86517,233.96812l2.46619,-15.41554l0,46.24661l-2.46619,15.41553l0,-46.2466z" id="svg_7" transform="rotate(0.8789452314376831 289.09826660156045,249.3836517334002) " stroke-width="0.1"/>
  <path stroke="#000000" transform="rotate(3.8383307456970215 363.9426574707028,265.1924133300783) " fill="#470000" stroke-width="0" stroke-dasharray="null" stroke-linejoin="null" stroke-linecap="null" d="m358.94986,249.69409l9.98563,-15.49832l0,46.49496l-9.98563,15.49831l0,-46.49494l0,-0.00001z" id="svg_8"/>
  <polygon stroke="#000000" id="svg_5" transform="rotate(-117.50167846679688 375.9153747558594,237.06274414062503) " stroke-width="0" points="357.1392288208008,237.06275939941406 371.48294830322266,252.41464233398438 394.69153594970703,246.55075073242188 394.69153594970703,227.57476806640625 371.48294830322266,221.7108612060547 357.1392288208008,237.06275939941406 " fill="#470000"/>
  <polygon stroke="#000000" id="svg_10" transform="rotate(-97.08348846435547 370.129638671875,245.417724609375) " stroke-width="0" points="350.35562896728516,245.417724609375 365.4616470336914,257.6813659667969 389.9036636352539,252.9970703125 389.9036636352539,237.83837890625 365.4616470336914,233.15408325195312 350.35562896728516,245.417724609375 " fill="#470000"/>
  <line stroke="#844343" id="svg_17" y2="283.6" x2="298.66666" y1="250.6" x1="309.66666" stroke-linecap="null" stroke-linejoin="null" stroke-dasharray="null" stroke-width="2" fill="none"/>
  <line stroke="#6d3939" transform="rotate(37.46174240112305 305.6351623535156,284.9682922363281) " id="svg_18" y2="288.64457" x2="300.64154" y1="281.29199" x1="310.62878" stroke-linecap="null" stroke-linejoin="null" stroke-dasharray="null" stroke-width="2" fill="none"/>
  <path stroke="#000000" id="svg_20" d="m314.97916,243.47687c12.05208,0.74705 24.10416,-0.89646 26.27084,5.97642c2.16667,6.87288 1.08334,1.64352 1.08334,1.55387c0,-0.08965 -1.89583,-7.38087 -1.89583,-7.47052c0,-0.08965 -0.8125,0.38847 -4.19792,-0.6574c-3.38542,-1.04587 -8.125,-0.59764 -8.125,-0.68729c0,-0.08965 -8.26042,0.68729 -8.26042,0.59764c0,-0.08965 -4.875,0.68729 -4.875,0.68729l0,-0.00001l-0.00001,0z" stroke-linecap="null" stroke-linejoin="null" stroke-dasharray="null" stroke-width="0" fill="#470000" transform="rotate(-8.165899276733398 328.79165649414097,247.58314514160165) "/>
  <ellipse stroke="#000000" ry="5" rx="2" id="svg_22" cy="253.6" cx="294.66666" stroke-linecap="null" stroke-linejoin="null" stroke-dasharray="null" stroke-width="2" fill="#b2b267"/>
  <ellipse stroke="#000000" id="svg_24" ry="5" rx="2" cy="253.77798" cx="328.3046" stroke-linecap="null" stroke-linejoin="null" stroke-dasharray="null" stroke-width="2" fill="#b2b267"/>
  <ellipse stroke="#000000" opacity="0.5" ry="3.2926" rx="0.97888" id="svg_25" cy="253.78174" cx="293.92913" stroke-linecap="null" stroke-linejoin="null" stroke-dasharray="null" stroke-width="0" fill="#ff7f00"/>
  <ellipse stroke="#000000" id="svg_26" opacity="0.5" ry="3.2926" rx="0.97888" cy="254.31567" cx="327.21112" stroke-linecap="null" stroke-linejoin="null" stroke-dasharray="null" stroke-width="0" fill="#ff7f00"/>
  <ellipse stroke="#000000" id="svg_27" opacity="0.5" ry="3.2926" rx="0.97888" cy="252.06567" cx="326.89325" stroke-linecap="null" stroke-linejoin="null" stroke-dasharray="null" stroke-width="0" fill="#00ffff"/>
  <ellipse stroke="#000000" id="svg_28" opacity="0.5" ry="3.2926" rx="0.97888" cy="252.45972" cx="293.61126" stroke-linecap="null" stroke-linejoin="null" stroke-dasharray="null" stroke-width="0" fill="#00ffff"/>
  <path stroke="#000000" fill="#7f0000" stroke-width="0" d="m301.08999,296.71499c0,0 2.18065,2.69299 6.29966,1.6158c4.11901,-1.0772 4.3613,-0.96948 4.3613,-1.03411c0,-0.06463 12.59931,3.08078 12.59931,3.01615c0,-0.06463 -24.71403,-1.44344 -24.71403,-1.50808c0,-0.06463 -3.87671,-1.7666 -1.21147,-2.08976c2.66524,-0.32316 2.66524,0 2.66524,0l-0.00001,0z" id="svg_1"/>
  <ellipse stroke="#6d3939" fill="none" stroke-width="2" stroke-dasharray="null" stroke-linejoin="null" stroke-linecap="null" opacity="0.5" cx="305.45648" cy="286.46766" id="svg_11" rx="6.43074" ry="0.63281"/>
  <path stroke="#7f0000" fill="#7f0000" stroke-width="0" stroke-dasharray="null" stroke-linejoin="null" stroke-linecap="null" d="m298.40756,301.54924c0,0 1.96207,3.31409 10.65123,1.87318c8.68916,-1.44091 8.68916,-1.44091 8.60958,-1.52204c-0.07958,-0.08113 -3.56426,2.96294 -9.73076,2.81885c-6.1665,-0.14409 -8.68916,-1.00864 -9.53005,-1.585c-0.84089,-0.57636 0,-1.585 0,-1.585l0,0.00001z" id="svg_13"/>
  <path stroke="#965858" fill="#7f0000" stroke-dasharray="null" stroke-linejoin="null" stroke-linecap="null" d="m314.57989,310.57552c0,0 -4.41165,9.55463 -1.17644,17.06183c3.23521,7.50721 3.52932,2.72989 3.49665,2.68437c-0.03267,-0.04552 -2.32021,7.55273 -3.79076,2.77541c-1.47055,-4.77731 -2.79404,-14.33194 -1.76466,-17.74431c1.02938,-3.41237 3.23521,-4.77731 3.23521,-4.77731l0,0.00001z" id="svg_15" transform="rotate(-89.88261413574219 313.9407958984375,322.62530517578125) "/>
  <path stroke="#7f2323" fill="#7f0000" stroke-width="0.3" stroke-dasharray="null" stroke-linejoin="null" stroke-linecap="null" d="m324.57024,291.43326c0,0 -1.9203,4.69247 -0.79461,9.94804c1.1257,5.25557 1.32435,6.00636 1.30964,5.99384c-0.01471,-0.01252 -2.3029,-5.43075 -2.03803,-8.62163c0.26487,-3.19088 1.523,-7.32026 1.523,-7.32026l0,0.00001z" id="svg_19" transform="rotate(-29.315793991088867 324.05596923828136,299.4042663574219) "/>
  <polygon stroke="#000000" transform="rotate(-89.2098159790039 379.3990783691408,262.0657958984376) " stroke-width="0" points="360.66129302978516,262.06581115722656 374.9756851196289,267.9706573486328 398.13684844970703,265.71519470214844 398.13684844970703,258.4164581298828 374.9756851196289,256.1609649658203 360.66129302978516,262.06581115722656 " fill="#470000" id="svg_29"/>
  <path stroke="#7f2323" fill="#7f0000" stroke-width="0.3" stroke-dasharray="null" stroke-linejoin="null" stroke-linecap="null" d="m282.57496,105.66618c0,0 5.01987,2.06535 2.07718,4.37855c-2.94266,2.3132 -3.46197,2.64365 -3.42352,2.63814c0.03845,-0.00551 6.01999,-2.3903 5.3276,-3.79474c-0.69239,-1.40444 -3.98126,-3.22195 -3.98126,-3.22195z" transform="rotate(176.8744659423828 283.91934204101557,109.17456054687499) " id="svg_32"/>
  <polygon transform="rotate(-174.4308319091797 380.4556579589844,246.8540496826172) " stroke-width="0" points="358.90207865014213,246.85405277864527 375.3675357241625,252.00303959505152 402.0092393248085,250.0362884964187 402.0092393248085,243.67180180208277 375.3675357241625,241.70505070344996 358.90207865014213,246.85405277864527 " fill="#bfbfbf" id="svg_34" stroke="#000000"/>
  <path fill="#bfbfbf" stroke-width="0" stroke-dasharray="null" stroke-linejoin="null" stroke-linecap="null" d="m281.56658,237.11419l6.81373,-1.30105l6.81373,1.30105l-6.81373,1.30105l-6.81373,-1.30105z" transform="rotate(104.53217315673828 288.3803100585937,237.11419677734378) " id="svg_12" stroke="#000000"/>
  <path fill="#bfbfbf" stroke-width="0" stroke-dasharray="null" stroke-linejoin="null" stroke-linecap="null" d="m287.75713,242.28703l1.40763,-11.61348l1.40763,11.61348l-1.40763,11.61348l-1.40763,-11.61348z" id="svg_38" transform="rotate(5.983978271484375 289.164764404297,242.28703308105455) " stroke="#000000"/>
  <path stroke="#000000" fill="#470000" stroke-width="0" stroke-dasharray="null" stroke-linejoin="null" stroke-linecap="null" d="m308.44178,206.04984l1.91346,-6.1076l1.91346,6.1076l-3.82692,0z" id="svg_2" transform="rotate(76.5416259765625 310.355224609375,202.99603271484378) "/>
  <rect stroke="#e5e58b" id="svg_75" height="0.71191" width="1.29034" y="110.97761" x="259.14746" opacity="0.5" stroke-linecap="null" stroke-linejoin="null" stroke-dasharray="null" stroke-width="0" fill="#b0b0f4"/>
  <ellipse stroke="#fcfced" fill="#ffffff" stroke-width="5" stroke-dasharray="null" stroke-linejoin="null" stroke-linecap="null" opacity="0.1" cx="307.44169" cy="299.92498" rx="7.875" ry="1.875" id="svg_100"/>
  <path stroke="#000000" transform="rotate(10.332831382751465 292.5694274902339,247.74899291992173) " id="svg_21" d="m305.57514,244.00367c-11.34813,0.68139 -22.69625,-0.81767 -24.73637,5.4511c-2.04011,6.26877 -1.02006,1.49905 -1.02006,1.41728c0,-0.08177 1.7851,-6.73212 1.7851,-6.81388c0,-0.08177 0.76504,0.35432 3.95272,-0.59962c3.18768,-0.95395 7.65042,-0.54512 7.65042,-0.62688c0,-0.08177 7.77793,0.62688 7.77793,0.54512c0,-0.08177 4.59025,0.62688 4.59025,0.62688l0.00001,0l0,-0.00001l0,0.00001z" stroke-linecap="null" stroke-linejoin="null" stroke-dasharray="null" stroke-width="0" fill="#470000"/>
  <path stroke="#7f2323" fill="#470000" stroke-width="0" stroke-dasharray="null" stroke-linejoin="null" stroke-linecap="null" d="m284.08335,224.39407c0,0 2.41787,1.48507 1.00049,3.14836c-1.41736,1.66329 -1.66749,1.9009 -1.64897,1.89693c0.01852,-0.00396 2.89958,-1.71873 2.56609,-2.72858c-0.3335,-1.00985 -1.91761,-2.31672 -1.91761,-2.31672l0,0.00001z" transform="rotate(-134.8605499267578 284.73089599609375,226.91673278808597) " id="svg_104"/>
  <path stroke="#a07272" transform="rotate(49.919246673583984 303.16635131835926,218.01042175292972) " id="svg_16" d="m318.19572,234.99145c-8.10242,0 -31.59945,5.44674 -29.97897,-13.61685c1.62048,-19.06359 8.10242,-24.51033 17.01509,-19.06359c8.91267,5.44674 4.05121,9.53179 0,17.7019c-4.05121,8.17011 12.96388,14.97853 12.96388,14.97853l0,0.00001z" stroke-linecap="null" stroke-linejoin="null" stroke-dasharray="null" stroke-width="0" fill="#470000"/>
  <path stroke="#a07272" id="svg_23" d="m296.6816,206.43727l-5.75445,13.36139c0,0 9.65716,-9.82491 32.39635,0.37075c22.73919,10.19566 14.31727,25.0257 35.37208,11.12253c21.05481,-13.90317 34.52988,-2.78063 34.13684,-3.15138c-0.39305,-0.37075 -28.24149,-42.26564 -57.71822,-34.85061c-29.47673,7.41502 -44.63619,16.6838 -45.02924,16.31305c-0.39305,-0.37075 9.08834,0.39384 6.59664,-3.16573z" stroke-linecap="null" stroke-linejoin="null" stroke-dasharray="null" stroke-width="0" fill="#470000"/>
  <path stroke="#7f2323" id="svg_30" fill="#470000" stroke-width="0" stroke-dasharray="null" stroke-linejoin="null" stroke-linecap="null" d="m359.1602,193.32005c0,0 5.01987,2.06535 2.07718,4.37855c-2.94266,2.3132 -3.46197,2.64365 -3.42352,2.63814c0.03845,-0.00551 6.01999,-2.3903 5.3276,-3.79474c-0.69239,-1.40444 -3.98126,-3.22195 -3.98126,-3.22195z" transform="rotate(176.8744659423828 360.50457763671875,196.82843017578122) "/>
  <polygon id="svg_44" stroke="#000000" transform="rotate(-174.4308319091797 377.3935241699219,242.0142822265625) " stroke-width="0" points="357.13677966594696,242.0142822265625 372.6115416288376,247.16326904296875 397.6502684354782,245.19651794433594 397.6502684354782,238.83203125 372.6115416288376,236.8652801513672 357.13677966594696,242.0142822265625 " fill="#bfbfbf"/>
  <polygon fill="#a06d6d" id="svg_46"/>
  <polygon id="svg_4" transform="rotate(-174.4308319091797 377.1952819824219,251.6534881591797) " stroke-width="0" points="358.529489682864,251.65349421685744 372.7888623114053,256.8024810332637 395.8610481287109,254.83572993463088 395.8610481287109,248.47124324029494 372.7888623114053,246.50449214166213 358.529489682864,251.65349421685744 " fill="#bfbfbf" stroke="#000000"/>
  <ellipse stroke="#000000" ry="10.96875" rx="5.0625" id="svg_9" cy="261.03714" cx="372.42249" stroke-linecap="null" stroke-linejoin="null" stroke-dasharray="null" stroke-width="0" fill="#ffffff"/>
  <ellipse stroke="#00ffff" ry="44.5" rx="73" id="svg_35" cy="106.2882" cx="347.89932" stroke-linecap="null" stroke-linejoin="null" stroke-dasharray="null" stroke-width="4" fill="none"/>
  <ellipse stroke="#fcfcfc" ry="62.5" rx="87.82682" id="svg_54" cy="104.63311" cx="343.34201" stroke-linecap="null" stroke-linejoin="null" stroke-dasharray="null" stroke-width="38" fill="none"/>
  <image transform="rotate(-9.628471374511719 375.01840209960943,168.27069091796844) " id="svg_56" xlink:href="https://fthmb.tqn.com/a7-oKjWsmE8sn4zZ3sr2nPwBMd4=/768x0/filters:no_upscale():max_bytes(150000):strip_icc():format(webp)/JavaScript-58acbb8a3df78c345bad32c2.jpg" height="34.48493" width="29.35444" y="151.02823" x="360.34118"/>
  <ellipse stroke="#fcfcfc" transform="rotate(87.92041778564453 374.12835693359375,167.92158508300778) " id="svg_57" ry="15.86595" rx="11.98093" cy="167.9216" cx="374.12837" stroke-linecap="null" stroke-linejoin="null" stroke-dasharray="null" stroke-width="12" fill="none"/>
  <image transform="rotate(99.2177505493164 372.93450927734375,189.1861419677734) " id="svg_58" xlink:href="https://fthmb.tqn.com/a7-oKjWsmE8sn4zZ3sr2nPwBMd4=/768x0/filters:no_upscale():max_bytes(150000):strip_icc():format(webp)/JavaScript-58acbb8a3df78c345bad32c2.jpg" height="50.41666" width="18.82098" y="163.97782" x="363.52403"/>
  <ellipse stroke="#fcfcfc" id="svg_59" ry="9.16667" rx="8.5" cy="190.03241" cx="372.84718" stroke-linecap="null" stroke-linejoin="null" stroke-dasharray="null" stroke-width="6" fill="none"/>
  <rect id="svg_60" height="15.1875" width="14.625" y="45.88088" x="270.38083" stroke-linecap="null" stroke-linejoin="null" stroke-dasharray="null" stroke-width="6" stroke="#fcfcfc" fill="none"/>
  <rect id="svg_61" height="2.25" width="10.6875" y="50.38088" x="270.94333" stroke-linecap="null" stroke-linejoin="null" stroke-dasharray="null" stroke-width="6" stroke="#fcfcfc" fill="none"/>
  <rect id="svg_62" height="2.25" width="10.6875" y="51.50588" x="427.88083" stroke-linecap="null" stroke-linejoin="null" stroke-dasharray="null" stroke-width="6" stroke="#fcfcfc" fill="none"/>
  <path stroke="#7f2323" fill="#470000" stroke-width="0" stroke-dasharray="null" stroke-linejoin="null" stroke-linecap="null" d="m357.91435,195.09984c0,0 5.01987,2.06535 2.07718,4.37855c-2.94266,2.3132 -3.46197,2.64365 -3.42352,2.63814c0.03845,-0.00551 6.01999,-2.3903 5.3276,-3.79474c-0.69239,-1.40444 -3.98126,-3.22195 -3.98126,-3.22195z" transform="rotate(-165.84754943847656 359.25872802734375,198.60821533203125) " id="svg_3"/>
  <path stroke="#7f2323" fill="#470000" stroke-width="0" stroke-dasharray="null" stroke-linejoin="null" stroke-linecap="null" d="m361.47392,198.65941c0,0 5.01987,2.06535 2.07718,4.37855c-2.94266,2.3132 -3.46197,2.64365 -3.42352,2.63814c0.03845,-0.00551 6.01999,-2.3903 5.3276,-3.79474c-0.69239,-1.40444 -3.98126,-3.22195 -3.98126,-3.22195z" transform="rotate(-165.84754943847656 362.81829833984375,202.16778564453125) " id="svg_6"/>
  <path stroke="#7f2323" fill="#470000" stroke-width="0" stroke-dasharray="null" stroke-linejoin="null" stroke-linecap="null" d="m286.75303,224.39407c0,0 2.41787,1.48507 1.00049,3.14836c-1.41736,1.66329 -1.66749,1.9009 -1.64897,1.89693c0.01852,-0.00396 2.89958,-1.71873 2.56609,-2.72858c-0.3335,-1.00985 -1.91761,-2.31672 -1.91761,-2.31672l0,0.00001z" transform="rotate(-134.8605499267578 287.40057373046875,226.9167327880859) " id="svg_33"/>
  <rect id="svg_37" height="6" width="20" y="154.01042" x="421.01043" stroke-linecap="null" stroke-linejoin="null" stroke-dasharray="null" stroke-width="38" stroke="#fcfcfc" fill="none"/>
 </g>
</svg>
